<svg xmlns="http://www.w3.org/2000/svg" width="440" height="324" viewBox="0 0 440 324">
  <g fill="none" fill-rule="evenodd">
    <g transform="translate(263.82)">
      <g transform="rotate(-27 97.488 -23.219)">
        <path fill="#FC3" d="M45.1663557,116.613307 C45.1663557,112.447065 42.1769253,109.068724 38.4902969,109.068724 C34.8027524,109.068724 31.8142381,112.447065 31.8142381,116.613307 C31.8142381,116.613307 30.9512152,134.452356 38.4902969,143.94857 C46.0275463,134.452356 45.1663557,116.613307 45.1663557,116.613307"/>
        <path fill="#020506" d="M60.1869259,83.8149608 C60.1869259,83.8149608 83.5265744,95.1079133 74.2781275,128.4108 C74.2781275,128.4108 69.3395783,111.670056 53.5052587,107.334895 L60.1869259,83.8149608 Z"/>
        <path fill="#C3DEE7" d="M46.1859265,114.292865 L30.3216711,114.292865 C29.6955856,114.292865 29.1533202,113.859605 29.0147603,113.249452 L28.1432013,109.411643 C27.9541782,108.575033 28.5913828,107.776878 29.4509674,107.776878 L47.0566302,107.776878 C47.9162148,107.776878 48.5542747,108.575033 48.363541,109.411643 L47.491982,113.249452 C47.3542774,113.859605 46.8111567,114.292865 46.1859265,114.292865"/>
        <path fill="#34466B" d="M15.0351307,74.8166674 C15.0351307,74.8166674 17.4701929,97.1521877 24.9951939,111.306192 C24.9951939,111.306192 36.9481252,105.555888 51.1145939,111.306192 C51.1145939,111.306192 59.7463636,99.3637776 61.5177068,73.0477373 C62.5372341,57.8836478 61.31842,40.5694963 56.2917741,25.6523734 L21.1830856,25.6523734 C16.5113925,37.8041543 13.1833885,54.1227485 15.0351307,74.8166674"/>
        <path fill="#FFCE00" d="M35.493239,1.4534027 C31.9616717,5.44503201 25.9069454,13.4462363 21.2113037,25.6552725 L56.3199922,25.6552725 C53.1031783,16.1098862 48.3305589,7.54382062 41.5736246,1.15858101 C39.8347832,-0.485584003 37.0789803,-0.338600436 35.493239,1.4534027"/>
        <path fill="#020506" d="M16.4426187 83.8149608C16.4426187 83.8149608-6.89702976 95.1079133 2.35056184 128.4108 2.35056184 128.4108 7.28996634 111.670056 23.1242859 107.334895L16.4426187 83.8149608zM37.8566599 73.63523C37.8566599 73.63523 27.0874751 98.0832118 37.8566599 127.150921 37.8566599 127.150921 49.8232761 102.896069 37.8566599 73.63523"/>
        <path fill="#9BC3D3" d="M51.7415102,51.0448781 C51.7415102,58.5196761 45.6765201,64.5784754 38.1951398,64.5784754 C30.7137596,64.5784754 24.6496248,58.5196761 24.6496248,51.0448781 C24.6496248,43.57008 30.7137596,37.5104261 38.1951398,37.5104261 C45.6765201,37.5104261 51.7415102,43.57008 51.7415102,51.0448781"/>
        <path fill="#DEEDF2" d="M47.6887961,50.9714345 C47.6887961,56.1602962 43.4789694,60.3672736 38.2846831,60.3672736 C33.091252,60.3672736 28.8805701,56.1602962 28.8805701,50.9714345 C28.8805701,45.7825728 33.091252,41.5755955 38.2846831,41.5755955 C43.4789694,41.5755955 47.6887961,45.7825728 47.6887961,50.9714345"/>
      </g>
      <g fill="#FFF" opacity=".503" transform="translate(10.842 9.938)">
        <rect width="74.086" height="73.752"/>
        <rect width="74.086" height="73.752" transform="translate(0 83.456)"/>
      </g>
      <g fill="#FFF" opacity=".503" transform="translate(92.156 9.938)">
        <rect width="73.947" height="73.752"/>
        <rect width="73.947" height="73.752" transform="translate(1.946 83.456)"/>
      </g>
      <rect width="9.938" height="157.207" x="84.928" y="9.938" fill="#C3DEE7"/>
      <polygon fill="#C3DEE7" points="83.573 -82.669 93.511 -82.669 93.511 92.608 83.573 92.608" transform="rotate(90 88.542 4.97)"/>
      <polygon fill="#C3DEE7" points="83.121 4.517 93.06 4.517 93.06 172.567 83.121 172.567" transform="rotate(90 88.09 88.542)"/>
      <rect width="9.938" height="157.207" x=".903" y="9.938" fill="#C3DEE7"/>
      <polygon fill="#C3DEE7" points="83.121 84.025 93.06 84.025 93.06 259.302 83.121 259.302" transform="rotate(90 88.09 171.663)"/>
      <rect width="9.938" height="159.014" x="166.242" y="9.035" fill="#C3DEE7"/>
    </g>
    <path fill="#4B99B4" d="M145.429594,144.979025 C144.443747,144.737254 143.476752,144.492707 142.528609,144.245412 C123.434895,139.26723 98.1385522,136.018151 70.7242463,134.796968 C54.0847257,134.055764 38.1631322,132.107633 25.2977749,128.952439 C-8.39948067,120.688559 -8.43773907,107.361862 25.21405,99.0866105 C40.0590854,95.4362284 58.9881218,93.396389 78.3981051,92.9665482 C95.0151143,92.598463 110.627536,90.8200647 122.156288,87.8612366 C122.304886,87.8231494 122.454593,87.7853343 122.6043,87.7477912 C142.271335,82.8261142 174.08569,82.777417 193.991147,87.6406031 C194.105368,87.6683523 194.21848,87.6963736 194.330483,87.7243949 C199.647846,89.0481957 207.322813,89.6263043 214.759359,89.2720938 C257.158538,87.2523861 302.755897,90.2702494 335.594911,98.3262276 C388.066583,111.198599 388.066583,132.106708 335.594911,144.979216 C283.081099,157.861789 197.942297,157.861708 145.429594,144.979025" opacity=".292" transform="translate(0 168.953)"/>
    <g transform="translate(25.298 129.414)">
      <polygon fill="#5D241B" points="274.42 139.995 276.53 149.625 272.593 149.625 268.528 139.995"/>
      <polygon fill="#5D241B" points="52.459 139.995 50.349 149.625 54.286 149.625 58.351 139.995"/>
      <polygon fill="#9A6153" points="45.912 140.556 279.794 140.556 279.794 129.352 48.08 129.352"/>
      <polygon fill="#9A6153" points="35.426 131.355 27.426 167.877 34.645 167.877 50.065 131.355"/>
      <polygon fill="#9A6153" points="290.943 131.355 298.943 167.877 291.724 167.877 276.303 131.355"/>
      <path fill="#FFDB70" d="M22.9231097,123.621056 C23.7308765,126.54163 26.5447185,131.531348 32.1748283,131.531348 L293.329206,131.531348 C299.890795,131.531348 303.517255,126.764797 303.517255,123.621056 L22.9231097,123.621056 Z"/>
      <polygon fill="#FFDB70" points="22.923 123.517 303.517 123.517 292.434 108.653 35.357 106.838"/>
      <path fill="#FFDB70" d="M308.514718,31.6702773 C310.508665,12.5410029 296.8397,4.06687232e-14 276.820184,4.06687232e-14 L56.0524441,4.06687232e-14 C29.8594559,4.06687232e-14 20.6344203,15.4761312 19.1450246,31.6702773 C17.6580546,47.8619977 12.6974451,66.1665253 46.7619139,71.1465406 C80.823957,76.1265559 271.568487,77.2763499 289.014308,71.1465406 C306.462554,65.0167313 307.119926,45.0602843 308.514718,31.6702773"/>
      <path fill="#FFE473" d="M32.4180073,40.2030107 C33.5071583,20.9621529 39.2537029,9.85232831 54.9602781,9.85232831 L272.552743,9.85232831 C285.578891,9.85232831 300.135672,17.687423 295.538921,40.2030107 C290.942171,62.7185985 291.036774,65.015761 276.239846,68.4651432 C261.442918,71.9120997 59.3556934,68.4651432 50.0020944,68.4651432 C40.6484953,68.4651432 33.6260188,65.3990257 32.4180073,59.2692163 C31.2099958,53.139407 32.4180073,40.2030107 32.4180073,40.2030107"/>
      <g transform="translate(0 31.52)">
        <path fill="#FFCE00" d="M.809725172 10.3538891C1.758184 4.39388055 5.96196698 1.82503682 13.5617662.544253549 18.8110371-.341136403 29.5836858-.435739714 33.8359833 2.5066658 38.0858551 5.44907132 40.0482673 23.4334031 43.3181458 36.1854442 39.7207943 42.7252012 36.4509158 73.789047 36.4509158 73.789047L23.0463545 91.7733789C23.0463545 91.7733789-5.07508586 58.7495465.809725172 10.3538891M325.874443 10.5042421C324.925984 4.54423361 320.722201 1.97538989 313.122402.694606611 307.873131-.190783342 297.100482-.285386652 292.848185 2.65701886 288.598313 5.59942438 286.635901 23.5837562 283.366022 36.3357972 286.963374 42.8755543 290.233252 73.9394001 290.233252 73.9394001L303.637814 91.9237319C303.637814 91.9237319 331.759254 58.8998995 325.874443 10.5042421"/>
        <path fill="#FFDB70" d="M14.7988864.409341245C14.3622558.462707215 13.9450309.523350363 13.5641919.586419236 5.96196698 1.86962824 1.758184 4.43847196.809725172 10.3960548-5.07508586 58.7917122 23.0463545 91.8179703 23.0463545 91.8179703L32.2883702 79.4152338C22.7892275 68.4048639 10.9541109 27.6453916 14.7988864.409341245M325.874443 10.5042421C324.938113 4.61700539 320.809527 2.04331021 313.379529.747972581 315.645157 25.0391917 304.001672 68.2583501 294.390946 79.5209954L303.637814 91.9237319C303.637814 91.9237319 331.759254 58.8998995 325.874443 10.5042421"/>
        <path fill="#FFDB70" d="M14.7609211 8.34601056C18.6372311 7.93848861 29.841659 4.92573705 34.9793465 3.50911312 34.6712793 3.09673972 34.3510835 2.73773229 34.0139076 2.50728833 29.7640358-.437542913 18.9913871-.340513877 13.7421162.544876076 7.25087373 1.63887846 3.2581289 3.69346829 1.63531828 7.9748745 5.71538924 8.64680058 12.0344052 8.63467195 14.7609211 8.34601056M325.2292 8.12484761C323.606389 3.8434414 319.613644 1.78885156 313.122402.694849184 307.873131-.190540769 297.100482-.285144079 292.848185 2.65726144 292.513435 2.89013112 292.193239 3.24913855 291.885172 3.65908623 297.022859 5.07813588 308.227287 8.08846172 312.103597 8.49598367 314.830113 8.78464505 321.146703 8.79677368 325.2292 8.12484761"/>
      </g>
      <path fill="#FFDB70" d="M32.9856394,73.4382451 C30.4798645,75.7184275 28.7042332,76.8439643 27.6951312,80.8876494 C26.6836035,84.9337602 28.7042332,97.0648154 30.7272886,102.796806 C32.750344,108.523945 36.794029,109.198296 42.5235936,109.198296 L290.240178,109.198296 C295.969742,109.198296 298.329974,102.122454 298.664724,95.3813616 C299.004325,88.6402693 299.142592,81.3655174 298.410023,78.2824198 C297.682305,75.1993221 295.329351,72.5237465 293.13892,71.2235574 C290.94849,69.925794 269.606953,62.6292105 256.454667,62.6292105 L55.3192977,62.6292105 C50.8098733,62.6292105 44.2676905,63.9803399 32.9856394,73.4382451"/>
      <path fill="#FFCE00" d="M27.8285461,80.6402253 C27.7848831,80.7954718 27.7339428,80.926461 27.6951312,81.0914104 C26.6836035,85.1375211 28.7042332,97.2685764 30.7272886,102.998141 C32.750344,108.727706 36.794029,109.402057 42.5235936,109.402057 L290.240178,109.402057 C295.969742,109.402057 298.327548,102.323789 298.664724,95.5851226 C298.941257,90.0932792 299.074672,84.2860914 298.722941,80.6402253 L27.8285461,80.6402253 Z"/>
      <g transform="translate(35.16 7.768)">
        <path fill="#5FC9D0" d="M2.1328058,5.36784066 C-1.3990511,3.49760599 -0.140099363,0.111292638 2.96968124,2.22167417 C11.8939268,-1.2786483 34.3246142,5.57402736 43.4647494,5.36784066 C52.6048846,5.15922823 56.5491149,2.22167417 58.8341487,2.22167417 C60.91057,-1.2786483 64.442427,-0.434495689 60.91057,3.29627074 C61.1191825,12.0143296 59.4575602,25.3073075 58.8341487,31.330385 C58.2107371,37.3534624 65.8954368,48.1527941 67.1422599,52.7228616 C71.2975283,55.1607162 71.503715,57.7635201 68.1804706,56.4609053 C60.91057,59.3693506 26.6423403,55.4954663 21.4488611,56.8102098 C16.255382,58.1249532 10.9770024,57.950301 10.9770024,57.950301 C10.9770024,57.950301 4.17526701,61.2250309 7.93271643,56.3517476 C6.81203106,51.0806452 8.15588321,37.6154408 7.11767253,32.2933981 C6.07946184,26.9689298 2.1328058,12.6377412 2.1328058,5.36784066"/>
        <path fill="#4B99B4" d="M67.1399663,52.7973708 C66.7858103,51.4996075 65.9052718,49.6875902 64.8500811,47.6354261 C60.3212508,56.9065505 40.9591067,47.8028012 28.7334482,49.9180342 C14.6593865,52.3558887 16.0129415,40.4455746 15.2003234,30.1047051 C14.5162687,21.3866462 7.49864364,7.28347581 2.5210541,2.02935351 C-0.251550603,0.530254906 -1.22426669,3.66671849 2.13051223,5.44234985 C2.13051223,12.7122504 6.07716827,27.043439 7.11537895,32.3679073 C8.15358963,37.6899499 6.80973749,51.1551544 7.92799713,56.4262568 C4.17297344,61.2995401 10.9747089,58.0248101 10.9747089,58.0248101 C10.9747089,58.0248101 16.2530884,58.1994624 21.4465676,56.884719 C26.6400467,55.5699755 60.9107022,59.4438598 68.178177,56.5378402 C71.5014215,57.8380293 71.292809,55.2352254 67.1399663,52.7973708"/>
      </g>
      <g transform="translate(221.177 7.768)">
        <path fill="#64C5D6" d="M68.3535577,5.36784066 C71.8854146,3.49760599 70.6264628,0.111292638 67.5166822,2.22167417 C58.5924366,-1.2786483 36.1617493,5.57402736 27.0216141,5.36784066 C17.8807512,5.15922823 13.9340951,2.22167417 11.6514871,2.22167417 C9.5750657,-1.2786483 6.04320879,-0.434495689 9.5750657,3.29627074 C9.36645327,12.0143296 11.0280755,25.3073075 11.6514871,31.330385 C12.2748986,37.3534624 4.58777325,48.1527941 3.34337587,52.7228616 C-0.811892598,55.1607162 -1.0180793,57.7635201 2.30273946,56.4609053 C9.5750657,59.3693506 43.8440232,55.4954663 49.0375023,56.8102098 C54.2309815,58.1249532 59.509361,57.950301 59.509361,57.950301 C59.509361,57.950301 66.3110965,61.2250309 62.553647,56.3517476 C63.6743324,51.0806452 62.3304803,37.6154408 63.3686909,32.2933981 C64.4069016,26.9689298 68.3535577,12.6377412 68.3535577,5.36784066"/>
        <path fill="#4B99B4" d="M3.3448313,52.7226191 C3.69898728,51.4248557 4.57952578,49.6128385 5.63471655,47.5606744 C10.1635468,56.8317987 29.5249632,47.7280495 41.7506217,49.8432824 C55.8246834,52.281137 54.4711283,40.3708228 55.2837465,30.0299533 C55.9678012,21.3118944 62.9854262,7.20872404 67.9630158,1.95460175 C70.7356205,0.455503143 71.7083366,3.59196673 68.3535577,5.36759809 C68.3535577,12.6374986 64.4069016,26.9686872 63.3686909,32.2931556 C62.3304803,37.6151982 63.6743324,51.0804026 62.553647,56.351505 C66.3110965,61.2247883 59.509361,57.9500584 59.509361,57.9500584 C59.509361,57.9500584 54.2309815,58.1247107 49.0375023,56.8099672 C43.8440232,55.4952238 9.57409541,59.369108 2.30662062,56.4630884 C-1.01662386,57.7632775 -0.810437163,55.1604736 3.3448313,52.7226191"/>
      </g>
    </g>
    <g transform="translate(85.832 178.891)">
      <path fill="#723846" d="M38.7853676,87.1118686 L49.764271,98.7510431 L50.9528131,124.947622 L51.531499,125.686181 C53.1451335,127.743565 52.434538,130.77193 50.0750719,131.890949 C48.2256263,132.768283 46.0147844,132.144559 44.8926489,130.42901 L39.142653,121.636238 L29.9327844,103.639741 C27.9118563,99.6910349 28.9639261,94.8600246 32.4417331,92.1163039 L38.7853676,87.1118686 Z M22.02846,51.875729 L23.4907598,67.8937166 L8.1990883,89.3027885 L8.1990883,90.2457166 C8.1990883,92.8735647 5.76110883,94.8209035 3.20332649,94.2351253 C1.19911294,93.7761971 -0.161408624,91.9072361 0.015449692,89.8553634 L0.920521561,79.3382341 L4.79455441,59.4058727 C5.644423,55.0329774 9.46917043,51.875729 13.9167392,51.875729 L22.02846,51.875729 Z"/>
      <path fill="#9BC3D3" d="M23.2637125,67.6868172 L16.7145791,49.7624641 L22.7379713,46.1091992 C36.8196879,37.5671458 52.11154,30.847885 68.2135524,27.9332238 L54.3716222,52.2524846 L23.2637125,67.6868172 Z"/>
      <path fill="#C3DEE7" d="M61.3786448,34.0579877 L16.0169035,34.0579877 C5.05101027,34.0579877 2.56342916,13.7850103 11.8975277,5.80221766 C27.5605791,-7.59293634 69.8633265,6.40032854 69.8633265,6.40032854 C69.8633265,6.40032854 90.5013142,10.3928542 88.2746612,23.4306776 L88.3297741,23.41577 L88.2457495,23.593306 C87.9570842,25.1595072 87.3395483,26.8549076 86.3195072,28.6880903 L83.3307598,34.0579877 L83.2828747,34.0579877 L51.4813552,101.115975 L30.2669405,94.0025667 L30.3651047,93.4444353 C34.2347556,71.3848049 46.9051745,51.3390554 61.3786448,34.0579877 Z"/>
    </g>
    <g transform="translate(114.743 48.789)">
      <g transform="translate(11.745)">
        <path fill="#723846" d="M9.41889117,31.5674787 C8.53035318,30.9656184 7.68617659,30.2713761 6.89964271,29.4848422 C0.176271047,22.761335 0.196960986,11.8241276 6.94572074,5.07505164 C13.6944805,-1.67357259 24.6321396,-1.69435288 31.3554661,5.02897361 C32.4855975,6.15924055 33.4251376,7.40831653 34.1740862,8.73644794 C34.2230554,8.75361427 34.2716181,8.77078059 34.3195483,8.78930215 C34.5818316,9.12811119 34.8131704,9.49447669 35.1120903,9.79940482 C36.6295934,11.3448258 40.2908994,16.060144 43.0077864,19.166797 C43.1729897,19.3556266 41.1892854,22.1035937 41.0481602,22.6524644 C41.7273142,23.0039223 42.1027598,24.3609654 43.2723285,26.2185424 C45.2761807,29.4015855 45.8471869,31.7087395 45.2608214,32.7052898 C43.767306,35.242066 39.6002259,36.950296 34.4688953,38.9842796 C31.0710021,40.3311584 27.7387023,41.4373022 24.9498973,41.3414418 C24.8365092,41.3380085 24.7265544,41.3163247 24.6131663,41.3128915 C24.5788337,41.3105876 24.5410226,41.3380085 24.3955606,41.395064 C23.5205749,42.5775527 23.1701109,44.0076882 23.0097413,45.4526861 C22.7715359,47.5870475 23.4380862,49.5468093 24.0657413,51.4962714 C24.1710883,51.8215732 24.8204723,53.5119592 25.0140452,53.9011379 C26.870538,57.6448874 27.8062382,61.6807806 28.1131992,65.8993145 C28.193384,66.9973268 28.0708255,68.1558278 27.8348789,69.256144 C27.1293881,72.5490065 24.5375893,74.1823371 21.1784559,73.5454213 C19.3722875,73.2029983 17.7757741,72.4234664 16.333848,71.3961974 C11.4067967,67.8853227 7.6318768,63.4407806 5.33786858,57.8480373 C3.65543326,53.7470475 -0.0294064229,46.7676164 0.954223883,45.4526861 C5.33786858,39.5925709 7.86451649,34.3326489 9.41889117,31.5674787 Z"/>
        <path fill="#420716" d="M24.4493634,41.3615896 C23.6100657,42.4820537 22.9602752,43.9897991 22.9369651,45.5441194 C17.1083203,43.5881974 15.4883162,38.4958525 15.4310349,38.3323658 C17.3279589,39.856103 21.630924,40.9452159 24.4493634,41.3615896 Z M41.0629774,22.6687272 C40.4777413,22.8001851 39.8053183,22.9863042 38.9978686,23.1679058 C39.67246,22.1234705 40.4110637,21.3564069 41.1520616,20.7149284 C41.6319507,20.3006779 42.2103203,19.9934911 42.7451869,19.6375157 C42.1519097,20.6281933 41.657384,21.6780496 41.0629774,22.6687272 Z"/>
      </g>
      <path fill="#420716" d="M24.319006,22.8899384 L23.0294085,22.9972279 C22.9377945,23.028037 22.8473099,23.0577166 22.7568253,23.0885257 C22.2150923,23.4491992 21.6138192,23.7470801 21.144275,24.1819754 C18.9315358,26.2284723 18.6452196,28.6287762 20.4204434,30.7848665 C20.9644352,31.4457248 21.1648746,32.1031499 21.1167637,32.9489076 C21.0709568,33.7569897 21.0835604,34.5753717 21.190082,35.3663326 C21.2896919,36.1093634 21.5451087,36.8204559 21.7661477,37.6742094 C20.2990142,37.1982505 18.8639547,36.7314168 17.4311991,36.2657577 C15.7281641,35.2864641 14.102965,34.2101355 12.7309239,32.816501 C10.9751703,31.0302546 9.64432841,28.9643326 8.71549474,26.631384 C8.61127708,26.3677002 8.50362615,26.105191 8.39827913,25.8426817 C3.61321137,27.9587926 0.0616795429,26.2079179 -1.74905146,23.7277002 C-3.78425475,20.9404312 -3.59298575,17.2903285 -1.35734304,14.3512731 C-0.0780453031,12.668883 1.60439002,11.5765626 3.6498931,11.0903491 C5.63581096,10.6189528 7.48087461,10.9522505 9.21946188,11.6496099 C13.3711374,3.58920739 19.837466,-0.803971253 28.8223202,-1.35523614 C29.1075071,-1.34041889 29.3938233,-1.32673101 29.6801395,-1.31417248 C36.8324886,-1.04592608 42.1306939,2.07003285 45.639852,7.93445585 C45.3430553,7.82029979 45.0214126,7.74494867 44.7566898,7.58516632 C38.038468,3.5150308 28.908197,8.22664476 28.0561149,16.1900123 C28.0286036,16.4491335 27.9999629,16.7070801 27.9724968,16.9673306 C27.9610225,17.0711869 27.9495933,17.1761725 27.938119,17.2800287 C27.9335563,17.5551417 27.9301231,17.8302094 27.9255604,18.1052772 C27.9450307,18.3506653 27.9645009,18.5983573 27.9851005,18.8448747 C27.9140861,20.6299918 28.5554742,22.2473306 28.9471374,23.9982053 C28.3492976,24.3634415 27.7674947,24.718423 27.1364516,25.103039 C26.4183572,24.2002259 25.7895728,23.2586078 24.6007596,22.9686776 L24.319006,22.8899384 Z"/>
    </g>
    <g transform="translate(204.189 144.559)">
      <path fill="#9BC3D3" d="M69.2951447,19.7006558 L34.2282573,0.414598927 C33.5980923,0.0684639332 32.7801285,-0.0970788898 32.0728092,0.059137577 C31.0791283,0.279578724 30.1469166,0.579717825 30.1492482,1.41485063 L30.0962575,32.7075313 L33.1811618,34.4570709 C32.1717957,34.9291117 1.38986024,49.3131086 1.33862887,49.3485063 L1.26488706,50.5556336 C1.26488706,51.0767861 1.55148175,51.5567967 2.02133934,51.8177651 C7.26122541,54.7318063 37.9551964,71.7669895 37.9551964,71.7669895 C38.9645625,72.3273551 40.2094191,72.3273551 41.2194211,71.7669895 L70.3924753,55.5778976 C70.6968537,55.4092177 70.8844406,55.0974419 70.8852885,54.7605273 L70.9357356,22.4097503 C70.9325561,21.2903756 70.3072663,20.2570577 69.2951447,19.7006558"/>
      <path fill="#C3DEE7" d="M69.9024177,54.654228 L30.065311,32.8317414 L29.9832774,1.6079486 C29.9809499,0.706259522 30.995827,0.139683381 31.8108233,0.587772405 L68.5471286,20.7918394 C69.3468636,21.2316619 69.8413725,22.048142 69.843704,22.933086 L69.9024177,54.654228 Z"/>
      <polygon fill="#FBFBFB" points="31.622 2.401 68.092 22.498 68.169 51.893 31.622 31.752"/>
      <path fill="#DEEDF2" d="M69.8797377,54.6514089 L30.0634033,32.6064251 L1.90550176,48.2306154 C1.09209512,48.6820958 1.09209512,49.8093131 1.90550176,50.2605816 L38.5618335,70.5976128 C39.3596609,71.0405299 40.3431675,71.0405299 41.1416308,70.5976128 L69.8797377,54.6514089 Z"/>
      <path fill="#C3DEE7" d="M49.2222826,60.5599947 C50.0150229,60.9971676 50.411393,61.2157435 51.2045572,61.6529165 C50.4027025,62.087885 50.0020931,62.3055918 49.2002385,62.7405604 C48.4074982,62.3033874 48.0109161,62.0847904 47.2179638,61.6476174 C48.0198185,61.2126701 48.4208518,60.9949632 49.2222826,60.5599947 Z M46.2963503,58.946959 C47.0888786,59.3841319 47.4854607,59.6027078 48.2786249,60.0398808 L48.2786249,60.0398808 L46.2743062,61.1275247 C45.4815659,60.6903517 45.0849838,60.4717547 44.2920315,60.0345817 L44.2920315,60.0345817 Z M52.4244022,58.8223038 C53.2171425,59.2590316 53.6137246,59.4776075 54.4066768,59.9152255 C53.6048222,60.3501941 53.2042128,60.5679009 52.4023581,61.0028694 C51.6091939,60.5656965 51.2128237,60.3470994 50.4200835,59.9099265 C51.2215142,59.4749579 51.6225475,59.2572511 52.4244022,58.8223038 Z M43.370206,57.3336901 C44.1627343,57.7708631 44.5593164,57.9894602 45.3524806,58.4266331 L45.3524806,58.4266331 L43.3479499,59.5142558 C42.5554216,59.0770829 42.1584156,58.858507 41.3656753,58.421334 L41.3656753,58.421334 Z M52.3116381,55.6820348 C53.1043784,56.1192078 53.5009605,56.3377837 54.2939127,56.7749566 L54.2526669,56.7524817 C55.3624224,57.3642577 56.0159624,57.7245793 57.220057,58.3883527 C56.4184143,58.8233212 56.017169,59.0410068 55.2155263,59.4759754 C53.8988143,58.7500033 53.2404584,58.3870173 51.9235345,57.6610452 L52.1618296,57.7926028 C51.4514961,57.401073 51.0563319,57.1831611 50.3073193,56.7701027 C51.1087501,56.334689 51.5097834,56.1169822 52.3116381,55.6820348 Z M49.4982579,57.2088229 C50.2914221,57.6459959 50.6880042,57.8645718 51.4805326,58.3017447 C50.6791018,58.7371584 50.2780685,58.9544201 49.4762138,59.3898337 C48.6834735,58.9526608 48.2868914,58.7340637 47.4939392,58.2968908 C48.2957939,57.8614771 48.6968272,57.6442154 49.4982579,57.2088229 Z M58.0507386,55.7687064 C58.8439028,56.2054342 59.2404849,56.4240313 60.0330132,56.8616493 C59.2315824,57.2965967 58.8305491,57.5143035 58.0286944,57.949272 C57.2359542,57.5120991 56.839584,57.2935232 56.0464198,56.8563503 C56.8482745,56.4213817 57.2493078,56.2036749 58.0507386,55.7687064 Z M25.8120686,47.653865 L42.4263364,56.8132795 L40.4220176,57.9009234 C34.8840697,54.8477711 29.3461217,51.79464 23.8077499,48.7414453 C24.6091806,48.306498 25.010002,48.0888123 25.8120686,47.653865 L25.8120686,47.653865 Z M46.5721137,55.5955541 C47.3652779,56.032727 47.761648,56.2513241 48.5543883,56.6884971 C47.7529575,57.1239107 47.3519242,57.3415963 46.5500696,57.7765649 C45.7573293,57.3393919 45.3607472,57.1208161 44.5677949,56.6836431 C45.3692257,56.2486746 45.7706829,56.0309677 46.5721137,55.5955541 Z M60.8641187,54.2419183 C61.656647,54.6790912 62.0532291,54.8976671 62.8463933,55.33484 L62.8463933,55.33484 L60.8418626,56.4224839 C60.0493343,55.985311 59.6527522,55.7667139 58.859588,55.329541 C59.6612307,54.8945936 60.062476,54.6768868 60.8641187,54.2419183 Z M55.1248063,54.1552255 C55.9175465,54.5923985 56.3141286,54.8109956 57.1070809,55.2481685 C56.3056501,55.683561 55.9046168,55.9008227 55.1027621,56.3362363 C54.3095979,55.8990634 53.9132278,55.6804875 53.1204875,55.2433146 C53.9219183,54.8079009 54.3233755,54.5901941 55.1248063,54.1552255 Z M49.3857058,54.0692111 C50.178446,54.5059389 50.5748162,54.724536 51.3679804,55.1617089 C50.5661257,55.5971014 50.1650924,55.8148082 49.3636617,56.2497768 C48.5704974,55.8126038 48.1739153,55.5940068 47.3809631,55.1568338 C48.1828178,54.7218865 48.5838511,54.5041796 49.3857058,54.0692111 Z M43.6457574,53.9827515 C44.4387097,54.4194794 44.8352918,54.6380552 45.628456,55.0756733 C44.8266013,55.5106418 44.425568,55.7283487 43.6241372,56.1633172 C42.830973,55.7261443 42.4343909,55.5075472 41.6414387,55.0703742 C42.4432934,54.6354057 42.8443267,54.4177201 43.6457574,53.9827515 Z M57.9379744,52.6288826 C58.7307147,53.0660555 59.1272968,53.2842075 59.9202491,53.7218043 L59.9202491,53.7218043 L57.9159303,54.8094482 C57.1229781,54.3722753 56.726396,54.1536782 55.9336557,53.7165053 L55.9336557,53.7165053 Z M52.198662,52.542423 C52.9914023,52.9791508 53.3877724,53.1977267 54.1809366,53.6348996 C53.3795059,54.0703133 52.9784725,54.287575 52.1766179,54.7229887 C51.3834537,54.2858157 50.9868716,54.0672187 50.1943432,53.6300457 C50.995774,53.1950772 51.3968073,52.9773915 52.198662,52.542423 Z M46.4593495,52.4555183 C47.2520898,52.8926913 47.64846,53.1112671 48.4416242,53.5484401 C47.6397695,53.9838537 47.2391601,54.2015606 46.4373054,54.6365291 C45.6441412,54.1993562 45.2475591,53.9807591 44.4546069,53.5435861 C45.2564615,53.1081725 45.6574949,52.8904869 46.4593495,52.4555183 Z M40.7196132,52.3690588 C41.5125654,52.8062317 41.9087236,53.0248076 42.7018878,53.4619805 C41.9002451,53.8973942 41.4994237,54.115101 40.6973571,54.5500484 C39.9048288,54.1128754 39.5082467,53.8942995 38.7150825,53.4571266 C39.5167252,53.022158 39.9175465,52.8040061 40.7196132,52.3690588 Z M55.0116182,51.0155713 C55.8043585,51.4527443 56.2009406,51.6713413 56.9938928,52.1085143 L56.9938928,52.1085143 L54.989998,53.196137 C54.1968338,52.758964 53.8004637,52.5403882 53.0072995,52.1032152 C53.8091541,51.6682467 54.2101875,51.4505398 55.0116182,51.0155713 Z M49.2723058,50.9291117 C50.06547,51.3658396 50.4620521,51.5844366 51.2550043,52.0220547 C50.4531496,52.4570232 50.0521163,52.6747089 49.2506856,53.1096774 C48.4575214,52.6725045 48.0609393,52.4539286 47.267987,52.0167556 C48.0694178,51.5817871 48.470875,51.3640803 49.2723058,50.9291117 Z M43.5327813,50.842419 C44.3257336,51.2796132 44.7223157,51.498189 45.5154799,51.935362 C44.7136252,52.3707757 44.3125919,52.5880374 43.5111612,53.0234298 L43.5111612,53.0234298 L41.5282506,51.9300629 C42.3298934,51.4950944 42.7311386,51.2773876 43.5327813,50.842419 Z M37.7932569,50.7559383 C38.5862092,51.1931324 38.9827913,51.4117295 39.7755316,51.8489024 L39.7755316,51.8489024 L37.7714248,52.9365251 C36.9784725,52.4993522 36.5814665,52.2807763 35.7887262,51.8436034 C36.5903689,51.4086348 36.9911903,51.190928 37.7932569,50.7559383 Z M52.0854739,49.4023448 C52.8782142,49.8394118 53.2747963,50.0581572 54.0677486,50.4952242 L54.0677486,50.4952242 L52.0638537,51.5828893 C51.2706895,51.1457164 50.8743194,50.9272041 50.0811552,50.4899252 L50.0811552,50.4899252 Z M46.3459495,49.3158641 C47.1389018,49.7525071 47.5354839,49.9712526 48.3286481,50.4087435 C47.5267934,50.8436908 47.126184,51.0614612 46.3243293,51.4964298 C45.5311651,51.0592568 45.134583,50.8407233 44.3416308,50.4034444 C45.1434855,49.9684971 45.5445188,49.7503875 46.3459495,49.3158641 Z M40.6064251,49.2291714 C41.3993774,49.6664503 41.7959595,49.8845598 42.5891237,50.3220507 C41.787057,50.7569981 41.3862357,50.9746837 40.5848049,51.409737 C39.7916407,50.9725641 39.3950586,50.7540306 38.6018944,50.3167517 C39.4035371,49.8818043 39.8043585,49.6641187 40.6064251,49.2291714 Z M34.8666887,49.1426906 C35.659853,49.5799695 36.0564351,49.7980791 36.8493873,50.23557 C36.0475326,50.6705173 35.6464993,50.8884149 34.8450686,51.3232775 C34.0521163,50.8860833 33.6555342,50.6675498 32.86237,50.2302709 C33.6638008,49.7953236 34.0648341,49.5776379 34.8666887,49.1426906 Z M49.1591177,47.7890972 C49.951646,48.2261641 50.3482281,48.4449096 51.1413923,48.8819766 L51.1413923,48.8819766 L49.1374975,49.9695569 C48.3443333,49.5324899 47.9477512,49.3139564 47.154799,48.8766775 C47.9562297,48.4417301 48.357687,48.2240445 49.1591177,47.7890972 Z M43.4195933,47.7024045 C44.2125455,48.1394714 44.6091276,48.3582169 45.4022918,48.7952838 C44.6004372,49.2302312 44.1994039,49.4479168 43.3979731,49.8828641 C42.6048089,49.4457972 42.2082268,49.2272637 41.4150626,48.7899848 C42.2171292,48.3550374 42.6179506,48.1373518 43.4195933,47.7024045 Z M37.6798569,47.6159237 C38.4730211,48.0529907 38.8696032,48.2713122 39.6627674,48.7088031 C38.8607008,49.1437504 38.4598794,49.361436 37.6582367,49.7963834 C36.8652845,49.3593164 36.4687024,49.1407829 35.6755382,48.703504 C36.4769689,48.2685567 36.8784262,48.050871 37.6798569,47.6159237 Z M31.9403325,47.5294429 C32.7334967,47.966086 33.1300788,48.1848314 33.9230311,48.6223223 C33.1211764,49.0572697 32.7201431,49.2749553 31.9187123,49.7101146 C31.1255481,49.2728357 30.728966,49.0543022 29.9360138,48.6170232 C30.7374445,48.1820759 31.1384778,47.9643903 31.9403325,47.5294429 Z M46.2327615,46.1756375 C47.0252898,46.6127045 47.4218719,46.83145 48.2150361,47.2685169 C47.4136054,47.7038882 47.012572,47.9211499 46.2111413,48.3565212 L46.2111413,48.3565212 L44.2284427,47.2632179 C45.0298735,46.8282705 45.4306948,46.6105849 46.2327615,46.1756375 Z M40.4930251,46.0891568 C41.2861893,46.5262238 41.6827714,46.7445453 42.4759356,47.1820362 C41.673869,47.6169835 41.2734716,47.8346691 40.4714049,48.2696165 C39.6784527,47.8325495 39.2818706,47.614016 38.4887064,47.1767371 C39.290773,46.7417898 39.6915944,46.5241041 40.4930251,46.0891568 Z M22.8859244,46.0406173 C23.6784527,46.4776843 24.0750348,46.6964298 24.868199,47.1334967 C24.0663443,47.5684441 23.6657349,47.7861297 22.8638802,48.221077 C22.0706948,47.7840101 21.6741551,47.5654766 20.8814996,47.1281977 C21.682994,46.6932503 22.0839425,46.4755647 22.8859244,46.0406173 Z M34.7535007,46.002676 C35.5466649,46.4393191 35.943247,46.6580645 36.7364112,47.0955554 C35.9343446,47.5305027 35.5335232,47.7481884 34.7318805,48.1831357 C33.9389283,47.7460688 33.5423462,47.5275353 32.749182,47.0902563 C33.5510366,46.655309 33.9520699,46.4376234 34.7535007,46.002676 Z M29.0139763,45.9157713 L30.9966748,47.0090747 C30.1948202,47.444022 29.7937868,47.6617076 28.9923561,48.0968669 C28.1991919,47.659588 27.8026098,47.4410545 27.0096575,47.0037756 C27.8110883,46.5688282 28.2125455,46.3511426 29.0139763,45.9157713 L29.0139763,45.9157713 Z M43.3064052,44.5623899 C44.0989336,44.9994568 44.4959396,45.2179903 45.2886799,45.6552693 C44.4870372,46.0906405 44.0862158,46.3079022 43.2845731,46.7428496 C42.4916209,46.3057826 42.0950387,46.0870372 41.3018745,45.6499702 C42.1035173,45.2150229 42.5047625,44.9973372 43.3064052,44.5623899 Z M37.5666689,44.4759091 C38.3598331,44.9125522 38.7564152,45.1310856 39.5495794,45.5687885 C38.7475128,46.0037358 38.3471153,46.2214215 37.5450487,46.6563688 C36.7520964,46.2193018 36.3555143,46.0007684 35.5623501,45.5634894 C36.3644168,45.1285421 36.7652381,44.9108565 37.5666689,44.4759091 Z M19.9596741,44.4275816 C20.7523296,44.8642247 21.1488905,45.0829701 21.9419699,45.520461 C21.1400517,45.9554084 20.7395271,46.173094 19.9376088,46.6080413 C19.1445082,46.1709744 18.7479685,45.9524409 17.955313,45.515162 L17.955313,45.515162 Z M31.8275684,44.3890044 C32.6203087,44.8260714 33.0168908,45.0448169 33.809843,45.4823077 C33.0079883,45.9172551 32.6073789,46.1349407 31.8055243,46.5698881 C31.0123601,46.1328211 30.6159899,45.9142876 29.8228257,45.4770087 C30.6246804,45.0420613 31.0257137,44.8243757 31.8275684,44.3890044 Z M26.087832,44.3029476 C26.8807843,44.7395906 27.2769424,44.9583361 28.0701066,45.395827 C27.2686759,45.8307743 26.8676426,46.04846 26.0657879,46.4834073 C25.2726237,46.0463403 24.8760416,45.8278068 24.0835133,45.3905279 C24.884944,44.9555806 25.2857654,44.7378949 26.087832,44.3029476 Z M40.380049,42.9489303 C41.1725773,43.3862092 41.5695834,43.6047427 42.3623236,44.0420216 C41.5606809,44.4769689 41.1598596,44.6946546 40.3582169,45.1296019 C39.5652646,44.692323 39.1686825,44.4737895 38.3755183,44.0367225 C39.177585,43.6017752 39.5784063,43.3840896 40.380049,42.9489303 Z M34.6405246,42.8626615 C35.4336888,43.2993045 35.8302709,43.517838 36.6232232,43.9555408 C35.8213685,44.3904882 35.4203352,44.6081738 34.6184805,45.0431211 C33.8257402,44.6060542 33.4289461,44.3873087 32.6362059,43.9502418 C33.4376366,43.5152944 33.8386699,43.2976088 34.6405246,42.8626615 Z M17.0337206,42.814334 C17.8263761,43.2514009 18.2229158,43.4701464 19.0155713,43.9072134 L19.0155713,43.9072134 L17.0116341,44.9947937 C16.2185335,44.5577267 15.8219938,44.3391932 15.0293383,43.9019143 C15.8308326,43.4669669 16.2317811,43.2492813 17.0337206,42.814334 Z M28.9010002,42.7761807 C29.6941644,43.2128237 30.0905345,43.4313572 30.8836987,43.8690601 C30.0818441,44.3040074 29.6808108,44.5216931 28.87938,44.9566404 C28.0862158,44.5195734 27.6896337,44.300828 26.8966815,43.863761 C27.6985361,43.4288137 28.0995695,43.211128 28.9010002,42.7761807 Z M20.2356707,41.0766642 C21.0283262,41.5133073 21.4248659,41.7318408 22.2179665,42.1691197 L22.2179665,42.1691197 L22.308102,42.2190894 C23.348487,42.7924992 23.9895667,43.1459378 25.1439624,43.7825793 C24.3425316,44.2175267 23.9410744,44.4352123 23.1396436,44.8701596 C21.8409485,44.1543618 21.1918129,43.7961449 19.8930966,43.0803471 L19.8930966,43.0803471 L19.6807495,42.9634364 C19.1974776,42.6970391 18.8258012,42.4920448 18.2313095,42.1642446 C19.0327827,41.7292972 19.4337524,41.5116116 20.2356707,41.0766642 Z M37.4536928,41.3356826 C38.2464331,41.7729615 38.6430152,41.991495 39.4359674,42.4287739 C38.6345367,42.8637213 38.2335033,43.0814069 37.4316487,43.5163542 C36.6384845,43.0790753 36.2425383,42.8605418 35.449374,42.4234749 L35.449374,42.4234749 Z M31.7145923,41.2494138 C32.5073326,41.6860568 32.9037027,41.9045903 33.6968669,42.3422932 C32.8950123,42.7772405 32.4939789,42.9949261 31.6925482,43.4298735 C30.899384,42.9928065 30.5028019,42.7740611 29.7098496,42.3369941 C30.5117043,41.9020468 30.9127376,41.6843611 31.7145923,41.2494138 Z M25.9748559,41.162933 C26.7680201,41.5995761 27.1643903,41.8181096 27.9575545,42.2558124 C27.1556998,42.6907598 26.7546665,42.9084454 25.9528118,43.3433927 C25.1600715,42.9063258 24.7634894,42.6875803 23.9705372,42.2505133 C24.7723919,41.815566 25.1734252,41.5978804 25.9748559,41.162933 Z M34.5273366,39.7224349 C35.3200768,40.1597139 35.716447,40.3782473 36.5096112,40.8155263 L36.5096112,40.8155263 L34.5057164,41.9031066 C33.7125522,41.4658276 33.3159701,41.2472942 32.5230178,40.8102272 C33.3244486,40.3752799 33.7259058,40.1573823 34.5273366,39.7224349 Z M25.8620918,38.0229185 C27.0519115,38.6786186 27.7091261,39.0410294 28.7869309,39.6351982 C28.8241921,39.6556516 28.8591304,39.6749053 28.8933355,39.6937551 L29.185878,39.8551235 L29.185878,39.8551235 L29.321077,39.9294959 C29.804173,40.195774 30.1758495,40.4007684 30.7707227,40.7290455 C29.968868,41.1639928 29.5678347,41.3816785 28.76598,41.8166258 C27.9732397,41.3793469 27.5766576,41.1608134 26.7837054,40.7237464 L26.8976802,40.7863012 C25.7502521,40.1541087 25.089153,39.7896188 23.8577731,39.1107107 C24.6596277,38.6757634 25.0606611,38.4580778 25.8620918,38.0229185 Z M23.0489236,39.5498973 C23.8418759,39.9865404 24.238034,40.2050739 25.0311983,40.6423528 C24.2297675,41.0777241 23.8287342,41.2954097 23.0268795,41.730357 C22.2336941,41.2932901 21.8375783,41.0745446 21.0444989,40.6374776 C21.8464172,40.2025303 22.2473869,39.9848447 23.0489236,39.5498973 Z M31.6011923,38.1091873 C32.3939326,38.5464662 32.7903027,38.7649997 33.5834669,39.2022786 C32.7820362,39.6372259 32.3810028,39.8549116 31.5795721,40.2898589 C30.7864079,39.85258 30.3898258,39.6340465 29.5968736,39.1969795 C30.3987282,38.7620322 30.7997615,38.5441346 31.6011923,38.1091873 Z M28.67526,36.4961516 C29.4677883,36.9334305 29.8643704,37.151964 30.6575346,37.5892429 L30.6575346,37.5892429 L28.6532159,38.6768232 C27.8600517,38.2395443 27.4638935,38.0210108 26.6709412,37.5839438 C27.472372,37.1489965 27.8734053,36.9310989 28.67526,36.4961516 Z"/>
      <polygon fill="#C3DEE7" points="37.383 58.684 23.721 51.112 15.915 55.729 29.572 63.305"/>
    </g>
    <g transform="rotate(-19 377.105 -471.899)">
      <polygon fill="#5FC9D0" points="16.017 24.886 3.836 24.886 1.216 2.861 18.636 2.861"/>
      <path fill="#C3DEE7" d="M2.30649406,0 L17.5456334,0 L17.5456334,1.70319793 L19.8532274,1.70319793 L19.8532274,3.40584591 L-4.97379915e-14,3.40584591 L-4.97379915e-14,1.70319793 L2.30649406,1.70319793 L2.30649406,0 Z"/>
    </g>
    <g transform="translate(65.051 66.858)">
      <path fill="#723846" d="M114.744212,66.4121514 L122.183483,57.2179584 L131.010298,53.1875403 L133.11357,52.9153005 C133.857595,52.8186992 134.414272,52.1859124 134.414272,51.4360331 L134.414272,50.8398376 C134.414272,50.1782656 133.978103,49.5957309 133.342876,49.4088709 L133.525833,49.2800693 C134.05714,48.9053736 134.290349,48.2340438 134.105929,47.6110146 L133.916629,46.9694459 C133.725866,46.3249498 133.133086,45.8824381 132.460292,45.8824381 C133.047706,45.5155485 133.297015,44.7876241 133.057464,44.1377613 L132.938908,43.816245 C132.727166,43.2415165 132.178783,42.8599904 131.565999,42.8599904 L130.820999,42.8599904 C131.456713,42.3740569 131.697728,41.5290401 131.413291,40.7816003 L131.266926,40.3956832 C130.940531,39.5384693 130.023307,39.0608298 129.133405,39.2847691 L119.913841,41.6002713 L122.91531,37.698167 C123.519312,36.91316 123.675435,35.8729892 123.329524,34.9455198 C123.033378,34.151243 122.00638,33.9414524 121.421894,34.5561875 L120.291952,35.7436997 L116.170788,39.9609777 C115.48287,40.6645079 114.983763,41.5300159 114.71933,42.4774886 L112.537508,50.2904791 L103.585306,56.7769103 L114.744212,66.4121514 Z"/>
      <path fill="#6B57DF" d="M98.1409971,54.529712 L90.118216,79.2945599 L93.0889478,119.393536 L12.1971253,119.393536 L55.4671101,39.9302409 C58.5714737,34.5581391 64.1856641,31.1200134 70.3861947,30.7897153 L81.2245602,30.214011 C84.4177676,29.9598229 87.4704641,31.5732586 89.0560903,34.3522516 L94.6989684,44.2402171 L97.606763,49.336176 C98.5078867,50.9154598 98.701577,52.7996717 98.1409971,54.529712 Z"/>
      <path fill="#9BC3D3" d="M64.3253985,27.6111444 C68.6275714,29.1450549 73.4881103,30.0090992 78.6341893,30.0090992 C81.0106882,30.0090992 83.3257351,29.8246787 85.5533717,29.475353 C88.8823773,28.953804 91.9041227,31.4512873 91.5952732,34.5449662 C91.5899756,34.5961941 91.5841483,34.647422 91.5777911,34.69865 L91.4559466,35.6334376 C91.0633952,38.644176 88.0925066,40.7928216 84.818596,40.4317867 L74.3572322,39.2780414 C75.9848686,40.3370075 77.3516515,41.8369163 78.2577314,43.7025678 L78.2577314,43.7025678 L89.5737363,67.0039559 L108.843731,51.3374804 L118.627289,68.263675 L97.2691466,85.627161 C90.0435696,91.5013453 79.2715565,89.5208737 74.6127425,81.4620379 L74.6127425,81.4620379 L58.7581385,54.0320693 C57.7494362,52.2869046 57.2753096,50.3934229 57.2753096,48.5306779 C57.2753096,44.2558294 59.772549,40.141983 64.0402743,38.3490056 C64.1770054,38.2915761 64.3142693,38.2370993 64.4519931,38.1855478 L63.2123749,38.05042 C59.938782,37.6893851 57.6037633,34.9562533 57.9959968,31.9455149 L58.1178944,31.0112151 C58.1244634,30.9599871 58.13188,30.9092471 58.1399853,30.8585071 C58.5661235,28.2044126 61.6061455,26.641229 64.3253985,27.6111444 Z"/>
    </g>
  </g>
</svg>
