<svg xmlns="http://www.w3.org/2000/svg" width="164" height="32" viewBox="0 0 164 32">
  <g fill="red" transform="translate(3 2)">
    <path d="M46.1463014,10.4367123 C46.1117808,9.62356164 45.8854795,8.82191781 45.4635616,8.09315068 L41.7545205,1.66849315 C41.4706849,1.18136986 41.2750685,0.655890411 41.1676712,0.115068493 L41.0142466,0.38739726 C40.0975342,1.97534247 40.0975342,3.93150685 41.0142466,5.52328767 L43.9791781,10.6591781 C44.899726,12.2509589 44.899726,14.2071233 43.9791781,15.7989041 L43.8257534,16.0673973 C43.7145205,15.530411 43.5227397,15.0049315 43.2389041,14.5139726 L40.5232877,9.81150685 L38.789589,6.80821918 C38.509589,6.31726027 38.310137,5.79561644 38.2027397,5.25479452 L38.0493151,5.52328767 C37.1326027,7.10739726 37.1287671,9.05589041 38.0416438,10.6438356 L38.0416438,10.6438356 L41.0180822,15.7989041 C41.9347945,17.3868493 41.9347945,19.3468493 41.0180822,20.9347945 L40.8646575,21.2032877 C40.7534247,20.6663014 40.5578082,20.1408219 40.2778082,19.6536986 L36.5687671,13.2328767 C36.070137,12.369863 35.8438356,11.3994521 35.8860274,10.4405479 C31.9161644,11.48 29.1775342,13.6778082 29.1775342,16.2284932 C29.1775342,19.7764384 34.4821918,22.6493151 41.0180822,22.6493151 C47.5578082,22.6493151 52.8586301,19.7764384 52.8586301,16.2284932 C52.8547945,13.6778082 50.1161644,11.4761644 46.1463014,10.4367123 M57.3271233,21.4065753 C57.3731507,20.489863 57.5035616,19.8684932 57.7490411,19.1589041 C58.9956164,19.7342466 60.5950685,20.0257534 61.8186301,20.0257534 C63.8860274,20.0257534 65.0443836,19.3583562 65.0443836,18.0427397 C65.0443836,16.7539726 64.2005479,16.1556164 62.1063014,15.2427397 L60.9747945,14.7517808 C58.8843836,13.8427397 57.4613699,12.6613699 57.4613699,10.3063014 C57.4613699,7.7709589 59.2180822,6.14465753 62.819726,6.14465753 C64.2657534,6.14465753 65.6235616,6.34794521 66.8893151,6.79287671 C66.8241096,7.68273973 66.6668493,8.36931507 66.4443836,9.01753425 C65.2438356,8.57260274 63.8208219,8.37315068 62.7967123,8.37315068 C60.8635616,8.37315068 59.969863,9.12876712 59.969863,10.310137 C59.969863,11.4684932 60.8405479,12.1320548 62.3978082,12.7994521 L63.5983562,13.3134247 C66.4213699,14.5139726 67.6027397,15.779726 67.6027397,17.9391781 C67.6027397,20.4936986 65.6657534,22.2542466 61.8876712,22.2542466 C60.0619178,22.2465753 58.569863,21.9819178 57.3271233,21.4065753 M79.5468493,10.770411 L79.5468493,21.889863 L77.2991781,21.889863 L77.1649315,20.5550685 C76.5435616,21.5331507 75.5884932,22.1583562 74.0312329,22.1583562 C71.0931507,22.1583562 69.1369863,20.0219178 69.1369863,16.2860274 C69.1369863,12.3736986 71.2312329,10.1490411 75.3430137,10.1490411 C76.9424658,10.1490411 78.2580822,10.3293151 79.5468493,10.770411 M77.0958904,19.3545205 L77.0958904,12.3736986 C76.5857534,12.2854795 76.029589,12.2394521 75.3391781,12.2394521 C72.8038356,12.2394521 71.6263014,13.7928767 71.6263014,16.2860274 C71.6263014,18.5567123 72.5391781,20.1561644 74.7178082,20.1561644 C75.6767123,20.1561644 76.4553425,19.8454795 77.0958904,19.3545205 M92.0663014,14.4180822 L92.0663014,21.889863 L89.6191781,21.889863 L89.6191781,14.84 C89.6191781,13.0832877 89.04,12.2394521 86.5928767,12.2394521 C86.0175342,12.2394521 85.3271233,12.3046575 84.659726,12.4158904 L84.659726,21.8860274 L82.2126027,21.8860274 L82.2126027,10.7665753 C83.769863,10.3906849 85.4843836,10.1452055 86.6619178,10.1452055 C90.7545205,10.1490411 92.0663014,11.7254795 92.0663014,14.4180822 M98.8515068,20.0679452 C99.5649315,20.0679452 100.228493,19.9336986 100.765479,19.7342466 C100.696438,20.4016438 100.608219,21.1572603 100.473973,21.8016438 C99.8065753,22.070137 99.0931507,22.1583562 98.4027397,22.1583562 C96.0246575,22.1583562 94.509589,21.0690411 94.509589,18.3572603 L94.509589,6.68164384 C95.2652055,6.44 96.2010959,6.32493151 96.9567123,6.32493151 L96.9567123,10.5287671 L100.826849,10.5287671 C100.780822,11.2843836 100.715616,11.9747945 100.604384,12.6230137 L96.9567123,12.6230137 L96.9567123,18.0734247 C96.9605479,19.5079452 97.670137,20.0679452 98.8515068,20.0679452 M111.973151,10.770411 L111.973151,21.889863 L109.729315,21.889863 L109.598904,20.5550685 C108.973699,21.5331507 108.01863,22.1583562 106.46137,22.1583562 C103.527123,22.1583562 101.567123,20.0219178 101.567123,16.2860274 C101.567123,12.3736986 103.657534,10.1490411 107.769315,10.1490411 C109.372603,10.1490411 110.684384,10.3293151 111.973151,10.770411 M109.526027,19.3545205 L109.526027,12.3736986 C109.012055,12.2854795 108.459726,12.2394521 107.765479,12.2394521 C105.230137,12.2394521 104.052603,13.7928767 104.052603,16.2860274 C104.052603,18.5567123 104.965479,20.1561644 107.14411,20.1561644 C108.103014,20.1561644 108.881644,19.8454795 109.526027,19.3545205 M124.496438,14.4180822 L124.496438,21.889863 L122.049315,21.889863 L122.049315,14.84 C122.049315,13.0832877 121.470137,12.2394521 119.023014,12.2394521 C118.443836,12.2394521 117.753425,12.3046575 117.089863,12.4158904 L117.089863,21.8860274 L114.64274,21.8860274 L114.64274,10.7665753 C116.2,10.3906849 117.910685,10.1452055 119.092055,10.1452055 C123.184658,10.1490411 124.496438,11.7254795 124.496438,14.4180822 M136.904658,6.32109589 L136.904658,21.889863 L134.660822,21.889863 L134.526575,20.4706849 C133.905205,21.5139726 132.946301,22.1583562 131.346849,22.1583562 C128.408767,22.1583562 126.452603,20.0219178 126.452603,16.2860274 C126.452603,12.3736986 128.543014,10.1490411 132.65863,10.1490411 C133.303014,10.1490411 133.905205,10.2180822 134.484384,10.3293151 L134.484384,6.65863014 C135.236164,6.39013699 136.106849,6.32109589 136.904658,6.32109589 M134.484384,19.3123288 L134.484384,12.4619178 C133.836164,12.3276712 133.172603,12.2394521 132.524384,12.2394521 C130.100274,12.2394521 128.941918,13.7506849 128.941918,16.2860274 C128.941918,18.5567123 129.854795,20.1561644 132.03726,20.1561644 C133.015342,20.1561644 133.816986,19.8224658 134.484384,19.3123288 M149.205479,17.129863 L141.4,17.129863 C141.710685,19.1090411 142.869041,20.0679452 145.047671,20.0679452 C146.382466,20.0679452 147.740274,19.7764384 148.96,19.220274 C148.871781,19.8684932 148.737534,20.7123288 148.58411,21.4449315 C147.471781,21.9589041 146.294247,22.1583562 144.97863,22.1583562 C140.886027,22.1583562 138.906849,19.8876712 138.906849,16.0865753 C138.906849,12.7726027 140.441096,10.1490411 144.334247,10.1490411 C147.824658,10.1490411 149.339726,12.4389041 149.339726,15.2427397 C149.339726,15.9293151 149.289863,16.4893151 149.205479,17.129863 M141.353973,15.0854795 L146.869589,15.0854795 C146.869589,13.259726 145.891507,12.1934247 144.2,12.1934247 C142.466301,12.1934247 141.553425,13.1945205 141.353973,15.0854795 M157.770411,10.2372603 C157.770411,10.969863 157.678356,11.859726 157.547945,12.3276712 C156.972603,12.2624658 156.389589,12.2394521 155.703014,12.2394521 C155.100822,12.2394521 154.502466,12.2854795 153.900274,12.3736986 L153.900274,21.889863 L151.453151,21.889863 L151.453151,10.770411 C152.500274,10.4136986 154.256986,10.1490411 155.633973,10.1490411 C156.389589,10.1490411 157.233425,10.1682192 157.770411,10.2372603"/>
    <path d="M9.84986301 9.65424658C10.3293151 10.3561644 10.5671233 11.1424658 10.5671233 12.0246575 10.5671233 13.4553425 10.0991781 14.56 9.1709589 15.3386301 8.23890411 16.1172603 6.89643836 16.5046575 5.13972603 16.5046575L.0805479452 16.5046575.0805479452.517808219C.617534247.410410959 1.25041096.326027397 1.97534247.264657534 2.70027397.203287671 3.39452055.17260274 4.05424658.17260274 6.08712329.17260274 7.5830137.544657534 8.53808219 1.29260274 9.49315068 2.04054795 9.96876712 3.09150685 9.96876712 4.44547945 9.96876712 5.27780822 9.76931507 6.01041096 9.36657534 6.63945205 8.96767123 7.27232877 8.41150685 7.76328767 7.70191781 8.11616438 8.6569863 8.44219178 9.37424658 8.95616438 9.84986301 9.65424658zM7 2.63123288C6.39013699 2.17479452 5.38520548 1.94849315 3.98520548 1.94849315 3.39835616 1.94849315 2.7769863 1.98684932 2.11342466 2.06356164L2.11342466 7.39890411 4.74849315 7.39890411C5.71890411 7.39890411 6.48986301 7.17643836 7.05753425 6.72767123 7.6290411 6.28273973 7.91287671 5.59616438 7.91287671 4.67178082 7.91287671 3.76657534 7.6060274 3.08767123 7 2.63123288zM7.59835616 14.0575342C8.21972603 13.6126027 8.53424658 12.9183562 8.53424658 11.9786301 8.53424658 11.0542466 8.22356164 10.3561644 7.59835616 9.88821918 6.97315068 9.41643836 6.07561644 9.18246575 4.90575342 9.18246575L2.10958904 9.18246575 2.10958904 14.7287671 4.97479452 14.7287671C6.10246575 14.7287671 6.9769863 14.5024658 7.59835616 14.0575342zM22.5150685 5.04767123L17.9391781 17.9852055C17.509589 19.2164384 16.9649315 20.1408219 16.3090411 20.7583562 15.6531507 21.3758904 14.8208219 21.6827397 13.8043836 21.6827397 13.4169863 21.6827397 13.0717808 21.6367123 12.7649315 21.5446575 12.7649315 21.0038356 12.8032877 20.4438356 12.88 19.8569863 13.1561644 19.9183562 13.3863014 19.9490411 13.5742466 19.9490411 14.0345205 19.9490411 14.4372603 19.8684932 14.7747945 19.7073973 15.1123288 19.5463014 15.4230137 19.2624658 15.6991781 18.8520548 15.9753425 18.4454795 16.2323288 17.8778082 16.4624658 17.1528767L11.7484932 5.04383562 13.8734247 5.04383562 17.3408219 14.6789041 20.5282192 5.04383562 22.5150685 5.04383562 22.5150685 5.04767123z" transform="translate(0 5.753)"/>
  </g>
</svg>
