<svg xmlns="http://www.w3.org/2000/svg" width="16" height="26" viewBox="0 0 16 26">
    <g fill="#000" fill-rule="nonzero">
        <path d="M7.847 23.763c-.615 0-1.118.504-1.118 1.119S7.232 26 7.847 26c.615 0 1.118-.503 1.118-1.118 0-.615-.503-1.119-1.118-1.119zM7.495 0C3.3 0 .013 2.941.008 6.693c0 .28.2.531.48.57a.558.558 0 0 0 .638-.553c0-3.137 2.796-5.592 6.369-5.592 3.572 0 6.58 2.623 6.58 5.726 0 3.265-2.683 5.725-6.245 5.725a.556.556 0 0 0-.554.56v6.424c0 .28.202.531.476.57a.56.56 0 0 0 .643-.553v-5.905c3.858-.257 6.799-3.164 6.799-6.827 0-3.768-3.45-6.838-7.7-6.838z"/>
    </g>
</svg>
