<svg xmlns="http://www.w3.org/2000/svg" width="136" height="20" viewBox="0 0 136 20">
  <defs>
    <linearGradient id="logo_santanderx_136x20@3x-a" x1="43.861%" x2="102.402%" y1="50.414%" y2="46.1%">
      <stop offset="0%" stop-color="red"/>
      <stop offset="23.01%" stop-color="red"/>
      <stop offset="90.91%" stop-color="#7E00E5"/>
    </linearGradient>
    <linearGradient id="logo_santanderx_136x20@3x-b" x1="-273.69%" x2="57.472%" y1="194.377%" y2="47.826%">
      <stop offset="0%" stop-color="red"/>
      <stop offset="23.01%" stop-color="red"/>
      <stop offset="100%" stop-color="#7E00E5"/>
    </linearGradient>
  </defs>
  <g fill="none" transform="translate(1 1)">
    <path fill="url(#logo_santanderx_136x20@3x-a)" d="M0.0769736842,17.0325 C0.126710526,16.0342105 0.273552632,15.3544737 0.544736842,14.5764474 C1.92197368,15.2088158 3.69355263,15.5238158 5.04592105,15.5238158 C7.33381579,15.5238158 8.61276316,14.7943421 8.61276316,13.3602632 C8.61276316,11.9498684 7.67842105,11.2926316 5.36565789,10.2955263 L4.11157895,9.76026316 C1.79881579,8.76315789 0.225,7.47355263 0.225,4.89552632 C0.225,2.12328947 2.16828947,0.348157895 6.15315789,0.348157895 C7.75065789,0.348157895 9.25223684,0.566052632 10.6543421,1.05276316 C10.5809211,2.025 10.4080263,2.77934211 10.1628947,3.48394737 C8.83421053,2.99842105 7.25921053,2.77815789 6.12828947,2.77815789 C3.98842105,2.77815789 3.00434211,3.60592105 3.00434211,4.89434211 C3.00434211,6.15907895 3.96355263,6.88855263 5.68539474,7.61921053 L7.01407895,8.17815789 C10.1380263,9.49144737 11.4418421,10.8781579 11.4418421,13.2371053 C11.4418421,16.0330263 9.30197368,17.9550143 5.12052632,17.9550143 C3.10144737,17.9573684 1.45421053,17.6648684 0.0769736842,17.0325 M24.6517105,5.40710526 L24.6517105,17.5677632 L22.1672368,17.5677632 L22.0192105,16.1088158 C21.3311842,17.1793421 20.2725,17.8602632 18.5506579,17.8602632 C15.3035526,17.8602632 13.1388158,15.525 13.1388158,11.4394737 C13.1388158,7.15855263 15.4503947,4.72618421 20.0013158,4.72618421 C21.7740789,4.72618421 23.2247368,4.92039474 24.6517105,5.40710526 M21.9457895,14.7943421 L21.9457895,7.15736842 C21.3797368,7.06026316 20.7651316,7.01171053 20.0025,7.01171053 C17.1982895,7.01171053 15.8956579,8.71342105 15.8956579,11.4382895 C15.8956579,13.9192105 16.9034211,15.6694737 19.3144737,15.6694737 C20.3707895,15.6694737 21.2328947,15.3296053 21.9457895,14.7943421 M38.5010526,9.39552632 L38.5010526,17.5665789 L35.7951316,17.5665789 L35.7951316,9.85736842 C35.7951316,7.93657895 35.1544737,7.01171053 32.4497368,7.01171053 C31.8102632,7.01171053 31.0476316,7.08513158 30.3098684,7.20592105 L30.3098684,17.5665789 L27.6039474,17.5665789 L27.6039474,5.40710526 C29.3257895,4.99381579 31.2205263,4.72618421 32.5231579,4.72618421 C37.0492105,4.72618421 38.5010526,6.45276316 38.5010526,9.39552632 M46.0042105,15.5735526 C46.7917105,15.5735526 47.5294737,15.4278947 48.1203947,15.2088158 C48.0469737,15.9382895 47.9475,16.7660526 47.8006579,17.4706579 C47.0617105,17.7631579 46.2753947,17.8602632 45.5127632,17.8602632 C42.8802632,17.8602632 41.2081579,16.6689474 41.2081579,13.7013158 L41.2081579,0.931973684 C42.0442105,0.664342105 43.0780263,0.542368421 43.9140789,0.542368421 L43.9140789,5.13947368 L48.1938158,5.13947368 C48.1452632,5.96605263 48.0706579,6.72039474 47.9475,7.425 L43.9140789,7.425 L43.9140789,13.3839474 C43.9140789,14.9660526 44.7003947,15.5735526 46.0042105,15.5735526 M60.5178947,5.40710526 L60.5178947,17.5677632 L58.0334211,17.5677632 L57.8853947,16.1088158 C57.1961842,17.1793421 56.1386842,17.8602632 54.4168421,17.8602632 C51.1697368,17.8602632 49.005,15.525 49.005,11.4394737 C49.005,7.15855263 51.3165789,4.72618421 55.8686842,4.72618421 C57.6402632,4.72618421 59.0921053,4.92039474 60.5178947,5.40710526 M57.8119737,14.7943421 L57.8119737,7.15736842 C57.2459211,7.06026316 56.6313158,7.01171053 55.8686842,7.01171053 C53.0632895,7.01171053 51.7606579,8.71342105 51.7606579,11.4382895 C51.7606579,13.9192105 52.7696053,15.6694737 55.1794737,15.6694737 C56.2381579,15.6694737 57.0990789,15.3296053 57.8119737,14.7943421 M74.3672368,9.39552632 L74.3672368,17.5665789 L71.6613158,17.5665789 L71.6613158,9.85736842 C71.6613158,7.93657895 71.0218421,7.01171053 68.3159211,7.01171053 C67.6776316,7.01171053 66.9138158,7.08513158 66.1760526,7.20592105 L66.1760526,17.5665789 L63.4701316,17.5665789 L63.4701316,5.40710526 C65.1919737,4.99381579 67.0855263,4.72618421 68.3893421,4.72618421 C72.9165789,4.72618421 74.3672368,6.45276316 74.3672368,9.39552632 M88.0946053,0.542368421 L88.0946053,17.5665789 L85.6101316,17.5665789 L85.4621053,16.0105263 C84.7740789,17.1532895 83.7153947,17.8590789 81.945,17.8590789 C78.6978947,17.8590789 76.5331579,15.5238158 76.5331579,11.4382895 C76.5331579,7.15736842 78.8459211,4.725 83.3956579,4.725 C84.1097368,4.725 84.7740789,4.79842105 85.4135526,4.91921053 L85.4135526,0.905921053 C86.2496053,0.615789474 87.2088158,0.542368421 88.0946053,0.542368421 M85.4135526,14.7469737 L85.4135526,7.25565789 C84.7006579,7.11 83.9617105,7.01289474 83.2488158,7.01289474 C80.5677632,7.01289474 79.2888158,8.66723684 79.2888158,11.4394737 C79.2888158,13.9203947 80.2965789,15.6706579 82.7076316,15.6706579 C83.79,15.6694737 84.6757895,15.3059211 85.4135526,14.7469737 M101.697632,12.3631579 L93.0635526,12.3631579 C93.4081579,14.5278947 94.6871053,15.5735526 97.0969737,15.5735526 C98.5736842,15.5735526 100.074079,15.2573684 101.426447,14.6498684 C101.328158,15.3544737 101.180132,16.2793421 101.008421,17.0810526 C99.7780263,17.6411842 98.4742105,17.8590789 97.0235526,17.8590789 C92.4975,17.8590789 90.3078947,15.3781579 90.3078947,11.2192105 C90.3078947,7.59552632 92.0048684,4.725 96.3094737,4.725 C100.172368,4.725 101.844495,7.22960526 101.844495,10.2943421 C101.845658,11.0498684 101.797105,11.6573684 101.697632,12.3631579 M93.015,10.125 L99.1160526,10.125 C99.1160526,8.13078947 98.0336842,6.96315789 96.1638158,6.96315789 C94.2453947,6.96434211 93.2364474,8.05736842 93.015,10.125 M111.170132,4.82328947 C111.170132,5.62618421 111.070658,6.59842105 110.923816,7.11 C110.284342,7.03657895 109.644868,7.01171053 108.882237,7.01171053 C108.217895,7.01171053 107.553553,7.06026316 106.890395,7.15736842 L106.890395,17.5665789 L104.184474,17.5665789 L104.184474,5.40710526 C105.340263,5.0175 107.283553,4.72618421 108.808816,4.72618421 C109.644868,4.72618421 110.579211,4.74986842 111.170132,4.82328947"/>
    <path fill="url(#logo_santanderx_136x20@3x-b)" d="M126.696316,7.70210526 L132.115263,0.0556578947 L127.495658,0.0556578947 L124.241447,4.82328947 C124.041316,5.12407895 123.690789,5.09802632 123.514342,4.82328947 L120.319342,0.0556578947 L115.562368,0.0556578947 L120.984868,7.80157895 C121.135263,8.02657895 121.110395,8.27763158 120.935132,8.5275 L114.625658,17.5665789 L119.283158,17.5665789 L123.439737,11.3826316 C123.639868,11.1067105 123.965526,11.0818421 124.165658,11.3826316 L128.328158,17.5665789 L133.027105,17.5665789 L126.669079,8.40197368 C126.521053,8.17815789 126.521053,7.92710526 126.696316,7.70210526 Z"/>
  </g>
</svg>
