<?xml version="1.0" encoding="utf-8"?>
<!-- Generator: Adobe Illustrator 24.0.0, SVG Export Plug-In . SVG Version: 6.00 Build 0)  -->
<svg version="1.1" id="Livello_1" xmlns="http://www.w3.org/2000/svg" xmlns:xlink="http://www.w3.org/1999/xlink" x="0px" y="0px"
	 viewBox="0 0 68 23" style="enable-background:new 0 0 68 23;" xml:space="preserve">
<style type="text/css">
	.st0{fill:#D42236;}
	.st1{fill:#333333;}
</style>
<title>Dona</title>
<g id="Livello_2_1_">
	<g id="Livello_1-2">
		<path class="st0" d="M9.6,13.9c0.7,0.6,2.5-0.8,2.8-1.4c0.1-0.3,0.2-0.7,0.3-1c0.6-0.6,1-1.3,1.2-2.1c0.2-2.3,0.1-6.6-1.3-8.7
			C12,0.1,10.9,1,10.3,3c-0.1,1.2,0.1,2-0.3,2.9C7.7,3.6,5.7,2.5,3.4,3C2.6,3.5,2,4.3,1.8,5.3C2.1,10.4,6.5,11.2,9.6,13.9z"/>
		<path class="st1" d="M19.8,9H24c1.5-0.1,2.9,0.5,4,1.5c1,1,1.6,2.3,1.5,3.7c0,1.4-0.5,2.7-1.5,3.7c-1.1,1-2.5,1.6-4,1.5h-4.2V9z
			 M23.9,17.4c0.9,0,1.7-0.3,2.4-0.9c0.6-0.6,0.9-1.5,0.9-2.3c0.1-1.7-1.3-3.2-3-3.3c-0.1,0-0.2,0-0.3,0H22v6.5H23.9z"/>
		<path class="st1" d="M33.1,10.4c2.2-2.1,5.6-2.1,7.8,0c1,1,1.6,2.4,1.5,3.8c0,1.4-0.5,2.8-1.6,3.8c-2.2,2.1-5.6,2.1-7.8,0
			c-1-1-1.6-2.4-1.6-3.8C31.5,12.8,32.1,11.4,33.1,10.4z M34.8,16.5c0.6,0.6,1.4,1,2.3,1c0.9,0,1.7-0.4,2.2-1c1.2-1.3,1.2-3.3,0-4.7
			c-0.6-0.6-1.4-1-2.2-1c-0.9,0-1.7,0.4-2.3,1C33.6,13.2,33.6,15.2,34.8,16.5z"/>
		<path class="st1" d="M45,9h2.3l2.8,4.1c0.2,0.3,0.5,0.7,0.8,1.2s0.5,0.8,0.7,1.1l0.3,0.4V9h2.2v10.4h-2.3l-2.6-3.9
			c-0.3-0.4-0.6-0.9-0.9-1.4s-0.6-0.9-0.8-1.2l-0.2-0.4v6.9H45V9z"/>
		<path class="st1" d="M60.7,9h2.2l4.5,10.3h-2.3l-0.7-1.6h-5.2l-0.7,1.6h-2.3L60.7,9z M63.7,15.9L62.8,14l-1-2.7
			c-0.4,1.1-0.7,2-1,2.7l-0.9,2L63.7,15.9z"/>
		<path class="st1" d="M20.4,18.8c-3.2-0.3-6.4-1.2-9.3-2.6c2.3-2.6,4.5-5.5,5.2-8.9c0.5-2.5,0.6-7.4-3.1-7.3c-1.2,0-2.4,0.7-3,1.8
			C9.8,2.8,9.7,4,9.8,5.1C8,3.5,5.5,1.7,3,2.8c-2.1,1-1.8,3.4-1.1,5.3c1.3,3.7,4.4,6.5,8,8.3l-0.8,0.9c-1.1,1.3-2.4,2.4-3.9,3.2
			c-1.1,0.6-2.5,1.8-3.7,1.8c-0.4,0-0.9,0.6-0.3,0.6c1.2-0.1,2.4-0.5,3.3-1.4c0.8-0.6,1.8-0.9,2.6-1.5c0.9-0.6,1.7-1.4,2.4-2.2
			c0.4-0.4,0.7-0.8,1.1-1.2c2.9,1.3,5.9,2.2,9.1,2.5c0.3,0,0.7,0,1-0.1v-0.1C20.7,18.9,20.5,18.8,20.4,18.8z M4.6,11
			C3.1,9.3,2.3,7.1,2.3,4.9c0.2-1.9,2-1.8,3.4-1.5c1.7,0.4,2.9,1.7,4.1,2.8c0.2,0.2,0.8,0.1,0.9-0.2c0.1-1,0-1.9,0.1-2.9
			c0.1-2.2,2.5-3.3,4.1-1.5c1.8,2.2,0.6,6.4-0.4,8.6c-1,2.1-2.4,4-4,5.6C8.2,14.7,6.2,13,4.6,11z"/>
	</g>
</g>
</svg>
