<svg xmlns="http://www.w3.org/2000/svg" viewBox="0 0 25 25"><defs><style>.cls-1,.cls-3{fill:none;}.cls-1{stroke:#d42235;stroke-linecap:round;stroke-linejoin:round;stroke-width:0.75px;}.cls-2{fill:#d42235;}</style></defs><title>Esercizi</title><g id="Livello_2" data-name="Livello 2"><g id="Livello_1-2" data-name="Livello 1"><path class="cls-1" d="M2.37,24.22c.18,0,11.18-7,6.55-8.23-3.21-.82-3,6.36-2.13,7.73,1.65,2.62,5.69-2.46,5.73-2.41,2.12,2.84.17,1.41,3,.24.4,2.24,4.29,1.3,5.82-1"/><path class="cls-2" d="M15.85,18.07a3.07,3.07,0,1,0-1.61-4A3.09,3.09,0,0,0,15.85,18.07Zm.85-.22,2.39-1A2.58,2.58,0,0,1,16.7,17.85Zm2.77-1.57,0,.12-3.27,1.31L16,17.66a1.87,1.87,0,0,1-.39-.22l4-1.58A1.47,1.47,0,0,1,19.47,16.28ZM19.68,15a3.27,3.27,0,0,1,0,.44l-4.37,1.73a2.26,2.26,0,0,1-.29-.32Zm-.07-.34-4.79,1.94a2.7,2.7,0,0,1-.17-.34l4.87-2A1.5,1.5,0,0,1,19.61,14.7Zm-2.43-2-2,.8A2.58,2.58,0,0,1,17.18,12.65Zm-2.53,1.57a1.83,1.83,0,0,1,.14-.28l3-1.21a1.32,1.32,0,0,1,.3.1.72.72,0,0,1,.19.11l-3.73,1.49A.65.65,0,0,1,14.65,14.22Zm-.17.63,4.17-1.67a.94.94,0,0,1,.29.27l-4.51,1.79A2.44,2.44,0,0,1,14.48,14.85Zm4.69-1.14c.07.11.14.23.22.34L14.55,16a3.14,3.14,0,0,1-.08-.4Z"/><path class="cls-2" d="M21,17.81a1.09,1.09,0,1,0-.57-1.42A1.08,1.08,0,0,0,21,17.81Zm.67-1.57a.65.65,0,1,1-.84.34A.64.64,0,0,1,21.63,16.24Z"/><path class="cls-2" d="M13.46,14.58a1.29,1.29,0,1,0-1.69.68A1.29,1.29,0,0,0,13.46,14.58Z"/><path class="cls-2" d="M19.3,21.43a1.78,1.78,0,1,0-.94-2.34A1.79,1.79,0,0,0,19.3,21.43Zm.82-.3.73-.29A1.54,1.54,0,0,1,20.12,21.13Zm1.21-1.25a1.49,1.49,0,0,1-.11.44h0l-1.75.7h0a1.45,1.45,0,0,1-.38-.24Zm0-.35-2.45,1a1.39,1.39,0,0,1-.17-.44l2.45-1A1.33,1.33,0,0,1,21.31,19.53Zm-1.37-1.07-.82.33A1.45,1.45,0,0,1,19.94,18.46Zm.6.12a1,1,0,0,1,.37.25l-2.24.9a1.38,1.38,0,0,1,.09-.44Z"/><rect class="cls-3" width="25" height="25"/></g></g></svg>