<svg xmlns="http://www.w3.org/2000/svg" viewBox="0 0 89 78.8"><defs><style>.cls-1{fill:#fff;}</style></defs><title>evento</title><g id="Livello_2" data-name="Livello 2"><g id="Livello_1-2" data-name="Livello 1"><path class="cls-1" d="M85.5,6.8H68V0H61V6.8H28V0H21V6.8H3.5A3.54,3.54,0,0,0,0,10.3v65a3.54,3.54,0,0,0,3.5,3.5h82A3.54,3.54,0,0,0,89,75.3v-65A3.48,3.48,0,0,0,85.5,6.8ZM63.1,35.1,41.4,56.7a3.47,3.47,0,0,1-4.9.1l-.1-.1L25.9,46.2a3.54,3.54,0,0,1,5-5l8,8.1L58.1,30.1a3.54,3.54,0,0,1,5,5Z"/></g></g></svg>