<svg xmlns="http://www.w3.org/2000/svg" xmlns:xlink="http://www.w3.org/1999/xlink" viewBox="0 0 22 22"><defs><style>.cls-1{fill:none;}.cls-2{clip-path:url(#clip-path);}.cls-3{fill:#d42235;}</style><clipPath id="clip-path"><rect class="cls-1" x="1.04" y="1.08" width="20" height="20"/></clipPath></defs><title>facebook</title><g id="Livello_2" data-name="Livello 2"><g id="Livello_1-2" data-name="Livello 1"><rect class="cls-1" width="22" height="22"/><g id="Livello_2-2" data-name="Livello 2"><g id="Livello_1-2-2" data-name="Livello 1-2"><g class="cls-2"><path class="cls-3" d="M19.94,1.08H2.14A1.1,1.1,0,0,0,1,2.18H1V20a1.1,1.1,0,0,0,1.07,1.13h9.61V13.32H9.12v-3h2.61V8.08a3.64,3.64,0,0,1,3.25-4,4.42,4.42,0,0,1,.63,0,22.58,22.58,0,0,1,2.33.12V6.9h-1.6c-1.25,0-1.5.59-1.5,1.47v1.94h3l-.39,3H14.84v7.77h5.1A1.1,1.1,0,0,0,21,20h0V2.18a1.1,1.1,0,0,0-1.1-1.1h0"/></g></g></g></g></g></svg>