<svg xmlns="http://www.w3.org/2000/svg" viewBox="0 0 20 20"><defs><style>.cls-1{fill:none;}.cls-2{fill:#d42235;}</style></defs><title>ss_1</title><g id="Livello_2" data-name="Livello 2"><g id="Livello_1-2" data-name="Livello 1"><g id="Livello_2-2" data-name="Livello 2"><g id="Livello_1-2-2" data-name="Livello 1-2"><rect class="cls-1" width="20" height="20"/><path class="cls-2" d="M7.22,15A2.22,2.22,0,1,1,9.44,12.8,2.21,2.21,0,0,1,7.22,15"/><path class="cls-2" d="M12.82,9.43A2.22,2.22,0,1,1,15,7.14v.07a2.18,2.18,0,0,1-2.14,2.22"/><path class="cls-2" d="M5.41,8.46h0A2.2,2.2,0,0,1,7.65,5a2.2,2.2,0,0,1,.88.4A2.1,2.1,0,0,1,9.39,7,3.79,3.79,0,0,0,9.85,9a3.56,3.56,0,0,0,1.54,1.36,2.6,2.6,0,0,0,.95.27h.51a2,2,0,0,1,1,.27A2.25,2.25,0,0,1,15,12.5,2.23,2.23,0,0,1,13.05,15h-.14a2.34,2.34,0,0,1-1.52-.52,2.37,2.37,0,0,1-.75-1.62,4.47,4.47,0,0,0-.09-.79,3.23,3.23,0,0,0-.49-1.16A3.27,3.27,0,0,0,7.83,9.47H7.42A2.48,2.48,0,0,1,6.05,9a2.15,2.15,0,0,1-.64-.6"/></g></g></g></g></svg>