<svg xmlns="http://www.w3.org/2000/svg" viewBox="0 0 97.2 81.37"><defs><style>.cls-1{fill:#fff;}</style></defs><title>rassegna</title><g id="Livello_2" data-name="Livello 2"><g id="Livello_1-2" data-name="Livello 1"><path class="cls-1" d="M82.3,28.4H39.6V15.89H82.3ZM64.08,53.69H82.3V34.76H64.08ZM58,34.79H39.65v6.4H58ZM39.65,53.69H58V47.23H39.65ZM82.3,59.8H39.65v6.4H82.3ZM16.49,68.52a3.67,3.67,0,0,0,3.67-3.67V25.64H12.82V64.86A3.68,3.68,0,0,0,16.49,68.52ZM24.49,0H97.2V64.88A16.51,16.51,0,0,1,80.71,81.37H16.48A16.51,16.51,0,0,1,0,64.88V25.61H8.5V64.88a8,8,0,0,0,16,0V25.61h0ZM30.9,72.87H80.71a8,8,0,0,0,8-8V8.51H33v25.6h0V64.88A16.42,16.42,0,0,1,30.9,72.87Z"/></g></g></svg>