<svg xmlns="http://www.w3.org/2000/svg" viewBox="0 0 70 70"><defs><style>.cls-1{fill:#cc232a;}.cls-2{fill:#fff;}</style></defs><title>share_chiudi</title><g id="Livello_2" data-name="Livello 2"><g id="Livello_1-2" data-name="Livello 1"><rect class="cls-1" width="70" height="70" rx="4.32" ry="4.32"/><path class="cls-2" d="M22.93,47.06a3.14,3.14,0,0,0,2.28.92,3.31,3.31,0,0,0,2.28-.92L35,39.51,42.51,47a3.14,3.14,0,0,0,2.28.92A3.31,3.31,0,0,0,47.07,47a3.21,3.21,0,0,0,0-4.52L39.52,35,47,27.48A3.19,3.19,0,0,0,42.51,23L35,30.48l-7.51-7.55A3.19,3.19,0,0,0,23,27.44L30.48,35l-7.55,7.51A3.26,3.26,0,0,0,22.93,47.06Z"/></g></g></svg>