<svg xmlns="http://www.w3.org/2000/svg" viewBox="0 0 70 70"><defs><style>.cls-1{fill:#cc232a;}.cls-2{fill:#fff;}</style></defs><title>share</title><g id="Livello_2" data-name="Livello 2"><g id="Livello_1-2" data-name="Livello 1"><rect class="cls-1" width="70" height="70" rx="4.32" ry="4.32"/><path class="cls-2" d="M42.85,41.07a5.91,5.91,0,0,0-3.95,1.55L29,36.51A6.13,6.13,0,0,0,29.25,35,5.55,5.55,0,0,0,29,33.53l9.89-6.07a6.21,6.21,0,0,0,3.95,1.47,6.11,6.11,0,1,0-6.11-6.11A3.29,3.29,0,0,0,37,24.25L27.1,30.4a6.36,6.36,0,0,0-4-1.51A6.13,6.13,0,0,0,17,35a6.06,6.06,0,0,0,6.11,6,6.29,6.29,0,0,0,4-1.42L37,45.71a3.47,3.47,0,0,0-.24,1.47,6.13,6.13,0,1,0,6.11-6.11Z"/></g></g></svg>