<svg xmlns="http://www.w3.org/2000/svg" viewBox="0 0 18 18"><defs><style>.cls-1{fill:#333;}</style></defs><title>time_grey</title><g id="Livello_2" data-name="Livello 2"><g id="Livello_1-2" data-name="Livello 1"><path class="cls-1" d="M9,18a9,9,0,0,1-6.4-2.58A9,9,0,0,1,0,9,9,9,0,0,1,2.58,2.6,9,9,0,0,1,9,0a8.91,8.91,0,0,1,6.4,2.6A9,9,0,0,1,18,9a8.91,8.91,0,0,1-2.6,6.4A9,9,0,0,1,9,18ZM9,1.38A7.62,7.62,0,0,0,3.58,3.56,7.66,7.66,0,0,0,1.4,9a7.62,7.62,0,0,0,2.18,5.42A7.62,7.62,0,0,0,9,16.6a7.66,7.66,0,0,0,5.44-2.18A7.53,7.53,0,0,0,16.62,9,7.48,7.48,0,0,0,9,1.38Z"/><path class="cls-1" d="M12.14,13.36a.58.58,0,0,1-.46-.2L8.2,9.68V4.4a.7.7,0,0,1,1.4,0V9.1l3.06,3.08a.68.68,0,0,1,0,1A.69.69,0,0,1,12.14,13.36Z"/></g></g></svg>