<svg xmlns="http://www.w3.org/2000/svg" viewBox="0 0 22 22"><defs><style>.cls-1{fill:none;}.cls-2{fill:#ce2b30;}.cls-3{fill:#fff;}</style></defs><title>twitter</title><g id="Livello_2" data-name="Livello 2"><g id="Livello_1-2" data-name="Livello 1"><rect class="cls-1" width="22" height="22"/><g id="Livello_2-2" data-name="Livello 2"><g id="Livello_1-2-2" data-name="Livello 1-2"><path class="cls-2" d="M20,21H2a1,1,0,0,1-1-1V2A1,1,0,0,1,2,1H20a1,1,0,0,1,1,1V20a1,1,0,0,1-1,1"/><path class="cls-3" d="M9.1,15.06A5.81,5.81,0,0,0,15,9.32V9a4.38,4.38,0,0,0,1-1.1,4.05,4.05,0,0,1-1.18.32,2.14,2.14,0,0,0,.9-1.13,4,4,0,0,1-1.3.5,2.06,2.06,0,0,0-2.9-.12,2,2,0,0,0-.6,2A5.84,5.84,0,0,1,6.66,7.31a2,2,0,0,0,.64,2.74,2,2,0,0,1-.93-.26h0a2,2,0,0,0,1.65,2,2.09,2.09,0,0,1-.93,0A2.05,2.05,0,0,0,9,13.29a4.15,4.15,0,0,1-2.55.88H5.92a5.84,5.84,0,0,0,3.14.92"/></g></g></g></g></svg>