<svg xmlns="http://www.w3.org/2000/svg" viewBox="0 0 22 22"><defs><style>.cls-1{fill:none;}.cls-2{fill:#ce2b30;}</style></defs><title>whatsapp</title><g id="Livello_2" data-name="Livello 2"><g id="Livello_1-2" data-name="Livello 1"><rect class="cls-1" width="22" height="22"/><g id="Livello_2-2" data-name="Livello 2"><g id="Livello_1-2-2" data-name="Livello 1-2"><g id="WA_Logo" data-name="WA Logo"><path class="cls-2" d="M18,3.91a9.91,9.91,0,0,0-15.6,12L1,21l5.25-1.38A9.87,9.87,0,0,0,11,20.83h0A9.91,9.91,0,0,0,18,3.91ZM11,19.15h0A8.26,8.26,0,0,1,6.84,18l-.3-.18-3.12.82.83-3L4,15.29a8.24,8.24,0,1,1,7,3.86ZM15.55,13c-.25-.12-1.47-.72-1.69-.81s-.39-.12-.56.12-.64.81-.78,1-.29.19-.54.06a6.88,6.88,0,0,1-2-1.23,7.52,7.52,0,0,1-1.37-1.75c-.14-.25,0-.38.11-.51l.37-.43A1.66,1.66,0,0,0,9.34,9a.47.47,0,0,0,0-.43c-.06-.12-.56-1.34-.76-1.84S8.15,6.35,8,6.34H7.53a.94.94,0,0,0-.66.31A2.79,2.79,0,0,0,6,8.71a4.89,4.89,0,0,0,1,2.56A11,11,0,0,0,11.24,15a14,14,0,0,0,1.41.52,3.44,3.44,0,0,0,1.56.1,2.53,2.53,0,0,0,1.67-1.18A2,2,0,0,0,16,13.27,1.38,1.38,0,0,0,15.55,13Z"/></g></g></g></g></g></svg>