<svg xmlns="http://www.w3.org/2000/svg" xmlns:xlink="http://www.w3.org/1999/xlink"><defs><symbol id="icon-AR" viewBox="0 0 512 512"><path fill="#f0f0f0" d="M0 85.337h512v341.326H0z"/><path d="M0 85.337h512v113.775H0zm0 227.551h512v113.775H0z" fill="#338af3"/><path fill="#ffda44" d="M296.809 256l-16.676 7.844 8.88 16.149-18.107-3.464-2.294 18.291L256 281.367l-12.612 13.453-2.294-18.291-18.107 3.463 8.879-16.15L215.191 256l16.676-7.844-8.88-16.148 18.106 3.463 2.295-18.291L256 230.633l12.612-13.453 2.294 18.291 18.107-3.463-8.879 16.149z"/></symbol><symbol id="icon-AT" viewBox="0 0 512 512"><path fill="#f0f0f0" d="M0 85.337h512v341.326H0z"/><path d="M0 85.337h512v113.775H0zm0 227.551h512v113.775H0z" fill="#d80027"/></symbol><symbol id="icon-AU" viewBox="0 0 512 512"><path fill="#0052b4" d="M0 85.333h512V426.67H0z"/><g fill="#f0f0f0"><path d="M223.397 255.996c.273-.304.543-.609.813-.916-.27.308-.546.61-.82.916h.007zm-34.18 41.927l10.958 22.913 24.747-5.718-11.083 22.853 19.9 15.781-24.776 5.585.069 25.398-19.815-15.89-19.814 15.89.069-25.398-24.776-5.585 19.9-15.781-11.083-22.853 24.746 5.718zm197.859 28.464l5.227 10.929 11.803-2.728-5.286 10.9 9.492 7.528-11.818 2.663.032 12.114-9.45-7.578-9.45 7.578.032-12.114-11.817-2.663 9.491-7.528-5.285-10.9 11.803 2.728zm-48.623-115.939l5.227 10.93 11.803-2.729-5.286 10.901 9.491 7.528-11.817 2.663.032 12.115-9.45-7.58-9.451 7.58.033-12.115-11.818-2.663 9.491-7.528-5.284-10.901 11.802 2.729zm48.623-66.25l5.227 10.93 11.803-2.73-5.286 10.902 9.491 7.527-11.817 2.664.032 12.114-9.45-7.58-9.45 7.58.032-12.114-11.817-2.664 9.491-7.527-5.285-10.902 11.803 2.73zm42.471 49.688l5.227 10.929 11.802-2.728-5.284 10.9 9.491 7.527-11.818 2.664.033 12.114-9.451-7.578-9.45 7.578.032-12.114-11.817-2.664 9.491-7.527-5.286-10.9 11.803 2.728zm-30.368 57.97l4.11 12.652h13.304l-10.763 7.82 4.112 12.652-10.763-7.819-10.765 7.819 4.112-12.652-10.763-7.82h13.304z"/><path d="M256 85.333v30.553l-45.167 25.099H256v59.359h-59.103L256 233.179v22.817h-26.68l-73.494-40.826v40.826h-55.652v-48.573l-87.43 48.573H0v-30.553l45.167-25.099H0v-59.359h59.103L0 108.139V85.333h26.68l73.494 40.827V85.333h55.652v48.573l87.43-48.573z"/></g><path fill="#d80027" d="M144 85.33h-32v69.332H0v32h112v69.334h32v-69.334h112v-32H144z"/><path fill="#0052b4" d="M155.826 200.344L256 255.996v-15.737l-71.847-39.915z"/><path fill="#f0f0f0" d="M155.826 200.344L256 255.996v-15.737l-71.847-39.915z"/><path d="M155.826 200.344L256 255.996v-15.737l-71.847-39.915zm-83.98 0L0 240.259v15.737l100.174-55.652z" fill="#d80027"/><path fill="#0052b4" d="M100.174 140.982L0 85.33v15.737l71.847 39.915z"/><path fill="#f0f0f0" d="M100.174 140.982L0 85.33v15.737l71.847 39.915z"/><path d="M100.174 140.982L0 85.33v15.737l71.847 39.915zm83.98 0L256 101.067V85.33l-100.174 55.652z" fill="#d80027"/></symbol><symbol id="icon-BE" viewBox="0 0 512 512"><path fill="#ffda44" d="M0 85.331h512v341.326H0z"/><path d="M0 85.331h170.663v341.337H0z"/><path fill="#d80027" d="M341.337 85.331H512v341.337H341.337z"/></symbol><symbol id="icon-BG" viewBox="0 0 512 512"><path fill="#496e2d" d="M0 85.337h512v341.326H0z"/><path fill="#f0f0f0" d="M0 85.337h512v113.775H0z"/><path fill="#d80027" d="M0 312.888h512v113.775H0z"/></symbol><symbol id="icon-BR" viewBox="0 0 512 512"><path fill="#6da544" d="M0 85.331h512v341.337H0z"/><path fill="#ffda44" d="M256 161.678l128 94.316-128 94.316-128-94.316z"/><circle cx="256" cy="255.994" r="53.894" fill="#f0f0f0"/><path d="M229.052 252.626a90.66 90.66 0 00-26.93 4.07c.377 29.44 24.348 53.193 53.877 53.193 18.259 0 34.386-9.089 44.134-22.981-16.676-20.879-42.341-34.282-71.081-34.282zm79.843 13.694c.649-3.344 1-6.793 1-10.326 0-29.765-24.13-53.895-53.895-53.895-22.21 0-41.275 13.438-49.527 32.623a111.276 111.276 0 0122.579-2.307c31.304.001 59.622 13.012 79.843 33.905z" fill="#0052b4"/></symbol><symbol id="icon-CA" viewBox="0 0 512 512"><path fill="#f0f0f0" d="M0 85.331h512v341.326H0z"/><path d="M0 85.331h170.663v341.337H0zm341.337 0H512v341.337H341.337zM288 279.704l32-16-16-7.999v-16l-32 16 16-32h-16l-16-24.001-16 24.001h-16l16 32-32-16v16l-16 7.999 32 16-7.999 16h32v24.001h16v-24.001h32z" fill="#d80027"/></symbol><symbol id="icon-CH" viewBox="0 0 512 512"><path fill="#d80027" d="M0 85.337h512v341.326H0z"/><path fill="#f0f0f0" d="M356.174 222.609h-66.783v-66.783h-66.782v66.783h-66.783v66.782h66.783v66.783h66.782v-66.783h66.783z"/></symbol><symbol id="icon-CL" viewBox="0 0 512 512"><path fill="#d80027" d="M0 85.337h512v341.326H0z"/><path fill="#f0f0f0" d="M256 85.337h256V256H256z"/><path fill="#0052b4" d="M0 85.337h256V256H0z"/><path fill="#f0f0f0" d="M128 109.801l15.108 46.498H192l-39.554 28.739 15.108 46.498L128 202.799l-39.554 28.737 15.108-46.498L64 156.299h48.892z"/></symbol><symbol id="icon-CN" viewBox="0 0 512 512"><path fill="#d80027" d="M0 85.331h512v341.337H0z"/><path d="M178.923 189.567l14.656 45.107h47.429l-38.371 27.878 14.657 45.109-38.371-27.879-38.371 27.879 14.656-45.109-38.371-27.878h47.429zM271.3 339.593l-14.39-10.455-14.388 10.454 5.495-16.914-14.389-10.455h17.786l5.496-16.916 5.498 16.916h17.785l-14.389 10.454zm37.537-51.666h-17.785l-5.496 16.914-5.496-16.913-17.787-.001 14.391-10.455-5.498-16.915 14.39 10.453 14.389-10.453-5.496 16.915zm0-63.864l-14.388 10.455 5.495 16.914-14.388-10.453-14.39 10.455 5.498-16.917-14.391-10.452 17.788-.002 5.495-16.916 5.496 16.916zM271.3 172.397l-5.495 16.916 14.388 10.453-17.785.001-5.498 16.917-5.496-16.918-17.785.002 14.389-10.456-5.496-16.916 14.388 10.455z" fill="#ffda44"/></symbol><symbol id="icon-CO" viewBox="0 0 512 512"><path fill="#ffda44" d="M0 85.337h512v341.326H0z"/><path fill="#d80027" d="M0 343.096h512v83.567H0z"/><path fill="#0052b4" d="M0 256h512v87.096H0z"/></symbol><symbol id="icon-CZ" viewBox="0 0 512 512"><path fill="#0052b4" d="M0 85.337h512v341.326H0z"/><path fill="#d80027" d="M512 256v170.663H0L215.185 256z"/><path fill="#f0f0f0" d="M512 85.337V256H215.185L0 85.337z"/></symbol><symbol id="icon-DE" viewBox="0 0 512 512"><path fill="#d80027" d="M0 85.331h512v341.337H0z"/><path d="M0 85.331h512v113.775H0z"/><path fill="#ffda44" d="M0 312.882h512v113.775H0z"/></symbol><symbol id="icon-DK" viewBox="0 0 512 512"><path fill="#d80027" d="M0 85.333h512V426.67H0z"/><path fill="#f0f0f0" d="M192 85.33h-64v138.666H0v64h128v138.666h64V287.996h320v-64H192z"/></symbol><symbol id="icon-EE" viewBox="0 0 512 512"><path d="M0 85.337h512v341.326H0z"/><path fill="#0052b4" d="M0 85.337h512v113.775H0z"/><path fill="#f0f0f0" d="M0 312.888h512v113.775H0z"/></symbol><symbol id="icon-ES" viewBox="0 0 512 512"><path fill="#ffda44" d="M0 85.331h512v341.337H0z"/><path d="M0 85.331h512v113.775H0zm0 227.551h512v113.775H0z" fill="#d80027"/></symbol><symbol id="icon-FI" viewBox="0 0 512 512"><path fill="#f0f0f0" d="M0 85.334h512v341.337H0z"/><path fill="#2e52b2" d="M512 234.666v42.663H183.652v149.337h-42.674V277.329H0v-42.663h140.978V85.329h42.674v149.337z"/></symbol><symbol id="icon-FR" viewBox="0 0 512 512"><path fill="#f0f0f0" d="M0 85.331h512v341.337H0z"/><path fill="#0052b4" d="M0 85.331h170.663v341.337H0z"/><path fill="#d80027" d="M341.337 85.331H512v341.337H341.337z"/></symbol><symbol id="icon-GB" viewBox="0 0 512 512"><path fill="#f0f0f0" d="M0 85.333h512V426.67H0z"/><path fill="#d80027" d="M288 85.33h-64v138.666H0v64h224v138.666h64V287.996h224v-64H288z"/><path d="M393.785 315.358L512 381.034v-65.676zm-82.133 0L512 426.662v-31.474l-143.693-79.83zm146.982 111.304l-146.982-81.664v81.664z" fill="#0052b4"/><path fill="#f0f0f0" d="M311.652 315.358L512 426.662v-31.474l-143.693-79.83z"/><path fill="#d80027" d="M311.652 315.358L512 426.662v-31.474l-143.693-79.83z"/><path d="M90.341 315.356L0 365.546v-50.19zm110.007 14.154v97.151H25.491z" fill="#0052b4"/><path fill="#d80027" d="M143.693 315.358L0 395.188v31.474l200.348-111.304z"/><path d="M118.215 196.634L0 130.958v65.676zm82.133 0L0 85.33v31.474l143.693 79.83zM53.366 85.33l146.982 81.664V85.33z" fill="#0052b4"/><path fill="#f0f0f0" d="M200.348 196.634L0 85.33v31.474l143.693 79.83z"/><path fill="#d80027" d="M200.348 196.634L0 85.33v31.474l143.693 79.83z"/><path d="M421.659 196.636L512 146.446v50.19zm-110.007-14.154V85.331h174.857z" fill="#0052b4"/><path fill="#d80027" d="M368.307 196.634L512 116.804V85.33L311.652 196.634z"/></symbol><symbol id="icon-GR" viewBox="0 0 362.023 362.023"><path fill="#f0f0f0" d="M0 60.338h362.023v241.346H0z"/><g fill="#338af3"><path d="M0 60.338h362.023v30.168H0zm0 60.341h362.023v30.168H0zm0 60.335h362.023v30.168H0zm0 60.336h362.023v30.168H0z"/><path d="M0 60.338h133.788v120.676H0z"/></g><g fill="#f0f0f0"><path d="M0 107.27h133.788v26.814H0z"/><path d="M53.487 60.338h26.814v120.676H53.487z"/></g></symbol><symbol id="icon-HK" viewBox="0 0 512 512"><path fill="#d80027" d="M0 85.331h512v341.337H0z"/><path d="M273.621 214.44c-3.878 16.132-10.77 13.056-14.152 27.125-19.921-4.789-32.191-24.823-27.401-44.747 4.788-19.921 24.823-32.191 44.745-27.402-6.765 28.139.277 30.595-3.192 45.024zm-51.697 11.954c14.145 8.674 9.088 14.278 21.423 21.842-10.712 17.467-33.555 22.944-51.023 12.232-17.467-10.711-22.945-33.556-12.233-51.023 24.671 15.129 29.181 9.191 41.833 16.949zm-4.606 52.861c12.621-10.772 16.387-4.232 27.393-13.626 13.303 15.585 11.452 39.003-4.132 52.306-15.586 13.303-39.004 11.451-52.306-4.133 22.011-18.786 17.757-24.912 29.045-34.547zm48.852 20.716c-6.347-15.331 1.037-16.894-4.494-30.263 18.933-7.835 40.634 1.161 48.471 20.094 7.835 18.933-1.162 40.634-20.095 48.47-11.068-26.74-18.207-24.587-23.882-38.301zm34.797-40.059c-16.542 1.298-15.747-6.209-30.171-5.077-1.602-20.427 13.66-38.286 34.088-39.89 20.427-1.599 38.286 13.663 39.888 34.09-28.851 2.262-29.012 9.718-43.805 10.877z" fill="#f0f0f0"/></symbol><symbol id="icon-HU" viewBox="0 0 512 512"><path fill="#f0f0f0" d="M0 85.337h512v341.326H0z"/><path fill="#d80027" d="M0 85.337h512v113.775H0z"/><path fill="#6da544" d="M0 312.888h512v113.775H0z"/></symbol><symbol id="icon-ID" viewBox="0 0 512 512"><path fill="#f0f0f0" d="M0 85.337h512v341.326H0z"/><path fill="#a2001d" d="M0 85.337h512V256H0z"/></symbol><symbol id="icon-IE" viewBox="0 0 512 512"><path fill="#f0f0f0" d="M0 85.331h512v341.326H0z"/><path fill="#6da544" d="M0 85.331h170.663v341.337H0z"/><path fill="#ff9811" d="M341.337 85.331H512v341.337H341.337z"/></symbol><symbol id="icon-IN" viewBox="0 0 512 512"><path fill="#f0f0f0" d="M0 85.337h512v341.326H0z"/><path fill="#ff9811" d="M0 85.337h512v113.775H0z"/><path fill="#6da544" d="M0 312.888h512v113.775H0z"/><circle cx="256" cy="256" r="43.896" fill="#0052b4"/><circle cx="256" cy="256" r="27.434" fill="#f0f0f0"/><path fill="#0052b4" d="M256 222.146l8.464 19.195 20.855-2.268L272.927 256l12.392 16.927-20.855-2.268L256 289.854l-8.464-19.195-20.855 2.268L239.073 256l-12.392-16.927 20.855 2.268z"/></symbol><symbol id="icon-IT" viewBox="0 0 512 512"><path fill="#f0f0f0" d="M341.334 85.33H0v341.332h512V85.33z"/><path fill="#6da544" d="M0 85.333h170.663V426.67H0z"/><path fill="#d80027" d="M341.337 85.333H512V426.67H341.337z"/></symbol><symbol id="icon-JP" viewBox="0 0 512 512"><path fill="#f0f0f0" d="M0 85.331h512v341.337H0z"/><circle cx="256" cy="255.994" r="96" fill="#d80027"/></symbol><symbol id="icon-KR" viewBox="0 0 512 512"><path fill="#fff" d="M0 85.331h512v341.337H0z"/><path d="M318.33 255.994c0 15.583-27.906 54.539-62.33 54.539s-62.33-38.957-62.33-54.539c0-34.424 27.906-62.33 62.33-62.33s62.33 27.906 62.33 62.33z" fill="#d80027"/><path d="M318.33 255.994c0 34.424-27.906 62.33-62.33 62.33s-62.33-27.906-62.33-62.33" fill="#0052b4"/><path d="M322.114 311.096l16.528-16.528 11.018 11.018-16.528 16.528zm-27.548 27.534l16.528-16.527 11.018 11.018-16.528 16.528zm60.604 5.502l16.527-16.528 11.018 11.018-16.527 16.528zm-27.549 27.557l16.528-16.528 11.018 11.018-16.528 16.528zm11.02-44.075l16.528-16.527 11.018 11.018-16.527 16.527zm-27.547 27.546l16.528-16.528 11.018 11.018-16.528 16.527zm44.083-154.264l-44.073-44.073 11.018-11.018 44.073 44.073zm-44.078-11.015l-16.528-16.527 11.017-11.018 16.528 16.528zm27.536 27.55l-16.528-16.527 11.017-11.018 16.528 16.528zm5.5-60.606l-16.528-16.528 11.018-11.018 16.528 16.528zm27.559 27.549l-16.528-16.527 11.019-11.019 16.527 16.528zM140.31 327.61l44.073 44.074-11.018 11.018-44.074-44.073zm44.058 11.025l16.527 16.527-11.017 11.018-16.528-16.528zm-27.536-27.548l16.528 16.528-11.019 11.018-16.527-16.528zm16.531-16.523l44.073 44.073-11.018 11.019-44.073-44.074zm11.021-154.277l-44.073 44.074-11.018-11.018 44.073-44.074zm16.511 16.536l-44.073 44.074-11.018-11.018 44.073-44.074zm16.529 16.528l-44.074 44.074-11.017-11.017 44.074-44.074z"/></symbol><symbol id="icon-KZ" viewBox="0 0 512 512"><path d="M0 84.46h512V425.8H0z" fill="#00afca"/><path d="M273.8 273.75a45.93 45.93 0 1145.93-45.93 45.92 45.92 0 01-45.93 45.93zm0-98.12a3.45 3.45 0 003.76-3.79c0-2.73-3.76-15.73-3.76-15.73s-3.75 13-3.75 15.73c0 2.05 1.02 3.79 3.75 3.79zm56 48.44c-2 0-3.79 1-3.79 3.75a3.45 3.45 0 003.79 3.76c2.73 0 15.74-3.76 15.74-3.76s-13.03-3.75-15.76-3.75zm-59.75 59.73c0 2.73 3.75 15.74 3.75 15.74s3.76-13 3.76-15.74c0-2.05-1-3.79-3.76-3.79a3.45 3.45 0 00-3.75 3.79zm-48.44-56a3.44 3.44 0 00-3.79-3.75c-2.73 0-15.73 3.75-15.73 3.75s13 3.76 15.73 3.76c2.05.02 3.79-1.01 3.79-3.74zm72.16-48.22a3.44 3.44 0 004.92-2.06c1.05-2.52 2.56-16 2.56-16s-8.45 10.57-9.49 13.1c-.76 1.94-.51 3.94 2.01 4.98zM327 245.77c-1.89-.78-3.89-.5-4.94 2a3.45 3.45 0 002.06 4.92c2.53 1 16 2.55 16 2.55s-10.64-8.42-13.12-9.47zM253.83 276a3.45 3.45 0 00-4.92 2.06c-1 2.52-2.55 16-2.55 16s8.44-10.58 9.49-13.1c.78-1.88.5-3.88-2.02-4.96zm-28.25-68.19a3.44 3.44 0 00-2.06-4.92c-2.52-1.05-16-2.55-16-2.55s10.57 8.44 13.1 9.49c1.92.82 3.92.54 4.96-1.98zm85.13-16.93a3.44 3.44 0 005.33 0c1.93-1.93 8.47-13.78 8.47-13.78s-11.85 6.54-13.78 8.47c-1.45 1.43-1.95 3.43-.02 5.35zm5.29 73.87c-1.45-1.45-3.4-2-5.33 0a3.44 3.44 0 000 5.33c1.93 1.93 13.78 8.47 13.78 8.47s-6.45-11.87-8.45-13.8zm-79.14 0a3.45 3.45 0 00-5.34 0c-1.93 1.93-8.47 13.78-8.47 13.78s11.85-6.54 13.78-8.47c1.49-1.45 2-3.4.07-5.33zm0-73.81a3.46 3.46 0 000-5.34c-1.93-1.93-13.78-8.47-13.78-8.47s6.54 11.85 8.47 13.78c1.45 1.43 3.45 1.94 5.35.01zM322 207.85a3.45 3.45 0 004.94 2c2.52-1.05 13.1-9.49 13.1-9.49s-13.45 1.5-16 2.55a3.44 3.44 0 00-2.04 4.94zm-20.77 86.23s-1.51-13.46-2.56-16c-.78-1.89-2.39-3.11-4.92-2.06a3.45 3.45 0 00-2 4.94c1.05 2.54 9.5 13.12 9.5 13.12zm-75.67-46.29a3.44 3.44 0 00-4.93-2c-2.53 1-13.1 9.49-13.1 9.49s13.45-1.5 16-2.55c1.88-.8 3.1-2.41 2.05-4.94zm28.25-68.19a3.44 3.44 0 002-4.93c-1-2.53-9.49-13.1-9.49-13.1s1.51 13.45 2.55 16c.82 1.86 2.44 3.08 4.96 2.03zm30.15-3a3.45 3.45 0 004.43-3c.53-2.68-.62-16.17-.62-16.17s-6.22 12-6.75 14.7c-.38 2.06.29 3.97 2.98 4.5zm45.46 58.43c-2-.4-3.92.26-4.45 2.94a3.44 3.44 0 003 4.42c2.68.54 16.17-.61 16.17-.61s-12.02-6.19-14.7-6.72zM259.2 282c-.53 2.68.61 16.17.61 16.17s6.22-12 6.75-14.7c.4-2-.26-3.92-2.94-4.45a3.44 3.44 0 00-4.42 2.98zm-36.59-64.35a3.44 3.44 0 00-3-4.42c-2.68-.54-16.16.61-16.16.61s12 6.22 14.7 6.75c2.02.41 3.93-.27 4.46-2.95zm80.19-33.21a3.45 3.45 0 005.22-1.07c1.52-2.27 5.63-15.17 5.63-15.17s-10.35 8.73-11.87 11a3.44 3.44 0 001.02 5.23zm19.63 71.37c-1.7-1.14-3.72-1.25-5.23 1a3.44 3.44 0 001.06 5.22c2.27 1.52 15.17 5.62 15.17 5.62s-8.73-10.33-11-11.85zm-76.61 20.65c1.14-1.7 1.26-3.72-1-5.23a3.45 3.45 0 00-5.23 1.06c-1.52 2.27-5.62 15.17-5.62 15.17s10.34-8.74 11.85-11.01zm-20.65-76.61c1.7 1.14 3.72 1.26 5.24-1a3.45 3.45 0 00-1.07-5.23c-2.27-1.52-15.17-5.62-15.17-5.62s8.73 10.33 11 11.84zm92-1a3.44 3.44 0 005.23 1c2.27-1.51 11-11.86 11-11.86s-12.9 4.1-15.17 5.62c-1.67 1.13-2.55 2.94-1.03 5.22zm-3.55 88.62s-4.11-12.9-5.63-15.17c-1.13-1.7-2.95-2.58-5.22-1.06a3.44 3.44 0 00-1 5.23c1.53 2.25 11.88 10.98 11.88 10.98zm-83.24-30.63a3.44 3.44 0 00-5.24-1c-2.27 1.52-11 11.86-11 11.86s12.9-4.1 15.17-5.62a3.42 3.42 0 001.1-5.26zm14.4-72.39a3.45 3.45 0 001-5.24c-1.51-2.27-11.86-11-11.86-11s4.1 12.9 5.62 15.17c1.18 1.68 3 2.56 5.27 1.05zM328 213.22c-2 .4-3.51 1.74-3 4.42a3.45 3.45 0 004.45 2.94c2.68-.53 14.7-6.75 14.7-6.75s-13.5-1.15-16.15-.61zM284 279a3.44 3.44 0 00-2.94 4.45c.53 2.68 6.75 14.7 6.75 14.7s1.15-13.49.62-16.17A3.44 3.44 0 00284 279zm-61.37-41a3.44 3.44 0 00-4.44-2.94c-2.68.53-14.7 6.75-14.7 6.75s13.48 1.15 16.16.61c1.99-.42 3.5-1.74 2.96-4.42zm41-61.37a3.44 3.44 0 002.94-4.45c-.53-2.67-6.75-14.7-6.75-14.7s-1.14 13.49-.61 16.17c.39 2.01 1.73 3.52 4.41 2.98zm12.9 158.89a24.86 24.86 0 004.87.14c.39-.1 1-.12 1.22-.35a6.31 6.31 0 00-2.39-.54h-6.51a19.62 19.62 0 01-5.4-.88c-.46-.19-.88-.62-1.31-.15a7.46 7.46 0 01-5.52-.17c.79-1.11 1.75-2.07 2.63-3.1-.71-.11-1.39-.26-2.1-.43 1.24-.85 2.39-1.82 3.6-2.73a14.66 14.66 0 00-3.6.6c-1.6.22-3.14.78-4.73 1l-.64.1-1.07.1a3.89 3.89 0 01.12.89 2.82 2.82 0 01-.12.85 1.94 1.94 0 01-.45.72 2.48 2.48 0 01-.75.6 2.29 2.29 0 01-.89.22 2.38 2.38 0 01-.92-.11 2.78 2.78 0 01-.86-.53 6.32 6.32 0 01-.95.17 3.39 3.39 0 01-.9 0 8.31 8.31 0 01-1-.32 5.28 5.28 0 01-.88-.46 8.17 8.17 0 00-3.17 2.52 3.92 3.92 0 00-.56 1.82 4.94 4.94 0 00.48 2.38c.13.22.23-.78.62-.92a6.23 6.23 0 012.27-1.14c.7-.35.61 0 .32.57-.07.29-.45 1.37.07.82a22.22 22.22 0 017.36-1.42c3.62-.38 7.25-.46 10.88-.5 3.44.08 6.86.13 10.27.25zm-10.91-8.21zm41.18.5c-1.86.19-3.76-.11-3.54 2.09-.35 1.73-4 1.15-3 2.63 1.15 1.88-2.08 3-3.41 3.84-8.24 3.09-17.25 1.16-25.81 2.21-5 .42-10.9 2.32-12.31 7.74 3.63 1 6.68-2.12 9.57-3.85.87.46-.55 3.63.82 4.73 2.81-.22 4.62-3.28 6.25-5.37 1.38 1.57-.64 4 .61 5.37 3.24.31 4.59-3.5 6.91-5 1.56-.26-.64 3.43.58 4.42 2.23.95 4.53-.64 5.25-2.8 1-3 2-.79 2.41 1.13 1.3 2.18 3.81.13 4.75-1.31 1.15-3 2.28-.36 3.79.87 3.19.51 4.19-3.27 6.16-4.93-.15 1.85 1.87 4.26 3.52 2.38 1.38-1.27 1.52-4 3-4.76 2.07.79 4 3.42 6.43 1.94 1.48-1.08 1.23-3.22 1.58-4.84-.51-3.09 2.08 1.15 3.8.87 3.61 1.25 8.1-1.59 7.47-5.63-8.3-.33-16.52-2.09-24.84-1.73zm73.35-65.67c.26-2.29-3.34-2.54-4.28-.74-4.77 4.59-9.08 10-15.18 12.89a95.67 95.67 0 0014.89-19.24c.9-2.06 3.33-4.53 2-6.82-2.12-1.76-4.78-.15-5.88 2-3.71 4.83-6.52 10.48-11.29 14.42 4.17-8 8.49-16.44 8.6-25.62 0-1.89-.39-4.67-3-4.32-2 .37-1.55 3.41-2.39 5-1.85 6.28-2.72 13.07-6.5 18.56.85-5.1 2.34-10.41 1.19-15.56-.53-2.3-4.25-1.31-3.77 1-4.44 22.48-19.52 42.14-39.25 53.51a84.5 84.5 0 01-29.39 9.9c-2.76.61-5.74.25-8.38 1.19-6.4 4.91-10.27 13.11-18.37 15.68-3.63 1.81-8.36 2.17-10.95 5.54a2.89 2.89 0 00-.27 1.41c1.76 1.61 3 0 4.62-.86a.76.76 0 00-.24.56.81.81 0 10.81-.8h-.16.05c6-2.08 11.31-5.71 16.5-9.34 3.15-2.6 5.88-6 10.11-6.82 8.24-2.5 17-2.19 25.28-4.49 6.3-8.63 17-11.71 26-16.67 2-.63 2.79-2.29 3.43-4.11A41.39 41.39 0 01348 274.83a12.76 12.76 0 018.68-1.59c-.21 3.52-2.23 6.63-4.67 9.07 2-.05 3.71-1.31 5.72-1.23.69 3.61-3.21 5.5-5.28 7.74 1.16.27 5.58.61 3.17 1.76-3.07 2.14-6.58 3.6-9.42 6.08 2.62.47 2.91 1 .25 2-1.44 1-4.21 1.32-4.48 3.22 2 1.22-.91 2.43-2 2.82-2.13.5-4.37 1.42-1.54 3-1.07 1.62-3.37 2-5.24 1.81.57 1.83 1.39 3.88-1 4.69a36.76 36.76 0 01-18.3 7.63c8.38.65 17-.91 24.16-5.46.95-1.12 5.9-2.32 3.13-3.26-1.31-.54-4.1-1.15-4.29-2.14 3.87-2.39 8.76-1.54 12.93-3 .11-1.35-3.17-1-4.4-1.28-2.91-.24-2.74-1 .07-1.26 3.51-.89 7.51-1.08 10.51-3.43-2.44-1.13-5.5-.13-8.1-1.06 4.41-1.92 9.61-2.12 13.56-5 1.8-2-2.31-1.38-3.51-1.33-2.44.42-3.56-.75-.79-1.76 4.73-3.49 10.73-5.76 14.05-10.82.79-1.13 1.86-4.55-.65-3.32-3.31 1.1-6.22 4.81-10 3.67 7.44-5.73 14.51-12.28 19.58-20.24zm-189.51 7.42c1.67 1.51 1.05-1.45 2.42-1.78a37.79 37.79 0 014.24 3.32c6.75 5.8 10.7 14.15 17.6 19.77 3.23 2.76 7.28 4.12 11.3 5.22 4.4 2.61 7.61 6.8 11.55 10 3.75 3.45 9 3.9 13.85 4.16 5.86.28 12.56.14 17.18 4.34 1.54-1.94 2.24-4.43 3.44-6.6-1.36-.09-2.72-.13-4.07-.25A83.47 83.47 0 01226 293.32a81 81 0 01-31.72-43.43c-.91-2.59-1.11-5.59-2.1-8a2 2 0 00-3.31 1.17c-.86 5.08.44 10.23 1.32 15.23-4-5.95-4.87-13.25-6.87-20-.66-1.23-.34-3.83-2.36-3.52-2.42-.07-2.53 2.62-2.63 4.4.11 9.17 4.5 17.56 8.6 25.54-4.82-4.07-7.67-9.87-11.54-14.76-1-1.69-3-3-4.92-2.05-2 .69-.88 3-.22 4.34 3.68 7.2 8.69 13.66 14 19.78.43.77 3.61 2.91 1.59 1.93-5.7-3-9.83-8.15-14.41-12.56-.93-1.73-4.46-1.39-4.17.85 4.19 6.73 10 12.3 16 17.43.74 1 3.66 2.26 3.12 3-4.1.65-6.88-3.53-10.72-4-1.32.28.32 2.59.87 3.43 4.93 5.25 11.85 7.91 18.31 10.75-2.27 1-4.82.2-7.2.2-.94.25-4.23-.95-3.43.54 3.48 3.91 9.28 2.61 13.71 4.45a8 8 0 01-3.95 1.34c-1.08.45-3.72.09-3.88 1.13 2.52 1.73 5.81 1.38 8.68 2.16 2.85.17 1.6.76-.42 1.24-1.07.47-3 .51-3.53 1.42 3.34 2.09 7.49 2.34 11.29 3.1-1.83.8-3.87 1-5.63 1.94 4 1.48 8 3.15 11.9 4.87a69 69 0 0023.93 6.31 64.64 64.64 0 01-8.41-2.32c-6.94-2.36-14-4.8-20.29-8.51 1.42-1.09 3.11-1.75 4.49-2.91a17.78 17.78 0 01-7.89-2.29c-2.57-.92.45-2.1 1.42-3.08-.19-1-2.65-1.11-3.74-1.67a1.61 1.61 0 01-.89-3c2-1-.89-1.59-1.76-1.94-1.49-.82.29-2.66-.44-3.61-3.53-.57-6.43-2.81-9.13-5 .5-.53 3.07-.42 4.38-.63a28.81 28.81 0 01-7-7.25c.7-.53 3.2-.09 4.6-.23-.28-3.48-2.35-6.58-4.41-9.3.2-.96 2.47-.9 3.39-.25zM53 194.55c5.51.61 8.43 4.29 8.43 9a15.32 15.32 0 01-1.88 7.55s-10.85 22.55-15.07 31.28a9.16 9.16 0 00-.7 4.14c0 2.81 2.72 5.1 5.58 5.17a5.62 5.62 0 005.43-5.26c0-3.45-1.79-5-3.62-5-2.26 0-3.16.93-3.16 2.51 0 1.11.53 1.59 1.3 1.59 1.94 0 1.39-2.61 1.39-2.61a1.77 1.77 0 011.3 2.42 3.45 3.45 0 011.88 1.12 3.48 3.48 0 01-1.88 1 1.74 1.74 0 01-1.45 2.54 2.65 2.65 0 00.19-1.61c-2.07.59-5.23-.34-5.23-3.91s2.49-6.48 7.06-5.75a3.28 3.28 0 01-1.76-2.79 6.59 6.59 0 001.76.37 5.94 5.94 0 01-1.25-3.63c.85.39 1.64 1.1 2.74.65-1.72-3.38.39-8 5.76-9.13a11.15 11.15 0 00-2.93 7.27c0 8 2.23 9.36 2.23 14.94a8.22 8.22 0 01-3.5 6.5 4.78 4.78 0 013.08 2.22 4.78 4.78 0 01-3.08 2.22 8.22 8.22 0 013.5 6.5c0 5.57-2.23 6.92-2.23 14.94a11.13 11.13 0 002.93 7.26c-5.37-1.1-7.48-5.74-5.76-9.12-1.1-.46-1.89.26-2.74.65a5.92 5.92 0 011.25-3.58 6.17 6.17 0 00-1.76.37 3.27 3.27 0 011.76-2.79c-4.6.74-7.06-2.24-7.06-5.78s3.16-4.49 5.23-3.91a2.61 2.61 0 00-.19-1.6 1.74 1.74 0 011.45 2.48 3.56 3.56 0 011.88 1 3.57 3.57 0 01-1.88 1.15 1.77 1.77 0 01-1.3 2.42s.55-2.61-1.39-2.61c-.77 0-1.3.48-1.3 1.58 0 1.59.9 2.52 3.16 2.52 1.83 0 3.62-1.54 3.62-5a5.63 5.63 0 00-5.43-5.27c-2.86.08-5.58 2.37-5.58 5.17a9.18 9.18 0 00.7 4.15c4.22 8.72 15.07 31.28 15.07 31.28a15.25 15.25 0 011.88 7.54c0 4.7-2.92 8.37-8.43 9 5.51.61 8.43 4.28 8.43 9a15.25 15.25 0 01-1.88 7.54S48.7 354.8 44.48 363.53a9.13 9.13 0 00-.7 4.14c0 2.81 2.72 5.1 5.58 5.17a5.63 5.63 0 005.43-5.26c0-3.45-1.79-5-3.62-5-2.26 0-3.16.92-3.16 2.51 0 1.11.53 1.58 1.3 1.58 1.94 0 1.39-2.6 1.39-2.6a1.77 1.77 0 011.3 2.42 3.49 3.49 0 011.88 1.11 3.43 3.43 0 01-1.88 1 1.74 1.74 0 01-1.46 2.54 2.65 2.65 0 00.19-1.61c-2.07.59-5.23-.35-5.23-3.91s2.46-6.52 7.06-5.77a3.3 3.3 0 01-1.76-2.8 6.38 6.38 0 001.76.38 6 6 0 01-1.25-3.64c.85.39 1.64 1.11 2.74.66-1.72-3.38.39-8 5.76-9.13a11.13 11.13 0 00-2.93 7.26c0 8 2.23 9.37 2.23 14.95a8.23 8.23 0 01-3.5 6.5 4.73 4.73 0 013.08 2.21 4 4 0 01-3.62 2 7.63 7.63 0 014.11 6.92c0 5.51-2.27 7.78-2.27 14 0 3.45 2.82 7.83 2.82 7.83-5-.5-7.46-5.12-6.06-8.82a2.44 2.44 0 00-2.13.66c-.37-1 .21-2.22 1-3.24-.62-.33-1.08-.13-2.07.07a4.52 4.52 0 012.28-3.23c-4.49 1.17-7.26-2-7.26-5.24 0-2.47 1.74-4.25 3.43-4.25a3.48 3.48 0 011.81.57 2.79 2.79 0 00-.18-2.27c1.25.32 2 1.06 1.47 2.6a3.11 3.11 0 012.23 1 2.62 2.62 0 01-2.23 1c.7 1.44-.08 2.24-1.2 2.89 0 0 .71-2.89-1.12-2.89-.82 0-1.57.27-1.57 1.49a2.65 2.65 0 003.06 2.43c2.13-.1 3.87-1.48 3.87-4.89 0-3.14-2.54-4.71-5.89-4.81-3-.09-5.29 1.54-5.29 4.65 0 4.14 6 13.58 6 17.27 0 2.76-2.49 4.31-4.92 4.31a7 7 0 01-4-1.47 7 7 0 01-4 1.47c-2.44 0-4.93-1.55-4.93-4.31 0-3.69 6-13.13 6-17.27 0-3.11-2.28-4.74-5.29-4.65-3.35.1-5.88 1.67-5.88 4.81 0 3.41 1.73 4.79 3.86 4.89a2.65 2.65 0 003.06-2.43c0-1.22-.75-1.49-1.57-1.49-1.83 0-1.12 2.89-1.12 2.89-1.12-.65-1.9-1.45-1.2-2.89a2.62 2.62 0 01-2.23-1 3.11 3.11 0 012.23-1c-.56-1.54.22-2.28 1.47-2.6a2.79 2.79 0 00-.18 2.27A3.48 3.48 0 0133 383c1.69 0 3.43 1.78 3.43 4.25 0 3.28-2.77 6.41-7.25 5.24a4.53 4.53 0 012.27 3.23c-1-.2-1.45-.4-2.07-.07.77 1 1.35 2.21 1 3.24a2.44 2.44 0 00-2.13-.66c1.4 3.7-1.07 8.32-6.06 8.82 0 0 2.82-4.38 2.82-7.83 0-6.21-2.27-8.48-2.27-14a7.63 7.63 0 014.11-6.92 4 4 0 01-3.62-2 4.73 4.73 0 013.08-2.21 8.23 8.23 0 01-3.5-6.5c0-5.58 2.23-6.93 2.23-14.95a11.13 11.13 0 00-2.93-7.26c5.37 1.1 7.48 5.75 5.76 9.13 1.1.45 1.89-.27 2.74-.66a5.89 5.89 0 01-1.25 3.64 6.38 6.38 0 001.76-.38 3.3 3.3 0 01-1.76 2.8c4.6-.75 7.06 2.23 7.06 5.77s-3.16 4.5-5.23 3.91a2.72 2.72 0 00.19 1.61 1.74 1.74 0 01-1.46-2.54 3.46 3.46 0 01-1.88-1 3.49 3.49 0 011.88-1.11 1.77 1.77 0 011.3-2.42s-.55 2.6 1.39 2.6c.77 0 1.3-.47 1.3-1.58 0-1.59-.9-2.51-3.16-2.51-1.83 0-3.62 1.53-3.62 5a5.63 5.63 0 005.43 5.26c2.86-.07 5.58-2.36 5.58-5.17a9.13 9.13 0 00-.7-4.14c-4.22-8.73-15.07-31.29-15.07-31.29a15.25 15.25 0 01-1.88-7.54c0-4.7 2.93-8.37 8.44-9-5.51-.61-8.44-4.28-8.44-9a15.25 15.25 0 011.88-7.54s10.85-22.56 15.07-31.28a9.18 9.18 0 00.7-4.15c0-2.8-2.72-5.09-5.58-5.17a5.63 5.63 0 00-5.43 5.27c0 3.44 1.79 5 3.62 5 2.26 0 3.16-.93 3.16-2.52 0-1.1-.53-1.58-1.3-1.58-1.94 0-1.39 2.61-1.39 2.61a1.78 1.78 0 01-1.3-2.42A3.57 3.57 0 0128 263.8a3.6 3.6 0 011.88-1 1.74 1.74 0 011.46-2.53 2.68 2.68 0 00-.19 1.6c2.07-.58 5.23.35 5.23 3.91s-2.46 6.52-7.06 5.78a3.27 3.27 0 011.76 2.79 6.17 6.17 0 00-1.76-.37 5.86 5.86 0 011.25 3.63c-.85-.39-1.64-1.11-2.74-.65 1.72 3.38-.39 8-5.76 9.12a11.13 11.13 0 002.93-7.29c0-8-2.23-9.37-2.23-14.94a8.22 8.22 0 013.5-6.5 4.78 4.78 0 01-3.08-2.22 4.78 4.78 0 013.08-2.22 8.22 8.22 0 01-3.5-6.5c0-5.58 2.23-6.92 2.23-14.94a11.15 11.15 0 00-2.93-7.27c5.37 1.1 7.48 5.75 5.76 9.13 1.1.45 1.89-.26 2.74-.65a5.88 5.88 0 01-1.25 3.63 6.59 6.59 0 001.76-.37 3.28 3.28 0 01-1.76 2.79c4.6-.75 7.06 2.23 7.06 5.77s-3.16 4.5-5.23 3.91a2.72 2.72 0 00.19 1.61 1.74 1.74 0 01-1.46-2.54 3.51 3.51 0 01-1.88-1 3.45 3.45 0 011.88-1.12 1.77 1.77 0 011.3-2.42s-.55 2.61 1.39 2.61c.77 0 1.3-.48 1.3-1.59 0-1.58-.9-2.51-3.16-2.51-1.83 0-3.62 1.53-3.62 5a5.62 5.62 0 005.43 5.26c2.86-.07 5.58-2.36 5.58-5.17a9.16 9.16 0 00-.7-4.14c-4.22-8.73-15.07-31.28-15.07-31.28a15.32 15.32 0 01-1.88-7.55c0-4.69 2.93-8.37 8.44-9-5.51-.6-8.44-4.28-8.44-9a15.3 15.3 0 011.91-7.57s10.85-22.56 15.07-31.28a9.16 9.16 0 00.7-4.14c0-2.81-2.72-5.1-5.58-5.17a5.62 5.62 0 00-5.43 5.26c0 3.44 1.79 5 3.62 5 2.26 0 3.16-.93 3.16-2.51 0-1.11-.53-1.59-1.3-1.59-1.94 0-1.39 2.61-1.39 2.61a1.77 1.77 0 01-1.3-2.42 3.45 3.45 0 01-1.91-1.11 3.51 3.51 0 011.88-1 1.74 1.74 0 011.46-2.54 2.72 2.72 0 00-.19 1.61c2.07-.59 5.23.34 5.23 3.91s-2.46 6.51-7.06 5.77a3.27 3.27 0 011.76 2.79 6.59 6.59 0 00-1.76-.37 5.88 5.88 0 011.25 3.63c-.85-.39-1.64-1.11-2.74-.65 1.72 3.38-.39 8-5.76 9.12a11.11 11.11 0 002.93-7.28c0-8-2.23-9.37-2.23-14.94a8.22 8.22 0 013.5-6.5 4.78 4.78 0 01-3.05-2.2 4 4 0 013.62-2 7.65 7.65 0 01-4.11-6.93c0-5.51 2.27-7.78 2.27-14 0-3.44-2.82-7.83-2.82-7.83 5 .5 7.46 5.13 6.06 8.82a2.4 2.4 0 002.13-.65c.37 1-.21 2.21-1 3.24.62.33 1.08.13 2.07-.08a4.55 4.55 0 01-2.27 3.24c4.48-1.17 7.25 2 7.25 5.23 0 2.48-1.74 4.25-3.43 4.25a3.47 3.47 0 01-1.81-.56 2.79 2.79 0 00.18 2.27c-1.25-.33-2-1.07-1.47-2.6a3.15 3.15 0 01-2.23-1 2.65 2.65 0 012.23-1c-.7-1.43.08-2.23 1.2-2.89 0 0-.71 2.89 1.12 2.89.82 0 1.57-.27 1.57-1.48a2.65 2.65 0 00-3.06-2.43c-2.13.09-3.86 1.47-3.86 4.88 0 3.15 2.53 4.71 5.88 4.81 3 .1 5.29-1.54 5.29-4.65 0-4.14-6-13.57-6-17.26 0-2.77 2.49-4.31 4.93-4.31a7 7 0 014 1.47 7 7 0 014-1.47c2.43 0 4.92 1.54 4.92 4.31 0 3.69-6 13.12-6 17.26 0 3.11 2.28 4.75 5.29 4.65 3.35-.1 5.89-1.66 5.89-4.81 0-3.41-1.74-4.79-3.87-4.88a2.65 2.65 0 00-3.06 2.43c0 1.21.75 1.48 1.57 1.48 1.83 0 1.12-2.89 1.12-2.89 1.12.66 1.9 1.46 1.2 2.89a2.65 2.65 0 012.23 1 3.15 3.15 0 01-2.23 1c.56 1.53-.22 2.27-1.47 2.6a2.79 2.79 0 00.18-2.27 3.47 3.47 0 01-1.81.56c-1.69 0-3.43-1.77-3.43-4.25 0-3.27 2.77-6.4 7.26-5.23a4.54 4.54 0 01-2.28-3.24c1 .21 1.45.41 2.07.08-.77-1-1.35-2.22-1-3.24a2.4 2.4 0 002.13.65c-1.4-3.69 1.07-8.32 6.06-8.82 0 0-2.82 4.39-2.82 7.83 0 6.21 2.27 8.48 2.27 14a7.65 7.65 0 01-4.1 6.93 4 4 0 013.62 2 4.78 4.78 0 01-3.08 2.22 8.22 8.22 0 013.5 6.5c0 5.57-2.23 6.92-2.23 14.94a11.11 11.11 0 002.93 7.26c-5.37-1.1-7.48-5.74-5.76-9.12-1.1-.46-1.89.26-2.74.65a5.94 5.94 0 011.25-3.63 6.59 6.59 0 00-1.76.37 3.27 3.27 0 011.76-2.79c-4.6.74-7.06-2.24-7.06-5.77s3.16-4.5 5.23-3.91a2.65 2.65 0 00-.19-1.61 1.74 1.74 0 011.45 2.52 3.48 3.48 0 011.88 1 3.45 3.45 0 01-1.88 1.14 1.77 1.77 0 01-1.3 2.42s.55-2.61-1.39-2.61c-.77 0-1.3.48-1.3 1.59 0 1.58.9 2.51 3.16 2.51 1.83 0 3.62-1.54 3.62-5a5.62 5.62 0 00-5.43-5.26c-2.86.07-5.58 2.36-5.58 5.17a9.16 9.16 0 00.7 4.14C48.71 155.47 59.56 178 59.56 178a15.3 15.3 0 011.88 7.54c0 4.73-2.92 8.46-8.44 9.01zm-12-73.4c2-4.86 5.74-11.51 4.39-13.17-1.1-1.38-4.34 1.33-4.39 1.37-.05 0-3.29-2.75-4.39-1.37-1.39 1.66 2.39 8.31 4.39 13.17zm0 17a8.63 8.63 0 016.13-4.1c.18-.07.4-.12.6-.18-2.92-.67-5.38-1.76-6.73-4-1.35 2.28-3.81 3.37-6.73 4 .2.06.42.11.6.18a8.63 8.63 0 016.13 4.13zm-9 56.37a11.18 11.18 0 019 6.65 11.19 11.19 0 019-6.65 11.16 11.16 0 01-9-6.64 11.14 11.14 0 01-9.08 6.67zm0 121.15a11.16 11.16 0 019 6.65 11.17 11.17 0 019-6.65 11.18 11.18 0 01-9-6.64 11.16 11.16 0 01-9.08 6.67zm9 73.4c-2 4.87-5.74 11.51-4.39 13.18 1.1 1.37 4.34-1.33 4.39-1.37s3.29 2.74 4.39 1.37c1.31-1.64-2.46-8.25-4.39-13.15zm0-17a8.58 8.58 0 01-6.13 4.1c-.18.07-.4.13-.6.19 2.92.67 5.38 1.76 6.73 4 1.35-2.27 3.81-3.36 6.73-4-.2-.06-.42-.12-.6-.19a8.58 8.58 0 01-6.13-4.1zm10.5-52.46c-2.56 0-5.16 1.94-5.16 4.37 0 1.54.84 2.47 2.05 2.47 2.88 0 2.71-2.45 2.13-4 1.8.81 2.84 2.25 2.56 3.77a4.63 4.63 0 012.88 1.63 3.62 3.62 0 01-2.96 1.58c.57 2.36-1 3.36-2.56 3.91.49-1.73.81-3.72-2.13-3.72-2.15 0-3.85-.38-4.83-1.77-.06 1.86-.24 9.22-.24 9.22-.12 2.76 3.7 2.68 6.13 1.86-.91 3.18-2.8 4.9-7.15 4.47a3.42 3.42 0 012.18 3.35 8.77 8.77 0 01-3.4 6.31 8.77 8.77 0 01-3.48-6.31 3.42 3.42 0 012.18-3.35c-4.35.43-6.24-1.29-7.15-4.47 2.43.82 6.25.9 6.13-1.86 0 0-.18-7.36-.23-9.22-1 1.39-2.68 1.77-4.83 1.77-2.95 0-2.63 2-2.14 3.72-1.55-.55-3.13-1.55-2.56-3.91a3.58 3.58 0 01-2.92-1.58 4.58 4.58 0 012.87-1.63c-.28-1.52.76-3 2.56-3.77-.58 1.55-.75 4 2.14 4 1.2 0 2-.93 2-2.47 0-2.43-2.6-4.37-5.16-4.37-2.13 0-5.89 1.43-5.89 5.54a10.71 10.71 0 001.06 4.56c3.14 6.7 13.2 28 15.33 32.49 2.13-4.46 12.19-25.79 15.33-32.49a10.72 10.72 0 001.07-4.56c.05-4.15-3.72-5.54-5.85-5.54zM41 269.2c-2.13 4.47-12.19 25.79-15.33 32.49a10.71 10.71 0 00-1.06 4.56c0 4.11 3.76 5.54 5.89 5.54 2.56 0 5.16-1.94 5.16-4.37 0-1.54-.84-2.47-2-2.47-2.89 0-2.72 2.46-2.14 4-1.8-.81-2.84-2.25-2.56-3.78a4.58 4.58 0 01-2.96-1.62 3.64 3.64 0 012.88-1.55c-.57-2.36 1-3.35 2.56-3.91-.49 1.73-.81 3.73 2.14 3.73 2.15 0 3.84.37 4.83 1.77.05-1.87.23-9.22.23-9.22.12-2.77-3.7-2.69-6.13-1.86.91-3.19 2.8-4.91 7.15-4.47a3.44 3.44 0 01-2.18-3.36 8.77 8.77 0 013.52-6.34 8.77 8.77 0 013.48 6.31 3.44 3.44 0 01-2.22 3.35c4.35-.44 6.24 1.28 7.15 4.47-2.43-.83-6.25-.91-6.13 1.86 0 0 .18 7.35.24 9.22 1-1.4 2.68-1.77 4.83-1.77 2.94 0 2.62-2 2.13-3.73 1.55.56 3.13 1.55 2.56 3.91a3.67 3.67 0 012.88 1.58 4.63 4.63 0 01-2.92 1.64c.28 1.53-.76 3-2.56 3.78.58-1.55.75-4-2.13-4-1.21 0-2.05.93-2.05 2.47 0 2.43 2.6 4.37 5.16 4.37 2.13 0 5.9-1.43 5.9-5.54a10.72 10.72 0 00-1.07-4.56c-3.1-6.7-13.16-28.03-15.25-32.5zm0-18.27a8.6 8.6 0 01-6.17 4.07l-.33.11.33.1a8.63 8.63 0 016.13 4.1 8.63 8.63 0 016.13-4.1l.33-.1-.33-.11a8.6 8.6 0 01-6.09-4.07zm10.5-52.47c-2.56 0-5.16 1.95-5.16 4.38 0 1.54.84 2.46 2.05 2.46 2.88 0 2.71-2.45 2.13-4 1.8.81 2.84 2.25 2.56 3.77a4.63 4.63 0 012.88 1.63 3.62 3.62 0 01-2.96 1.58c.57 2.36-1 3.36-2.56 3.91.49-1.73.81-3.72-2.13-3.72-2.15 0-3.85-.37-4.83-1.77-.06 1.86-.24 9.22-.24 9.22-.12 2.76 3.7 2.68 6.13 1.86-.91 3.18-2.8 4.91-7.15 4.47a3.43 3.43 0 012.18 3.35 8.77 8.77 0 01-3.4 6.31 8.77 8.77 0 01-3.48-6.31 3.43 3.43 0 012.18-3.35c-4.35.44-6.24-1.29-7.15-4.47 2.43.82 6.25.9 6.13-1.86 0 0-.18-7.36-.23-9.22-1 1.4-2.68 1.77-4.83 1.77-2.95 0-2.63 2-2.14 3.72-1.55-.55-3.13-1.55-2.56-3.91A3.58 3.58 0 0126 206.7a4.58 4.58 0 012.87-1.63c-.28-1.52.76-3 2.56-3.77-.58 1.55-.75 4 2.14 4 1.2 0 2-.92 2-2.46 0-2.43-2.6-4.38-5.16-4.38-2.13 0-5.89 1.43-5.89 5.54a10.71 10.71 0 001.06 4.56c3.14 6.71 13.2 28 15.33 32.5 2.13-4.47 12.19-25.79 15.33-32.5a10.72 10.72 0 001.12-4.56c0-4.11-3.77-5.54-5.9-5.54zm5.9-13.35a10.72 10.72 0 00-1.07-4.56c-3.14-6.71-13.2-28-15.33-32.5-2.13 4.47-12.19 25.79-15.33 32.5a10.71 10.71 0 00-1.06 4.56c0 4.1 3.76 5.54 5.89 5.54 2.56 0 5.16-2 5.16-4.38 0-1.54-.84-2.47-2-2.47-2.89 0-2.72 2.46-2.14 4-1.8-.81-2.84-2.25-2.56-3.77a4.58 4.58 0 01-2.96-1.62 3.58 3.58 0 012.87-1.58c-.57-2.36 1-3.36 2.56-3.92-.49 1.74-.81 3.73 2.14 3.73 2.15 0 3.84.37 4.83 1.77.05-1.86.23-9.22.23-9.22.12-2.76-3.7-2.68-6.13-1.86.91-3.19 2.8-4.91 7.15-4.47a3.43 3.43 0 01-2.18-3.35 8.79 8.79 0 013.53-6.32 8.79 8.79 0 013.48 6.32 3.43 3.43 0 01-2.18 3.35c4.35-.44 6.24 1.28 7.15 4.47-2.43-.82-6.25-.9-6.13 1.86 0 0 .18 7.36.24 9.22 1-1.4 2.68-1.77 4.83-1.77 2.94 0 2.62-2 2.13-3.73 1.55.56 3.13 1.56 2.56 3.92a3.62 3.62 0 012.88 1.58A4.63 4.63 0 0153 184c.28 1.52-.76 3-2.56 3.77.58-1.55.75-4-2.13-4-1.21 0-2.05.93-2.05 2.47 0 2.43 2.6 4.38 5.16 4.38 2.17.03 5.94-1.41 5.94-5.51z" fill="#fec50c"/></symbol><symbol id="icon-LT" viewBox="0 0 512 512"><path fill="#6da544" d="M0 85.337h512v341.326H0z"/><path fill="#ffda44" d="M0 85.337h512v113.775H0z"/><path fill="#d80027" d="M0 312.888h512v113.775H0z"/></symbol><symbol id="icon-LU" viewBox="0 0 512 512"><path fill="#f0f0f0" d="M0 85.337h512v341.326H0z"/><path fill="#d80027" d="M0 85.337h512v113.775H0z"/><path fill="#338af3" d="M0 312.888h512v113.775H0z"/></symbol><symbol id="icon-LV" viewBox="0 0 512 512"><path fill="#f0f0f0" d="M0 85.337h512v341.326H0z"/><path d="M0 85.337h512v113.775H0zm0 227.551h512v113.775H0z" fill="#a2001d"/></symbol><symbol id="icon-MX" viewBox="0 0 512 512"><path fill="#d80027" d="M341.334 85.33H0v341.332h512V85.33z"/><path fill="#6da544" d="M0 85.333h170.663V426.67H0z"/><path fill="#f0f0f0" d="M170.663 85.333h170.663V426.67H170.663z"/><path d="M208 255.996c0 26.509 21.491 48 48 48s48-21.491 48-48v-16h-96v16z" fill="#6da544"/><path d="M320 223.996h-48c0-8.836-7.164-16-16-16s-16 7.164-16 16h-48c0 8.836 7.697 16 16.533 16H208c0 8.836 7.164 16 16 16 0 8.836 7.164 16 16 16h32c8.836 0 16-7.164 16-16 8.836 0 16-7.164 16-16h-.533c8.836 0 16.533-7.163 16.533-16z" fill="#ff9811"/></symbol><symbol id="icon-MY" viewBox="0 0 512 512"><path fill="#f0f0f0" d="M0 85.331h512v341.337H0z"/><path d="M0 127.994h512v42.663H0zm0 85.337h512v42.663H0zm0 85.326h512v42.663H0zm0 85.337h512v42.663H0z" fill="#d80027"/><path fill="#0052b4" d="M0 85.331h256v183.797H0z"/><g fill="#ffda44"><path d="M140.919 219.429c-23.308 0-42.202-18.895-42.202-42.202s18.895-42.202 42.202-42.202a42.024 42.024 0 0120.075 5.072c-9.365-9.158-22.173-14.811-36.307-14.811-28.686 0-51.941 23.255-51.941 51.941s23.256 51.941 51.941 51.941c14.133 0 26.942-5.653 36.307-14.811a42.021 42.021 0 01-20.075 5.072z"/><path d="M152.811 147.545l7.493 15.668 16.92-3.91-7.577 15.626 13.608 10.792-16.943 3.819.048 17.367-13.549-10.866-13.549 10.866.047-17.367-16.943-3.819 13.608-10.792-7.579-15.626 16.922 3.91z"/></g></symbol><symbol id="icon-NL" viewBox="0 0 512 512"><path fill="#f0f0f0" d="M0 85.337h512v341.326H0z"/><path fill="#a2001d" d="M0 85.337h512v113.775H0z"/><path fill="#0052b4" d="M0 312.888h512v113.775H0z"/></symbol><symbol id="icon-NO" viewBox="0 0 512 512"><path fill="#d80027" d="M0 85.334h512v341.337H0z"/><path fill="#f0f0f0" d="M512 295.883H202.195v130.783h-79.76V295.883H0v-79.772h122.435V85.329h79.76v130.782H512v61.218z"/><path fill="#2e52b2" d="M512 234.666v42.663H183.652v149.337h-42.674V277.329H0v-42.663h140.978V85.329h42.674v149.337z"/></symbol><symbol id="icon-PA" viewBox="0 0 512 512"><path fill="#f0f0f0" d="M0 85.337h512v341.326H0z"/><path d="M256 256v170.663H0V256h256z" fill="#0052b4"/><path d="M512 85.337V256H256V85.337h256z" fill="#d80027"/><path fill="#0052b4" d="M128 123.034l11.824 36.389h38.263l-30.955 22.491 11.823 36.389L128 195.813l-30.955 22.49 11.823-36.389-30.955-22.491h38.263z"/><path fill="#d80027" d="M384 293.697l11.824 36.389h38.263l-30.955 22.491 11.823 36.389L384 366.476l-30.955 22.49 11.823-36.389-30.955-22.491h38.263z"/></symbol><symbol id="icon-PE" viewBox="0 0 512 512"><path fill="#f0f0f0" d="M0 85.331h512v341.326H0z"/><path d="M0 85.331h170.663v341.337H0zm341.337 0H512v341.337H341.337z" fill="#d80027"/></symbol><symbol id="icon-PL" viewBox="0 0 512 512"><g fill="#f0f0f0"><path d="M0 85.337h512v341.326H0z"/><path d="M0 85.337h512V256H0z"/></g><path fill="#d80027" d="M0 256h512v170.663H0z"/></symbol><symbol id="icon-PT" viewBox="0 0 512 512"><path fill="#d80027" d="M0 85.337h512v341.326H0z"/><path fill="#6da544" d="M196.641 85.337v341.326H0V85.337z"/><circle cx="196.641" cy="256" r="64" fill="#ffda44"/><path d="M160.638 224v40.001c0 19.882 16.118 36 36 36s36-16.118 36-36V224h-72z" fill="#d80027"/><path d="M196.638 276c-6.617 0-12-5.383-12-12v-16h24.001v16c-.001 6.616-5.385 12-12.001 12z" fill="#f0f0f0"/></symbol><symbol id="icon-RO" viewBox="0 0 512 512"><path fill="#ffda44" d="M0 85.331h512v341.326H0z"/><path fill="#0052b4" d="M0 85.331h170.663v341.337H0z"/><path fill="#d80027" d="M341.337 85.331H512v341.337H341.337z"/></symbol><symbol id="icon-RU" viewBox="0 0 512 512"><path fill="#f0f0f0" d="M0 85.33v341.332h512V85.33z"/><path fill="#0052b4" d="M0 85.333h512V426.67H0z"/><path fill="#f0f0f0" d="M0 85.333h512v113.775H0z"/><path fill="#d80027" d="M0 312.884h512v113.775H0z"/></symbol><symbol id="icon-SE" viewBox="0 0 512 512"><path fill="#0052b4" d="M0 85.333h512V426.67H0z"/><path fill="#ffda44" d="M192 85.33h-64v138.666H0v64h128v138.666h64V287.996h320v-64H192z"/></symbol><symbol id="icon-SG" viewBox="0 0 512 512"><path fill="#f0f0f0" d="M0 85.337h512v341.326H0z"/><path fill="#d80027" d="M0 85.337h512V256H0z"/><g fill="#f0f0f0"><path d="M83.478 170.666c0-24.865 17.476-45.637 40.812-50.734a52.059 52.059 0 00-11.13-1.208c-28.688 0-51.942 23.254-51.942 51.941s23.255 51.942 51.942 51.942c3.822 0 7.543-.425 11.13-1.208-23.336-5.095-40.812-25.867-40.812-50.733zm66.783-48.231l3.684 11.337h11.921l-9.645 7.007 3.684 11.337-9.644-7.006-9.645 7.006 3.685-11.337-9.645-7.007h11.921z"/><path d="M121.344 144.696l3.683 11.337h11.921l-9.645 7.007 3.684 11.337-9.643-7.006-9.645 7.006 3.685-11.337-9.645-7.007h11.921zm57.834 0l3.684 11.337h11.921l-9.645 7.007 3.684 11.337-9.644-7.006-9.644 7.006 3.685-11.337-9.645-7.007h11.921zm-11.131 33.391l3.684 11.337h11.921l-9.644 7.007 3.684 11.337-9.645-7.006-9.643 7.006 3.684-11.337-9.644-7.007h11.92zm-35.573 0l3.683 11.337h11.921l-9.644 7.007 3.684 11.337-9.644-7.006-9.644 7.006 3.684-11.337-9.644-7.007h11.92z"/></g></symbol><symbol id="icon-SK" viewBox="0 0 512 512"><path fill="#f0f0f0" d="M0 85.337h512v341.326H0z"/><path fill="#0052b4" d="M0 196.641h512v118.717H0z"/><path fill="#d80027" d="M0 315.359h512v111.304H0z"/><path d="M129.468 181.799v85.136c0 48.429 63.267 63.267 63.267 63.267S256 315.362 256 266.935v-85.136H129.468z" fill="#f0f0f0"/><path d="M146.126 184.294v81.941c0 5.472 1.215 10.64 3.623 15.485h85.97c2.408-4.844 3.623-10.012 3.623-15.485v-81.941h-93.216z" fill="#d80027"/><path fill="#f0f0f0" d="M221.301 241.427h-21.425v-14.283h14.284v-14.283h-14.284v-14.284h-14.283v14.284h-14.282v14.283h14.282v14.283h-21.426v14.284h21.426v14.283h14.283v-14.283h21.425z"/><path d="M169.232 301.658c9.204 5.783 18.66 9.143 23.502 10.636 4.842-1.494 14.298-4.852 23.502-10.636 9.282-5.833 15.79-12.506 19.484-19.939a24.878 24.878 0 00-14.418-4.583c-1.956 0-3.856.232-5.682.657-3.871-8.796-12.658-14.94-22.884-14.94-10.227 0-19.013 6.144-22.884 14.94a25.048 25.048 0 00-5.682-.657 24.88 24.88 0 00-14.418 4.583c3.691 7.433 10.198 14.106 19.48 19.939z" fill="#0052b4"/></symbol><symbol id="icon-TH" viewBox="0 0 512 512"><path fill="#f0f0f0" d="M0 85.334h512V426.66H0z"/><path fill="#0052b4" d="M0 194.056h512v123.882H0z"/><path d="M0 85.334h512v54.522H0zm0 286.809h512v54.522H0z" fill="#d80027"/></symbol><symbol id="icon-TR" viewBox="0 0 512 512"><path fill="#d80027" d="M0 85.337h512v341.326H0z"/><g fill="#f0f0f0"><path d="M247.213 216.787l17.594 24.246 28.493-9.239-17.621 24.224 17.592 24.244-28.484-9.274-17.621 24.225.018-29.955-28.484-9.275 28.494-9.239z"/><path d="M199.202 316.602c-33.469 0-60.602-27.133-60.602-60.602s27.133-60.602 60.602-60.602c10.436 0 20.254 2.639 28.827 7.284-13.448-13.152-31.84-21.269-52.135-21.269-41.193 0-74.586 33.394-74.586 74.586s33.394 74.586 74.586 74.586c20.295 0 38.687-8.117 52.135-21.269-8.572 4.647-18.391 7.286-28.827 7.286z"/></g></symbol><symbol id="icon-TW" viewBox="0 0 512 512"><path fill="#d80027" d="M0 85.337h512v341.326H0z"/><path fill="#0052b4" d="M0 85.337h256V256H0z"/><path fill="#f0f0f0" d="M186.435 170.669L162.558 181.9l12.714 23.125-25.927-4.961-3.286 26.192L128 206.993l-18.06 19.263-3.285-26.192-25.927 4.96 12.714-23.125-23.877-11.23 23.877-11.231-12.714-23.125 25.927 4.96 3.286-26.192L128 134.344l18.06-19.263 3.285 26.192 25.928-4.96-12.715 23.125z"/><circle cx="128" cy="170.674" r="29.006" fill="#0052b4"/><path d="M128 190.06c-10.692 0-19.391-8.7-19.391-19.391 0-10.692 8.7-19.391 19.391-19.391 10.692 0 19.391 8.7 19.391 19.391 0 10.691-8.699 19.391-19.391 19.391z" fill="#f0f0f0"/></symbol><symbol id="icon-UA" viewBox="0 0 512 512"><path fill="#ffda44" d="M0 85.337h512v341.326H0z"/><path fill="#338af3" d="M0 85.337h512V256H0z"/></symbol><symbol id="icon-US" viewBox="0 0 512 512"><path fill="#f0f0f0" d="M0 85.331h512v341.337H0z"/><path d="M0 127.994h512v42.663H0zm0 85.337h512v42.663H0zm0 85.326h512v42.663H0zm0 85.337h512v42.663H0z" fill="#d80027"/><path fill="#2e52b2" d="M0 85.331h256v183.797H0z"/><path d="M99.822 160.624l-4.123 12.684H82.363l10.791 7.835-4.123 12.683 10.791-7.835 10.784 7.835-4.122-12.683 10.791-7.835h-13.337zm4.116 58.456l-4.116-12.683-4.123 12.683H82.363l10.791 7.836-4.123 12.683 10.791-7.836 10.784 7.836-4.122-12.683 10.791-7.836zm-56.361 0l-4.117-12.683-4.123 12.683H26.001l10.791 7.836-4.123 12.683 10.791-7.836 10.785 7.836-4.122-12.683 10.789-7.836zm-4.117-58.456l-4.123 12.684H26.001l10.791 7.835-4.123 12.683 10.791-7.835 10.785 7.835-4.122-12.683 10.789-7.835H47.577zm56.362-45.774l-4.123 12.685H82.363l10.791 7.836-4.123 12.683 10.791-7.836 10.784 7.836-4.122-12.683 10.791-7.836h-13.337zm-56.362 0l-4.123 12.685H26.001l10.791 7.836-4.123 12.683 10.791-7.836 10.785 7.836-4.122-12.683 10.789-7.836H47.577zm112.723 45.774l-4.122 12.684h-13.336l10.79 7.835-4.121 12.683 10.789-7.835 10.786 7.835-4.123-12.683 10.791-7.835h-13.336zm4.118 58.456l-4.118-12.683-4.122 12.683h-13.336l10.79 7.836-4.121 12.683 10.789-7.836 10.786 7.836-4.123-12.683 10.791-7.836zm56.362 0l-4.117-12.683-4.123 12.683h-13.335l10.789 7.836-4.122 12.683 10.791-7.836 10.785 7.836-4.123-12.683 10.791-7.836zm-4.117-58.456l-4.123 12.684h-13.335l10.789 7.835-4.122 12.683 10.791-7.835 10.785 7.835-4.123-12.683 10.791-7.835h-13.336zm-56.363-45.774l-4.122 12.685h-13.336l10.79 7.836-4.121 12.683 10.789-7.836 10.786 7.836-4.123-12.683 10.791-7.836h-13.336zm56.363 0l-4.123 12.685h-13.335l10.789 7.836-4.122 12.683 10.791-7.836 10.785 7.836-4.123-12.683 10.791-7.836h-13.336z" fill="#f0f0f0"/></symbol><symbol id="icon-UY" viewBox="0 0 512 512"><path fill="#f0f0f0" d="M0 85.337h512v341.326H0z"/><path d="M0 85.337h512v48.762H0zm0 97.525h512v48.762H0zm0 97.525h512v48.762H0zM0 377.9h512v48.762H0z" fill="#338af3"/><path fill="#f0f0f0" d="M0 85.337h256v195.05H0z"/><path fill="#ffda44" d="M192 182.857l-26.151 12.301 13.925 25.327-28.397-5.433-3.598 28.687L128 222.641l-19.78 21.098-3.597-28.687-28.397 5.432 13.925-25.326L64 182.857l26.151-12.301-13.925-25.326 28.396 5.432 3.599-28.687L128 143.074l19.78-21.099 3.597 28.687 28.398-5.432-13.926 25.327z"/></symbol><symbol id="icon-ZA" viewBox="0 0 512 512"><path fill="#f0f0f0" d="M0 85.337h512v341.326H0z"/><path d="M114.024 256.001L0 141.926v228.17z"/><path fill="#ffda44" d="M161.192 256L0 94.7v47.226l114.024 114.075L0 370.096v47.138z"/><path d="M509.833 289.391c.058-.44.804-.878 2.167-1.318v-65.464H222.602L85.33 85.337H0V94.7L161.192 256 0 417.234v9.429h85.33l137.272-137.272h287.231z" fill="#6da544"/><path fill="#0052b4" d="M503.181 322.783H236.433l-103.881 103.88H512v-103.88z"/><path fill="#d80027" d="M503.181 189.217H512V85.337H132.552l103.881 103.88z"/></symbol></defs><view id="view-icon-AR" viewBox="10 10 20 20"></view><view id="view-icon-AT" viewBox="50 10 20 20"></view><view id="view-icon-AU" viewBox="90 10 20 20"></view><view id="view-icon-BE" viewBox="130 10 20 20"></view><view id="view-icon-BG" viewBox="170 10 20 20"></view><view id="view-icon-BR" viewBox="210 10 20 20"></view><view id="view-icon-CA" viewBox="250 10 20 20"></view><view id="view-icon-CH" viewBox="290 10 20 20"></view><view id="view-icon-CL" viewBox="330 10 20 20"></view><view id="view-icon-CN" viewBox="370 10 20 20"></view><view id="view-icon-CO" viewBox="410 10 20 20"></view><view id="view-icon-CZ" viewBox="450 10 20 20"></view><view id="view-icon-DE" viewBox="490 10 20 20"></view><view id="view-icon-DK" viewBox="530 10 20 20"></view><view id="view-icon-EE" viewBox="570 10 20 20"></view><view id="view-icon-ES" viewBox="610 10 20 20"></view><view id="view-icon-FI" viewBox="650 10 20 20"></view><view id="view-icon-FR" viewBox="690 10 20 20"></view><view id="view-icon-GB" viewBox="730 10 20 20"></view><view id="view-icon-GR" viewBox="770 10 20 20"></view><view id="view-icon-HK" viewBox="810 10 20 20"></view><view id="view-icon-HU" viewBox="850 10 20 20"></view><view id="view-icon-ID" viewBox="890 10 20 20"></view><view id="view-icon-IE" viewBox="930 10 20 20"></view><view id="view-icon-IN" viewBox="970 10 20 20"></view><view id="view-icon-IT" viewBox="10 50 20 20"></view><view id="view-icon-JP" viewBox="50 50 20 20"></view><view id="view-icon-KR" viewBox="90 50 20 20"></view><view id="view-icon-KZ" viewBox="130 50 20 20"></view><view id="view-icon-LT" viewBox="170 50 20 20"></view><view id="view-icon-LU" viewBox="210 50 20 20"></view><view id="view-icon-LV" viewBox="250 50 20 20"></view><view id="view-icon-MX" viewBox="290 50 20 20"></view><view id="view-icon-MY" viewBox="330 50 20 20"></view><view id="view-icon-NL" viewBox="370 50 20 20"></view><view id="view-icon-NO" viewBox="410 50 20 20"></view><view id="view-icon-PA" viewBox="450 50 20 20"></view><view id="view-icon-PE" viewBox="490 50 20 20"></view><view id="view-icon-PL" viewBox="530 50 20 20"></view><view id="view-icon-PT" viewBox="570 50 20 20"></view><view id="view-icon-RO" viewBox="610 50 20 20"></view><view id="view-icon-RU" viewBox="650 50 20 20"></view><view id="view-icon-SE" viewBox="690 50 20 20"></view><view id="view-icon-SG" viewBox="730 50 20 20"></view><view id="view-icon-SK" viewBox="770 50 20 20"></view><view id="view-icon-TH" viewBox="810 50 20 20"></view><view id="view-icon-TR" viewBox="850 50 20 20"></view><view id="view-icon-TW" viewBox="890 50 20 20"></view><view id="view-icon-UA" viewBox="930 50 20 20"></view><view id="view-icon-US" viewBox="970 50 20 20"></view><view id="view-icon-UY" viewBox="10 90 20 20"></view><view id="view-icon-ZA" viewBox="50 90 20 20"></view><use id="icon-AR" xlink:href="#icon-AR" width="20" height="20" x="10" y="10"></use><use id="icon-AT" xlink:href="#icon-AT" width="20" height="20" x="50" y="10"></use><use id="icon-AU" xlink:href="#icon-AU" width="20" height="20" x="90" y="10"></use><use id="icon-BE" xlink:href="#icon-BE" width="20" height="20" x="130" y="10"></use><use id="icon-BG" xlink:href="#icon-BG" width="20" height="20" x="170" y="10"></use><use id="icon-BR" xlink:href="#icon-BR" width="20" height="20" x="210" y="10"></use><use id="icon-CA" xlink:href="#icon-CA" width="20" height="20" x="250" y="10"></use><use id="icon-CH" xlink:href="#icon-CH" width="20" height="20" x="290" y="10"></use><use id="icon-CL" xlink:href="#icon-CL" width="20" height="20" x="330" y="10"></use><use id="icon-CN" xlink:href="#icon-CN" width="20" height="20" x="370" y="10"></use><use id="icon-CO" xlink:href="#icon-CO" width="20" height="20" x="410" y="10"></use><use id="icon-CZ" xlink:href="#icon-CZ" width="20" height="20" x="450" y="10"></use><use id="icon-DE" xlink:href="#icon-DE" width="20" height="20" x="490" y="10"></use><use id="icon-DK" xlink:href="#icon-DK" width="20" height="20" x="530" y="10"></use><use id="icon-EE" xlink:href="#icon-EE" width="20" height="20" x="570" y="10"></use><use id="icon-ES" xlink:href="#icon-ES" width="20" height="20" x="610" y="10"></use><use id="icon-FI" xlink:href="#icon-FI" width="20" height="20" x="650" y="10"></use><use id="icon-FR" xlink:href="#icon-FR" width="20" height="20" x="690" y="10"></use><use id="icon-GB" xlink:href="#icon-GB" width="20" height="20" x="730" y="10"></use><use id="icon-GR" xlink:href="#icon-GR" width="20" height="20" x="770" y="10"></use><use id="icon-HK" xlink:href="#icon-HK" width="20" height="20" x="810" y="10"></use><use id="icon-HU" xlink:href="#icon-HU" width="20" height="20" x="850" y="10"></use><use id="icon-ID" xlink:href="#icon-ID" width="20" height="20" x="890" y="10"></use><use id="icon-IE" xlink:href="#icon-IE" width="20" height="20" x="930" y="10"></use><use id="icon-IN" xlink:href="#icon-IN" width="20" height="20" x="970" y="10"></use><use id="icon-IT" xlink:href="#icon-IT" width="20" height="20" x="10" y="50"></use><use id="icon-JP" xlink:href="#icon-JP" width="20" height="20" x="50" y="50"></use><use id="icon-KR" xlink:href="#icon-KR" width="20" height="20" x="90" y="50"></use><use id="icon-KZ" xlink:href="#icon-KZ" width="20" height="20" x="130" y="50"></use><use id="icon-LT" xlink:href="#icon-LT" width="20" height="20" x="170" y="50"></use><use id="icon-LU" xlink:href="#icon-LU" width="20" height="20" x="210" y="50"></use><use id="icon-LV" xlink:href="#icon-LV" width="20" height="20" x="250" y="50"></use><use id="icon-MX" xlink:href="#icon-MX" width="20" height="20" x="290" y="50"></use><use id="icon-MY" xlink:href="#icon-MY" width="20" height="20" x="330" y="50"></use><use id="icon-NL" xlink:href="#icon-NL" width="20" height="20" x="370" y="50"></use><use id="icon-NO" xlink:href="#icon-NO" width="20" height="20" x="410" y="50"></use><use id="icon-PA" xlink:href="#icon-PA" width="20" height="20" x="450" y="50"></use><use id="icon-PE" xlink:href="#icon-PE" width="20" height="20" x="490" y="50"></use><use id="icon-PL" xlink:href="#icon-PL" width="20" height="20" x="530" y="50"></use><use id="icon-PT" xlink:href="#icon-PT" width="20" height="20" x="570" y="50"></use><use id="icon-RO" xlink:href="#icon-RO" width="20" height="20" x="610" y="50"></use><use id="icon-RU" xlink:href="#icon-RU" width="20" height="20" x="650" y="50"></use><use id="icon-SE" xlink:href="#icon-SE" width="20" height="20" x="690" y="50"></use><use id="icon-SG" xlink:href="#icon-SG" width="20" height="20" x="730" y="50"></use><use id="icon-SK" xlink:href="#icon-SK" width="20" height="20" x="770" y="50"></use><use id="icon-TH" xlink:href="#icon-TH" width="20" height="20" x="810" y="50"></use><use id="icon-TR" xlink:href="#icon-TR" width="20" height="20" x="850" y="50"></use><use id="icon-TW" xlink:href="#icon-TW" width="20" height="20" x="890" y="50"></use><use id="icon-UA" xlink:href="#icon-UA" width="20" height="20" x="930" y="50"></use><use id="icon-US" xlink:href="#icon-US" width="20" height="20" x="970" y="50"></use><use id="icon-UY" xlink:href="#icon-UY" width="20" height="20" x="10" y="90"></use><use id="icon-ZA" xlink:href="#icon-ZA" width="20" height="20" x="50" y="90"></use></svg>