<?xml version="1.0" encoding="utf-8"?>
<!-- Generator: Adobe Illustrator 23.0.1, SVG Export Plug-In . SVG Version: 6.00 Build 0)  -->
<svg version="1.1" id="Layer_1" xmlns="http://www.w3.org/2000/svg" xmlns:xlink="http://www.w3.org/1999/xlink" x="0px" y="0px"
	 viewBox="0 0 375 50" style="enable-background:new 0 0 375 50;" width="425px" height="60px" xml:space="preserve">
<style type="text/css">
	.st0{fill:#E50000;}
	.st1{fill:#FFFFFF;}
	.st2{fill:#004F49;}
	.st3{opacity:0.35;fill:#FFFFFF;enable-background:new    ;}
	.st4{fill:#061133;stroke:#FFFFFF;stroke-width:2;stroke-miterlimit:10;}
	.st5{fill:#FFC200;}
	.st6{fill:#032D44;}
	.st7{opacity:0.48;}
</style>
<g>
	<g>
		<path class="st0" d="M108.9,40.1H46.2c-2,0-3.6-1.9-3.6-4.3V14.2c0-2.3,1.6-4.3,3.6-4.3h62.7c2,0,3.6,1.9,3.6,4.3v21.6
			C112.5,38.2,110.9,40.1,108.9,40.1z"/>
		<path class="st1" d="M108.9,40.5H46.2c-2.2,0-4-2.1-4-4.7V14.2c0-2.6,1.8-4.7,4-4.7h62.7c2.2,0,4,2.1,4,4.7v21.6
			C112.9,38.5,111.2,40.5,108.9,40.5z M46.2,10.4c-1.8,0-3.2,1.7-3.2,3.8v21.6c0,2.1,1.4,3.8,3.2,3.8h62.7c1.8,0,3.2-1.7,3.2-3.8
			V14.2c0-2.1-1.4-3.8-3.2-3.8H46.2L46.2,10.4z"/>
	</g>
	<g>
		<path class="st1" d="M56.6,28.4L56.6,28.4c-0.9,0-1.6-0.4-2.3-1c-0.5,0.7-1.4,1-2.7,1H49h-0.2v-0.2v-1.3v-0.2H49h2.5h0.1h0.1
			c0.3,0,0.5,0,0.6-0.1c0.1,0,0.3-0.1,0.4-0.1c0.1-0.1,0.1-0.1,0.2-0.2c0-0.1,0.1-0.1,0.1-0.2s-0.1-0.3-0.1-0.5
			c-0.1-0.1-0.1-0.2-0.2-0.4c-0.1-0.1-0.1-0.2-0.3-0.4l-1.9-2.3l-0.1-0.1l0.1-0.1l0.9-0.9l0.2-0.2l0.1,0.2l3.8,4.6
			c0.4,0.5,0.8,0.7,1.1,0.7h0.1c0.1,0,0.1,0,0.2,0.1c0.1,0,0.1,0.1,0.1,0.2s0,0.1,0,0.2s0,0.1,0,0.3l0,0v0.1c0,0.2,0,0.4,0,0.5
			s0,0.1-0.1,0.1l-0.1,0.1C56.7,28.4,56.7,28.4,56.6,28.4z"/>
		<path class="st1" d="M62.5,28.4L62.5,28.4c-1,0-1.7-0.3-2.2-0.8c-0.5,0.5-1.4,0.8-2.4,0.8h-1.3c-0.2,0-0.4-0.1-0.5-0.2
			S56,27.8,56,27.6l0,0c0-0.2,0-0.5,0.1-0.6s0.3-0.3,0.5-0.3h1.3c0.4,0,0.6,0,0.9-0.1c0.2-0.1,0.4-0.2,0.5-0.4
			c0.1-0.1,0.1-0.4,0.1-0.6v-1.8v-0.3h0.2h1.2H61v0.2v1.8c0,0.4,0.1,0.7,0.3,0.9c0.2,0.1,0.5,0.3,1,0.3h0.1c0.1,0,0.1,0,0.2,0.1
			c0.1,0,0.1,0.1,0.1,0.2s0,0.1,0,0.2s0,0.1,0,0.3l0,0v0.1c0,0,0,0,0,0.1s0,0.1,0,0.1v0.1c0,0.1,0,0.1,0,0.1v0.1c0,0,0,0.1-0.1,0.1
			L62.5,28.4C62.6,28.4,62.5,28.4,62.5,28.4z M56.6,30.5l0.6-0.6c0.2-0.2,0.4-0.2,0.5,0l0.6,0.7c0.2,0.2,0.2,0.4,0,0.6l-0.6,0.6
			c-0.2,0.2-0.4,0.2-0.6,0l-0.6-0.7C56.4,30.9,56.4,30.7,56.6,30.5z M59.1,30.5l0.6-0.6c0.2-0.2,0.4-0.2,0.6,0l0.6,0.7
			c0.2,0.2,0.2,0.4,0,0.6l-0.6,0.6c-0.2,0.2-0.4,0.2-0.6,0L59,31.1C58.8,30.9,58.8,30.7,59.1,30.5z"/>
		<path class="st1" d="M68.2,28.4L68.2,28.4c-1,0-1.7-0.3-2.2-0.8c-0.5,0.5-1.4,0.8-2.4,0.8h-1c-0.2,0-0.4-0.1-0.5-0.2
			S62,27.8,62,27.6l0,0c0-0.2,0-0.5,0.1-0.6s0.3-0.3,0.5-0.3h1c0.5,0,0.9-0.1,1.2-0.3c0.2-0.1,0.4-0.5,0.4-0.9v-1.8v-0.2h0.2h1.2
			h0.2v0.2v1.8c0,0.4,0.1,0.7,0.3,0.9c0.2,0.1,0.5,0.3,1,0.3h0.1c0.1,0,0.1,0,0.2,0.1c0.1,0,0.1,0.1,0.1,0.2s0,0.1,0,0.2
			s0,0.1,0,0.3l0,0v0.1c0,0,0,0,0,0.1v0.1v0.1V28v0.1v0.1v0.1c0,0,0,0.1-0.1,0.1L68.2,28.4C68.3,28.4,68.2,28.4,68.2,28.4z
			 M64.3,20.5l0.6-0.6c0.2-0.2,0.5-0.2,0.6,0l0.7,0.7c0.2,0.2,0.2,0.5,0,0.6l-0.6,0.6c-0.2,0.2-0.5,0.2-0.6,0L64.3,21
			C64.1,20.9,64.1,20.6,64.3,20.5z"/>
		<path class="st1" d="M68.1,28.4c-0.2,0-0.4-0.1-0.5-0.2s-0.1-0.4-0.1-0.6l0,0c0-0.2,0-0.5,0.1-0.6s0.3-0.3,0.5-0.3h2.3
			c0.5,0,0.9-0.1,1.1-0.1c0.2-0.1,0.3-0.3,0.3-0.5V26c0-0.1-0.1-0.1-0.1-0.2c-0.1-0.1-0.1-0.2-0.2-0.4c-0.1-0.1-0.2-0.3-0.3-0.4
			L69,22.3c-0.3-0.3-0.4-0.7-0.4-1.1c0-0.1,0-0.3,0.1-0.5s0.1-0.3,0.2-0.4s0.2-0.2,0.3-0.3c0.1-0.1,0.3-0.1,0.4-0.2l4.3-1.4l0.3-0.1
			v0.3v1.3V20L74,20.1l-3.6,1.2l1.9,2.3c0.8,0.9,1.2,1.8,1.2,2.5c0,0.8-0.3,1.4-0.8,1.8s-1.3,0.6-2.3,0.6L68.1,28.4L68.1,28.4
			L68.1,28.4L68.1,28.4L68.1,28.4z"/>
		<path class="st1" d="M84.4,28.4h-5c-1,0-1.9-0.3-2.4-0.9s-0.8-1.4-0.8-2.5v-1.4v-0.2h0.2h1.2h0.2v0.2V25c0,0.5,0.1,0.9,0.4,1.2
			c0.1,0.1,0.3,0.2,0.5,0.3c0.2,0.1,0.5,0.1,0.7,0.1h5c0.5,0,0.9-0.1,1.1-0.2s0.3-0.3,0.4-0.5c0-0.1-0.1-0.2-0.1-0.4
			c-0.1-0.2-0.3-0.5-0.5-0.7L83,22.2c-0.1-0.1-0.2-0.4-0.3-0.5c-0.1-0.2-0.1-0.4-0.1-0.6s0-0.5,0.1-0.6s0.2-0.4,0.3-0.5
			c0.1-0.1,0.3-0.2,0.5-0.3l4.3-1.4l0.3-0.1v0.4v1.3V20H88l-3.6,1.2l3.8,4.4c0.5,0.7,1,1,1.4,1h0.1c0.1,0,0.1,0,0.2,0.1
			c0.1,0,0.1,0.1,0.1,0.2s0,0.1,0,0.2s0,0.1,0,0.2l0,0v0.1c0,0,0,0,0,0.1s0,0.1,0,0.1v0.1c0,0.1,0,0.1,0,0.1s0,0.1-0.1,0.1L89.8,28
			h-0.1h-0.1c-0.9,0-1.7-0.4-2.3-1.2c-0.1,0.1-0.1,0.2-0.2,0.4c-0.1,0.1-0.2,0.2-0.3,0.3c-0.1,0.1-0.2,0.1-0.4,0.2
			c-0.1,0.1-0.3,0.1-0.4,0.1s-0.3,0.1-0.5,0.1S85.2,28,85,28C84.8,28.4,84.6,28.4,84.4,28.4z"/>
		<path class="st1" d="M95.6,28.4L95.6,28.4c-1,0-1.7-0.3-2.2-0.8c-0.5,0.5-1.4,0.8-2.4,0.8h-1.3c-0.2,0-0.4-0.1-0.5-0.2
			s-0.1-0.4-0.1-0.6l0,0c0-0.2,0-0.5,0.1-0.6s0.3-0.3,0.5-0.3H91c0.4,0,0.6,0,0.9-0.1c0.2-0.1,0.4-0.2,0.5-0.4
			c0.1-0.1,0.1-0.4,0.1-0.6v-1.8v-0.3h0.2H94h0.2v0.2v1.8c0,0.4,0.1,0.7,0.3,0.9c0.2,0.1,0.5,0.3,1,0.3h0.1c0.1,0,0.1,0,0.2,0.1
			c0.1,0,0.1,0.1,0.1,0.2s0,0.1,0,0.2s0,0.1,0,0.3l0,0v0.1c0,0,0,0,0,0.1s0,0.1,0,0.1v0.1c0,0.1,0,0.1,0,0.1v0.1c0,0,0,0.1-0.1,0.1
			L95.6,28.4C95.7,28.4,95.7,28.4,95.6,28.4z M89.7,30.5l0.6-0.6c0.2-0.2,0.4-0.2,0.5,0l0.6,0.7c0.2,0.2,0.2,0.4,0,0.6l-0.6,0.6
			c-0.2,0.2-0.4,0.2-0.6,0l-0.6-0.7C89.5,30.9,89.5,30.7,89.7,30.5z M92.1,30.5l0.6-0.6c0.2-0.2,0.4-0.2,0.6,0l0.6,0.7
			c0.2,0.2,0.2,0.4,0,0.6l-0.6,0.6c-0.2,0.2-0.4,0.2-0.6,0L92,31.1C91.9,30.9,91.9,30.7,92.1,30.5z"/>
		<path class="st1" d="M100.5,28.4h-0.4c-0.8,0-1.4-0.3-1.9-0.8c-0.5,0.5-1.1,0.8-1.9,0.8h-0.6c-0.2,0-0.4-0.1-0.5-0.2
			C95,28,95,27.8,95,27.6l0,0c0-0.2,0-0.5,0.1-0.6s0.3-0.3,0.5-0.3h0.6c0.2,0,0.4,0,0.5-0.1c0.1,0,0.3-0.1,0.4-0.2s0.1-0.2,0.2-0.4
			c0-0.1,0.1-0.3,0.1-0.5v-6.4v-0.3h0.2h1.1H99V19v6.4c0,0.4,0.1,0.6,0.3,0.8c0.2,0.1,0.5,0.3,0.9,0.3h0.3c0.1,0,0.1,0,0.2,0.1
			s0.1,0.1,0.1,0.2s0,0.1,0,0.2s0,0.1,0,0.3l0,0v0.1l0,0c0,0.1,0,0.1,0,0.1v0.1c0,0.1,0,0.1,0,0.1s0,0.1-0.1,0.1l-0.1,0.1
			C100.5,28.4,100.5,28.4,100.5,28.4z"/>
		<path class="st1" d="M100.4,28.4c-0.2,0-0.4-0.1-0.5-0.2s-0.1-0.4-0.1-0.6l0,0c0-0.2,0-0.5,0.1-0.6s0.3-0.3,0.5-0.3h2.3
			c0.5,0,0.9-0.1,1.1-0.1c0.2-0.1,0.3-0.3,0.3-0.5V26c0-0.1-0.1-0.1-0.1-0.2c-0.1-0.1-0.1-0.2-0.2-0.4c-0.1-0.1-0.2-0.3-0.3-0.4
			l-2.2-2.6c-0.3-0.3-0.4-0.7-0.4-1.1c0-0.1,0-0.3,0.1-0.5c0-0.1,0.1-0.3,0.2-0.4s0.2-0.2,0.3-0.3c0.1-0.1,0.3-0.1,0.4-0.2l4.3-1.4
			l0.3-0.1v0.3V20v0.1l-0.1,0.1l-3.6,1.2l1.9,2.3c0.8,0.9,1.2,1.8,1.2,2.5c0,0.8-0.3,1.4-0.8,1.8s-1.3,0.6-2.3,0.6L100.4,28.4
			L100.4,28.4L100.4,28.4L100.4,28.4L100.4,28.4z"/>
	</g>
</g>
<g>
	<path class="st2" d="M33.7,40.2H8c-3.3,0-4.4-2.7-4.4-6V14.5c0-3.3,2.7-4.6,6-4.6h22.2c3.3,0,6.2,1.4,6.2,4.7l-0.2,19.5
		C37.8,37.4,37.1,40.2,33.7,40.2z"/>
	<path class="st1" d="M33.8,40.6H7.5c-2.4,0-4.4-2.1-4.4-4.7V14.1c0-2.6,1.9-4.7,4.4-4.7h26.3c2.4,0,4.4,2.1,4.4,4.7v21.8
		C38.3,38.5,36.3,40.6,33.8,40.6z M7.5,10.4c-1.9,0-3.5,1.7-3.5,3.8V36c0,2,1.6,3.8,3.5,3.8h26.3c1.9,0,3.5-1.7,3.5-3.8V14.1
		c0-2-1.6-3.8-3.5-3.8C33.8,10.4,7.5,10.4,7.5,10.4z"/>
	<g>
		<g>
			<path class="st1" d="M14,32.4c0.2,0.3,0.3,0.6,0.5,0.9c0.1,0.2,0.1,0.5,0.5,0.5c0.1,0,0.3,0,0.5-0.1s0.3-0.2,0.4-0.5l0.2-0.6
				l0.4-0.2l0,0c0,0.2-0.1,0.4-0.1,0.6c0,0.5,0.4,0.7,0.7,0.7c0.2,0,0.4-0.1,0.4-0.3s-0.1-0.6-0.2-0.9c0.2-0.2,0.4-0.4,0.6-0.5l0,0
				c0.1,0.4,0.1,0.8,0.1,1.1s-0.1,0.5-0.2,0.8c-0.2,0.4-0.5,0.7-1,0.7c-0.3,0-0.7-0.2-0.9-0.5l0,0c-0.2,0.3-0.6,0.5-1.2,0.5h-0.2
				c0,0.4-0.1,0.6-0.2,0.9c-0.2,0.6-1.3,1.1-2.2,1.1c-1.4,0-2-0.8-2-1.8c0-0.6,0.2-1.2,0.5-1.6l0.3,0.1c-0.2,0.4-0.3,0.7-0.3,1.1
				c0,0.9,0.8,1.4,1.7,1.4c0.8,0,1.9-0.5,2-1.1c-0.1-0.7-0.3-1-0.7-1.6C13.6,32.9,13.8,32.7,14,32.4L14,32.4z"/>
			<path class="st1" d="M19,31.8l0.5,0.8c0.2,0.3,0.4,0.6,0.4,1.1v0.6c0,0.5-0.3,1.1-0.9,1.6c-0.4,0.4-0.8,0.5-1.1,0.5
				c-0.5,0-1.1-0.1-1.8-0.5l0.1-0.2c0.2,0,0.5,0.1,0.8,0.1c0.9,0,1.9-0.7,2.4-1.6c0-0.1,0.1-0.2,0.1-0.3s0-0.2-0.1-0.3
				c-0.2-0.5-0.5-0.9-0.8-1.3C18.6,32.2,18.8,32,19,31.8L19,31.8z"/>
			<path class="st1" d="M20.4,33.2c0,0.5,0.3,0.9,1.1,0.9c0.5,0,1-0.1,1.5-0.4c0.1,0,0.1-0.1,0.1-0.1c0-0.3-0.2-0.7-0.6-1.1
				c-0.4-0.4-0.9-0.7-1.4-0.9c-0.2-0.1-0.2-0.1-0.2-0.2s0.2-0.5,0.4-0.7l0,0c0.5,0.3,1.2,0.7,1.6,1.2c0.4,0.5,0.7,0.9,0.7,1.4
				c0,0.4-0.1,0.7-0.3,1c-0.6,0.3-1.3,0.5-1.9,0.5c-0.8,0-1.3-0.4-1.3-1.2c0-0.1,0-0.2,0-0.4H20.4L20.4,33.2z"/>
			<path class="st1" d="M24.6,34.9c0.1-0.4,0.1-0.8,0.1-1.2v-0.6c0-1.1-0.1-2.6-0.2-3.7c0.2-0.2,0.5-0.5,0.7-0.6l0,0
				c0.1,1.3,0.2,2.8,0.2,4.2c0,0.4,0,0.7,0,0.9c0,0.3-0.2,0.6-0.6,0.9L24.6,34.9z"/>
			<path class="st1" d="M26.3,32.7c0.4,0.8,0.8,1.3,1.5,1.3H28v0.8h-0.1c-0.3,0-0.5,0-0.7-0.2l0,0c0,0.1,0,0.1,0,0.2
				c0,0.3-0.1,0.6-0.3,0.9c-0.5,0.8-1.1,1.2-1.6,1.2s-1.1-0.2-1.7-0.5l0.1-0.2c0.2,0.1,0.5,0.1,0.8,0.1c0.9,0,2.1-0.9,2.3-1.8
				c0-0.1-0.1-0.2-0.2-0.3c-0.3-0.3-0.5-0.6-0.6-0.9C26.1,33.2,26.2,33,26.3,32.7L26.3,32.7z"/>
			<path class="st1" d="M29.5,28.8c0.3,0.2,0.5,0.4,0.8,0.6c-0.1,0.2-0.3,0.4-0.6,0.6c-0.3-0.2-0.5-0.4-0.8-0.6
				C29.1,29.2,29.3,29,29.5,28.8z M29.6,31.5c-0.5,0-0.8,0.3-0.8,0.5c0,0.5,0.9,0.6,2,0.6C30.7,32,30.2,31.5,29.6,31.5z M28.6,34
				c0.6,0,1.1,0,1.5-0.1c0.5-0.1,0.8-0.3,0.8-0.5v-0.1c-0.2,0-0.5,0-0.8,0c-0.8,0-1.4-0.2-1.7-0.6c0-0.1-0.1-0.3-0.1-0.4
				c0-0.5,0.2-0.9,0.5-1.2c0.3-0.2,0.6-0.4,0.9-0.4c0.5,0,1,0.5,1.3,1.2c0.2,0.4,0.3,0.8,0.3,1.4c0,0.4-0.1,0.7-0.3,0.9
				c-0.5,0.4-1.2,0.6-2.4,0.6h-0.5c-0.4,0-0.5-0.2-0.5-0.4c0-0.1,0.1-0.4,0.5-0.4H28.6L28.6,34L28.6,34z"/>
		</g>
		<g>
			<path class="st1" d="M20.5,24.8c0-0.1-0.1-0.4-0.4-0.5c-0.4-0.3-0.8-0.5-1.1-0.8c-0.2-0.1-0.4-0.1-0.4,0c0,0.3,0,0.5,0,0.8
				c0,0.1,0.1,0.4,0.4,0.5c0.4,0.2,0.8,0.5,1.2,0.8c0.2,0.1,0.4,0.1,0.4,0C20.5,25.4,20.5,25.1,20.5,24.8z"/>
			<path class="st1" d="M18.3,25c0-0.1-0.1-0.4-0.4-0.5c-0.4-0.2-0.8-0.4-1.3-0.6c-0.2-0.1-0.4,0-0.4,0.1c0,0.3,0,0.5-0.1,0.8
				c0,0.1,0.1,0.3,0.4,0.4c0.5,0.2,0.9,0.4,1.3,0.6c0.2,0.1,0.4,0.1,0.4,0C18.2,25.5,18.2,25.2,18.3,25z"/>
			<path class="st1" d="M20.5,26.3c0-0.1-0.2-0.4-0.4-0.5c-0.4-0.3-0.8-0.5-1.2-0.8c-0.2-0.1-0.4-0.1-0.4,0c0,0.3,0,0.5,0,0.8
				c0,0.1,0.2,0.4,0.4,0.5c0.4,0.2,0.9,0.5,1.3,0.8c0.2,0.1,0.4,0.1,0.4,0C20.5,26.9,20.5,26.6,20.5,26.3z"/>
			<path class="st1" d="M22.7,23.6c0-0.1-0.2-0.1-0.4,0c-0.4,0.2-0.8,0.5-1.1,0.8c-0.2,0.1-0.4,0.4-0.4,0.5c0,0.3,0,0.5,0,0.8
				c0,0.1,0.2,0.1,0.4,0c0.4-0.3,0.8-0.5,1.2-0.8c0.2-0.1,0.4-0.3,0.4-0.5C22.8,24.2,22.8,23.9,22.7,23.6z"/>
			<path class="st1" d="M22.8,25.1c0-0.1-0.2-0.1-0.4,0c-0.4,0.2-0.8,0.5-1.2,0.8c-0.2,0.1-0.4,0.4-0.4,0.5c0,0.3,0,0.5,0,0.8
				c0,0.1,0.2,0.1,0.4,0c0.4-0.3,0.8-0.5,1.3-0.8c0.2-0.1,0.4-0.3,0.4-0.5C22.9,25.7,22.9,25.4,22.8,25.1z"/>
			<path class="st1" d="M25.2,24c0-0.1-0.2-0.2-0.4-0.1c-0.4,0.2-0.9,0.4-1.3,0.6c-0.2,0.1-0.4,0.3-0.4,0.5c0,0.3,0,0.5,0,0.8
				c0,0.1,0.2,0.1,0.4,0c0.5-0.2,0.9-0.4,1.3-0.6c0.2-0.1,0.4-0.3,0.4-0.4C25.2,24.5,25.2,24.3,25.2,24z"/>
			<path class="st3" d="M31.4,19.2c0-0.1-0.2-0.2-0.5-0.2c-0.4,0-0.8,0.1-1.2,0.2c-0.2,0-0.3,0.2-0.3,0.3c0.1,0.3,0.1,0.5,0.2,0.8
				c0,0.1,0.2,0.2,0.5,0.2c0.4-0.1,0.8-0.1,1.2-0.2c0.2,0,0.4-0.1,0.3-0.3C31.6,19.7,31.5,19.4,31.4,19.2z M18.7,17.4
				c0-0.1-0.1-0.4-0.3-0.5c-0.3-0.2-0.7-0.4-1-0.6c-0.2-0.1-0.3,0-0.3,0.1c0,0.3,0,0.5-0.1,0.8c0,0.1,0.1,0.3,0.3,0.4
				c0.4,0.2,0.7,0.4,1,0.6c0.2,0.1,0.3,0.1,0.3,0C18.7,17.9,18.7,17.7,18.7,17.4z M11.5,20.9c0-0.1-0.1-0.3-0.3-0.3
				c-0.4-0.1-0.8-0.1-1.2-0.2c-0.2,0-0.4,0.1-0.5,0.2c-0.1,0.3-0.2,0.5-0.3,0.8c0,0.1,0.1,0.3,0.3,0.3c0.4,0,0.9,0.1,1.3,0.2
				c0.2,0,0.4,0,0.5-0.2C11.3,21.4,11.4,21.1,11.5,20.9z M11.9,19.4c0-0.1-0.1-0.3-0.3-0.3c-0.4,0-0.8-0.1-1.2-0.2
				c-0.2,0-0.4,0.1-0.5,0.2c-0.1,0.3-0.2,0.5-0.3,0.8c0,0.1,0.1,0.3,0.3,0.3c0.4,0,0.8,0.1,1.2,0.2c0.2,0,0.4,0,0.5-0.2
				C11.7,20,11.8,19.7,11.9,19.4z M12.3,18c0-0.1-0.1-0.3-0.3-0.3c-0.4,0-0.8-0.1-1.1-0.1c-0.2,0-0.4,0.1-0.5,0.2
				c-0.1,0.3-0.2,0.5-0.3,0.8c0,0.1,0.1,0.3,0.3,0.3c0.4,0,0.8,0.1,1.2,0.1c0.2,0,0.4,0,0.5-0.2C12.1,18.5,12.2,18.2,12.3,18z
				 M12.7,16.5c0-0.1-0.1-0.3-0.3-0.3c-0.4,0-0.7-0.1-1.1-0.1c-0.2,0-0.4,0.1-0.4,0.2c-0.1,0.3-0.2,0.5-0.3,0.8
				c0,0.1,0.1,0.2,0.3,0.3c0.4,0,0.8,0.1,1.1,0.1c0.2,0,0.4,0,0.4-0.2C12.6,17.1,12.6,16.8,12.7,16.5z M13.1,15.1
				c0-0.1-0.1-0.3-0.3-0.3c-0.4,0-0.7-0.1-1-0.1c-0.2,0-0.4,0.1-0.4,0.2c-0.1,0.3-0.2,0.5-0.3,0.8c0,0.1,0,0.2,0.3,0.3
				c0.4,0,0.7,0.1,1.1,0.1c0.2,0,0.4,0,0.4-0.2C13,15.6,13,15.4,13.1,15.1z M15,15.6c0-0.1-0.1-0.3-0.3-0.4c-0.3-0.1-0.7-0.2-1-0.3
				c-0.2,0-0.4,0-0.4,0.2c-0.1,0.3-0.1,0.5-0.2,0.8c0,0.1,0.1,0.3,0.3,0.3c0.4,0.1,0.7,0.2,1.1,0.3c0.2,0,0.4,0,0.4-0.1
				C14.9,16.1,15,15.8,15,15.6z M14.5,18.5c0-0.1-0.1-0.3-0.3-0.4c-0.4-0.1-0.8-0.2-1.1-0.3c-0.2,0-0.4,0-0.4,0.2
				c-0.1,0.3-0.1,0.5-0.2,0.8c0,0.1,0.1,0.3,0.3,0.3c0.4,0.1,0.8,0.2,1.2,0.3c0.2,0,0.4,0,0.4-0.1C14.3,19.1,14.4,18.8,14.5,18.5z
				 M16.5,19.3c0-0.1-0.1-0.3-0.3-0.4c-0.4-0.2-0.7-0.3-1.1-0.5c-0.2-0.1-0.4,0-0.4,0.1c0,0.3-0.1,0.5-0.1,0.8
				c0,0.1,0.1,0.3,0.3,0.4c0.4,0.1,0.8,0.3,1.2,0.5c0.2,0.1,0.4,0,0.4-0.1C16.4,19.9,16.5,19.6,16.5,19.3z M16.9,16.3
				c0-0.1-0.1-0.3-0.3-0.4c-0.3-0.1-0.7-0.3-1-0.4c-0.2,0-0.3,0-0.4,0.1c0,0.3-0.1,0.5-0.1,0.8c0,0.1,0.1,0.3,0.3,0.4
				c0.4,0.1,0.7,0.3,1,0.5c0.2,0.1,0.3,0,0.4-0.1C16.8,16.9,16.9,16.6,16.9,16.3z M25,22.5c0-0.1-0.2-0.2-0.4-0.1
				c-0.4,0.2-0.8,0.4-1.2,0.6c-0.2,0.1-0.4,0.3-0.4,0.5c0,0.3,0,0.5,0,0.8c0,0.1,0.2,0.2,0.4,0c0.4-0.2,0.8-0.4,1.3-0.6
				c0.2-0.1,0.4-0.3,0.4-0.4C25,23,25,22.8,25,22.5z M24.8,21c0-0.1-0.2-0.2-0.4-0.1c-0.4,0.2-0.8,0.4-1.1,0.6
				c-0.2,0.1-0.4,0.3-0.3,0.5c0,0.3,0,0.5,0,0.8c0,0.1,0.2,0.2,0.4,0c0.4-0.2,0.8-0.4,1.2-0.6c0.2-0.1,0.4-0.3,0.4-0.4
				C24.8,21.5,24.8,21.2,24.8,21z M24.6,19.5c0-0.1-0.2-0.2-0.4-0.1c-0.4,0.2-0.7,0.4-1.1,0.6c-0.2,0.1-0.3,0.3-0.3,0.5
				c0,0.3,0,0.5,0,0.8c0,0.1,0.2,0.2,0.4,0c0.4-0.2,0.8-0.4,1.1-0.6c0.2-0.1,0.4-0.3,0.3-0.4C24.7,20,24.6,19.7,24.6,19.5z
				 M24.4,17.9c0-0.1-0.2-0.2-0.4-0.1c-0.4,0.2-0.7,0.4-1,0.6c-0.2,0.1-0.3,0.3-0.3,0.5c0,0.3,0,0.5,0,0.8c0,0.1,0.2,0.2,0.4,0
				c0.4-0.2,0.7-0.4,1.1-0.6c0.2-0.1,0.3-0.3,0.3-0.4C24.5,18.5,24.4,18.2,24.4,17.9z M24.2,16.4c0-0.1-0.2-0.2-0.3-0.1
				c-0.3,0.2-0.7,0.4-1,0.6c-0.2,0.1-0.3,0.3-0.3,0.5c0,0.3,0,0.5,0,0.8c0,0.1,0.1,0.2,0.3,0c0.4-0.2,0.7-0.4,1-0.6
				c0.2-0.1,0.3-0.3,0.3-0.4C24.3,17,24.3,16.7,24.2,16.4z M26.1,15.6c0-0.1-0.2-0.2-0.4-0.1c-0.3,0.1-0.7,0.3-1,0.4
				c-0.2,0.1-0.3,0.3-0.3,0.4c0,0.3,0.1,0.5,0.1,0.8c0,0.1,0.2,0.2,0.4,0.1c0.4-0.2,0.7-0.3,1-0.5c0.2,0,0.3-0.2,0.3-0.4
				C26.2,16.2,26.2,15.9,26.1,15.6z M27.2,21.6c0-0.1-0.2-0.2-0.4-0.1c-0.4,0.1-0.8,0.3-1.2,0.5c-0.2,0.1-0.4,0.3-0.4,0.4
				c0,0.3,0.1,0.5,0.1,0.8c0,0.1,0.2,0.2,0.4,0.1c0.4-0.2,0.9-0.3,1.3-0.5c0.2-0.1,0.4-0.2,0.4-0.4C27.4,22.1,27.3,21.9,27.2,21.6z
				 M29.6,21c0-0.1-0.2-0.2-0.5-0.2c-0.4,0.1-0.8,0.2-1.3,0.3c-0.2,0-0.4,0.2-0.3,0.4c0,0.3,0.1,0.5,0.2,0.8c0,0.1,0.2,0.2,0.5,0.1
				c0.5-0.1,0.9-0.2,1.3-0.3c0.2,0,0.4-0.2,0.3-0.3C29.8,21.5,29.7,21.2,29.6,21z M28.1,15.1c0-0.1-0.2-0.2-0.4-0.2
				c-0.4,0.1-0.7,0.2-1,0.3c-0.2,0-0.3,0.2-0.3,0.4c0,0.3,0.1,0.5,0.2,0.8c0,0.1,0.2,0.2,0.4,0.1c0.4-0.1,0.7-0.2,1.1-0.3
				c0.2,0,0.3-0.2,0.3-0.3C28.2,15.6,28.1,15.4,28.1,15.1z M30.4,16.3c0-0.1-0.2-0.2-0.4-0.2c-0.4,0-0.7,0.1-1.1,0.1
				c-0.2,0-0.3,0.2-0.3,0.3c0.1,0.3,0.1,0.5,0.2,0.8c0,0.1,0.2,0.2,0.4,0.2c0.4,0,0.8-0.1,1.1-0.1c0.2,0,0.3-0.1,0.3-0.3
				C30.6,16.8,30.5,16.6,30.4,16.3z M30.9,17.7c0-0.1-0.2-0.2-0.5-0.2c-0.4,0-0.8,0.1-1.1,0.1c-0.2,0-0.3,0.2-0.3,0.3
				c0.1,0.3,0.1,0.5,0.2,0.8c0,0.1,0.2,0.2,0.5,0.2c0.4,0,0.8-0.1,1.2-0.1c0.2,0,0.3-0.1,0.3-0.3C31.1,18.2,31,18,30.9,17.7z"/>
			<path class="st1" d="M11.4,14.2c0,0.1-0.2,0.2-0.4,0.2c-0.4,0-0.7,0-1,0c-0.2,0-0.3,0-0.2-0.2c0.1-0.3,0.2-0.5,0.3-0.8
				c0-0.1,0.2-0.3,0.4-0.3c0.3,0,0.7-0.1,1-0.1c0.2,0,0.3,0.1,0.2,0.2C11.6,13.7,11.5,13.9,11.4,14.2z"/>
			<path class="st1" d="M13.5,13.6c0-0.1,0-0.3-0.2-0.3c-0.3,0-0.6-0.1-1-0.1c-0.2,0-0.4,0.1-0.4,0.2c-0.1,0.3-0.2,0.5-0.3,0.8
				c0,0.1,0,0.2,0.2,0.3c0.4,0,0.7,0,1,0.1c0.2,0,0.4,0,0.4-0.2C13.4,14.1,13.4,13.8,13.5,13.6z"/>
			<path class="st1" d="M15.4,14c0-0.1-0.1-0.3-0.2-0.4c-0.3-0.1-0.6-0.2-0.9-0.3c-0.2,0-0.3,0-0.4,0.2c-0.1,0.3-0.1,0.5-0.2,0.8
				c0,0.1,0.1,0.3,0.2,0.3c0.3,0.1,0.7,0.2,1,0.3c0.2,0,0.3,0,0.4-0.1C15.2,14.6,15.3,14.3,15.4,14z"/>
			<path class="st1" d="M17.1,14.9c0-0.1-0.1-0.3-0.3-0.4c-0.3-0.1-0.6-0.3-0.9-0.4c-0.2,0-0.3,0-0.4,0.1c0,0.3-0.1,0.5-0.1,0.8
				c0,0.1,0.1,0.3,0.3,0.4c0.3,0.1,0.7,0.3,1,0.4c0.2,0.1,0.3,0,0.3-0.1C17,15.4,17.1,15.1,17.1,14.9z"/>
			<path class="st1" d="M18.9,15.9c0-0.1-0.1-0.4-0.3-0.5c-0.3-0.2-0.6-0.4-0.9-0.6c-0.2-0.1-0.3,0-0.3,0.1c0,0.3,0,0.5-0.1,0.8
				c0,0.1,0.1,0.3,0.3,0.4c0.3,0.2,0.6,0.4,1,0.6c0.2,0.1,0.3,0.1,0.3,0C18.8,16.4,18.8,16.2,18.9,15.9z"/>
			<path class="st1" d="M20.6,17.3c0-0.1-0.1-0.4-0.3-0.5c-0.3-0.3-0.6-0.5-0.9-0.8c-0.1-0.1-0.3-0.1-0.3,0c0,0.3,0,0.5,0,0.8
				c0,0.1,0.1,0.4,0.3,0.5c0.3,0.2,0.6,0.5,0.9,0.8c0.2,0.1,0.3,0.1,0.3,0C20.6,17.8,20.6,17.5,20.6,17.3z"/>
			<path class="st1" d="M11.2,14.9c0-0.1,0-0.2-0.2-0.2c-0.4,0-0.7,0-1,0c-0.2,0-0.4,0.1-0.4,0.3c-0.1,0.3-0.2,0.5-0.3,0.8
				c0,0.1,0,0.2,0.2,0.2c0.4,0,0.7,0,1.1,0c0.2,0,0.4-0.1,0.4-0.2C11,15.4,11.1,15.1,11.2,14.9z"/>
			<path class="st1" d="M20.6,18.7c0-0.1-0.1-0.4-0.3-0.5c-0.3-0.3-0.6-0.5-0.9-0.8c-0.2-0.1-0.3-0.1-0.3,0c0,0.3,0,0.5,0,0.8
				c0,0.1,0.1,0.4,0.3,0.5c0.3,0.2,0.7,0.5,1,0.8c0.2,0.1,0.3,0.1,0.3,0C20.6,19.3,20.6,19,20.6,18.7z"/>
			<path class="st1" d="M10.7,16.3c0-0.1,0-0.2-0.3-0.2c-0.4,0-0.7,0-1.1,0c-0.2,0-0.4,0.1-0.5,0.3c-0.1,0.3-0.2,0.5-0.3,0.8
				c0,0.1,0,0.2,0.3,0.2c0.4,0,0.8,0,1.1,0c0.2,0,0.4-0.1,0.5-0.2C10.5,16.8,10.6,16.6,10.7,16.3z"/>
			<path class="st1" d="M14.7,17c0-0.1-0.1-0.3-0.3-0.4c-0.4-0.1-0.7-0.2-1.1-0.3c-0.2,0-0.4,0-0.4,0.2c-0.1,0.3-0.1,0.5-0.2,0.8
				c0,0.1,0.1,0.3,0.3,0.3c0.4,0.1,0.8,0.2,1.1,0.3c0.2,0,0.4,0,0.4-0.1C14.6,17.6,14.7,17.3,14.7,17z"/>
			<path class="st1" d="M16.7,17.8c0-0.1-0.1-0.3-0.3-0.4c-0.4-0.2-0.7-0.3-1-0.5c-0.2,0-0.4,0-0.4,0.1c0,0.3-0.1,0.5-0.1,0.8
				c0,0.1,0.1,0.3,0.3,0.4c0.4,0.1,0.7,0.3,1.1,0.5c0.2,0.1,0.4,0,0.4-0.1C16.7,18.4,16.7,18.1,16.7,17.8z"/>
			<path class="st1" d="M18.7,18.9c0-0.1-0.1-0.4-0.3-0.5c-0.4-0.2-0.7-0.4-1-0.6c-0.2-0.1-0.3,0-0.4,0.1c0,0.3,0,0.5-0.1,0.8
				c0,0.1,0.1,0.3,0.3,0.4c0.4,0.2,0.7,0.4,1.1,0.6c0.2,0.1,0.3,0.1,0.4,0C18.6,19.4,18.7,19.2,18.7,18.9z"/>
			<path class="st1" d="M20.6,20.3c0-0.1-0.1-0.4-0.3-0.5c-0.3-0.3-0.7-0.5-1-0.8c-0.2-0.1-0.3-0.1-0.3,0c0,0.3,0,0.5,0,0.8
				c0,0.1,0.1,0.4,0.3,0.5c0.4,0.2,0.7,0.5,1,0.8c0.2,0.1,0.3,0.1,0.3,0C20.6,20.8,20.6,20.5,20.6,20.3z"/>
			<path class="st1" d="M10.2,17.7c0-0.1-0.1-0.2-0.3-0.3c-0.4,0-0.8,0-1.1,0c-0.2,0-0.4,0.1-0.5,0.3C8.2,18,8.1,18.2,8,18.5
				c0,0.1,0,0.2,0.3,0.2c0.4,0,0.8,0,1.2,0c0.2,0,0.4-0.1,0.5-0.2C10,18.2,10.1,18,10.2,17.7z"/>
			<path class="st1" d="M18.6,20.4c0-0.1-0.1-0.4-0.3-0.5c-0.4-0.2-0.7-0.4-1.1-0.6c-0.2-0.1-0.4,0-0.4,0.1c0,0.3,0,0.5-0.1,0.8
				c0,0.1,0.1,0.3,0.3,0.4c0.4,0.2,0.8,0.4,1.1,0.6c0.2,0.1,0.4,0.1,0.4,0C18.5,21,18.6,20.7,18.6,20.4z"/>
			<path class="st1" d="M20.5,21.8c0-0.1-0.1-0.4-0.3-0.5c-0.4-0.3-0.7-0.5-1-0.8c-0.2-0.1-0.3-0.1-0.4,0c0,0.3,0,0.5,0,0.8
				c0,0.1,0.1,0.4,0.3,0.5c0.4,0.2,0.7,0.5,1.1,0.8c0.2,0.1,0.3,0.1,0.3,0C20.5,22.4,20.5,22.1,20.5,21.8z"/>
			<path class="st1" d="M9.7,19.1c0-0.1-0.1-0.2-0.3-0.3c-0.4,0-0.8,0-1.2,0c-0.2,0-0.4,0.1-0.5,0.3c-0.1,0.3-0.2,0.5-0.3,0.8
				c0,0.1,0.1,0.2,0.3,0.2c0.4,0,0.8,0,1.2,0c0.2,0,0.4-0.1,0.5-0.2C9.5,19.6,9.6,19.4,9.7,19.1z"/>
			<path class="st1" d="M14.1,20c0-0.1-0.1-0.3-0.3-0.4c-0.4-0.1-0.8-0.2-1.2-0.3c-0.2,0-0.4,0-0.5,0.2C12,19.8,12,20,11.9,20.3
				c0,0.1,0.1,0.3,0.3,0.3c0.4,0.1,0.8,0.2,1.2,0.3c0.2,0,0.4,0,0.5-0.1C14,20.5,14.1,20.3,14.1,20z"/>
			<path class="st1" d="M16.3,20.8c0-0.1-0.1-0.3-0.3-0.4c-0.4-0.2-0.8-0.3-1.2-0.5c-0.2-0.1-0.4,0-0.4,0.1c0,0.3-0.1,0.5-0.1,0.8
				c0,0.1,0.1,0.3,0.3,0.4c0.4,0.1,0.8,0.3,1.2,0.5c0.2,0.1,0.4,0,0.4-0.1C16.3,21.4,16.3,21.1,16.3,20.8z"/>
			<path class="st1" d="M18.5,22c0-0.1-0.1-0.4-0.3-0.5c-0.4-0.2-0.8-0.4-1.1-0.6c-0.2-0.1-0.4,0-0.4,0.1c0,0.2,0,0.5-0.1,0.8
				c0,0.1,0.1,0.3,0.4,0.4c0.4,0.2,0.8,0.4,1.2,0.6c0.2,0.1,0.4,0.1,0.4,0C18.4,22.5,18.4,22.2,18.5,22z"/>
			<path class="st1" d="M20.5,23.4c0-0.1-0.1-0.4-0.3-0.5c-0.4-0.3-0.7-0.5-1.1-0.8c-0.2-0.1-0.4-0.1-0.4,0c0,0.3,0,0.5,0,0.8
				c0,0.1,0.1,0.4,0.4,0.5c0.4,0.2,0.8,0.5,1.1,0.8c0.2,0.1,0.4,0.1,0.4,0C20.5,23.9,20.5,23.6,20.5,23.4z"/>
			<path class="st1" d="M9.2,20.6c0-0.1-0.1-0.3-0.3-0.3c-0.4,0-0.8,0-1.2,0c-0.2,0-0.4,0.1-0.5,0.3c-0.1,0.3-0.2,0.5-0.3,0.8
				c0,0.1,0.1,0.2,0.3,0.2c0.4,0,0.9,0,1.3,0c0.2,0,0.5-0.1,0.5-0.2C9,21.1,9.1,20.8,9.2,20.6z"/>
			<path class="st1" d="M13.8,21.5c0-0.1-0.1-0.3-0.3-0.4c-0.4-0.1-0.8-0.2-1.3-0.3c-0.2,0-0.4,0-0.5,0.2c-0.1,0.3-0.1,0.5-0.2,0.8
				c0,0.1,0.1,0.3,0.3,0.3c0.5,0.1,0.9,0.2,1.3,0.3c0.2,0,0.4,0,0.5-0.1C13.7,22,13.8,21.7,13.8,21.5z"/>
			<path class="st1" d="M16.1,22.4c0-0.1-0.1-0.3-0.4-0.4c-0.4-0.2-0.8-0.3-1.2-0.5c-0.2-0.1-0.4,0-0.4,0.1c0,0.3-0.1,0.5-0.1,0.8
				c0,0.1,0.1,0.3,0.4,0.4c0.4,0.1,0.9,0.3,1.3,0.5c0.2,0.1,0.4,0,0.4-0.1C16.1,22.9,16.1,22.6,16.1,22.4z"/>
			<path class="st1" d="M18.4,23.5c0-0.1-0.1-0.4-0.4-0.5c-0.4-0.2-0.8-0.4-1.2-0.6c-0.2-0.1-0.4,0-0.4,0.1c0,0.3,0,0.5-0.1,0.8
				c0,0.1,0.1,0.3,0.4,0.4c0.4,0.2,0.9,0.4,1.3,0.6c0.2,0.1,0.4,0.1,0.4,0C18.3,24,18.3,23.8,18.4,23.5z"/>
			<path class="st1" d="M8.7,22c0-0.1-0.1-0.3-0.3-0.3c-0.4-0.1-0.9-0.1-1.3-0.1c-0.2,0-0.5,0.1-0.5,0.2c-0.1,0.3-0.2,0.5-0.3,0.8
				c0,0.1,0.1,0.2,0.3,0.2c0.5,0,0.9,0,1.3,0c0.2,0,0.5-0.1,0.5-0.2C8.5,22.5,8.6,22.3,8.7,22z"/>
			<path class="st1" d="M11.1,22.4c0-0.1-0.1-0.3-0.3-0.3C10.3,22,9.9,22,9.4,21.9c-0.2,0-0.5,0-0.5,0.2c-0.1,0.3-0.2,0.5-0.3,0.8
				c0,0.1,0.1,0.3,0.3,0.3c0.5,0,0.9,0.1,1.4,0.2c0.2,0,0.5,0,0.5-0.2C10.9,22.9,11,22.6,11.1,22.4z"/>
			<path class="st1" d="M13.5,23c0-0.1-0.1-0.3-0.4-0.4c-0.5-0.1-0.9-0.2-1.3-0.3c-0.2,0-0.4,0-0.5,0.1c-0.1,0.3-0.1,0.5-0.2,0.8
				c0,0.1,0.1,0.3,0.4,0.3c0.5,0.1,0.9,0.2,1.4,0.4c0.2,0,0.5,0,0.5-0.1C13.4,23.5,13.4,23.3,13.5,23z"/>
			<path class="st1" d="M15.9,23.8c0-0.1-0.1-0.3-0.4-0.4c-0.4-0.2-0.9-0.3-1.3-0.5c-0.2-0.1-0.4,0-0.5,0.1c0,0.3-0.1,0.5-0.1,0.8
				c0,0.1,0.1,0.3,0.4,0.4c0.5,0.1,0.9,0.3,1.4,0.5c0.2,0.1,0.4,0,0.5-0.1C15.9,24.4,15.9,24.1,15.9,23.8z"/>
			<path class="st1" d="M22.4,16.8c0,0.1-0.1,0.4-0.3,0.5c-0.3,0.2-0.6,0.5-0.9,0.8c-0.2,0.1-0.3,0.1-0.3,0c0-0.3,0-0.5,0-0.8
				c0-0.1,0.1-0.4,0.3-0.5c0.3-0.3,0.6-0.5,0.9-0.8c0.1-0.1,0.3-0.1,0.3,0C22.3,16.3,22.3,16.6,22.4,16.8z"/>
			<path class="st1" d="M24,14.9c0-0.1-0.2-0.2-0.3-0.1c-0.3,0.2-0.6,0.4-0.9,0.6c-0.1,0.1-0.3,0.3-0.3,0.5c0,0.3,0,0.5,0,0.8
				c0,0.1,0.1,0.2,0.3,0c0.3-0.2,0.6-0.4,1-0.6c0.2-0.1,0.3-0.3,0.3-0.4C24.1,15.5,24.1,15.2,24,14.9z"/>
			<path class="st1" d="M25.8,14.1c0-0.1-0.2-0.2-0.4-0.1c-0.3,0.1-0.6,0.3-0.9,0.4c-0.2,0.1-0.3,0.3-0.3,0.4c0,0.3,0.1,0.5,0.1,0.8
				c0,0.1,0.2,0.2,0.3,0.1c0.3-0.1,0.7-0.3,1-0.4c0.2,0,0.3-0.2,0.3-0.4C25.9,14.6,25.8,14.4,25.8,14.1z"/>
			<path class="st1" d="M27.6,13.6c0-0.1-0.2-0.2-0.4-0.2c-0.3,0.1-0.6,0.1-0.9,0.3c-0.2,0-0.3,0.2-0.2,0.4c0,0.3,0.1,0.5,0.2,0.8
				c0,0.1,0.2,0.2,0.4,0.1c0.3-0.1,0.7-0.2,1-0.3c0.2,0,0.3-0.2,0.2-0.3C27.8,14.1,27.7,13.9,27.6,13.6z"/>
			<path class="st1" d="M29.5,13.4c0-0.1-0.2-0.2-0.4-0.2c-0.3,0-0.6,0-1,0.1c-0.2,0-0.3,0.1-0.2,0.3c0.1,0.3,0.1,0.5,0.2,0.8
				c0,0.1,0.2,0.2,0.4,0.2c0.4,0,0.7-0.1,1-0.1c0.2,0,0.3-0.1,0.2-0.3C29.6,13.9,29.5,13.7,29.5,13.4z"/>
			<path class="st1" d="M31.3,13.5c0-0.1-0.2-0.3-0.4-0.3c-0.3,0-0.7-0.1-1-0.1c-0.2,0-0.3,0.1-0.2,0.2c0.1,0.3,0.2,0.5,0.3,0.8
				c0,0.1,0.2,0.2,0.4,0.2c0.4,0,0.7,0,1,0c0.2,0,0.3,0,0.2-0.2C31.5,14,31.4,13.8,31.3,13.5z"/>
			<path class="st1" d="M22.4,17.6c0-0.1-0.1-0.2-0.3,0c-0.3,0.2-0.6,0.5-0.9,0.8c-0.2,0.1-0.3,0.4-0.3,0.5c0,0.3,0,0.5,0,0.8
				c0,0.1,0.1,0.1,0.3,0c0.3-0.3,0.7-0.5,1-0.8c0.2-0.1,0.3-0.3,0.3-0.5C22.4,18.1,22.4,17.8,22.4,17.6z"/>
			<path class="st1" d="M29.9,14.9c0-0.1-0.2-0.2-0.4-0.2c-0.4,0-0.7,0-1,0.1c-0.2,0-0.3,0.2-0.3,0.3c0.1,0.3,0.1,0.5,0.2,0.8
				c0,0.1,0.2,0.2,0.4,0.2c0.4,0,0.7-0.1,1.1-0.1c0.2,0,0.3-0.1,0.3-0.3C30.1,15.4,30,15.1,29.9,14.9z"/>
			<path class="st1" d="M31.9,15c0-0.1-0.2-0.3-0.4-0.3c-0.4,0-0.7,0-1,0c-0.2,0-0.3,0.1-0.2,0.2c0.1,0.3,0.2,0.5,0.3,0.8
				c0,0.1,0.2,0.2,0.4,0.2c0.4,0,0.7,0,1.1,0c0.2,0,0.3-0.1,0.2-0.2C32.1,15.5,32,15.2,31.9,15z"/>
			<path class="st1" d="M22.5,19.1c0-0.1-0.1-0.2-0.3,0c-0.3,0.2-0.7,0.5-1,0.8c-0.2,0.1-0.3,0.4-0.3,0.5c0,0.3,0,0.5,0,0.8
				c0,0.1,0.1,0.1,0.3,0c0.4-0.3,0.7-0.5,1-0.8c0.2-0.1,0.3-0.3,0.3-0.5C22.5,19.6,22.5,19.3,22.5,19.1z"/>
			<path class="st1" d="M26.4,17.1c0-0.1-0.2-0.2-0.4-0.1c-0.4,0.1-0.7,0.3-1,0.5c-0.2,0.1-0.3,0.3-0.3,0.4c0,0.3,0.1,0.5,0.1,0.8
				c0,0.1,0.2,0.2,0.4,0.1c0.4-0.2,0.7-0.3,1.1-0.5c0.2-0.1,0.3-0.2,0.3-0.4C26.5,17.7,26.4,17.4,26.4,17.1z"/>
			<path class="st1" d="M28.4,16.6c0-0.1-0.2-0.2-0.4-0.2c-0.4,0.1-0.7,0.2-1.1,0.3c-0.2,0-0.3,0.2-0.3,0.4c0,0.3,0.1,0.5,0.2,0.8
				c0,0.1,0.2,0.2,0.4,0.1c0.4-0.1,0.8-0.2,1.1-0.3c0.2,0,0.3-0.2,0.3-0.3C28.5,17.1,28.5,16.8,28.4,16.6z"/>
			<path class="st1" d="M32.5,16.4c0-0.1-0.2-0.3-0.5-0.3c-0.4,0-0.7,0-1.1,0c-0.2,0-0.3,0.1-0.3,0.2c0.1,0.3,0.2,0.5,0.3,0.8
				c0,0.1,0.2,0.2,0.5,0.2c0.4,0,0.8,0,1.1,0c0.2,0,0.3-0.1,0.3-0.2C32.7,16.9,32.6,16.6,32.5,16.4z"/>
			<path class="st1" d="M22.5,20.5c0-0.1-0.2-0.1-0.4,0c-0.4,0.2-0.7,0.5-1,0.8c-0.2,0.1-0.3,0.4-0.3,0.5c0,0.3,0,0.5,0,0.8
				c0,0.1,0.1,0.1,0.3,0c0.4-0.3,0.7-0.5,1.1-0.8c0.2-0.1,0.3-0.3,0.3-0.5C22.6,21.1,22.6,20.8,22.5,20.5z"/>
			<path class="st1" d="M26.7,18.6c0-0.1-0.2-0.2-0.4-0.1c-0.4,0.1-0.8,0.3-1.1,0.5c-0.2,0.1-0.3,0.3-0.3,0.4c0,0.3,0.1,0.5,0.1,0.8
				c0,0.1,0.2,0.2,0.4,0.1c0.4-0.2,0.8-0.3,1.2-0.5c0.2-0.1,0.4-0.2,0.3-0.4C26.8,19.1,26.7,18.9,26.7,18.6z"/>
			<path class="st1" d="M28.8,18c0-0.1-0.2-0.2-0.4-0.2c-0.4,0.1-0.8,0.2-1.1,0.3c-0.2,0-0.3,0.2-0.3,0.4c0,0.3,0.1,0.5,0.2,0.8
				c0,0.1,0.2,0.2,0.4,0.1c0.4-0.1,0.8-0.2,1.2-0.3c0.2,0,0.3-0.2,0.3-0.3C29,18.6,28.9,18.3,28.8,18z"/>
			<path class="st1" d="M33,17.7c0-0.1-0.3-0.2-0.5-0.3c-0.4,0-0.8,0-1.1,0c-0.2,0-0.3,0.1-0.3,0.3c0.1,0.3,0.2,0.5,0.3,0.8
				c0,0.1,0.2,0.2,0.5,0.2c0.4,0,0.8,0,1.2,0c0.2,0,0.3-0.1,0.3-0.2C33.2,18.3,33.2,18,33,17.7z"/>
			<path class="st1" d="M22.6,22.1c0-0.1-0.2-0.1-0.4,0c-0.4,0.2-0.7,0.5-1.1,0.8c-0.2,0.1-0.3,0.4-0.3,0.5c0,0.3,0,0.5,0,0.8
				c0,0.1,0.1,0.1,0.4,0c0.4-0.3,0.8-0.5,1.1-0.8c0.2-0.1,0.4-0.3,0.4-0.5C22.7,22.7,22.7,22.4,22.6,22.1z"/>
			<path class="st1" d="M27,20.1c0-0.1-0.2-0.2-0.4-0.1c-0.4,0.1-0.8,0.3-1.2,0.5c-0.2,0.1-0.4,0.3-0.3,0.4c0,0.3,0.1,0.5,0.1,0.8
				c0,0.1,0.2,0.2,0.4,0.1c0.4-0.2,0.8-0.3,1.2-0.5c0.2-0.1,0.4-0.2,0.3-0.4C27.1,20.6,27,20.4,27,20.1z"/>
			<path class="st1" d="M29.2,19.5c0-0.1-0.2-0.2-0.5-0.2c-0.4,0.1-0.8,0.2-1.2,0.3c-0.2,0-0.4,0.2-0.3,0.4c0,0.3,0.1,0.5,0.2,0.8
				c0,0.1,0.2,0.2,0.5,0.1c0.4-0.1,0.8-0.2,1.2-0.3c0.2,0,0.4-0.2,0.3-0.3C29.4,20,29.3,19.7,29.2,19.5z"/>
			<path class="st1" d="M33.6,19.1c0-0.1-0.3-0.2-0.5-0.3c-0.4,0-0.8,0-1.2,0c-0.2,0-0.3,0.1-0.3,0.3c0.1,0.3,0.2,0.5,0.3,0.8
				c0,0.1,0.3,0.2,0.5,0.2c0.4,0,0.8,0,1.2,0c0.2,0,0.3-0.1,0.3-0.2C33.8,19.6,33.7,19.4,33.6,19.1z"/>
			<path class="st1" d="M31.9,20.6c0-0.1-0.3-0.2-0.5-0.2c-0.4,0-0.8,0.1-1.2,0.2c-0.2,0-0.4,0.2-0.3,0.3c0.1,0.3,0.1,0.5,0.2,0.8
				c0,0.1,0.2,0.2,0.5,0.2c0.5-0.1,0.9-0.1,1.3-0.2c0.2,0,0.4-0.1,0.3-0.3C32.1,21.1,32,20.9,31.9,20.6z"/>
			<path class="st1" d="M34.2,20.5c0-0.1-0.3-0.2-0.5-0.3c-0.4,0-0.8,0-1.2,0c-0.2,0-0.4,0.1-0.3,0.3c0.1,0.3,0.2,0.5,0.3,0.8
				c0,0.1,0.3,0.2,0.5,0.2c0.4,0,0.9,0,1.3,0c0.2,0,0.4-0.1,0.3-0.2C34.4,21,34.3,20.8,34.2,20.5z"/>
			<path class="st1" d="M27.6,23.1c0-0.1-0.2-0.2-0.5-0.1c-0.5,0.1-0.9,0.3-1.3,0.5c-0.2,0.1-0.4,0.3-0.4,0.4c0,0.3,0.1,0.5,0.1,0.8
				c0,0.1,0.2,0.2,0.5,0.1c0.5-0.2,0.9-0.3,1.4-0.5c0.2-0.1,0.4-0.2,0.4-0.4C27.6,23.6,27.6,23.4,27.6,23.1z"/>
			<path class="st1" d="M30,22.4c0-0.1-0.2-0.2-0.5-0.1c-0.5,0.1-0.9,0.2-1.3,0.3c-0.2,0-0.4,0.2-0.4,0.4c0,0.3,0.1,0.5,0.2,0.8
				c0,0.1,0.2,0.2,0.5,0.1c0.5-0.1,0.9-0.2,1.4-0.4c0.2,0,0.4-0.2,0.4-0.3C30.1,23,30.1,22.7,30,22.4z"/>
			<path class="st1" d="M32.4,22.1c0-0.1-0.3-0.2-0.5-0.2c-0.5,0-0.9,0.1-1.3,0.2c-0.2,0-0.4,0.2-0.3,0.3c0.1,0.3,0.1,0.5,0.2,0.8
				c0,0.1,0.3,0.2,0.5,0.2c0.5-0.1,0.9-0.1,1.4-0.2c0.2,0,0.4-0.1,0.3-0.3C32.6,22.6,32.5,22.3,32.4,22.1z"/>
			<path class="st1" d="M34.8,22c0-0.1-0.3-0.2-0.5-0.2c-0.4,0-0.9,0-1.3,0c-0.2,0-0.4,0.1-0.3,0.3c0.1,0.3,0.2,0.5,0.3,0.8
				c0,0.1,0.3,0.2,0.5,0.2c0.5,0,0.9,0,1.3,0c0.2,0,0.4-0.1,0.3-0.2C35,22.5,34.9,22.3,34.8,22z"/>
		</g>
	</g>
</g>
<path class="st4" d="M368.7,40H223.3c-1.7,0-3.1-1.4-3.1-3.1V13.2c0-1.7,1.4-3.1,3.1-3.1h145.4c1.7,0,3.1,1.4,3.1,3.1v23.7
	C371.9,38.6,370.5,40,368.7,40z"/>
<g>
	<g>
		<g>
			<g>
				<path class="st5" d="M298.2,34.4H233c-1.1,0-2.2-1-2.2-2.2V18.1c0-1.1,1-2.2,2.2-2.2h65.2c1.1,0,2.2,1,2.2,2.2v14.2
					C300.5,33.4,299.5,34.4,298.2,34.4z"/>
				<path class="st1" d="M298.2,34.9H233c-1.5,0-2.8-1.2-2.8-2.8V18c0-1.5,1.2-2.8,2.8-2.8h65.2c1.5,0,2.8,1.2,2.8,2.8v14.2
					C301,33.7,299.8,34.9,298.2,34.9z M233.1,16.3c-0.9,0-1.7,0.8-1.7,1.7v14.2c0,0.9,0.8,1.7,1.7,1.7h65.2c0.9,0,1.7-0.8,1.7-1.7
					V18.1c0-0.9-0.8-1.7-1.7-1.7C298.3,16.3,233.1,16.3,233.1,16.3z"/>
			</g>
		</g>
	</g>
	<g>
		<path class="st6" d="M243.5,28.8c-0.1,0.1-0.4,0.1-0.5,0.2c-0.2,0.1-0.5,0.1-0.9,0.1c-0.2,0-0.6,0.1-0.9,0.1h-4.3
			c-1,0-1.7-0.2-2.2-0.8c-0.5-0.5-0.8-1.3-0.8-2.3v-1.3v-0.2h0.2h1.1h0.2v0.2v1.3c0,0.5,0.1,0.9,0.4,1.1c0.2,0.2,0.6,0.4,1.1,0.4
			h4.6c-0.2-0.4-0.4-0.9-0.4-1.4c0-0.4,0.1-0.7,0.1-1c0.1-0.2,0.2-0.5,0.5-0.9c0.5-0.4,1.1-0.7,1.8-0.7s1.3,0.2,1.8,0.7
			c0.2,0.2,0.4,0.5,0.5,0.9c0.1,0.2,0.1,0.7,0.1,1c0,0.5-0.1,1-0.4,1.4h1c0.1,0,0.1,0,0.1,0c0.1,0,0.1,0.1,0.1,0.1
			c0,0.1,0.1,0.1,0.1,0.1v0.1c0,0.1,0,0.1,0,0.1v0.1c0,0,0,0,0,0.1v0.1c0,0,0,0,0,0.1s0,0.1,0,0.1v0.1c0,0.1,0,0.1,0,0.1
			s0,0.1-0.1,0.1c0,0.1-0.1,0.1-0.1,0.1c-0.1,0-0.1,0-0.1,0h-0.9C244.9,29.2,244.2,29,243.5,28.8z M242.5,21.4l0.5-0.5
			c0.1-0.1,0.4-0.2,0.5,0l0.7,0.6c0.1,0.1,0.1,0.4,0,0.5l-0.5,0.5c-0.1,0.1-0.4,0.1-0.5,0l-0.6-0.7
			C242.2,21.8,242.2,21.6,242.5,21.4z M242.5,26.2c0,0.2,0.1,0.4,0.2,0.7c0.1,0.1,0.4,0.2,0.7,0.2c0.4,0,0.5-0.1,0.7-0.2
			c0.1-0.1,0.2-0.4,0.2-0.7c0-0.3-0.1-0.4-0.2-0.7c-0.1-0.1-0.1-0.1-0.2-0.2c-0.1-0.1-0.2-0.1-0.4-0.1c-0.1,0-0.2,0-0.4,0.1
			c-0.1,0.1-0.2,0.1-0.2,0.2c-0.1,0.1-0.1,0.1-0.2,0.2c0,0.1,0,0.1-0.1,0.1C242.5,26.1,242.5,26.1,242.5,26.2z"/>
		<path class="st6" d="M252.2,29.2L252.2,29.2c-0.9,0-1.6-0.2-2.1-0.7c-0.5,0.5-1.3,0.7-2.3,0.7h-1.1c-0.1,0-0.3-0.1-0.4-0.2
			c-0.1-0.1-0.1-0.3-0.1-0.5v-0.1c0-0.2,0-0.4,0.1-0.5c0.1-0.2,0.2-0.2,0.4-0.2h1.1c0.3,0,0.6,0,0.9-0.1c0.2-0.1,0.4-0.1,0.4-0.3
			c0.1-0.1,0.1-0.3,0.1-0.5V25v-0.1h0.2h1.1h0.2v0.2v1.7c0,0.4,0.1,0.6,0.2,0.8c0.1,0.1,0.5,0.2,0.9,0.2h0.1c0.1,0,0.1,0,0.2,0.1
			c0.1,0.1,0.1,0.1,0.1,0.1c0.1,0.1,0,0.1,0,0.2s0,0.1,0,0.2c0,0,0,0,0,0.1v0.1c0,0,0,0,0,0.1s0,0.1,0,0.1v0.1V29c0,0,0,0.1-0.1,0.1
			C252.4,29.2,252.3,29.2,252.2,29.2L252.2,29.2C252.3,29.2,252.2,29.2,252.2,29.2z M246.7,31.1l0.5-0.5c0.1-0.1,0.4-0.1,0.5,0
			l0.6,0.6c0.1,0.1,0.1,0.4,0,0.5l-0.5,0.5c-0.1,0.1-0.4,0.1-0.5,0l-0.6-0.6C246.4,31.4,246.4,31.4,246.7,31.1z M248.9,31.1l0.5-0.5
			c0.1-0.1,0.4-0.1,0.5,0l0.6,0.6c0.1,0.1,0.1,0.4,0,0.5l-0.5,0.5c-0.1,0.1-0.4,0.1-0.5,0l-0.7-0.6
			C248.7,31.4,248.8,31.4,248.9,31.1z"/>
		<path class="st6" d="M258.9,29.2H258c-0.4,0-0.9-0.1-1.1-0.1c-0.3,0-0.7-0.1-1.1-0.4c-0.7,0.3-1.5,0.5-2.3,0.5h-1.1
			c-0.1,0-0.3-0.1-0.4-0.2c-0.1-0.1-0.1-0.3-0.1-0.5v-0.1c0-0.2,0.1-0.4,0.1-0.5c0.1-0.1,0.2-0.2,0.4-0.2h1.5
			c-0.2-0.4-0.4-0.9-0.4-1.4c0-0.7,0.2-1.3,0.7-1.8c0.5-0.4,1.1-0.7,1.8-0.7c0.7,0,1.3,0.2,1.8,0.7c0.1,0.1,0.2,0.2,0.2,0.4
			c0.1,0.1,0.1,0.2,0.2,0.4c0.1,0.1,0.1,0.2,0.1,0.4c0,0.2,0.1,0.3,0.1,0.5s0,0.5-0.1,0.7s-0.1,0.4-0.2,0.7h1c0.1,0,0.1,0,0.1,0
			l0.1,0.1c0,0.1,0.1,0.1,0.1,0.1v0.1c0,0.1,0,0.1,0,0.1v0.1c0,0,0,0,0,0.1v0.1c0,0,0,0,0,0.1s0,0.1,0,0.1v0.1c0,0.1,0,0.1,0,0.1
			v0.1c0,0.1,0,0.1-0.1,0.1l-0.1,0.1l-0.1,0.1C259,29.2,258.9,29.2,258.9,29.2z M254.7,21.4l0.5-0.5c0.1-0.1,0.4-0.2,0.5,0l0.7,0.6
			c0.1,0.1,0.1,0.4,0,0.5l-0.5,0.5c-0.1,0.1-0.4,0.1-0.5,0l-0.6-0.7C254.6,21.8,254.6,21.6,254.7,21.4z M254.7,26.2
			c0,0.2,0.1,0.4,0.2,0.7c0.2,0.2,0.4,0.2,0.7,0.2c0.3,0,0.5-0.1,0.7-0.2c0.1-0.1,0.2-0.4,0.2-0.7c0-0.3-0.1-0.4-0.2-0.7
			c-0.1-0.1-0.1-0.1-0.2-0.2s-0.2-0.1-0.4-0.1c-0.1,0-0.2,0-0.4,0.1c-0.1,0.1-0.2,0.1-0.2,0.2l-0.1,0.1l-0.1,0.1c0,0,0,0.1-0.1,0.1
			v0.1V26C254.7,26.1,254.7,26.1,254.7,26.2z"/>
		<path class="st6" d="M264.6,28.1l-0.5,0.2c-1,0.5-2,0.8-3.2,0.8h-2c-0.1,0-0.3-0.1-0.4-0.2s-0.1-0.3-0.1-0.5v-0.1
			c0-0.2,0-0.4,0.1-0.5c0.1-0.2,0.2-0.2,0.4-0.2h1.9c0.4,0,0.9-0.1,1.3-0.1c0.4-0.1,0.8-0.2,1.1-0.4l1.5-0.7l-0.9-0.5
			c-0.5-0.2-1-0.4-1.5-0.4c-0.4,0-0.9,0.1-1.4,0.5l-0.4,0.4l-0.1,0.1l-0.1-0.1l-0.7-0.9l-0.1-0.1l0.1-0.1L260,25
			c0.7-0.5,1.5-0.9,2.2-1s1.5,0.1,2.3,0.5l1.1,0.7c0.1,0.1,0.2,0.1,0.4,0.2c0.1,0.1,0.2,0.1,0.4,0.1c0.1,0,0.2,0.1,0.3,0.1h0.1v0.1
			v1.1v0.1l-0.1,0.1l-0.7,0.4c0.2,0.1,0.5,0.2,0.9,0.2h0.8c0.1,0,0.1,0,0.2,0.1s0.1,0.1,0.1,0.1c0,0.1,0,0.1,0,0.2s0,0.1,0,0.2
			c0,0,0,0,0,0.1v0.1c0,0.1,0,0.4-0.1,0.4c-0.1,0.1-0.1,0.2-0.3,0.2H267c-0.4,0-0.9-0.1-1.3-0.2C265.1,28.8,264.7,28.4,264.6,28.1z
			 M261.6,21.3l0.5-0.5c0.1-0.1,0.4-0.2,0.5,0l0.7,0.6c0.1,0.1,0.1,0.4,0,0.5l-0.5,0.5c-0.1,0.1-0.4,0.1-0.5,0l-0.6-0.7
			C261.3,21.6,261.3,21.4,261.6,21.3z"/>
		<path class="st6" d="M267.5,29.2c-0.1,0-0.3-0.1-0.4-0.2s-0.1-0.3-0.1-0.5v-0.1c0-0.2,0.1-0.4,0.1-0.5c0.1-0.1,0.2-0.2,0.4-0.2
			h1.5c0.4,0,0.7-0.1,0.9-0.2c0.1-0.1,0.2-0.4,0.2-0.8v-1.9v-0.2h0.2h1.1h0.2v0.2v1.9c0,0.9-0.2,1.5-0.7,1.9
			c-0.4,0.4-1.1,0.7-1.9,0.7L267.5,29.2L267.5,29.2L267.5,29.2z M267.7,22l0.5-0.5c0.1-0.1,0.4-0.1,0.5,0l0.6,0.6
			c0.1,0.1,0.1,0.4,0,0.5l-0.5,0.5c-0.1,0.1-0.4,0.1-0.5,0l-0.6-0.6C267.6,22.3,267.6,22.2,267.7,22z M270,22l0.5-0.5
			c0.1-0.1,0.4-0.1,0.5,0l0.6,0.6c0.1,0.1,0.1,0.4,0,0.5l-0.5,0.5c-0.1,0.1-0.4,0.1-0.5,0l-0.7-0.6C269.9,22.3,269.9,22.2,270,22z"
			/>
		<path class="st6" d="M274.6,21.4c0-0.4,0.1-0.7,0.4-0.9c0.2-0.2,0.6-0.4,1-0.4s0.7,0.1,1,0.4c0.1,0.1,0.1,0.1,0.1,0.1
			c0.1,0.1,0.1,0.1,0.1,0.2c0.1,0.1,0.1,0.1,0.1,0.2c0.1,0.1,0.1,0.1,0.1,0.2s0,0.2-0.1,0.3c0,0.1-0.1,0.1-0.1,0.1
			c0,0.1-0.1,0.1-0.1,0.1c-0.1,0.1-0.1,0.1-0.1,0.1c-0.1,0.1-0.1,0.1-0.2,0.2c-0.2,0.2-0.6,0.4-1,0.4s-0.7-0.1-1-0.4
			c-0.1-0.1-0.2-0.2-0.3-0.4C274.6,21.8,274.6,21.6,274.6,21.4z M280.2,19.7l1.1,0.6l0.2,0.1l-5.2,9.2l-0.2-0.1l-1.1-0.6l-0.2-0.1
			l5.2-9.1C279.9,19.7,280.2,19.7,280.2,19.7z M279.1,27.3L279.1,27.3L279.1,27.3L279.1,27.3v-0.2V27l0,0c0-0.1,0-0.1,0.1-0.1
			c0-0.1,0-0.1,0-0.1v-0.1c0-0.1,0.1-0.1,0.1-0.1l0.1-0.1c0-0.1,0-0.1,0.1-0.1c0.1-0.1,0.1-0.1,0.1-0.1l0.1-0.1l0.1-0.1l0.1-0.1
			l0.1-0.1c0.1-0.1,0.1-0.1,0.1-0.1c0.2-0.2,0.6-0.4,1-0.4c0.1,0,0.2,0.1,0.3,0.1c0.1,0,0.1,0.1,0.1,0.1c0.1,0,0.1,0.1,0.1,0.1
			s0.1,0,0.1,0.1c0.1,0,0.1,0.1,0.1,0.1c0.1,0.1,0.1,0.1,0.2,0.2c0.2,0.2,0.4,0.6,0.4,0.9s-0.1,0.7-0.4,0.9
			c-0.1,0.1-0.2,0.2-0.4,0.2c-0.1,0.1-0.3,0.1-0.5,0.1c-0.4,0-0.7-0.1-1-0.4C279.3,28,279.1,27.6,279.1,27.3z"/>
	</g>
	<g>
		<path class="st6" d="M289,24.9c-0.4,0-0.6,0-1-0.1c-0.3-0.1-0.6-0.1-0.9-0.3c0.1,0.5,0.1,1,0.1,1.4s0.1,0.9,0.1,1.3s0,0.9,0,1.3
			s0,0.8,0,1.2h-2.1c0-0.9,0-1.9-0.1-2.7c0-0.9-0.1-1.8-0.2-2.6c-0.1-0.8-0.3-1.6-0.5-2.4c-0.2-0.7-0.5-1.4-0.9-1.9l1.8-1.1
			c0.1,0.3,0.3,0.4,0.4,0.7c0.1,0.2,0.2,0.4,0.4,0.6c0.1-0.3,0.4-0.4,0.6-0.6s0.4-0.4,0.7-0.4c0.3-0.1,0.5-0.2,0.8-0.3
			c0.3-0.1,0.6-0.1,0.9-0.1c0.2,0,0.4,0,0.6,0.1c0.2,0,0.4,0.1,0.6,0.1c0.2,0.1,0.4,0.1,0.6,0.3c0.2,0.1,0.4,0.3,0.6,0.4l-1.1,1.7
			c0,0-0.1,0-0.1-0.1c-0.1-0.1-0.2-0.1-0.4-0.2c-0.1-0.1-0.3-0.1-0.5-0.2s-0.4-0.1-0.6-0.1s-0.4,0-0.6,0.1s-0.4,0.1-0.5,0.3
			c-0.1,0.1-0.3,0.2-0.4,0.4c-0.1,0.1-0.1,0.3-0.1,0.4l0,0c0,0.1,0.1,0.3,0.2,0.4s0.3,0.1,0.5,0.2s0.4,0.1,0.6,0.1s0.4,0,0.5,0
			s0.4,0,0.5,0c0.2,0,0.4-0.1,0.6-0.1c0.2-0.1,0.4-0.1,0.6-0.2s0.4-0.1,0.5-0.3l0.9,1.6c-0.5,0.4-1.1,0.7-1.6,0.8
			C289.9,24.9,289.4,24.9,289,24.9z"/>
		<path class="st6" d="M292.2,25.6c0-0.4,0.1-0.7,0.2-1s0.3-0.6,0.5-0.8c0.2-0.2,0.5-0.4,0.8-0.5s0.6-0.2,1-0.2s0.7,0.1,1,0.2
			s0.6,0.3,0.8,0.5c0.2,0.2,0.4,0.5,0.5,0.8s0.2,0.6,0.2,1s-0.1,0.7-0.2,1s-0.3,0.6-0.5,0.8c-0.2,0.2-0.5,0.4-0.8,0.5
			s-0.6,0.2-1,0.2s-0.7-0.1-1-0.2s-0.6-0.3-0.8-0.5c-0.2-0.2-0.4-0.5-0.5-0.8C292.3,26.3,292.2,25.9,292.2,25.6z M293.8,25.6
			c0,0.1,0,0.3,0.1,0.4s0.1,0.2,0.2,0.4c0.1,0.1,0.2,0.1,0.4,0.2c0.1,0.1,0.3,0.1,0.4,0.1s0.3,0,0.4-0.1s0.2-0.1,0.4-0.2
			c0.1-0.1,0.1-0.2,0.2-0.4c0.1-0.1,0.1-0.3,0.1-0.4s0-0.3-0.1-0.4s-0.1-0.2-0.2-0.4c-0.1-0.1-0.2-0.1-0.4-0.2
			c-0.1-0.1-0.3-0.1-0.4-0.1s-0.3,0-0.4,0.1s-0.2,0.1-0.4,0.2c-0.1,0.1-0.1,0.2-0.2,0.4S293.8,25.4,293.8,25.6z"/>
	</g>
</g>
<g>
	<g>
		<g class="st7">
			<g>
				<path d="M122.6,19c-0.4,0-0.8,0-1.2,0c-0.4,0-0.9-0.1-1.3-0.2s-0.9-0.2-1.3-0.4c-0.4-0.1-0.8-0.4-1.1-0.6
					c-0.3-0.3-0.6-0.6-0.8-0.9c-0.2-0.4-0.3-0.8-0.3-1.3c0-0.3,0-0.5,0.1-0.7s0.1-0.5,0.2-0.7s0.2-0.4,0.3-0.7
					c0.1-0.2,0.2-0.4,0.4-0.6L119,14c-0.1,0.1-0.1,0.2-0.2,0.3s-0.2,0.3-0.2,0.4c-0.1,0.1-0.1,0.3-0.2,0.5c0,0.1-0.1,0.3-0.1,0.4
					c0,0.1,0.1,0.3,0.2,0.4s0.3,0.2,0.5,0.3s0.4,0.2,0.7,0.2c0.3,0.1,0.6,0.1,0.9,0.2c0.3,0,0.6,0.1,1,0.1c0.3,0,0.7,0,1.1,0
					c0.2,0,0.3,0,0.5,0s0.4,0,0.5,0c0.2,0,0.3,0,0.4,0s0.2,0,0.3,0c-0.1-0.2-0.3-0.4-0.4-0.6c-0.1-0.3-0.2-0.5-0.2-0.8
					s0-0.5,0.1-0.7s0.1-0.5,0.3-0.7c0.1-0.2,0.3-0.5,0.4-0.7c0.2-0.2,0.4-0.4,0.6-0.5s0.4-0.3,0.7-0.3c0.2-0.1,0.5-0.1,0.7-0.1
					c0.4,0,0.7,0.1,1,0.3s0.6,0.4,0.8,0.7s0.4,0.6,0.5,0.9s0.2,0.7,0.2,1.1c0,0.3,0,0.6-0.1,0.9c-0.1,0.3-0.2,0.5-0.4,0.8
					c0.2,0,0.4,0,0.6,0.1c0.2,0,0.4,0,0.5,0h0.2v2h-0.2c-0.3,0-0.5,0-0.8,0s-0.6,0-0.8-0.1c-0.3,0-0.5-0.1-0.8-0.1
					c-0.3-0.1-0.5-0.1-0.8-0.3c-0.1,0.1-0.2,0.1-0.4,0.2c-0.2,0-0.4,0.1-0.6,0.1s-0.5,0.1-0.7,0.1c-0.3,0-0.5,0-0.8,0.1
					c-0.3,0-0.5,0-0.7,0C123,19,122.7,19,122.6,19z M126.7,11.4l-1.4-1.4l1.4-1.4l1.4,1.4L126.7,11.4z M127.3,15.4
					c0-0.1,0-0.3-0.1-0.4s-0.1-0.2-0.2-0.3s-0.2-0.2-0.3-0.2s-0.2-0.1-0.3-0.1c-0.1,0-0.2,0.1-0.3,0.1c-0.1,0.1-0.2,0.1-0.3,0.2
					s-0.2,0.2-0.3,0.4c-0.1,0.1-0.1,0.3-0.1,0.5c0,0.1,0,0.1,0.1,0.3c0.1,0.2,0.1,0.2,0.3,0.3c0.1,0.1,0.2,0.2,0.3,0.3
					c0.1,0.1,0.3,0.2,0.4,0.2c0.1-0.1,0.2-0.1,0.3-0.2c0.1-0.1,0.2-0.2,0.3-0.3s0.1-0.2,0.2-0.3C127.3,15.6,127.3,15.5,127.3,15.4z"
					/>
				<path d="M133.6,17v2h-4v-2H133.6z"/>
				<path d="M139,17v2h-0.1c-0.2,0-0.4,0-0.6,0c-0.2,0-0.4-0.1-0.6-0.1s-0.3-0.1-0.5-0.2c-0.1-0.1-0.3-0.2-0.4-0.3
					c-0.2,0.1-0.4,0.3-0.7,0.4s-0.5,0.1-0.8,0.2c-0.3,0-0.6,0.1-0.9,0.1c-0.3,0-0.6,0-0.9,0h-0.2v-2h0.2c0.3,0,0.6,0,0.8,0
					s0.4,0,0.6-0.1c0.2,0,0.3-0.1,0.4-0.2s0.2-0.1,0.3-0.3c0.1-0.1,0.1-0.3,0.2-0.4c0-0.2,0-0.3,0-0.5s0-0.3-0.1-0.5
					c0-0.2-0.1-0.3-0.1-0.5l1.8-0.5c0,0.2,0.1,0.4,0.1,0.5s0.1,0.3,0.1,0.4s0,0.3,0.1,0.4c0,0.1,0,0.3,0.1,0.5c0,0.1,0,0.2,0.1,0.4
					c0,0.1,0.1,0.3,0.1,0.4c0.1,0.1,0.1,0.2,0.3,0.3c0.1,0.1,0.3,0.1,0.4,0.1C138.7,17,139,17,139,17z M135.8,20.8l-1.2,1.2
					l-1.2-1.2l1.2-1.2L135.8,20.8l1.2-1.2l1.2,1.2L137,22L135.8,20.8z"/>
				<path d="M138.7,17h0.4c0.1,0,0.2,0,0.3,0s0.2,0,0.3,0s0.1,0,0.2,0c-0.1-0.1-0.1-0.2-0.2-0.3c-0.1-0.1-0.1-0.2-0.2-0.3
					s-0.1-0.2-0.1-0.4c0-0.1-0.1-0.3-0.1-0.4c0-0.3,0-0.5,0.1-0.7c0.1-0.3,0.1-0.5,0.3-0.7c0.1-0.2,0.3-0.5,0.4-0.7
					c0.2-0.2,0.4-0.4,0.6-0.5c0.2-0.1,0.4-0.3,0.7-0.3c0.2-0.1,0.5-0.1,0.7-0.1c0.4,0,0.7,0.1,1,0.3s0.6,0.4,0.8,0.7
					s0.4,0.6,0.5,0.9c0.1,0.3,0.2,0.7,0.2,1.1c0,0.3,0,0.6-0.1,0.9s-0.2,0.5-0.4,0.8c0.1,0,0.2,0,0.4,0.1c0.1,0,0.4,0,0.6,0h0.1v2
					H145c-0.3,0-0.5,0-0.8,0c-0.2,0-0.5,0-0.7-0.1c-0.2,0-0.5-0.1-0.7-0.1c-0.2-0.1-0.5-0.1-0.7-0.3c-0.1,0.1-0.3,0.2-0.6,0.2
					s-0.5,0.1-0.8,0.1s-0.6,0.1-0.9,0.1c-0.3,0-0.6,0-0.9,0h-0.2L138.7,17L138.7,17z M141.9,11.5l-1.4-1.4l1.4-1.4l1.4,1.4
					L141.9,11.5z M143,15.4c0-0.1,0-0.3-0.1-0.4c-0.1-0.1-0.1-0.2-0.2-0.3c-0.1-0.1-0.2-0.2-0.3-0.2s-0.2-0.1-0.3-0.1
					s-0.2,0.1-0.3,0.1c-0.1,0.1-0.2,0.1-0.3,0.2c-0.1,0.1-0.2,0.2-0.3,0.4c-0.1,0.1-0.1,0.3-0.1,0.5c0,0.1,0,0.1,0.1,0.3
					c0.1,0.1,0.1,0.2,0.3,0.3c0.1,0.1,0.2,0.2,0.3,0.3s0.3,0.2,0.4,0.2c0.1-0.1,0.2-0.1,0.3-0.2s0.2-0.2,0.3-0.3
					c0.1-0.1,0.1-0.2,0.2-0.3C142.9,15.6,143,15.5,143,15.4z"/>
				<path d="M145,17h1.3c0.3,0,0.6,0,1-0.1c0.3,0,0.7-0.1,1-0.2s0.7-0.1,1.1-0.3c0.4-0.1,0.7-0.2,1-0.3c0.3-0.1,0.7-0.2,1-0.4
					s0.6-0.3,0.9-0.4c-0.3-0.1-0.6-0.1-0.9-0.3c-0.3-0.1-0.6-0.2-1-0.3c-0.3-0.1-0.6-0.2-1-0.3c-0.3-0.1-0.6-0.1-0.8-0.1
					c-0.1,0-0.3,0-0.4,0.1c-0.1,0.1-0.3,0.1-0.4,0.2s-0.2,0.2-0.3,0.3s-0.2,0.2-0.3,0.3s-0.1,0.2-0.2,0.2l-0.1,0.1l-1.5-0.9
					c0.2-0.3,0.4-0.6,0.6-0.9s0.5-0.5,0.8-0.8s0.6-0.4,0.9-0.5c0.3-0.1,0.6-0.2,0.9-0.2c0.2,0,0.4,0,0.7,0.1s0.4,0.1,0.7,0.2
					c0.2,0.1,0.4,0.2,0.7,0.3s0.5,0.2,0.7,0.3s0.5,0.2,0.8,0.3s0.6,0.2,0.9,0.3c0.3,0.1,0.6,0.1,1,0.2s0.6,0.1,1,0.1l-0.3,1.9
					c-0.1,0-0.2,0.1-0.3,0.1c-0.1,0.1-0.2,0.1-0.3,0.1l-0.2,0.1c0.1,0.1,0.2,0.2,0.4,0.3c0.1,0.1,0.3,0.1,0.4,0.1
					c0.1,0,0.3,0,0.4,0.1c0.1,0,0.3,0,0.3,0h0.2v2h-0.2c-0.4,0-0.8,0-1.1-0.1c-0.4-0.1-0.7-0.2-1-0.3c-0.3-0.1-0.6-0.3-0.8-0.5
					s-0.4-0.4-0.6-0.7c-0.4,0.2-0.9,0.4-1.3,0.6c-0.4,0.2-0.9,0.4-1.4,0.5s-1,0.3-1.5,0.4s-1,0.1-1.6,0.1H145V17L145,17z
					 M148.5,11.9l-1.4-1.4l1.4-1.4l1.4,1.4L148.5,11.9z"/>
				<path d="M155.4,17h1.5c0.2,0,0.4,0,0.6,0c0.2,0,0.4-0.1,0.6-0.1c0.2-0.1,0.3-0.1,0.5-0.3s0.2-0.3,0.2-0.4s0-0.3-0.1-0.4
					c-0.1-0.2-0.1-0.4-0.2-0.7s-0.2-0.5-0.3-0.8s-0.3-0.5-0.4-0.8l1.8-0.9c0.1,0.3,0.2,0.6,0.3,0.8c0.1,0.3,0.2,0.6,0.3,0.9
					s0.2,0.6,0.2,0.9c0.1,0.3,0.1,0.6,0.1,0.9c0,0.5-0.1,1-0.3,1.3s-0.4,0.7-0.8,0.9c-0.3,0.2-0.7,0.4-1.2,0.5
					c-0.4,0.1-0.9,0.1-1.4,0.1h-1.5L155.4,17L155.4,17z M158.4,10.5l-1.2,1.2l-1.2-1.2l1.2-1.2L158.4,10.5l1.2-1.2l1.2,1.2l-1.2,1.2
					L158.4,10.5z"/>
				<path d="M168.3,19c-0.3,0-0.7-0.1-1-0.2s-0.7-0.3-0.9-0.5c-0.3-0.2-0.5-0.5-0.7-0.8s-0.3-0.7-0.3-1.1c0-0.8,0.4-1.7,1.1-2.6
					c0.1-0.1,0.1-0.1,0.1-0.2l0.1-0.1l0.1-0.1l0.1-0.1l-0.4-0.3l1.3-1.5c0.2,0.1,0.5,0.4,0.8,0.6c0.3,0.3,0.6,0.6,1,1
					c1.1,1.2,1.6,2.3,1.6,3.3c0,0.4-0.1,0.8-0.3,1.1s-0.4,0.6-0.7,0.8c-0.3,0.2-0.6,0.4-0.9,0.5C169,18.9,168.6,19,168.3,19z
					 M169.5,16.4c0-0.1,0-0.3-0.1-0.4c-0.1-0.2-0.2-0.3-0.3-0.5s-0.3-0.4-0.4-0.5c-0.2-0.2-0.3-0.4-0.5-0.5
					c-0.1,0.1-0.2,0.3-0.4,0.4c-0.1,0.1-0.2,0.3-0.3,0.5s-0.2,0.4-0.3,0.5c-0.1,0.2-0.1,0.4-0.1,0.6c0,0.1,0,0.2,0.1,0.3
					c0.1,0.1,0.2,0.1,0.3,0.2c0.1,0,0.3,0.1,0.4,0.1c0.1,0,0.3,0,0.4,0c0.1,0,0.3,0,0.4,0c0.1,0,0.3,0,0.4-0.1
					c0.1,0,0.2-0.1,0.3-0.2C169.4,16.6,169.5,16.6,169.5,16.4z"/>
				<path d="M175.2,15.2c0.1,0.3,0.2,0.6,0.3,0.9c0.1,0.3,0.1,0.6,0.2,1c0.1,0.3,0.1,0.6,0.1,0.9c0,0.4-0.1,0.8-0.2,1.2
					c-0.1,0.4-0.3,0.7-0.4,1.1s-0.4,0.7-0.7,1s-0.6,0.6-0.9,0.9c-0.3,0.3-0.7,0.6-1,0.8s-0.8,0.5-1.2,0.7l-1.2-1.6
					c0.3-0.1,0.6-0.3,0.9-0.5c0.3-0.2,0.6-0.4,0.9-0.6c0.3-0.2,0.6-0.4,0.8-0.7c0.2-0.2,0.4-0.5,0.6-0.7c0.2-0.3,0.3-0.5,0.4-0.7
					c0.1-0.3,0.1-0.5,0.1-0.7s0-0.4-0.1-0.6c0-0.2-0.1-0.4-0.2-0.7s-0.2-0.5-0.3-0.7c-0.1-0.3-0.2-0.6-0.4-0.9l1.8-0.8
					C175.1,14.7,175.1,14.9,175.2,15.2z"/>
				<path d="M177,17.9c0-0.4,0-0.7,0.1-1.1c0-0.4,0-0.7,0-1s0-0.7,0-0.9c0-0.6,0-1.1-0.1-1.6c0-0.4,0-0.9-0.1-1.2
					c0-0.3,0-0.7-0.1-0.9s0-0.5-0.1-0.7c0-0.2,0-0.4-0.1-0.6c0-0.2-0.1-0.4-0.1-0.6l1.9-0.6c0.1,0.6,0.2,1.1,0.2,1.7
					c0.1,0.6,0.1,1.1,0.1,1.6s0,1,0.1,1.4c0,0.4,0,0.8,0,1.2c0,0.3,0,0.6,0,0.9c0,0.3,0,0.7,0,1c0,0.4,0,0.7,0,1.1s0,0.7-0.1,1.1
					L177,19C177,18.7,177,18.3,177,17.9z"/>
				<path d="M179.6,21.5c0.6-0.1,1.1-0.3,1.6-0.4c0.5-0.2,0.9-0.4,1.3-0.6c0.4-0.2,0.7-0.4,0.9-0.7c0.2-0.3,0.4-0.5,0.5-0.7
					c-0.2,0-0.4,0-0.6,0c-0.2,0-0.4,0-0.5,0c-0.4,0-0.8-0.1-1.1-0.2s-0.6-0.3-0.9-0.5c-0.2-0.2-0.4-0.5-0.6-0.8
					c-0.1-0.3-0.2-0.7-0.2-1.1c0-0.3,0-0.5,0.1-0.8s0.1-0.5,0.2-0.8c0.1-0.3,0.2-0.5,0.4-0.7c0.1-0.2,0.3-0.4,0.5-0.6
					s0.4-0.3,0.6-0.4s0.5-0.1,0.7-0.1c0.3,0,0.6,0.1,0.9,0.2c0.3,0.1,0.5,0.3,0.7,0.5s0.4,0.4,0.6,0.7c0.2,0.3,0.3,0.6,0.4,0.9
					c0.1,0.3,0.2,0.6,0.3,0.9c0.1,0.3,0.1,0.6,0.2,1h0.3v2h-0.4c-0.2,0.6-0.4,1.2-0.8,1.7s-0.8,0.9-1.3,1.3s-1,0.7-1.7,0.9
					c-0.6,0.2-1.2,0.4-1.9,0.5L179.6,21.5z M182.7,14.9c-0.1,0-0.2,0-0.3,0.1s-0.2,0.2-0.3,0.3s-0.2,0.3-0.2,0.4
					c-0.1,0.1-0.1,0.3-0.1,0.4s0,0.3,0.1,0.3s0.2,0.2,0.3,0.2c0.1,0.1,0.3,0.1,0.5,0.1s0.3,0,0.5,0.1c0.2,0,0.3,0,0.5,0h0.4
					c-0.1-0.3-0.1-0.5-0.2-0.7s-0.2-0.4-0.3-0.6c-0.1-0.2-0.2-0.3-0.4-0.5C183,15,182.8,15,182.7,14.9z"/>
				<path d="M190.2,17v2h-4.4v-2H190.2z"/>
				<path d="M194.6,17v2h-0.1c-0.4,0-0.7-0.1-1-0.2s-0.5-0.3-0.7-0.5c-0.3,0.2-0.7,0.4-1.1,0.5s-0.9,0.1-1.5,0.1H190v-2h0.2
					c0.6,0,1-0.1,1.3-0.3c0.3-0.2,0.4-0.5,0.4-0.9c0-0.1,0-0.3,0-0.5s-0.1-0.5-0.2-0.9l1.8-0.4c0.1,0.2,0.1,0.4,0.2,0.6
					s0.1,0.3,0.1,0.5c0,0.1,0,0.3,0.1,0.4c0,0.1,0,0.2,0,0.4c0,0.1,0,0.2,0,0.4c0,0.1,0,0.3,0.1,0.4s0.1,0.2,0.2,0.3
					S194.4,17,194.6,17L194.6,17L194.6,17z M192,13l-1.4-1.4l1.4-1.4l1.4,1.4L192,13z"/>
				<path d="M194.5,17c0.2,0,0.4,0,0.6-0.1c0.2-0.1,0.4-0.2,0.6-0.4s0.3-0.5,0.5-0.9c0.1-0.4,0.3-0.9,0.4-1.5l1.7,0.2c0,0,0,0,0,0.1
					s-0.1,0.3-0.1,0.4c0,0.2-0.1,0.4-0.1,0.6c0,0.2,0,0.5,0,0.7c0,0.2,0,0.4,0.1,0.6s0.1,0.3,0.3,0.3c0.1,0,0.3,0,0.4-0.1
					c0.1-0.1,0.2-0.2,0.3-0.4c0.1-0.2,0.2-0.3,0.3-0.6s0.2-0.4,0.3-0.7c0.1-0.2,0.1-0.4,0.2-0.7c0.1-0.2,0.1-0.4,0.1-0.6l1.7,0.2
					c0,0.1,0,0.2,0,0.4s0,0.4,0,0.6s0,0.4,0,0.6c0,0.2,0,0.4,0.1,0.5c0,0.2,0.1,0.3,0.2,0.4s0.2,0.1,0.4,0.1c0.1,0,0.3,0,0.4-0.1
					c0.1-0.1,0.2-0.2,0.3-0.4c0.1-0.1,0.1-0.3,0.2-0.5s0.1-0.4,0.1-0.6c0-0.2,0-0.4,0-0.6c0-0.2,0-0.3,0-0.5l1.7-0.2l0.2,1.8
					c0,0.2,0.1,0.4,0.2,0.5c0.1,0.1,0.2,0.3,0.3,0.4s0.2,0.2,0.4,0.2c0.1,0,0.2,0.1,0.4,0.1h0.2v2h-0.2c-0.4,0-0.8-0.1-1.2-0.2
					s-0.7-0.4-0.9-0.7c0,0,0,0.1-0.1,0.1c0,0,0,0-0.1,0.1l0,0c-0.2,0.2-0.5,0.4-0.8,0.6c-0.3,0.1-0.6,0.2-1,0.2s-0.7-0.1-1-0.2
					s-0.6-0.4-0.8-0.7c-0.3,0.3-0.5,0.5-0.9,0.7s-0.7,0.3-1,0.3c-0.4,0-0.7-0.1-1-0.2s-0.6-0.4-0.8-0.7c-0.2,0.3-0.5,0.5-0.8,0.7
					c-0.3,0.1-0.7,0.2-1.2,0.2H195v-2H194.5z M198.3,14.3L198.3,14.3L198.3,14.3z M200.8,11.7l-1.2,1.2l-1.2-1.2l1.2-1.2L200.8,11.7
					l1.2-1.2l1.2,1.2l-1.2,1.2L200.8,11.7z M201.9,9.8l-1.1,1.1l-1.1-1.1l1.1-1.1L201.9,9.8z"/>
				<path d="M206,17h1.3c0.7,0,1.3,0,1.9-0.1c0.6-0.1,1.1-0.2,1.6-0.3c0.5-0.1,1-0.3,1.4-0.5c0.4-0.2,0.9-0.4,1.3-0.6
					c-0.3-0.1-0.6-0.2-0.9-0.3c-0.3-0.1-0.6-0.2-0.9-0.3c-0.3-0.1-0.6-0.2-0.9-0.3s-0.6-0.1-0.9-0.1c-0.2,0-0.4,0-0.6,0.1
					c-0.2,0.1-0.4,0.2-0.5,0.4c-0.1,0.1-0.3,0.3-0.4,0.4c-0.1,0.1-0.2,0.2-0.2,0.3l-1.4-0.9c0.1-0.3,0.3-0.6,0.6-0.8
					c0.2-0.3,0.4-0.5,0.7-0.7s0.5-0.4,0.9-0.5c0.3-0.1,0.6-0.2,1-0.2c0.3,0,0.5,0,0.7,0.1c0.3,0,0.5,0.1,0.7,0.2
					c0.2,0.1,0.5,0.2,0.7,0.3s0.5,0.2,0.7,0.3s0.4,0.2,0.7,0.3c0.2,0.1,0.4,0.2,0.7,0.3c0.2,0.1,0.5,0.1,0.7,0.2
					c0.3,0.1,0.5,0.1,0.8,0.1l-0.1,1.9l-0.9,0.4c-0.4,0.2-0.7,0.4-1.1,0.5s-0.7,0.4-1.1,0.5c-0.4,0.2-0.8,0.3-1.2,0.5
					c-0.4,0.1-0.8,0.3-1.3,0.4c-0.4,0.1-0.9,0.2-1.4,0.3s-1,0.1-1.6,0.1h-1V17L206,17z M211.2,22.4l-1.4-1.4l1.4-1.4l1.4,1.4
					L211.2,22.4z"/>
			</g>
		</g>
		<g>
			<g>
				<path class="st1" d="M122.1,18.3c-0.4,0-0.8,0-1.2,0c-0.4,0-0.9-0.1-1.3-0.2s-0.9-0.2-1.3-0.4c-0.4-0.1-0.8-0.4-1.1-0.6
					c-0.3-0.3-0.6-0.6-0.8-0.9c-0.2-0.4-0.3-0.8-0.3-1.3c0-0.3,0-0.5,0.1-0.7s0.1-0.5,0.2-0.7s0.2-0.4,0.3-0.7
					c0.1-0.2,0.2-0.4,0.4-0.6l1.5,1.2c-0.1,0.1-0.1,0.2-0.2,0.3s-0.2,0.3-0.2,0.4c-0.1,0.1-0.1,0.3-0.2,0.5c0,0.1-0.1,0.3-0.1,0.4
					c0,0.1,0.1,0.3,0.2,0.4c0.1,0.1,0.3,0.2,0.5,0.3s0.4,0.2,0.7,0.2c0.3,0.1,0.6,0.1,0.9,0.2c0.3,0,0.6,0.1,1,0.1
					c0.3,0,0.7,0,1.1,0c0.2,0,0.3,0,0.5,0s0.4,0,0.5,0c0.2,0,0.3,0,0.4,0s0.2,0,0.3,0c-0.1-0.2-0.3-0.4-0.4-0.6
					c-0.1-0.3-0.2-0.5-0.2-0.8s0-0.5,0.1-0.7c0.1-0.3,0.1-0.5,0.3-0.7c0.1-0.2,0.3-0.5,0.4-0.7c0.2-0.2,0.4-0.4,0.6-0.5
					s0.4-0.3,0.7-0.3c0.2-0.1,0.5-0.1,0.7-0.1c0.4,0,0.7,0.1,1,0.3s0.6,0.4,0.8,0.7c0.2,0.3,0.4,0.6,0.5,0.9
					c0.1,0.3,0.2,0.7,0.2,1.1c0,0.3,0,0.6-0.1,0.9c-0.1,0.3-0.2,0.5-0.4,0.8c0.2,0,0.4,0,0.6,0.1s0.4,0,0.5,0h0.2v2h-0.2
					c-0.3,0-0.5,0-0.8,0s-0.6,0-0.8-0.1c-0.3,0-0.5-0.1-0.8-0.1c-0.3-0.1-0.5-0.1-0.8-0.3c-0.1,0.1-0.2,0.1-0.4,0.2
					c-0.2,0-0.4,0.1-0.6,0.1s-0.5,0.1-0.7,0.1c-0.3,0-0.5,0-0.8,0.1c-0.3,0-0.5,0-0.7,0C122.6,18.3,122.3,18.3,122.1,18.3z
					 M126.3,10.7l-1.4-1.4l1.4-1.4l1.4,1.4L126.3,10.7z M126.9,14.8c0-0.1,0-0.3-0.1-0.4s-0.1-0.2-0.2-0.3s-0.2-0.2-0.3-0.2
					s-0.2-0.1-0.3-0.1c-0.1,0-0.2,0.1-0.3,0.1c-0.1,0.1-0.2,0.1-0.3,0.2s-0.2,0.2-0.3,0.4c-0.1,0.1-0.1,0.3-0.1,0.5
					c0,0.1,0,0.1,0.1,0.3s0.1,0.2,0.3,0.3c0.1,0.1,0.2,0.2,0.3,0.3c0.1,0.1,0.3,0.2,0.4,0.2c0.1-0.1,0.2-0.1,0.3-0.2
					c0.1-0.1,0.2-0.2,0.3-0.3c0.1-0.1,0.1-0.2,0.2-0.3C126.9,15,126.9,14.9,126.9,14.8z"/>
				<path class="st1" d="M133.2,16.4v2h-4v-2H133.2z"/>
				<path class="st1" d="M138.5,16.4v2h-0.1c-0.2,0-0.4,0-0.6,0c-0.2,0-0.4-0.1-0.6-0.1s-0.3-0.1-0.5-0.2s-0.3-0.2-0.4-0.3
					c-0.2,0.1-0.4,0.3-0.7,0.4s-0.5,0.1-0.8,0.2c-0.3,0-0.6,0.1-0.9,0.1c-0.3,0-0.6,0-0.9,0h-0.2v-2h0.2c0.3,0,0.6,0,0.8,0
					s0.4,0,0.6-0.1c0.2,0,0.3-0.1,0.4-0.2c0.1-0.1,0.2-0.1,0.3-0.3c0.1-0.1,0.1-0.3,0.2-0.4c0-0.2,0-0.3,0-0.5s0-0.3-0.1-0.5
					c0-0.2-0.1-0.3-0.1-0.5l1.8-0.5c0,0.2,0.1,0.4,0.1,0.5s0.1,0.3,0.1,0.4c0,0.1,0,0.3,0.1,0.4c0,0.1,0,0.3,0.1,0.5
					c0,0.1,0,0.2,0.1,0.4c0,0.1,0.1,0.3,0.1,0.4c0.1,0.1,0.1,0.2,0.3,0.3c0.1,0.1,0.3,0.1,0.4,0.1C138.3,16.4,138.5,16.4,138.5,16.4
					z M135.4,20.2l-1.2,1.2l-1.2-1.2l1.2-1.2L135.4,20.2l1.2-1.2l1.2,1.2l-1.2,1.2L135.4,20.2z"/>
				<path class="st1" d="M138.3,16.4h0.4c0.1,0,0.2,0,0.3,0s0.2,0,0.3,0s0.1,0,0.2,0c-0.1-0.1-0.1-0.2-0.2-0.3
					c-0.1-0.1-0.1-0.2-0.2-0.3s-0.1-0.2-0.1-0.4c0-0.1-0.1-0.3-0.1-0.4c0-0.3,0-0.5,0.1-0.7c0.1-0.3,0.1-0.5,0.3-0.7
					c0.1-0.2,0.3-0.5,0.4-0.7c0.2-0.2,0.4-0.4,0.6-0.5c0.2-0.1,0.4-0.3,0.7-0.3c0.2-0.1,0.5-0.1,0.7-0.1c0.4,0,0.7,0.1,1,0.3
					s0.6,0.4,0.8,0.7s0.4,0.6,0.5,0.9c0.1,0.3,0.2,0.7,0.2,1.1c0,0.3,0,0.6-0.1,0.9c-0.1,0.3-0.2,0.5-0.4,0.8c0.1,0,0.2,0,0.4,0.1
					c0.1,0,0.4,0,0.6,0h0.1v2h-0.2c-0.3,0-0.5,0-0.8,0s-0.5,0-0.7-0.1s-0.5-0.1-0.7-0.1s-0.5-0.1-0.7-0.3c-0.1,0.1-0.3,0.2-0.6,0.2
					c-0.2,0.1-0.5,0.1-0.8,0.1s-0.6,0.1-0.9,0.1c-0.3,0-0.6,0-0.9,0h-0.2L138.3,16.4L138.3,16.4z M141.5,10.8l-1.4-1.4l1.4-1.4
					l1.4,1.4L141.5,10.8z M142.5,14.8c0-0.1,0-0.3-0.1-0.4c-0.1-0.1-0.1-0.2-0.2-0.3c-0.1-0.1-0.2-0.2-0.3-0.2
					c-0.1-0.1-0.2-0.1-0.3-0.1s-0.2,0.1-0.3,0.1c-0.1,0.1-0.2,0.1-0.3,0.2s-0.2,0.2-0.3,0.4c-0.1,0.1-0.1,0.3-0.1,0.5
					c0,0.1,0,0.1,0.1,0.3c0.1,0.1,0.1,0.2,0.3,0.3c0.1,0.1,0.2,0.2,0.3,0.3c0.1,0.1,0.3,0.2,0.4,0.2c0.1-0.1,0.2-0.1,0.3-0.2
					c0.1-0.1,0.2-0.2,0.3-0.3s0.1-0.2,0.2-0.3C142.5,15,142.5,14.9,142.5,14.8z"/>
				<path class="st1" d="M144.6,16.4h1.3c0.3,0,0.6,0,1-0.1c0.3,0,0.7-0.1,1-0.2s0.7-0.1,1.1-0.3s0.7-0.2,1-0.3s0.7-0.2,1-0.4
					c0.3-0.1,0.6-0.3,0.9-0.4c-0.3-0.1-0.6-0.1-0.9-0.3c-0.3-0.1-0.6-0.2-1-0.3c-0.3-0.1-0.6-0.2-1-0.3c-0.3-0.1-0.6-0.1-0.8-0.1
					c-0.1,0-0.3,0-0.4,0.1s-0.3,0.1-0.4,0.2s-0.2,0.2-0.3,0.3s-0.2,0.2-0.3,0.3s-0.1,0.2-0.2,0.2l-0.1,0.1L145,14
					c0.2-0.3,0.4-0.6,0.6-0.9c0.2-0.3,0.5-0.5,0.8-0.8c0.3-0.2,0.6-0.4,0.9-0.5c0.3-0.1,0.6-0.2,0.9-0.2c0.2,0,0.4,0,0.7,0.1
					s0.4,0.1,0.7,0.2s0.4,0.2,0.7,0.3c0.2,0.1,0.5,0.2,0.7,0.3s0.5,0.2,0.8,0.3s0.6,0.2,0.9,0.3c0.3,0.1,0.6,0.1,1,0.2
					s0.6,0.1,1,0.1l-0.3,1.9c-0.1,0-0.2,0.1-0.3,0.1c-0.1,0.1-0.2,0.1-0.3,0.1l-0.2,0.1c0.1,0.1,0.2,0.2,0.4,0.3
					c0.1,0.1,0.3,0.1,0.4,0.1c0.1,0,0.3,0,0.4,0.1c0.1,0,0.3,0,0.3,0h0.2v2H155c-0.4,0-0.8,0-1.1-0.1c-0.4-0.1-0.7-0.2-1-0.3
					c-0.3-0.1-0.6-0.3-0.8-0.5s-0.4-0.4-0.6-0.7c-0.4,0.2-0.9,0.4-1.3,0.6c-0.4,0.2-0.9,0.4-1.4,0.5s-1,0.3-1.5,0.4s-1,0.1-1.6,0.1
					h-1.3L144.6,16.4L144.6,16.4z M148.1,11.2l-1.4-1.4l1.4-1.4l1.4,1.4L148.1,11.2z"/>
				<path class="st1" d="M155,16.4h1.5c0.2,0,0.4,0,0.6,0s0.4-0.1,0.6-0.1c0.2-0.1,0.3-0.1,0.5-0.3c0.1-0.1,0.2-0.3,0.2-0.4
					c0-0.1,0-0.3-0.1-0.4s-0.1-0.4-0.2-0.7c-0.1-0.2-0.2-0.5-0.3-0.8s-0.3-0.5-0.4-0.8l1.8-0.9c0.1,0.3,0.2,0.6,0.3,0.8
					c0.1,0.3,0.2,0.6,0.3,0.9c0.1,0.3,0.2,0.6,0.2,0.9c0.1,0.3,0.1,0.6,0.1,0.9c0,0.5-0.1,1-0.3,1.3c-0.2,0.4-0.4,0.7-0.8,0.9
					c-0.3,0.2-0.7,0.4-1.2,0.5c-0.4,0.1-0.9,0.1-1.4,0.1H155V16.4L155,16.4z M157.9,9.9l-1.2,1.2l-1.2-1.2l1.2-1.2L157.9,9.9
					l1.2-1.2l1.2,1.2l-1.2,1.2L157.9,9.9z"/>
				<path class="st1" d="M167.8,18.3c-0.3,0-0.7-0.1-1-0.2s-0.7-0.3-0.9-0.5c-0.3-0.2-0.5-0.5-0.7-0.8s-0.3-0.7-0.3-1.1
					c0-0.8,0.4-1.7,1.1-2.6c0.1-0.1,0.1-0.1,0.1-0.2l0.1-0.1l0.1-0.1l0.1-0.1l-0.4-0.3l1.3-1.5c0.2,0.1,0.5,0.4,0.8,0.6
					c0.3,0.3,0.6,0.6,1,1c1.1,1.2,1.6,2.3,1.6,3.3c0,0.4-0.1,0.8-0.3,1.1s-0.4,0.6-0.7,0.8c-0.3,0.2-0.6,0.4-0.9,0.5
					C168.5,18.3,168.2,18.3,167.8,18.3z M169,15.8c0-0.1,0-0.3-0.1-0.4c-0.1-0.2-0.2-0.3-0.3-0.5s-0.3-0.4-0.4-0.5
					c-0.2-0.2-0.3-0.4-0.5-0.5c-0.1,0.1-0.2,0.3-0.4,0.4c-0.1,0.1-0.2,0.3-0.3,0.5s-0.2,0.4-0.3,0.5c-0.1,0.2-0.1,0.4-0.1,0.6
					c0,0.1,0,0.2,0.1,0.3s0.2,0.1,0.3,0.2c0.1,0,0.3,0.1,0.4,0.1s0.3,0,0.4,0c0.1,0,0.3,0,0.4,0c0.1,0,0.3,0,0.4-0.1
					c0.1,0,0.2-0.1,0.3-0.2C169,16,169,15.9,169,15.8z"/>
				<path class="st1" d="M174.8,14.6c0.1,0.3,0.2,0.6,0.3,0.9c0.1,0.3,0.1,0.6,0.2,1c0.1,0.3,0.1,0.6,0.1,0.9c0,0.4-0.1,0.8-0.2,1.2
					c-0.1,0.4-0.3,0.7-0.4,1.1c-0.2,0.3-0.4,0.7-0.7,1s-0.6,0.6-0.9,0.9c-0.3,0.3-0.7,0.6-1,0.8c-0.4,0.2-0.8,0.5-1.2,0.7l-1.2-1.6
					c0.3-0.1,0.6-0.3,0.9-0.5c0.3-0.2,0.6-0.4,0.9-0.6c0.3-0.2,0.6-0.4,0.8-0.7s0.4-0.5,0.6-0.7c0.2-0.3,0.3-0.5,0.4-0.7
					c0.1-0.3,0.1-0.5,0.1-0.7s0-0.4-0.1-0.6s-0.1-0.4-0.2-0.7c-0.1-0.2-0.2-0.5-0.3-0.7c-0.1-0.3-0.2-0.6-0.4-0.9l1.8-0.8
					C174.6,14,174.7,14.3,174.8,14.6z"/>
				<path class="st1" d="M176.6,17.3c0-0.4,0-0.7,0.1-1.1c0-0.4,0-0.7,0-1s0-0.7,0-0.9c0-0.6,0-1.1-0.1-1.6c0-0.4,0-0.9-0.1-1.2
					c0-0.3,0-0.7-0.1-0.9c0-0.3,0-0.5-0.1-0.7c0-0.2,0-0.4-0.1-0.6c0-0.2-0.1-0.4-0.1-0.6l1.9-0.6c0.1,0.6,0.2,1.1,0.2,1.7
					c0.1,0.6,0.1,1.1,0.1,1.6s0,1,0.1,1.4c0,0.4,0,0.8,0,1.2c0,0.3,0,0.6,0,0.9s0,0.7,0,1c0,0.4,0,0.7,0,1.1s0,0.7-0.1,1.1l-1.9,0.3
					C176.5,18,176.6,17.7,176.6,17.3z"/>
				<path class="st1" d="M179.2,20.8c0.6-0.1,1.1-0.3,1.6-0.4c0.5-0.2,0.9-0.4,1.3-0.6s0.7-0.4,0.9-0.7c0.2-0.3,0.4-0.5,0.5-0.7
					c-0.2,0-0.4,0-0.6,0c-0.2,0-0.4,0-0.5,0c-0.4,0-0.8-0.1-1.1-0.2s-0.6-0.3-0.9-0.5c-0.2-0.2-0.4-0.5-0.6-0.8
					c-0.1-0.3-0.2-0.7-0.2-1.1c0-0.3,0-0.5,0.1-0.8s0.1-0.5,0.2-0.8c0.1-0.3,0.2-0.5,0.4-0.7c0.1-0.2,0.3-0.4,0.5-0.6
					c0.2-0.2,0.4-0.3,0.6-0.4c0.2-0.1,0.5-0.1,0.7-0.1c0.3,0,0.6,0.1,0.9,0.2c0.3,0.1,0.5,0.3,0.7,0.5s0.4,0.4,0.6,0.7
					c0.2,0.3,0.3,0.6,0.4,0.9s0.2,0.6,0.3,0.9c0.1,0.3,0.1,0.6,0.2,1h0.3v2h-0.4c-0.2,0.6-0.4,1.2-0.8,1.7s-0.8,0.9-1.3,1.3
					s-1,0.7-1.7,0.9c-0.6,0.2-1.2,0.4-1.9,0.5L179.2,20.8z M182.2,14.3c-0.1,0-0.2,0-0.3,0.1s-0.2,0.2-0.3,0.3s-0.2,0.3-0.2,0.4
					c-0.1,0.1-0.1,0.3-0.1,0.4c0,0.1,0,0.3,0.1,0.3s0.2,0.2,0.3,0.2c0.1,0.1,0.3,0.1,0.5,0.1s0.3,0,0.5,0.1c0.2,0,0.3,0,0.5,0h0.4
					c-0.1-0.3-0.1-0.5-0.2-0.7c-0.1-0.2-0.2-0.4-0.3-0.6c-0.1-0.2-0.2-0.3-0.4-0.5S182.4,14.3,182.2,14.3z"/>
				<path class="st1" d="M189.8,16.4v2h-4.4v-2H189.8z"/>
				<path class="st1" d="M194.2,16.4v2h-0.1c-0.4,0-0.7-0.1-1-0.2s-0.5-0.3-0.7-0.5c-0.3,0.2-0.7,0.4-1.1,0.5
					c-0.4,0.1-0.9,0.1-1.5,0.1h-0.2v-2h0.2c0.6,0,1-0.1,1.3-0.3s0.4-0.5,0.4-0.9c0-0.1,0-0.3,0-0.5s-0.1-0.5-0.2-0.9l1.8-0.4
					c0.1,0.2,0.1,0.4,0.2,0.6c0,0.2,0.1,0.3,0.1,0.5c0,0.1,0,0.3,0.1,0.4c0,0.1,0,0.2,0,0.4c0,0.1,0,0.2,0,0.4c0,0.1,0,0.3,0.1,0.4
					s0.1,0.2,0.2,0.3S194,16.4,194.2,16.4L194.2,16.4L194.2,16.4z M191.5,12.4l-1.4-1.4l1.4-1.4l1.4,1.4L191.5,12.4z"/>
				<path class="st1" d="M194.1,16.4c0.2,0,0.4,0,0.6-0.1s0.4-0.2,0.6-0.4c0.2-0.2,0.3-0.5,0.5-0.9c0.1-0.4,0.3-0.9,0.4-1.5l1.7,0.2
					c0,0,0,0,0,0.1s-0.1,0.3-0.1,0.4c0,0.2-0.1,0.4-0.1,0.6c0,0.2,0,0.5,0,0.7s0,0.4,0.1,0.6c0.1,0.1,0.1,0.3,0.3,0.3
					c0.1,0,0.3,0,0.4-0.1c0.1-0.1,0.2-0.2,0.3-0.4c0.1-0.2,0.2-0.3,0.3-0.6s0.2-0.4,0.3-0.7s0.1-0.4,0.2-0.7
					c0.1-0.2,0.1-0.4,0.1-0.6l1.7,0.2c0,0.1,0,0.2,0,0.4s0,0.4,0,0.6c0,0.2,0,0.4,0,0.6c0,0.2,0,0.4,0.1,0.5c0,0.2,0.1,0.3,0.2,0.4
					s0.2,0.1,0.4,0.1c0.1,0,0.3,0,0.4-0.1c0.1-0.1,0.2-0.2,0.3-0.4c0.1-0.1,0.1-0.3,0.2-0.5c0-0.2,0.1-0.4,0.1-0.6
					c0-0.2,0-0.4,0-0.6c0-0.2,0-0.3,0-0.5l1.7-0.2L205,15c0,0.2,0.1,0.4,0.2,0.5c0.1,0.1,0.2,0.3,0.3,0.4c0.1,0.1,0.2,0.2,0.4,0.2
					s0.2,0.1,0.4,0.1h0.2v2h-0.2c-0.4,0-0.8-0.1-1.2-0.2s-0.7-0.4-0.9-0.7c0,0,0,0.1-0.1,0.1c0,0,0,0-0.1,0.1l0,0
					c-0.2,0.2-0.5,0.4-0.8,0.6c-0.3,0.1-0.6,0.2-1,0.2s-0.7-0.1-1-0.2s-0.6-0.4-0.8-0.7c-0.3,0.3-0.5,0.5-0.9,0.7
					c-0.3,0.2-0.7,0.3-1,0.3c-0.4,0-0.7-0.1-1-0.2s-0.6-0.4-0.8-0.7c-0.2,0.3-0.5,0.5-0.8,0.7c-0.3,0.1-0.7,0.2-1.2,0.2H194v-2
					H194.1z M197.8,13.7L197.8,13.7L197.8,13.7z M200.3,11l-1.2,1.2L198,11l1.2-1.2L200.3,11l1.2-1.2l1.2,1.2l-1.2,1.2L200.3,11z
					 M201.5,9.2l-1.1,1.1l-1.1-1.1l1.1-1.1L201.5,9.2z"/>
				<path class="st1" d="M205.6,16.4h1.3c0.7,0,1.3,0,1.9-0.1s1.1-0.2,1.6-0.3c0.5-0.1,1-0.3,1.4-0.5s0.9-0.4,1.3-0.6
					c-0.3-0.1-0.6-0.2-0.9-0.3c-0.3-0.1-0.6-0.2-0.9-0.3c-0.3-0.1-0.6-0.2-0.9-0.3c-0.3-0.1-0.6-0.1-0.9-0.1c-0.2,0-0.4,0-0.6,0.1
					c-0.2,0.1-0.4,0.2-0.5,0.4c-0.1,0.1-0.3,0.3-0.4,0.4c-0.1,0.1-0.2,0.2-0.2,0.3l-1.4-0.9c0.1-0.3,0.3-0.6,0.6-0.8
					c0.2-0.3,0.4-0.5,0.7-0.7s0.5-0.4,0.9-0.5c0.3-0.1,0.6-0.2,1-0.2c0.3,0,0.5,0,0.7,0.1c0.3,0,0.5,0.1,0.7,0.2
					c0.2,0.1,0.5,0.2,0.7,0.3s0.5,0.2,0.7,0.3s0.4,0.2,0.7,0.3c0.2,0.1,0.4,0.2,0.7,0.3c0.2,0.1,0.5,0.1,0.7,0.2s0.5,0.1,0.8,0.1
					l-0.1,1.9l-0.9,0.4c-0.4,0.2-0.7,0.4-1.1,0.5c-0.4,0.2-0.7,0.4-1.1,0.5c-0.4,0.2-0.8,0.3-1.2,0.5c-0.4,0.1-0.8,0.3-1.3,0.4
					c-0.4,0.1-0.9,0.2-1.4,0.3s-1,0.1-1.6,0.1h-1.3L205.6,16.4L205.6,16.4z M210.7,21.8l-1.4-1.4l1.4-1.4l1.4,1.4L210.7,21.8z"/>
			</g>
		</g>
	</g>
	<g>
		<g class="st7">
			<g>
				<path d="M133.4,31c0.1,0.1,0.1,0.3,0.2,0.5c0.1,0.2,0.2,0.4,0.3,0.6c0.1,0.2,0.2,0.5,0.3,0.7c0.1,0.3,0.1,0.5,0.2,0.8
					c0.1,0.3,0.1,0.5,0.1,0.8c0,0.4-0.1,0.8-0.2,1.2c-0.1,0.4-0.3,0.7-0.5,0.9s-0.5,0.5-0.9,0.6c-0.3,0.1-0.7,0.2-1.2,0.2
					c-0.4,0-0.7-0.1-0.9-0.2s-0.4-0.3-0.6-0.5c-0.1,0.1-0.2,0.2-0.3,0.3s-0.2,0.2-0.4,0.2c-0.1,0.1-0.3,0.1-0.5,0.1s-0.4,0-0.6,0
					c-0.2,0-0.3,0-0.5,0c-0.1,0-0.3-0.1-0.4-0.1c0,0.5-0.1,0.9-0.2,1.3c-0.1,0.4-0.3,0.8-0.6,1.1c-0.3,0.3-0.5,0.6-0.9,0.8
					c-0.3,0.2-0.7,0.4-1.1,0.6c-0.4,0.1-0.8,0.3-1.2,0.3c-0.4,0.1-0.8,0.1-1.3,0.1c-0.6,0-1.2-0.1-1.8-0.3c-0.6-0.2-1-0.5-1.4-0.9
					s-0.7-0.9-0.9-1.4c-0.2-0.5-0.3-1.1-0.3-1.8c0-0.4,0.1-0.8,0.1-1.2s0.2-0.8,0.3-1.2c0.1-0.4,0.3-0.7,0.5-1.1s0.3-0.6,0.5-0.9
					l1.4,1c-0.1,0.3-0.3,0.5-0.4,0.8s-0.3,0.6-0.4,0.8c-0.1,0.3-0.2,0.6-0.3,0.9c-0.1,0.3-0.1,0.6-0.1,0.8c0,0.3,0,0.6,0.2,0.9
					c0.1,0.3,0.3,0.5,0.6,0.7c0.3,0.2,0.5,0.4,0.9,0.5c0.3,0.1,0.7,0.2,1.1,0.2s0.8,0,1.2-0.1c0.4-0.1,0.7-0.2,1-0.3
					s0.5-0.3,0.7-0.5s0.3-0.4,0.4-0.7l0,0c0.1-0.3,0.1-0.7,0.1-1.1c0-0.3,0-0.6-0.1-0.9c-0.1-0.3-0.2-0.6-0.3-0.9
					c-0.1-0.3-0.3-0.6-0.4-0.9s-0.3-0.6-0.4-0.9l1.7-1c0.1,0.3,0.2,0.5,0.3,0.7c0.1,0.3,0.2,0.5,0.3,0.7s0.2,0.4,0.3,0.6
					c0.1,0.2,0.2,0.4,0.4,0.5c0.1,0.1,0.3,0.3,0.4,0.3c0.1,0.1,0.3,0.1,0.4,0.1c0.2,0,0.3-0.1,0.4-0.2c0.1-0.1,0.2-0.2,0.3-0.4
					c0.1-0.1,0.1-0.3,0.1-0.5s0-0.4,0-0.6c0-0.2,0-0.4,0-0.6c0-0.2,0-0.4,0-0.5l1.7-0.2c0,0.1,0.1,0.3,0.1,0.5s0,0.4,0.1,0.6
					c0,0.2,0.1,0.4,0.1,0.6c0,0.2,0.1,0.4,0.2,0.6c0.1,0.2,0.1,0.3,0.3,0.4c0.1,0.1,0.2,0.2,0.4,0.3c0.1,0,0.3,0,0.4-0.1
					c0.1,0,0.2-0.1,0.3-0.2c0.1-0.1,0.1-0.2,0.2-0.3c0-0.1,0.1-0.3,0.1-0.5c0-0.1,0-0.3-0.1-0.5s-0.1-0.4-0.2-0.6
					c-0.1-0.2-0.2-0.5-0.3-0.7s-0.3-0.5-0.4-0.8l1.6-0.9C133.3,30.8,133.4,30.9,133.4,31z"/>
				<path d="M138.4,33.6c0.1,0.3,0.2,0.6,0.3,0.9c0.1,0.3,0.1,0.6,0.2,1c0.1,0.3,0.1,0.6,0.1,0.9c0,0.4-0.1,0.8-0.2,1.2
					c-0.1,0.4-0.3,0.7-0.4,1.1s-0.4,0.7-0.7,1s-0.6,0.6-0.9,0.9c-0.3,0.3-0.7,0.6-1,0.8c-0.4,0.2-0.8,0.5-1.2,0.7l-1.2-1.6
					c0.3-0.1,0.6-0.3,0.9-0.5c0.3-0.2,0.6-0.4,0.9-0.6c0.3-0.2,0.6-0.4,0.8-0.7c0.2-0.2,0.4-0.5,0.6-0.7c0.2-0.3,0.3-0.5,0.4-0.7
					c0.1-0.3,0.1-0.5,0.1-0.7s0-0.4-0.1-0.6c0-0.2-0.1-0.4-0.2-0.7c-0.1-0.2-0.2-0.5-0.3-0.7c-0.1-0.3-0.2-0.6-0.4-0.9l1.8-0.8
					C138.2,33,138.3,33.3,138.4,33.6z"/>
				<path d="M140.8,34.8c0.2,0.1,0.5,0.2,0.7,0.3c0.3,0.1,0.5,0.2,0.7,0.2c0.2,0.1,0.4,0.1,0.6,0.1c0.1,0,0.2,0,0.4,0s0.3,0,0.5-0.1
					c0.2,0,0.3-0.1,0.4-0.2c0.1-0.1,0.2-0.2,0.2-0.3c0-0.2,0-0.3-0.1-0.6c-0.1-0.2-0.2-0.4-0.4-0.6s-0.4-0.4-0.6-0.7
					c-0.2-0.2-0.5-0.4-0.7-0.7s-0.5-0.4-0.7-0.6s-0.5-0.3-0.7-0.5l1.1-1.6c0.4,0.3,0.8,0.6,1.2,1s0.8,0.7,1.1,1.1s0.6,0.8,0.9,1.2
					c0.3,0.4,0.4,0.9,0.5,1.3c0,0.1,0.1,0.2,0.1,0.4c0,0.1,0,0.2,0,0.4c0,0.4-0.1,0.7-0.2,1.1c-0.1,0.3-0.4,0.6-0.6,0.8
					c-0.3,0.2-0.6,0.4-1,0.6c-0.4,0.1-0.8,0.2-1.2,0.2h-0.1h-0.1c-0.3,0-0.6,0-0.9-0.1c-0.3-0.1-0.6-0.1-0.9-0.2
					c-0.3-0.1-0.6-0.2-0.9-0.3c-0.3-0.1-0.5-0.3-0.8-0.4l0.8-1.9C140.3,34.6,140.6,34.7,140.8,34.8z"/>
				<path d="M147.2,36.3c0-0.4,0-0.7,0.1-1.1c0-0.4,0-0.7,0-1s0-0.7,0-0.9c0-0.6,0-1.1-0.1-1.6s0-0.9-0.1-1.2c0-0.3,0-0.7-0.1-0.9
					c0-0.3,0-0.5-0.1-0.7c0-0.2,0-0.4-0.1-0.6c0-0.2-0.1-0.4-0.1-0.6l1.9-0.6c0.1,0.6,0.2,1.1,0.2,1.7c0.1,0.6,0.1,1.1,0.1,1.6
					s0,1,0.1,1.4c0,0.4,0,0.8,0,1.2c0,0.3,0,0.6,0,0.9c0,0.3,0,0.7,0,1c0,0.4,0,0.7,0,1.1c0,0.4,0,0.7-0.1,1.1l-1.9,0.3
					C147.2,37,147.2,36.7,147.2,36.3z"/>
				<path d="M154.7,37.4c-0.1,0-0.2,0-0.4,0c-0.1,0-0.3-0.1-0.5-0.1c-0.1,0.5-0.3,1-0.5,1.5c-0.3,0.5-0.6,0.9-0.9,1.3
					c-0.4,0.4-0.8,0.8-1.3,1.1s-1,0.7-1.5,0.9l-1.2-1.6c0.3-0.1,0.6-0.3,0.9-0.5c0.3-0.2,0.6-0.4,0.9-0.6c0.3-0.2,0.5-0.4,0.8-0.6
					c0.2-0.2,0.4-0.4,0.6-0.7c0.2-0.2,0.3-0.5,0.4-0.7c0.1-0.2,0.1-0.5,0.1-0.7s0-0.4-0.1-0.6c-0.1-0.3-0.1-0.5-0.2-0.8
					c-0.1-0.3-0.2-0.6-0.3-0.9s-0.2-0.6-0.3-0.8l1.8-0.8c0.2,0.5,0.3,0.9,0.5,1.3c0.2,0.3,0.3,0.6,0.4,0.8c0.1,0.2,0.3,0.3,0.4,0.4
					s0.3,0.1,0.4,0.1h0.1L154.7,37.4L154.7,37.4L154.7,37.4z"/>
				<path d="M166.8,35.4v2h-12.2v-2H166.8z"/>
				<path d="M166.7,35.4c0.1,0,0.3,0,0.6,0c0.2,0,0.4,0,0.7,0s0.5,0,0.8,0s0.5,0,0.7-0.1c0.2,0,0.4-0.1,0.6-0.1
					c0.2-0.1,0.4-0.1,0.5-0.2c-0.6,0.1-1,0.1-1.5,0c-0.4,0-0.9-0.1-1.2-0.3c-0.3-0.1-0.6-0.4-0.8-0.7s-0.3-0.7-0.3-1.2
					c0-0.2,0-0.5,0.1-0.7c0-0.2,0.1-0.5,0.2-0.7c0.1-0.2,0.2-0.5,0.3-0.7s0.3-0.4,0.5-0.6s0.4-0.3,0.6-0.4c0.2-0.1,0.5-0.1,0.7-0.1
					c0.3,0,0.6,0.1,0.9,0.2s0.5,0.3,0.7,0.5s0.4,0.5,0.6,0.7c0.2,0.3,0.3,0.6,0.4,0.9c0.1,0.3,0.2,0.6,0.2,1
					c0.1,0.3,0.1,0.6,0.1,0.9c0,0.5-0.1,0.9-0.2,1.3c-0.1,0.4-0.3,0.7-0.6,1s-0.6,0.5-0.9,0.6c-0.3,0.2-0.7,0.3-1.1,0.4
					c-0.4,0.1-0.9,0.2-1.3,0.2c-0.5,0-0.9,0.1-1.4,0.1h-0.2v-2H166.7z M169.3,28.9l-1.4-1.4l1.4-1.4l1.4,1.4L169.3,28.9z
					 M169.3,31.6c-0.1,0-0.2,0-0.3,0.1s-0.2,0.1-0.3,0.2c-0.1,0.1-0.1,0.2-0.2,0.3c-0.1,0.1-0.1,0.3-0.1,0.4c0,0.1,0,0.2,0.1,0.3
					s0.2,0.1,0.3,0.2c0.1,0,0.3,0.1,0.4,0.1c0.1,0,0.3,0,0.4,0s0.3,0,0.4,0c0.1,0,0.2,0,0.3,0c0-0.2-0.1-0.4-0.1-0.6
					c-0.1-0.2-0.1-0.4-0.2-0.5c-0.1-0.1-0.2-0.3-0.3-0.4C169.6,31.6,169.5,31.6,169.3,31.6z"/>
				<path d="M180,37.4c-0.3,0-0.7-0.1-1-0.2c-0.3-0.1-0.7-0.3-0.9-0.5c-0.3-0.2-0.5-0.5-0.7-0.8s-0.3-0.7-0.3-1.1
					c0-0.8,0.4-1.7,1.1-2.6c0.1-0.1,0.1-0.1,0.1-0.2l0.1-0.1l0.1-0.1l0.1-0.1l-0.4-0.3l1.3-1.5c0.2,0.1,0.5,0.4,0.8,0.6
					c0.3,0.3,0.6,0.6,1,1c1.1,1.2,1.6,2.3,1.6,3.3c0,0.4-0.1,0.8-0.3,1.1s-0.4,0.6-0.7,0.8s-0.6,0.4-0.9,0.5
					C180.7,37.3,180.3,37.4,180,37.4z M181.2,34.8c0-0.1,0-0.3-0.1-0.4c-0.1-0.2-0.2-0.3-0.3-0.5s-0.3-0.4-0.4-0.5
					c-0.2-0.2-0.3-0.4-0.5-0.5c-0.1,0.1-0.2,0.3-0.4,0.4c-0.1,0.1-0.2,0.3-0.3,0.5s-0.2,0.4-0.3,0.5c-0.1,0.2-0.1,0.4-0.1,0.6
					c0,0.1,0,0.2,0.1,0.3s0.2,0.1,0.3,0.2c0.1,0,0.3,0.1,0.4,0.1c0.1,0,0.3,0,0.4,0c0.1,0,0.3,0,0.4,0c0.1,0,0.3,0,0.4-0.1
					c0.1-0.1,0.2-0.1,0.3-0.2C181.1,35,181.2,34.9,181.2,34.8z"/>
				<path d="M186.9,33.6c0.1,0.3,0.2,0.6,0.3,0.9c0.1,0.3,0.1,0.6,0.2,1c0.1,0.3,0.1,0.6,0.1,0.9c0,0.4-0.1,0.8-0.2,1.2
					s-0.3,0.7-0.4,1.1c-0.2,0.3-0.4,0.7-0.7,1s-0.6,0.6-0.9,0.9c-0.3,0.3-0.7,0.6-1,0.8c-0.4,0.2-0.8,0.5-1.2,0.7l-1.2-1.6
					c0.3-0.1,0.6-0.3,0.9-0.5c0.3-0.2,0.6-0.4,0.9-0.6c0.3-0.2,0.6-0.4,0.8-0.7c0.2-0.2,0.4-0.5,0.6-0.7c0.2-0.3,0.3-0.5,0.4-0.7
					c0.1-0.3,0.1-0.5,0.1-0.7s0-0.4-0.1-0.6s-0.1-0.4-0.2-0.7c-0.1-0.2-0.2-0.5-0.3-0.7c-0.1-0.3-0.2-0.6-0.4-0.9l1.8-0.8
					C186.8,33,186.8,33.3,186.9,33.6z"/>
				<path d="M191.6,37.4c-0.5,0-1-0.1-1.3-0.2s-0.7-0.3-0.9-0.6s-0.4-0.5-0.5-0.9c-0.1-0.3-0.1-0.7-0.1-1.1c0-0.2,0-0.4,0-0.7
					s0-0.6,0-1s0-0.8,0-1.3s0-0.9,0-1.4s0-0.9-0.1-1.4c0-0.4-0.1-0.8-0.1-1.1l1.9-0.6c0.1,0.3,0.1,0.6,0.1,1s0.1,0.8,0.1,1.2
					c0,0.4,0,0.8,0,1.2s0,0.8,0,1.2c0,0.3,0,0.6,0,1c0,0.3,0,0.7,0,1s0,0.6,0,0.9c0,0.3,0.1,0.4,0.1,0.6c0,0.1,0.1,0.2,0.1,0.2
					c0.1,0,0.1,0.1,0.2,0.1c0.1,0,0.1,0,0.3,0c0.1,0,0.2,0,0.3,0h0.2v2L191.6,37.4L191.6,37.4z"/>
				<path d="M205.3,35.4v2h-13.7v-2H205.3z"/>
				<path d="M205,35.4h0.4c0-0.3,0.1-0.6,0.1-0.9c0.1-0.3,0.2-0.7,0.3-1s0.3-0.6,0.4-1c0.2-0.3,0.4-0.6,0.6-0.8
					c0.2-0.2,0.4-0.4,0.7-0.6c0.2-0.1,0.5-0.2,0.8-0.3c0.3,0,0.5,0.1,0.8,0.2c0.2,0.1,0.4,0.4,0.6,0.6c0.2,0.3,0.3,0.5,0.4,0.8
					c0.1,0.3,0.1,0.6,0.1,1s-0.1,0.7-0.2,1.1c-0.1,0.4-0.4,0.7-0.6,1c-0.3,0.3-0.6,0.6-0.9,0.8c-0.3,0.3-0.7,0.4-1,0.6
					c0,0.1,0.1,0.2,0.2,0.4c0.1,0.1,0.2,0.3,0.3,0.4c0.1,0.1,0.2,0.3,0.4,0.4s0.2,0.2,0.3,0.3c0-0.2,0-0.5,0.1-0.7
					c0.1-0.3,0.2-0.5,0.3-0.7s0.3-0.4,0.5-0.7s0.4-0.4,0.6-0.5c0.2-0.1,0.4-0.3,0.7-0.4c0.2-0.1,0.4-0.1,0.7-0.1h0.3v2h-0.3
					c-0.2,0-0.4,0-0.5,0.1c-0.2,0.1-0.3,0.2-0.4,0.4c-0.1,0.1-0.2,0.3-0.3,0.5s-0.1,0.4-0.1,0.6c0,0.1,0,0.2,0,0.2
					c0,0.1,0,0.1,0.1,0.2c0,0.1,0.1,0.1,0.1,0.2c0.1,0.1,0.1,0.2,0.2,0.3l-1.2,1.4c-0.5-0.3-0.9-0.6-1.3-0.9s-0.7-0.6-1-1
					c-0.3-0.3-0.5-0.7-0.7-1s-0.3-0.7-0.5-1h-1L205,35.4L205,35.4z M208.7,33.8c0-0.1,0-0.2,0-0.4c0-0.1,0-0.3-0.1-0.4
					c0-0.1-0.1-0.2-0.1-0.3c-0.1-0.1-0.1-0.2-0.2-0.2c-0.1,0-0.2,0.1-0.3,0.2c-0.1,0.1-0.2,0.3-0.3,0.4c-0.1,0.2-0.2,0.3-0.3,0.6
					c-0.1,0.2-0.2,0.4-0.2,0.6c-0.1,0.2-0.1,0.4-0.2,0.6c0,0.2-0.1,0.4-0.1,0.5c0.2,0,0.4-0.1,0.6-0.2c0.2-0.1,0.4-0.2,0.5-0.4
					c0.2-0.1,0.3-0.3,0.4-0.5C208.6,34.2,208.7,34,208.7,33.8z"/>
				<path d="M211.5,35.4h0.9c0.2,0,0.4,0,0.6,0c0.2,0,0.4-0.1,0.6-0.1s0.3-0.1,0.4-0.3c0.1-0.1,0.2-0.3,0.2-0.4c0-0.1,0-0.3-0.1-0.4
					c-0.1-0.2-0.1-0.4-0.2-0.7c-0.1-0.2-0.2-0.5-0.3-0.8s-0.2-0.5-0.4-0.8L215,31c0.1,0.3,0.2,0.6,0.3,0.8c0.1,0.3,0.2,0.6,0.3,0.9
					c0.1,0.3,0.2,0.6,0.2,0.9c0.1,0.3,0.1,0.6,0.1,0.9c0,0.5-0.1,0.9-0.3,1.3s-0.4,0.7-0.7,0.9s-0.7,0.4-1.1,0.5
					c-0.4,0.1-0.9,0.2-1.4,0.2h-1L211.5,35.4L211.5,35.4z M213.5,40.8l-1.4-1.4l1.4-1.4l1.4,1.4L213.5,40.8z"/>
			</g>
		</g>
		<g>
			<g>
				<path class="st1" d="M133,30.4c0.1,0.1,0.1,0.3,0.2,0.5s0.2,0.4,0.3,0.6s0.2,0.5,0.3,0.7c0.1,0.3,0.1,0.5,0.2,0.8
					c0.1,0.3,0.1,0.5,0.1,0.8c0,0.4-0.1,0.8-0.2,1.2c-0.1,0.4-0.3,0.7-0.5,0.9c-0.2,0.3-0.5,0.5-0.9,0.6c-0.3,0.1-0.7,0.2-1.2,0.2
					c-0.4,0-0.7-0.1-0.9-0.2c-0.2-0.1-0.4-0.3-0.6-0.5c-0.1,0.1-0.2,0.2-0.3,0.3s-0.2,0.2-0.4,0.2c-0.1,0.1-0.3,0.1-0.5,0.1
					s-0.4,0-0.6,0c-0.2,0-0.3,0-0.5,0c-0.1,0-0.3-0.1-0.4-0.1c0,0.5-0.1,0.9-0.2,1.3c-0.1,0.4-0.3,0.8-0.6,1.1
					c-0.3,0.3-0.5,0.6-0.9,0.8c-0.3,0.2-0.7,0.4-1.1,0.6s-0.8,0.3-1.2,0.3c-0.4,0.1-0.8,0.1-1.3,0.1c-0.6,0-1.2-0.1-1.8-0.3
					c-0.6-0.2-1-0.5-1.4-0.9s-0.7-0.9-0.9-1.4c-0.2-0.5-0.3-1.1-0.3-1.8c0-0.4,0.1-0.8,0.1-1.2c0.1-0.4,0.2-0.8,0.3-1.2
					c0.1-0.4,0.3-0.7,0.5-1.1c0.2-0.3,0.3-0.6,0.5-0.9l1.4,1c-0.1,0.3-0.3,0.5-0.4,0.8s-0.3,0.6-0.4,0.8c-0.1,0.3-0.2,0.6-0.3,0.9
					c-0.1,0.3-0.1,0.6-0.1,0.8c0,0.3,0,0.6,0.2,0.9c0.1,0.3,0.3,0.5,0.6,0.7c0.3,0.2,0.5,0.4,0.9,0.5c0.3,0.1,0.7,0.2,1.1,0.2
					s0.8,0,1.2-0.1c0.4-0.1,0.7-0.2,1-0.3s0.5-0.3,0.7-0.5s0.3-0.4,0.4-0.7l0,0c0.1-0.3,0.1-0.7,0.1-1.1c0-0.3,0-0.6-0.1-0.9
					s-0.2-0.6-0.3-0.9c-0.1-0.3-0.3-0.6-0.4-0.9s-0.3-0.6-0.4-0.9l1.7-1c0.1,0.3,0.2,0.5,0.3,0.7c0.1,0.3,0.2,0.5,0.3,0.7
					c0.1,0.2,0.2,0.4,0.3,0.6c0.1,0.2,0.2,0.4,0.4,0.5c0.1,0.1,0.3,0.3,0.4,0.3c0.1,0.1,0.3,0.1,0.4,0.1c0.2,0,0.3-0.1,0.4-0.2
					c0.1-0.1,0.2-0.2,0.3-0.4c0.1-0.1,0.1-0.3,0.1-0.5s0-0.4,0-0.6c0-0.2,0-0.4,0-0.6s0-0.4,0-0.5l1.7-0.2c0,0.1,0.1,0.3,0.1,0.5
					s0,0.4,0.1,0.6s0.1,0.4,0.1,0.6c0,0.2,0.1,0.4,0.2,0.6s0.1,0.3,0.3,0.4c0.1,0.1,0.2,0.2,0.4,0.3c0.1,0,0.3,0,0.4-0.1
					s0.2-0.1,0.3-0.2c0.1-0.1,0.1-0.2,0.2-0.3s0.1-0.3,0.1-0.5c0-0.1,0-0.3-0.1-0.5s-0.1-0.4-0.2-0.6c-0.1-0.2-0.2-0.5-0.3-0.7
					c-0.1-0.3-0.3-0.5-0.4-0.8l1.6-0.9C132.9,30.2,132.9,30.3,133,30.4z"/>
				<path class="st1" d="M138,33c0.1,0.3,0.2,0.6,0.3,0.9c0.1,0.3,0.1,0.6,0.2,1c0.1,0.3,0.1,0.6,0.1,0.9c0,0.4-0.1,0.8-0.2,1.2
					c-0.1,0.4-0.3,0.7-0.4,1.1s-0.4,0.7-0.7,1s-0.6,0.6-0.9,0.9c-0.3,0.3-0.7,0.6-1,0.8c-0.4,0.2-0.8,0.5-1.2,0.7l-1.2-1.6
					c0.3-0.1,0.6-0.3,0.9-0.5c0.3-0.2,0.6-0.4,0.9-0.6s0.6-0.4,0.8-0.7c0.2-0.2,0.4-0.5,0.6-0.7c0.2-0.3,0.3-0.5,0.4-0.7
					c0.1-0.3,0.1-0.5,0.1-0.7s0-0.4-0.1-0.6c0-0.2-0.1-0.4-0.2-0.7c-0.1-0.2-0.2-0.5-0.3-0.7c-0.1-0.3-0.2-0.6-0.4-0.9l1.8-0.8
					C137.8,32.4,137.9,32.7,138,33z"/>
				<path class="st1" d="M140.4,34.2c0.2,0.1,0.5,0.2,0.7,0.3c0.3,0.1,0.5,0.2,0.7,0.2c0.2,0.1,0.4,0.1,0.6,0.1c0.1,0,0.2,0,0.4,0
					s0.3,0,0.5-0.1c0.2,0,0.3-0.1,0.4-0.2c0.1-0.1,0.2-0.2,0.2-0.3c0-0.2,0-0.3-0.1-0.6c-0.1-0.2-0.2-0.4-0.4-0.6s-0.4-0.4-0.6-0.7
					c-0.2-0.2-0.5-0.4-0.7-0.7c-0.2-0.2-0.5-0.4-0.7-0.6s-0.5-0.3-0.7-0.5l1.1-1.6c0.4,0.3,0.8,0.6,1.2,1s0.8,0.7,1.1,1.1
					s0.6,0.8,0.9,1.2c0.3,0.4,0.4,0.9,0.5,1.3c0,0.1,0.1,0.2,0.1,0.4c0,0.1,0,0.2,0,0.4c0,0.4-0.1,0.7-0.2,1.1
					c-0.1,0.3-0.4,0.6-0.6,0.8c-0.3,0.2-0.6,0.4-1,0.6c-0.4,0.1-0.8,0.2-1.2,0.2h-0.1h-0.1c-0.3,0-0.6,0-0.9-0.1
					c-0.3-0.1-0.6-0.1-0.9-0.2c-0.3-0.1-0.6-0.2-0.9-0.3s-0.5-0.3-0.8-0.4l0.8-1.9C139.9,33.9,140.1,34,140.4,34.2z"/>
				<path class="st1" d="M146.8,35.7c0-0.4,0-0.7,0.1-1.1c0-0.4,0-0.7,0-1s0-0.7,0-0.9c0-0.6,0-1.1-0.1-1.6c0-0.4,0-0.9-0.1-1.2
					c0-0.3,0-0.7-0.1-0.9s0-0.5-0.1-0.7c0-0.2,0-0.4-0.1-0.6c0-0.2-0.1-0.4-0.1-0.6l1.9-0.6c0.1,0.6,0.2,1.1,0.2,1.7
					c0.1,0.6,0.1,1.1,0.1,1.6s0,1,0.1,1.4c0,0.4,0,0.8,0,1.2c0,0.3,0,0.6,0,0.9s0,0.7,0,1c0,0.4,0,0.7,0,1.1c0,0.4,0,0.7-0.1,1.1
					l-1.9,0.3C146.8,36.4,146.8,36,146.8,35.7z"/>
				<path class="st1" d="M154.3,36.7c-0.1,0-0.2,0-0.4,0c-0.1,0-0.3-0.1-0.5-0.1c-0.1,0.5-0.3,1-0.5,1.5c-0.3,0.5-0.6,0.9-0.9,1.3
					c-0.4,0.4-0.8,0.8-1.3,1.1s-1,0.7-1.5,0.9l-1.2-1.6c0.3-0.1,0.6-0.3,0.9-0.5c0.3-0.2,0.6-0.4,0.9-0.6c0.3-0.2,0.5-0.4,0.8-0.6
					c0.2-0.2,0.4-0.4,0.6-0.7c0.2-0.2,0.3-0.5,0.4-0.7c0.1-0.2,0.1-0.5,0.1-0.7s0-0.4-0.1-0.6c-0.1-0.3-0.1-0.5-0.2-0.8
					c-0.1-0.3-0.2-0.6-0.3-0.9c-0.1-0.3-0.2-0.6-0.3-0.8l1.8-0.8c0.2,0.5,0.3,0.9,0.5,1.3c0.2,0.3,0.3,0.6,0.4,0.8
					c0.1,0.2,0.3,0.3,0.4,0.4s0.3,0.1,0.4,0.1h0.1L154.3,36.7L154.3,36.7L154.3,36.7z"/>
				<path class="st1" d="M166.3,34.7v2h-12.2v-2H166.3z"/>
				<path class="st1" d="M166.3,34.7c0.1,0,0.3,0,0.6,0s0.4,0,0.7,0s0.5,0,0.8,0s0.5,0,0.7-0.1s0.4-0.1,0.6-0.1
					c0.2-0.1,0.4-0.1,0.5-0.2c-0.6,0.1-1,0.1-1.5,0c-0.4,0-0.9-0.1-1.2-0.3c-0.3-0.1-0.6-0.4-0.8-0.7s-0.3-0.7-0.3-1.2
					c0-0.2,0-0.5,0.1-0.7c0-0.2,0.1-0.5,0.2-0.7c0.1-0.2,0.2-0.5,0.3-0.7s0.3-0.4,0.5-0.6c0.2-0.1,0.4-0.3,0.6-0.4
					c0.2-0.1,0.5-0.1,0.7-0.1c0.3,0,0.6,0.1,0.9,0.2c0.3,0.1,0.5,0.3,0.7,0.5s0.4,0.5,0.6,0.7c0.2,0.3,0.3,0.6,0.4,0.9
					c0.1,0.3,0.2,0.6,0.2,1c0.1,0.3,0.1,0.6,0.1,0.9c0,0.5-0.1,0.9-0.2,1.3c-0.1,0.4-0.3,0.7-0.6,1s-0.6,0.5-0.9,0.6
					c-0.3,0.2-0.7,0.3-1.1,0.4c-0.4,0.1-0.9,0.2-1.3,0.2c-0.5,0-0.9,0.1-1.4,0.1H166v-2H166.3z M168.8,28.3l-1.4-1.4l1.4-1.4
					l1.4,1.4L168.8,28.3z M168.9,30.9c-0.1,0-0.2,0-0.3,0.1s-0.2,0.1-0.3,0.2s-0.1,0.2-0.2,0.3S168,31.9,168,32c0,0.1,0,0.2,0.1,0.3
					s0.2,0.1,0.3,0.2c0.1,0,0.3,0.1,0.4,0.1s0.3,0,0.4,0c0.1,0,0.3,0,0.4,0s0.2,0,0.3,0c0-0.2-0.1-0.4-0.1-0.6
					c-0.1-0.2-0.1-0.4-0.2-0.5c-0.1-0.1-0.2-0.3-0.3-0.4C169.2,31,169,30.9,168.9,30.9z"/>
				<path class="st1" d="M179.5,36.7c-0.3,0-0.7-0.1-1-0.2c-0.3-0.1-0.7-0.3-0.9-0.5c-0.3-0.2-0.5-0.5-0.7-0.8s-0.3-0.7-0.3-1.1
					c0-0.8,0.4-1.7,1.1-2.6c0.1-0.1,0.1-0.1,0.1-0.2l0.1-0.1l0.1-0.1l0.1-0.1l-0.4-0.3l1.3-1.5c0.2,0.1,0.5,0.4,0.8,0.6s0.6,0.6,1,1
					c1.1,1.2,1.6,2.3,1.6,3.3c0,0.4-0.1,0.8-0.3,1.1s-0.4,0.6-0.7,0.8s-0.6,0.4-0.9,0.5C180.2,36.7,179.9,36.7,179.5,36.7z
					 M180.8,34.2c0-0.1,0-0.3-0.1-0.4s-0.2-0.3-0.3-0.5s-0.3-0.4-0.4-0.5c-0.2-0.2-0.3-0.4-0.5-0.5c-0.1,0.1-0.2,0.3-0.4,0.4
					c-0.1,0.1-0.2,0.3-0.3,0.5s-0.2,0.4-0.3,0.5c-0.1,0.2-0.1,0.4-0.1,0.6c0,0.1,0,0.2,0.1,0.3s0.2,0.1,0.3,0.2
					c0.1,0,0.3,0.1,0.4,0.1s0.3,0,0.4,0c0.1,0,0.3,0,0.4,0c0.1,0,0.3,0,0.4-0.1c0.1-0.1,0.2-0.1,0.3-0.2
					C180.7,34.4,180.8,34.3,180.8,34.2z"/>
				<path class="st1" d="M186.5,33c0.1,0.3,0.2,0.6,0.3,0.9c0.1,0.3,0.1,0.6,0.2,1c0.1,0.3,0.1,0.6,0.1,0.9c0,0.4-0.1,0.8-0.2,1.2
					c-0.1,0.4-0.3,0.7-0.4,1.1s-0.4,0.7-0.7,1s-0.6,0.6-0.9,0.9c-0.3,0.3-0.7,0.6-1,0.8c-0.4,0.2-0.8,0.5-1.2,0.7l-1.2-1.6
					c0.3-0.1,0.6-0.3,0.9-0.5c0.3-0.2,0.6-0.4,0.9-0.6c0.3-0.2,0.6-0.4,0.8-0.7c0.2-0.2,0.4-0.5,0.6-0.7c0.2-0.3,0.3-0.5,0.4-0.7
					c0.1-0.3,0.1-0.5,0.1-0.7s0-0.4-0.1-0.6c0-0.2-0.1-0.4-0.2-0.7c-0.1-0.2-0.2-0.5-0.3-0.7c-0.1-0.3-0.2-0.6-0.4-0.9l1.8-0.8
					C186.3,32.4,186.4,32.7,186.5,33z"/>
				<path class="st1" d="M191.2,36.7c-0.5,0-1-0.1-1.3-0.2c-0.4-0.1-0.7-0.3-0.9-0.6c-0.2-0.2-0.4-0.5-0.5-0.9
					c-0.1-0.3-0.1-0.7-0.1-1.1c0-0.2,0-0.4,0-0.7s0-0.6,0-1c0-0.4,0-0.8,0-1.3s0-0.9,0-1.4s0-0.9-0.1-1.4c0-0.4-0.1-0.8-0.1-1.1
					l1.9-0.6c0.1,0.3,0.1,0.6,0.1,1s0.1,0.8,0.1,1.2s0,0.8,0,1.2c0,0.4,0,0.8,0,1.2c0,0.3,0,0.6,0,1c0,0.4,0,0.7,0,1s0,0.6,0,0.9
					c0,0.3,0.1,0.4,0.1,0.6c0,0.1,0.1,0.2,0.1,0.2c0.1,0,0.1,0.1,0.2,0.1c0.1,0,0.1,0,0.3,0c0.1,0,0.2,0,0.3,0h0.2v2L191.2,36.7
					L191.2,36.7z"/>
				<path class="st1" d="M204.8,34.7v2h-13.7v-2H204.8z"/>
				<path class="st1" d="M204.6,34.7h0.4c0-0.3,0.1-0.6,0.1-0.9c0.1-0.3,0.2-0.7,0.3-1s0.3-0.6,0.4-1c0.2-0.3,0.4-0.6,0.6-0.8
					c0.2-0.2,0.4-0.4,0.7-0.6c0.2-0.1,0.5-0.2,0.8-0.3c0.3,0,0.5,0.1,0.8,0.2c0.2,0.1,0.4,0.4,0.6,0.6c0.2,0.3,0.3,0.5,0.4,0.8
					c0.1,0.3,0.1,0.6,0.1,1s-0.1,0.7-0.2,1.1c-0.1,0.4-0.4,0.7-0.6,1c-0.3,0.3-0.6,0.6-0.9,0.8c-0.3,0.3-0.7,0.4-1,0.6
					c0,0.1,0.1,0.2,0.2,0.4c0.1,0.1,0.2,0.3,0.3,0.4c0.1,0.1,0.2,0.3,0.4,0.4c0.1,0.1,0.2,0.2,0.3,0.3c0-0.2,0-0.5,0.1-0.7
					c0.1-0.3,0.2-0.5,0.3-0.7s0.3-0.4,0.5-0.7c0.2-0.2,0.4-0.4,0.6-0.5c0.2-0.1,0.4-0.3,0.7-0.4s0.4-0.1,0.7-0.1h0.3v2h-0.3
					c-0.2,0-0.4,0-0.5,0.1s-0.3,0.2-0.4,0.4c-0.1,0.1-0.2,0.3-0.3,0.5s-0.1,0.4-0.1,0.6c0,0.1,0,0.2,0,0.2c0,0.1,0,0.1,0.1,0.2
					c0,0.1,0.1,0.1,0.1,0.2c0.1,0.1,0.1,0.2,0.2,0.3l-1.2,1.4c-0.5-0.3-0.9-0.6-1.3-0.9s-0.7-0.6-1-1c-0.3-0.3-0.5-0.7-0.7-1
					s-0.3-0.7-0.5-1h-0.9v-1.9C204.7,34.7,204.6,34.7,204.6,34.7z M208.3,33.2c0-0.1,0-0.2,0-0.4c0-0.1,0-0.3-0.1-0.4
					c0-0.1-0.1-0.2-0.1-0.3c-0.1-0.1-0.1-0.2-0.2-0.2c-0.1,0-0.2,0.1-0.3,0.2c-0.1,0.1-0.2,0.3-0.3,0.4c-0.1,0.2-0.2,0.3-0.3,0.6
					c-0.1,0.2-0.2,0.4-0.2,0.6c-0.1,0.2-0.1,0.4-0.2,0.6c0,0.2-0.1,0.4-0.1,0.5c0.2,0,0.4-0.1,0.6-0.2c0.2-0.1,0.4-0.2,0.5-0.4
					c0.2-0.1,0.3-0.3,0.4-0.5C208.2,33.5,208.3,33.3,208.3,33.2z"/>
				<path class="st1" d="M211.1,34.7h0.9c0.2,0,0.4,0,0.6,0c0.2,0,0.4-0.1,0.6-0.1c0.2-0.1,0.3-0.1,0.4-0.3c0.1-0.1,0.2-0.3,0.2-0.4
					c0-0.1,0-0.3-0.1-0.4c-0.1-0.2-0.1-0.4-0.2-0.7c-0.1-0.2-0.2-0.5-0.3-0.8s-0.2-0.5-0.4-0.8l1.8-0.9c0.1,0.3,0.2,0.6,0.3,0.8
					c0.1,0.3,0.2,0.6,0.3,0.9s0.2,0.6,0.2,0.9c0.1,0.3,0.1,0.6,0.1,0.9c0,0.5-0.1,0.9-0.3,1.3c-0.2,0.4-0.4,0.7-0.7,0.9
					s-0.7,0.4-1.1,0.5c-0.4,0.1-0.9,0.2-1.4,0.2h-1L211.1,34.7L211.1,34.7z M213.1,40.2l-1.4-1.4l1.4-1.4l1.4,1.4L213.1,40.2z"/>
			</g>
		</g>
	</g>
</g>
<g>
	<path class="st1" d="M312.4,20h5.9c0.5,0,0.9-0.1,1.1-0.3c0.2-0.2,0.4-0.6,0.4-1.1v-1.3V17h0.3h1.3h0.3v0.3v1.3
		c0,1-0.3,1.9-0.9,2.4c-0.6,0.6-1.4,0.8-2.5,0.8h-5.9c-1.1,0-1.9-0.3-2.6-0.8c-0.6-0.6-0.9-1.3-0.9-2.4v-1.3V17h0.3h1.3h0.3v0.3v1.3
		c0,0.5,0.1,0.9,0.4,1.1C311.4,19.9,311.8,20,312.4,20z M312.8,15.8l1.2-1.1l1.2,1.1L314,17L312.8,15.8z M315.4,15.8l1.2-1.1
		l1.2,1.1c0,0-0.1,0.1-0.1,0.1c-0.1,0.1-0.2,0.2-0.5,0.5c-0.3,0.2-0.5,0.5-0.6,0.6L315.4,15.8z"/>
	<path class="st1" d="M326.3,21.8H326c-0.9,0-1.5-0.2-1.9-0.7c-0.5-0.5-0.7-1.2-0.7-2v-5.8v-0.3h0.3h1.2h0.3v0.3V19
		c0,0.4,0.1,0.6,0.2,0.8c0.1,0.2,0.4,0.2,0.7,0.2h0.3c0.1,0,0.1,0.1,0.1,0.3c0,0.2,0.1,0.4,0.1,0.5v0.1c0,0.2,0,0.4-0.1,0.6
		C326.4,21.7,326.4,21.8,326.3,21.8z"/>
	<path class="st1" d="M328.1,20c0.1,0,0.1,0.1,0.1,0.3c0,0.2,0.1,0.4,0.1,0.5v0.1c0,0.2,0,0.4-0.1,0.6c0,0.2-0.1,0.3-0.1,0.3h-1.9
		c-0.1,0-0.1-0.1-0.1-0.3c0-0.2-0.1-0.4-0.1-0.6v-0.1c0-0.2,0-0.3,0.1-0.5c0-0.2,0.1-0.3,0.1-0.3H328.1z"/>
	<path class="st1" d="M329.9,20c0.1,0,0.1,0.1,0.1,0.3c0,0.2,0.1,0.4,0.1,0.5v0.1c0,0.2,0,0.4-0.1,0.6c0,0.2-0.1,0.3-0.1,0.3h-1.9
		c-0.1,0-0.1-0.1-0.1-0.3c0-0.2-0.1-0.4-0.1-0.6v-0.1c0-0.2,0-0.3,0.1-0.5c0-0.2,0.1-0.3,0.1-0.3H329.9z"/>
	<path class="st1" d="M331.7,20c0.1,0,0.1,0.1,0.1,0.3c0,0.2,0.1,0.4,0.1,0.5v0.1c0,0.2,0,0.4-0.1,0.6c0,0.2-0.1,0.3-0.1,0.3h-1.9
		c-0.1,0-0.1-0.1-0.1-0.3c0-0.2-0.1-0.4-0.1-0.6v-0.1c0-0.2,0-0.3,0.1-0.5c0-0.2,0.1-0.3,0.1-0.3H331.7z"/>
	<path class="st1" d="M333.5,20c0.1,0,0.1,0.1,0.1,0.3c0,0.2,0.1,0.4,0.1,0.5v0.1c0,0.2,0,0.4-0.1,0.6c0,0.2-0.1,0.3-0.1,0.3h-1.9
		c-0.1,0-0.1-0.1-0.1-0.3c0-0.2-0.1-0.4-0.1-0.6v-0.1c0-0.2,0-0.3,0.1-0.5c0-0.2,0.1-0.3,0.1-0.3H333.5z"/>
	<path class="st1" d="M333.4,20h1.5c-0.4-0.5-0.6-1-0.6-1.5c0-0.8,0.3-1.5,0.9-2.1c0.6-0.6,1.3-0.8,2.2-0.8c1,0,1.9,0.4,2.5,1.1
		l0.1,0.1L340,17l-0.5,0.9l-0.2,0.3l-0.3-0.2c-0.4-0.4-0.9-0.6-1.5-0.6c-0.4,0-0.7,0.1-1,0.3c-0.3,0.2-0.4,0.5-0.4,0.8
		c0,0.3,0.2,0.6,0.6,0.9c0.3,0.3,0.6,0.4,0.8,0.4c0.1,0,0.5-0.1,0.9-0.1l1.5-0.3l0.3-0.1v0.3v1.2V21l-0.2,0.1
		c-1.7,0.5-3.2,0.7-4.5,0.7h-2.2c-0.1,0-0.1-0.1-0.1-0.3c0-0.2-0.1-0.4-0.1-0.6v-0.1c0-0.2,0-0.3,0.1-0.5
		C333.3,20.1,333.4,20,333.4,20z"/>
	<path class="st1" d="M345.1,21.8h-0.3c-0.9,0-1.5-0.2-1.9-0.7c-0.5-0.5-0.7-1.2-0.7-2v-5.8v-0.3h0.3h1.2h0.3v0.3V19
		c0,0.4,0.1,0.6,0.2,0.8c0.1,0.2,0.4,0.2,0.7,0.2h0.3c0.1,0,0.1,0.1,0.1,0.3c0,0.2,0.1,0.4,0.1,0.5v0.1c0,0.2,0,0.4-0.1,0.6
		C345.2,21.7,345.1,21.8,345.1,21.8z"/>
	<path class="st1" d="M346.9,20c0.1,0,0.1,0.1,0.1,0.3c0,0.2,0.1,0.4,0.1,0.5v0.1c0,0.2,0,0.4-0.1,0.6c0,0.2-0.1,0.3-0.1,0.3H345
		c-0.1,0-0.1-0.1-0.1-0.3c0-0.2-0.1-0.4-0.1-0.6v-0.1c0-0.2,0-0.3,0.1-0.5c0-0.2,0.1-0.3,0.1-0.3H346.9z"/>
	<path class="st1" d="M348.6,20c0.1,0,0.1,0.1,0.1,0.3c0,0.2,0.1,0.4,0.1,0.5v0.1c0,0.2,0,0.4-0.1,0.6c0,0.2-0.1,0.3-0.1,0.3h-1.9
		c-0.1,0-0.1-0.1-0.1-0.3c0-0.2-0.1-0.4-0.1-0.6v-0.1c0-0.2,0-0.3,0.1-0.5c0-0.2,0.1-0.3,0.1-0.3H348.6z"/>
	<path class="st1" d="M350.4,20c0.1,0,0.1,0.1,0.1,0.3c0,0.2,0.1,0.4,0.1,0.5v0.1c0,0.2,0,0.4-0.1,0.6c0,0.2-0.1,0.3-0.1,0.3h-1.9
		c-0.1,0-0.1-0.1-0.1-0.3c0-0.2-0.1-0.4-0.1-0.6v-0.1c0-0.2,0-0.3,0.1-0.5c0-0.2,0.1-0.3,0.1-0.3H350.4z"/>
	<path class="st1" d="M350.4,20h0.7c0.5,0,0.9-0.1,1.1-0.2c0.2-0.2,0.3-0.4,0.3-0.8v-1.7V17h0.3h1.2h0.3v0.3V19
		c0,0.4,0.1,0.6,0.2,0.8s0.4,0.2,0.8,0.2c0.3,0,0.6-0.1,0.8-0.2c0.2-0.2,0.2-0.4,0.2-0.8v-1.7V17h0.3h1.2h0.3v0.3V19
		c0,0.4,0.1,0.6,0.2,0.8c0.2,0.2,0.4,0.2,0.8,0.2c0.3,0,0.5-0.1,0.6-0.2c0.1-0.1,0.2-0.4,0.2-0.8v-2v-0.3h0.3h1.3h0.3v0.3v2
		c0,0.8-0.2,1.5-0.7,2c-0.5,0.5-1.1,0.7-1.9,0.7c-0.8,0-1.5-0.2-1.9-0.7c-0.5,0.5-1.1,0.7-2,0.7c-0.8,0-1.4-0.3-1.9-0.8
		c-0.5,0.5-1.3,0.8-2.3,0.8h-0.7c-0.1,0-0.1-0.1-0.1-0.3c0-0.2-0.1-0.4-0.1-0.6v-0.1c0-0.2,0-0.3,0.1-0.5
		C350.3,20.1,350.3,20,350.4,20z"/>
	<path class="st1" d="M318.6,33.1h-0.1v0.3c0,0.9-0.4,1.6-1.1,2c-0.7,0.5-1.8,0.7-3.1,0.7h-0.7c-1.5,0-2.6-0.3-3.4-1
		c-0.8-0.7-1.1-1.6-1.1-2.9v-2.3v-0.3h0.3h1.3h0.3v0.3v2.3c0,0.7,0.2,1.3,0.6,1.7c0.4,0.3,1.1,0.5,2,0.5h0.7c0.4,0,0.7,0,1-0.1
		c0.3,0,0.5-0.1,0.7-0.2c0.2-0.1,0.4-0.2,0.5-0.3c0.1-0.1,0.2-0.3,0.2-0.5v-0.2h-1.5c-0.2,0-0.4-0.1-0.5-0.2s-0.2-0.3-0.3-0.6
		c-0.1-0.4-0.1-0.6-0.1-0.7c0-0.1,0.2-0.2,0.4-0.2h3.9c0.1,0,0.1,0.1,0.1,0.3c0,0.2,0.1,0.4,0.1,0.5v0.1c0,0.2,0,0.4-0.1,0.6
		C318.7,33,318.7,33.1,318.6,33.1z M319.5,31.3c0,0,0.1,0.1,0.1,0.3c0,0.2,0,0.4,0,0.5v0.1c0,0.2,0,0.4,0,0.6c0,0.2-0.1,0.3-0.1,0.3
		h-1.1c0,0-0.1-0.1-0.1-0.3c0-0.2,0-0.4,0-0.6v-0.1c0-0.2,0-0.3,0-0.5c0-0.2,0.1-0.3,0.1-0.3H319.5z"/>
	<path class="st1" d="M321.2,31.3c0.1,0,0.1,0.1,0.1,0.3c0,0.2,0.1,0.4,0.1,0.5v0.1c0,0.2,0,0.4-0.1,0.6c0,0.2-0.1,0.3-0.1,0.3h-1.9
		c-0.1,0-0.1-0.1-0.1-0.3c0-0.2-0.1-0.4-0.1-0.6v-0.1c0-0.2,0-0.3,0.1-0.5c0-0.2,0.1-0.3,0.1-0.3H321.2z"/>
	<path class="st1" d="M323,31.3c0.1,0,0.1,0.1,0.1,0.3c0,0.2,0.1,0.4,0.1,0.5v0.1c0,0.2,0,0.4-0.1,0.6c0,0.2-0.1,0.3-0.1,0.3h-1.9
		c-0.1,0-0.1-0.1-0.1-0.3c0-0.2-0.1-0.4-0.1-0.6v-0.1c0-0.2,0-0.3,0.1-0.5c0-0.2,0.1-0.3,0.1-0.3H323z"/>
	<path class="st1" d="M324.8,31.3c0.1,0,0.1,0.1,0.1,0.3c0,0.2,0.1,0.4,0.1,0.5v0.1c0,0.2,0,0.4-0.1,0.6c0,0.2-0.1,0.3-0.1,0.3H323
		c-0.1,0-0.1-0.1-0.1-0.3s-0.1-0.4-0.1-0.6v-0.1c0-0.2,0-0.3,0.1-0.5s0.1-0.3,0.1-0.3H324.8z"/>
	<path class="st1" d="M326.6,31.3c0.1,0,0.1,0.1,0.1,0.3c0,0.2,0.1,0.4,0.1,0.5v0.1c0,0.2,0,0.4-0.1,0.6c0,0.2-0.1,0.3-0.1,0.3h-1.9
		c-0.1,0-0.1-0.1-0.1-0.3c0-0.2-0.1-0.4-0.1-0.6v-0.1c0-0.2,0-0.3,0.1-0.5c0-0.2,0.1-0.3,0.1-0.3H326.6z"/>
	<path class="st1" d="M328.4,31.3c0.1,0,0.1,0.1,0.1,0.3c0,0.2,0.1,0.4,0.1,0.5v0.1c0,0.2,0,0.4-0.1,0.6c0,0.2-0.1,0.3-0.1,0.3h-1.9
		c-0.1,0-0.1-0.1-0.1-0.3c0-0.2-0.1-0.4-0.1-0.6v-0.1c0-0.2,0-0.3,0.1-0.5c0-0.2,0.1-0.3,0.1-0.3H328.4z"/>
	<path class="st1" d="M330.2,31.3c0.1,0,0.1,0.1,0.1,0.3c0,0.2,0.1,0.4,0.1,0.5v0.1c0,0.2,0,0.4-0.1,0.6c0,0.2-0.1,0.3-0.1,0.3h-1.9
		c-0.1,0-0.1-0.1-0.1-0.3s-0.1-0.4-0.1-0.6v-0.1c0-0.2,0-0.3,0.1-0.5s0.1-0.3,0.1-0.3H330.2z"/>
	<path class="st1" d="M330.1,31.3h1.5c0.5,0,0.7-0.1,0.9-0.2c0.2-0.1,0.2-0.4,0.2-0.8v-1.9v-0.3h0.3h1.2h0.3v0.3v2
		c0,0.9-0.3,1.6-0.8,2c-0.5,0.5-1.3,0.7-2.2,0.7h-1.4c-0.1,0-0.1-0.1-0.1-0.3c0-0.2-0.1-0.4-0.1-0.6v-0.1c0-0.2,0-0.3,0.1-0.5
		C330,31.5,330.1,31.3,330.1,31.3z M332,26l1.2-1.1l1.2,1.1l-1.2,1.1L332,26z"/>
	<path class="st1" d="M339.5,33.1h-0.3c-0.9,0-1.5-0.2-1.9-0.7c-0.5-0.5-0.7-1.2-0.7-2v-5.8v-0.3h0.3h1.2h0.3v0.3v5.9
		c0,0.4,0.1,0.6,0.2,0.8c0.1,0.2,0.4,0.2,0.7,0.2h0.3c0.1,0,0.1,0.1,0.1,0.3c0,0.2,0.1,0.4,0.1,0.5v0.1c0,0.2,0,0.4-0.1,0.6
		C339.6,33,339.6,33.1,339.5,33.1z"/>
	<path class="st1" d="M341.3,31.3c0.1,0,0.1,0.1,0.1,0.3c0,0.2,0.1,0.4,0.1,0.5v0.1c0,0.2,0,0.4-0.1,0.6c0,0.2-0.1,0.3-0.1,0.3h-1.9
		c-0.1,0-0.1-0.1-0.1-0.3c0-0.2-0.1-0.4-0.1-0.6v-0.1c0-0.2,0-0.3,0.1-0.5c0-0.2,0.1-0.3,0.1-0.3H341.3z"/>
	<path class="st1" d="M343.1,31.3c0.1,0,0.1,0.1,0.1,0.3c0,0.2,0.1,0.4,0.1,0.5v0.1c0,0.2,0,0.4-0.1,0.6c0,0.2-0.1,0.3-0.1,0.3h-1.9
		c-0.1,0-0.1-0.1-0.1-0.3c0-0.2-0.1-0.4-0.1-0.6v-0.1c0-0.2,0-0.3,0.1-0.5c0-0.2,0.1-0.3,0.1-0.3H343.1z"/>
	<path class="st1" d="M342.5,35.3l1.2-1.1l1.2,1.1l-1.2,1.1L342.5,35.3z M343,31.3h2c0.5,0,0.7-0.1,0.9-0.2c0.2-0.1,0.2-0.4,0.2-0.8
		v-1.9v-0.3h0.3h1.2h0.3v0.3v2c0,0.9-0.3,1.6-0.8,2c-0.5,0.5-1.3,0.7-2.2,0.7h-2c-0.1,0-0.1-0.1-0.1-0.3c0-0.2-0.1-0.4-0.1-0.6v-0.1
		c0-0.2,0-0.3,0.1-0.5C342.9,31.5,343,31.3,343,31.3z M345.1,35.3l1.2-1.1l1.2,1.1c0,0-0.1,0.1-0.1,0.1c-0.1,0.1-0.2,0.2-0.5,0.5
		s-0.5,0.5-0.6,0.6L345.1,35.3z"/>
	<path class="st1" d="M353,33.1h-0.3c-0.9,0-1.5-0.2-1.9-0.7c-0.5-0.5-0.7-1.2-0.7-2v-5.8v-0.3h0.3h1.2h0.3v0.3v5.9
		c0,0.4,0.1,0.6,0.2,0.8c0.1,0.2,0.4,0.2,0.7,0.2h0.3c0.1,0,0.1,0.1,0.1,0.3c0,0.2,0.1,0.4,0.1,0.5v0.1c0,0.2,0,0.4-0.1,0.6
		C353.1,33,353.1,33.1,353,33.1z"/>
	<path class="st1" d="M354.8,31.3c0.1,0,0.1,0.1,0.1,0.3s0.1,0.4,0.1,0.5v0.1c0,0.2,0,0.4-0.1,0.6c0,0.2-0.1,0.3-0.1,0.3h-1.9
		c-0.1,0-0.1-0.1-0.1-0.3c0-0.2-0.1-0.4-0.1-0.6v-0.1c0-0.2,0-0.3,0.1-0.5c0-0.2,0.1-0.3,0.1-0.3H354.8z"/>
	<path class="st1" d="M356.6,31.3c0.1,0,0.1,0.1,0.1,0.3c0,0.2,0.1,0.4,0.1,0.5v0.1c0,0.2,0,0.4-0.1,0.6c0,0.2-0.1,0.3-0.1,0.3h-1.9
		c-0.1,0-0.1-0.1-0.1-0.3s-0.1-0.4-0.1-0.6v-0.1c0-0.2,0-0.3,0.1-0.5c0-0.2,0.1-0.3,0.1-0.3H356.6z"/>
	<path class="st1" d="M356,35l1.1-1.1l1.1,1.1l-1.1,1.1L356,35z M356.5,31.3h2c0.5,0,0.7-0.1,0.9-0.2c0.2-0.1,0.2-0.4,0.2-0.8v-1.9
		v-0.3h0.3h1.3h0.3v0.3v2c0,0.9-0.3,1.6-0.8,2c-0.5,0.5-1.3,0.7-2.2,0.7h-2c-0.1,0-0.1-0.1-0.1-0.3c0-0.2-0.1-0.4-0.1-0.6v-0.1
		c0-0.2,0-0.3,0.1-0.5C356.4,31.5,356.5,31.3,356.5,31.3z M357.3,36.7l1.1-1.1l1.1,1.1l-1.1,1.1L357.3,36.7z M358.6,35l1.1-1.1
		l1.1,1.1l-1.1,1.1L358.6,35z"/>
</g>
</svg>
