<?xml version="1.0" encoding="utf-8"?>
<!-- Generator: Adobe Illustrator 23.0.1, SVG Export Plug-In . SVG Version: 6.00 Build 0)  -->
<svg version="1.1" id="Layer_1" xmlns="http://www.w3.org/2000/svg" xmlns:xlink="http://www.w3.org/1999/xlink" x="0px" y="0px"
	 viewBox="0 0 520 60" style="enable-background:new 0 0 520 60;"  width="422px" height="94px"  xml:space="preserve">
<style type="text/css">
	.st0{fill:#E50000;}
	.st1{fill:#FFFFFF;}
	.st2{fill:#004F49;}
	.st3{opacity:0.35;fill:#FFFFFF;enable-background:new    ;}
	.st4{fill:#061133;stroke:#FFFFFF;stroke-width:2;stroke-miterlimit:10;}
	.st5{fill:#FFC200;}
	.st6{fill:#032D44;}
	.st7{opacity:0.48;}
</style>
<g>
	<g>
		<path class="st0" d="M151.6,50.9H65c-2.7,0-5-2.6-5-5.9V15.1c0-3.2,2.2-5.9,5-5.9h86.5c2.7,0,5,2.6,5,5.9V45
			C156.5,48.2,154.4,50.9,151.6,50.9z"/>
		<path class="st1" d="M151.6,51.4H65c-3,0-5.5-2.9-5.5-6.5V15.1c0-3.6,2.4-6.5,5.5-6.5h86.5c3,0,5.5,2.9,5.5,6.5V45
			C157,48.6,154.7,51.4,151.6,51.4z M65,9.8c-2.4,0-4.4,2.4-4.4,5.3V45c0,2.9,2,5.3,4.4,5.3h86.5c2.5,0,4.4-2.3,4.4-5.3V15.1
			c0-2.9-2-5.3-4.4-5.3H65L65,9.8z"/>
	</g>
	<g>
		<path class="st1" d="M79.4,34.6L79.4,34.6c-1.2,0-2.2-0.5-3.2-1.4c-0.6,0.9-1.9,1.4-3.7,1.4h-3.6h-0.3v-0.3v-1.8v-0.3h0.3h3.4
			c0.1,0,0.1,0,0.2,0s0.1,0,0.1,0c0.4,0,0.6-0.1,0.9-0.1c0.2-0.1,0.4-0.1,0.6-0.2c0.1-0.1,0.2-0.2,0.2-0.2c0.1-0.1,0.1-0.2,0.1-0.3
			c0-0.2-0.1-0.4-0.2-0.6c-0.1-0.1-0.2-0.2-0.2-0.5c-0.1-0.1-0.2-0.3-0.4-0.5L71,26.6l-0.2-0.2l0.2-0.2l1.2-1.3l0.2-0.2l0.2,0.3
			l5.2,6.4c0.6,0.7,1.1,1,1.6,1h0.1c0.1,0,0.2,0.1,0.3,0.1c0.1,0.1,0.1,0.2,0.2,0.2c0,0.1,0,0.2,0,0.3s0,0.2,0,0.4
			c0,0.1,0,0.1,0,0.1v0.1c0,0.3,0,0.6-0.1,0.7c0,0.1-0.1,0.1-0.1,0.2c-0.1,0.1-0.1,0.1-0.1,0.2C79.5,34.6,79.5,34.6,79.4,34.6z"/>
		<path class="st1" d="M87.5,34.6h-0.2c-1.3,0-2.2-0.4-2.9-1.1c-0.7,0.7-1.9,1.1-3.4,1.1h-1.7c-0.2,0-0.5-0.1-0.6-0.3
			s-0.2-0.5-0.2-0.8v-0.1c0-0.3,0.1-0.6,0.2-0.8s0.4-0.4,0.7-0.4h1.7c0.5,0,0.9-0.1,1.2-0.2c0.3-0.1,0.6-0.2,0.7-0.5
			c0.1-0.2,0.2-0.5,0.2-0.9v-2.5v-0.4h0.3h1.7h0.3V28v2.5c0,0.6,0.1,0.9,0.4,1.2c0.2,0.2,0.7,0.4,1.4,0.4h0.2c0.1,0,0.2,0.1,0.3,0.1
			s0.1,0.2,0.2,0.2c0.1,0.1,0.1,0.2,0.1,0.3s0,0.2,0,0.4c0,0.1,0,0.1,0,0.1v0.1v0.1c0,0.1,0,0.1,0,0.2c0,0.1,0,0.1,0,0.2
			c0,0.1,0,0.1-0.1,0.2c0,0.1-0.1,0.1-0.1,0.2c-0.1,0.1-0.1,0.1-0.1,0.1c-0.1,0.1-0.1,0.1-0.1,0.1C87.7,34.6,87.6,34.6,87.5,34.6z
			 M79.4,37.6l0.8-0.9c0.2-0.2,0.6-0.3,0.7-0.1l0.9,0.9c0.2,0.2,0.2,0.6,0,0.8l-0.8,1c-0.2,0.2-0.6,0.2-0.8,0l-0.9-0.9
			C79,38.1,79,37.9,79.4,37.6z M82.8,37.6l0.8-0.9c0.2-0.2,0.6-0.3,0.8-0.1l0.9,0.9c0.2,0.2,0.2,0.6,0,0.8l-0.8,0.9
			c-0.2,0.2-0.6,0.2-0.8,0l-0.9-0.9C82.5,38.1,82.5,37.9,82.8,37.6z"/>
		<path class="st1" d="M95.4,34.6h-0.2c-1.3,0-2.2-0.4-2.9-1.1c-0.7,0.7-1.9,1.1-3.4,1.1h-1.4c-0.2,0-0.5-0.1-0.6-0.3
			s-0.2-0.5-0.2-0.8v-0.1c0-0.3,0.1-0.6,0.2-0.8s0.4-0.4,0.7-0.4H89c0.7,0,1.2-0.1,1.6-0.4c0.3-0.2,0.5-0.6,0.5-1.2v-2.5v-0.3h0.3
			h1.7h0.3v0.3v2.5c0,0.6,0.1,0.9,0.4,1.2c0.2,0.2,0.7,0.4,1.4,0.4h0.2c0.1,0,0.2,0.1,0.3,0.1s0.1,0.2,0.2,0.2
			c0.1,0.1,0.1,0.2,0.1,0.3s0,0.2,0,0.4c0,0.1,0,0.1,0,0.1v0.1v0.1c0,0.1,0,0.1,0,0.1c0,0.1,0,0.1,0,0.1c0,0.1,0,0.1,0,0.2
			s0,0.1-0.1,0.1c0,0.1-0.1,0.1-0.1,0.1c0,0.1-0.1,0.1-0.1,0.1c-0.1,0.1-0.1,0.1-0.1,0.1c-0.1,0.1-0.1,0.1-0.1,0.1
			C95.5,34.6,95.4,34.6,95.4,34.6z M90,23.7l0.8-0.9c0.3-0.3,0.6-0.3,0.8-0.1l0.9,0.9c0.2,0.2,0.2,0.6-0.1,0.9l-0.8,0.9
			c-0.2,0.2-0.6,0.2-0.8,0L90,24.5C89.8,24.3,89.8,24,90,23.7z"/>
		<path class="st1" d="M95.3,34.6c-0.2,0-0.5-0.1-0.6-0.3s-0.2-0.5-0.2-0.8v-0.1c0-0.3,0.1-0.6,0.2-0.8s0.4-0.4,0.7-0.4h3.1
			c0.7,0,1.2-0.1,1.6-0.2c0.3-0.2,0.4-0.4,0.4-0.7c0-0.1,0-0.1-0.1-0.2s-0.1-0.2-0.2-0.3c-0.1-0.1-0.2-0.2-0.3-0.5
			c-0.1-0.2-0.2-0.4-0.4-0.6l-3.1-3.6c-0.4-0.4-0.6-0.9-0.6-1.6c0-0.2,0.1-0.4,0.1-0.6c0.1-0.2,0.1-0.4,0.2-0.5s0.2-0.2,0.4-0.4
			c0.2-0.1,0.4-0.2,0.6-0.2l5.9-2l0.4-0.1v0.4V23v0.2l-0.2,0.1l-4.9,1.6l2.6,3.1c1.1,1.3,1.7,2.5,1.7,3.4c0,1.1-0.4,1.9-1.1,2.5
			s-1.8,0.8-3.2,0.8h-3.1L95.3,34.6L95.3,34.6L95.3,34.6L95.3,34.6z"/>
		<path class="st1" d="M117.8,34.6h-6.9c-1.4,0-2.6-0.4-3.3-1.2c-0.7-0.8-1.1-1.9-1.1-3.5V28v-0.3h0.3h1.7h0.3V28v2
			c0,0.7,0.2,1.3,0.6,1.6c0.2,0.2,0.4,0.3,0.6,0.4c0.2,0.1,0.6,0.1,0.9,0.1h6.9c0.7,0,1.2-0.1,1.6-0.2c0.3-0.1,0.4-0.4,0.5-0.7
			c0-0.1-0.1-0.2-0.2-0.6c-0.2-0.2-0.4-0.6-0.7-0.9l-3.1-3.6c-0.2-0.2-0.3-0.5-0.4-0.7s-0.1-0.6-0.1-0.8c0-0.3,0.1-0.6,0.2-0.8
			c0.1-0.2,0.2-0.5,0.4-0.6c0.2-0.2,0.4-0.3,0.7-0.4l5.9-2l0.4-0.1v0.5V23l0,0l-0.2,0.1l-5,1.6l5.2,6.1c0.7,0.9,1.4,1.4,1.9,1.4h0.2
			c0.1,0,0.2,0.1,0.3,0.1c0.1,0.1,0.1,0.2,0.2,0.3s0.1,0.2,0.1,0.3s0,0.2,0,0.3s0,0.1,0,0.1v0.1v0.1c0,0.1,0,0.2,0,0.2s0,0.1,0,0.2
			c0,0.1,0,0.2-0.1,0.2c-0.1,0.1-0.1,0.1-0.1,0.2c-0.1,0.1-0.1,0.1-0.1,0.1c-0.1,0.1-0.1,0.1-0.2,0.1H125c-1.2,0-2.4-0.6-3.2-1.6
			c-0.1,0.2-0.2,0.3-0.3,0.5c-0.1,0.1-0.2,0.2-0.4,0.4c-0.1,0.1-0.3,0.2-0.5,0.3s-0.4,0.2-0.6,0.2s-0.4,0.1-0.6,0.2
			s-0.4,0.1-0.7,0.1C118.3,34.6,118,34.6,117.8,34.6z"/>
		<path class="st1" d="M133.2,34.6H133c-1.3,0-2.2-0.4-2.9-1.1c-0.7,0.7-1.9,1.1-3.4,1.1H125c-0.2,0-0.5-0.1-0.6-0.3
			s-0.2-0.5-0.2-0.8v-0.1c0-0.3,0.1-0.6,0.2-0.8s0.4-0.4,0.7-0.4h1.7c0.5,0,0.9-0.1,1.2-0.2c0.3-0.1,0.6-0.2,0.7-0.5
			c0.1-0.2,0.2-0.5,0.2-0.9v-2.5v-0.4h0.3h1.7h0.3V28v2.5c0,0.6,0.1,0.9,0.4,1.2c0.2,0.2,0.7,0.4,1.4,0.4h0.2c0.1,0,0.2,0.1,0.3,0.1
			c0.1,0.1,0.1,0.2,0.2,0.2c0.1,0.1,0.1,0.2,0.1,0.3s0,0.2,0,0.4c0,0.1,0,0.1,0,0.1v0.1v0.1c0,0.1,0,0.1,0,0.2c0,0.1,0,0.1,0,0.2
			c0,0.1,0,0.1-0.1,0.2c0,0.1-0.1,0.1-0.1,0.2c-0.1,0.1-0.1,0.1-0.1,0.1c-0.1,0.1-0.1,0.1-0.1,0.1C133.3,34.6,133.3,34.6,133.2,34.6
			z M125,37.6l0.8-0.9c0.2-0.2,0.6-0.3,0.7-0.1l0.9,0.9c0.2,0.2,0.2,0.6,0,0.8l-0.8,0.9c-0.2,0.2-0.6,0.2-0.8,0l-0.9-0.9
			C124.7,38.1,124.7,37.9,125,37.6z M128.4,37.6l0.8-0.9c0.2-0.2,0.6-0.3,0.8-0.1l0.9,0.9c0.2,0.2,0.2,0.6,0,0.8l-0.8,0.9
			c-0.2,0.2-0.6,0.2-0.8,0l-0.9-0.9C128.1,38.1,128.1,37.9,128.4,37.6z"/>
		<path class="st1" d="M139.9,34.6h-0.5c-1.1,0-1.9-0.4-2.7-1.1c-0.7,0.7-1.6,1.1-2.7,1.1h-0.9c-0.2,0-0.5-0.1-0.6-0.3
			s-0.2-0.5-0.2-0.8v-0.1c0-0.3,0.1-0.6,0.2-0.8c0.1-0.2,0.4-0.4,0.7-0.4h0.9c0.2,0,0.6-0.1,0.7-0.1c0.2-0.1,0.4-0.1,0.5-0.2
			c0.1-0.1,0.2-0.2,0.2-0.5c0.1-0.2,0.1-0.4,0.1-0.6V22v-0.4h0.3h1.6h0.3v0.3v8.9c0,0.5,0.1,0.9,0.4,1.1c0.2,0.2,0.7,0.4,1.3,0.4
			h0.4c0.1,0,0.2,0.1,0.3,0.1c0.1,0.1,0.1,0.2,0.2,0.3c0.1,0.1,0.1,0.2,0.1,0.3s0,0.2,0,0.4c0,0.1,0,0.1,0,0.1v0.1v0.1
			c0,0.1,0,0.2,0,0.2c0,0.1,0,0.1,0,0.2c0,0.1,0,0.2-0.1,0.2s-0.1,0.1-0.1,0.2c-0.1,0.1-0.1,0.1-0.2,0.1
			C140,34.6,140,34.6,139.9,34.6z"/>
		<path class="st1" d="M139.8,34.6c-0.2,0-0.5-0.1-0.6-0.3s-0.2-0.5-0.2-0.8v-0.1c0-0.3,0.1-0.6,0.2-0.8c0.1-0.2,0.4-0.4,0.7-0.4
			h3.1c0.7,0,1.2-0.1,1.6-0.2c0.3-0.2,0.4-0.4,0.4-0.7c0-0.1,0-0.1-0.1-0.2s-0.1-0.2-0.2-0.3c-0.1-0.1-0.2-0.2-0.3-0.5
			c-0.1-0.2-0.2-0.4-0.4-0.6l-3.1-3.6c-0.4-0.4-0.6-0.9-0.6-1.6c0-0.2,0.1-0.4,0.1-0.6c0.1-0.2,0.1-0.4,0.2-0.5
			c0.1-0.1,0.2-0.2,0.4-0.4c0.2-0.1,0.4-0.2,0.6-0.2l5.9-2l0.4-0.1v0.4V23v0.2l-0.2,0.1l-4.9,1.6l2.6,3.1c1.1,1.3,1.7,2.5,1.7,3.4
			c0,1.1-0.4,1.9-1.1,2.5c-0.7,0.6-1.8,0.8-3.2,0.8h-3.1v-0.1L139.8,34.6L139.8,34.6L139.8,34.6z"/>
	</g>
</g>
<g>
	<path class="st2" d="M47.9,50.9H12.3c-4.6,0-6.1-3.7-6.1-8.3V15.5c0-4.6,3.7-6.3,8.3-6.3h30.6c4.6,0,8.6,1.9,8.6,6.5l-0.3,26.9
		C53.5,47.2,52.5,50.9,47.9,50.9z"/>
	<path class="st1" d="M48,51.5H11.7c-3.3,0-6.1-2.9-6.1-6.5V14.9c0-3.6,2.7-6.5,6.1-6.5H48c3.3,0,6.1,2.9,6.1,6.5V45
		C54.1,48.7,51.3,51.5,48,51.5z M11.7,9.8C9,9.8,6.9,12.1,6.9,15v30.1c0,2.8,2.2,5.2,4.8,5.2H48c2.7,0,4.8-2.3,4.8-5.2V14.9
		c0-2.8-2.2-5.2-4.8-5.2C48,9.8,11.7,9.8,11.7,9.8z"/>
	<g>
		<g>
			<path class="st1" d="M20.6,40.3c0.2,0.4,0.4,0.8,0.6,1.2c0.1,0.2,0.2,0.7,0.7,0.7c0.2,0,0.4-0.1,0.6-0.2c0.2-0.1,0.4-0.3,0.6-0.6
				l0.2-0.8l0.6-0.3l0.1,0.1c-0.1,0.3-0.1,0.6-0.1,0.8c0,0.7,0.6,0.9,1,0.9c0.2,0,0.5-0.1,0.5-0.4c0-0.3-0.1-0.9-0.3-1.3
				c0.2-0.2,0.6-0.6,0.8-0.7H26c0.1,0.6,0.2,1.1,0.2,1.5s-0.2,0.7-0.3,1.1c-0.2,0.5-0.7,0.9-1.4,0.9c-0.4,0-0.9-0.2-1.3-0.6l0,0
				c-0.3,0.4-0.8,0.7-1.6,0.7h-0.2c-0.1,0.5-0.1,0.9-0.3,1.2C20.8,45.4,19.4,46,18,46c-1.9,0-2.7-1.1-2.7-2.5c0-0.9,0.3-1.7,0.7-2.2
				l0.4,0.1c-0.2,0.5-0.4,1-0.4,1.5c0,1.3,1.1,1.9,2.3,1.9c1.1,0,2.6-0.7,2.8-1.6c-0.1-0.9-0.4-1.4-1-2.2
				C20,40.9,20.3,40.6,20.6,40.3L20.6,40.3z"/>
			<path class="st1" d="M27.5,39.3l0.7,1.1c0.2,0.4,0.5,0.8,0.5,1.6v0.9c0,0.7-0.4,1.5-1.2,2.2c-0.6,0.5-1.1,0.7-1.6,0.7
				c-0.7,0-1.5-0.2-2.4-0.6l0.1-0.2c0.3,0.1,0.6,0.1,1.1,0.1c1.3,0,2.7-1,3.3-2.2c0.1-0.1,0.1-0.2,0.1-0.4c0-0.1-0.1-0.3-0.1-0.4
				c-0.3-0.6-0.7-1.2-1.1-1.7C27,39.9,27.2,39.6,27.5,39.3L27.5,39.3z"/>
			<path class="st1" d="M29.5,41.3c0,0.7,0.4,1.2,1.6,1.2c0.7,0,1.4-0.2,2.1-0.5c0.1-0.1,0.2-0.1,0.2-0.2c0-0.4-0.3-1-0.9-1.6
				c-0.6-0.5-1.2-0.9-1.9-1.2c-0.2-0.1-0.3-0.2-0.3-0.3c0-0.2,0.2-0.6,0.5-0.9h0.1c0.7,0.4,1.6,1,2.2,1.7c0.6,0.6,0.9,1.2,0.9,1.9
				c0,0.5-0.1,1-0.4,1.4c-0.9,0.4-1.7,0.7-2.6,0.7c-1.1,0-1.8-0.5-1.8-1.7c0-0.1,0-0.3,0.1-0.6L29.5,41.3L29.5,41.3z"/>
			<path class="st1" d="M35.2,43.6c0.1-0.5,0.1-1.1,0.1-1.6v-0.8c0-1.5-0.2-3.6-0.3-5.1c0.2-0.3,0.6-0.6,0.9-0.9H36
				c0.2,1.7,0.2,3.8,0.2,5.7c0,0.5,0,1-0.1,1.3c0,0.4-0.3,0.8-0.8,1.3L35.2,43.6z"/>
			<path class="st1" d="M37.6,40.7c0.6,1.1,1.1,1.7,2.1,1.7h0.2v1.1h-0.1c-0.4,0-0.7-0.1-0.9-0.2h-0.1c0,0.1,0,0.2,0,0.3
				c0,0.4-0.1,0.9-0.4,1.2c-0.7,1.1-1.6,1.6-2.2,1.6c-0.7,0-1.6-0.2-2.4-0.6l0.1-0.2c0.2,0.1,0.6,0.2,1.1,0.2c1.2,0,2.9-1.2,3.2-2.4
				c-0.1-0.1-0.1-0.2-0.2-0.4c-0.4-0.4-0.6-0.8-0.8-1.2c0.2-0.4,0.4-0.7,0.5-0.9L37.6,40.7z"/>
			<path class="st1" d="M42,35.2c0.4,0.2,0.7,0.6,1.1,0.9c-0.2,0.3-0.4,0.6-0.8,0.8c-0.4-0.3-0.7-0.6-1.1-0.8
				C41.4,35.8,41.7,35.5,42,35.2z M42.2,38.9c-0.6,0-1.1,0.4-1.1,0.7c0,0.6,1.2,0.9,2.7,0.9C43.6,39.7,42.9,38.9,42.2,38.9z
				 M40.7,42.4c0.8,0,1.6,0,2.1-0.2c0.6-0.1,1.1-0.4,1.1-0.7c0-0.1,0-0.1,0-0.2c-0.3,0.1-0.7,0.1-1.1,0.1c-1.1,0-1.9-0.2-2.3-0.9
				c-0.1-0.2-0.1-0.4-0.1-0.6c0-0.6,0.2-1.2,0.7-1.6c0.4-0.3,0.8-0.6,1.2-0.6c0.7,0,1.4,0.6,1.8,1.6c0.2,0.6,0.4,1.1,0.4,1.9
				c0,0.5-0.1,0.9-0.4,1.2c-0.6,0.6-1.7,0.8-3.4,0.8H40c-0.5,0-0.7-0.3-0.7-0.6c0-0.2,0.1-0.5,0.7-0.5L40.7,42.4L40.7,42.4
				L40.7,42.4z"/>
		</g>
		<g>
			<path class="st1" d="M29.6,29.8c0-0.2-0.2-0.5-0.5-0.7c-0.5-0.4-1.1-0.7-1.6-1.1c-0.2-0.1-0.5-0.1-0.5,0.1c0,0.4-0.1,0.7-0.1,1.1
				c0,0.2,0.2,0.5,0.5,0.6c0.6,0.3,1.1,0.7,1.6,1.1c0.2,0.2,0.5,0.2,0.5,0C29.6,30.5,29.6,30.2,29.6,29.8z"/>
			<path class="st1" d="M26.5,30c0-0.2-0.2-0.5-0.5-0.6c-0.6-0.3-1.1-0.6-1.7-0.8c-0.3-0.1-0.6-0.1-0.6,0.1
				c-0.1,0.4-0.1,0.7-0.1,1.1c0,0.2,0.2,0.4,0.5,0.6c0.6,0.2,1.2,0.6,1.8,0.9c0.3,0.1,0.6,0.1,0.6-0.1C26.5,30.7,26.5,30.3,26.5,30z
				"/>
			<path class="st1" d="M29.6,31.8c0-0.2-0.2-0.5-0.5-0.7c-0.6-0.4-1.1-0.7-1.7-1.1c-0.3-0.2-0.5-0.1-0.6,0.1c0,0.4-0.1,0.7-0.1,1.1
				c0,0.2,0.2,0.5,0.5,0.6c0.6,0.3,1.2,0.7,1.7,1.1c0.3,0.2,0.5,0.2,0.5,0C29.6,32.6,29.6,32.2,29.6,31.8z"/>
			<path class="st1" d="M32.6,28.1c0-0.2-0.2-0.2-0.5-0.1c-0.6,0.3-1.1,0.7-1.6,1.1c-0.2,0.2-0.5,0.5-0.5,0.7c0,0.4,0,0.7,0,1.1
				c0,0.2,0.2,0.2,0.5,0c0.6-0.4,1.1-0.7,1.6-1.1c0.3-0.2,0.5-0.4,0.5-0.6C32.7,28.8,32.7,28.5,32.6,28.1z"/>
			<path class="st1" d="M32.8,30.2c0-0.2-0.2-0.2-0.6-0.1c-0.6,0.3-1.1,0.7-1.7,1.1c-0.2,0.2-0.5,0.5-0.5,0.7c0,0.4,0,0.7,0,1.1
				c0,0.2,0.2,0.2,0.5,0c0.6-0.4,1.1-0.7,1.7-1.1c0.3-0.2,0.6-0.4,0.5-0.6C32.8,30.9,32.8,30.5,32.8,30.2z"/>
			<path class="st1" d="M36,28.6c0-0.2-0.3-0.2-0.6-0.1c-0.6,0.2-1.2,0.6-1.7,0.8c-0.3,0.1-0.5,0.4-0.5,0.6c0,0.4,0.1,0.7,0.1,1.1
				c0,0.2,0.2,0.2,0.6,0.1c0.6-0.3,1.2-0.6,1.8-0.9c0.3-0.1,0.6-0.4,0.5-0.6C36.1,29.3,36.1,29,36,28.6z"/>
			<path class="st3" d="M44.7,22c-0.1-0.2-0.3-0.3-0.6-0.3c-0.6,0.1-1.1,0.1-1.6,0.2C42.2,22,42,22.2,42,22.4
				c0.1,0.4,0.2,0.7,0.3,1.1c0.1,0.2,0.3,0.3,0.6,0.2c0.6-0.1,1.1-0.2,1.7-0.2c0.3-0.1,0.5-0.2,0.4-0.4C44.9,22.7,44.8,22.3,44.7,22
				z M27.2,19.5c0-0.2-0.2-0.5-0.4-0.6c-0.4-0.3-0.9-0.6-1.4-0.8C25.2,17.9,25,18,25,18.2c-0.1,0.4-0.1,0.7-0.1,1.1
				c0,0.2,0.1,0.4,0.4,0.6c0.5,0.2,0.9,0.5,1.4,0.8c0.2,0.1,0.4,0.1,0.4-0.1C27.2,20.2,27.2,19.9,27.2,19.5z M17.1,24.4
				c0.1-0.2-0.1-0.4-0.4-0.4c-0.6-0.1-1.1-0.2-1.7-0.2c-0.3-0.1-0.6,0.1-0.6,0.2c-0.1,0.4-0.2,0.7-0.4,1.1c-0.1,0.2,0.1,0.4,0.4,0.4
				c0.6,0.1,1.2,0.2,1.8,0.2c0.3,0.1,0.6-0.1,0.6-0.2C16.9,25,17.1,24.7,17.1,24.4z M17.7,22.3c0.1-0.2-0.1-0.4-0.4-0.4
				c-0.6-0.1-1.1-0.2-1.6-0.2c-0.2,0-0.6,0.1-0.6,0.3c-0.1,0.4-0.2,0.7-0.4,1.1c-0.1,0.2,0.1,0.4,0.4,0.4c0.6,0.1,1.1,0.1,1.7,0.2
				c0.3,0.1,0.6-0.1,0.6-0.2C17.5,23,17.6,22.7,17.7,22.3z M18.2,20.3c0.1-0.2-0.1-0.4-0.4-0.4c-0.5-0.1-1.1-0.1-1.6-0.2
				c-0.2,0-0.6,0.1-0.6,0.3c-0.1,0.4-0.2,0.7-0.4,1.1c-0.1,0.2,0.1,0.4,0.4,0.4c0.6,0.1,1.1,0.1,1.6,0.2c0.2,0.1,0.6-0.1,0.6-0.2
				C18,21.1,18.2,20.7,18.2,20.3z M18.8,18.3c0.1-0.2-0.1-0.4-0.4-0.4c-0.5-0.1-1-0.1-1.5-0.2c-0.2,0-0.5,0.1-0.6,0.3
				c-0.1,0.4-0.2,0.7-0.4,1.1c-0.1,0.2,0.1,0.3,0.4,0.4c0.5,0.1,1.1,0.1,1.6,0.2c0.2,0.1,0.5-0.1,0.6-0.2
				C18.6,19.1,18.7,18.7,18.8,18.3z M19.4,16.3c0.1-0.2-0.1-0.4-0.4-0.4c-0.5-0.1-0.9-0.1-1.4-0.1c-0.2,0-0.5,0.1-0.6,0.3
				c-0.1,0.4-0.2,0.7-0.4,1.1c-0.1,0.2,0.1,0.3,0.4,0.4c0.5,0.1,1,0.1,1.5,0.2c0.2,0.1,0.5-0.1,0.6-0.2C19.2,17,19.2,16.7,19.4,16.3
				z M22,17c0.1-0.2-0.1-0.4-0.4-0.5c-0.4-0.1-0.9-0.2-1.4-0.4c-0.2-0.1-0.5,0.1-0.5,0.2c-0.1,0.4-0.2,0.7-0.3,1.1
				c-0.1,0.2,0.1,0.4,0.4,0.4c0.5,0.1,1,0.2,1.5,0.4c0.2,0.1,0.5,0,0.5-0.2C21.9,17.7,22,17.3,22,17z M21.2,21.1
				c0.1-0.2-0.1-0.4-0.4-0.5c-0.5-0.1-1.1-0.3-1.6-0.4c-0.2-0.1-0.5,0.1-0.6,0.2c-0.1,0.4-0.2,0.7-0.3,1.1c-0.1,0.2,0.1,0.4,0.4,0.4
				c0.6,0.1,1.1,0.2,1.6,0.4c0.2,0.1,0.6,0,0.6-0.2C21,21.8,21.2,21.4,21.2,21.1z M24.1,22.2c0-0.2-0.2-0.4-0.4-0.6
				c-0.5-0.2-1-0.4-1.6-0.6c-0.2-0.1-0.5,0-0.6,0.2c-0.1,0.4-0.1,0.7-0.2,1.1c-0.1,0.2,0.2,0.4,0.4,0.5c0.6,0.2,1.1,0.4,1.6,0.6
				c0.2,0.1,0.5,0.1,0.6-0.1C24,22.9,24,22.5,24.1,22.2z M24.7,18.1c0-0.2-0.1-0.4-0.4-0.6c-0.4-0.2-0.9-0.4-1.4-0.6
				c-0.2-0.1-0.4,0-0.5,0.2c-0.1,0.4-0.1,0.7-0.2,1.1c-0.1,0.2,0.1,0.4,0.4,0.5c0.5,0.2,1,0.4,1.4,0.6c0.2,0.1,0.4,0.1,0.5-0.1
				C24.5,18.8,24.6,18.4,24.7,18.1z M35.8,26.5c0-0.2-0.2-0.2-0.6-0.1c-0.6,0.2-1.1,0.6-1.7,0.8c-0.2,0.1-0.5,0.4-0.5,0.6
				c0,0.4,0.1,0.7,0.1,1.1c0,0.2,0.2,0.2,0.6,0.1c0.6-0.3,1.1-0.6,1.7-0.8c0.3-0.1,0.5-0.4,0.5-0.6C35.8,27.3,35.8,26.9,35.8,26.5z
				 M35.5,24.4c0-0.2-0.2-0.2-0.6-0.1c-0.6,0.2-1.1,0.6-1.6,0.8c-0.2,0.1-0.5,0.4-0.4,0.6c0,0.4,0.1,0.7,0.1,1.1
				c0,0.2,0.2,0.2,0.5,0.1c0.6-0.3,1.1-0.6,1.6-0.8c0.3-0.1,0.5-0.4,0.5-0.6C35.6,25.2,35.5,24.8,35.5,24.4z M35.2,22.4
				c0-0.2-0.2-0.2-0.5-0.1c-0.5,0.2-1,0.5-1.5,0.8c-0.2,0.1-0.4,0.4-0.4,0.6c0,0.4,0.1,0.7,0.1,1.1c0,0.2,0.2,0.2,0.5,0.1
				c0.5-0.3,1.1-0.6,1.6-0.8c0.2-0.1,0.5-0.4,0.4-0.6C35.3,23,35.3,22.7,35.2,22.4z M34.9,20.2c0-0.2-0.2-0.2-0.5-0.1
				c-0.5,0.2-0.9,0.5-1.4,0.8c-0.2,0.1-0.4,0.4-0.4,0.6c0,0.4,0.1,0.7,0.1,1.1c0,0.2,0.2,0.2,0.5,0.1c0.5-0.3,1-0.6,1.5-0.8
				c0.2-0.1,0.4-0.4,0.4-0.6C35.1,21,35,20.6,34.9,20.2z M34.7,18.2c0-0.2-0.2-0.2-0.4-0.1c-0.4,0.2-0.9,0.5-1.4,0.8
				c-0.2,0.1-0.4,0.4-0.4,0.6c0,0.4,0.1,0.7,0.1,1.1c0,0.2,0.2,0.2,0.4,0.1c0.5-0.3,0.9-0.6,1.4-0.8c0.2-0.1,0.4-0.4,0.4-0.6
				C34.8,18.9,34.8,18.6,34.7,18.2z M37.3,17.1c-0.1-0.2-0.2-0.2-0.5-0.2c-0.4,0.2-0.9,0.4-1.4,0.6c-0.2,0.1-0.4,0.4-0.4,0.6
				c0.1,0.4,0.1,0.7,0.1,1.1c0,0.2,0.2,0.2,0.5,0.1c0.5-0.2,1-0.4,1.4-0.6c0.2-0.1,0.4-0.3,0.4-0.5C37.4,17.8,37.4,17.4,37.3,17.1z
				 M38.9,25.3c-0.1-0.2-0.3-0.2-0.6-0.2c-0.6,0.2-1.1,0.4-1.7,0.6c-0.3,0.1-0.5,0.4-0.5,0.6c0.1,0.4,0.1,0.7,0.1,1.1
				c0,0.2,0.3,0.2,0.6,0.1c0.6-0.2,1.2-0.4,1.7-0.6c0.3-0.1,0.5-0.3,0.5-0.5C39.1,26,38.9,25.7,38.9,25.3z M42.1,24.4
				c-0.1-0.2-0.3-0.3-0.6-0.2c-0.6,0.1-1.1,0.3-1.7,0.4c-0.3,0.1-0.5,0.3-0.4,0.5c0.1,0.4,0.1,0.7,0.2,1.1c0.1,0.2,0.3,0.2,0.6,0.2
				c0.6-0.2,1.2-0.3,1.8-0.4c0.3-0.1,0.5-0.2,0.4-0.4C42.4,25.1,42.2,24.8,42.1,24.4z M40,16.4c-0.1-0.2-0.3-0.3-0.5-0.2
				c-0.5,0.1-0.9,0.2-1.4,0.4c-0.2,0.1-0.4,0.3-0.4,0.5c0.1,0.4,0.1,0.7,0.2,1.1c0.1,0.2,0.2,0.2,0.5,0.2c0.5-0.1,1-0.2,1.5-0.4
				c0.2-0.1,0.4-0.2,0.4-0.4C40.2,17.1,40.1,16.8,40,16.4z M43.3,18c-0.1-0.2-0.3-0.3-0.6-0.3c-0.5,0.1-1,0.1-1.5,0.2
				c-0.2,0.1-0.4,0.2-0.4,0.4c0.1,0.4,0.2,0.7,0.3,1.1c0.1,0.2,0.3,0.3,0.6,0.2c0.5-0.1,1.1-0.1,1.6-0.2c0.2,0,0.4-0.2,0.4-0.4
				C43.5,18.7,43.4,18.4,43.3,18z M44,20c-0.1-0.2-0.3-0.3-0.6-0.3c-0.5,0.1-1.1,0.1-1.6,0.2c-0.2,0.1-0.4,0.2-0.4,0.4
				c0.1,0.4,0.2,0.7,0.3,1.1c0.1,0.2,0.3,0.3,0.6,0.2c0.6-0.1,1.1-0.2,1.6-0.2c0.2,0,0.4-0.2,0.4-0.4C44.2,20.7,44.1,20.4,44,20z"/>
			<path class="st1" d="M17.1,15.1c-0.1,0.2-0.3,0.3-0.6,0.3c-0.5,0-0.9,0.1-1.4,0.1c-0.2,0-0.4-0.1-0.3-0.2
				c0.1-0.4,0.3-0.7,0.4-1.1c0.1-0.2,0.3-0.4,0.6-0.4c0.4-0.1,0.9-0.1,1.4-0.1c0.2,0,0.4,0.1,0.3,0.3C17.3,14.4,17.2,14.7,17.1,15.1
				z"/>
			<path class="st1" d="M19.9,14.3c0.1-0.2-0.1-0.4-0.3-0.4c-0.4-0.1-0.9-0.1-1.4-0.1c-0.2,0-0.5,0.1-0.6,0.3
				c-0.1,0.4-0.2,0.7-0.4,1.1c-0.1,0.2,0.1,0.3,0.3,0.4c0.5,0,0.9,0.1,1.4,0.1c0.2,0.1,0.5-0.1,0.5-0.2
				C19.7,14.9,19.8,14.6,19.9,14.3z"/>
			<path class="st1" d="M22.5,14.9c0.1-0.2-0.1-0.4-0.3-0.5c-0.4-0.1-0.9-0.2-1.3-0.4c-0.2-0.1-0.4,0.1-0.5,0.2
				c-0.1,0.4-0.2,0.7-0.3,1.1c-0.1,0.2,0.1,0.4,0.3,0.4c0.4,0.1,0.9,0.2,1.4,0.4c0.2,0.1,0.4,0,0.5-0.2
				C22.3,15.6,22.4,15.3,22.5,14.9z"/>
			<path class="st1" d="M24.9,16c0-0.2-0.1-0.4-0.4-0.6c-0.4-0.2-0.9-0.4-1.3-0.6c-0.2-0.1-0.4,0-0.5,0.2c-0.1,0.4-0.1,0.7-0.2,1.1
				c-0.1,0.2,0.1,0.4,0.4,0.5c0.4,0.2,0.9,0.4,1.4,0.6c0.2,0.1,0.4,0.1,0.4-0.1C24.8,16.7,24.8,16.4,24.9,16z"/>
			<path class="st1" d="M27.3,17.4c0-0.2-0.1-0.5-0.4-0.6c-0.4-0.3-0.9-0.6-1.3-0.8c-0.2-0.1-0.4-0.1-0.4,0.1
				c-0.1,0.4-0.1,0.7-0.1,1.1c0,0.2,0.1,0.4,0.4,0.6c0.4,0.2,0.9,0.5,1.4,0.8c0.2,0.1,0.4,0.1,0.4-0.1
				C27.3,18.2,27.3,17.8,27.3,17.4z"/>
			<path class="st1" d="M29.6,19.3c0-0.2-0.2-0.5-0.4-0.7c-0.4-0.4-0.8-0.7-1.2-1.1c-0.2-0.2-0.4-0.1-0.4,0.1c0,0.4-0.1,0.7-0.1,1.1
				c0,0.2,0.2,0.5,0.4,0.6c0.4,0.3,0.9,0.7,1.3,1.1c0.2,0.2,0.4,0.2,0.4,0C29.6,20.1,29.6,19.7,29.6,19.3z"/>
			<path class="st1" d="M16.7,16.1c0.1-0.2-0.1-0.3-0.3-0.3c-0.5,0-0.9,0.1-1.4,0.1c-0.2,0-0.5,0.2-0.6,0.4
				c-0.1,0.4-0.3,0.7-0.4,1.1c-0.1,0.2,0.1,0.3,0.3,0.2c0.5-0.1,1-0.1,1.5-0.1c0.2,0,0.5-0.1,0.6-0.3C16.5,16.8,16.6,16.4,16.7,16.1
				z"/>
			<path class="st1" d="M29.6,21.4c0-0.2-0.2-0.5-0.4-0.7c-0.4-0.4-0.9-0.7-1.3-1.1c-0.2-0.2-0.4-0.1-0.4,0.1c0,0.4-0.1,0.7-0.1,1.1
				c0,0.2,0.2,0.5,0.4,0.6c0.4,0.3,0.9,0.7,1.4,1.1c0.2,0.2,0.4,0.2,0.4,0C29.6,22.1,29.6,21.7,29.6,21.4z"/>
			<path class="st1" d="M16,18c0.1-0.2-0.1-0.3-0.4-0.3c-0.5,0-1,0-1.5,0.1c-0.2,0-0.5,0.2-0.6,0.4c-0.1,0.4-0.3,0.7-0.4,1.1
				c-0.1,0.2,0.1,0.3,0.4,0.3c0.5-0.1,1.1-0.1,1.6-0.1c0.2,0,0.6-0.1,0.6-0.3C15.7,18.7,15.9,18.4,16,18z"/>
			<path class="st1" d="M21.6,19c0.1-0.2-0.1-0.4-0.4-0.5c-0.5-0.1-1-0.3-1.5-0.4c-0.2-0.1-0.5,0.1-0.6,0.2
				c-0.1,0.4-0.2,0.7-0.3,1.1c-0.1,0.2,0.1,0.4,0.4,0.4c0.5,0.1,1.1,0.2,1.6,0.4c0.2,0.1,0.5,0,0.6-0.2C21.5,19.7,21.5,19.4,21.6,19
				z"/>
			<path class="st1" d="M24.3,20.1c0-0.2-0.1-0.4-0.4-0.6c-0.5-0.2-1-0.4-1.4-0.6c-0.2-0.1-0.5,0-0.5,0.2c-0.1,0.4-0.1,0.7-0.2,1.1
				c-0.1,0.2,0.1,0.4,0.4,0.5c0.5,0.2,1,0.4,1.6,0.6c0.2,0.1,0.5,0.1,0.5-0.1C24.3,20.9,24.3,20.5,24.3,20.1z"/>
			<path class="st1" d="M27,21.6c0-0.2-0.2-0.5-0.4-0.6c-0.5-0.3-0.9-0.6-1.4-0.8c-0.2-0.1-0.4-0.1-0.5,0.1
				c-0.1,0.4-0.1,0.7-0.1,1.1c0,0.2,0.2,0.4,0.4,0.6c0.5,0.2,1,0.5,1.5,0.8c0.2,0.1,0.4,0.1,0.5-0.1C27,22.3,27,22,27,21.6z"/>
			<path class="st1" d="M29.6,23.5c0-0.2-0.2-0.5-0.4-0.7c-0.4-0.4-0.9-0.7-1.4-1.1c-0.2-0.2-0.4-0.1-0.4,0.1c0,0.4-0.1,0.7-0.1,1.1
				c0,0.2,0.2,0.5,0.4,0.6c0.5,0.3,1,0.7,1.4,1.1c0.2,0.2,0.4,0.2,0.4,0C29.6,24.2,29.6,23.9,29.6,23.5z"/>
			<path class="st1" d="M15.3,20c0.1-0.2-0.1-0.3-0.4-0.4c-0.5,0-1.1,0-1.6,0.1c-0.2,0-0.6,0.2-0.6,0.4c-0.1,0.4-0.3,0.7-0.4,1.1
				c-0.1,0.2,0.1,0.3,0.4,0.3c0.6,0,1.1-0.1,1.6,0c0.2,0,0.6-0.1,0.6-0.3C15.1,20.7,15.2,20.3,15.3,20z"/>
			<path class="st1" d="M26.9,23.7c0-0.2-0.2-0.5-0.4-0.6c-0.5-0.3-1-0.6-1.5-0.8c-0.2-0.1-0.5-0.1-0.5,0.1
				c-0.1,0.4-0.1,0.7-0.1,1.1c0,0.2,0.2,0.4,0.4,0.6c0.5,0.2,1.1,0.6,1.6,0.8c0.2,0.1,0.5,0.1,0.5-0.1C26.8,24.4,26.9,24,26.9,23.7z
				"/>
			<path class="st1" d="M29.6,25.6c0-0.2-0.2-0.5-0.4-0.7c-0.5-0.4-0.9-0.7-1.4-1.1c-0.2-0.2-0.4-0.1-0.5,0.1c0,0.4-0.1,0.7-0.1,1.1
				c0,0.2,0.2,0.5,0.4,0.6c0.5,0.3,1,0.7,1.5,1.1c0.2,0.2,0.4,0.2,0.4,0C29.6,26.4,29.6,26,29.6,25.6z"/>
			<path class="st1" d="M14.6,21.9c0.1-0.2-0.1-0.3-0.4-0.4c-0.6,0-1.1,0-1.6,0c-0.2,0-0.6,0.2-0.6,0.4c-0.1,0.4-0.3,0.7-0.4,1.1
				c-0.1,0.2,0.1,0.3,0.4,0.3c0.6,0,1.1,0,1.7,0c0.3,0,0.6-0.1,0.6-0.3C14.4,22.6,14.5,22.3,14.6,21.9z"/>
			<path class="st1" d="M20.8,23.1c0.1-0.2-0.1-0.4-0.4-0.5c-0.6-0.2-1.1-0.3-1.6-0.4c-0.2-0.1-0.6,0.1-0.6,0.2
				c-0.1,0.4-0.2,0.7-0.3,1.1c-0.1,0.2,0.1,0.4,0.4,0.4c0.6,0.1,1.1,0.2,1.7,0.4c0.3,0.1,0.6,0,0.6-0.2
				C20.7,23.9,20.7,23.5,20.8,23.1z"/>
			<path class="st1" d="M23.8,24.2c0-0.2-0.2-0.4-0.4-0.6c-0.6-0.2-1.1-0.4-1.6-0.6c-0.2-0.1-0.6,0-0.6,0.2C21.1,23.6,21,24,21,24.4
				c-0.1,0.2,0.2,0.4,0.4,0.5c0.6,0.2,1.1,0.4,1.7,0.6c0.3,0.1,0.6,0.1,0.6-0.1C23.7,25,23.8,24.6,23.8,24.2z"/>
			<path class="st1" d="M26.8,25.8c0-0.2-0.2-0.5-0.4-0.6c-0.5-0.3-1.1-0.6-1.6-0.8c-0.2-0.1-0.5-0.1-0.6,0.1
				c-0.1,0.3-0.1,0.7-0.1,1.1c0,0.2,0.2,0.4,0.5,0.6c0.6,0.2,1.1,0.6,1.6,0.8c0.2,0.1,0.5,0.1,0.5-0.1
				C26.7,26.5,26.7,26.2,26.8,25.8z"/>
			<path class="st1" d="M29.6,27.7c0-0.2-0.2-0.5-0.4-0.7c-0.5-0.4-1-0.7-1.5-1.1c-0.2-0.2-0.5-0.1-0.5,0.1c0,0.4-0.1,0.7-0.1,1.1
				c0,0.2,0.2,0.5,0.5,0.6c0.6,0.3,1.1,0.7,1.6,1.1c0.2,0.2,0.5,0.2,0.5,0C29.6,28.5,29.6,28.1,29.6,27.7z"/>
			<path class="st1" d="M13.9,23.9c0.1-0.2-0.1-0.4-0.4-0.4c-0.6,0-1.1-0.1-1.7,0c-0.3,0-0.6,0.2-0.6,0.4c-0.1,0.4-0.3,0.7-0.4,1.1
				c-0.1,0.2,0.1,0.3,0.4,0.3c0.6,0,1.2,0,1.7,0.1c0.3,0,0.6-0.1,0.7-0.3C13.7,24.6,13.8,24.2,13.9,23.9z"/>
			<path class="st1" d="M20.4,25.1c0.1-0.2-0.2-0.4-0.4-0.5c-0.6-0.2-1.1-0.3-1.7-0.4c-0.3-0.1-0.6,0.1-0.6,0.2
				c-0.1,0.4-0.2,0.7-0.3,1.1c-0.1,0.2,0.1,0.4,0.4,0.4c0.6,0.1,1.2,0.3,1.8,0.4c0.3,0.1,0.6,0,0.6-0.2
				C20.2,25.9,20.3,25.5,20.4,25.1z"/>
			<path class="st1" d="M23.5,26.4c0-0.2-0.2-0.4-0.5-0.6c-0.6-0.2-1.1-0.4-1.7-0.6c-0.3-0.1-0.6,0-0.6,0.2
				c-0.1,0.4-0.1,0.7-0.2,1.1c-0.1,0.2,0.2,0.4,0.5,0.5c0.6,0.2,1.2,0.4,1.7,0.6c0.3,0.1,0.6,0.1,0.6-0.1
				C23.5,27.1,23.5,26.7,23.5,26.4z"/>
			<path class="st1" d="M26.7,27.9c0-0.2-0.2-0.5-0.5-0.6c-0.6-0.3-1.1-0.6-1.7-0.8c-0.3-0.1-0.6-0.1-0.6,0.1
				c-0.1,0.4-0.1,0.7-0.1,1.1c0,0.2,0.2,0.4,0.5,0.6c0.6,0.2,1.2,0.6,1.7,0.8c0.3,0.1,0.6,0.1,0.6-0.1
				C26.6,28.6,26.6,28.3,26.7,27.9z"/>
			<path class="st1" d="M13.2,25.9c0.1-0.2-0.1-0.4-0.4-0.4c-0.6-0.1-1.2-0.1-1.7-0.1c-0.3,0-0.6,0.2-0.7,0.3
				c-0.1,0.4-0.3,0.7-0.4,1.1c-0.1,0.2,0.1,0.3,0.4,0.3c0.6,0,1.2,0,1.8,0.1c0.3,0,0.6-0.1,0.7-0.3C13,26.6,13.1,26.3,13.2,25.9z"/>
			<path class="st1" d="M16.6,26.4c0.1-0.2-0.1-0.4-0.4-0.4c-0.6-0.1-1.2-0.2-1.8-0.2c-0.3-0.1-0.6,0.1-0.7,0.2
				c-0.1,0.4-0.2,0.7-0.4,1.1c-0.1,0.2,0.1,0.4,0.4,0.4c0.6,0.1,1.2,0.2,1.9,0.3c0.3,0.1,0.6-0.1,0.7-0.2
				C16.4,27.1,16.5,26.7,16.6,26.4z"/>
			<path class="st1" d="M19.9,27.2c0.1-0.2-0.2-0.4-0.5-0.5c-0.6-0.2-1.2-0.3-1.8-0.4c-0.3-0.1-0.6,0-0.6,0.2
				c-0.1,0.4-0.2,0.7-0.3,1.1c-0.1,0.2,0.2,0.4,0.5,0.4c0.6,0.1,1.2,0.3,1.9,0.5c0.3,0.1,0.6,0,0.6-0.2C19.7,28,19.8,27.6,19.9,27.2
				z"/>
			<path class="st1" d="M23.3,28.4c0-0.2-0.2-0.4-0.5-0.6c-0.6-0.2-1.2-0.4-1.7-0.6c-0.3-0.1-0.6,0-0.6,0.2
				c-0.1,0.4-0.1,0.7-0.2,1.1c-0.1,0.2,0.2,0.4,0.5,0.5c0.6,0.2,1.2,0.4,1.9,0.7c0.3,0.1,0.6,0.1,0.6-0.1
				C23.2,29.2,23.2,28.8,23.3,28.4z"/>
			<path class="st1" d="M32.1,18.7c0,0.2-0.2,0.5-0.4,0.6c-0.4,0.3-0.9,0.7-1.3,1.1c-0.2,0.2-0.4,0.2-0.4,0c0-0.4,0-0.7,0-1.1
				c0-0.2,0.2-0.5,0.4-0.7c0.4-0.4,0.8-0.7,1.2-1.1c0.2-0.2,0.4-0.1,0.4,0.1C32.1,18,32.1,18.4,32.1,18.7z"/>
			<path class="st1" d="M34.4,16.1c0-0.2-0.2-0.2-0.4-0.1c-0.4,0.2-0.9,0.5-1.3,0.8c-0.2,0.1-0.4,0.4-0.4,0.6c0,0.4,0.1,0.7,0.1,1.1
				c0,0.2,0.2,0.2,0.4,0.1c0.4-0.3,0.9-0.6,1.4-0.8c0.2-0.1,0.4-0.4,0.4-0.6C34.6,16.9,34.5,16.5,34.4,16.1z"/>
			<path class="st1" d="M36.9,15c-0.1-0.2-0.2-0.2-0.5-0.2c-0.4,0.2-0.9,0.4-1.3,0.6c-0.2,0.1-0.4,0.4-0.4,0.6
				c0.1,0.4,0.1,0.7,0.1,1.1c0,0.2,0.2,0.2,0.4,0.1c0.4-0.2,0.9-0.4,1.4-0.6c0.2-0.1,0.4-0.3,0.4-0.5C37.1,15.7,36.9,15.3,36.9,15z"
				/>
			<path class="st1" d="M39.4,14.3c-0.1-0.2-0.2-0.3-0.5-0.2c-0.4,0.1-0.9,0.2-1.3,0.4c-0.2,0.1-0.4,0.3-0.3,0.5
				c0.1,0.4,0.1,0.7,0.2,1.1c0.1,0.2,0.2,0.2,0.5,0.2c0.4-0.1,0.9-0.2,1.4-0.4c0.2-0.1,0.4-0.2,0.3-0.4C39.6,15,39.5,14.6,39.4,14.3
				z"/>
			<path class="st1" d="M41.9,14c-0.1-0.2-0.3-0.3-0.6-0.3c-0.4,0-0.9,0.1-1.4,0.1c-0.2,0.1-0.4,0.2-0.3,0.4
				c0.1,0.4,0.2,0.7,0.3,1.1c0.1,0.2,0.3,0.3,0.5,0.2c0.5-0.1,0.9-0.1,1.4-0.1c0.2,0,0.4-0.2,0.3-0.4C42.2,14.7,42.1,14.4,41.9,14z"
				/>
			<path class="st1" d="M44.5,14.2c-0.1-0.2-0.3-0.4-0.6-0.4c-0.4-0.1-0.9-0.1-1.4-0.1c-0.2,0-0.4,0.1-0.3,0.3
				c0.1,0.4,0.2,0.7,0.4,1.1c0.1,0.2,0.3,0.3,0.6,0.3c0.5,0,0.9,0.1,1.4,0.1c0.2,0,0.4-0.1,0.3-0.2C44.8,14.9,44.6,14.5,44.5,14.2z"
				/>
			<path class="st1" d="M32.2,19.7c0-0.2-0.2-0.2-0.4-0.1c-0.4,0.3-0.9,0.7-1.3,1.1c-0.2,0.2-0.4,0.5-0.4,0.7c0,0.4,0,0.7,0,1.1
				c0,0.2,0.2,0.2,0.4,0c0.4-0.4,0.9-0.7,1.4-1.1c0.2-0.2,0.4-0.4,0.4-0.6C32.2,20.5,32.2,20.1,32.2,19.7z"/>
			<path class="st1" d="M42.6,16.1c-0.1-0.2-0.3-0.3-0.6-0.3c-0.5,0-0.9,0.1-1.4,0.1c-0.2,0.1-0.4,0.2-0.4,0.4
				c0.1,0.4,0.2,0.7,0.3,1.1c0.1,0.2,0.3,0.3,0.6,0.2c0.5-0.1,1-0.1,1.5-0.2c0.2,0,0.4-0.2,0.4-0.4C42.9,16.8,42.7,16.4,42.6,16.1z"
				/>
			<path class="st1" d="M45.3,16.2c-0.1-0.2-0.3-0.4-0.6-0.4c-0.5-0.1-0.9-0.1-1.4-0.1c-0.2,0-0.4,0.1-0.3,0.3
				c0.1,0.4,0.2,0.7,0.4,1.1c0.1,0.2,0.3,0.3,0.6,0.3c0.5,0,1,0,1.5,0.1c0.2,0,0.4-0.1,0.3-0.2C45.5,16.9,45.4,16.5,45.3,16.2z"/>
			<path class="st1" d="M32.3,21.8c0-0.2-0.2-0.2-0.4-0.1c-0.4,0.3-0.9,0.7-1.4,1.1c-0.2,0.2-0.4,0.5-0.4,0.7c0,0.4,0,0.7,0,1.1
				c0,0.2,0.2,0.2,0.4,0c0.5-0.4,0.9-0.7,1.4-1.1c0.2-0.2,0.4-0.4,0.4-0.6C32.3,22.5,32.3,22.2,32.3,21.8z"/>
			<path class="st1" d="M37.7,19.1c-0.1-0.2-0.2-0.2-0.5-0.2c-0.5,0.2-1,0.4-1.4,0.6c-0.2,0.1-0.4,0.4-0.4,0.6
				c0.1,0.4,0.1,0.7,0.1,1.1c0,0.2,0.2,0.2,0.5,0.1c0.5-0.2,1-0.4,1.6-0.6c0.2-0.1,0.4-0.3,0.4-0.5C37.8,19.9,37.8,19.5,37.7,19.1z"
				/>
			<path class="st1" d="M40.5,18.4c-0.1-0.2-0.3-0.3-0.6-0.2c-0.5,0.1-1,0.2-1.5,0.4c-0.2,0.1-0.4,0.3-0.4,0.5
				c0.1,0.4,0.1,0.7,0.2,1.1c0.1,0.2,0.3,0.2,0.6,0.2c0.5-0.1,1.1-0.3,1.6-0.4c0.2-0.1,0.4-0.2,0.4-0.4
				C40.7,19.1,40.6,18.7,40.5,18.4z"/>
			<path class="st1" d="M46.1,18.1c-0.1-0.2-0.3-0.4-0.6-0.4c-0.5-0.1-1-0.1-1.5-0.1c-0.2,0-0.4,0.1-0.4,0.3
				c0.1,0.4,0.2,0.7,0.4,1.1c0.1,0.2,0.3,0.3,0.6,0.3c0.5,0,1.1,0,1.6,0.1c0.2,0,0.4-0.1,0.4-0.3C46.4,18.8,46.2,18.4,46.1,18.1z"/>
			<path class="st1" d="M32.4,23.9c0-0.2-0.2-0.2-0.5-0.1c-0.5,0.3-1,0.7-1.4,1.1C30.2,25,30,25.4,30,25.5c0,0.4,0,0.7,0,1.1
				c0,0.2,0.2,0.2,0.4,0c0.5-0.4,1-0.7,1.5-1.1c0.2-0.2,0.4-0.4,0.4-0.6C32.5,24.6,32.5,24.2,32.4,23.9z"/>
			<path class="st1" d="M38.1,21.2C38,21,37.8,20.9,37.5,21c-0.5,0.2-1.1,0.4-1.6,0.6c-0.2,0.1-0.4,0.4-0.4,0.6
				c0.1,0.4,0.1,0.7,0.1,1.1c0,0.2,0.2,0.2,0.6,0.1c0.6-0.2,1.1-0.4,1.6-0.6c0.2-0.1,0.5-0.3,0.4-0.5C38.2,21.9,38.2,21.6,38.1,21.2
				z"/>
			<path class="st1" d="M41.1,20.4c-0.1-0.2-0.3-0.3-0.6-0.2c-0.5,0.1-1.1,0.2-1.6,0.4c-0.2,0.1-0.4,0.3-0.4,0.5
				c0.1,0.4,0.1,0.7,0.2,1.1c0.1,0.2,0.3,0.2,0.6,0.2c0.6-0.2,1.1-0.3,1.6-0.4c0.2-0.1,0.4-0.2,0.4-0.4
				C41.2,21.1,41.2,20.7,41.1,20.4z"/>
			<path class="st1" d="M46.9,20c-0.1-0.2-0.4-0.3-0.6-0.4c-0.5-0.1-1.1-0.1-1.6-0.1c-0.2,0-0.4,0.2-0.4,0.4
				c0.1,0.4,0.2,0.7,0.4,1.1c0.1,0.2,0.3,0.3,0.6,0.3c0.6,0,1.1,0,1.6,0c0.2,0,0.4-0.1,0.4-0.3C47.2,20.7,47,20.4,46.9,20z"/>
			<path class="st1" d="M32.5,26c0-0.2-0.2-0.2-0.5-0.1c-0.5,0.3-1,0.7-1.5,1.1c-0.2,0.2-0.4,0.5-0.4,0.7c0,0.4,0,0.7,0,1.1
				c0,0.2,0.2,0.2,0.5,0c0.5-0.4,1.1-0.7,1.6-1.1c0.2-0.2,0.5-0.4,0.5-0.6C32.6,26.8,32.6,26.4,32.5,26z"/>
			<path class="st1" d="M38.5,23.2C38.4,23,38.2,23,37.9,23c-0.6,0.2-1.1,0.4-1.6,0.6c-0.2,0.1-0.5,0.4-0.4,0.6
				c0.1,0.4,0.1,0.7,0.1,1.1c0,0.2,0.2,0.2,0.6,0.1c0.6-0.2,1.1-0.4,1.7-0.6c0.3-0.1,0.5-0.3,0.4-0.5C38.6,24,38.6,23.6,38.5,23.2z"
				/>
			<path class="st1" d="M41.6,22.4c-0.1-0.2-0.3-0.3-0.6-0.2c-0.6,0.1-1.1,0.2-1.6,0.4c-0.2,0.1-0.5,0.3-0.4,0.5
				c0.1,0.4,0.1,0.7,0.2,1.1c0.1,0.2,0.3,0.2,0.6,0.2c0.6-0.2,1.1-0.3,1.7-0.4c0.3-0.1,0.5-0.2,0.4-0.4
				C41.8,23.1,41.7,22.7,41.6,22.4z"/>
			<path class="st1" d="M47.7,21.9c-0.1-0.2-0.4-0.3-0.6-0.4c-0.6,0-1.1,0-1.6,0c-0.2,0-0.4,0.2-0.4,0.4c0.1,0.4,0.2,0.7,0.4,1.1
				c0.1,0.2,0.4,0.3,0.6,0.3c0.6,0,1.1,0,1.7,0c0.3,0,0.4-0.1,0.4-0.3C48,22.6,47.9,22.3,47.7,21.9z"/>
			<path class="st1" d="M45.4,23.9c-0.1-0.2-0.4-0.3-0.6-0.2c-0.6,0.1-1.1,0.1-1.7,0.2c-0.3,0.1-0.5,0.2-0.4,0.4
				c0.1,0.4,0.2,0.7,0.3,1.1c0.1,0.2,0.3,0.3,0.6,0.2c0.6-0.1,1.2-0.2,1.8-0.2c0.3-0.1,0.5-0.2,0.4-0.4
				C45.5,24.6,45.5,24.3,45.4,23.9z"/>
			<path class="st1" d="M48.5,23.9c-0.1-0.2-0.4-0.3-0.6-0.4c-0.6,0-1.1,0-1.7,0c-0.3,0-0.5,0.2-0.4,0.4c0.1,0.4,0.2,0.7,0.4,1.1
				c0.1,0.2,0.4,0.3,0.7,0.3c0.6-0.1,1.2-0.1,1.7-0.1c0.3,0,0.5-0.1,0.4-0.3C48.8,24.5,48.6,24.2,48.5,23.9z"/>
			<path class="st1" d="M39.3,27.4c-0.1-0.2-0.3-0.2-0.6-0.2c-0.6,0.2-1.2,0.4-1.7,0.6c-0.3,0.1-0.5,0.4-0.5,0.6
				c0.1,0.4,0.1,0.7,0.1,1.1c0,0.2,0.3,0.2,0.6,0.1c0.6-0.2,1.2-0.4,1.9-0.7c0.3-0.1,0.6-0.3,0.5-0.5C39.4,28.1,39.4,27.7,39.3,27.4
				z"/>
			<path class="st1" d="M42.7,26.5c-0.1-0.2-0.3-0.3-0.6-0.2c-0.6,0.1-1.2,0.3-1.8,0.4c-0.3,0.1-0.5,0.3-0.5,0.5
				c0.1,0.4,0.1,0.7,0.2,1.1c0.1,0.2,0.3,0.2,0.6,0.2c0.6-0.2,1.2-0.3,1.9-0.5c0.3-0.1,0.6-0.2,0.5-0.4
				C42.9,27.2,42.8,26.9,42.7,26.5z"/>
			<path class="st1" d="M46,26c-0.1-0.2-0.4-0.3-0.7-0.2c-0.6,0.1-1.2,0.2-1.8,0.2c-0.3,0-0.5,0.2-0.5,0.4c0.1,0.4,0.2,0.7,0.3,1.1
				c0.1,0.2,0.4,0.3,0.7,0.2c0.6-0.1,1.2-0.2,1.9-0.3c0.3-0.1,0.5-0.2,0.4-0.4C46.2,26.7,46.1,26.3,46,26z"/>
			<path class="st1" d="M49.3,25.9c-0.1-0.2-0.4-0.3-0.7-0.3c-0.6,0-1.2,0-1.7,0.1c-0.3,0-0.5,0.2-0.4,0.4c0.1,0.4,0.2,0.7,0.4,1.1
				c0.1,0.2,0.4,0.3,0.7,0.3c0.6-0.1,1.2-0.1,1.8-0.1c0.3,0,0.5-0.1,0.4-0.3C49.6,26.5,49.5,26.2,49.3,25.9z"/>
		</g>
	</g>
</g>
<path class="st4" d="M510.1,50.6H309.4c-2.4,0-4.3-1.9-4.3-4.3V13.7c0-2.4,1.9-4.3,4.3-4.3h200.7c2.4,0,4.3,1.9,4.3,4.3v32.7
	C514.4,48.7,512.5,50.6,510.1,50.6z"/>
<g>
	<g>
		<g>
			<g>
				<path class="st5" d="M411.9,43H322c-1.6,0-3-1.4-3-3V20.4c0-1.6,1.4-3,3-3h90c1.6,0,3,1.4,3,3V40C415,41.6,413.6,43,411.9,43z"
					/>
				<path class="st1" d="M411.9,43.6H322c-2,0-3.8-1.7-3.8-3.8V20.4c0-2,1.7-3.8,3.8-3.8h90c2,0,3.8,1.7,3.8,3.8v19.5
					C415.7,42,414.1,43.6,411.9,43.6z M322,18.1c-1.3,0-2.4,1.1-2.4,2.4V40c0,1.3,1.1,2.4,2.4,2.4h90c1.3,0,2.4-1.1,2.4-2.4V20.4
					c0-1.3-1.1-2.4-2.4-2.4C411.9,18.1,322,18.1,322,18.1z"/>
			</g>
		</g>
	</g>
	<g>
		<path class="st6" d="M336.3,35.2c-0.2,0.1-0.5,0.2-0.7,0.3c-0.3,0.1-0.7,0.1-1.2,0.2c-0.3,0-0.9,0.1-1.3,0.1h-5.9
			c-1.4,0-2.4-0.3-3-1.1c-0.7-0.7-1.1-1.8-1.1-3.2v-1.8v-0.3h0.3h1.6h0.3v0.3v1.8c0,0.7,0.1,1.2,0.5,1.5c0.3,0.3,0.9,0.5,1.5,0.5
			h6.3c-0.3-0.5-0.5-1.2-0.5-1.9c0-0.5,0.1-1,0.2-1.4c0.1-0.3,0.3-0.7,0.7-1.2c0.7-0.6,1.5-1,2.5-1s1.8,0.3,2.5,1
			c0.3,0.3,0.5,0.7,0.7,1.2c0.1,0.3,0.2,1,0.2,1.4c0,0.7-0.1,1.4-0.5,1.9h1.4c0.1,0,0.1,0,0.2,0s0.1,0.1,0.1,0.1
			c0,0.1,0.1,0.1,0.1,0.1s0,0.1,0,0.2c0,0.1,0,0.1,0,0.1v0.1c0,0,0,0,0,0.1v0.1c0,0,0,0,0,0.1s0,0.1,0,0.2c0,0,0,0.1,0,0.2
			c0,0.1,0,0.1,0,0.2c0,0,0,0.1-0.1,0.1c0,0.1-0.1,0.1-0.1,0.1c-0.1,0-0.1,0-0.2,0h-1.3C338.3,35.9,337.3,35.6,336.3,35.2z M335,25
			l0.7-0.7c0.2-0.2,0.5-0.3,0.7,0l1,0.9c0.2,0.2,0.2,0.5,0,0.7l-0.7,0.7c-0.2,0.2-0.5,0.2-0.7,0l-0.9-1
			C334.6,25.5,334.6,25.2,335,25z M335,31.7c0,0.3,0.1,0.6,0.3,1c0.2,0.2,0.5,0.3,1,0.3s0.7-0.1,1-0.3c0.2-0.2,0.3-0.5,0.3-1
			c0-0.4-0.1-0.6-0.3-1c-0.1-0.1-0.2-0.2-0.3-0.3s-0.3-0.1-0.5-0.1c-0.1,0-0.3,0-0.5,0.1c-0.1,0.1-0.3,0.1-0.3,0.3
			c-0.1,0.1-0.2,0.2-0.3,0.3c0,0.1,0,0.1-0.1,0.2C335,31.5,335,31.5,335,31.7z"/>
		<path class="st6" d="M348.4,35.9h-0.1c-1.2,0-2.1-0.3-2.8-1c-0.7,0.7-1.8,1-3.2,1h-1.6c-0.2,0-0.4-0.1-0.5-0.3
			c-0.1-0.1-0.1-0.4-0.1-0.7v-0.1c0-0.3,0-0.5,0.1-0.7c0.1-0.3,0.3-0.3,0.6-0.3h1.6c0.4,0,0.9,0,1.2-0.1c0.3-0.1,0.5-0.2,0.6-0.4
			c0.1-0.1,0.1-0.4,0.1-0.7V30v-0.2h0.3h1.6h0.3v0.3v2.4c0,0.5,0.1,0.9,0.3,1.1c0.2,0.2,0.7,0.3,1.3,0.3h0.1c0.1,0,0.2,0,0.3,0.1
			s0.1,0.1,0.1,0.2c0.1,0.1,0,0.2,0,0.3s0,0.1,0,0.3c0,0,0,0,0,0.1V35c0,0,0,0,0,0.1s0,0.1,0,0.1v0.1v0.1c0,0,0,0.1-0.1,0.1
			C348.6,35.8,348.5,35.8,348.4,35.9L348.4,35.9C348.6,35.9,348.4,35.9,348.4,35.9z M340.7,38.4l0.7-0.7c0.2-0.2,0.5-0.2,0.7,0
			l0.9,0.9c0.2,0.2,0.2,0.5,0,0.7l-0.7,0.7c-0.2,0.2-0.5,0.2-0.7,0l-0.9-0.9C340.4,38.9,340.4,38.8,340.7,38.4z M343.9,38.4l0.7-0.7
			c0.2-0.2,0.5-0.2,0.7,0l0.9,0.9c0.2,0.2,0.2,0.5,0,0.7l-0.7,0.7c-0.2,0.2-0.5,0.2-0.7,0l-1-0.9C343.6,38.9,343.7,38.8,343.9,38.4z
			"/>
		<path class="st6" d="M357.6,35.9h-1.2c-0.5,0-1.2-0.1-1.6-0.1s-1-0.2-1.5-0.5c-1,0.4-2.1,0.7-3.2,0.7h-1.6c-0.2,0-0.4-0.1-0.5-0.3
			c-0.1-0.1-0.1-0.4-0.1-0.7v-0.1c0-0.3,0.1-0.5,0.1-0.7c0.1-0.1,0.3-0.3,0.5-0.3h2c-0.3-0.5-0.5-1.2-0.5-1.9c0-1,0.3-1.8,1-2.5
			c0.7-0.6,1.5-1,2.5-1s1.8,0.3,2.5,1c0.1,0.1,0.3,0.3,0.3,0.5c0.1,0.2,0.2,0.3,0.3,0.5c0.1,0.1,0.1,0.3,0.1,0.6
			c0,0.3,0.1,0.4,0.1,0.7s0,0.7-0.1,1s-0.2,0.6-0.3,1h1.4c0.1,0,0.1,0,0.2,0s0.1,0.1,0.1,0.1c0,0.1,0.1,0.1,0.1,0.1s0,0.1,0,0.2
			c0,0.1,0,0.1,0,0.1v0.1c0,0,0,0,0,0.1v0.1c0,0,0,0,0,0.1s0,0.1,0,0.1V35c0,0.1,0,0.1,0,0.1v0.1c0,0.1,0,0.1-0.1,0.1l-0.1,0.1
			l-0.1,0.1C357.7,35.9,357.6,35.9,357.6,35.9z M351.9,25l0.7-0.7c0.2-0.2,0.5-0.3,0.7,0l1,0.9c0.2,0.2,0.2,0.5,0,0.7l-0.7,0.7
			c-0.2,0.2-0.5,0.2-0.7,0l-0.9-1C351.7,25.5,351.7,25.2,351.9,25z M351.9,31.7c0,0.3,0.1,0.6,0.3,1c0.3,0.3,0.5,0.3,1,0.3
			c0.4,0,0.7-0.1,1-0.3c0.2-0.2,0.3-0.5,0.3-1c0-0.4-0.1-0.6-0.3-1c-0.1-0.1-0.2-0.2-0.3-0.3s-0.3-0.1-0.5-0.1c-0.1,0-0.3,0-0.5,0.1
			c-0.1,0.1-0.3,0.1-0.3,0.3l-0.1,0.1l-0.1,0.1c0,0,0,0.1-0.1,0.1v0.1v0.1C351.9,31.5,351.9,31.5,351.9,31.7z"/>
		<path class="st6" d="M365.5,34.3l-0.7,0.3c-1.4,0.7-2.8,1.1-4.3,1.1h-2.7c-0.2,0-0.4-0.1-0.5-0.3s-0.1-0.4-0.1-0.7v-0.1
			c0-0.3,0-0.5,0.1-0.7c0.1-0.3,0.3-0.3,0.6-0.3h2.6c0.6,0,1.2-0.1,1.8-0.1c0.5-0.1,1.1-0.3,1.6-0.5l2-1l-1.2-0.7
			c-0.7-0.3-1.4-0.6-2.1-0.6c-0.6,0-1.2,0.2-1.9,0.7l-0.6,0.5l-0.2,0.1l-0.1-0.2l-1-1.2l-0.2-0.2l0.2-0.1l0.5-0.4c1-0.7,2-1.3,3-1.4
			s2.1,0.1,3.2,0.7l1.6,1c0.1,0.1,0.3,0.1,0.5,0.3c0.1,0.1,0.3,0.1,0.5,0.1c0.1,0,0.3,0.1,0.4,0.1h0.2v0.2v1.6v0.1l-0.1,0.1l-1,0.5
			c0.3,0.1,0.7,0.3,1.2,0.3h1.1c0.1,0,0.2,0,0.3,0.1s0.1,0.1,0.1,0.2c0,0.2,0,0.2,0,0.3s0,0.1,0,0.3c0,0,0,0,0,0.1v0.1
			c0,0.2,0,0.5-0.1,0.6c-0.1,0.2-0.2,0.3-0.4,0.3h-1c-0.6,0-1.2-0.1-1.8-0.3C366.2,35.2,365.7,34.8,365.5,34.3z M361.3,24.8l0.7-0.7
			c0.2-0.2,0.5-0.3,0.7,0l1,0.9c0.2,0.2,0.2,0.5,0,0.7l-0.7,0.7c-0.2,0.2-0.5,0.2-0.7,0l-0.9-1C361,25.2,361,25,361.3,24.8z"/>
		<path class="st6" d="M369.5,35.9c-0.2,0-0.4-0.1-0.5-0.3c-0.1-0.1-0.1-0.4-0.1-0.7v-0.1c0-0.3,0.1-0.5,0.1-0.7
			c0.1-0.1,0.3-0.3,0.5-0.3h2.1c0.5,0,1-0.1,1.2-0.3s0.3-0.5,0.3-1.1v-2.6v-0.3h0.3h1.5h0.3v0.3v2.6c0,1.2-0.3,2.1-1,2.6
			c-0.6,0.6-1.5,1-2.6,1L369.5,35.9L369.5,35.9L369.5,35.9z M369.8,25.8l0.7-0.7c0.2-0.2,0.5-0.2,0.7,0l0.9,0.9
			c0.2,0.2,0.2,0.5,0,0.7l-0.7,0.7c-0.2,0.2-0.5,0.2-0.7,0l-0.9-0.9C369.6,26.3,369.6,26.1,369.8,25.8z M373,25.8l0.7-0.7
			c0.2-0.2,0.5-0.2,0.7,0l0.9,0.9c0.2,0.2,0.2,0.5,0,0.7l-0.7,0.7c-0.2,0.2-0.5,0.2-0.7,0l-1-0.9C372.8,26.3,372.8,26.1,373,25.8z"
			/>
		<path class="st6" d="M379.3,25c0-0.5,0.1-1,0.6-1.3c0.3-0.3,0.9-0.5,1.4-0.5s1,0.1,1.4,0.5c0.1,0.1,0.1,0.1,0.2,0.2
			c0.2,0.2,0.1,0.2,0.1,0.3c0.1,0.1,0.1,0.2,0.1,0.3c0.1,0.1,0.1,0.2,0.1,0.3c0,0.1,0,0.3-0.1,0.4c0,0.1-0.1,0.1-0.1,0.1
			c0,0.1-0.1,0.1-0.1,0.1c-0.1,0.1-0.1,0.1-0.1,0.1c-0.1,0.1-0.1,0.2-0.3,0.3c-0.3,0.3-0.9,0.5-1.4,0.5s-1-0.1-1.4-0.5
			c-0.1-0.1-0.3-0.3-0.4-0.6C379.3,25.5,379.3,25.4,379.3,25z M387,22.7l1.6,0.9l0.3,0.1l-7.2,12.6l-0.3-0.1l-1.5-0.9l-0.3-0.1
			l7.2-12.5C386.6,22.7,387,22.7,387,22.7z M385.5,33.2L385.5,33.2L385.5,33.2L385.5,33.2V33v-0.1v-0.1c0-0.1,0-0.1,0.1-0.1
			c0-0.1,0-0.1,0-0.1v-0.1c0-0.1,0.1-0.1,0.1-0.1l0.1-0.1c0-0.1,0-0.1,0.1-0.1c0.1-0.1,0.1-0.1,0.1-0.1l0.1-0.1l0.1-0.1l0.1-0.1
			l0.1-0.1c0.1-0.1,0.1-0.1,0.1-0.1c0.3-0.3,0.9-0.5,1.4-0.5c0.1,0,0.3,0.1,0.4,0.1s0.1,0.1,0.2,0.1s0.1,0.1,0.1,0.1s0.1,0,0.1,0.1
			c0.1,0,0.1,0.1,0.1,0.1c0.1,0.1,0.2,0.1,0.3,0.3c0.3,0.3,0.6,0.9,0.6,1.3s-0.1,1-0.6,1.3c-0.1,0.1-0.3,0.3-0.6,0.3
			c-0.2,0.1-0.4,0.1-0.7,0.1c-0.5,0-1-0.1-1.4-0.5C385.8,34.2,385.5,33.6,385.5,33.2z"/>
	</g>
	<g>
		<path class="st6" d="M399.1,29.9c-0.5,0-0.9,0-1.3-0.2c-0.4-0.1-0.9-0.2-1.3-0.4c0.1,0.7,0.2,1.3,0.2,2s0.1,1.3,0.1,1.8
			c0,0.6,0,1.2,0,1.7c0,0.6,0,1.1,0,1.7H394c0-1.3,0-2.6-0.1-3.8c0-1.3-0.2-2.4-0.3-3.6c-0.2-1.1-0.4-2.2-0.7-3.3
			c-0.3-1-0.7-1.9-1.3-2.7l2.5-1.5c0.2,0.4,0.4,0.6,0.6,1c0.2,0.3,0.3,0.6,0.5,0.9c0.2-0.4,0.5-0.6,0.8-0.9c0.3-0.2,0.6-0.5,1-0.6
			c0.4-0.2,0.7-0.3,1.1-0.4s0.8-0.1,1.2-0.1c0.3,0,0.5,0,0.8,0.1c0.3,0,0.5,0.1,0.8,0.2s0.5,0.2,0.8,0.4c0.3,0.2,0.5,0.4,0.8,0.6
			l-1.5,2.4c0,0-0.1,0-0.2-0.1s-0.2-0.2-0.5-0.2c-0.2-0.1-0.4-0.2-0.7-0.2c-0.3-0.1-0.6-0.1-0.9-0.1s-0.5,0-0.8,0.2
			c-0.3,0.1-0.5,0.2-0.7,0.4c-0.2,0.2-0.4,0.3-0.5,0.5s-0.2,0.4-0.2,0.5l0,0c0,0.2,0.2,0.4,0.3,0.5c0.2,0.2,0.4,0.2,0.7,0.3
			c0.3,0.1,0.5,0.2,0.8,0.2s0.5,0,0.7,0s0.5,0,0.7,0s0.5-0.1,0.8-0.2s0.5-0.2,0.8-0.2c0.2-0.1,0.5-0.2,0.7-0.4l1.2,2.3
			c-0.7,0.5-1.5,0.9-2.2,1.1C400.4,29.8,399.7,29.9,399.1,29.9z"/>
		<path class="st6" d="M403.6,30.8c0-0.5,0.1-0.9,0.3-1.4c0.2-0.4,0.4-0.8,0.7-1.1c0.3-0.3,0.7-0.6,1.1-0.7c0.4-0.2,0.9-0.3,1.4-0.3
			s0.9,0.1,1.4,0.3c0.4,0.2,0.8,0.4,1.1,0.7c0.3,0.3,0.6,0.7,0.7,1.1c0.2,0.4,0.3,0.9,0.3,1.4s-0.1,1-0.3,1.4
			c-0.2,0.4-0.4,0.8-0.7,1.1c-0.3,0.3-0.7,0.6-1.1,0.7c-0.4,0.2-0.9,0.3-1.4,0.3s-1-0.1-1.4-0.3s-0.8-0.4-1.1-0.7
			c-0.3-0.3-0.6-0.7-0.7-1.1C403.7,31.7,403.6,31.3,403.6,30.8z M405.7,30.8c0,0.2,0,0.4,0.1,0.5c0.1,0.2,0.2,0.3,0.3,0.5
			c0.2,0.2,0.3,0.2,0.5,0.3s0.4,0.1,0.5,0.1c0.2,0,0.4,0,0.5-0.1c0.2-0.1,0.3-0.2,0.5-0.3c0.2-0.2,0.2-0.3,0.3-0.5
			c0.1-0.2,0.1-0.4,0.1-0.5c0-0.2,0-0.4-0.1-0.5c-0.1-0.2-0.2-0.3-0.3-0.5c-0.2-0.2-0.3-0.2-0.5-0.3c-0.2-0.1-0.4-0.1-0.5-0.1
			c-0.2,0-0.4,0-0.5,0.1c-0.2,0.1-0.3,0.2-0.5,0.3c-0.2,0.2-0.2,0.3-0.3,0.5C405.8,30.4,405.7,30.6,405.7,30.8z"/>
	</g>
</g>
<g>
	<g>
		<g class="st7">
			<g>
				<path d="M170.4,21.7c-0.5,0-1.1,0-1.7-0.1c-0.6,0-1.2-0.1-1.8-0.3c-0.6-0.1-1.2-0.3-1.7-0.5c-0.6-0.2-1.1-0.5-1.5-0.9
					s-0.8-0.8-1.1-1.3s-0.4-1.1-0.5-1.8c0-0.4,0-0.7,0.1-1c0.1-0.3,0.2-0.6,0.3-0.9c0.1-0.3,0.3-0.6,0.4-0.9
					c0.1-0.3,0.3-0.6,0.5-0.9l2,1.7c-0.1,0.1-0.2,0.3-0.3,0.5s-0.2,0.4-0.3,0.6c-0.1,0.2-0.2,0.4-0.3,0.6c-0.1,0.2-0.1,0.4-0.1,0.6
					s0.1,0.4,0.2,0.6c0.1,0.2,0.4,0.3,0.6,0.4c0.3,0.1,0.6,0.2,1,0.3s0.8,0.2,1.2,0.2c0.4,0.1,0.9,0.1,1.4,0.1s1,0,1.5,0
					c0.2,0,0.5,0,0.7,0c0.3,0,0.5,0,0.7,0s0.4,0,0.6,0c0.2,0,0.3,0,0.4,0c-0.2-0.2-0.4-0.5-0.6-0.9c-0.2-0.4-0.3-0.7-0.3-1.1
					s0-0.7,0.1-1c0.1-0.4,0.2-0.7,0.4-1c0.1-0.3,0.4-0.6,0.6-0.9c0.2-0.3,0.5-0.5,0.8-0.7s0.6-0.4,0.9-0.5c0.3-0.1,0.7-0.2,1-0.1
					c0.5,0,1,0.1,1.4,0.4c0.4,0.2,0.8,0.5,1.1,0.9s0.6,0.8,0.7,1.3c0.2,0.5,0.3,1,0.3,1.5c0,0.4-0.1,0.8-0.2,1.2
					c-0.1,0.4-0.3,0.7-0.5,1.1c0.3,0,0.6,0.1,0.8,0.1c0.3,0,0.5,0,0.7,0h0.3v2.7H180c-0.4,0-0.7,0-1.1,0c-0.4,0-0.8,0-1.1-0.1
					c-0.4-0.1-0.7-0.1-1.1-0.2s-0.7-0.2-1.1-0.4c-0.1,0.1-0.3,0.1-0.6,0.2c-0.2,0.1-0.5,0.1-0.8,0.2s-0.6,0.1-1,0.1
					s-0.7,0.1-1.1,0.1c-0.4,0-0.7,0.1-1,0.1C171,21.7,170.6,21.7,170.4,21.7z M176.1,11.2l-1.9-1.9l1.9-1.9l1.9,1.9L176.1,11.2z
					 M177,16.8c0-0.2-0.1-0.4-0.1-0.5c-0.1-0.2-0.2-0.3-0.3-0.4c-0.1-0.1-0.3-0.2-0.4-0.3c-0.1-0.1-0.3-0.1-0.4-0.2
					c-0.1,0-0.3,0.1-0.4,0.1c-0.2,0.1-0.3,0.2-0.5,0.3s-0.3,0.3-0.4,0.5c-0.1,0.2-0.1,0.4-0.1,0.7c0,0.1,0.1,0.2,0.1,0.4
					s0.2,0.3,0.4,0.5c0.1,0.1,0.3,0.3,0.5,0.4s0.4,0.2,0.6,0.3c0.1-0.1,0.3-0.2,0.4-0.3c0.1-0.1,0.3-0.3,0.4-0.4
					c0.1-0.1,0.2-0.3,0.3-0.5C177,17.1,177,16.9,177,16.8z"/>
				<path d="M185.7,19v2.7h-5.6V19H185.7z"/>
				<path d="M193,19v2.7h-0.2c-0.3,0-0.6,0-0.8-0.1c-0.3-0.1-0.5-0.1-0.8-0.2c-0.2-0.1-0.4-0.2-0.6-0.3c-0.2-0.1-0.4-0.2-0.5-0.4
					c-0.3,0.2-0.6,0.4-0.9,0.5c-0.4,0.1-0.7,0.2-1.1,0.3c-0.4,0.1-0.8,0.1-1.2,0.1s-0.8,0-1.2,0h-0.3V19h0.3c0.4,0,0.8,0,1.1,0
					s0.6-0.1,0.9-0.1c0.2-0.1,0.4-0.1,0.6-0.2c0.2-0.1,0.3-0.2,0.4-0.4c0.1-0.2,0.2-0.4,0.2-0.6s0-0.5,0-0.7s-0.1-0.5-0.1-0.7
					c-0.1-0.2-0.1-0.5-0.2-0.7l2.5-0.7c0.1,0.3,0.1,0.5,0.2,0.7s0.1,0.4,0.1,0.6c0,0.2,0.1,0.4,0.1,0.6s0.1,0.4,0.1,0.7
					c0,0.1,0.1,0.3,0.1,0.5s0.1,0.4,0.2,0.5s0.2,0.3,0.4,0.4C192.4,19,192.7,19,193,19C192.7,19,193,19,193,19z M188.7,24.2
					l-1.6,1.6l-1.7-1.7l1.7-1.7L188.7,24.2l1.6-1.7l1.7,1.7l-1.7,1.7L188.7,24.2z"/>
				<path d="M192.7,19h0.6c0.1,0,0.3,0,0.4,0s0.3,0,0.4,0s0.2,0,0.3-0.1c-0.1-0.1-0.2-0.2-0.3-0.4s-0.2-0.3-0.3-0.4
					s-0.1-0.3-0.2-0.5s-0.1-0.4-0.1-0.6c0-0.4,0-0.7,0.1-1c0.1-0.4,0.2-0.7,0.4-1c0.1-0.3,0.4-0.6,0.6-0.9c0.2-0.3,0.5-0.5,0.8-0.7
					s0.6-0.4,0.9-0.5c0.3-0.1,0.7-0.2,1-0.1c0.5,0,1,0.1,1.4,0.4s0.8,0.5,1.1,0.9s0.6,0.8,0.7,1.3c0.2,0.5,0.3,1,0.3,1.5
					c0,0.4-0.1,0.8-0.2,1.2c-0.1,0.4-0.3,0.7-0.5,1.1c0.1,0,0.3,0.1,0.6,0.1c0.2,0,0.5,0,0.9,0h0.2V22h-0.3c-0.4,0-0.7,0-1.1,0
					c-0.3,0-0.7-0.1-1-0.1c-0.3-0.1-0.6-0.1-1-0.2c-0.3-0.1-0.7-0.2-1-0.4c-0.2,0.1-0.5,0.2-0.8,0.3c-0.3,0.1-0.7,0.1-1.1,0.2
					c-0.4,0.1-0.8,0.1-1.2,0.1s-0.8,0-1.2,0h-0.3L192.7,19L192.7,19z M197.1,11.3l-1.9-1.9l1.9-1.9l1.9,1.9L197.1,11.3z M198.5,16.8
					c0-0.2-0.1-0.4-0.1-0.5c-0.1-0.2-0.2-0.3-0.3-0.4c-0.1-0.1-0.3-0.2-0.4-0.3c-0.1-0.1-0.3-0.1-0.4-0.2c-0.1,0-0.3,0.1-0.4,0.1
					c-0.2,0.1-0.3,0.2-0.5,0.3c-0.1,0.1-0.3,0.3-0.4,0.5c-0.1,0.2-0.1,0.4-0.1,0.7c0,0.1,0.1,0.2,0.1,0.4c0.1,0.1,0.2,0.3,0.4,0.5
					c0.1,0.1,0.3,0.3,0.5,0.4s0.4,0.2,0.6,0.3c0.1-0.1,0.3-0.2,0.4-0.3c0.1-0.1,0.3-0.3,0.4-0.4c0.1-0.1,0.2-0.3,0.3-0.5
					C198.5,17.1,198.5,16.9,198.5,16.8z"/>
				<path d="M201.4,19h1.8c0.4,0,0.9,0,1.3-0.1c0.5-0.1,0.9-0.1,1.4-0.2s1-0.2,1.5-0.4c0.5-0.1,1-0.3,1.4-0.4
					c0.5-0.1,0.9-0.3,1.4-0.5s0.8-0.4,1.2-0.5c-0.4-0.1-0.8-0.2-1.2-0.4c-0.4-0.1-0.9-0.3-1.3-0.5c-0.4-0.2-0.9-0.3-1.3-0.4
					c-0.4-0.1-0.8-0.1-1.1-0.1c-0.2,0-0.4,0.1-0.6,0.1c-0.2,0.1-0.4,0.2-0.6,0.3c-0.2,0.1-0.3,0.3-0.5,0.4c-0.1,0.1-0.3,0.3-0.4,0.4
					c-0.1,0.1-0.2,0.2-0.2,0.3l-0.1,0.1l-2.1-1.2c0.2-0.4,0.5-0.9,0.8-1.2c0.3-0.4,0.7-0.7,1.1-1.1s0.8-0.5,1.2-0.7s0.8-0.3,1.3-0.3
					c0.3,0,0.6,0,0.9,0.1c0.3,0.1,0.6,0.1,0.9,0.3c0.3,0.1,0.6,0.2,0.9,0.4c0.3,0.1,0.6,0.3,1,0.4s0.7,0.3,1.1,0.5
					c0.4,0.1,0.8,0.3,1.3,0.4c0.4,0.1,0.9,0.2,1.3,0.3c0.4,0.1,0.9,0.1,1.3,0.1l-0.4,2.6c-0.1,0.1-0.3,0.1-0.4,0.2
					c-0.2,0.1-0.3,0.1-0.4,0.2l-0.2,0.1c0.1,0.1,0.3,0.3,0.5,0.4s0.4,0.1,0.6,0.2c0.2,0,0.4,0.1,0.6,0.1c0.2,0,0.4,0,0.5,0h0.3v2.7
					h-0.3c-0.6,0-1.1-0.1-1.6-0.1c-0.5-0.1-0.9-0.2-1.3-0.4c-0.4-0.2-0.8-0.4-1.1-0.7c-0.3-0.3-0.6-0.6-0.8-0.9
					c-0.6,0.3-1.2,0.6-1.8,0.8c-0.6,0.3-1.3,0.5-1.9,0.7c-0.7,0.2-1.4,0.4-2.1,0.5c-0.7,0.1-1.4,0.2-2.2,0.2h-1.8L201.4,19L201.4,19
					z M206.2,11.9l-1.9-1.9l1.9-1.9l1.9,1.9L206.2,11.9z"/>
				<path d="M215.8,19h2.1c0.2,0,0.5,0,0.8,0s0.6-0.1,0.9-0.1c0.3-0.1,0.5-0.2,0.6-0.4c0.2-0.1,0.3-0.4,0.3-0.6c0-0.1,0-0.4-0.1-0.6
					c-0.1-0.3-0.2-0.6-0.3-0.9s-0.3-0.7-0.5-1.1c-0.2-0.4-0.4-0.7-0.5-1.1l2.5-1.2c0.1,0.4,0.3,0.8,0.5,1.1c0.1,0.4,0.3,0.8,0.4,1.2
					s0.2,0.9,0.3,1.3s0.1,0.8,0.1,1.2c0,0.7-0.1,1.3-0.4,1.8c-0.3,0.5-0.6,0.9-1.1,1.2c-0.4,0.3-1,0.5-1.6,0.7
					c-0.6,0.1-1.3,0.2-1.9,0.2h-2.1V19L215.8,19z M219.8,10.1l-1.6,1.6l-1.7-1.7l1.7-1.7L219.8,10.1l1.6-1.7l1.7,1.7l-1.7,1.7
					L219.8,10.1z"/>
				<path d="M233.5,21.7c-0.5,0-0.9-0.1-1.4-0.2s-0.9-0.4-1.3-0.7c-0.4-0.3-0.7-0.7-0.9-1.1s-0.4-0.9-0.4-1.5c0-1.1,0.5-2.4,1.5-3.6
					c0.1-0.1,0.1-0.2,0.2-0.2c0.1-0.1,0.1-0.1,0.1-0.2c0-0.1,0.1-0.1,0.1-0.1l0.1-0.1l-0.5-0.4l1.7-2.1c0.3,0.2,0.6,0.5,1.1,0.9
					c0.4,0.4,0.9,0.9,1.4,1.4c1.5,1.7,2.2,3.2,2.2,4.6c0,0.6-0.1,1.1-0.4,1.5s-0.6,0.8-0.9,1.1c-0.4,0.3-0.8,0.5-1.3,0.7
					C234.4,21.6,234,21.7,233.5,21.7z M235.1,18.2c0-0.2-0.1-0.4-0.2-0.6s-0.3-0.5-0.4-0.7s-0.4-0.5-0.6-0.7
					c-0.2-0.3-0.5-0.5-0.7-0.7c-0.1,0.2-0.3,0.4-0.5,0.6c-0.2,0.2-0.3,0.4-0.5,0.7s-0.3,0.5-0.4,0.7c-0.1,0.3-0.1,0.5-0.1,0.8
					c0,0.1,0.1,0.3,0.2,0.4c0.1,0.1,0.3,0.2,0.4,0.3c0.2,0.1,0.4,0.1,0.6,0.1c0.2,0,0.4,0.1,0.5,0.1c0.2,0,0.4,0,0.6,0
					c0.2,0,0.4-0.1,0.6-0.1c0.2-0.1,0.3-0.1,0.4-0.3C235.1,18.5,235.1,18.3,235.1,18.2z"/>
				<path d="M243.1,16.5c0.1,0.4,0.3,0.9,0.4,1.3c0.1,0.4,0.2,0.9,0.3,1.3s0.1,0.9,0.1,1.2c0,0.5-0.1,1.1-0.2,1.6s-0.4,1-0.6,1.5
					c-0.3,0.5-0.6,0.9-1,1.4c-0.4,0.4-0.8,0.9-1.2,1.3s-0.9,0.8-1.4,1.1c-0.5,0.3-1.1,0.6-1.6,0.9l-1.6-2.2c0.4-0.2,0.8-0.4,1.3-0.7
					c0.4-0.3,0.8-0.6,1.2-0.9s0.8-0.6,1.1-0.9s0.6-0.7,0.9-1c0.3-0.4,0.4-0.7,0.6-1s0.2-0.7,0.2-1c0-0.2,0-0.5-0.1-0.8
					s-0.1-0.6-0.3-0.9c-0.1-0.3-0.2-0.7-0.4-1c-0.1-0.4-0.3-0.8-0.5-1.2l2.5-1.1C242.8,15.7,242.9,16.1,243.1,16.5z"/>
				<path d="M245.5,20.3c0-0.5,0.1-1,0.1-1.5s0-1,0-1.4c0-0.5,0-0.9,0-1.3c0-0.8-0.1-1.5-0.1-2.1s-0.1-1.2-0.1-1.6
					c0-0.5-0.1-0.9-0.1-1.3c0-0.4-0.1-0.7-0.1-1s-0.1-0.6-0.1-0.9c0-0.3-0.1-0.5-0.1-0.8l2.7-0.9c0.1,0.8,0.2,1.6,0.3,2.3
					c0.1,0.8,0.1,1.5,0.2,2.3c0,0.7,0.1,1.4,0.1,2s0,1.1,0,1.6c0,0.4,0,0.8,0,1.3s0,0.9,0,1.4s0,1,0,1.5s0,1-0.1,1.5l-2.7,0.4
					C245.5,21.3,245.5,20.8,245.5,20.3z"/>
				<path d="M249.1,25.1c0.8-0.1,1.6-0.4,2.2-0.6c0.7-0.2,1.3-0.5,1.8-0.8s0.9-0.6,1.3-1c0.3-0.4,0.6-0.7,0.7-1c-0.2,0-0.5,0-0.8,0
					s-0.5,0-0.7,0c-0.6-0.1-1.1-0.1-1.6-0.3c-0.5-0.2-0.9-0.4-1.2-0.7s-0.6-0.6-0.8-1.1c-0.2-0.4-0.3-0.9-0.3-1.5
					c0-0.4,0-0.7,0.1-1.1s0.2-0.7,0.3-1.1s0.3-0.7,0.5-1s0.4-0.6,0.7-0.8s0.6-0.4,0.9-0.6c0.3-0.1,0.7-0.2,1-0.2
					c0.4,0,0.9,0.1,1.2,0.2c0.4,0.1,0.7,0.4,1,0.6c0.3,0.3,0.6,0.6,0.8,1c0.2,0.4,0.4,0.8,0.6,1.2s0.3,0.9,0.4,1.3s0.2,0.9,0.2,1.3
					h0.4v2.7h-0.6c-0.2,0.9-0.6,1.6-1.1,2.3c-0.5,0.7-1.1,1.3-1.8,1.8s-1.4,0.9-2.3,1.3c-0.9,0.3-1.7,0.6-2.6,0.7L249.1,25.1z
					 M253.3,16.1c-0.1,0-0.3,0-0.4,0.1c-0.1,0.1-0.3,0.3-0.4,0.4c-0.1,0.2-0.2,0.4-0.3,0.6s-0.1,0.4-0.1,0.6s0.1,0.4,0.2,0.5
					c0.1,0.1,0.3,0.2,0.5,0.3c0.2,0.1,0.4,0.1,0.6,0.2s0.5,0.1,0.7,0.1s0.5,0,0.7,0h0.5c-0.1-0.4-0.2-0.7-0.3-1s-0.3-0.6-0.4-0.9
					c-0.1-0.3-0.3-0.5-0.5-0.6C253.8,16.2,253.6,16.1,253.3,16.1z"/>
				<path d="M263.8,19v2.7h-6.1V19H263.8z"/>
				<path d="M269.8,19v2.7h-0.2c-0.6,0-1-0.1-1.4-0.2s-0.7-0.4-1-0.6c-0.4,0.3-0.9,0.5-1.5,0.7c-0.6,0.1-1.2,0.2-2,0.2h-0.3V19h0.3
					c0.8,0,1.4-0.1,1.8-0.4s0.6-0.6,0.6-1.2c0-0.2,0-0.4-0.1-0.7c-0.1-0.3-0.1-0.7-0.3-1.2l2.4-0.6c0.1,0.3,0.2,0.6,0.2,0.9
					c0.1,0.3,0.1,0.5,0.1,0.7c0,0.2,0.1,0.4,0.1,0.6s0,0.3,0,0.5c0,0.1,0,0.3,0.1,0.5c0,0.2,0.1,0.4,0.1,0.5
					c0.1,0.1,0.1,0.3,0.3,0.4c0.1,0.1,0.3,0.1,0.5,0.1L269.8,19L269.8,19z M266.1,13.5l-1.9-1.9l1.9-1.9l1.9,1.9L266.1,13.5z"/>
				<path d="M269.7,19c0.3,0,0.6-0.1,0.9-0.1c0.3-0.1,0.5-0.3,0.8-0.6c0.2-0.3,0.5-0.7,0.7-1.2s0.4-1.2,0.6-2.1l2.3,0.3v0.1
					c0,0.1-0.1,0.4-0.1,0.6c-0.1,0.3-0.1,0.6-0.1,0.9c0,0.3-0.1,0.6-0.1,0.9s0,0.6,0.1,0.8c0.1,0.2,0.2,0.4,0.4,0.4
					c0.2,0.1,0.4,0,0.5-0.1c0.2-0.1,0.3-0.3,0.5-0.5c0.1-0.2,0.3-0.5,0.4-0.8s0.2-0.6,0.4-0.9c0.1-0.3,0.2-0.6,0.3-0.9
					c0.1-0.3,0.1-0.6,0.2-0.8l2.3,0.3c0,0.1,0,0.3-0.1,0.6c0,0.2-0.1,0.5-0.1,0.8s0,0.5,0,0.8s0,0.5,0.1,0.7s0.1,0.4,0.3,0.6
					c0.1,0.1,0.3,0.2,0.5,0.2s0.4-0.1,0.5-0.2s0.3-0.3,0.4-0.5s0.2-0.4,0.2-0.7c0.1-0.3,0.1-0.5,0.1-0.8s0-0.5,0-0.8s0-0.5,0-0.7
					L284,15l0.3,2.4c0,0.3,0.1,0.5,0.2,0.7s0.3,0.4,0.4,0.5s0.3,0.2,0.5,0.3c0.2,0.1,0.3,0.1,0.5,0.1h0.3v2.7h-0.3
					c-0.6,0-1.1-0.1-1.6-0.3s-0.9-0.5-1.3-1c0,0.1-0.1,0.1-0.1,0.1l-0.1,0.1l0,0c-0.3,0.3-0.7,0.6-1.1,0.8c-0.4,0.2-0.9,0.3-1.3,0.3
					c-0.5,0-1-0.1-1.4-0.3c-0.4-0.2-0.8-0.5-1.1-0.9c-0.4,0.4-0.7,0.7-1.2,0.9s-0.9,0.4-1.4,0.4s-0.9-0.1-1.4-0.3
					c-0.4-0.2-0.8-0.5-1.1-0.9c-0.3,0.4-0.7,0.7-1.1,0.9c-0.5,0.2-1,0.3-1.7,0.3h-0.2L269.7,19L269.7,19z M274.8,15.3L274.8,15.3
					C274.8,15.2,274.8,15.2,274.8,15.3z M278.3,11.6l-1.6,1.6l-1.7-1.7l1.7-1.7L278.3,11.6l1.6-1.7l1.7,1.7l-1.7,1.7L278.3,11.6z
					 M279.9,9.1l-1.5,1.5L276.8,9l1.5-1.5L279.9,9.1z"/>
				<path d="M285.5,19h1.8c0.9,0,1.8-0.1,2.6-0.2c0.8-0.1,1.5-0.3,2.2-0.4c0.7-0.2,1.3-0.4,1.9-0.7c0.6-0.3,1.2-0.5,1.8-0.8
					c-0.4-0.1-0.8-0.2-1.2-0.4c-0.4-0.1-0.8-0.3-1.2-0.5c-0.4-0.1-0.8-0.3-1.2-0.4c-0.4-0.1-0.8-0.1-1.2-0.1c-0.3,0-0.5,0.1-0.8,0.2
					c-0.3,0.1-0.5,0.3-0.7,0.5s-0.4,0.4-0.5,0.5c-0.1,0.2-0.2,0.3-0.3,0.4l-2-1.3c0.2-0.4,0.5-0.8,0.8-1.1c0.3-0.4,0.6-0.7,1-1
					s0.7-0.5,1.2-0.7c0.4-0.1,0.9-0.3,1.3-0.3s0.7,0,1,0.1c0.4,0.1,0.7,0.2,1,0.3s0.7,0.2,1,0.4s0.6,0.3,1,0.4
					c0.3,0.1,0.6,0.3,0.9,0.4c0.3,0.1,0.6,0.3,1,0.4c0.3,0.1,0.7,0.2,1,0.3c0.4,0.1,0.7,0.1,1.1,0.1l-0.2,2.6l-1.2,0.6
					c-0.5,0.2-1,0.5-1.5,0.7s-1,0.5-1.5,0.7s-1.1,0.5-1.6,0.7c-0.6,0.2-1.1,0.4-1.7,0.6c-0.6,0.1-1.2,0.3-1.9,0.4
					c-0.7,0.1-1.4,0.1-2.1,0.1h-1.8L285.5,19L285.5,19z M292.7,26.4l-1.9-1.9l1.9-1.9l1.9,1.9L292.7,26.4z"/>
			</g>
		</g>
		<g>
			<g>
				<path class="st1" d="M169.8,20.8c-0.5,0-1.1,0-1.7-0.1c-0.6,0-1.2-0.1-1.8-0.3c-0.6-0.1-1.2-0.3-1.7-0.5
					c-0.6-0.2-1.1-0.5-1.5-0.9s-0.8-0.8-1.1-1.3s-0.4-1.1-0.5-1.8c0-0.4,0-0.7,0.1-1s0.2-0.6,0.3-0.9s0.3-0.6,0.4-0.9
					c0.1-0.3,0.3-0.6,0.5-0.9l2,1.7c-0.1,0.1-0.2,0.3-0.3,0.5s-0.2,0.4-0.3,0.6c-0.1,0.2-0.2,0.4-0.3,0.6s-0.1,0.4-0.1,0.6
					s0.1,0.4,0.2,0.6c0.1,0.2,0.4,0.3,0.6,0.4c0.3,0.1,0.6,0.2,1,0.3s0.8,0.2,1.2,0.2c0.4,0.1,0.9,0.1,1.4,0.1s1,0,1.5,0
					c0.2,0,0.5,0,0.7,0s0.5,0,0.7,0s0.4,0,0.6,0c0.2,0,0.3,0,0.4,0c-0.2-0.2-0.4-0.5-0.6-0.9c-0.2-0.4-0.3-0.7-0.3-1.1s0-0.7,0.1-1
					c0.1-0.4,0.2-0.7,0.4-1c0.1-0.3,0.4-0.6,0.6-0.9c0.2-0.3,0.5-0.5,0.8-0.7s0.6-0.4,0.9-0.5c0.3-0.1,0.7-0.2,1-0.1
					c0.5,0,1,0.1,1.4,0.4c0.4,0.2,0.8,0.5,1.1,0.9s0.6,0.8,0.7,1.3c0.2,0.5,0.3,1,0.3,1.5c0,0.4-0.1,0.8-0.2,1.2
					c-0.1,0.4-0.3,0.7-0.5,1.1c0.3,0,0.6,0.1,0.8,0.1c0.3,0,0.5,0,0.7,0h0.3v2.7h-0.2c-0.4,0-0.7,0-1.1,0c-0.4,0-0.8,0-1.1-0.1
					c-0.4-0.1-0.7-0.1-1.1-0.2s-0.7-0.2-1.1-0.4c-0.1,0.1-0.3,0.1-0.6,0.2c-0.2,0.1-0.5,0.1-0.8,0.2s-0.6,0.1-1,0.1
					s-0.7,0.1-1.1,0.1c-0.4,0-0.7,0.1-1,0.1C170.4,20.8,170.1,20.8,169.8,20.8z M175.5,10.3l-1.9-1.9l1.9-1.9l1.9,1.9L175.5,10.3z
					 M176.4,15.9c0-0.2-0.1-0.4-0.1-0.5s-0.2-0.3-0.3-0.4c-0.1-0.1-0.3-0.2-0.4-0.3c-0.1-0.1-0.3-0.1-0.4-0.2
					c-0.1,0-0.3,0.1-0.4,0.1c-0.2,0.1-0.3,0.2-0.5,0.3c-0.1,0.1-0.3,0.3-0.4,0.5c-0.1,0.2-0.1,0.4-0.1,0.7c0,0.1,0.1,0.2,0.1,0.4
					c0.1,0.1,0.2,0.3,0.4,0.5c0.1,0.1,0.3,0.3,0.5,0.4s0.4,0.2,0.6,0.3c0.1-0.1,0.3-0.2,0.4-0.3c0.1-0.1,0.3-0.3,0.4-0.4
					c0.1-0.1,0.2-0.3,0.3-0.5C176.4,16.2,176.4,16.1,176.4,15.9z"/>
				<path class="st1" d="M185.1,18.1v2.7h-5.6v-2.7H185.1z"/>
				<path class="st1" d="M192.5,18.1v2.7h-0.2c-0.3,0-0.6,0-0.8-0.1c-0.3-0.1-0.5-0.1-0.8-0.2c-0.2-0.1-0.4-0.2-0.6-0.3
					c-0.2-0.1-0.4-0.2-0.5-0.4c-0.3,0.2-0.6,0.4-0.9,0.5c-0.4,0.1-0.7,0.2-1.1,0.3c-0.4,0.1-0.8,0.1-1.2,0.1s-0.8,0-1.2,0h-0.3V18
					h0.3c0.4,0,0.8,0,1.1,0s0.6-0.1,0.9-0.1c0.2-0.1,0.4-0.1,0.6-0.2c0.2-0.1,0.3-0.2,0.4-0.4c0.1-0.2,0.2-0.4,0.2-0.6s0-0.5,0-0.7
					s-0.1-0.5-0.1-0.7c-0.1-0.2-0.1-0.5-0.2-0.7l2.5-0.7c0.1,0.3,0.1,0.5,0.2,0.7c0.1,0.2,0.1,0.4,0.1,0.6c0,0.2,0.1,0.4,0.1,0.6
					c0,0.2,0.1,0.4,0.1,0.7c0,0.1,0.1,0.3,0.1,0.5s0.1,0.4,0.2,0.5c0.1,0.1,0.2,0.3,0.4,0.4c0.1,0.1,0.4,0.1,0.6,0.1
					C192.1,18.1,192.5,18.1,192.5,18.1z M188.1,23.4l-1.6,1.6l-1.7-1.7l1.7-1.7L188.1,23.4l1.6-1.7l1.7,1.7l-1.7,1.7L188.1,23.4z"/>
				<path class="st1" d="M192.1,18.1h0.6c0.1,0,0.3,0,0.4,0s0.3,0,0.4,0c0.1,0,0.2,0,0.3-0.1c-0.1-0.1-0.2-0.2-0.3-0.4
					c-0.1-0.1-0.2-0.3-0.3-0.4s-0.1-0.3-0.2-0.5c-0.1-0.2-0.1-0.4-0.1-0.6c0-0.4,0-0.7,0.1-1c0.1-0.4,0.2-0.7,0.4-1
					c0.1-0.3,0.4-0.6,0.6-0.9c0.2-0.3,0.5-0.5,0.8-0.7s0.6-0.4,0.9-0.5c0.3-0.1,0.7-0.2,1-0.1c0.5,0,1,0.1,1.4,0.4
					c0.4,0.2,0.8,0.5,1.1,0.9s0.6,0.8,0.7,1.3c0.2,0.5,0.3,1,0.3,1.5c0,0.4-0.1,0.8-0.2,1.2c-0.1,0.4-0.3,0.7-0.5,1.1
					c0.1,0,0.3,0.1,0.6,0.1c0.2,0,0.5,0,0.9,0h0.2v2.7h-0.3c-0.4,0-0.7,0-1.1,0s-0.7-0.1-1-0.1c-0.3-0.1-0.6-0.1-1-0.2
					c-0.3-0.1-0.7-0.2-1-0.4c-0.2,0.1-0.5,0.2-0.8,0.3c-0.3,0.1-0.7,0.1-1.1,0.2c-0.4,0.1-0.8,0.1-1.2,0.1s-0.8,0-1.2,0h-0.3
					L192.1,18.1L192.1,18.1z M196.5,10.5l-1.9-1.9l1.9-1.9l1.9,1.9L196.5,10.5z M198,15.9c0-0.2-0.1-0.4-0.1-0.5
					c-0.1-0.2-0.2-0.3-0.3-0.4c-0.1-0.1-0.3-0.2-0.4-0.3c-0.1-0.1-0.3-0.1-0.4-0.2c-0.1,0-0.3,0.1-0.4,0.1c-0.2,0.1-0.3,0.2-0.5,0.3
					c-0.1,0.1-0.3,0.3-0.4,0.5c-0.1,0.2-0.1,0.4-0.1,0.7c0,0.1,0.1,0.2,0.1,0.4s0.2,0.3,0.4,0.5c0.1,0.1,0.3,0.3,0.5,0.4
					s0.4,0.2,0.6,0.3c0.1-0.1,0.3-0.2,0.4-0.3c0.1-0.1,0.3-0.3,0.4-0.4c0.1-0.1,0.2-0.3,0.3-0.5C197.9,16.2,198,16.1,198,15.9z"/>
				<path class="st1" d="M200.8,18.1h1.8c0.4,0,0.9,0,1.3-0.1c0.5-0.1,0.9-0.1,1.4-0.2s1-0.2,1.5-0.4c0.5-0.1,1-0.3,1.4-0.4
					c0.5-0.1,0.9-0.3,1.4-0.5s0.8-0.4,1.2-0.5c-0.4-0.1-0.8-0.2-1.2-0.4c-0.4-0.1-0.9-0.3-1.3-0.5c-0.4-0.2-0.9-0.3-1.3-0.4
					c-0.4-0.1-0.8-0.1-1.1-0.1c-0.2,0-0.4,0.1-0.6,0.1c-0.2,0.1-0.4,0.2-0.6,0.3c-0.2,0.1-0.3,0.3-0.5,0.4c-0.1,0.1-0.3,0.3-0.4,0.4
					c-0.1,0.1-0.2,0.2-0.2,0.3l-0.1,0.1l-2.1-1.2c0.2-0.4,0.5-0.9,0.8-1.2c0.3-0.4,0.7-0.7,1.1-1.1c0.4-0.3,0.8-0.5,1.2-0.7
					s0.8-0.3,1.3-0.3c0.3,0,0.6,0,0.9,0.1c0.3,0.1,0.6,0.1,0.9,0.3c0.3,0.1,0.6,0.2,0.9,0.4c0.3,0.1,0.6,0.3,1,0.4
					c0.3,0.1,0.7,0.3,1.1,0.5c0.4,0.1,0.8,0.3,1.3,0.4c0.4,0.1,0.9,0.2,1.3,0.3c0.4,0.1,0.9,0.1,1.3,0.1l-0.4,2.6
					c-0.1,0.1-0.3,0.1-0.4,0.2c-0.2,0.1-0.3,0.1-0.4,0.2l-0.2,0.1c0.1,0.1,0.3,0.3,0.5,0.4s0.4,0.1,0.6,0.2c0.2,0,0.4,0.1,0.6,0.1
					c0.2,0,0.4,0,0.5,0h0.3v2.7h-0.3c-0.6,0-1.1-0.1-1.6-0.1c-0.5-0.1-0.9-0.2-1.3-0.4c-0.4-0.2-0.8-0.4-1.1-0.7s-0.6-0.6-0.8-0.9
					c-0.6,0.3-1.2,0.6-1.8,0.8c-0.6,0.3-1.3,0.5-1.9,0.7c-0.7,0.2-1.4,0.4-2.1,0.5c-0.7,0.1-1.4,0.2-2.2,0.2h-1.8L200.8,18.1
					L200.8,18.1z M205.7,11l-1.9-1.9l1.9-1.9l1.9,1.9L205.7,11z"/>
				<path class="st1" d="M215.2,18.1h2.1c0.2,0,0.5,0,0.8,0s0.6-0.1,0.9-0.1c0.3-0.1,0.5-0.2,0.6-0.4c0.2-0.1,0.3-0.4,0.3-0.6
					c0-0.1,0-0.4-0.1-0.6c-0.1-0.3-0.2-0.6-0.3-0.9c-0.1-0.3-0.3-0.7-0.5-1.1c-0.2-0.4-0.4-0.7-0.5-1.1l2.5-1.2
					c0.1,0.4,0.3,0.8,0.5,1.1c0.1,0.4,0.3,0.8,0.4,1.2s0.2,0.9,0.3,1.3s0.1,0.8,0.1,1.2c0,0.7-0.1,1.3-0.4,1.8
					c-0.3,0.5-0.6,0.9-1.1,1.2c-0.4,0.3-1,0.5-1.6,0.7c-0.6,0.1-1.3,0.2-1.9,0.2h-2.1V18.1L215.2,18.1z M219.2,9.2l-1.6,1.6
					l-1.7-1.7l1.7-1.7L219.2,9.2l1.6-1.7l1.7,1.7l-1.7,1.7L219.2,9.2z"/>
				<path class="st1" d="M232.9,20.8c-0.5,0-0.9-0.1-1.4-0.2s-0.9-0.4-1.3-0.7c-0.4-0.3-0.7-0.7-0.9-1.1s-0.4-0.9-0.4-1.5
					c0-1.1,0.5-2.4,1.5-3.6c0.1-0.1,0.1-0.2,0.2-0.2c0.1-0.1,0.1-0.1,0.1-0.2c0-0.1,0.1-0.1,0.1-0.1L231,13l-0.5-0.4l1.7-2.1
					c0.3,0.2,0.6,0.5,1.1,0.9c0.4,0.4,0.9,0.9,1.4,1.4c1.5,1.7,2.2,3.2,2.2,4.6c0,0.6-0.1,1.1-0.4,1.5c-0.2,0.4-0.6,0.8-0.9,1.1
					c-0.4,0.3-0.8,0.5-1.3,0.7C233.8,20.8,233.4,20.8,232.9,20.8z M234.5,17.3c0-0.2-0.1-0.4-0.2-0.6c-0.1-0.2-0.3-0.5-0.4-0.7
					c-0.2-0.2-0.4-0.5-0.6-0.7c-0.2-0.3-0.5-0.5-0.7-0.7c-0.1,0.2-0.3,0.4-0.5,0.6s-0.3,0.4-0.5,0.7c-0.2,0.3-0.3,0.5-0.4,0.7
					c-0.1,0.3-0.1,0.5-0.1,0.8c0,0.1,0.1,0.3,0.2,0.4s0.3,0.2,0.4,0.3c0.2,0.1,0.4,0.1,0.6,0.1s0.4,0.1,0.5,0.1c0.2,0,0.4,0,0.6,0
					c0.2,0,0.4-0.1,0.6-0.1c0.2-0.1,0.3-0.1,0.4-0.3C234.5,17.6,234.5,17.5,234.5,17.3z"/>
				<path class="st1" d="M242.5,15.6c0.1,0.4,0.3,0.9,0.4,1.3s0.2,0.9,0.3,1.3s0.1,0.9,0.1,1.2c0,0.5-0.1,1.1-0.2,1.6
					c-0.1,0.5-0.4,1-0.6,1.5c-0.3,0.5-0.6,0.9-1,1.4s-0.8,0.9-1.2,1.3s-0.9,0.8-1.4,1.1c-0.5,0.3-1.1,0.6-1.6,0.9l-1.6-2.2
					c0.4-0.2,0.8-0.4,1.3-0.7c0.4-0.3,0.8-0.6,1.2-0.9s0.8-0.6,1.1-0.9s0.6-0.7,0.9-1c0.3-0.4,0.4-0.7,0.6-1s0.2-0.7,0.2-1
					c0-0.2,0-0.5-0.1-0.8s-0.1-0.6-0.3-0.9c-0.1-0.3-0.2-0.7-0.4-1c-0.1-0.4-0.3-0.8-0.5-1.2l2.5-1.1
					C242.2,14.8,242.4,15.2,242.5,15.6z"/>
				<path class="st1" d="M244.9,19.4c0-0.5,0.1-1,0.1-1.5s0-1,0-1.4c0-0.5,0-0.9,0-1.3c0-0.8-0.1-1.5-0.1-2.1c0-0.6-0.1-1.2-0.1-1.6
					c0-0.5-0.1-0.9-0.1-1.3c0-0.4-0.1-0.7-0.1-1s-0.1-0.6-0.1-0.9c0-0.3-0.1-0.5-0.1-0.8l2.7-0.9c0.1,0.8,0.2,1.6,0.3,2.3
					c0.1,0.8,0.1,1.5,0.2,2.3c0,0.7,0.1,1.4,0.1,2s0,1.1,0,1.6c0,0.4,0,0.8,0,1.3s0,0.9,0,1.4s0,1,0,1.5s0,1-0.1,1.5l-2.7,0.4
					C244.9,20.4,244.9,19.9,244.9,19.4z"/>
				<path class="st1" d="M248.5,24.2c0.8-0.1,1.6-0.4,2.2-0.6c0.7-0.2,1.3-0.5,1.8-0.8s0.9-0.6,1.3-1c0.3-0.4,0.6-0.7,0.7-1
					c-0.2,0-0.5,0-0.8,0s-0.5,0-0.7,0c-0.6-0.1-1.1-0.1-1.6-0.3c-0.5-0.2-0.9-0.4-1.2-0.7c-0.3-0.3-0.6-0.6-0.8-1.1
					c-0.2-0.4-0.3-0.9-0.3-1.5c0-0.4,0-0.7,0.1-1.1s0.2-0.7,0.3-1.1c0.1-0.4,0.3-0.7,0.5-1s0.4-0.6,0.7-0.8s0.6-0.4,0.9-0.6
					s0.7-0.2,1-0.2c0.4,0,0.9,0.1,1.2,0.2c0.4,0.1,0.7,0.4,1,0.6c0.3,0.3,0.6,0.6,0.8,1s0.4,0.8,0.6,1.2c0.2,0.4,0.3,0.9,0.4,1.3
					s0.2,0.9,0.2,1.3h0.4v2.7h-0.6c-0.2,0.9-0.6,1.6-1.1,2.3s-1.1,1.3-1.8,1.8s-1.4,0.9-2.3,1.3c-0.9,0.3-1.7,0.6-2.6,0.7
					L248.5,24.2z M252.7,15.2c-0.1,0-0.3,0-0.4,0.1c-0.1,0.1-0.3,0.3-0.4,0.4s-0.2,0.4-0.3,0.6c-0.1,0.2-0.1,0.4-0.1,0.6
					s0.1,0.4,0.2,0.5c0.1,0.1,0.3,0.2,0.5,0.3c0.2,0.1,0.4,0.1,0.6,0.2s0.5,0.1,0.7,0.1s0.5,0,0.7,0h0.5c-0.1-0.4-0.2-0.7-0.3-1
					s-0.3-0.6-0.4-0.9c-0.1-0.3-0.3-0.5-0.5-0.6S253,15.3,252.7,15.2z"/>
				<path class="st1" d="M263.2,18.1v2.7h-6.1v-2.7H263.2z"/>
				<path class="st1" d="M269.3,18.1v2.7h-0.2c-0.6,0-1-0.1-1.4-0.2s-0.7-0.4-1-0.6c-0.4,0.3-0.9,0.5-1.5,0.7
					c-0.6,0.1-1.2,0.2-2,0.2h-0.3v-2.7h0.3c0.8,0,1.4-0.1,1.8-0.4s0.6-0.6,0.6-1.2c0-0.2,0-0.4-0.1-0.7s-0.1-0.7-0.3-1.2l2.4-0.6
					c0.1,0.3,0.2,0.6,0.2,0.9s0.1,0.5,0.1,0.7s0.1,0.4,0.1,0.6c0,0.2,0,0.3,0,0.5c0,0.1,0,0.3,0.1,0.5c0,0.2,0.1,0.4,0.1,0.5
					c0.1,0.1,0.1,0.3,0.3,0.4c0.1,0.1,0.3,0.1,0.5,0.1L269.3,18.1L269.3,18.1z M265.6,12.6l-1.9-1.9l1.9-1.9l1.9,1.9L265.6,12.6z"/>
				<path class="st1" d="M269.1,18.1c0.3,0,0.6-0.1,0.9-0.1c0.3-0.1,0.5-0.3,0.8-0.6s0.5-0.7,0.7-1.2s0.4-1.2,0.6-2.1l2.3,0.3v0.1
					c0,0.1-0.1,0.4-0.1,0.6c-0.1,0.3-0.1,0.6-0.1,0.9c0,0.3-0.1,0.6-0.1,0.9c0,0.3,0,0.6,0.1,0.8c0.1,0.2,0.2,0.4,0.4,0.4
					c0.2,0.1,0.4,0,0.5-0.1c0.2-0.1,0.3-0.3,0.5-0.5c0.1-0.2,0.3-0.5,0.4-0.8s0.2-0.6,0.4-0.9c0.1-0.3,0.2-0.6,0.3-0.9
					c0.1-0.3,0.1-0.6,0.2-0.8l2.3,0.3c0,0.1,0,0.3-0.1,0.6c0,0.2-0.1,0.5-0.1,0.8s0,0.5,0,0.8c0,0.3,0,0.5,0.1,0.7s0.1,0.4,0.3,0.6
					c0.1,0.1,0.3,0.2,0.5,0.2s0.4-0.1,0.5-0.2s0.3-0.3,0.4-0.5s0.2-0.4,0.2-0.7c0.1-0.3,0.1-0.5,0.1-0.8s0-0.5,0-0.8s0-0.5,0-0.7
					l2.3-0.3l0.3,2.4c0,0.3,0.1,0.5,0.2,0.7s0.3,0.4,0.4,0.5s0.3,0.2,0.5,0.3c0.2,0.1,0.3,0.1,0.5,0.1h0.3v2.7H285
					c-0.6,0-1.1-0.1-1.6-0.3c-0.5-0.2-0.9-0.5-1.3-1c0,0.1-0.1,0.1-0.1,0.1l-0.1,0.1l0,0c-0.3,0.3-0.7,0.6-1.1,0.8
					c-0.4,0.2-0.9,0.3-1.3,0.3c-0.5,0-1-0.1-1.4-0.3c-0.4-0.2-0.8-0.5-1.1-0.9c-0.4,0.4-0.7,0.7-1.2,0.9s-0.9,0.4-1.4,0.4
					s-0.9-0.1-1.4-0.3c-0.4-0.2-0.8-0.5-1.1-0.9c-0.3,0.4-0.7,0.7-1.1,0.9c-0.5,0.2-1,0.3-1.7,0.3h-0.2v-2.8
					C268.9,18.1,269.1,18.1,269.1,18.1z M274.3,14.4L274.3,14.4C274.3,14.3,274.3,14.3,274.3,14.4z M277.7,10.7l-1.6,1.6l-1.7-1.7
					l1.7-1.7L277.7,10.7l1.6-1.7l1.7,1.7l-1.7,1.7L277.7,10.7z M279.3,8.2l-1.5,1.5l-1.6-1.6l1.5-1.5L279.3,8.2z"/>
				<path class="st1" d="M284.9,18.1h1.8c0.9,0,1.8-0.1,2.6-0.2c0.8-0.1,1.5-0.3,2.2-0.4c0.7-0.2,1.3-0.4,1.9-0.7
					c0.6-0.3,1.2-0.5,1.8-0.8c-0.4-0.1-0.8-0.2-1.2-0.4c-0.4-0.1-0.8-0.3-1.2-0.5c-0.4-0.1-0.8-0.3-1.2-0.4s-0.8-0.1-1.2-0.1
					c-0.3,0-0.5,0.1-0.8,0.2s-0.5,0.3-0.7,0.5s-0.4,0.4-0.5,0.5s-0.2,0.3-0.3,0.4l-2-1.3c0.2-0.4,0.5-0.8,0.8-1.1
					c0.3-0.4,0.6-0.7,1-1s0.7-0.5,1.2-0.7s0.9-0.3,1.3-0.3s0.7,0,1,0.1c0.4,0.1,0.7,0.2,1,0.3s0.7,0.2,1,0.4c0.3,0.1,0.6,0.3,1,0.4
					c0.3,0.1,0.6,0.3,0.9,0.4c0.3,0.1,0.6,0.3,1,0.4c0.3,0.1,0.7,0.2,1,0.3c0.4,0.1,0.7,0.1,1.1,0.1l-0.2,2.6l-1.2,0.6
					c-0.5,0.2-1,0.5-1.5,0.7s-1,0.5-1.5,0.7s-1.1,0.5-1.6,0.7c-0.6,0.2-1.1,0.4-1.7,0.6c-0.6,0.1-1.2,0.3-1.9,0.4
					c-0.7,0.1-1.4,0.1-2.1,0.1h-1.8L284.9,18.1L284.9,18.1z M292.1,25.5l-1.9-1.9l1.9-1.9l1.9,1.9L292.1,25.5z"/>
			</g>
		</g>
	</g>
	<g>
		<g class="st7">
			<g>
				<path d="M185.4,38.3c0.1,0.2,0.2,0.4,0.3,0.6c0.1,0.2,0.2,0.5,0.4,0.9c0.1,0.3,0.2,0.6,0.4,1c0.1,0.4,0.2,0.7,0.3,1.1
					c0.1,0.4,0.1,0.7,0.1,1.1c0,0.6-0.1,1.1-0.3,1.6s-0.4,0.9-0.7,1.3c-0.3,0.4-0.7,0.6-1.2,0.9c-0.5,0.2-1,0.3-1.6,0.3
					c-0.5,0-1-0.1-1.3-0.3s-0.6-0.4-0.8-0.7c-0.1,0.1-0.3,0.3-0.4,0.4c-0.1,0.1-0.3,0.2-0.5,0.3s-0.4,0.1-0.6,0.2
					c-0.3,0.1-0.6,0.1-0.9,0.1c-0.2,0-0.5,0-0.7-0.1s-0.4-0.1-0.6-0.1c0,0.7-0.1,1.3-0.3,1.9c-0.2,0.6-0.5,1.1-0.8,1.5
					s-0.7,0.8-1.2,1.1s-1,0.6-1.5,0.8s-1.1,0.4-1.7,0.5c-0.6,0.1-1.1,0.1-1.7,0.1c-0.9,0-1.7-0.1-2.4-0.4c-0.8-0.3-1.4-0.7-1.9-1.2
					c-0.6-0.5-1-1.2-1.3-1.9s-0.5-1.6-0.5-2.4c0-0.5,0.1-1.1,0.2-1.6s0.3-1.1,0.5-1.6s0.4-1,0.6-1.5s0.5-0.9,0.7-1.3l1.9,1.4
					c-0.2,0.4-0.4,0.7-0.6,1.1s-0.4,0.8-0.5,1.1c-0.1,0.4-0.3,0.8-0.4,1.2s-0.1,0.8-0.1,1.1c0,0.4,0.1,0.9,0.3,1.2s0.5,0.7,0.8,1
					c0.4,0.3,0.7,0.5,1.2,0.7s1,0.3,1.5,0.3c0.6,0,1.1-0.1,1.6-0.2c0.5-0.1,0.9-0.3,1.4-0.4c0.4-0.2,0.7-0.4,1-0.7s0.4-0.6,0.6-0.9
					l0,0c0.1-0.5,0.2-0.9,0.2-1.5c0-0.4-0.1-0.8-0.2-1.2s-0.3-0.8-0.4-1.2c-0.2-0.4-0.4-0.8-0.6-1.2c-0.2-0.4-0.4-0.8-0.6-1.2
					l2.4-1.3c0.1,0.4,0.3,0.7,0.4,1s0.3,0.7,0.4,1s0.3,0.6,0.5,0.9c0.1,0.3,0.3,0.5,0.5,0.7s0.4,0.4,0.5,0.4
					c0.2,0.1,0.4,0.1,0.6,0.1c0.2,0,0.4-0.1,0.6-0.3c0.1-0.1,0.3-0.3,0.4-0.5c0.1-0.2,0.1-0.4,0.1-0.7s0-0.5,0-0.8s0-0.5-0.1-0.8
					c0-0.3-0.1-0.5-0.1-0.7l2.4-0.3c0,0.2,0.1,0.4,0.1,0.6s0.1,0.5,0.1,0.8s0.1,0.6,0.1,0.9c0.1,0.3,0.1,0.6,0.2,0.8
					c0.1,0.2,0.2,0.4,0.4,0.6c0.1,0.2,0.3,0.3,0.6,0.4c0.2,0,0.4,0,0.5-0.1s0.3-0.2,0.4-0.3s0.2-0.3,0.3-0.5s0.1-0.4,0.1-0.6
					c0-0.2,0-0.4-0.1-0.7s-0.2-0.6-0.3-0.9c-0.1-0.3-0.3-0.6-0.5-1s-0.4-0.7-0.6-1.1l2-1.1C185.2,38,185.3,38.1,185.4,38.3z"/>
				<path d="M192.2,41.9c0.1,0.4,0.3,0.9,0.4,1.3s0.2,0.9,0.3,1.3c0.1,0.4,0.1,0.9,0.1,1.2c0,0.5-0.1,1.1-0.2,1.6s-0.4,1-0.6,1.5
					s-0.6,0.9-1,1.4s-0.8,0.9-1.2,1.3c-0.4,0.4-0.9,0.8-1.4,1.1s-1.1,0.6-1.6,0.9l-1.6-2.2c0.4-0.2,0.8-0.4,1.3-0.7
					c0.4-0.3,0.8-0.6,1.2-0.9c0.4-0.3,0.8-0.6,1.1-0.9c0.3-0.3,0.6-0.7,0.9-1c0.3-0.4,0.4-0.7,0.6-1s0.2-0.7,0.2-1
					c0-0.2,0-0.5-0.1-0.8s-0.1-0.6-0.3-0.9c-0.1-0.3-0.2-0.7-0.4-1c-0.1-0.4-0.3-0.8-0.5-1.2l2.5-1.1
					C192,41.1,192.1,41.5,192.2,41.9z"/>
				<path d="M195.6,43.5c0.3,0.1,0.6,0.3,1,0.4c0.4,0.1,0.7,0.2,1,0.3s0.6,0.1,0.9,0.1c0.1,0,0.3,0,0.6,0s0.5-0.1,0.7-0.1
					c0.2-0.1,0.4-0.1,0.6-0.3c0.2-0.1,0.3-0.3,0.3-0.5s-0.1-0.5-0.2-0.8c-0.1-0.3-0.3-0.6-0.6-0.9c-0.2-0.3-0.5-0.6-0.8-0.9
					c-0.3-0.3-0.6-0.6-1-0.9c-0.3-0.3-0.7-0.6-1-0.8s-0.6-0.5-0.9-0.6l1.5-2.3c0.6,0.4,1.1,0.8,1.7,1.3c0.6,0.5,1.1,1,1.5,1.6
					c0.5,0.5,0.9,1.1,1.2,1.7c0.4,0.6,0.6,1.2,0.7,1.8c0.1,0.2,0.1,0.3,0.1,0.5s0,0.3,0,0.5c0,0.5-0.1,1-0.3,1.5s-0.5,0.8-0.9,1.1
					s-0.8,0.6-1.3,0.8s-1.1,0.3-1.7,0.3c-0.1,0-0.1,0-0.1,0h-0.1c-0.4,0-0.8,0-1.2-0.1s-0.8-0.2-1.2-0.3s-0.8-0.3-1.2-0.5
					s-0.7-0.4-1.1-0.6l1.1-2.6C194.9,43.2,195.2,43.4,195.6,43.5z"/>
				<path d="M204.4,45.6c0-0.5,0.1-1,0.1-1.5s0-1,0-1.4c0-0.5,0-0.9,0-1.3c0-0.8-0.1-1.5-0.1-2.1s-0.1-1.2-0.1-1.6
					c0-0.5-0.1-0.9-0.1-1.3c0-0.4-0.1-0.7-0.1-1s-0.1-0.6-0.1-0.9c0-0.3-0.1-0.5-0.1-0.8l2.7-0.9c0.1,0.8,0.2,1.6,0.3,2.3
					c0.1,0.8,0.1,1.5,0.2,2.3c0,0.7,0.1,1.4,0.1,2s0,1.1,0,1.6c0,0.4,0,0.8,0,1.3s0,0.9,0,1.4s0,1,0,1.5s0,1-0.1,1.5l-2.7,0.4
					C204.4,46.6,204.4,46.1,204.4,45.6z"/>
				<path d="M214.8,47.1c-0.1,0-0.3,0-0.5,0s-0.4-0.1-0.7-0.2c-0.1,0.7-0.4,1.4-0.7,2c-0.4,0.6-0.8,1.2-1.3,1.8s-1.1,1.1-1.8,1.6
					c-0.6,0.5-1.4,0.9-2.1,1.3l-1.6-2.2c0.4-0.2,0.8-0.4,1.2-0.7s0.8-0.5,1.2-0.8s0.7-0.6,1.1-0.9c0.3-0.3,0.6-0.6,0.9-0.9
					c0.2-0.3,0.4-0.6,0.6-1c0.1-0.3,0.2-0.7,0.2-1c0-0.2,0-0.5-0.1-0.9s-0.2-0.7-0.3-1.1c-0.1-0.4-0.3-0.8-0.4-1.2s-0.3-0.8-0.5-1.1
					l2.5-1.1c0.2,0.7,0.4,1.3,0.7,1.7s0.4,0.8,0.6,1.1c0.2,0.3,0.4,0.5,0.6,0.6s0.4,0.2,0.5,0.2h0.2V47L214.8,47.1L214.8,47.1z"/>
				<path d="M231.4,44.3V47h-16.8v-2.7H231.4z"/>
				<path d="M231.4,44.3c0.2,0,0.5,0,0.8,0s0.6,0,1,0s0.7,0,1.1-0.1c0.4,0,0.7-0.1,1-0.1c0.3-0.1,0.6-0.1,0.9-0.2s0.5-0.2,0.7-0.3
					c-0.8,0.1-1.4,0.1-2.1,0.1c-0.6,0-1.2-0.1-1.6-0.4c-0.5-0.2-0.8-0.5-1.1-0.9s-0.4-1-0.4-1.6c0-0.3,0-0.6,0.1-1s0.1-0.7,0.3-1
					c0.1-0.3,0.3-0.6,0.5-0.9c0.2-0.3,0.4-0.6,0.7-0.8s0.5-0.4,0.9-0.5c0.3-0.1,0.6-0.2,1-0.2c0.5,0,0.9,0.1,1.3,0.3
					c0.4,0.2,0.7,0.4,1,0.7s0.6,0.6,0.8,1s0.4,0.8,0.6,1.2c0.1,0.4,0.3,0.9,0.3,1.3c0.1,0.4,0.1,0.9,0.1,1.3c0,0.7-0.1,1.3-0.3,1.8
					s-0.5,0.9-0.8,1.3c-0.4,0.4-0.8,0.7-1.2,0.9c-0.5,0.2-1,0.4-1.6,0.6c-0.6,0.1-1.2,0.2-1.8,0.3s-1.3,0.1-1.9,0.1h-0.3V44.3
					L231.4,44.3L231.4,44.3z M234.8,35.4l-1.9-1.9l1.9-1.9l1.9,1.9L234.8,35.4z M234.9,39.1c-0.1,0-0.3,0-0.4,0.1
					c-0.1,0.1-0.3,0.2-0.4,0.3c-0.1,0.1-0.2,0.3-0.3,0.5s-0.1,0.4-0.1,0.6c0,0.2,0.1,0.3,0.1,0.4c0.1,0.1,0.2,0.2,0.4,0.3
					s0.4,0.1,0.6,0.1s0.4,0,0.6,0c0.2,0,0.4,0,0.6,0c0.2,0,0.3,0,0.4,0c-0.1-0.3-0.1-0.5-0.2-0.8s-0.2-0.5-0.3-0.7s-0.3-0.4-0.4-0.6
					C235.3,39.2,235.1,39.1,234.9,39.1z"/>
				<path d="M249.6,47.1c-0.5,0-0.9-0.1-1.4-0.2c-0.5-0.1-0.9-0.4-1.3-0.7c-0.4-0.3-0.7-0.7-0.9-1.1c-0.2-0.4-0.4-0.9-0.4-1.5
					c0-1.1,0.5-2.4,1.5-3.6c0.1-0.1,0.1-0.2,0.2-0.2c0.1-0.1,0.1-0.1,0.1-0.2c0.1-0.1,0.1-0.1,0.1-0.1l0.1-0.1l-0.5-0.4l1.7-2.1
					c0.3,0.2,0.6,0.5,1.1,0.9s0.9,0.9,1.4,1.4c1.5,1.7,2.2,3.2,2.2,4.6c0,0.6-0.1,1.1-0.4,1.5c-0.2,0.4-0.6,0.8-0.9,1.1
					c-0.4,0.3-0.8,0.5-1.3,0.7C250.6,47,250.1,47.1,249.6,47.1z M251.3,43.6c0-0.2-0.1-0.4-0.2-0.6c-0.1-0.2-0.3-0.5-0.4-0.7
					c-0.2-0.2-0.4-0.5-0.6-0.7c-0.2-0.3-0.5-0.5-0.7-0.7c-0.1,0.2-0.3,0.4-0.5,0.6c-0.2,0.2-0.3,0.4-0.5,0.7
					c-0.1,0.2-0.3,0.5-0.4,0.7c-0.1,0.3-0.1,0.5-0.1,0.8c0,0.1,0.1,0.3,0.2,0.4c0.1,0.1,0.3,0.2,0.4,0.3c0.2,0.1,0.4,0.1,0.6,0.1
					c0.2,0,0.4,0.1,0.5,0.1c0.2,0,0.4,0,0.6,0s0.4-0.1,0.6-0.1s0.3-0.1,0.4-0.3C251.2,43.8,251.3,43.7,251.3,43.6z"/>
				<path d="M259.2,41.9c0.1,0.4,0.3,0.9,0.4,1.3s0.2,0.9,0.3,1.3s0.1,0.9,0.1,1.2c0,0.5-0.1,1.1-0.2,1.6s-0.4,1-0.6,1.5
					s-0.6,0.9-1,1.4s-0.8,0.9-1.2,1.3c-0.4,0.4-0.9,0.8-1.4,1.1s-1.1,0.6-1.6,0.9l-1.6-2.2c0.4-0.2,0.8-0.4,1.3-0.7
					c0.4-0.3,0.8-0.6,1.2-0.9c0.4-0.3,0.8-0.6,1.1-0.9c0.3-0.3,0.6-0.7,0.9-1c0.3-0.4,0.4-0.7,0.6-1c0.1-0.4,0.2-0.7,0.2-1
					c0-0.2,0-0.5-0.1-0.8s-0.1-0.6-0.3-0.9c-0.1-0.3-0.2-0.7-0.4-1c-0.1-0.4-0.3-0.8-0.5-1.2l2.5-1.1
					C259,41.1,259.1,41.5,259.2,41.9z"/>
				<path d="M265.7,47.1c-0.7,0-1.3-0.1-1.8-0.3s-0.9-0.5-1.2-0.8c-0.3-0.3-0.6-0.7-0.7-1.2s-0.2-1-0.2-1.5c0-0.3,0-0.6,0-1
					s0-0.9,0-1.4s0-1.1,0-1.8c0-0.6,0-1.3-0.1-1.9c0-0.6-0.1-1.3-0.1-1.9c-0.1-0.6-0.1-1.1-0.2-1.6l2.6-0.8c0.1,0.4,0.1,0.8,0.2,1.4
					c0.1,0.5,0.1,1.1,0.1,1.6c0,0.6,0.1,1.1,0.1,1.7c0,0.6,0,1.1,0,1.6c0,0.4,0,0.9,0,1.4s0,0.9-0.1,1.4c0,0.4,0,0.8,0,1.2
					s0.1,0.6,0.1,0.8c0.1,0.1,0.1,0.2,0.2,0.3s0.2,0.1,0.3,0.1s0.2,0.1,0.4,0.1c0.1,0,0.3,0,0.4,0h0.2V47L265.7,47.1L265.7,47.1z"/>
				<path d="M284.5,44.3V47h-19v-2.7H284.5z"/>
				<path d="M284.2,44.3h0.6c0-0.4,0.1-0.8,0.2-1.2s0.2-0.9,0.4-1.4s0.4-0.9,0.6-1.3c0.2-0.4,0.5-0.8,0.8-1.1s0.6-0.6,0.9-0.8
					s0.7-0.3,1.1-0.4c0.4,0,0.7,0.1,1.1,0.3c0.3,0.2,0.6,0.5,0.9,0.8c0.2,0.4,0.4,0.7,0.6,1.1c0.1,0.4,0.2,0.9,0.2,1.3
					c0,0.5-0.1,1-0.3,1.5c-0.2,0.5-0.5,1-0.9,1.4s-0.8,0.8-1.2,1.1c-0.5,0.4-0.9,0.6-1.4,0.9c0,0.1,0.1,0.3,0.3,0.5
					c0.1,0.2,0.3,0.4,0.4,0.6c0.2,0.2,0.3,0.4,0.5,0.6s0.3,0.3,0.4,0.4c0-0.3,0-0.7,0.1-1c0.1-0.4,0.2-0.7,0.4-1
					c0.2-0.3,0.4-0.6,0.7-0.9c0.3-0.3,0.5-0.5,0.8-0.7s0.6-0.4,0.9-0.5s0.6-0.2,0.9-0.2h0.4V47h-0.5c-0.3,0-0.5,0.1-0.7,0.2
					s-0.4,0.3-0.6,0.5s-0.3,0.4-0.4,0.7s-0.2,0.5-0.2,0.8c0,0.1,0,0.2,0,0.3s0.1,0.2,0.1,0.3c0.1,0.1,0.1,0.2,0.2,0.3
					s0.2,0.2,0.3,0.4l-1.6,1.9c-0.7-0.4-1.3-0.9-1.8-1.3s-1-0.9-1.4-1.4s-0.7-0.9-1-1.4s-0.5-0.9-0.6-1.4h-1.2L284.2,44.3
					L284.2,44.3z M289.3,42.1c0-0.1,0-0.3,0-0.5s0-0.4-0.1-0.5c0-0.2-0.1-0.3-0.2-0.5s-0.2-0.2-0.3-0.3c-0.1,0.1-0.2,0.2-0.4,0.3
					c-0.1,0.2-0.3,0.4-0.4,0.6c-0.1,0.2-0.3,0.5-0.4,0.8s-0.2,0.6-0.3,0.8c-0.1,0.3-0.2,0.6-0.2,0.8c-0.1,0.3-0.1,0.5-0.1,0.7
					c0.2-0.1,0.5-0.1,0.8-0.3c0.3-0.1,0.5-0.3,0.7-0.5s0.4-0.4,0.6-0.7C289.2,42.7,289.3,42.4,289.3,42.1z"/>
				<path d="M293.1,44.3h1.2c0.2,0,0.5,0,0.8-0.1c0.3,0,0.6-0.1,0.8-0.2s0.5-0.2,0.6-0.4c0.2-0.1,0.3-0.4,0.3-0.6
					c0-0.1,0-0.4-0.1-0.6c-0.1-0.3-0.2-0.6-0.3-0.9s-0.3-0.7-0.4-1.1c-0.2-0.4-0.3-0.7-0.5-1.1l2.5-1.2c0.1,0.4,0.3,0.8,0.5,1.1
					c0.1,0.4,0.3,0.8,0.4,1.2s0.2,0.9,0.3,1.3c0.1,0.4,0.1,0.8,0.1,1.2c0,0.7-0.1,1.3-0.4,1.8c-0.2,0.5-0.6,0.9-1,1.2
					s-0.9,0.6-1.5,0.7c-0.6,0.1-1.2,0.2-1.9,0.2h-1.4V44.3L293.1,44.3z M295.9,51.8l-1.9-1.9l1.9-1.9l1.9,1.9L295.9,51.8z"/>
			</g>
		</g>
		<g>
			<g>
				<path class="st1" d="M184.8,37.5c0.1,0.2,0.2,0.4,0.3,0.6c0.1,0.2,0.2,0.5,0.4,0.9s0.2,0.6,0.4,1c0.1,0.4,0.2,0.7,0.3,1.1
					c0.1,0.4,0.1,0.7,0.1,1.1c0,0.6-0.1,1.1-0.3,1.6s-0.4,0.9-0.7,1.3c-0.3,0.4-0.7,0.6-1.2,0.9c-0.5,0.2-1,0.3-1.6,0.3
					c-0.5,0-1-0.1-1.3-0.3s-0.6-0.4-0.8-0.7c-0.1,0.1-0.3,0.3-0.4,0.4c-0.1,0.1-0.3,0.2-0.5,0.3s-0.4,0.1-0.6,0.2
					c-0.3,0.1-0.6,0.1-0.9,0.1c-0.2,0-0.5,0-0.7-0.1c-0.2,0-0.4-0.1-0.6-0.1c0,0.7-0.1,1.3-0.3,1.9c-0.2,0.6-0.5,1.1-0.8,1.5
					c-0.4,0.4-0.7,0.8-1.2,1.1s-1,0.6-1.5,0.8s-1.1,0.4-1.7,0.5c-0.6,0.1-1.1,0.1-1.7,0.1c-0.9,0-1.7-0.1-2.4-0.4
					c-0.8-0.3-1.4-0.7-1.9-1.2c-0.6-0.5-1-1.2-1.3-1.9s-0.5-1.6-0.5-2.4c0-0.5,0.1-1.1,0.2-1.6s0.3-1.1,0.5-1.6s0.4-1,0.6-1.5
					c0.2-0.5,0.5-0.9,0.7-1.3l1.9,1.4c-0.2,0.4-0.4,0.7-0.6,1.1s-0.4,0.8-0.5,1.1c-0.1,0.4-0.3,0.8-0.4,1.2s-0.1,0.8-0.1,1.1
					c0,0.4,0.1,0.9,0.3,1.2s0.5,0.7,0.8,1c0.4,0.3,0.7,0.5,1.2,0.7s1,0.3,1.5,0.3c0.6,0,1.1-0.1,1.6-0.2c0.5-0.1,0.9-0.3,1.4-0.4
					c0.4-0.2,0.7-0.4,1-0.7s0.4-0.6,0.6-0.9l0,0c0.1-0.5,0.2-0.9,0.2-1.5c0-0.4-0.1-0.8-0.2-1.2s-0.3-0.8-0.4-1.2
					c-0.2-0.4-0.4-0.8-0.6-1.2s-0.4-0.8-0.6-1.2l2.4-1.3c0.1,0.4,0.3,0.7,0.4,1s0.3,0.7,0.4,1s0.3,0.6,0.5,0.9
					c0.1,0.3,0.3,0.5,0.5,0.7s0.4,0.4,0.5,0.4s0.4,0.1,0.6,0.1c0.2,0,0.4-0.1,0.6-0.3c0.1-0.1,0.3-0.3,0.4-0.5
					c0.1-0.2,0.1-0.4,0.1-0.7s0-0.5,0-0.8s0-0.5-0.1-0.8c0-0.3-0.1-0.5-0.1-0.7l2.4-0.3c0,0.2,0.1,0.4,0.1,0.6s0.1,0.5,0.1,0.8
					s0.1,0.6,0.1,0.9s0.1,0.6,0.2,0.8c0.1,0.2,0.2,0.4,0.4,0.6s0.3,0.3,0.6,0.4c0.2,0,0.4,0,0.5-0.1s0.3-0.2,0.4-0.3
					s0.2-0.3,0.3-0.5s0.1-0.4,0.1-0.6c0-0.2,0-0.4-0.1-0.7s-0.2-0.6-0.3-0.9s-0.3-0.6-0.5-1s-0.4-0.7-0.6-1.1l2.2-1.2
					C184.6,37.1,184.7,37.2,184.8,37.5z"/>
				<path class="st1" d="M191.6,41c0.1,0.4,0.3,0.9,0.4,1.3s0.2,0.9,0.3,1.3s0.1,0.9,0.1,1.2c0,0.5-0.1,1.1-0.2,1.6s-0.4,1-0.6,1.5
					c-0.3,0.5-0.6,0.9-1,1.4s-0.8,0.9-1.2,1.3c-0.4,0.4-0.9,0.8-1.4,1.1s-1.1,0.6-1.6,0.9l-1.6-2.2c0.4-0.2,0.8-0.4,1.3-0.7
					c0.4-0.3,0.8-0.6,1.2-0.9c0.4-0.3,0.8-0.6,1.1-0.9c0.3-0.3,0.6-0.7,0.9-1c0.3-0.4,0.4-0.7,0.6-1c0.1-0.4,0.2-0.7,0.2-1
					c0-0.2,0-0.5-0.1-0.8s-0.1-0.6-0.3-0.9c-0.1-0.3-0.2-0.7-0.4-1c-0.1-0.4-0.3-0.8-0.5-1.2l2.5-1.1
					C191.4,40.2,191.5,40.6,191.6,41z"/>
				<path class="st1" d="M195,42.6c0.3,0.1,0.6,0.3,1,0.4c0.4,0.1,0.7,0.2,1,0.3s0.6,0.1,0.9,0.1c0.1,0,0.3,0,0.6,0s0.5-0.1,0.7-0.1
					c0.2-0.1,0.4-0.1,0.6-0.3c0.2-0.1,0.3-0.3,0.3-0.5s-0.1-0.5-0.2-0.8c-0.1-0.3-0.3-0.6-0.6-0.9s-0.5-0.6-0.8-0.9
					c-0.3-0.3-0.6-0.6-1-0.9c-0.3-0.3-0.7-0.6-1-0.8s-0.6-0.5-0.9-0.6l1.5-2.3c0.6,0.4,1.1,0.8,1.7,1.3c0.6,0.5,1.1,1,1.5,1.6
					c0.5,0.5,0.9,1.1,1.2,1.7c0.4,0.6,0.6,1.2,0.7,1.8c0.1,0.2,0.1,0.3,0.1,0.5s0,0.3,0,0.5c0,0.5-0.1,1-0.3,1.5s-0.5,0.8-0.9,1.1
					s-0.8,0.6-1.3,0.8s-1.1,0.3-1.7,0.3c-0.1,0-0.1,0-0.1,0h-0.1c-0.4,0-0.8,0-1.2-0.1s-0.8-0.2-1.2-0.3s-0.8-0.3-1.2-0.5
					s-0.7-0.4-1.1-0.6l1.1-2.6C194.4,42.3,194.6,42.5,195,42.6z"/>
				<path class="st1" d="M203.8,44.7c0-0.5,0.1-1,0.1-1.5s0-1,0-1.4c0-0.5,0-0.9,0-1.3c0-0.8-0.1-1.5-0.1-2.1s-0.1-1.2-0.1-1.6
					s-0.1-0.9-0.1-1.3c0-0.4-0.1-0.7-0.1-1s-0.1-0.6-0.1-0.9c0-0.3-0.1-0.5-0.1-0.8l2.7-0.9c0.1,0.8,0.2,1.6,0.3,2.3
					c0.1,0.8,0.1,1.5,0.2,2.3c0,0.7,0.1,1.4,0.1,2s0,1.1,0,1.6c0,0.4,0,0.8,0,1.3s0,0.9,0,1.4s0,1,0,1.5s0,1-0.1,1.5l-2.7,0.4
					C203.8,45.7,203.8,45.2,203.8,44.7z"/>
				<path class="st1" d="M214.2,46.2c-0.1,0-0.3,0-0.5,0s-0.4-0.1-0.7-0.2c-0.1,0.7-0.4,1.4-0.7,2s-0.8,1.2-1.3,1.8
					s-1.1,1.1-1.8,1.6c-0.6,0.5-1.4,0.9-2.1,1.3l-1.6-2.2c0.4-0.2,0.8-0.4,1.2-0.7c0.4-0.2,0.8-0.5,1.2-0.8s0.7-0.6,1.1-0.9
					c0.3-0.3,0.6-0.6,0.9-0.9c0.2-0.3,0.4-0.6,0.6-1c0.1-0.3,0.2-0.7,0.2-1c0-0.2,0-0.5-0.1-0.9s-0.2-0.7-0.3-1.1
					c-0.1-0.4-0.3-0.8-0.4-1.2s-0.3-0.8-0.5-1.1l2.5-1.1c0.2,0.7,0.4,1.3,0.7,1.7c0.2,0.5,0.4,0.8,0.6,1.1c0.2,0.3,0.4,0.5,0.6,0.6
					s0.4,0.2,0.5,0.2h0.2v2.7L214.2,46.2L214.2,46.2z"/>
				<path class="st1" d="M230.8,43.5v2.7H214v-2.7H230.8z"/>
				<path class="st1" d="M230.8,43.5c0.2,0,0.5,0,0.8,0s0.6,0,1,0s0.7,0,1.1-0.1s0.7-0.1,1-0.1c0.3-0.1,0.6-0.1,0.9-0.2
					s0.5-0.2,0.7-0.3c-0.8,0.1-1.4,0.1-2.1,0.1c-0.6,0-1.2-0.1-1.6-0.4c-0.5-0.2-0.8-0.5-1.1-0.9s-0.4-1-0.4-1.6c0-0.3,0-0.6,0.1-1
					c0.1-0.3,0.1-0.7,0.3-1c0.1-0.3,0.3-0.6,0.5-0.9c0.2-0.3,0.4-0.6,0.7-0.8s0.5-0.4,0.9-0.5c0.3-0.1,0.6-0.2,1-0.2
					c0.5,0,0.9,0.1,1.3,0.3s0.7,0.4,1,0.7s0.6,0.6,0.8,1s0.4,0.8,0.6,1.2s0.3,0.9,0.3,1.3c0.1,0.4,0.1,0.9,0.1,1.3
					c0,0.7-0.1,1.3-0.3,1.8s-0.5,0.9-0.8,1.3c-0.4,0.4-0.8,0.7-1.2,0.9c-0.5,0.2-1,0.4-1.6,0.6c-0.6,0.1-1.2,0.2-1.8,0.3
					s-1.3,0.1-1.9,0.1h-0.3V43.5L230.8,43.5L230.8,43.5z M234.3,34.5l-1.9-1.9l1.9-1.9l1.9,1.9L234.3,34.5z M234.3,38.2
					c-0.1,0-0.3,0-0.4,0.1c-0.1,0.1-0.3,0.2-0.4,0.3c-0.1,0.1-0.2,0.3-0.3,0.5s-0.1,0.4-0.1,0.6c0,0.2,0.1,0.3,0.1,0.4
					c0.1,0.1,0.2,0.2,0.4,0.3s0.4,0.1,0.6,0.1s0.4,0,0.6,0s0.4,0,0.6,0c0.2,0,0.3,0,0.4,0c-0.1-0.3-0.1-0.5-0.2-0.8
					c-0.1-0.3-0.2-0.5-0.3-0.7s-0.3-0.4-0.4-0.6C234.7,38.3,234.5,38.2,234.3,38.2z"/>
				<path class="st1" d="M249,46.2c-0.5,0-0.9-0.1-1.4-0.2c-0.5-0.1-0.9-0.4-1.3-0.7c-0.4-0.3-0.7-0.7-0.9-1.1
					c-0.2-0.4-0.4-0.9-0.4-1.5c0-1.1,0.5-2.4,1.5-3.6c0.1-0.1,0.1-0.2,0.2-0.2s0.1-0.1,0.1-0.2c0.1-0.1,0.1-0.1,0.1-0.1l0.1-0.1
					l-0.5-0.4l1.7-2.1c0.3,0.2,0.6,0.5,1.1,0.9c0.4,0.4,0.9,0.9,1.4,1.4c1.5,1.7,2.2,3.2,2.2,4.6c0,0.6-0.1,1.1-0.4,1.5
					c-0.2,0.4-0.6,0.8-0.9,1.1c-0.4,0.3-0.8,0.5-1.3,0.7C250,46.1,249.5,46.2,249,46.2z M250.7,42.7c0-0.2-0.1-0.4-0.2-0.6
					c-0.1-0.2-0.3-0.5-0.4-0.7c-0.2-0.2-0.4-0.5-0.6-0.7c-0.2-0.3-0.5-0.5-0.7-0.7c-0.1,0.2-0.3,0.4-0.5,0.6
					c-0.2,0.2-0.3,0.4-0.5,0.7c-0.1,0.2-0.3,0.5-0.4,0.7c-0.1,0.3-0.1,0.5-0.1,0.8c0,0.1,0.1,0.3,0.2,0.4c0.1,0.1,0.3,0.2,0.4,0.3
					c0.2,0.1,0.4,0.1,0.6,0.1s0.4,0.1,0.5,0.1c0.2,0,0.4,0,0.6,0s0.4-0.1,0.6-0.1s0.3-0.1,0.4-0.3C250.6,43,250.7,42.8,250.7,42.7z"
					/>
				<path class="st1" d="M258.7,41c0.1,0.4,0.3,0.9,0.4,1.3s0.2,0.9,0.3,1.3s0.1,0.9,0.1,1.2c0,0.5-0.1,1.1-0.2,1.6s-0.4,1-0.6,1.5
					s-0.6,0.9-1,1.4s-0.8,0.9-1.2,1.3c-0.4,0.4-0.9,0.8-1.4,1.1s-1.1,0.6-1.6,0.9l-1.6-2.2c0.4-0.2,0.8-0.4,1.3-0.7
					c0.4-0.3,0.8-0.6,1.2-0.9c0.4-0.3,0.8-0.6,1.1-0.9c0.3-0.3,0.6-0.7,0.9-1c0.3-0.4,0.4-0.7,0.6-1s0.2-0.7,0.2-1
					c0-0.2,0-0.5-0.1-0.8s-0.1-0.6-0.3-0.9c-0.1-0.3-0.2-0.7-0.4-1c-0.1-0.4-0.3-0.8-0.5-1.2l2.5-1.1
					C258.4,40.2,258.5,40.6,258.7,41z"/>
				<path class="st1" d="M265.1,46.2c-0.7,0-1.3-0.1-1.8-0.3s-0.9-0.5-1.2-0.8s-0.6-0.7-0.7-1.2s-0.2-1-0.2-1.5c0-0.3,0-0.6,0-1
					s0-0.9,0-1.4s0-1.1,0-1.8c0-0.6,0-1.3-0.1-1.9c0-0.6-0.1-1.3-0.1-1.9c-0.1-0.6-0.1-1.1-0.2-1.6l2.6-0.8c0.1,0.4,0.1,0.8,0.2,1.4
					c0.1,0.5,0.1,1.1,0.1,1.6c0,0.6,0.1,1.1,0.1,1.7s0,1.1,0,1.6c0,0.4,0,0.9,0,1.4s0,0.9-0.1,1.4c0,0.4,0,0.8,0,1.2
					s0.1,0.6,0.1,0.8c0.1,0.1,0.1,0.2,0.2,0.3s0.2,0.1,0.3,0.1s0.2,0.1,0.4,0.1c0.1,0,0.3,0,0.4,0h0.2v2.7L265.1,46.2L265.1,46.2z"
					/>
				<path class="st1" d="M283.9,43.5v2.7h-19v-2.7H283.9z"/>
				<path class="st1" d="M283.6,43.5h0.6c0-0.4,0.1-0.8,0.2-1.2s0.2-0.9,0.4-1.4c0.2-0.4,0.4-0.9,0.6-1.3c0.2-0.4,0.5-0.8,0.8-1.1
					s0.6-0.6,0.9-0.8s0.7-0.3,1.1-0.4c0.4,0,0.7,0.1,1.1,0.3c0.3,0.2,0.6,0.5,0.9,0.8c0.2,0.4,0.4,0.7,0.6,1.1
					c0.1,0.4,0.2,0.9,0.2,1.3c0,0.5-0.1,1-0.3,1.5c-0.2,0.5-0.5,1-0.9,1.4s-0.8,0.8-1.2,1.1c-0.5,0.4-0.9,0.6-1.4,0.9
					c0,0.1,0.1,0.3,0.3,0.5c0.1,0.2,0.3,0.4,0.4,0.6c0.2,0.2,0.3,0.4,0.5,0.6c0.2,0.2,0.3,0.3,0.4,0.4c0-0.3,0-0.7,0.1-1
					s0.2-0.7,0.4-1c0.2-0.3,0.4-0.6,0.7-0.9s0.5-0.5,0.8-0.7s0.6-0.4,0.9-0.5s0.6-0.2,0.9-0.2h0.4v2.7h-0.5c-0.3,0-0.5,0.1-0.7,0.2
					c-0.2,0.1-0.4,0.3-0.6,0.5s-0.3,0.4-0.4,0.7s-0.2,0.5-0.2,0.8c0,0.1,0,0.2,0,0.3s0.1,0.2,0.1,0.3c0.1,0.1,0.1,0.2,0.2,0.3
					s0.2,0.2,0.3,0.4l-1.6,1.9c-0.7-0.4-1.3-0.9-1.8-1.3c-0.5-0.4-1-0.9-1.4-1.4s-0.7-0.9-1-1.4s-0.5-0.9-0.6-1.4h-1.2L283.6,43.5
					L283.6,43.5z M288.7,41.2c0-0.1,0-0.3,0-0.5s0-0.4-0.1-0.5c0-0.2-0.1-0.3-0.2-0.5s-0.2-0.2-0.3-0.3c-0.1,0.1-0.2,0.2-0.4,0.3
					c-0.1,0.2-0.3,0.4-0.4,0.6c-0.1,0.2-0.3,0.5-0.4,0.8s-0.2,0.6-0.3,0.8c-0.1,0.3-0.2,0.6-0.2,0.8c-0.1,0.3-0.1,0.5-0.1,0.7
					c0.2-0.1,0.5-0.1,0.8-0.3c0.3-0.1,0.5-0.3,0.7-0.5s0.4-0.4,0.6-0.7C288.6,41.8,288.7,41.5,288.7,41.2z"/>
				<path class="st1" d="M292.5,43.5h1.2c0.2,0,0.5,0,0.8-0.1s0.6-0.1,0.8-0.2c0.3-0.1,0.5-0.2,0.6-0.4c0.2-0.1,0.3-0.4,0.3-0.6
					c0-0.1,0-0.4-0.1-0.6c-0.1-0.3-0.2-0.6-0.3-0.9s-0.3-0.7-0.4-1.1c-0.2-0.4-0.3-0.7-0.5-1.1l2.5-1.2c0.1,0.4,0.3,0.8,0.5,1.1
					c0.1,0.4,0.3,0.8,0.4,1.2s0.2,0.9,0.3,1.3c0.1,0.4,0.1,0.8,0.1,1.2c0,0.7-0.1,1.3-0.4,1.8c-0.2,0.5-0.6,0.9-1,1.2
					s-0.9,0.6-1.5,0.7s-1.2,0.2-1.9,0.2h-1.4V43.5L292.5,43.5z M295.3,50.9l-1.9-1.9l1.9-1.9l1.9,1.9L295.3,50.9z"/>
			</g>
		</g>
	</g>
</g>
<g>
	<path class="st1" d="M432.2,22.7h8.3c0.7,0,1.3-0.1,1.6-0.5c0.3-0.3,0.5-0.9,0.5-1.6v-1.8v-0.4h0.4h1.8h0.4v0.4v1.8
		c0,1.5-0.4,2.6-1.2,3.4c-0.8,0.8-2,1.2-3.5,1.2h-8.3c-1.5,0-2.7-0.4-3.6-1.2c-0.8-0.8-1.2-1.9-1.2-3.4v-1.9v-0.4h0.4h1.8h0.4v0.4
		v1.9c0,0.7,0.2,1.3,0.5,1.6C430.9,22.6,431.4,22.7,432.2,22.7z M432.8,16.8l1.7-1.6l1.7,1.6l-1.7,1.6L432.8,16.8z M436.4,16.8
		l1.7-1.6l1.7,1.6c0,0-0.1,0.1-0.1,0.1c-0.1,0.1-0.3,0.3-0.7,0.6c-0.4,0.3-0.7,0.6-0.9,0.8L436.4,16.8z"/>
	<path class="st1" d="M451.8,25.2h-0.4c-1.2,0-2.1-0.3-2.7-1c-0.6-0.7-0.9-1.6-0.9-2.9v-8.2v-0.4h0.4h1.7h0.4v0.4v8.2
		c0,0.5,0.1,0.9,0.3,1.1s0.5,0.3,0.9,0.3h0.4c0.1,0,0.1,0.1,0.2,0.4c0,0.3,0.1,0.5,0.1,0.7V24c0,0.3,0,0.5-0.1,0.8
		C452,25.1,451.9,25.2,451.8,25.2z"/>
	<path class="st1" d="M454.3,22.7c0.1,0,0.1,0.1,0.2,0.4s0.1,0.5,0.1,0.7V24c0,0.3,0,0.5-0.1,0.8s-0.1,0.4-0.2,0.4h-2.6
		c-0.1,0-0.1-0.1-0.2-0.4c0-0.3-0.1-0.5-0.1-0.8v-0.1c0-0.2,0-0.5,0.1-0.7c0-0.3,0.1-0.4,0.2-0.4H454.3z"/>
	<path class="st1" d="M456.9,22.7c0.1,0,0.1,0.1,0.2,0.4s0.1,0.5,0.1,0.7V24c0,0.3,0,0.5-0.1,0.8s-0.1,0.4-0.2,0.4h-2.6
		c-0.1,0-0.1-0.1-0.2-0.4S454,24.2,454,24v-0.1c0-0.2,0-0.5,0.1-0.7s0.1-0.4,0.2-0.4H456.9z"/>
	<path class="st1" d="M459.4,22.7c0.1,0,0.1,0.1,0.2,0.4c0,0.3,0.1,0.5,0.1,0.7V24c0,0.3,0,0.5-0.1,0.8c0,0.3-0.1,0.4-0.2,0.4h-2.6
		c-0.1,0-0.1-0.1-0.2-0.4s-0.1-0.5-0.1-0.8v-0.1c0-0.2,0-0.5,0.1-0.7s0.1-0.4,0.2-0.4H459.4z"/>
	<path class="st1" d="M461.9,22.7c0.1,0,0.1,0.1,0.2,0.4s0.1,0.5,0.1,0.7V24c0,0.3,0,0.5-0.1,0.8s-0.1,0.4-0.2,0.4h-2.6
		c-0.1,0-0.1-0.1-0.2-0.4S459,24.2,459,24v-0.1c0-0.2,0-0.5,0.1-0.7s0.1-0.4,0.2-0.4H461.9z"/>
	<path class="st1" d="M461.8,22.7h2.2c-0.6-0.6-0.8-1.4-0.8-2.2c0-1.2,0.4-2.1,1.2-2.9c0.8-0.8,1.9-1.2,3.1-1.2
		c1.4,0,2.6,0.5,3.5,1.5l0.2,0.2l-0.1,0.2l-0.7,1.2l-0.3,0.4l-0.4-0.3c-0.6-0.5-1.3-0.8-2.1-0.8c-0.5,0-1,0.1-1.3,0.4
		c-0.4,0.3-0.5,0.7-0.5,1.2c0,0.5,0.3,0.9,0.8,1.3c0.5,0.4,0.9,0.6,1.1,0.6c0.2,0,0.6-0.1,1.3-0.2l2.1-0.5l0.5-0.1v0.5v1.7v0.3
		l-0.3,0.1c-2.4,0.7-4.5,1-6.3,1h-3.1c-0.1,0-0.1-0.1-0.2-0.4c0-0.3-0.1-0.5-0.1-0.8v-0.1c0-0.2,0-0.5,0.1-0.7
		C461.7,22.9,461.7,22.7,461.8,22.7z"/>
	<path class="st1" d="M478.2,25.2h-0.4c-1.2,0-2.1-0.3-2.7-1c-0.6-0.7-0.9-1.6-0.9-2.9v-8.2v-0.4h0.4h1.7h0.4v0.4v8.2
		c0,0.5,0.1,0.9,0.3,1.1s0.5,0.3,0.9,0.3h0.4c0.1,0,0.1,0.1,0.2,0.4s0.1,0.5,0.1,0.7V24c0,0.3,0,0.5-0.1,0.8
		C478.3,25.1,478.3,25.2,478.2,25.2z"/>
	<path class="st1" d="M480.7,22.7c0.1,0,0.1,0.1,0.2,0.4c0,0.3,0.1,0.5,0.1,0.7V24c0,0.3,0,0.5-0.1,0.8c0,0.3-0.1,0.4-0.2,0.4h-2.6
		c-0.1,0-0.1-0.1-0.2-0.4c0-0.3-0.1-0.5-0.1-0.8v-0.1c0-0.2,0-0.5,0.1-0.7c0-0.3,0.1-0.4,0.2-0.4H480.7z"/>
	<path class="st1" d="M483.2,22.7c0.1,0,0.1,0.1,0.2,0.4c0,0.3,0.1,0.5,0.1,0.7V24c0,0.3,0,0.5-0.1,0.8c0,0.3-0.1,0.4-0.2,0.4h-2.6
		c-0.1,0-0.1-0.1-0.2-0.4c0-0.3-0.1-0.5-0.1-0.8v-0.1c0-0.2,0-0.5,0.1-0.7c0-0.3,0.1-0.4,0.2-0.4H483.2z"/>
	<path class="st1" d="M485.7,22.7c0.1,0,0.1,0.1,0.2,0.4s0.1,0.5,0.1,0.7V24c0,0.3,0,0.5-0.1,0.8c0,0.3-0.1,0.4-0.2,0.4h-2.6
		c-0.1,0-0.1-0.1-0.2-0.4c0-0.3-0.1-0.5-0.1-0.8v-0.1c0-0.2,0-0.5,0.1-0.7c0-0.3,0.1-0.4,0.2-0.4H485.7z"/>
	<path class="st1" d="M485.6,22.7h1c0.7,0,1.2-0.1,1.5-0.3c0.3-0.2,0.4-0.6,0.4-1.1v-2.4v-0.4h0.4h1.7h0.4v0.4v2.4
		c0,0.5,0.1,0.9,0.3,1.1c0.2,0.2,0.6,0.3,1.1,0.3c0.5,0,0.9-0.1,1.1-0.3c0.2-0.2,0.3-0.6,0.3-1.1v-2.4v-0.4h0.4h1.7h0.4v0.4v2.4
		c0,0.5,0.1,0.9,0.3,1.1c0.2,0.2,0.6,0.3,1.1,0.3c0.4,0,0.6-0.1,0.8-0.3c0.1-0.2,0.3-0.6,0.3-1.1v-2.8v-0.4h0.4h1.8h0.4v0.4v2.8
		c0,1.2-0.3,2.1-0.9,2.8c-0.6,0.7-1.5,1-2.6,1c-1.2,0-2.1-0.3-2.7-1c-0.6,0.7-1.6,1-2.8,1c-1.1,0-2-0.4-2.7-1.1
		c-0.7,0.7-1.8,1.1-3.3,1.1h-0.9c-0.1,0-0.1-0.1-0.2-0.4c0-0.3-0.1-0.5-0.1-0.8v-0.1c0-0.2,0-0.5,0.1-0.7
		C485.5,22.9,485.6,22.7,485.6,22.7z"/>
	<path class="st1" d="M441,41.1h-0.1v0.4c0,1.2-0.5,2.2-1.5,2.8c-1,0.7-2.5,1-4.4,1h-1c-2.1,0-3.6-0.5-4.7-1.4
		c-1.1-0.9-1.6-2.3-1.6-4.1v-3.2v-0.4h0.4h1.8h0.4v0.4v3.2c0,1,0.3,1.8,0.9,2.4c0.6,0.5,1.5,0.7,2.8,0.7h1c0.5,0,1,0,1.3-0.1
		c0.4,0,0.7-0.1,1-0.2s0.6-0.3,0.7-0.4c0.1-0.2,0.3-0.4,0.3-0.7v-0.3h-2.1c-0.3,0-0.6-0.1-0.7-0.3c-0.1-0.2-0.3-0.4-0.4-0.9
		c-0.1-0.5-0.2-0.9-0.1-1c0-0.2,0.3-0.3,0.6-0.3h5.5c0.1,0,0.1,0.1,0.2,0.4s0.1,0.5,0.1,0.7v0.1c0,0.3,0,0.5-0.1,0.8
		C441.2,41,441.1,41.1,441,41.1z M442.3,38.6c0,0,0.1,0.1,0.1,0.4s0,0.5,0,0.7v0.1c0,0.3,0,0.5,0,0.8c0,0.3-0.1,0.4-0.1,0.4h-1.5
		c0,0-0.1-0.1-0.1-0.4c0-0.3,0-0.5,0-0.8v-0.1c0-0.2,0-0.5,0-0.7s0.1-0.4,0.1-0.4H442.3z"/>
	<path class="st1" d="M444.7,38.6c0.1,0,0.1,0.1,0.2,0.4s0.1,0.5,0.1,0.7v0.1c0,0.3,0,0.5-0.1,0.8c0,0.3-0.1,0.4-0.2,0.4h-2.6
		c-0.1,0-0.1-0.1-0.2-0.4c0-0.3-0.1-0.5-0.1-0.8v-0.1c0-0.2,0-0.5,0.1-0.7s0.1-0.4,0.2-0.4H444.7z"/>
	<path class="st1" d="M447.2,38.6c0.1,0,0.1,0.1,0.2,0.4s0.1,0.5,0.1,0.7v0.1c0,0.3,0,0.5-0.1,0.8c0,0.3-0.1,0.4-0.2,0.4h-2.6
		c-0.1,0-0.1-0.1-0.2-0.4c0-0.3-0.1-0.5-0.1-0.8v-0.1c0-0.2,0-0.5,0.1-0.7s0.1-0.4,0.2-0.4H447.2z"/>
	<path class="st1" d="M449.7,38.6c0.1,0,0.1,0.1,0.2,0.4c0,0.3,0.1,0.5,0.1,0.7v0.1c0,0.3,0,0.5-0.1,0.8c0,0.3-0.1,0.4-0.2,0.4h-2.6
		c-0.1,0-0.1-0.1-0.2-0.4c0-0.3-0.1-0.5-0.1-0.8v-0.1c0-0.2,0-0.5,0.1-0.7s0.1-0.4,0.2-0.4H449.7z"/>
	<path class="st1" d="M452.2,38.6c0.1,0,0.1,0.1,0.2,0.4c0,0.3,0.1,0.5,0.1,0.7v0.1c0,0.3,0,0.5-0.1,0.8c0,0.3-0.1,0.4-0.2,0.4h-2.6
		c-0.1,0-0.1-0.1-0.2-0.4c0-0.3-0.1-0.5-0.1-0.8v-0.1c0-0.2,0-0.5,0.1-0.7c0-0.3,0.1-0.4,0.2-0.4H452.2z"/>
	<path class="st1" d="M454.8,38.6c0.1,0,0.1,0.1,0.2,0.4c0,0.3,0.1,0.5,0.1,0.7v0.1c0,0.3,0,0.5-0.1,0.8c0,0.3-0.1,0.4-0.2,0.4h-2.6
		c-0.1,0-0.1-0.1-0.2-0.4c0-0.3-0.1-0.5-0.1-0.8v-0.1c0-0.2,0-0.5,0.1-0.7s0.1-0.4,0.2-0.4H454.8z"/>
	<path class="st1" d="M457.3,38.6c0.1,0,0.1,0.1,0.2,0.4c0,0.3,0.1,0.5,0.1,0.7v0.1c0,0.3,0,0.5-0.1,0.8c0,0.3-0.1,0.4-0.2,0.4h-2.6
		c-0.1,0-0.1-0.1-0.2-0.4c0-0.3-0.1-0.5-0.1-0.8v-0.1c0-0.2,0-0.5,0.1-0.7c0-0.3,0.1-0.4,0.2-0.4H457.3z"/>
	<path class="st1" d="M457.2,38.6h2.1c0.6,0,1-0.1,1.3-0.3c0.2-0.2,0.3-0.6,0.3-1.2v-2.7v-0.4h0.4h1.8h0.4v0.4v2.8
		c0,1.2-0.4,2.2-1.1,2.8c-0.7,0.7-1.8,1-3.1,1h-2c-0.1,0-0.1-0.1-0.2-0.4c0-0.3-0.1-0.5-0.1-0.8v-0.1c0-0.2,0-0.5,0.1-0.7
		C457,38.8,457.1,38.6,457.2,38.6z M459.8,31.1l1.7-1.6l1.7,1.6l-1.7,1.6L459.8,31.1z"/>
	<path class="st1" d="M470.4,41.1h-0.4c-1.2,0-2.1-0.3-2.7-1c-0.6-0.7-0.9-1.6-0.9-2.9V29v-0.4h0.4h1.7h0.4V29v8.2
		c0,0.5,0.1,0.9,0.3,1.1s0.5,0.3,0.9,0.3h0.4c0.1,0,0.1,0.1,0.2,0.4s0.1,0.5,0.1,0.7v0.1c0,0.3,0,0.5-0.1,0.8
		C470.5,41,470.5,41.1,470.4,41.1z"/>
	<path class="st1" d="M472.9,38.6c0.1,0,0.1,0.1,0.2,0.4c0,0.3,0.1,0.5,0.1,0.7v0.1c0,0.3,0,0.5-0.1,0.8c0,0.3-0.1,0.4-0.2,0.4h-2.6
		c-0.1,0-0.1-0.1-0.2-0.4c0-0.3-0.1-0.5-0.1-0.8v-0.1c0-0.2,0-0.5,0.1-0.7c0-0.3,0.1-0.4,0.2-0.4H472.9z"/>
	<path class="st1" d="M475.4,38.6c0.1,0,0.1,0.1,0.2,0.4c0,0.3,0.1,0.5,0.1,0.7v0.1c0,0.3,0,0.5-0.1,0.8c0,0.3-0.1,0.4-0.2,0.4h-2.6
		c-0.1,0-0.1-0.1-0.2-0.4c0-0.3-0.1-0.5-0.1-0.8v-0.1c0-0.2,0-0.5,0.1-0.7c0-0.3,0.1-0.4,0.2-0.4H475.4z"/>
	<path class="st1" d="M474.6,44.2l1.7-1.6l1.7,1.6l-1.7,1.6L474.6,44.2z M475.3,38.6h2.8c0.6,0,1-0.1,1.3-0.3
		c0.2-0.2,0.3-0.6,0.3-1.2v-2.7v-0.4h0.4h1.8h0.4v0.4v2.8c0,1.2-0.4,2.2-1.1,2.8c-0.7,0.7-1.8,1-3.1,1h-2.9c-0.1,0-0.1-0.1-0.2-0.4
		c0-0.3-0.1-0.5-0.1-0.8v-0.1c0-0.2,0-0.5,0.1-0.7C475.2,38.8,475.2,38.6,475.3,38.6z M478.2,44.2l1.7-1.6l1.7,1.6
		c0,0-0.1,0.1-0.1,0.1c-0.1,0.1-0.3,0.3-0.7,0.6c-0.4,0.3-0.7,0.6-0.9,0.8L478.2,44.2z"/>
	<path class="st1" d="M489.3,41.1h-0.4c-1.2,0-2.1-0.3-2.7-1c-0.6-0.7-0.9-1.6-0.9-2.9V29v-0.4h0.4h1.7h0.4V29v8.2
		c0,0.5,0.1,0.9,0.3,1.1s0.5,0.3,0.9,0.3h0.4c0.1,0,0.1,0.1,0.2,0.4c0,0.3,0.1,0.5,0.1,0.7v0.1c0,0.3,0,0.5-0.1,0.8
		C489.5,41,489.4,41.1,489.3,41.1z"/>
	<path class="st1" d="M491.8,38.6c0.1,0,0.1,0.1,0.2,0.4s0.1,0.5,0.1,0.7v0.1c0,0.3,0,0.5-0.1,0.8c0,0.3-0.1,0.4-0.2,0.4h-2.6
		c-0.1,0-0.1-0.1-0.2-0.4c0-0.3-0.1-0.5-0.1-0.8v-0.1c0-0.2,0-0.5,0.1-0.7c0-0.3,0.1-0.4,0.2-0.4H491.8z"/>
	<path class="st1" d="M494.4,38.6c0.1,0,0.1,0.1,0.2,0.4s0.1,0.5,0.1,0.7v0.1c0,0.3,0,0.5-0.1,0.8c0,0.3-0.1,0.4-0.2,0.4h-2.6
		c-0.1,0-0.1-0.1-0.2-0.4c0-0.3-0.1-0.5-0.1-0.8v-0.1c0-0.2,0-0.5,0.1-0.7c0-0.3,0.1-0.4,0.2-0.4H494.4z"/>
	<path class="st1" d="M493.6,43.8l1.6-1.5l1.6,1.5l-1.6,1.5L493.6,43.8z M494.3,38.6h2.8c0.6,0,1-0.1,1.3-0.3
		c0.2-0.2,0.3-0.6,0.3-1.2v-2.7v-0.4h0.4h1.8h0.4v0.4v2.8c0,1.2-0.4,2.2-1.1,2.8c-0.7,0.7-1.8,1-3.1,1h-2.9c-0.1,0-0.1-0.1-0.2-0.4
		c0-0.3-0.1-0.5-0.1-0.8v-0.1c0-0.2,0-0.5,0.1-0.7C494.2,38.8,494.2,38.6,494.3,38.6z M495.4,46.1l1.6-1.5l1.6,1.5l-1.6,1.5
		L495.4,46.1z M497.3,43.8l1.6-1.5l1.6,1.5l-1.6,1.5L497.3,43.8z"/>
</g>
</svg>
