<?xml version="1.0" encoding="utf-8"?>
<!-- Generator: Adobe Illustrator 23.0.1, SVG Export Plug-In . SVG Version: 6.00 Build 0)  -->
<svg version="1.1" id="Layer_1" xmlns="http://www.w3.org/2000/svg" xmlns:xlink="http://www.w3.org/1999/xlink" x="0px" y="0px"
	 viewBox="0 0 792 92" style="enable-background:new 0 0 792 92;"  width="420px" height="92px"  xml:space="preserve">
<style type="text/css">
	.st0{fill:#E50000;}
	.st1{fill:#FFFFFF;}
	.st2{fill:#004F49;}
	.st3{opacity:0.35;fill:#FFFFFF;enable-background:new    ;}
	.st4{fill:#061133;stroke:#FFFFFF;stroke-width:2;stroke-miterlimit:10;}
	.st5{fill:#FFC200;}
	.st6{fill:#032D44;}
	.st7{opacity:0.48;}
</style>
<g>
	<g>
		<path class="st0" d="M215,77.3H89c-4,0-7.3-3.7-7.3-8.6V25.3c0-4.6,3.2-8.6,7.3-8.6h125.8c4,0,7.3,3.7,7.3,8.6v43.4
			C222.1,73.5,218.9,77.3,215,77.3z"/>
		<path class="st1" d="M215,78.1H89c-4.4,0-8-4.2-8-9.4V25.3c0-5.2,3.5-9.4,8-9.4h125.8c4.4,0,8,4.2,8,9.4v43.4
			C222.8,74.1,219.4,78.1,215,78.1z M89,17.7c-3.5,0-6.4,3.4-6.4,7.7v43.4c0,4.2,2.9,7.7,6.4,7.7h125.8c3.6,0,6.4-3.4,6.4-7.7V25.3
			c0-4.2-2.9-7.7-6.4-7.7L89,17.7L89,17.7z"/>
	</g>
	<g>
		<path class="st1" d="M109.9,53.8h-0.2c-1.6,0-3.1-0.7-4.4-2.1c-0.9,1.4-2.7,2.1-5.4,2.1h-5.2h-0.5v-0.5v-2.6v-0.5h0.5h5
			c0.1,0,0.2,0,0.3,0c0.1,0,0.2,0,0.2,0c0.5,0,0.9-0.1,1.3-0.2c0.3-0.1,0.6-0.2,0.8-0.3c0.2-0.2,0.3-0.3,0.4-0.4
			c0.1-0.2,0.2-0.3,0.2-0.5c0-0.3-0.2-0.6-0.3-0.9c-0.2-0.2-0.3-0.4-0.4-0.7c-0.2-0.2-0.3-0.5-0.6-0.7L97.9,42l-0.3-0.3l0.3-0.3
			l1.7-1.9l0.4-0.4l0.3,0.5l7.5,9.2c0.8,1,1.6,1.5,2.3,1.5h0.2c0.2,0,0.3,0.1,0.5,0.2s0.2,0.3,0.3,0.4c0.1,0.2,0.1,0.3,0.1,0.5
			s0,0.3,0,0.5c0,0.1,0,0.1,0,0.1v0.2c0,0.5,0,0.8-0.1,1.1c0,0.2-0.1,0.2-0.2,0.3s-0.2,0.2-0.2,0.3
			C110.2,53.8,110.1,53.8,109.9,53.8z"/>
		<path class="st1" d="M121.8,53.8h-0.3c-1.9,0-3.3-0.5-4.2-1.6c-1,1.1-2.7,1.6-4.9,1.6h-2.5c-0.4,0-0.7-0.2-0.9-0.5
			c-0.2-0.3-0.3-0.7-0.3-1.2V52c0-0.5,0.1-0.9,0.3-1.2s0.5-0.5,1-0.5h2.5c0.7,0,1.3-0.1,1.8-0.3s0.8-0.4,1-0.7s0.3-0.7,0.3-1.3v-3.6
			v-0.5h0.5h2.4h0.5v0.5V48c0,0.8,0.2,1.4,0.6,1.7s1.1,0.5,2,0.5h0.3c0.2,0,0.3,0.1,0.5,0.2c0.2,0.1,0.2,0.3,0.3,0.4
			c0.1,0.2,0.1,0.3,0.1,0.5s0,0.3,0,0.5c0,0.1,0,0.1,0,0.1V52c0,0,0,0.1,0,0.2c0,0.2,0,0.2,0,0.3s0,0.2,0,0.3c0,0.2,0,0.2-0.1,0.3
			c0,0.1-0.1,0.2-0.1,0.3c-0.1,0.1-0.1,0.2-0.2,0.2c-0.1,0.1-0.2,0.2-0.2,0.2C122,53.8,121.9,53.8,121.8,53.8z M109.9,58.1l1.2-1.3
			c0.4-0.4,0.8-0.5,1.1-0.1l1.3,1.4c0.4,0.4,0.4,0.8,0,1.2l-1.2,1.3c-0.4,0.4-0.8,0.4-1.2,0l-1.3-1.4
			C109.4,58.8,109.4,58.5,109.9,58.1z M114.9,58.1l1.2-1.3c0.4-0.4,0.8-0.5,1.2-0.1l1.3,1.4c0.4,0.4,0.4,0.8,0,1.2l-1.2,1.3
			c-0.4,0.4-0.8,0.4-1.2,0l-1.4-1.4C114.4,58.8,114.4,58.5,114.9,58.1z"/>
		<path class="st1" d="M133.3,53.8H133c-1.9,0-3.3-0.5-4.2-1.6c-1.1,1.1-2.7,1.6-4.9,1.6h-2.1c-0.4,0-0.7-0.2-0.9-0.5
			s-0.3-0.7-0.3-1.2V52c0-0.5,0.1-0.9,0.3-1.2c0.2-0.3,0.5-0.5,1-0.5h2.1c1.1,0,1.8-0.2,2.4-0.5c0.5-0.3,0.7-0.9,0.7-1.7v-3.6V44
			h0.5h2.4h0.5v0.5V48c0,0.8,0.2,1.4,0.6,1.7c0.4,0.3,1.1,0.5,2,0.5h0.3c0.2,0,0.3,0.1,0.5,0.2c0.2,0.1,0.2,0.3,0.3,0.4
			c0.1,0.2,0.1,0.3,0.1,0.5s0,0.3,0,0.5c0,0.1,0,0.1,0,0.1v0.2c0,0,0,0.1,0,0.2c0,0.1,0,0.2,0,0.2c0,0.1,0,0.2,0,0.2
			c0,0.1,0,0.2,0,0.3s0,0.2-0.1,0.2c0,0.1-0.1,0.2-0.1,0.2c0,0.1-0.1,0.2-0.1,0.2c-0.1,0.1-0.1,0.2-0.2,0.2
			c-0.1,0.1-0.2,0.1-0.2,0.1C133.4,53.8,133.3,53.8,133.3,53.8z M125.4,37.9l1.2-1.3c0.5-0.5,0.9-0.5,1.2-0.1l1.4,1.4
			c0.4,0.4,0.4,0.9-0.1,1.3l-1.2,1.3c-0.4,0.4-0.9,0.4-1.2,0l-1.3-1.4C125,38.7,125,38.3,125.4,37.9z"/>
		<path class="st1" d="M133.1,53.8c-0.4,0-0.7-0.2-0.9-0.5s-0.3-0.7-0.3-1.2V52c0-0.5,0.1-0.9,0.3-1.2s0.5-0.5,1-0.5h4.5
			c1,0,1.8-0.2,2.3-0.3c0.5-0.3,0.6-0.6,0.6-1c0-0.1,0-0.2-0.1-0.3c-0.1-0.2-0.2-0.3-0.3-0.5c-0.2-0.2-0.3-0.4-0.5-0.7
			s-0.4-0.5-0.6-0.8l-4.4-5.2c-0.5-0.6-0.8-1.4-0.8-2.3c0-0.3,0.1-0.6,0.2-0.9c0.1-0.3,0.2-0.5,0.4-0.7s0.4-0.4,0.6-0.6
			c0.3-0.2,0.5-0.3,0.8-0.4l8.6-2.9l0.6-0.2V34v2.6v0.3l-0.3,0.2l-7.2,2.4l3.8,4.5c1.6,1.9,2.4,3.6,2.4,5c0,1.6-0.5,2.8-1.6,3.6
			c-1,0.8-2.6,1.2-4.6,1.2H133.1L133.1,53.8L133.1,53.8L133.1,53.8L133.1,53.8z"/>
		<path class="st1" d="M165.7,53.8h-10.1c-2.1,0-3.7-0.6-4.8-1.7c-1.1-1.2-1.6-2.8-1.6-5.1v-2.8v-0.5h0.5h2.4h0.5v0.5V47
			c0,1.1,0.3,1.9,0.8,2.4c0.3,0.3,0.6,0.5,0.9,0.6c0.4,0.2,0.9,0.2,1.4,0.2h10c1,0,1.8-0.2,2.3-0.4s0.6-0.6,0.7-1.1
			c0-0.2-0.2-0.4-0.3-0.8c-0.3-0.4-0.6-0.9-1-1.4l-4.4-5.2c-0.3-0.3-0.5-0.7-0.6-1c-0.2-0.4-0.2-0.8-0.2-1.2c0-0.5,0.1-0.9,0.3-1.2
			s0.4-0.7,0.6-0.9c0.3-0.3,0.6-0.5,1-0.6l8.6-2.9l0.6-0.2V34v2.6v0.2L173,37l-7.3,2.4l7.5,8.9c1.1,1.4,2.1,2,2.8,2h0.3
			c0.2,0,0.3,0.1,0.5,0.2c0.2,0.1,0.2,0.3,0.3,0.5s0.1,0.3,0.1,0.5s0,0.3,0,0.5c0,0.1,0,0.1,0,0.1V52c0,0,0,0.1,0,0.2
			c0,0.2,0,0.3,0,0.3s0,0.2,0,0.3c0,0.2,0,0.3-0.1,0.3c-0.1,0.1-0.1,0.2-0.2,0.3c-0.1,0.1-0.2,0.2-0.2,0.2c-0.1,0.1-0.2,0.1-0.3,0.1
			h-0.3c-1.8,0-3.4-0.8-4.7-2.4c-0.2,0.3-0.3,0.5-0.5,0.7s-0.4,0.4-0.6,0.5c-0.2,0.2-0.5,0.3-0.7,0.5c-0.3,0.2-0.5,0.3-0.8,0.3
			s-0.6,0.2-0.9,0.3s-0.6,0.2-1,0.2C166.5,53.8,166.1,53.8,165.7,53.8z"/>
		<path class="st1" d="M188.2,53.8h-0.3c-1.9,0-3.3-0.5-4.2-1.6c-1,1.1-2.7,1.6-4.9,1.6h-2.5c-0.4,0-0.7-0.2-0.9-0.5
			s-0.3-0.7-0.3-1.2V52c0-0.5,0.1-0.9,0.3-1.2s0.5-0.5,1-0.5h2.5c0.7,0,1.3-0.1,1.8-0.3s0.8-0.4,1-0.7s0.3-0.7,0.3-1.3v-3.6v-0.5
			h0.5h2.4h0.5v0.5V48c0,0.8,0.2,1.4,0.6,1.7c0.4,0.3,1.1,0.5,2,0.5h0.3c0.2,0,0.3,0.1,0.5,0.2s0.2,0.3,0.3,0.4
			c0.1,0.2,0.1,0.3,0.1,0.5s0,0.3,0,0.5c0,0.1,0,0.1,0,0.1V52c0,0,0,0.1,0,0.2c0,0.2,0,0.2,0,0.3s0,0.2,0,0.3c0,0.2,0,0.2-0.1,0.3
			c0,0.1-0.1,0.2-0.1,0.3c-0.1,0.1-0.1,0.2-0.2,0.2c-0.1,0.1-0.2,0.2-0.2,0.2C188.4,53.8,188.3,53.8,188.2,53.8z M176.3,58.1
			l1.2-1.3c0.4-0.4,0.8-0.5,1.1-0.1l1.3,1.4c0.4,0.4,0.4,0.8,0,1.2l-1.2,1.3c-0.4,0.4-0.8,0.4-1.2,0l-1.3-1.4
			C175.9,58.8,175.9,58.5,176.3,58.1z M181.1,58.1l1.2-1.3c0.4-0.4,0.8-0.5,1.2-0.1l1.3,1.4c0.4,0.4,0.4,0.8,0,1.2l-1.2,1.3
			c-0.4,0.4-0.8,0.4-1.2,0l-1.4-1.4C180.8,58.8,180.8,58.5,181.1,58.1z"/>
		<path class="st1" d="M197.9,53.8h-0.7c-1.6,0-2.8-0.5-3.9-1.6c-1,1.1-2.3,1.6-3.9,1.6h-1.3c-0.4,0-0.7-0.2-0.9-0.5
			s-0.3-0.7-0.3-1.2V52c0-0.5,0.1-0.9,0.3-1.2s0.5-0.5,1-0.5h1.3c0.4,0,0.8-0.1,1-0.2c0.3-0.1,0.5-0.2,0.7-0.4s0.3-0.4,0.4-0.7
			c0.1-0.3,0.2-0.6,0.2-0.9V35.4v-0.5h0.5h2.3h0.5v0.5v12.9c0,0.7,0.2,1.3,0.6,1.6c0.4,0.3,1,0.5,1.9,0.5h0.5c0.2,0,0.3,0.1,0.5,0.2
			c0.2,0.2,0.2,0.3,0.3,0.5s0.1,0.3,0.1,0.5s0,0.3,0,0.5c0,0.1,0,0.1,0,0.1v0.2v0.1c0,0.2,0,0.3,0,0.3c0,0.1,0,0.2,0,0.3
			c0,0.2,0,0.3-0.1,0.3s-0.1,0.2-0.2,0.3c-0.1,0.1-0.2,0.2-0.3,0.2C198.1,53.8,198,53.8,197.9,53.8z"/>
		<path class="st1" d="M197.7,53.8c-0.4,0-0.7-0.2-0.9-0.5s-0.3-0.7-0.3-1.2V52c0-0.5,0.1-0.9,0.3-1.2s0.5-0.5,1-0.5h4.5
			c1,0,1.8-0.2,2.3-0.3c0.5-0.3,0.6-0.6,0.6-1c0-0.1,0-0.2-0.1-0.3c-0.1-0.2-0.2-0.3-0.3-0.5c-0.2-0.2-0.3-0.4-0.5-0.7
			s-0.4-0.5-0.6-0.8l-4.4-5.2c-0.5-0.6-0.8-1.4-0.8-2.3c0-0.3,0.1-0.6,0.2-0.9s0.2-0.5,0.4-0.7s0.4-0.4,0.6-0.6
			c0.3-0.2,0.5-0.3,0.8-0.4l8.6-2.9l0.6-0.2V34v2.6v0.3l-0.3,0.2l-7.2,2.4L206,44c1.6,1.9,2.4,3.6,2.4,5c0,1.6-0.5,2.8-1.6,3.6
			c-1,0.8-2.6,1.2-4.6,1.2H197.7l0.1-0.2h-0.1V53.8L197.7,53.8z"/>
	</g>
</g>
<g>
	<path class="st2" d="M64.1,77.4H12.4c-6.6,0-8.9-5.3-8.9-12.1V25.9c0-6.6,5.3-9.2,12.1-9.2h44.5c6.6,0,12.5,2.8,12.5,9.5l-0.5,39.2
		C72.2,72,70.9,77.4,64.1,77.4z"/>
	<path class="st1" d="M64.3,78.3H11.5c-4.8,0-8.9-4.2-8.9-9.4V25.1c0-5.2,3.9-9.4,8.9-9.4h52.8c4.8,0,8.9,4.2,8.9,9.4v43.8
		C73.2,74.1,69.2,78.3,64.3,78.3z M11.5,17.7c-3.9,0-7,3.4-7,7.5V69c0,4.1,3.2,7.5,7,7.5h52.8c3.9,0,7-3.4,7-7.5V25.1
		c0-4.1-3.2-7.5-7-7.5C64.3,17.7,11.5,17.7,11.5,17.7z"/>
	<g>
		<g>
			<path class="st1" d="M24.5,61.9c0.4,0.5,0.6,1.2,0.9,1.8c0.2,0.4,0.3,1.1,1.1,1.1c0.3,0,0.6-0.1,0.9-0.3c0.4-0.2,0.6-0.5,0.8-0.9
				l0.4-1.2l0.8-0.5l0.1,0.1c-0.1,0.5-0.2,0.8-0.2,1.2c0,1,0.8,1.4,1.5,1.4c0.4,0,0.7-0.2,0.7-0.5c0-0.5-0.2-1.3-0.5-1.9
				c0.4-0.4,0.8-0.8,1.2-1.1h0.1c0.2,0.8,0.3,1.6,0.3,2.2c0,0.5-0.3,1.1-0.5,1.5c-0.4,0.7-1.1,1.4-2,1.4c-0.6,0-1.4-0.4-1.9-0.9l0,0
				c-0.5,0.5-1.2,1.1-2.4,1.1h-0.4c-0.1,0.7-0.2,1.3-0.5,1.8c-0.5,1.3-2.5,2.2-4.4,2.2c-2.7,0-4-1.5-4-3.6c0-1.3,0.5-2.4,1.1-3.3
				l0.5,0.2c-0.4,0.7-0.6,1.5-0.6,2.2c0,1.9,1.5,2.8,3.4,2.8c1.6,0,3.7-1.1,4.1-2.3c-0.2-1.4-0.6-2-1.5-3.2
				C23.7,62.8,24,62.4,24.5,61.9L24.5,61.9z"/>
			<path class="st1" d="M34.4,60.6l1,1.5c0.4,0.5,0.7,1.2,0.7,2.3v1.3c0,1.1-0.6,2.2-1.7,3.3c-0.8,0.7-1.6,1.1-2.3,1.1
				c-1,0-2.2-0.3-3.5-0.9l0.2-0.4c0.5,0.1,0.9,0.2,1.5,0.2c1.9,0,3.9-1.5,4.8-3.2c0.1-0.2,0.2-0.4,0.2-0.5c0-0.2-0.1-0.5-0.2-0.6
				c-0.5-0.9-1.1-1.8-1.6-2.5C33.7,61.5,34.1,61,34.4,60.6L34.4,60.6z"/>
			<path class="st1" d="M37.3,63.4c0,1,0.5,1.8,2.3,1.8c1.1,0,2-0.3,3-0.7c0.2-0.1,0.3-0.2,0.3-0.3c0-0.6-0.5-1.5-1.3-2.3
				c-0.8-0.7-1.8-1.4-2.8-1.8c-0.4-0.2-0.5-0.3-0.5-0.5c0-0.3,0.4-0.9,0.7-1.4h0.1c1.1,0.5,2.4,1.5,3.3,2.4c0.8,0.9,1.4,1.8,1.4,2.8
				c0,0.7-0.2,1.5-0.5,2.1c-1.3,0.6-2.5,1.1-3.8,1.1c-1.5,0-2.6-0.7-2.6-2.4c0-0.2,0-0.5,0.1-0.8L37.3,63.4
				C37.3,63.5,37.3,63.4,37.3,63.4z"/>
			<path class="st1" d="M45.7,66.8c0.2-0.7,0.2-1.5,0.2-2.4v-1.2c0-2.2-0.3-5.3-0.5-7.4c0.4-0.5,0.9-0.9,1.4-1.3h0.1
				c0.3,2.5,0.4,5.5,0.4,8.3c0,0.7,0,1.5-0.1,1.9c0,0.6-0.5,1.2-1.2,1.9L45.7,66.8z"/>
			<path class="st1" d="M49.1,62.5c0.8,1.6,1.5,2.5,3.1,2.5h0.3v1.5h-0.2c-0.6,0-1.1-0.1-1.4-0.4h-0.1c0,0.2,0,0.3,0,0.5
				c0,0.5-0.2,1.3-0.5,1.8C49.2,70,48,70.8,47,70.8s-2.3-0.4-3.4-0.9l0.2-0.4c0.4,0.2,0.9,0.3,1.6,0.3c1.8,0,4.3-1.8,4.6-3.5
				c-0.1-0.2-0.2-0.4-0.4-0.5c-0.5-0.6-0.9-1.2-1.2-1.7c0.3-0.5,0.5-1,0.7-1.4L49.1,62.5z"/>
			<path class="st1" d="M55.6,54.6c0.5,0.4,1.1,0.8,1.6,1.3c-0.3,0.5-0.6,0.8-1.2,1.2c-0.5-0.5-1.1-0.8-1.6-1.2
				C54.7,55.5,55.1,55,55.6,54.6z M55.8,60c-0.9,0-1.6,0.6-1.6,1.1c0,0.9,1.8,1.3,4,1.3C57.9,61.1,56.9,60,55.8,60z M53.8,65.1
				c1.2,0,2.3,0,3-0.3c0.9-0.2,1.6-0.6,1.6-1c0-0.1,0-0.2,0-0.3c-0.5,0.1-1.1,0.1-1.5,0.1c-1.6,0-2.8-0.4-3.4-1.3
				c-0.1-0.3-0.2-0.5-0.2-0.8c0-0.9,0.4-1.7,1-2.4c0.5-0.5,1.2-0.8,1.8-0.8c1.1,0,2,0.9,2.6,2.4c0.4,0.8,0.5,1.6,0.5,2.8
				c0,0.7-0.2,1.4-0.6,1.8c-0.9,0.8-2.4,1.2-4.9,1.2h-1.1c-0.7,0-1-0.5-1-0.8s0.2-0.7,1-0.7L53.8,65.1L53.8,65.1L53.8,65.1z"/>
		</g>
		<g>
			<path class="st1" d="M37.5,46.7c0-0.3-0.3-0.7-0.7-1c-0.7-0.5-1.5-1-2.3-1.5c-0.4-0.2-0.7-0.2-0.7,0.1c0,0.5-0.1,1.1-0.1,1.6
				c0,0.3,0.3,0.7,0.7,0.9c0.8,0.5,1.6,1,2.4,1.5c0.4,0.3,0.7,0.3,0.7,0C37.5,47.8,37.5,47.2,37.5,46.7z"/>
			<path class="st1" d="M33.1,47c0-0.3-0.3-0.7-0.7-0.9c-0.8-0.5-1.6-0.8-2.5-1.2c-0.5-0.2-0.8-0.1-0.8,0.2
				c-0.1,0.5-0.1,1.1-0.2,1.6c0,0.3,0.3,0.6,0.7,0.8c0.9,0.4,1.7,0.8,2.6,1.3C32.7,49,33,49,33,48.7C33,48,33,47.5,33.1,47z"/>
			<path class="st1" d="M37.5,49.7c0-0.3-0.4-0.7-0.7-1c-0.8-0.5-1.6-1-2.4-1.5c-0.5-0.3-0.7-0.2-0.8,0.1c0,0.5-0.1,1.1-0.1,1.6
				c0,0.3,0.4,0.7,0.7,0.9c0.8,0.5,1.7,1,2.5,1.5c0.5,0.3,0.7,0.3,0.7,0C37.5,50.8,37.5,50.2,37.5,49.7z"/>
			<path class="st1" d="M42,44.2c0-0.3-0.4-0.3-0.7-0.1c-0.8,0.5-1.5,1-2.3,1.5c-0.4,0.3-0.7,0.7-0.7,1c0,0.5,0,1.1,0,1.6
				c0,0.3,0.4,0.3,0.7,0c0.8-0.5,1.5-1,2.4-1.5c0.5-0.3,0.7-0.6,0.7-0.9C42.1,45.3,42.1,44.8,42,44.2z"/>
			<path class="st1" d="M42.1,47.2c0-0.3-0.4-0.3-0.8-0.1c-0.8,0.5-1.6,1-2.4,1.5c-0.4,0.3-0.7,0.7-0.7,1c0,0.5,0,1.1,0,1.6
				c0,0.3,0.4,0.3,0.7,0c0.8-0.5,1.6-1,2.5-1.5c0.5-0.3,0.8-0.6,0.7-0.9C42.2,48.3,42.2,47.8,42.1,47.2z"/>
			<path class="st1" d="M46.9,45c0-0.3-0.5-0.4-0.8-0.2c-0.8,0.4-1.7,0.8-2.5,1.2c-0.5,0.2-0.7,0.6-0.7,0.9c0,0.5,0.1,1.1,0.1,1.6
				c0,0.3,0.4,0.3,0.8,0.1c0.9-0.5,1.7-0.8,2.6-1.3c0.5-0.2,0.8-0.5,0.7-0.8C47,46,47,45.5,46.9,45z"/>
			<path class="st3" d="M59.5,35.4c-0.1-0.3-0.5-0.5-0.9-0.5c-0.8,0.1-1.6,0.2-2.4,0.4c-0.4,0.1-0.6,0.4-0.6,0.6
				c0.2,0.5,0.3,1.1,0.5,1.5c0.1,0.3,0.5,0.5,0.9,0.4c0.8-0.2,1.6-0.3,2.4-0.4c0.5-0.1,0.7-0.3,0.6-0.5
				C59.8,36.3,59.6,35.8,59.5,35.4z M34,31.7c0-0.3-0.3-0.7-0.5-0.9c-0.6-0.5-1.4-0.8-2-1.2c-0.4-0.2-0.6-0.1-0.6,0.2
				c-0.1,0.5-0.1,1.1-0.2,1.6c0,0.3,0.2,0.6,0.5,0.8c0.7,0.4,1.4,0.7,2.1,1.2c0.4,0.2,0.6,0.2,0.6-0.1C34,32.8,34,32.3,34,31.7z
				 M19.4,38.8c0.1-0.3-0.2-0.5-0.6-0.6c-0.8-0.2-1.6-0.3-2.4-0.4c-0.5-0.1-0.8,0.2-0.9,0.4c-0.2,0.5-0.4,1-0.5,1.5
				c-0.1,0.3,0.2,0.5,0.6,0.5c0.8,0.1,1.7,0.3,2.6,0.4c0.5,0.1,0.8-0.1,0.9-0.4C19.1,39.8,19.3,39.2,19.4,38.8z M20.2,35.8
				c0.1-0.3-0.2-0.5-0.6-0.6c-0.8-0.1-1.6-0.3-2.4-0.4c-0.4,0-0.8,0.2-0.9,0.5c-0.2,0.5-0.4,1-0.5,1.5c-0.1,0.3,0.2,0.5,0.6,0.5
				c0.8,0.1,1.6,0.2,2.4,0.4c0.5,0.1,0.8-0.1,0.9-0.4C19.9,36.9,20.1,36.3,20.2,35.8z M21,32.9c0.1-0.3-0.2-0.5-0.5-0.6
				c-0.7-0.1-1.5-0.2-2.3-0.3c-0.4,0-0.8,0.2-0.9,0.5c-0.2,0.5-0.4,1-0.5,1.5c-0.1,0.3,0.2,0.5,0.5,0.5c0.8,0.1,1.5,0.2,2.4,0.3
				c0.4,0.1,0.8-0.1,0.9-0.4C20.8,34,20.9,33.4,21,32.9z M21.8,30c0.1-0.3-0.2-0.5-0.5-0.6c-0.7-0.1-1.5-0.2-2.2-0.3
				c-0.4,0-0.7,0.2-0.8,0.5c-0.2,0.5-0.4,1-0.5,1.5c-0.1,0.3,0.2,0.5,0.5,0.5c0.7,0.1,1.5,0.2,2.3,0.3c0.4,0.1,0.7-0.1,0.8-0.4
				C21.6,31.1,21.8,30.5,21.8,30z M22.7,27.1c0.1-0.3-0.2-0.5-0.5-0.6c-0.7-0.1-1.4-0.2-2.1-0.2c-0.4,0-0.7,0.2-0.8,0.5
				c-0.2,0.5-0.4,1-0.5,1.5c-0.1,0.3,0.1,0.5,0.5,0.5c0.7,0.1,1.5,0.2,2.2,0.3c0.4,0.1,0.7-0.1,0.8-0.4
				C22.4,28.1,22.5,27.6,22.7,27.1z M26.6,28.1c0.1-0.3-0.2-0.6-0.5-0.7c-0.6-0.2-1.4-0.4-2.1-0.5c-0.4-0.1-0.7,0.1-0.7,0.4
				c-0.2,0.5-0.3,1.1-0.5,1.5c-0.1,0.3,0.2,0.5,0.5,0.6c0.7,0.2,1.5,0.4,2.2,0.5c0.4,0.1,0.7,0,0.7-0.3
				C26.4,29.1,26.5,28.6,26.6,28.1z M25.4,34c0.1-0.3-0.2-0.6-0.6-0.7c-0.7-0.2-1.5-0.5-2.3-0.6c-0.4-0.1-0.7,0.1-0.8,0.4
				c-0.2,0.5-0.3,1.1-0.5,1.5c-0.1,0.3,0.2,0.5,0.6,0.6c0.8,0.2,1.5,0.4,2.4,0.6c0.4,0.1,0.8,0,0.8-0.3C25.1,35.1,25.3,34.5,25.4,34
				z M29.5,35.6c0-0.3-0.3-0.6-0.6-0.8c-0.7-0.4-1.5-0.6-2.3-0.9c-0.4-0.2-0.7,0-0.8,0.3c-0.1,0.5-0.2,1.1-0.3,1.6
				c-0.1,0.3,0.3,0.6,0.6,0.7c0.8,0.3,1.5,0.5,2.4,0.9c0.4,0.2,0.7,0.1,0.8-0.2C29.4,36.7,29.5,36.2,29.5,35.6z M30.4,29.6
				c0-0.3-0.2-0.6-0.5-0.8c-0.6-0.3-1.4-0.6-2-0.8c-0.4-0.1-0.6,0-0.7,0.3c-0.1,0.5-0.2,1.1-0.3,1.6c-0.1,0.3,0.2,0.6,0.5,0.7
				c0.7,0.3,1.5,0.5,2.1,0.9c0.4,0.2,0.6,0.1,0.7-0.2C30.2,30.7,30.3,30.2,30.4,29.6z M46.5,42c0-0.3-0.4-0.4-0.8-0.2
				c-0.8,0.4-1.6,0.8-2.4,1.2c-0.4,0.2-0.7,0.6-0.7,0.9c0,0.5,0.1,1.1,0.1,1.6c0,0.3,0.4,0.4,0.8,0.1c0.8-0.5,1.6-0.8,2.5-1.2
				c0.5-0.2,0.7-0.5,0.7-0.8C46.6,43.1,46.5,42.5,46.5,42z M46.1,38.9c0-0.3-0.4-0.4-0.8-0.2c-0.8,0.4-1.5,0.8-2.3,1.2
				c-0.4,0.2-0.7,0.6-0.6,0.9c0,0.5,0.1,1.1,0.1,1.6c0,0.3,0.4,0.4,0.7,0.1c0.8-0.5,1.6-0.8,2.4-1.2c0.5-0.2,0.7-0.5,0.7-0.8
				C46.2,40,46.1,39.4,46.1,38.9z M45.7,35.9c0-0.3-0.4-0.4-0.7-0.2c-0.7,0.4-1.5,0.7-2.2,1.2c-0.4,0.2-0.6,0.6-0.6,0.9
				c0,0.5,0.1,1.1,0.1,1.6c0,0.3,0.4,0.4,0.7,0.1c0.7-0.5,1.5-0.8,2.3-1.2c0.4-0.2,0.7-0.5,0.6-0.8C45.9,36.9,45.8,36.4,45.7,35.9z
				 M45.3,32.8c0-0.3-0.4-0.4-0.7-0.2c-0.7,0.4-1.4,0.7-2.1,1.2c-0.4,0.2-0.6,0.6-0.6,0.9c0,0.5,0.1,1.1,0.1,1.6
				c0,0.3,0.4,0.4,0.7,0.1c0.7-0.5,1.5-0.8,2.2-1.2c0.4-0.2,0.6-0.5,0.6-0.8C45.5,33.9,45.4,33.4,45.3,32.8z M45,29.8
				c0-0.3-0.4-0.4-0.6-0.2c-0.6,0.4-1.4,0.7-2,1.2c-0.4,0.2-0.5,0.6-0.5,0.9c0,0.5,0.1,1.1,0.1,1.6c0,0.3,0.3,0.4,0.6,0.1
				c0.7-0.5,1.4-0.8,2.1-1.2c0.4-0.2,0.6-0.5,0.5-0.8C45.1,30.9,45.1,30.4,45,29.8z M48.8,28.2c-0.1-0.3-0.4-0.4-0.7-0.3
				c-0.6,0.3-1.4,0.5-2,0.8c-0.4,0.2-0.5,0.5-0.5,0.8c0.1,0.5,0.2,1.1,0.2,1.6c0,0.3,0.4,0.4,0.7,0.2c0.7-0.4,1.5-0.6,2.1-0.9
				c0.4-0.1,0.6-0.5,0.5-0.7C48.9,29.3,48.9,28.7,48.8,28.2z M51,40.2c-0.1-0.3-0.5-0.4-0.8-0.3c-0.8,0.3-1.6,0.6-2.4,0.9
				C47.3,41,47,41.3,47,41.6c0.1,0.5,0.2,1.1,0.2,1.6c0,0.3,0.5,0.4,0.8,0.2c0.8-0.4,1.7-0.6,2.5-0.9c0.5-0.2,0.7-0.5,0.7-0.7
				C51.3,41.2,51.1,40.7,51,40.2z M55.7,38.9c-0.1-0.3-0.5-0.5-0.9-0.4c-0.8,0.2-1.6,0.5-2.5,0.6c-0.5,0.1-0.7,0.5-0.6,0.7
				c0.1,0.5,0.2,1.1,0.4,1.6c0.1,0.3,0.5,0.4,0.9,0.3c0.9-0.3,1.7-0.5,2.6-0.6c0.5-0.1,0.7-0.4,0.6-0.6
				C56.1,39.9,55.9,39.4,55.7,38.9z M52.7,27.2c-0.1-0.3-0.5-0.5-0.7-0.4c-0.7,0.2-1.4,0.4-2.1,0.5c-0.4,0.1-0.5,0.5-0.5,0.7
				c0.1,0.5,0.2,1.1,0.4,1.6c0.1,0.3,0.4,0.4,0.7,0.3c0.7-0.2,1.5-0.4,2.2-0.5c0.4-0.1,0.6-0.4,0.5-0.6
				C52.9,28.2,52.8,27.7,52.7,27.2z M57.5,29.6c-0.1-0.3-0.5-0.5-0.8-0.5c-0.7,0.1-1.5,0.2-2.2,0.3c-0.4,0.1-0.6,0.4-0.5,0.6
				c0.2,0.5,0.3,1.1,0.5,1.5c0.1,0.3,0.5,0.5,0.8,0.4c0.7-0.1,1.5-0.2,2.3-0.3c0.4,0,0.6-0.3,0.5-0.5C57.8,30.6,57.7,30.1,57.5,29.6
				z M58.5,32.5C58.4,32.2,58,32,57.6,32c-0.7,0.1-1.5,0.2-2.3,0.3c-0.4,0.1-0.6,0.4-0.5,0.6c0.2,0.5,0.3,1.1,0.5,1.5
				c0.1,0.3,0.5,0.5,0.9,0.4c0.8-0.1,1.5-0.3,2.4-0.3c0.4,0,0.6-0.3,0.5-0.5C58.8,33.4,58.6,33,58.5,32.5z"/>
			<path class="st1" d="M19.3,25.3c-0.1,0.3-0.5,0.5-0.8,0.5c-0.7,0-1.4,0.1-2.1,0.1c-0.4,0-0.5-0.1-0.5-0.4c0.2-0.5,0.5-1,0.6-1.5
				c0.1-0.3,0.5-0.5,0.8-0.5c0.6-0.1,1.4-0.2,2-0.2c0.4,0,0.5,0.2,0.5,0.5C19.7,24.3,19.5,24.7,19.3,25.3z"/>
			<path class="st1" d="M23.5,24.1c0.1-0.3-0.1-0.5-0.5-0.5c-0.6-0.1-1.3-0.2-2-0.2c-0.4,0-0.7,0.2-0.8,0.5c-0.2,0.5-0.4,1-0.5,1.5
				c-0.1,0.3,0.1,0.5,0.5,0.5c0.7,0,1.4,0.1,2.1,0.2c0.4,0.1,0.7-0.1,0.7-0.4C23.2,25.1,23.3,24.6,23.5,24.1z"/>
			<path class="st1" d="M27.2,25c0.1-0.3-0.2-0.5-0.5-0.7c-0.6-0.2-1.3-0.4-1.9-0.5c-0.4-0.1-0.6,0.1-0.7,0.4
				c-0.2,0.5-0.3,1.1-0.5,1.5c-0.1,0.3,0.2,0.5,0.5,0.6c0.6,0.2,1.4,0.4,2,0.5c0.4,0.1,0.6,0,0.7-0.3C26.9,26.1,27.1,25.6,27.2,25z"
				/>
			<path class="st1" d="M30.7,26.6c0-0.3-0.2-0.6-0.5-0.8c-0.6-0.3-1.3-0.5-1.9-0.8c-0.4-0.1-0.6,0-0.7,0.3
				c-0.1,0.5-0.2,1.1-0.3,1.6c-0.1,0.3,0.2,0.6,0.5,0.7c0.6,0.3,1.4,0.5,2,0.8c0.4,0.2,0.6,0.1,0.6-0.2
				C30.5,27.6,30.6,27.2,30.7,26.6z"/>
			<path class="st1" d="M34.3,28.7c0-0.3-0.2-0.7-0.5-0.9c-0.6-0.5-1.3-0.8-1.9-1.2c-0.4-0.2-0.6-0.1-0.6,0.2
				c-0.1,0.5-0.1,1.1-0.2,1.6c0,0.3,0.2,0.6,0.5,0.8c0.6,0.4,1.3,0.7,2,1.2c0.4,0.2,0.6,0.2,0.6-0.1C34.2,29.8,34.2,29.3,34.3,28.7z
				"/>
			<path class="st1" d="M37.6,31.5c0-0.3-0.3-0.7-0.5-1c-0.6-0.5-1.2-1-1.8-1.5c-0.3-0.3-0.5-0.2-0.6,0.1c0,0.5-0.1,1.1-0.1,1.6
				c0,0.3,0.3,0.7,0.5,0.9c0.6,0.5,1.3,1,1.9,1.5c0.4,0.3,0.5,0.3,0.5,0C37.6,32.5,37.6,32,37.6,31.5z"/>
			<path class="st1" d="M18.9,26.7c0.1-0.3-0.1-0.5-0.5-0.5c-0.7,0-1.4,0.1-2.1,0.1c-0.4,0-0.7,0.3-0.8,0.5c-0.2,0.5-0.5,1-0.6,1.5
				c-0.1,0.3,0.1,0.5,0.5,0.4c0.7-0.1,1.5-0.1,2.2-0.1c0.4,0,0.7-0.2,0.8-0.5C18.5,27.7,18.7,27.2,18.9,26.7z"/>
			<path class="st1" d="M37.6,34.4c0-0.3-0.3-0.7-0.5-1c-0.6-0.5-1.3-1-1.9-1.5c-0.4-0.3-0.6-0.2-0.6,0.1c0,0.5-0.1,1.1-0.1,1.6
				c0,0.3,0.3,0.7,0.6,0.9c0.6,0.5,1.4,1,2,1.5c0.4,0.3,0.6,0.3,0.6,0C37.6,35.5,37.6,35,37.6,34.4z"/>
			<path class="st1" d="M17.8,29.6c0.1-0.3-0.1-0.5-0.5-0.5c-0.7,0-1.5,0-2.2,0.1c-0.4,0-0.7,0.3-0.9,0.5c-0.2,0.5-0.5,1-0.6,1.5
				c-0.1,0.3,0.1,0.5,0.5,0.5c0.7-0.1,1.5-0.1,2.3-0.1c0.4,0,0.8-0.2,0.9-0.5C17.4,30.5,17.6,30.1,17.8,29.6z"/>
			<path class="st1" d="M25.9,31c0.1-0.3-0.2-0.6-0.5-0.7c-0.7-0.2-1.5-0.5-2.2-0.5c-0.4-0.1-0.7,0.1-0.8,0.4
				c-0.2,0.5-0.3,1.1-0.5,1.5c-0.1,0.3,0.2,0.5,0.5,0.6c0.7,0.2,1.5,0.4,2.3,0.6c0.4,0.1,0.7,0,0.8-0.3C25.7,32.1,25.8,31.5,25.9,31
				z"/>
			<path class="st1" d="M29.9,32.6c0-0.3-0.2-0.6-0.5-0.8c-0.7-0.4-1.5-0.6-2.1-0.9c-0.4-0.1-0.7,0-0.7,0.3
				c-0.1,0.5-0.2,1.1-0.3,1.6c-0.1,0.3,0.2,0.6,0.6,0.7c0.7,0.3,1.5,0.5,2.3,0.9c0.4,0.2,0.7,0.1,0.7-0.2
				C29.8,33.7,29.8,33.2,29.9,32.6z"/>
			<path class="st1" d="M33.8,34.8c0-0.3-0.3-0.7-0.6-0.9c-0.7-0.5-1.4-0.8-2.1-1.2c-0.4-0.2-0.6-0.1-0.7,0.2
				c-0.1,0.5-0.1,1.1-0.2,1.6c0,0.3,0.3,0.6,0.6,0.8c0.7,0.4,1.5,0.7,2.2,1.2c0.4,0.2,0.6,0.2,0.7-0.1
				C33.7,35.8,33.8,35.4,33.8,34.8z"/>
			<path class="st1" d="M37.6,37.5c0-0.3-0.3-0.7-0.6-1c-0.6-0.5-1.4-1-2-1.5c-0.4-0.3-0.6-0.2-0.6,0.1c0,0.5-0.1,1.1-0.1,1.6
				c0,0.3,0.3,0.7,0.6,0.9c0.7,0.5,1.5,1,2.1,1.5c0.4,0.3,0.6,0.3,0.6,0C37.6,38.6,37.6,38.1,37.6,37.5z"/>
			<path class="st1" d="M16.8,32.5c0.1-0.3-0.2-0.5-0.5-0.5c-0.7,0-1.5,0-2.3,0.1c-0.4,0-0.8,0.3-0.9,0.5c-0.2,0.5-0.5,1-0.6,1.5
				c-0.1,0.3,0.1,0.5,0.5,0.5c0.8,0,1.5-0.1,2.4,0c0.4,0,0.8-0.2,0.9-0.5C16.4,33.4,16.6,32.9,16.8,32.5z"/>
			<path class="st1" d="M33.6,37.8c0-0.3-0.3-0.7-0.6-0.9c-0.7-0.5-1.5-0.8-2.2-1.2c-0.4-0.2-0.7-0.1-0.7,0.2
				C30,36.4,30,37,29.9,37.5c0,0.3,0.3,0.6,0.6,0.8c0.7,0.4,1.5,0.8,2.3,1.2c0.4,0.2,0.7,0.2,0.7-0.1C33.5,38.9,33.6,38.3,33.6,37.8
				z"/>
			<path class="st1" d="M37.5,40.6c0-0.3-0.3-0.7-0.6-1c-0.7-0.5-1.4-1-2.1-1.5c-0.4-0.3-0.6-0.2-0.7,0.1c0,0.5-0.1,1.1-0.1,1.6
				c0,0.3,0.3,0.7,0.6,0.9c0.7,0.5,1.5,1,2.2,1.5c0.4,0.3,0.6,0.3,0.6,0C37.5,41.7,37.5,41.2,37.5,40.6z"/>
			<path class="st1" d="M15.8,35.3c0.1-0.3-0.2-0.5-0.5-0.5c-0.8,0-1.5,0-2.4,0c-0.4,0-0.8,0.3-0.9,0.5c-0.2,0.5-0.5,1-0.6,1.5
				c-0.1,0.3,0.2,0.5,0.5,0.5c0.8,0,1.6,0,2.4,0c0.5,0,0.8-0.2,0.9-0.5C15.4,36.3,15.6,35.8,15.8,35.3z"/>
			<path class="st1" d="M24.7,37c0.1-0.3-0.2-0.6-0.6-0.7c-0.8-0.3-1.5-0.5-2.4-0.6c-0.4-0.1-0.8,0.1-0.9,0.4
				c-0.2,0.5-0.3,1.1-0.5,1.5c-0.1,0.3,0.2,0.5,0.6,0.6c0.8,0.2,1.6,0.4,2.4,0.6c0.5,0.1,0.8,0,0.9-0.3C24.6,38.1,24.7,37.5,24.7,37
				z"/>
			<path class="st1" d="M29.1,38.6c0-0.3-0.3-0.6-0.6-0.8c-0.8-0.4-1.5-0.6-2.4-0.9c-0.4-0.2-0.8,0-0.8,0.3
				c-0.1,0.5-0.2,1.1-0.3,1.6c-0.1,0.3,0.3,0.6,0.6,0.7c0.8,0.3,1.6,0.6,2.4,0.9c0.5,0.2,0.8,0.1,0.8-0.2
				C29,39.7,29.1,39.2,29.1,38.6z"/>
			<path class="st1" d="M33.4,40.9c0-0.3-0.3-0.7-0.6-0.9c-0.7-0.5-1.5-0.8-2.3-1.2c-0.4-0.2-0.7-0.1-0.8,0.2
				c-0.1,0.5-0.1,1-0.2,1.6c0,0.3,0.3,0.6,0.7,0.8c0.8,0.4,1.6,0.8,2.4,1.2c0.4,0.2,0.7,0.2,0.7-0.1C33.4,42,33.4,41.4,33.4,40.9z"
				/>
			<path class="st1" d="M37.5,43.7c0-0.3-0.3-0.7-0.6-1c-0.7-0.5-1.5-1-2.2-1.5c-0.3-0.3-0.7-0.2-0.7,0c0,0.5-0.1,1.1-0.1,1.6
				c0,0.3,0.3,0.7,0.7,0.9c0.8,0.5,1.5,1,2.3,1.5c0.4,0.3,0.7,0.3,0.7,0C37.5,44.8,37.5,44.2,37.5,43.7z"/>
			<path class="st1" d="M14.8,38.2c0.1-0.3-0.2-0.5-0.6-0.5c-0.8,0-1.6-0.1-2.4,0c-0.5,0-0.8,0.3-0.9,0.5c-0.2,0.5-0.5,1-0.6,1.5
				c-0.1,0.3,0.2,0.5,0.5,0.5c0.8,0,1.7,0,2.5,0.1c0.5,0,0.9-0.2,1-0.5C14.4,39.2,14.6,38.6,14.8,38.2z"/>
			<path class="st1" d="M24.1,39.9c0.1-0.3-0.3-0.6-0.6-0.7c-0.8-0.3-1.6-0.5-2.5-0.6c-0.5-0.1-0.8,0.1-0.9,0.4
				c-0.2,0.5-0.3,1.1-0.5,1.5c-0.1,0.3,0.2,0.5,0.6,0.6c0.9,0.2,1.7,0.5,2.6,0.6c0.5,0.1,0.8,0,0.9-0.3C23.9,41.1,24,40.4,24.1,39.9
				z"/>
			<path class="st1" d="M28.7,41.7c0-0.3-0.3-0.6-0.7-0.8c-0.8-0.4-1.6-0.6-2.4-0.9c-0.5-0.2-0.8,0-0.8,0.3
				c-0.1,0.5-0.2,1.1-0.3,1.6c-0.1,0.3,0.3,0.6,0.7,0.7c0.8,0.3,1.7,0.6,2.5,0.9c0.5,0.2,0.8,0.1,0.8-0.2
				C28.6,42.8,28.6,42.2,28.7,41.7z"/>
			<path class="st1" d="M33.3,44c0-0.3-0.3-0.7-0.7-0.9c-0.8-0.5-1.6-0.8-2.4-1.2c-0.5-0.2-0.8-0.1-0.8,0.2
				c-0.1,0.5-0.1,1.1-0.2,1.6c0,0.3,0.3,0.6,0.7,0.8c0.8,0.4,1.7,0.8,2.5,1.2c0.5,0.2,0.8,0.2,0.8-0.1C33.2,45,33.2,44.5,33.3,44z"
				/>
			<path class="st1" d="M13.8,41.1c0.1-0.3-0.2-0.5-0.6-0.5c-0.8-0.2-1.7-0.2-2.5-0.2c-0.5,0-0.9,0.3-1,0.5c-0.2,0.5-0.5,1-0.6,1.5
				c-0.1,0.3,0.2,0.5,0.6,0.5c0.9,0,1.7,0,2.6,0.1c0.5,0,0.9-0.2,1-0.5C13.4,42.1,13.6,41.6,13.8,41.1z"/>
			<path class="st1" d="M18.6,41.8c0.1-0.3-0.2-0.5-0.6-0.6c-0.9-0.2-1.7-0.3-2.6-0.4c-0.5-0.1-0.9,0.1-1,0.4
				c-0.2,0.5-0.4,1-0.5,1.5c-0.1,0.3,0.2,0.5,0.6,0.5c0.9,0.1,1.8,0.3,2.7,0.5c0.5,0.1,0.9-0.1,1-0.4C18.3,42.8,18.5,42.2,18.6,41.8
				z"/>
			<path class="st1" d="M23.5,43c0.1-0.3-0.3-0.6-0.7-0.7c-0.9-0.3-1.7-0.5-2.6-0.6c-0.5-0.1-0.8,0-0.9,0.3
				c-0.2,0.5-0.3,1.1-0.5,1.5c-0.1,0.3,0.3,0.5,0.7,0.6c0.9,0.2,1.8,0.5,2.7,0.7c0.5,0.1,0.9,0,0.9-0.3C23.2,44.1,23.3,43.5,23.5,43
				z"/>
			<path class="st1" d="M28.4,44.7c0-0.3-0.3-0.6-0.7-0.8c-0.8-0.4-1.7-0.6-2.5-0.9c-0.5-0.2-0.8,0-0.9,0.3
				c-0.1,0.5-0.2,1.1-0.3,1.6c-0.1,0.3,0.3,0.6,0.7,0.7c0.9,0.3,1.8,0.6,2.7,1c0.5,0.2,0.8,0.1,0.9-0.2
				C28.2,45.8,28.3,45.2,28.4,44.7z"/>
			<path class="st1" d="M41.2,30.6c0,0.3-0.3,0.7-0.5,0.9c-0.6,0.5-1.3,1-1.9,1.5c-0.4,0.3-0.5,0.3-0.5,0c0-0.5,0-1.1,0-1.6
				c0-0.3,0.3-0.7,0.5-1c0.6-0.5,1.2-1,1.8-1.5c0.3-0.3,0.5-0.2,0.6,0.1C41.2,29.6,41.2,30.1,41.2,30.6z"/>
			<path class="st1" d="M44.6,26.8c0-0.3-0.4-0.4-0.6-0.2c-0.6,0.4-1.3,0.7-1.9,1.2c-0.3,0.2-0.5,0.6-0.5,0.9c0,0.5,0.1,1.1,0.1,1.6
				c0,0.3,0.3,0.4,0.6,0.1c0.6-0.5,1.3-0.8,2-1.2c0.4-0.2,0.5-0.5,0.5-0.8C44.8,27.9,44.7,27.4,44.6,26.8z"/>
			<path class="st1" d="M48.1,25.2c-0.1-0.3-0.4-0.4-0.7-0.3c-0.6,0.3-1.3,0.5-1.9,0.8c-0.4,0.2-0.5,0.5-0.5,0.8
				c0.1,0.5,0.2,1.1,0.2,1.6c0,0.3,0.4,0.4,0.6,0.2c0.6-0.3,1.4-0.6,2-0.8c0.4-0.1,0.5-0.5,0.5-0.7C48.4,26.2,48.2,25.7,48.1,25.2z"
				/>
			<path class="st1" d="M51.8,24.2c-0.1-0.3-0.4-0.5-0.7-0.4c-0.6,0.2-1.3,0.3-1.9,0.5c-0.4,0.1-0.5,0.5-0.5,0.7
				c0.1,0.5,0.2,1.1,0.4,1.6c0.1,0.3,0.4,0.4,0.7,0.3c0.6-0.2,1.4-0.4,2-0.5c0.4-0.1,0.5-0.4,0.5-0.6C52.1,25.2,51.9,24.7,51.8,24.2
				z"/>
			<path class="st1" d="M55.5,23.7c-0.1-0.3-0.5-0.5-0.8-0.5c-0.6,0-1.3,0.1-2,0.2c-0.4,0.1-0.5,0.3-0.5,0.5
				c0.2,0.5,0.3,1.1,0.5,1.5c0.1,0.3,0.5,0.5,0.7,0.4c0.7-0.1,1.4-0.2,2.1-0.2c0.4,0,0.5-0.3,0.5-0.5C55.8,24.7,55.7,24.3,55.5,23.7
				z"/>
			<path class="st1" d="M59.2,24c-0.1-0.3-0.5-0.5-0.8-0.5c-0.6-0.1-1.4-0.2-2-0.2c-0.4,0-0.5,0.2-0.5,0.5c0.2,0.5,0.4,1,0.5,1.5
				c0.1,0.3,0.5,0.5,0.8,0.5c0.7,0,1.4,0.1,2.1,0.1c0.4,0,0.5-0.1,0.5-0.4C59.6,25,59.4,24.5,59.2,24z"/>
			<path class="st1" d="M41.3,32.1c0-0.3-0.3-0.4-0.6-0.1c-0.6,0.5-1.3,1-1.9,1.5c-0.4,0.3-0.5,0.7-0.5,1c0,0.5,0,1.1,0,1.6
				c0,0.3,0.3,0.3,0.6,0c0.6-0.5,1.4-1,2-1.5c0.4-0.3,0.6-0.6,0.6-0.9C41.3,33.2,41.3,32.6,41.3,32.1z"/>
			<path class="st1" d="M56.5,26.7c-0.1-0.3-0.5-0.5-0.8-0.5c-0.7,0-1.4,0.1-2.1,0.2c-0.4,0.1-0.5,0.4-0.5,0.6
				c0.2,0.5,0.3,1.1,0.5,1.5c0.1,0.3,0.5,0.5,0.8,0.4c0.7-0.1,1.5-0.2,2.2-0.3c0.4,0,0.6-0.3,0.5-0.5C56.8,27.7,56.7,27.2,56.5,26.7
				z"/>
			<path class="st1" d="M60.4,26.9c-0.1-0.3-0.5-0.5-0.8-0.5c-0.7-0.1-1.4-0.1-2.1-0.1c-0.4,0-0.5,0.2-0.5,0.5
				c0.2,0.5,0.4,1,0.5,1.5c0.1,0.3,0.5,0.5,0.8,0.5c0.7,0,1.5,0,2.2,0.1c0.4,0,0.5-0.2,0.5-0.4C60.7,27.9,60.6,27.4,60.4,26.9z"/>
			<path class="st1" d="M41.5,35.1c0-0.3-0.3-0.4-0.6-0.1c-0.6,0.5-1.4,1-2,1.5c-0.4,0.3-0.6,0.7-0.6,1c0,0.5,0,1.1,0,1.6
				c0,0.3,0.3,0.3,0.6,0c0.7-0.5,1.4-1,2.1-1.5c0.4-0.3,0.6-0.6,0.6-0.9C41.5,36.2,41.5,35.6,41.5,35.1z"/>
			<path class="st1" d="M49.3,31.2c-0.1-0.3-0.4-0.4-0.7-0.3c-0.7,0.3-1.5,0.5-2.1,0.9c-0.4,0.2-0.6,0.5-0.5,0.8
				c0.1,0.5,0.2,1.1,0.2,1.6c0,0.3,0.4,0.4,0.7,0.2c0.7-0.4,1.5-0.6,2.3-0.9c0.4-0.2,0.6-0.5,0.6-0.7C49.5,32.3,49.4,31.7,49.3,31.2
				z"/>
			<path class="st1" d="M53.4,30.1c-0.1-0.3-0.5-0.5-0.8-0.4c-0.7,0.2-1.5,0.4-2.2,0.5c-0.4,0.1-0.6,0.5-0.5,0.7
				c0.1,0.5,0.2,1.1,0.4,1.6c0.1,0.3,0.5,0.4,0.8,0.3c0.7-0.2,1.5-0.5,2.3-0.6c0.4-0.1,0.6-0.4,0.5-0.6
				C53.7,31.2,53.6,30.6,53.4,30.1z"/>
			<path class="st1" d="M61.5,29.7c-0.1-0.3-0.5-0.5-0.9-0.5c-0.7-0.1-1.5-0.1-2.2-0.1c-0.4,0-0.6,0.2-0.5,0.5
				c0.2,0.5,0.4,1,0.5,1.5c0.1,0.3,0.5,0.5,0.9,0.5c0.7,0,1.5,0,2.3,0.1c0.4,0,0.6-0.2,0.5-0.5C61.9,30.7,61.7,30.2,61.5,29.7z"/>
			<path class="st1" d="M41.6,38.1c0-0.3-0.4-0.3-0.7-0.1c-0.7,0.5-1.5,1-2.1,1.5c-0.4,0.3-0.6,0.7-0.6,1c0,0.5,0,1.1,0,1.6
				c0,0.3,0.3,0.3,0.6,0c0.7-0.5,1.5-1,2.2-1.5c0.4-0.3,0.6-0.6,0.6-0.9C41.7,39.2,41.7,38.6,41.6,38.1z"/>
			<path class="st1" d="M49.9,34.2c-0.1-0.3-0.5-0.4-0.8-0.3c-0.7,0.3-1.5,0.5-2.3,0.9c-0.4,0.2-0.6,0.5-0.6,0.8
				c0.1,0.5,0.2,1.1,0.2,1.6c0,0.3,0.4,0.4,0.8,0.2c0.8-0.4,1.5-0.6,2.4-0.9c0.4-0.2,0.7-0.5,0.6-0.7C50.1,35.3,50,34.7,49.9,34.2z"
				/>
			<path class="st1" d="M54.2,33c-0.1-0.3-0.5-0.5-0.8-0.4c-0.7,0.2-1.5,0.4-2.3,0.6c-0.4,0.1-0.6,0.5-0.6,0.7
				c0.1,0.5,0.2,1.1,0.4,1.6c0.1,0.3,0.5,0.4,0.8,0.3c0.8-0.3,1.5-0.5,2.4-0.6c0.4-0.1,0.6-0.4,0.6-0.6C54.5,34.1,54.4,33.5,54.2,33
				z"/>
			<path class="st1" d="M62.6,32.5c-0.1-0.3-0.5-0.5-0.9-0.5c-0.7-0.1-1.5-0.1-2.3-0.1c-0.4,0-0.6,0.3-0.5,0.5
				c0.2,0.5,0.4,1,0.5,1.5c0.1,0.3,0.5,0.5,0.9,0.5c0.8,0,1.5,0,2.4,0c0.4,0,0.6-0.2,0.5-0.5C63.1,33.5,62.9,33,62.6,32.5z"/>
			<path class="st1" d="M41.8,41.2c0-0.3-0.4-0.3-0.7-0.1c-0.7,0.5-1.5,1-2.2,1.5c-0.4,0.3-0.6,0.7-0.6,1c0,0.5,0,1.1,0,1.6
				c0,0.3,0.3,0.3,0.7,0c0.7-0.5,1.5-1,2.3-1.5c0.4-0.3,0.7-0.6,0.7-0.9C41.9,42.3,41.9,41.8,41.8,41.2z"/>
			<path class="st1" d="M50.5,37.2c-0.1-0.3-0.5-0.4-0.8-0.3c-0.8,0.3-1.5,0.5-2.4,0.9c-0.4,0.2-0.7,0.5-0.6,0.8
				c0.1,0.5,0.2,1.1,0.2,1.6c0,0.3,0.4,0.4,0.8,0.2c0.8-0.4,1.6-0.6,2.4-0.9c0.5-0.2,0.7-0.5,0.6-0.7C50.7,38.3,50.6,37.7,50.5,37.2
				z"/>
			<path class="st1" d="M55,36c-0.1-0.3-0.5-0.5-0.9-0.4c-0.8,0.2-1.6,0.4-2.4,0.6c-0.4,0.1-0.7,0.5-0.6,0.7
				c0.1,0.5,0.2,1.1,0.4,1.6c0.1,0.3,0.5,0.4,0.9,0.3c0.8-0.3,1.6-0.5,2.4-0.6c0.5-0.1,0.7-0.4,0.6-0.6C55.3,37,55.1,36.4,55,36z"/>
			<path class="st1" d="M63.8,35.3c-0.1-0.3-0.5-0.5-0.9-0.5c-0.8,0-1.5,0-2.4,0c-0.4,0-0.6,0.3-0.5,0.5c0.2,0.5,0.4,1,0.5,1.5
				c0.1,0.3,0.5,0.5,0.9,0.5c0.8,0,1.6,0,2.4,0c0.5,0,0.6-0.2,0.5-0.5C64.3,36.3,64.1,35.8,63.8,35.3z"/>
			<path class="st1" d="M60.5,38.2c-0.1-0.3-0.5-0.5-0.9-0.4c-0.8,0.1-1.6,0.2-2.4,0.4c-0.5,0.1-0.7,0.4-0.6,0.6
				c0.2,0.5,0.3,1.1,0.5,1.5c0.1,0.3,0.5,0.5,0.9,0.4c0.9-0.2,1.7-0.3,2.6-0.4c0.5-0.1,0.7-0.3,0.6-0.5
				C60.7,39.2,60.6,38.7,60.5,38.2z"/>
			<path class="st1" d="M65,38.1c-0.1-0.3-0.5-0.5-0.9-0.5c-0.8,0-1.6,0-2.4,0c-0.5,0-0.7,0.3-0.6,0.5c0.2,0.5,0.4,1,0.5,1.5
				c0.1,0.3,0.5,0.5,1,0.5c0.8-0.1,1.7-0.1,2.5-0.1c0.5,0,0.7-0.2,0.5-0.5C65.4,39.1,65.2,38.6,65,38.1z"/>
			<path class="st1" d="M51.7,43.1c-0.1-0.3-0.5-0.4-0.9-0.3c-0.9,0.3-1.7,0.6-2.5,0.9c-0.5,0.2-0.7,0.5-0.7,0.8
				c0.1,0.5,0.2,1.1,0.2,1.6c0,0.3,0.5,0.4,0.9,0.2c0.9-0.4,1.8-0.6,2.7-1c0.5-0.2,0.8-0.5,0.7-0.7C51.8,44.2,51.8,43.7,51.7,43.1z"
				/>
			<path class="st1" d="M56.6,41.9c-0.1-0.3-0.5-0.5-0.9-0.3c-0.9,0.2-1.7,0.5-2.6,0.6c-0.5,0.1-0.7,0.5-0.7,0.7
				c0.1,0.5,0.2,1.1,0.4,1.6c0.1,0.3,0.5,0.4,0.9,0.3c0.9-0.3,1.8-0.5,2.7-0.7c0.5-0.1,0.8-0.4,0.7-0.6C56.8,43,56.7,42.4,56.6,41.9
				z"/>
			<path class="st1" d="M61.4,41.2c-0.1-0.3-0.5-0.5-1-0.4c-0.9,0.1-1.7,0.3-2.6,0.4c-0.5,0.1-0.7,0.4-0.6,0.6
				c0.2,0.5,0.3,1.1,0.5,1.5c0.1,0.3,0.5,0.5,1,0.4c0.9-0.2,1.8-0.3,2.7-0.5c0.5-0.1,0.7-0.3,0.6-0.5C61.7,42.2,61.5,41.6,61.4,41.2
				z"/>
			<path class="st1" d="M66.3,41c-0.1-0.3-0.5-0.5-1-0.5c-0.8,0-1.7,0-2.5,0.1c-0.5,0-0.7,0.3-0.6,0.5c0.2,0.5,0.4,1,0.5,1.5
				c0.1,0.3,0.5,0.5,1,0.5c0.9-0.1,1.7-0.1,2.6-0.1c0.5,0,0.7-0.2,0.6-0.5C66.6,42,66.4,41.5,66.3,41z"/>
		</g>
	</g>
</g>
<path class="st4" d="M781.7,77H490c-3.5,0-6.3-2.8-6.3-6.3V23.3c0-3.5,2.8-6.3,6.3-6.3h291.8c3.5,0,6.3,2.8,6.3,6.3v47.6
	C787.9,74.2,785.2,77,781.7,77z"/>
<g>
	<g>
		<g>
			<g>
				<path class="st5" d="M639.2,65.9H508.5c-2.3,0-4.4-2-4.4-4.4V33.1c0-2.3,2-4.4,4.4-4.4h130.8c2.3,0,4.4,2,4.4,4.4v28.4
					C643.8,63.9,641.8,65.9,639.2,65.9z"/>
				<path class="st1" d="M639.2,66.8H508.5c-3,0-5.6-2.5-5.6-5.6V33c0-3,2.5-5.6,5.6-5.6h130.8c3,0,5.6,2.5,5.6,5.6v28.4
					C644.7,64.5,642.3,66.8,639.2,66.8z M508.5,29.6c-1.9,0-3.4,1.5-3.4,3.4v28.4c0,1.9,1.5,3.4,3.4,3.4h130.8
					c1.9,0,3.4-1.5,3.4-3.4V33.1c0-1.9-1.5-3.4-3.4-3.4C639.3,29.6,508.5,29.6,508.5,29.6z"/>
			</g>
		</g>
	</g>
	<g>
		<path class="st6" d="M529.3,54.6c-0.3,0.2-0.8,0.3-1.1,0.5c-0.5,0.2-1.1,0.2-1.7,0.3c-0.5,0-1.2,0.2-1.9,0.2H516
			c-2,0-3.4-0.5-4.4-1.5c-1.1-1.1-1.5-2.6-1.5-4.7v-2.6v-0.5h0.5h2.3h0.5v0.5v2.6c0,1.1,0.2,1.7,0.8,2.2c0.5,0.5,1.2,0.8,2.2,0.8
			h9.2c-0.5-0.8-0.8-1.7-0.8-2.8c0-0.8,0.2-1.4,0.3-2c0.2-0.5,0.5-1.1,1.1-1.7c1.1-0.9,2.2-1.4,3.6-1.4s2.6,0.5,3.6,1.4
			c0.5,0.5,0.8,1.1,1.1,1.7c0.2,0.5,0.3,1.4,0.3,2c0,1.1-0.2,2-0.8,2.8h2c0.2,0,0.2,0,0.3,0c0.2,0,0.2,0.2,0.2,0.2
			c0,0.2,0.2,0.2,0.2,0.2s0,0.2,0,0.3c0,0.2,0,0.2,0,0.2v0.2c0,0,0,0,0,0.2v0.2c0,0,0,0,0,0.2s0,0.2,0,0.3c0,0,0,0.2,0,0.3
			c0,0.2,0,0.2,0,0.3c0,0,0,0.2-0.2,0.2c0,0.2-0.2,0.2-0.2,0.2c-0.2,0-0.2,0-0.3,0h-1.8C532.2,55.5,530.8,55.1,529.3,54.6z
			 M527.4,39.7l1.1-1.1c0.3-0.3,0.8-0.5,1.1,0l1.4,1.2c0.3,0.3,0.3,0.8,0,1.1l-1.1,1.1c-0.3,0.3-0.8,0.3-1.1,0l-1.2-1.4
			C526.9,40.5,526.9,40.1,527.4,39.7z M527.4,49.5c0,0.5,0.2,0.9,0.5,1.4c0.3,0.3,0.8,0.5,1.4,0.5c0.8,0,1.1-0.2,1.4-0.5
			c0.3-0.3,0.5-0.8,0.5-1.4c0-0.6-0.2-0.9-0.5-1.4c-0.2-0.2-0.3-0.3-0.5-0.5s-0.5-0.2-0.8-0.2c-0.2,0-0.5,0-0.8,0.2
			c-0.2,0.2-0.5,0.2-0.5,0.5c-0.2,0.2-0.3,0.3-0.5,0.5c0,0.2,0,0.2-0.2,0.3C527.4,49.2,527.4,49.2,527.4,49.5z"/>
		<path class="st6" d="M546.9,55.5h-0.2c-1.7,0-3.1-0.5-4-1.4c-1.1,1.1-2.6,1.4-4.7,1.4h-2.3c-0.3,0-0.6-0.2-0.8-0.5
			c-0.2-0.2-0.2-0.6-0.2-1.1v-0.2c0-0.5,0-0.8,0.2-1.1c0.2-0.5,0.5-0.5,0.9-0.5h2.3c0.6,0,1.2,0,1.7-0.2s0.8-0.3,0.9-0.6
			c0.2-0.2,0.2-0.6,0.2-1.1V47v-0.3h0.5h2.3h0.5v0.5v3.4c0,0.8,0.2,1.2,0.5,1.5s1.1,0.5,1.9,0.5h0.2c0.2,0,0.3,0,0.5,0.2
			s0.2,0.2,0.2,0.3c0.2,0.2,0,0.3,0,0.5s0,0.2,0,0.5c0,0,0,0,0,0.2v0.2c0,0,0,0,0,0.2s0,0.2,0,0.2v0.2v0.2c0,0,0,0.2-0.2,0.2
			c0,0.2-0.2,0.2-0.2,0.2L546.9,55.5C547.1,55.5,546.9,55.5,546.9,55.5z M535.7,59.2l1.1-1.1c0.3-0.3,0.8-0.3,1.1,0l1.2,1.2
			c0.3,0.3,0.3,0.8,0,1.1l-1.1,1.1c-0.3,0.3-0.8,0.3-1.1,0l-1.2-1.2C535.2,59.9,535.2,59.8,535.7,59.2z M540.3,59.2l1.1-1.1
			c0.3-0.3,0.8-0.3,1.1,0l1.2,1.2c0.3,0.3,0.3,0.8,0,1.1l-1.1,1.1c-0.3,0.3-0.8,0.3-1.1,0l-1.4-1.2
			C539.9,59.9,540.1,59.8,540.3,59.2z"/>
		<path class="st6" d="M560.2,55.5h-1.7c-0.8,0-1.7-0.2-2.3-0.2s-1.4-0.3-2.2-0.8c-1.4,0.6-3.1,1.1-4.7,1.1H547
			c-0.3,0-0.6-0.2-0.8-0.5c-0.2-0.2-0.2-0.6-0.2-1.1v-0.2c0-0.5,0.2-0.8,0.2-1.1c0.2-0.2,0.5-0.5,0.8-0.5h3
			c-0.5-0.8-0.8-1.7-0.8-2.8c0-1.4,0.5-2.6,1.4-3.6c1.1-0.9,2.2-1.4,3.6-1.4c1.4,0,2.6,0.5,3.6,1.4c0.2,0.2,0.5,0.5,0.5,0.8
			c0.2,0.3,0.3,0.5,0.5,0.8c0.2,0.2,0.2,0.5,0.2,0.9s0.2,0.6,0.2,1.1s0,1.1-0.2,1.4c-0.2,0.5-0.3,0.9-0.5,1.4h2c0.2,0,0.2,0,0.3,0
			s0.2,0.2,0.2,0.2c0,0.2,0.2,0.2,0.2,0.2s0,0.2,0,0.3c0,0.2,0,0.2,0,0.2v0.2c0,0,0,0,0,0.2v0.2c0,0,0,0,0,0.2s0,0.2,0,0.2v0.2
			c0,0.2,0,0.2,0,0.2v0.2c0,0.2,0,0.2-0.2,0.2l-0.2,0.2l-0.2,0.2C560.4,55.5,560.2,55.5,560.2,55.5z M551.9,39.7l1.1-1.1
			c0.3-0.3,0.8-0.5,1.1,0l1.4,1.2c0.3,0.3,0.3,0.8,0,1.1l-1.1,1.1c-0.3,0.3-0.8,0.3-1.1,0l-1.2-1.4
			C551.7,40.5,551.7,40.1,551.9,39.7z M551.9,49.5c0,0.5,0.2,0.9,0.5,1.4c0.5,0.5,0.8,0.5,1.4,0.5c0.6,0,1.1-0.2,1.4-0.5
			c0.3-0.3,0.5-0.8,0.5-1.4c0-0.6-0.2-0.9-0.5-1.4c-0.2-0.2-0.3-0.3-0.5-0.5s-0.5-0.2-0.8-0.2c-0.2,0-0.5,0-0.8,0.2
			c-0.2,0.2-0.5,0.2-0.5,0.5l-0.2,0.2l-0.2,0.2c0,0,0,0.2-0.2,0.2v0.2v0.2C551.9,49.2,551.9,49.2,551.9,49.5z"/>
		<path class="st6" d="M571.7,53.2l-1.1,0.5c-2,1.1-4,1.5-6.3,1.5h-4c-0.3,0-0.6-0.2-0.8-0.5s-0.2-0.6-0.2-1.1v-0.2
			c0-0.5,0-0.8,0.2-1.1c0.2-0.5,0.5-0.5,0.9-0.5h3.8c0.9,0,1.7-0.2,2.6-0.2c0.8-0.2,1.5-0.5,2.3-0.8l3-1.4l-1.7-1.1
			c-1.1-0.5-2-0.9-3.1-0.9c-0.9,0-1.7,0.3-2.8,1.1l-0.9,0.8l-0.3,0.2l-0.2-0.3l-1.4-1.7l-0.3-0.3l0.3-0.2l0.8-0.6
			c1.4-1.1,3-1.9,4.4-2c1.4-0.2,3.1,0.2,4.7,1.1L574,47c0.2,0.2,0.5,0.2,0.8,0.5c0.2,0.2,0.5,0.2,0.8,0.2c0.2,0,0.5,0.2,0.6,0.2h0.3
			v0.3v2.3v0.2l-0.2,0.2l-1.4,0.8c0.5,0.2,1.1,0.5,1.7,0.5h1.5c0.2,0,0.3,0,0.5,0.2s0.2,0.2,0.2,0.3c0,0.2,0,0.3,0,0.5s0,0.2,0,0.5
			c0,0,0,0,0,0.2v0.2c0,0.3,0,0.8-0.2,0.9c-0.2,0.3-0.3,0.5-0.6,0.5h-1.4c-0.9,0-1.7-0.2-2.6-0.5C572.8,54.6,572,53.9,571.7,53.2z
			 M565.7,39.5l1.1-1.1c0.3-0.3,0.8-0.5,1.1,0l1.4,1.2c0.3,0.3,0.3,0.8,0,1.1l-1.1,1.1c-0.3,0.3-0.8,0.3-1.1,0l-1.2-1.4
			C565.2,40.1,565.2,39.7,565.7,39.5z"/>
		<path class="st6" d="M577.5,55.5c-0.3,0-0.6-0.2-0.8-0.5c-0.2-0.2-0.2-0.6-0.2-1.1v-0.2c0-0.5,0.2-0.8,0.2-1.1
			c0.2-0.2,0.5-0.5,0.8-0.5h3.1c0.8,0,1.4-0.2,1.7-0.5s0.5-0.8,0.5-1.5v-3.7v-0.5h0.5h2.2h0.5v0.5v3.7c0,1.7-0.5,3.1-1.4,3.8
			c-0.9,0.8-2.2,1.4-3.8,1.4L577.5,55.5L577.5,55.5L577.5,55.5z M578,40.9l1.1-1.1c0.3-0.3,0.8-0.3,1.1,0l1.2,1.2
			c0.3,0.3,0.3,0.8,0,1.1l-1.1,1.1c-0.3,0.3-0.8,0.3-1.1,0L578,42C577.7,41.6,577.7,41.3,578,40.9z M582.6,40.9l1.1-1.1
			c0.3-0.3,0.8-0.3,1.1,0L586,41c0.3,0.3,0.3,0.8,0,1.1l-1.1,1.1c-0.3,0.3-0.8,0.3-1.1,0l-1.4-1.2C582.4,41.6,582.4,41.3,582.6,40.9
			z"/>
		<path class="st6" d="M591.8,39.7c0-0.8,0.2-1.4,0.9-1.9c0.5-0.5,1.2-0.8,2-0.8s1.4,0.2,2,0.8c0.2,0.2,0.2,0.2,0.3,0.3
			c0.2,0.2,0.2,0.3,0.2,0.5c0.2,0.2,0.2,0.3,0.2,0.5c0.2,0.2,0.2,0.3,0.2,0.5s0,0.5-0.2,0.6c0,0.2-0.2,0.2-0.2,0.2
			c0,0.2-0.2,0.2-0.2,0.2c-0.2,0.2-0.2,0.2-0.2,0.2c-0.2,0.2-0.2,0.3-0.5,0.5c-0.5,0.5-1.2,0.8-2,0.8s-1.4-0.2-2-0.8
			c-0.2-0.2-0.5-0.5-0.6-0.9C591.8,40.5,591.8,40.3,591.8,39.7z M602.9,36.4l2.3,1.2l0.5,0.2l-10.5,18.4l-0.5-0.2l-2.2-1.2l-0.5-0.2
			l10.5-18.2H602.9z M600.8,51.7L600.8,51.7L600.8,51.7v-0.2v-0.2v-0.2V51c0-0.2,0-0.2,0.2-0.2c0-0.2,0-0.2,0-0.2v-0.2
			c0-0.2,0.2-0.2,0.2-0.2l0.2-0.2c0-0.2,0-0.2,0.2-0.2c0.2-0.2,0.2-0.2,0.2-0.2l0.2-0.2l0.2-0.2l0.2-0.2l0.2-0.2
			c0.2-0.2,0.2-0.2,0.2-0.2c0.5-0.5,1.2-0.8,2-0.8c0.2,0,0.5,0.2,0.6,0.2c0.2,0,0.2,0.2,0.3,0.2c0.2,0,0.2,0.2,0.2,0.2
			s0.2,0,0.2,0.2c0.2,0,0.2,0.2,0.2,0.2c0.2,0.2,0.3,0.2,0.5,0.5c0.5,0.5,0.9,1.2,0.9,1.9c0,0.6-0.2,1.4-0.9,1.9
			c-0.2,0.2-0.5,0.5-0.9,0.5c-0.3,0.2-0.6,0.2-1.1,0.2c-0.8,0-1.4-0.2-2-0.8C601.2,53.1,600.8,52.3,600.8,51.7z"/>
	</g>
	<g>
		<path class="st6" d="M620.6,46.9c-0.7,0-1.3-0.1-1.9-0.2c-0.6-0.1-1.2-0.3-1.8-0.6c0.1,0.9,0.2,1.9,0.3,2.8
			c0.1,0.9,0.1,1.8,0.2,2.7c0.1,0.9,0.1,1.7,0.1,2.5s0,1.6,0,2.4h-4.2c0-1.9-0.1-3.7-0.1-5.5c-0.1-1.8-0.2-3.5-0.5-5.2
			s-0.6-3.2-1-4.7c-0.5-1.5-1-2.8-1.8-3.9l3.6-2.2c0.3,0.5,0.6,0.9,0.8,1.4c0.3,0.4,0.5,0.9,0.7,1.3c0.3-0.5,0.8-0.9,1.2-1.3
			c0.5-0.4,0.9-0.7,1.5-0.9c0.5-0.3,1-0.4,1.6-0.5s1.1-0.2,1.7-0.2c0.4,0,0.8,0.1,1.2,0.1c0.4,0.1,0.8,0.2,1.2,0.3
			c0.4,0.2,0.8,0.3,1.2,0.6c0.4,0.2,0.8,0.5,1.2,0.9l-2.2,3.5c0,0-0.1-0.1-0.3-0.2c-0.2-0.1-0.4-0.2-0.7-0.4c-0.3-0.1-0.6-0.3-1-0.4
			c-0.4-0.1-0.8-0.2-1.3-0.2c-0.4,0-0.8,0.1-1.2,0.2c-0.4,0.2-0.8,0.3-1.1,0.6c-0.3,0.2-0.6,0.5-0.8,0.8s-0.3,0.5-0.2,0.8l0,0
			c0.1,0.3,0.2,0.5,0.5,0.8c0.3,0.2,0.6,0.3,0.9,0.4c0.4,0.1,0.8,0.2,1.1,0.2c0.4,0.1,0.8,0.1,1.1,0.1s0.7,0,1-0.1
			c0.4-0.1,0.8-0.1,1.1-0.2c0.4-0.1,0.8-0.2,1.1-0.4c0.4-0.2,0.8-0.3,1-0.5l1.8,3.3c-1.1,0.8-2.1,1.4-3.2,1.6
			C622.5,46.8,621.5,46.9,620.6,46.9z"/>
		<path class="st6" d="M627.1,48.1c0-0.8,0.2-1.4,0.4-2.1c0.3-0.6,0.6-1.2,1.1-1.7s0.9-0.8,1.6-1.1c0.6-0.3,1.3-0.4,2.1-0.4
			s1.4,0.2,2.1,0.4c0.6,0.3,1.2,0.6,1.7,1.1s0.8,1,1.1,1.7c0.2,0.6,0.4,1.3,0.4,2.1s-0.2,1.4-0.4,2.1c-0.3,0.6-0.6,1.1-1.1,1.6
			s-1,0.8-1.7,1.1c-0.6,0.3-1.3,0.4-2.1,0.4s-1.4-0.2-2.1-0.4c-0.6-0.3-1.1-0.6-1.6-1.1s-0.8-0.9-1.1-1.6
			C627.3,49.5,627.1,48.9,627.1,48.1z M630.2,48.1c0,0.3,0.1,0.6,0.2,0.8c0.1,0.3,0.3,0.5,0.4,0.7c0.2,0.2,0.4,0.3,0.7,0.4
			s0.5,0.2,0.8,0.2s0.6-0.1,0.8-0.2c0.3-0.1,0.5-0.3,0.7-0.4c0.2-0.2,0.3-0.4,0.5-0.7c0.1-0.3,0.2-0.5,0.2-0.8
			c0-0.2-0.1-0.6-0.2-0.8c-0.1-0.3-0.3-0.5-0.5-0.7s-0.4-0.3-0.7-0.5c-0.3-0.1-0.5-0.2-0.8-0.2s-0.6,0.1-0.8,0.2
			c-0.3,0.1-0.5,0.3-0.7,0.5s-0.3,0.4-0.4,0.7S630.2,47.9,630.2,48.1z"/>
	</g>
</g>
<g>
	<g>
		<g class="st7">
			<g>
				<path d="M247.9,34.9c-0.7,0-1.5,0-2.4-0.1c-0.9,0-1.8-0.2-2.6-0.4c-0.9-0.2-1.7-0.4-2.5-0.8c-0.8-0.3-1.5-0.7-2.1-1.2
					s-1.2-1.1-1.5-1.9c-0.4-0.7-0.6-1.6-0.7-2.6c0-0.5,0-1,0.2-1.5c0.1-0.5,0.3-0.9,0.4-1.4c0.2-0.4,0.4-0.9,0.6-1.3
					c0.2-0.4,0.5-0.9,0.7-1.3l2.9,2.5c-0.1,0.2-0.3,0.4-0.4,0.7c-0.2,0.3-0.3,0.6-0.5,0.9s-0.3,0.6-0.4,0.9
					c-0.1,0.3-0.2,0.6-0.2,0.8c0,0.3,0.1,0.6,0.3,0.9s0.5,0.5,0.9,0.6c0.4,0.2,0.9,0.3,1.4,0.5c0.6,0.1,1.1,0.3,1.8,0.3
					c0.6,0.1,1.3,0.1,2,0.2c0.7,0,1.4,0,2.1,0c0.3,0,0.7,0,1.1,0c0.4,0,0.7,0,1.1,0s0.6,0,0.9,0c0.3,0,0.4,0,0.5,0
					c-0.3-0.3-0.6-0.8-0.8-1.2c-0.3-0.5-0.4-1.1-0.4-1.7c0-0.5,0-1,0.2-1.5s0.3-1,0.6-1.5c0.2-0.5,0.5-0.9,0.9-1.3
					c0.3-0.4,0.7-0.8,1.1-1.1c0.4-0.3,0.9-0.6,1.3-0.7c0.5-0.2,1-0.3,1.5-0.2c0.7,0,1.4,0.2,2.1,0.6c0.6,0.3,1.2,0.8,1.6,1.3
					s0.8,1.2,1.1,1.8c0.3,0.7,0.4,1.4,0.4,2.1c0,0.6-0.1,1.2-0.3,1.7s-0.4,1.1-0.7,1.6c0.4,0,0.8,0.1,1.2,0.1c0.4,0,0.7,0,1.1,0h0.4
					v4h-0.3c-0.5,0-1.1,0-1.6,0c-0.6,0-1.1,0-1.6-0.1c-0.6-0.1-1.1-0.2-1.6-0.3c-0.6-0.1-1.1-0.3-1.6-0.6c-0.2,0.1-0.5,0.2-0.8,0.3
					s-0.8,0.2-1.2,0.3s-0.9,0.1-1.5,0.2c-0.5,0-1,0.1-1.5,0.1s-1,0.1-1.5,0.1C248.8,34.9,248.3,34.9,247.9,34.9z M256.3,19.6
					l-2.8-2.8l2.8-2.8l2.8,2.8L256.3,19.6z M257.6,27.8c0-0.3-0.1-0.5-0.2-0.8s-0.3-0.5-0.5-0.6c-0.2-0.2-0.4-0.3-0.6-0.5
					c-0.2-0.1-0.4-0.2-0.6-0.3c-0.2,0-0.4,0.1-0.6,0.2c-0.3,0.1-0.5,0.3-0.7,0.5s-0.4,0.4-0.6,0.7c-0.2,0.3-0.2,0.6-0.2,1
					c0,0.1,0.1,0.3,0.2,0.5c0.1,0.2,0.3,0.4,0.5,0.7c0.2,0.2,0.4,0.4,0.7,0.6s0.6,0.3,0.8,0.4c0.2-0.1,0.4-0.3,0.6-0.5
					c0.2-0.2,0.4-0.4,0.6-0.6s0.3-0.5,0.4-0.7C257.5,28.2,257.6,28,257.6,27.8z"/>
				<path d="M284,30.9v4h-22v-4C262,30.9,284,30.9,284,30.9z"/>
				<path d="M294.7,30.9v4h-0.3c-0.4,0-0.8,0-1.2-0.1c-0.4-0.1-0.8-0.2-1.1-0.3c-0.3-0.1-0.6-0.3-0.9-0.4c-0.3-0.2-0.6-0.3-0.8-0.6
					c-0.4,0.3-0.9,0.6-1.4,0.7c-0.5,0.2-1,0.3-1.6,0.4c-0.6,0.1-1.2,0.2-1.8,0.2c-0.6,0-1.2,0-1.8,0h-0.5v-4h0.5c0.6,0,1.2,0,1.6,0
					c0.5,0,0.9-0.1,1.2-0.2c0.3-0.1,0.6-0.2,0.9-0.3c0.3-0.1,0.4-0.3,0.6-0.5c0.2-0.3,0.3-0.6,0.3-0.9s0-0.7,0-1s-0.1-0.7-0.2-1
					s-0.2-0.7-0.3-1l3.7-1c0.1,0.4,0.2,0.7,0.3,1s0.1,0.6,0.2,0.9c0,0.3,0.1,0.6,0.1,0.9s0.1,0.6,0.1,1c0,0.2,0.1,0.5,0.1,0.7
					c0,0.3,0.1,0.5,0.3,0.7c0.1,0.2,0.3,0.4,0.5,0.6s0.5,0.2,0.9,0.2C294.3,30.9,294.7,30.9,294.7,30.9z M288.4,38.6L286,41
					l-2.4-2.4l2.4-2.4L288.4,38.6l2.4-2.4l2.4,2.4l-2.4,2.4L288.4,38.6z"/>
				<path d="M294.2,30.9h0.9c0.2,0,0.4,0,0.6,0s0.4,0,0.6,0s0.3,0,0.4-0.1c-0.2-0.2-0.3-0.3-0.4-0.6s-0.3-0.4-0.4-0.6
					s-0.2-0.5-0.3-0.8c-0.1-0.3-0.1-0.6-0.1-0.9c0-0.5,0-1,0.2-1.5c0.1-0.5,0.3-1,0.6-1.5c0.2-0.5,0.5-0.9,0.9-1.3
					c0.3-0.4,0.7-0.8,1.1-1.1c0.4-0.3,0.9-0.6,1.3-0.7c0.5-0.2,1-0.3,1.5-0.2c0.7,0,1.4,0.2,2.1,0.6s1.2,0.8,1.6,1.3
					c0.5,0.6,0.8,1.2,1.1,1.8c0.3,0.7,0.4,1.4,0.4,2.1c0,0.6-0.1,1.2-0.3,1.7s-0.4,1.1-0.7,1.6c0.2,0,0.5,0.1,0.8,0.1s0.7,0,1.2,0
					h0.3v4h-0.5c-0.6,0-1.1,0-1.5,0c-0.5,0-1-0.1-1.5-0.2c-0.5-0.1-0.9-0.2-1.4-0.3s-1-0.3-1.5-0.5c-0.3,0.2-0.7,0.3-1.2,0.5
					c-0.5,0.1-1,0.2-1.5,0.3c-0.6,0.1-1.1,0.1-1.8,0.2c-0.6,0-1.2,0-1.8,0h-0.5L294.2,30.9L294.2,30.9z M300.7,19.9l-2.8-2.8
					l2.8-2.8l2.8,2.8L300.7,19.9z M302.7,27.8c0-0.3-0.1-0.5-0.2-0.8s-0.3-0.5-0.5-0.6c-0.2-0.2-0.4-0.3-0.6-0.5
					c-0.2-0.1-0.4-0.2-0.6-0.3c-0.2,0-0.4,0.1-0.6,0.2c-0.3,0.1-0.5,0.3-0.7,0.5s-0.4,0.4-0.6,0.7c-0.2,0.3-0.2,0.6-0.2,1
					c0,0.1,0.1,0.3,0.2,0.5s0.3,0.4,0.5,0.7c0.2,0.2,0.4,0.4,0.7,0.6c0.3,0.2,0.6,0.3,0.8,0.4c0.2-0.1,0.4-0.3,0.6-0.5
					s0.4-0.4,0.6-0.6s0.3-0.5,0.4-0.7C302.7,28.2,302.7,28,302.7,27.8z"/>
				<path d="M306.8,30.9h2.6c0.6,0,1.2,0,1.9-0.1c0.7-0.1,1.4-0.2,2.1-0.3c0.7-0.1,1.4-0.3,2.1-0.5s1.4-0.4,2.1-0.6s1.3-0.5,2-0.7
					s1.2-0.5,1.7-0.8c-0.5-0.1-1.1-0.3-1.8-0.5s-1.3-0.4-1.9-0.7c-0.6-0.3-1.3-0.4-1.9-0.6s-1.2-0.2-1.7-0.2c-0.3,0-0.6,0.1-0.9,0.2
					s-0.6,0.3-0.8,0.5c-0.3,0.2-0.5,0.4-0.7,0.6s-0.4,0.4-0.5,0.6s-0.3,0.3-0.3,0.5l-0.1,0.2l-3-1.7c0.3-0.6,0.7-1.2,1.2-1.8
					c0.5-0.6,1-1.1,1.5-1.5c0.6-0.5,1.2-0.8,1.8-1.1c0.6-0.3,1.2-0.4,1.8-0.4c0.5,0,0.9,0,1.4,0.2c0.5,0.1,0.9,0.2,1.4,0.4
					c0.5,0.2,0.9,0.3,1.4,0.6c0.5,0.2,0.9,0.4,1.4,0.6s1,0.5,1.6,0.7s1.2,0.4,1.8,0.6s1.3,0.3,1.9,0.4s1.3,0.2,1.9,0.2l-0.6,3.7
					c-0.2,0.1-0.4,0.2-0.6,0.3c-0.3,0.1-0.5,0.2-0.6,0.3l-0.3,0.2c0.2,0.2,0.4,0.4,0.7,0.6c0.3,0.1,0.6,0.2,0.9,0.3
					c0.3,0,0.6,0.1,0.9,0.1s0.5,0,0.7,0h0.4v4h-0.4c-0.8,0-1.6-0.1-2.3-0.2c-0.7-0.1-1.4-0.3-1.9-0.6c-0.6-0.3-1.1-0.6-1.5-1
					s-0.8-0.8-1.1-1.3c-0.8,0.4-1.7,0.8-2.6,1.2s-1.8,0.7-2.8,1s-2,0.6-3,0.7c-1,0.2-2.1,0.3-3.2,0.3h-2.6L306.8,30.9L306.8,30.9z
					 M313.9,20.6l-2.8-2.8l2.8-2.8l2.8,2.8L313.9,20.6z"/>
				<path d="M327.8,30.9h3c0.3,0,0.8,0,1.2,0c0.4,0,0.9-0.1,1.2-0.2c0.4-0.1,0.7-0.3,0.9-0.5c0.3-0.2,0.4-0.6,0.4-0.9
					c0-0.2,0-0.5-0.2-0.9c-0.1-0.4-0.3-0.9-0.5-1.3c-0.2-0.5-0.4-1-0.7-1.5c-0.3-0.6-0.5-1.1-0.7-1.5l3.6-1.8
					c0.2,0.5,0.5,1.1,0.7,1.7s0.4,1.2,0.6,1.8s0.3,1.2,0.4,1.8c0.1,0.6,0.2,1.2,0.2,1.8c0,1-0.2,1.9-0.6,2.6s-0.9,1.3-1.5,1.8
					s-1.4,0.8-2.3,1s-1.8,0.3-2.8,0.3h-3L327.8,30.9L327.8,30.9z M333.6,18l-2.4,2.4l-2.4-2.4l2.4-2.4L333.6,18l2.4-2.4l2.4,2.4
					l-2.4,2.4L333.6,18z"/>
				<path d="M353.5,34.9c-0.7,0-1.4-0.1-2.1-0.3s-1.3-0.6-1.9-1s-1-1-1.4-1.6c-0.3-0.6-0.6-1.4-0.6-2.1c0-1.7,0.7-3.4,2.2-5.2
					c0.1-0.1,0.2-0.3,0.3-0.3c0.1-0.1,0.2-0.2,0.2-0.3c0-0.1,0.1-0.1,0.2-0.2l0.2-0.2l-0.8-0.6l2.5-3.1c0.4,0.3,0.9,0.8,1.5,1.3
					c0.6,0.6,1.3,1.2,2.1,2.1c2.2,2.5,3.2,4.7,3.2,6.6c0,0.9-0.2,1.6-0.5,2.2c-0.3,0.6-0.8,1.2-1.3,1.6c-0.6,0.4-1.2,0.8-1.9,1
					C354.9,34.8,354.2,34.9,353.5,34.9z M355.9,29.8c0-0.3-0.1-0.6-0.3-0.9c-0.2-0.3-0.4-0.7-0.6-1s-0.6-0.7-0.9-1.1s-0.7-0.7-1-1.1
					c-0.2,0.3-0.5,0.6-0.7,0.9c-0.3,0.3-0.5,0.6-0.7,1s-0.4,0.7-0.5,1.1s-0.2,0.7-0.2,1.1c0,0.2,0.1,0.4,0.3,0.5
					c0.2,0.1,0.4,0.3,0.6,0.4c0.3,0.1,0.5,0.2,0.8,0.2s0.5,0.1,0.7,0.1c0.3,0,0.5,0,0.8,0s0.6-0.1,0.8-0.2c0.3-0.1,0.4-0.2,0.6-0.4
					C355.8,30.2,355.9,30.1,355.9,29.8z"/>
				<path d="M367.5,27.4c0.2,0.6,0.4,1.2,0.6,1.9c0.2,0.6,0.3,1.3,0.4,1.9s0.2,1.2,0.2,1.8c0,0.8-0.1,1.5-0.3,2.3
					c-0.2,0.8-0.5,1.5-0.9,2.2s-0.9,1.4-1.4,2c-0.6,0.6-1.1,1.2-1.8,1.8c-0.6,0.6-1.4,1.1-2.1,1.6s-1.5,0.9-2.3,1.3l-2.3-3.2
					c0.6-0.3,1.2-0.6,1.8-1c0.6-0.4,1.2-0.8,1.8-1.2c0.6-0.4,1.1-0.9,1.6-1.4s0.9-1,1.3-1.5s0.6-1,0.9-1.5c0.2-0.5,0.3-1,0.3-1.5
					c0-0.3,0-0.7-0.1-1.2s-0.2-0.9-0.4-1.3s-0.3-1-0.6-1.5c-0.2-0.5-0.5-1.1-0.7-1.7l3.6-1.7C367.1,26.2,367.3,26.8,367.5,27.4z"/>
				<path d="M371.1,32.8c0-0.7,0.1-1.5,0.1-2.2s0-1.4,0-2.1s0-1.3,0-1.9c0-1.2-0.1-2.2-0.1-3.1s-0.1-1.7-0.1-2.4s-0.1-1.3-0.1-1.8
					s-0.1-1-0.1-1.5c0-0.4-0.1-0.9-0.2-1.2c0-0.4-0.1-0.8-0.2-1.2l3.9-1.3c0.2,1.1,0.3,2.3,0.4,3.4c0.1,1.2,0.2,2.2,0.3,3.3
					c0,1,0.1,2,0.1,2.9s0,1.7,0,2.3c0,0.6,0,1.2,0,1.9c0,0.7,0,1.4,0,2.1s0,1.5,0,2.2s0,1.5-0.1,2.2l-4,0.6
					C371,34.3,371,33.6,371.1,32.8z"/>
				<path d="M376.2,39.9c1.2-0.2,2.3-0.5,3.2-0.9c1-0.3,1.8-0.8,2.6-1.2c0.7-0.4,1.3-0.9,1.8-1.4s0.8-1,1-1.5c-0.3,0-0.7,0-1.2,0
					c-0.4,0-0.7,0-1,0c-0.8-0.1-1.6-0.2-2.3-0.5c-0.7-0.3-1.3-0.6-1.8-1s-0.9-0.9-1.2-1.6c-0.3-0.6-0.4-1.3-0.4-2.1
					c0-0.5,0-1,0.2-1.6c0.1-0.6,0.3-1.1,0.5-1.6s0.5-1,0.8-1.5s0.6-0.9,1-1.2c0.4-0.3,0.8-0.6,1.3-0.8c0.5-0.2,1-0.3,1.5-0.3
					c0.6,0,1.2,0.1,1.8,0.3c0.6,0.2,1,0.6,1.5,0.9c0.4,0.4,0.9,0.9,1.2,1.4c0.3,0.5,0.6,1.1,0.9,1.7s0.5,1.2,0.6,1.9
					c0.2,0.6,0.3,1.3,0.3,1.9h0.6v4h-0.8c-0.3,1.2-0.9,2.4-1.6,3.3c-0.7,1-1.6,1.9-2.6,2.6s-2.1,1.4-3.3,1.8s-2.5,0.8-3.8,1
					L376.2,39.9z M382.4,26.8c-0.2,0-0.4,0-0.6,0.2s-0.4,0.4-0.6,0.6s-0.3,0.6-0.5,0.9c-0.1,0.3-0.2,0.6-0.2,0.9s0.1,0.5,0.3,0.7
					c0.2,0.2,0.4,0.3,0.7,0.5c0.3,0.1,0.6,0.2,0.9,0.3s0.7,0.1,1,0.1s0.7,0,1,0h0.8c-0.1-0.5-0.3-1-0.4-1.5
					c-0.2-0.5-0.4-0.9-0.6-1.3s-0.5-0.7-0.8-0.9C383.1,26.9,382.7,26.8,382.4,26.8z"/>
				<path d="M417.4,30.9v4h-28.6v-4C388.8,30.9,417.4,30.9,417.4,30.9z"/>
				<path d="M426.2,30.9v4h-0.3c-0.8,0-1.5-0.1-2.1-0.3s-1.1-0.6-1.5-0.9c-0.6,0.4-1.3,0.8-2.1,1s-1.8,0.3-2.9,0.3h-0.5v-4h0.5
					c1.2,0,2-0.2,2.6-0.6s0.9-0.9,0.9-1.7c0-0.3,0-0.6-0.1-1.1s-0.2-1.1-0.4-1.8l3.5-0.9c0.1,0.5,0.3,0.9,0.3,1.2
					c0.1,0.4,0.2,0.7,0.2,1s0.1,0.6,0.1,0.8c0,0.3,0,0.5,0,0.7s0,0.5,0.1,0.8c0,0.3,0.1,0.5,0.2,0.7s0.2,0.4,0.4,0.6
					c0.2,0.1,0.4,0.2,0.7,0.2L426.2,30.9L426.2,30.9z M420.8,23l-2.8-2.8l2.8-2.8l2.8,2.8L420.8,23z"/>
				<path d="M425.9,30.9c0.4,0,0.9-0.1,1.2-0.2c0.4-0.1,0.8-0.4,1.1-0.9c0.3-0.4,0.7-1,1-1.8s0.6-1.8,0.9-3l3.3,0.5c0,0,0,0.1,0,0.2
					c0,0.2-0.1,0.5-0.2,0.9s-0.1,0.8-0.2,1.3c0,0.5-0.1,0.9-0.1,1.4c0,0.4,0,0.8,0.2,1.1c0.1,0.3,0.3,0.5,0.5,0.6
					c0.3,0.1,0.5,0,0.8-0.2s0.5-0.4,0.7-0.7c0.2-0.3,0.4-0.7,0.6-1.1s0.3-0.9,0.5-1.3s0.3-0.9,0.4-1.3s0.2-0.8,0.3-1.2l3.3,0.5
					c0,0.2,0,0.5-0.1,0.9c0,0.3-0.1,0.7-0.1,1.1s0,0.8,0,1.2c0,0.4,0,0.8,0.1,1.1c0.1,0.3,0.2,0.6,0.4,0.8c0.2,0.2,0.4,0.3,0.7,0.3
					c0.3,0,0.5-0.1,0.7-0.3s0.4-0.4,0.5-0.7c0.1-0.3,0.3-0.6,0.3-1c0.1-0.4,0.1-0.8,0.2-1.2c0-0.4,0-0.8,0-1.2c0-0.4,0-0.7,0-1
					l3.4-0.5l0.4,3.5c0,0.4,0.2,0.7,0.3,1s0.4,0.5,0.6,0.7s0.5,0.3,0.7,0.4c0.3,0.1,0.5,0.1,0.7,0.1h0.4v4H449
					c-0.8,0-1.6-0.1-2.3-0.4c-0.7-0.3-1.3-0.8-1.9-1.5c0,0.1-0.1,0.1-0.2,0.2c0,0-0.1,0.1-0.1,0.2l0,0c-0.5,0.5-1,0.9-1.6,1.2
					S441.7,35,441,35c-0.8,0-1.5-0.2-2.1-0.5s-1.2-0.8-1.6-1.3c-0.5,0.6-1.1,1-1.7,1.3s-1.3,0.5-2.1,0.5c-0.7,0-1.4-0.2-2-0.5
					s-1.1-0.8-1.5-1.3c-0.5,0.6-1,1.1-1.7,1.3c-0.7,0.3-1.5,0.4-2.5,0.4h-0.3v-4.1L425.9,30.9L425.9,30.9z M433.5,25.6L433.5,25.6
					C433.5,25.5,433.5,25.5,433.5,25.6z M438.5,20.3l-2.4,2.4l-2.4-2.4l2.4-2.4L438.5,20.3l2.4-2.4l2.4,2.4l-2.4,2.4L438.5,20.3z
					 M440.8,16.6l-2.2,2.2l-2.3-2.3l2.2-2.2L440.8,16.6z"/>
				<path d="M449,30.9h2.6c1.4,0,2.6-0.1,3.8-0.3c1.2-0.2,2.2-0.4,3.2-0.6c1-0.3,1.9-0.6,2.8-1s1.8-0.7,2.6-1.2
					c-0.6-0.2-1.2-0.3-1.7-0.6c-0.6-0.2-1.2-0.5-1.7-0.7c-0.6-0.2-1.2-0.4-1.7-0.6c-0.6-0.2-1.2-0.2-1.7-0.2c-0.4,0-0.8,0.1-1.2,0.3
					c-0.4,0.2-0.7,0.4-1,0.7c-0.3,0.3-0.6,0.5-0.8,0.8s-0.3,0.4-0.4,0.5l-2.9-1.9c0.3-0.6,0.7-1.1,1.1-1.7s0.9-1,1.5-1.4
					c0.5-0.4,1.1-0.8,1.7-1s1.2-0.4,1.9-0.4c0.5,0,1,0,1.5,0.2c0.5,0.1,1,0.3,1.5,0.4c0.5,0.2,1,0.3,1.5,0.6
					c0.5,0.2,0.9,0.4,1.4,0.6c0.4,0.2,0.9,0.4,1.3,0.6c0.5,0.2,0.9,0.4,1.4,0.6s1,0.3,1.5,0.4s1.1,0.2,1.6,0.2l-0.3,3.8l-1.8,0.9
					c-0.7,0.3-1.5,0.7-2.2,1.1c-0.7,0.3-1.5,0.7-2.2,1.1c-0.7,0.3-1.5,0.7-2.3,1s-1.6,0.6-2.5,0.8s-1.8,0.4-2.8,0.6
					c-1,0.1-2,0.2-3.1,0.2H449V30.9L449,30.9z M459.4,41.8l-2.8-2.8l2.8-2.8l2.8,2.8L459.4,41.8z"/>
			</g>
		</g>
		<g>
			<g>
				<path class="st1" d="M247.1,33.6c-0.7,0-1.5,0-2.4-0.1c-0.9,0-1.8-0.2-2.6-0.4c-0.9-0.2-1.7-0.4-2.5-0.8
					c-0.8-0.3-1.5-0.7-2.1-1.2s-1.2-1.1-1.5-1.9c-0.4-0.7-0.6-1.6-0.7-2.6c0-0.5,0-1,0.2-1.5c0.1-0.5,0.3-0.9,0.4-1.4
					c0.2-0.4,0.4-0.9,0.6-1.3c0.2-0.4,0.5-0.9,0.7-1.3l2.9,2.5c-0.1,0.2-0.3,0.4-0.4,0.7c-0.2,0.3-0.3,0.6-0.5,0.9s-0.3,0.6-0.4,0.9
					c-0.1,0.3-0.2,0.6-0.2,0.8c0,0.3,0.1,0.6,0.3,0.9s0.5,0.5,0.9,0.6c0.4,0.2,0.9,0.3,1.4,0.5c0.6,0.1,1.1,0.3,1.8,0.3
					c0.6,0.1,1.3,0.1,2,0.2c0.7,0,1.4,0,2.1,0c0.3,0,0.7,0,1.1,0c0.4,0,0.7,0,1.1,0s0.6,0,0.9,0c0.3,0,0.4,0,0.5,0
					c-0.3-0.3-0.6-0.8-0.8-1.2c-0.3-0.5-0.4-1.1-0.4-1.7c0-0.5,0-1,0.2-1.5s0.3-1,0.6-1.5c0.2-0.5,0.5-0.9,0.9-1.3
					c0.3-0.4,0.7-0.8,1.1-1.1c0.4-0.3,0.9-0.6,1.3-0.7c0.5-0.2,1-0.3,1.5-0.2c0.7,0,1.4,0.2,2.1,0.6s1.2,0.8,1.6,1.3
					s0.8,1.2,1.1,1.8c0.3,0.7,0.4,1.4,0.4,2.1c0,0.6-0.1,1.2-0.3,1.7s-0.4,1.1-0.7,1.6c0.4,0,0.8,0.1,1.2,0.1c0.4,0,0.7,0,1.1,0h0.4
					v4h-0.3c-0.5,0-1.1,0-1.6,0c-0.6,0-1.1,0-1.6-0.1c-0.6-0.1-1.1-0.2-1.6-0.3c-0.6-0.1-1.1-0.3-1.6-0.6c-0.2,0.1-0.5,0.2-0.8,0.3
					s-0.8,0.2-1.2,0.3s-0.9,0.1-1.5,0.2c-0.5,0-1,0.1-1.5,0.1s-1,0.1-1.5,0.1C247.9,33.6,247.5,33.6,247.1,33.6z M255.4,18.3
					l-2.8-2.8l2.8-2.8l2.8,2.8L255.4,18.3z M256.7,26.5c0-0.3-0.1-0.5-0.2-0.8s-0.3-0.5-0.5-0.6c-0.2-0.2-0.4-0.3-0.6-0.5
					c-0.2-0.1-0.4-0.2-0.6-0.3c-0.2,0-0.4,0.1-0.6,0.2c-0.3,0.1-0.5,0.3-0.7,0.5s-0.4,0.4-0.6,0.7c-0.2,0.3-0.2,0.6-0.2,1
					c0,0.1,0.1,0.3,0.2,0.5c0.1,0.2,0.3,0.4,0.5,0.7c0.2,0.2,0.4,0.4,0.7,0.6s0.6,0.3,0.8,0.4c0.2-0.1,0.4-0.3,0.6-0.5
					c0.2-0.2,0.4-0.4,0.6-0.6c0.2-0.2,0.3-0.5,0.4-0.7C256.7,26.9,256.7,26.7,256.7,26.5z"/>
				<path class="st1" d="M283.2,29.7v4h-22v-4H283.2z"/>
				<path class="st1" d="M293.9,29.7v4h-0.3c-0.4,0-0.8,0-1.2-0.1c-0.4-0.1-0.8-0.2-1.1-0.3c-0.3-0.1-0.6-0.3-0.9-0.4
					c-0.3-0.2-0.6-0.3-0.8-0.6c-0.4,0.3-0.9,0.6-1.4,0.7c-0.5,0.2-1,0.3-1.6,0.4c-0.6,0.1-1.2,0.2-1.8,0.2c-0.6,0-1.2,0-1.8,0h-0.5
					v-4h0.5c0.6,0,1.2,0,1.6,0s0.9-0.1,1.2-0.2c0.3-0.1,0.6-0.2,0.9-0.3c0.3-0.1,0.4-0.3,0.6-0.5c0.2-0.3,0.3-0.6,0.3-0.9s0-0.7,0-1
					s-0.1-0.7-0.2-1s-0.2-0.7-0.3-1l3.7-1c0.1,0.4,0.2,0.7,0.3,1s0.1,0.6,0.2,0.9c0,0.3,0.1,0.6,0.1,0.9s0.1,0.6,0.1,1
					c0,0.2,0.1,0.5,0.1,0.7c0,0.3,0.1,0.5,0.3,0.7c0.1,0.2,0.3,0.4,0.5,0.6s0.5,0.2,0.9,0.2C293.4,29.7,293.9,29.7,293.9,29.7z
					 M287.6,37.4l-2.4,2.4l-2.4-2.4l2.4-2.4L287.6,37.4L290,35l2.4,2.4l-2.4,2.4L287.6,37.4z"/>
				<path class="st1" d="M293.4,29.7h0.9c0.2,0,0.4,0,0.6,0s0.4,0,0.6,0s0.3,0,0.4-0.1c-0.2-0.2-0.3-0.3-0.4-0.6s-0.3-0.4-0.4-0.6
					s-0.2-0.5-0.3-0.8c-0.1-0.3-0.1-0.6-0.1-0.9c0-0.5,0-1,0.2-1.5c0.1-0.5,0.3-1,0.6-1.5c0.2-0.5,0.5-0.9,0.9-1.3
					c0.3-0.4,0.7-0.8,1.1-1.1c0.4-0.3,0.9-0.6,1.3-0.7c0.5-0.2,1-0.3,1.5-0.2c0.7,0,1.4,0.2,2.1,0.6c0.6,0.3,1.2,0.8,1.6,1.3
					c0.5,0.6,0.8,1.2,1.1,1.8c0.3,0.7,0.4,1.4,0.4,2.1c0,0.6-0.1,1.2-0.3,1.7c-0.2,0.6-0.4,1.1-0.7,1.6c0.2,0,0.5,0.1,0.8,0.1
					s0.7,0,1.2,0h0.3v4H306c-0.6,0-1.1,0-1.5,0c-0.5,0-1-0.1-1.5-0.2c-0.5-0.1-0.9-0.2-1.4-0.3s-1-0.3-1.5-0.5
					c-0.3,0.2-0.7,0.3-1.2,0.5c-0.5,0.1-1,0.2-1.5,0.3c-0.6,0.1-1.1,0.1-1.8,0.2c-0.6,0-1.2,0-1.8,0h-0.5L293.4,29.7L293.4,29.7z
					 M299.8,18.6l-2.8-2.8l2.8-2.8l2.8,2.8L299.8,18.6z M301.9,26.5c0-0.3-0.1-0.5-0.2-0.8s-0.3-0.5-0.5-0.6
					c-0.2-0.2-0.4-0.3-0.6-0.5c-0.2-0.1-0.4-0.2-0.6-0.3c-0.2,0-0.4,0.1-0.6,0.2c-0.3,0.1-0.5,0.3-0.7,0.5s-0.4,0.4-0.6,0.7
					c-0.2,0.3-0.2,0.6-0.2,1c0,0.1,0.1,0.3,0.2,0.5s0.3,0.4,0.5,0.7c0.2,0.2,0.4,0.4,0.7,0.6s0.6,0.3,0.8,0.4
					c0.2-0.1,0.4-0.3,0.6-0.5s0.4-0.4,0.6-0.6s0.3-0.5,0.4-0.7C301.8,26.9,301.9,26.7,301.9,26.5z"/>
				<path class="st1" d="M306,29.7h2.6c0.6,0,1.2,0,1.9-0.1c0.7-0.1,1.4-0.2,2.1-0.3c0.7-0.1,1.4-0.3,2.1-0.5s1.4-0.4,2.1-0.6
					s1.3-0.5,2-0.7s1.2-0.5,1.7-0.8c-0.5-0.1-1.1-0.3-1.8-0.5s-1.3-0.4-1.9-0.7s-1.3-0.4-1.9-0.6s-1.2-0.2-1.7-0.2
					c-0.3,0-0.6,0.1-0.9,0.2s-0.6,0.3-0.8,0.5c-0.3,0.2-0.5,0.4-0.7,0.6s-0.4,0.4-0.5,0.6s-0.3,0.3-0.3,0.5l-0.1,0.2l-3-1.7
					c0.3-0.6,0.7-1.2,1.2-1.8c0.5-0.6,1-1.1,1.5-1.5c0.6-0.5,1.2-0.8,1.8-1.1c0.6-0.3,1.2-0.4,1.8-0.4c0.5,0,0.9,0,1.4,0.2
					c0.5,0.1,0.9,0.2,1.4,0.4c0.5,0.2,0.9,0.3,1.4,0.6c0.5,0.2,0.9,0.4,1.4,0.6s1,0.5,1.6,0.7s1.2,0.4,1.8,0.6
					c0.6,0.2,1.3,0.3,1.9,0.4s1.3,0.2,1.9,0.2l-0.6,3.7c-0.2,0.1-0.4,0.2-0.6,0.3c-0.3,0.1-0.5,0.2-0.6,0.3l-0.3,0.2
					c0.2,0.2,0.4,0.4,0.7,0.6c0.3,0.1,0.6,0.2,0.9,0.3c0.3,0,0.6,0.1,0.9,0.1s0.5,0,0.7,0h0.4v4h-0.4c-0.8,0-1.6-0.1-2.3-0.2
					c-0.7-0.1-1.4-0.3-1.9-0.6c-0.6-0.3-1.1-0.6-1.5-1s-0.8-0.8-1.1-1.3c-0.8,0.4-1.7,0.8-2.6,1.2s-1.8,0.7-2.8,1s-2,0.6-3,0.7
					c-1,0.2-2.1,0.3-3.2,0.3h-2.6L306,29.7L306,29.7z M313.1,19.4l-2.8-2.8l2.8-2.8l2.8,2.8L313.1,19.4z"/>
				<path class="st1" d="M326.9,29.7h3c0.3,0,0.8,0,1.2,0s0.9-0.1,1.2-0.2c0.4-0.1,0.7-0.3,0.9-0.5c0.3-0.2,0.4-0.6,0.4-0.9
					c0-0.2,0-0.5-0.2-0.9c-0.1-0.4-0.3-0.9-0.5-1.3c-0.2-0.5-0.4-1-0.7-1.5s-0.5-1.1-0.7-1.5l3.6-1.8c0.2,0.5,0.5,1.1,0.7,1.7
					s0.4,1.2,0.6,1.8c0.2,0.6,0.3,1.2,0.4,1.8c0.1,0.6,0.2,1.2,0.2,1.8c0,1-0.2,1.9-0.6,2.6s-0.9,1.3-1.5,1.8s-1.4,0.8-2.3,1
					s-1.8,0.3-2.8,0.3h-3L326.9,29.7L326.9,29.7z M332.8,16.7l-2.4,2.4l-2.4-2.4l2.4-2.4L332.8,16.7l2.4-2.4l2.4,2.4l-2.4,2.4
					L332.8,16.7z"/>
				<path class="st1" d="M352.6,33.6c-0.7,0-1.4-0.1-2.1-0.3s-1.3-0.6-1.9-1c-0.6-0.4-1-1-1.4-1.6c-0.3-0.6-0.6-1.4-0.6-2.1
					c0-1.7,0.7-3.4,2.2-5.2c0.1-0.1,0.2-0.3,0.3-0.3c0.1-0.1,0.2-0.2,0.2-0.3c0-0.1,0.1-0.1,0.2-0.2l0.2-0.2l-0.8-0.6l2.5-3.1
					c0.4,0.3,0.9,0.8,1.5,1.3c0.6,0.6,1.3,1.2,2.1,2.1c2.2,2.5,3.2,4.7,3.2,6.6c0,0.9-0.2,1.6-0.5,2.2s-0.8,1.2-1.3,1.6
					c-0.6,0.4-1.2,0.8-1.9,1C354,33.6,353.4,33.6,352.6,33.6z M355.1,28.6c0-0.3-0.1-0.6-0.3-0.9c-0.2-0.3-0.4-0.7-0.6-1
					s-0.6-0.7-0.9-1.1s-0.7-0.7-1-1.1c-0.2,0.3-0.5,0.6-0.7,0.9c-0.3,0.3-0.5,0.6-0.7,1c-0.2,0.3-0.4,0.7-0.5,1.1s-0.2,0.7-0.2,1.1
					c0,0.2,0.1,0.4,0.3,0.5c0.2,0.1,0.4,0.3,0.6,0.4c0.3,0.1,0.5,0.2,0.8,0.2s0.5,0.1,0.7,0.1c0.3,0,0.5,0,0.8,0s0.6-0.1,0.8-0.2
					c0.3-0.1,0.4-0.2,0.6-0.4C355,28.9,355.1,28.8,355.1,28.6z"/>
				<path class="st1" d="M366.7,26.1c0.2,0.6,0.4,1.2,0.6,1.9c0.2,0.6,0.3,1.3,0.4,1.9s0.2,1.2,0.2,1.8c0,0.8-0.1,1.5-0.3,2.3
					c-0.2,0.8-0.5,1.5-0.9,2.2s-0.9,1.4-1.4,2c-0.6,0.6-1.1,1.2-1.8,1.8c-0.6,0.6-1.4,1.1-2.1,1.6s-1.5,0.9-2.3,1.3l-2.3-3.2
					c0.6-0.3,1.2-0.6,1.8-1c0.6-0.4,1.2-0.8,1.8-1.2c0.6-0.4,1.1-0.9,1.6-1.4s0.9-1,1.3-1.5s0.6-1,0.9-1.5s0.3-1,0.3-1.5
					c0-0.3,0-0.7-0.1-1.2s-0.2-0.9-0.4-1.3s-0.3-1-0.6-1.5c-0.2-0.5-0.5-1.1-0.7-1.7l3.6-1.7C366.3,25,366.4,25.5,366.7,26.1z"/>
				<path class="st1" d="M370.2,31.5c0-0.7,0.1-1.5,0.1-2.2s0-1.4,0-2.1s0-1.3,0-1.9c0-1.2-0.1-2.2-0.1-3.1s-0.1-1.7-0.1-2.4
					c0-0.7-0.1-1.3-0.1-1.8s-0.1-1-0.1-1.5c0-0.4-0.1-0.9-0.2-1.2c0-0.4-0.1-0.8-0.2-1.2l3.9-1.3c0.2,1.1,0.3,2.3,0.4,3.4
					c0.1,1.2,0.2,2.2,0.3,3.3c0,1,0.1,2,0.1,2.9s0,1.7,0,2.3c0,0.6,0,1.2,0,1.9c0,0.7,0,1.4,0,2.1s0,1.5,0,2.2s0,1.5-0.1,2.2
					l-3.9,0.6C370.1,33,370.2,32.3,370.2,31.5z"/>
				<path class="st1" d="M375.4,38.6c1.2-0.2,2.3-0.5,3.2-0.9c1-0.3,1.8-0.8,2.6-1.2c0.7-0.4,1.3-0.9,1.8-1.4s0.8-1,1-1.5
					c-0.3,0-0.7,0-1.2,0c-0.4,0-0.7,0-1,0c-0.8-0.1-1.6-0.2-2.3-0.5c-0.7-0.3-1.3-0.6-1.8-1c-0.5-0.4-0.9-0.9-1.2-1.6
					c-0.3-0.6-0.4-1.3-0.4-2.1c0-0.5,0-1,0.2-1.6c0.1-0.6,0.3-1.1,0.5-1.6s0.5-1,0.8-1.5s0.6-0.9,1-1.2c0.4-0.3,0.8-0.6,1.3-0.8
					c0.5-0.2,1-0.3,1.5-0.3c0.6,0,1.2,0.1,1.8,0.3c0.6,0.2,1,0.6,1.5,0.9c0.4,0.4,0.9,0.9,1.2,1.4c0.3,0.5,0.6,1.1,0.9,1.7
					s0.5,1.2,0.6,1.9c0.2,0.6,0.3,1.3,0.3,1.9h0.6v4h-0.8c-0.3,1.2-0.9,2.4-1.6,3.3c-0.7,1-1.6,1.9-2.6,2.6c-1,0.7-2.1,1.4-3.3,1.8
					c-1.2,0.5-2.5,0.8-3.8,1L375.4,38.6z M381.5,25.5c-0.2,0-0.4,0-0.6,0.2s-0.4,0.4-0.6,0.6s-0.3,0.6-0.5,0.9
					c-0.1,0.3-0.2,0.6-0.2,0.9s0.1,0.5,0.3,0.7c0.2,0.2,0.4,0.3,0.7,0.5c0.3,0.1,0.6,0.2,0.9,0.3s0.7,0.1,1,0.1s0.7,0,1,0h0.8
					c-0.1-0.5-0.3-1-0.4-1.5s-0.4-0.9-0.6-1.3s-0.5-0.7-0.8-0.9C382.2,25.6,381.9,25.6,381.5,25.5z"/>
				<path class="st1" d="M416.5,29.7v4h-28.6v-4H416.5z"/>
				<path class="st1" d="M425.3,29.7v4H425c-0.8,0-1.5-0.1-2.1-0.3s-1.1-0.6-1.5-0.9c-0.6,0.4-1.3,0.8-2.1,1
					c-0.8,0.2-1.8,0.3-2.9,0.3H416v-4h0.5c1.2,0,2-0.2,2.6-0.6s0.9-0.9,0.9-1.7c0-0.3,0-0.6-0.1-1.1s-0.2-1.1-0.4-1.8l3.5-0.9
					c0.1,0.5,0.3,0.9,0.3,1.2c0.1,0.4,0.2,0.7,0.2,1s0.1,0.6,0.1,0.8c0,0.3,0,0.5,0,0.7s0,0.5,0.1,0.8c0,0.3,0.1,0.5,0.2,0.7
					s0.2,0.4,0.4,0.6c0.2,0.1,0.4,0.2,0.7,0.2H425.3L425.3,29.7z M420,21.7l-2.8-2.8l2.8-2.8l2.8,2.8L420,21.7z"/>
				<path class="st1" d="M425.1,29.7c0.4,0,0.9-0.1,1.2-0.2s0.8-0.4,1.1-0.9c0.3-0.4,0.7-1,1-1.8s0.6-1.8,0.9-3l3.3,0.5
					c0,0,0,0.1,0,0.2c0,0.2-0.1,0.5-0.2,0.9s-0.1,0.8-0.2,1.3c0,0.5-0.1,0.9-0.1,1.4c0,0.4,0,0.8,0.2,1.1c0.1,0.3,0.3,0.5,0.5,0.6
					c0.3,0.1,0.5,0,0.8-0.2s0.5-0.4,0.7-0.7c0.2-0.3,0.4-0.7,0.6-1.1s0.3-0.9,0.5-1.3s0.3-0.9,0.4-1.3s0.2-0.8,0.3-1.2l3.3,0.5
					c0,0.2,0,0.5-0.1,0.9c0,0.3-0.1,0.7-0.1,1.1s0,0.8,0,1.2c0,0.4,0,0.8,0.1,1.1c0.1,0.3,0.2,0.6,0.4,0.8c0.2,0.2,0.4,0.3,0.7,0.3
					c0.3,0,0.5-0.1,0.7-0.3s0.4-0.4,0.5-0.7c0.1-0.3,0.3-0.6,0.3-1c0.1-0.4,0.1-0.8,0.2-1.2c0-0.4,0-0.8,0-1.2c0-0.4,0-0.7,0-1
					l3.4-0.5l0.4,3.5c0,0.4,0.2,0.7,0.3,1s0.4,0.5,0.6,0.7s0.5,0.3,0.7,0.4c0.3,0.1,0.5,0.1,0.7,0.1h0.4v4h-0.4
					c-0.8,0-1.6-0.1-2.3-0.4c-0.7-0.3-1.3-0.8-1.9-1.5c0,0.1-0.1,0.1-0.2,0.2c0,0-0.1,0.1-0.1,0.2l0,0c-0.5,0.5-1,0.9-1.6,1.2
					s-1.2,0.4-1.9,0.4c-0.8,0-1.5-0.2-2.1-0.5s-1.2-0.8-1.6-1.3c-0.5,0.6-1.1,1-1.7,1.3s-1.3,0.5-2.1,0.5c-0.7,0-1.4-0.2-2-0.5
					s-1.1-0.8-1.5-1.3c-0.5,0.6-1,1.1-1.7,1.3c-0.7,0.3-1.5,0.4-2.5,0.4h-0.3v-4.1h0.4L425.1,29.7L425.1,29.7z M432.6,24.3
					L432.6,24.3C432.6,24.2,432.6,24.2,432.6,24.3z M437.7,19l-2.4,2.4l-2.4-2.4l2.4-2.4L437.7,19l2.4-2.4l2.4,2.4l-2.4,2.4
					L437.7,19z M439.9,15.3l-2.2,2.2l-2.3-2.3l2.2-2.2L439.9,15.3z"/>
				<path class="st1" d="M448.1,29.7h2.6c1.4,0,2.6-0.1,3.8-0.3c1.2-0.2,2.2-0.4,3.2-0.6c1-0.3,1.9-0.6,2.8-1s1.8-0.7,2.6-1.2
					c-0.6-0.2-1.2-0.3-1.7-0.6c-0.6-0.2-1.2-0.5-1.7-0.7c-0.6-0.2-1.2-0.4-1.7-0.6c-0.6-0.2-1.2-0.2-1.7-0.2c-0.4,0-0.8,0.1-1.2,0.3
					c-0.4,0.2-0.7,0.4-1,0.7c-0.3,0.3-0.6,0.5-0.8,0.8c-0.2,0.3-0.3,0.4-0.4,0.5l-2.9-1.9c0.3-0.6,0.7-1.1,1.1-1.7s0.9-1,1.5-1.4
					c0.5-0.4,1.1-0.8,1.7-1s1.2-0.4,1.9-0.4c0.5,0,1,0,1.5,0.2c0.5,0.1,1,0.3,1.5,0.4c0.5,0.2,1,0.3,1.5,0.6
					c0.5,0.2,0.9,0.4,1.4,0.6c0.4,0.2,0.9,0.4,1.3,0.6c0.5,0.2,0.9,0.4,1.4,0.6s1,0.3,1.5,0.4s1.1,0.2,1.6,0.2l-0.3,3.8l-1.8,0.9
					c-0.7,0.3-1.5,0.7-2.2,1.1s-1.5,0.7-2.2,1.1c-0.7,0.3-1.5,0.7-2.3,1c-0.8,0.3-1.6,0.6-2.5,0.8s-1.8,0.4-2.8,0.6
					c-1,0.1-2,0.2-3.1,0.2h-2.6L448.1,29.7L448.1,29.7z M458.5,40.5l-2.8-2.8l2.8-2.8l2.8,2.8L458.5,40.5z"/>
			</g>
		</g>
	</g>
	<g>
		<g class="st7">
			<g>
				<path d="M265.8,59.1c0.1,0.3,0.3,0.6,0.4,0.9c0.1,0.3,0.3,0.8,0.5,1.2c0.2,0.5,0.3,0.9,0.5,1.5c0.2,0.5,0.3,1,0.4,1.5
					c0.1,0.5,0.1,1,0.1,1.5c0,0.8-0.1,1.6-0.4,2.3c-0.3,0.7-0.6,1.4-1.1,1.9s-1,0.9-1.7,1.3c-0.7,0.3-1.5,0.5-2.4,0.5
					c-0.8,0-1.4-0.1-1.9-0.4s-0.9-0.6-1.2-1.1c-0.2,0.2-0.4,0.4-0.6,0.6s-0.4,0.3-0.7,0.5c-0.3,0.1-0.6,0.2-0.9,0.3
					c-0.4,0.1-0.8,0.1-1.3,0.1c-0.3,0-0.7,0-1-0.1c-0.3,0-0.6-0.1-0.8-0.2c0,1-0.2,1.9-0.4,2.7c-0.3,0.8-0.7,1.5-1.2,2.2
					s-1.1,1.2-1.8,1.7s-1.4,0.9-2.2,1.2c-0.8,0.3-1.6,0.6-2.4,0.7c-0.9,0.2-1.7,0.2-2.5,0.2c-1.3,0-2.5-0.2-3.5-0.6
					c-1.1-0.4-2.1-1-2.8-1.8c-0.8-0.8-1.4-1.7-1.8-2.8s-0.7-2.3-0.7-3.5c0-0.8,0.1-1.5,0.3-2.3s0.4-1.5,0.7-2.3s0.6-1.5,0.9-2.1
					c0.3-0.7,0.7-1.3,1.1-1.8l2.7,2.1c-0.3,0.5-0.6,1-0.9,1.6c-0.3,0.6-0.6,1.1-0.8,1.7s-0.4,1.2-0.5,1.7c-0.1,0.6-0.2,1.1-0.2,1.7
					s0.1,1.2,0.4,1.8c0.3,0.6,0.7,1.1,1.2,1.5s1.1,0.8,1.8,1c0.7,0.3,1.4,0.4,2.1,0.4c0.9,0,1.7-0.1,2.4-0.3c0.7-0.2,1.4-0.4,2-0.6
					c0.6-0.3,1-0.6,1.4-1s0.6-0.9,0.8-1.3l0,0c0.2-0.7,0.3-1.4,0.3-2.1c0-0.6-0.1-1.1-0.3-1.7s-0.4-1.2-0.6-1.8
					c-0.3-0.6-0.5-1.2-0.9-1.8c-0.3-0.6-0.6-1.2-0.9-1.8l3.5-1.9c0.2,0.5,0.4,1,0.6,1.5c0.2,0.5,0.4,1,0.6,1.5s0.5,0.9,0.7,1.3
					s0.5,0.7,0.7,1c0.3,0.3,0.5,0.5,0.8,0.6s0.6,0.2,0.9,0.2c0.3,0,0.6-0.2,0.9-0.4c0.3-0.2,0.4-0.4,0.5-0.7c0.1-0.3,0.2-0.6,0.2-1
					s0-0.7,0-1.1s0-0.8-0.1-1.1c0-0.4-0.1-0.7-0.1-1l3.5-0.5c0,0.3,0.1,0.6,0.2,0.9c0,0.4,0.1,0.8,0.1,1.2c0,0.4,0.1,0.8,0.2,1.2
					c0.1,0.4,0.2,0.8,0.3,1.2c0.1,0.3,0.3,0.6,0.5,0.9s0.5,0.4,0.8,0.6c0.3,0,0.5,0,0.7-0.1s0.4-0.3,0.6-0.4s0.3-0.4,0.4-0.7
					c0.1-0.3,0.1-0.6,0.1-0.9s0-0.6-0.2-1.1c-0.1-0.4-0.3-0.8-0.5-1.3c-0.2-0.5-0.4-0.9-0.7-1.5c-0.3-0.5-0.5-1-0.8-1.5l3.2-1.8
					C265.5,58.7,265.7,58.8,265.8,59.1z"/>
				<path d="M275.7,64.3c0.2,0.6,0.4,1.2,0.6,1.9s0.3,1.3,0.4,1.9s0.2,1.2,0.2,1.8c0,0.8-0.1,1.5-0.3,2.3s-0.5,1.5-0.9,2.2
					s-0.9,1.4-1.4,2c-0.6,0.6-1.1,1.2-1.8,1.8c-0.6,0.6-1.4,1.1-2.1,1.6s-1.5,0.9-2.3,1.3l-2.3-3.2c0.6-0.3,1.2-0.6,1.8-1
					c0.6-0.4,1.2-0.8,1.8-1.2c0.6-0.4,1.1-0.9,1.6-1.4s0.9-1,1.3-1.5s0.6-1,0.9-1.5s0.3-1,0.3-1.5c0-0.3,0-0.7-0.1-1.2
					s-0.2-0.9-0.4-1.3c-0.2-0.5-0.3-1-0.6-1.5c-0.2-0.5-0.5-1.1-0.7-1.7l3.6-1.7C275.4,63.1,275.5,63.7,275.7,64.3z"/>
				<path d="M280.6,66.6c0.5,0.2,0.9,0.4,1.5,0.6c0.5,0.2,1,0.3,1.5,0.5c0.5,0.1,0.9,0.2,1.2,0.2c0.2,0,0.5,0,0.8,0s0.7-0.1,1-0.2
					s0.6-0.2,0.9-0.4c0.3-0.2,0.4-0.4,0.4-0.7c0-0.3-0.1-0.7-0.3-1.1s-0.5-0.9-0.8-1.3s-0.8-0.9-1.2-1.4c-0.5-0.5-0.9-0.9-1.4-1.3
					s-1-0.8-1.5-1.2s-0.9-0.7-1.3-0.9l2.2-3.3c0.8,0.6,1.6,1.2,2.4,1.9s1.5,1.5,2.2,2.3s1.3,1.6,1.8,2.4c0.5,0.9,0.9,1.7,1.1,2.6
					c0.1,0.3,0.1,0.5,0.1,0.7c0,0.3,0,0.5,0,0.7c0,0.8-0.2,1.5-0.5,2.1s-0.7,1.2-1.3,1.7c-0.6,0.5-1.2,0.9-1.9,1.1
					c-0.8,0.3-1.6,0.4-2.5,0.4c-0.1,0-0.1,0-0.2,0s-0.1,0-0.2,0c-0.6,0-1.2,0-1.8-0.2c-0.6-0.1-1.2-0.3-1.8-0.5
					c-0.6-0.2-1.2-0.4-1.7-0.7c-0.6-0.3-1.1-0.6-1.5-0.9l1.7-3.8C279.7,66.2,280.1,66.4,280.6,66.6z"/>
				<path d="M293.5,69.7c0-0.7,0.1-1.5,0.1-2.2s0-1.4,0-2.1s0-1.3,0-1.9c0-1.2-0.1-2.2-0.1-3.1s-0.1-1.7-0.1-2.4s-0.1-1.3-0.1-1.8
					s-0.1-1-0.1-1.5c0-0.4-0.1-0.9-0.2-1.2c0-0.4-0.1-0.8-0.2-1.2l3.9-1.3c0.2,1.1,0.3,2.3,0.4,3.4c0.1,1.2,0.2,2.2,0.3,3.3
					c0,1.1,0.1,2,0.1,2.9s0,1.7,0,2.3s0,1.2,0,1.9s0,1.4,0,2.1s0,1.5,0,2.2s0,1.5-0.1,2.2l-3.9,0.6
					C293.4,71.2,293.4,70.4,293.5,69.7z"/>
				<path d="M308.5,71.8c-0.2,0-0.4,0-0.7,0c-0.3,0-0.6-0.1-1-0.3c-0.2,1-0.5,2-1,2.9s-1.2,1.8-1.9,2.6c-0.7,0.8-1.6,1.6-2.6,2.3
					c-0.9,0.7-2,1.3-3.1,1.8l-2.3-3.2c0.6-0.3,1.2-0.6,1.8-1c0.6-0.3,1.2-0.7,1.7-1.1c0.6-0.4,1.1-0.8,1.5-1.2
					c0.5-0.4,0.9-0.9,1.2-1.3c0.3-0.5,0.6-0.9,0.8-1.4c0.2-0.5,0.3-1,0.3-1.5c0-0.3,0-0.7-0.2-1.2c-0.1-0.5-0.3-1-0.5-1.6
					s-0.4-1.2-0.6-1.8s-0.5-1.1-0.7-1.6l3.6-1.6c0.3,1,0.6,1.8,1,2.5c0.3,0.7,0.6,1.2,0.9,1.6s0.6,0.7,0.8,0.9
					c0.3,0.2,0.5,0.3,0.8,0.3h0.3v4h-0.2v-0.1L308.5,71.8L308.5,71.8z"/>
				<path d="M350.5,67.8v4h-42.2v-4H350.5z"/>
				<path d="M350.4,67.8c0.3,0,0.7,0,1.1,0s0.9,0,1.4,0s1,0,1.5-0.1c0.5,0,1-0.1,1.5-0.2s0.9-0.2,1.3-0.3c0.4-0.1,0.7-0.3,1-0.5
					c-1.1,0.1-2.1,0.1-3,0.1s-1.7-0.2-2.4-0.5s-1.2-0.8-1.5-1.4c-0.4-0.6-0.6-1.4-0.6-2.4c0-0.5,0-0.9,0.1-1.4s0.2-1,0.4-1.5
					c0.2-0.5,0.4-0.9,0.7-1.3c0.3-0.4,0.6-0.8,1-1.1s0.8-0.6,1.2-0.8c0.4-0.2,0.9-0.3,1.5-0.3c0.7,0,1.3,0.1,1.8,0.4
					c0.6,0.3,1,0.6,1.5,1c0.4,0.4,0.8,0.9,1.2,1.5c0.3,0.6,0.6,1.2,0.8,1.8s0.4,1.3,0.5,1.9c0.1,0.6,0.2,1.3,0.2,1.9
					c0,1-0.1,1.9-0.4,2.6s-0.7,1.4-1.2,1.9c-0.5,0.6-1.1,1-1.8,1.3c-0.7,0.3-1.5,0.6-2.3,0.8s-1.7,0.3-2.6,0.4s-1.9,0.1-2.8,0.1H350
					v-4.1h0.4V67.8z M355.5,54.9l-2.8-2.8l2.8-2.8l2.8,2.8L355.5,54.9z M355.6,60.2c-0.2,0-0.4,0-0.6,0.2s-0.4,0.3-0.6,0.5
					s-0.3,0.4-0.4,0.7s-0.2,0.5-0.2,0.8s0.1,0.5,0.2,0.6c0.2,0.2,0.3,0.3,0.6,0.4c0.3,0.1,0.5,0.2,0.8,0.2s0.6,0,0.9,0s0.6,0,0.9,0
					s0.5,0,0.6,0c-0.1-0.4-0.2-0.8-0.3-1.2c-0.1-0.4-0.3-0.7-0.5-1.1c-0.2-0.3-0.4-0.6-0.6-0.8C356.2,60.3,355.9,60.2,355.6,60.2z"
					/>
				<path d="M377,71.8c-0.7,0-1.4-0.1-2.1-0.3s-1.3-0.6-1.9-1s-1-1-1.4-1.6s-0.6-1.4-0.6-2.1c0-1.7,0.7-3.4,2.2-5.2
					c0.1-0.1,0.2-0.3,0.3-0.3c0.1-0.1,0.2-0.2,0.2-0.3c0.1-0.1,0.1-0.1,0.2-0.2l0.2-0.2l-0.8-0.6l2.5-3.1c0.4,0.3,0.9,0.8,1.5,1.3
					s1.3,1.2,2.1,2.1c2.2,2.5,3.2,4.7,3.2,6.6c0,0.9-0.2,1.6-0.5,2.2s-0.8,1.2-1.3,1.6c-0.6,0.4-1.2,0.8-1.9,1
					C378.4,71.7,377.7,71.8,377,71.8z M379.4,66.7c0-0.3-0.1-0.6-0.3-0.9c-0.2-0.3-0.4-0.7-0.6-1c-0.3-0.3-0.6-0.7-0.9-1.1
					s-0.7-0.7-1-1.1c-0.2,0.3-0.5,0.6-0.7,0.9c-0.3,0.3-0.5,0.6-0.7,1c-0.2,0.3-0.4,0.7-0.5,1.1s-0.2,0.7-0.2,1.1
					c0,0.2,0.1,0.4,0.3,0.5c0.2,0.2,0.4,0.3,0.6,0.4c0.3,0.1,0.5,0.2,0.8,0.2s0.5,0.1,0.7,0.1c0.3,0,0.5,0,0.8,0s0.6-0.1,0.8-0.2
					c0.3-0.1,0.4-0.2,0.6-0.4C379.3,67.1,379.4,66.9,379.4,66.7z"/>
				<path d="M391,64.3c0.2,0.6,0.4,1.2,0.6,1.9c0.2,0.6,0.3,1.3,0.4,1.9s0.2,1.2,0.2,1.8c0,0.8-0.1,1.5-0.3,2.3s-0.5,1.5-0.9,2.2
					s-0.9,1.4-1.4,2c-0.6,0.6-1.1,1.2-1.8,1.8c-0.6,0.6-1.4,1.1-2.1,1.6s-1.5,0.9-2.3,1.3L381,78c0.6-0.3,1.2-0.6,1.8-1
					c0.6-0.4,1.2-0.8,1.8-1.2c0.6-0.4,1.1-0.9,1.6-1.4s0.9-1,1.3-1.5s0.6-1,0.9-1.5s0.3-1,0.3-1.5c0-0.3,0-0.7-0.1-1.2
					c-0.1-0.4-0.2-0.9-0.4-1.3s-0.3-1-0.6-1.5c-0.2-0.5-0.5-1.1-0.7-1.7l3.6-1.7C390.6,63.1,390.8,63.7,391,64.3z"/>
				<path d="M400.3,71.8c-1.1,0-1.9-0.1-2.6-0.4s-1.3-0.7-1.8-1.2s-0.8-1.1-1-1.8c-0.2-0.7-0.3-1.4-0.3-2.2c0-0.4,0-0.9,0-1.5
					s0-1.3,0-2.1s0-1.7,0-2.6c0-0.9,0-1.9-0.1-2.8c0-0.9-0.1-1.8-0.2-2.7s-0.2-1.6-0.3-2.3l3.8-1.2c0.1,0.6,0.2,1.2,0.3,2
					c0.1,0.8,0.1,1.5,0.2,2.4c0,0.8,0.1,1.7,0.1,2.5s0,1.6,0,2.3c0,0.6,0,1.3,0,2s0,1.4-0.1,2c0,0.6,0,1.2,0,1.7s0.1,0.9,0.2,1.2
					c0.1,0.2,0.2,0.3,0.3,0.4s0.3,0.2,0.4,0.2s0.3,0.1,0.5,0.1s0.4,0,0.6,0h0.3v4H400.3L400.3,71.8z"/>
				<path d="M449.5,67.8v4h-49.3v-4H449.5z"/>
				<path d="M449,67.8h0.9c0-0.6,0.1-1.2,0.3-1.8c0.1-0.6,0.3-1.3,0.6-2c0.3-0.6,0.6-1.3,0.9-1.9c0.3-0.6,0.7-1.2,1.2-1.7
					c0.4-0.5,0.9-0.9,1.4-1.2s1-0.5,1.5-0.5c0.6,0,1.1,0.2,1.5,0.5s0.9,0.7,1.2,1.2c0.3,0.5,0.6,1.1,0.8,1.7
					c0.2,0.6,0.3,1.3,0.3,1.9c0,0.8-0.2,1.5-0.5,2.2s-0.8,1.4-1.3,2s-1.1,1.2-1.8,1.7c-0.7,0.5-1.4,0.9-2.1,1.2
					c0,0.2,0.2,0.4,0.4,0.7c0.2,0.3,0.4,0.6,0.6,0.9c0.3,0.3,0.5,0.6,0.7,0.8s0.4,0.5,0.6,0.6c0-0.5,0-1,0.2-1.5s0.3-1,0.6-1.5
					c0.3-0.5,0.6-0.9,1-1.3s0.8-0.8,1.2-1.1s0.9-0.6,1.3-0.7c0.5-0.2,0.9-0.3,1.3-0.3h0.6v4H462c-0.4,0-0.7,0.1-1.1,0.3
					c-0.3,0.2-0.6,0.4-0.9,0.8c-0.3,0.3-0.5,0.6-0.6,1c-0.2,0.4-0.3,0.8-0.3,1.2c0,0.2,0,0.3,0,0.5c0,0.1,0.1,0.3,0.1,0.4
					c0.1,0.2,0.2,0.3,0.3,0.5c0.1,0.2,0.3,0.3,0.4,0.6l-2.3,2.8c-1-0.6-1.9-1.2-2.6-1.9c-0.8-0.6-1.4-1.3-2-2s-1-1.3-1.4-2.1
					s-0.7-1.4-0.9-2.1H449V67.8z M456.4,64.6c0-0.2,0-0.5,0-0.8s0-0.5-0.1-0.8c0-0.3-0.1-0.5-0.3-0.7s-0.3-0.3-0.4-0.5
					c-0.2,0.1-0.3,0.3-0.5,0.5c-0.2,0.3-0.4,0.5-0.6,0.9c-0.2,0.3-0.4,0.7-0.6,1.1s-0.3,0.8-0.5,1.2c-0.1,0.4-0.3,0.8-0.3,1.2
					c-0.1,0.4-0.1,0.7-0.1,1.1c0.3-0.1,0.7-0.2,1.1-0.4c0.4-0.2,0.8-0.5,1.1-0.8c0.3-0.3,0.6-0.6,0.9-1
					C456.3,65.4,456.4,65,456.4,64.6z"/>
				<path d="M462,67.8h1.7c0.3,0,0.7,0,1.2-0.1c0.4,0,0.8-0.2,1.2-0.3c0.4-0.1,0.7-0.3,0.9-0.5c0.3-0.2,0.4-0.5,0.4-0.8
					c0-0.2,0-0.5-0.2-0.9c-0.1-0.4-0.3-0.9-0.5-1.3s-0.4-1-0.6-1.5c-0.3-0.6-0.5-1.1-0.7-1.5L469,59c0.2,0.5,0.5,1.1,0.7,1.7
					c0.2,0.6,0.4,1.2,0.6,1.8s0.3,1.2,0.4,1.8c0.1,0.6,0.2,1.2,0.2,1.8c0,1-0.2,1.9-0.5,2.6s-0.8,1.3-1.4,1.8s-1.3,0.8-2.2,1
					s-1.8,0.3-2.8,0.3h-2L462,67.8L462,67.8z M466.1,78.7l-2.8-2.8l2.8-2.8l2.8,2.8L466.1,78.7z"/>
			</g>
		</g>
		<g>
			<g>
				<path class="st1" d="M264.9,57.8c0.1,0.3,0.3,0.6,0.4,0.9s0.3,0.8,0.5,1.2c0.2,0.5,0.3,0.9,0.5,1.5c0.2,0.5,0.3,1,0.4,1.5
					s0.1,1,0.1,1.5c0,0.8-0.1,1.6-0.4,2.3c-0.3,0.7-0.6,1.4-1.1,1.9s-1,0.9-1.7,1.3c-0.7,0.3-1.5,0.5-2.4,0.5
					c-0.8,0-1.4-0.1-1.9-0.4s-0.9-0.6-1.2-1.1c-0.2,0.2-0.4,0.4-0.6,0.6s-0.4,0.3-0.7,0.5c-0.3,0.1-0.6,0.2-0.9,0.3
					c-0.4,0.1-0.8,0.1-1.3,0.1c-0.3,0-0.7,0-1-0.1s-0.6-0.1-0.8-0.2c0,1-0.2,1.9-0.4,2.7c-0.3,0.8-0.7,1.5-1.2,2.2s-1.1,1.2-1.8,1.7
					s-1.4,0.9-2.2,1.2c-0.8,0.3-1.6,0.6-2.4,0.7c-0.9,0.2-1.7,0.2-2.5,0.2c-1.3,0-2.5-0.2-3.5-0.6c-1.1-0.4-2.1-1-2.8-1.8
					c-0.8-0.8-1.4-1.7-1.8-2.8c-0.4-1.1-0.7-2.3-0.7-3.5c0-0.8,0.1-1.5,0.3-2.3s0.4-1.5,0.7-2.3s0.6-1.5,0.9-2.1
					c0.3-0.7,0.7-1.3,1.1-1.8l2.7,2.1c-0.3,0.5-0.6,1-0.9,1.6c-0.3,0.6-0.6,1.1-0.8,1.7s-0.4,1.2-0.5,1.7c-0.1,0.6-0.2,1.1-0.2,1.7
					s0.1,1.2,0.4,1.8c0.3,0.6,0.7,1.1,1.2,1.5s1.1,0.8,1.8,1c0.7,0.3,1.4,0.4,2.1,0.4c0.9,0,1.7-0.1,2.4-0.3c0.7-0.2,1.4-0.4,2-0.6
					c0.6-0.3,1-0.6,1.4-1s0.6-0.9,0.8-1.3l0,0c0.2-0.7,0.3-1.4,0.3-2.1c0-0.6-0.1-1.1-0.3-1.7s-0.4-1.2-0.6-1.8
					c-0.3-0.6-0.5-1.2-0.9-1.8c-0.3-0.6-0.6-1.2-0.9-1.8l3.5-1.9c0.2,0.5,0.4,1,0.6,1.5c0.2,0.5,0.4,1,0.6,1.5
					c0.2,0.5,0.5,0.9,0.7,1.3s0.5,0.7,0.7,1c0.3,0.3,0.5,0.5,0.8,0.6s0.6,0.2,0.9,0.2c0.3,0,0.6-0.2,0.9-0.4s0.4-0.4,0.5-0.7
					c0.1-0.3,0.2-0.6,0.2-1s0-0.7,0-1.1s0-0.8-0.1-1.1c0-0.4-0.1-0.7-0.1-1l3.5-0.5c0,0.3,0.1,0.6,0.2,0.9s0.1,0.8,0.1,1.2
					s0.1,0.8,0.2,1.2s0.2,0.8,0.3,1.2c0.1,0.3,0.3,0.6,0.5,0.9s0.5,0.4,0.8,0.6c0.3,0,0.5,0,0.7-0.1s0.4-0.3,0.6-0.4
					s0.3-0.4,0.4-0.7c0.1-0.3,0.1-0.6,0.1-0.9s0-0.6-0.2-1.1c-0.1-0.4-0.3-0.8-0.5-1.3s-0.4-0.9-0.7-1.5c-0.3-0.5-0.5-1-0.8-1.5
					l3.2-1.8C264.7,57.4,264.8,57.5,264.9,57.8z"/>
				<path class="st1" d="M274.9,63c0.2,0.6,0.4,1.2,0.6,1.9c0.2,0.6,0.3,1.3,0.4,1.9s0.2,1.2,0.2,1.8c0,0.8-0.1,1.5-0.3,2.3
					c-0.2,0.8-0.5,1.5-0.9,2.2s-0.9,1.4-1.4,2c-0.6,0.6-1.1,1.2-1.8,1.8c-0.6,0.6-1.4,1.1-2.1,1.6s-1.5,0.9-2.3,1.3l-2.3-3.2
					c0.6-0.3,1.2-0.6,1.8-1c0.6-0.4,1.2-0.8,1.8-1.2c0.6-0.4,1.1-0.9,1.6-1.4s0.9-1,1.3-1.5s0.6-1,0.9-1.5s0.3-1,0.3-1.5
					c0-0.3,0-0.7-0.1-1.2s-0.2-0.9-0.4-1.3c-0.2-0.5-0.3-1-0.6-1.5c-0.2-0.5-0.5-1.1-0.7-1.7l3.6-1.7
					C274.5,61.9,274.7,62.4,274.9,63z"/>
				<path class="st1" d="M279.7,65.4c0.5,0.2,0.9,0.4,1.5,0.6c0.5,0.2,1,0.3,1.5,0.5c0.5,0.1,0.9,0.2,1.2,0.2c0.2,0,0.5,0,0.8,0
					s0.7-0.1,1-0.2s0.6-0.2,0.9-0.4c0.3-0.2,0.4-0.4,0.4-0.7c0-0.3-0.1-0.7-0.3-1.1c-0.2-0.4-0.5-0.9-0.8-1.3
					c-0.3-0.4-0.8-0.9-1.2-1.4c-0.5-0.5-0.9-0.9-1.4-1.3s-1-0.8-1.5-1.2s-0.9-0.7-1.3-0.9l2.2-3.3c0.8,0.6,1.6,1.2,2.4,1.9
					s1.5,1.5,2.2,2.3s1.3,1.6,1.8,2.4c0.5,0.9,0.9,1.7,1.1,2.6c0.1,0.3,0.1,0.5,0.1,0.7c0,0.3,0,0.5,0,0.7c0,0.8-0.2,1.5-0.5,2.1
					s-0.7,1.2-1.3,1.7c-0.6,0.5-1.2,0.9-1.9,1.1c-0.8,0.3-1.6,0.4-2.5,0.4c-0.1,0-0.1,0-0.2,0s-0.1,0-0.2,0c-0.6,0-1.2,0-1.8-0.2
					c-0.6-0.1-1.2-0.3-1.8-0.5c-0.6-0.2-1.2-0.4-1.7-0.7c-0.6-0.3-1.1-0.6-1.5-0.9l1.7-3.8C278.8,64.9,279.3,65.1,279.7,65.4z"/>
				<path class="st1" d="M292.6,68.4c0-0.7,0.1-1.5,0.1-2.2s0-1.4,0-2.1c0-0.7,0-1.3,0-1.9c0-1.2-0.1-2.2-0.1-3.1s-0.1-1.7-0.1-2.4
					s-0.1-1.3-0.1-1.8s-0.1-1-0.1-1.5c0-0.4-0.1-0.9-0.2-1.2c0-0.4-0.1-0.8-0.2-1.2l3.9-1.3c0.2,1.1,0.3,2.3,0.4,3.4
					c0.1,1.2,0.2,2.2,0.3,3.3c0,1.1,0.1,2,0.1,2.9s0,1.7,0,2.3s0,1.2,0,1.9c0,0.7,0,1.4,0,2.1s0,1.5,0,2.2s0,1.5-0.1,2.2l-3.9,0.6
					C292.5,69.9,292.6,69.2,292.6,68.4z"/>
				<path class="st1" d="M307.7,70.5c-0.2,0-0.4,0-0.7,0c-0.3,0-0.6-0.1-1-0.3c-0.2,1-0.5,2-1,2.9s-1.2,1.8-1.9,2.6
					c-0.7,0.8-1.6,1.6-2.6,2.3c-0.9,0.7-2,1.3-3.1,1.8l-2.3-3.2c0.6-0.3,1.2-0.6,1.8-1c0.6-0.3,1.2-0.7,1.7-1.1
					c0.6-0.4,1.1-0.8,1.5-1.2s0.9-0.9,1.2-1.3c0.3-0.5,0.6-0.9,0.8-1.4c0.2-0.5,0.3-1,0.3-1.5c0-0.3,0-0.7-0.2-1.2
					c-0.1-0.5-0.3-1-0.5-1.6s-0.4-1.2-0.6-1.8c-0.2-0.6-0.5-1.1-0.7-1.6l3.6-1.6c0.3,1,0.6,1.8,1,2.5c0.3,0.7,0.6,1.2,0.9,1.6
					s0.6,0.7,0.8,0.9c0.3,0.2,0.5,0.3,0.8,0.3h0.3v4h-0.2v-0.1L307.7,70.5L307.7,70.5z"/>
				<path class="st1" d="M349.6,66.6v4h-42.2v-4H349.6z"/>
				<path class="st1" d="M349.6,66.6c0.3,0,0.7,0,1.1,0s0.9,0,1.4,0s1,0,1.5-0.1c0.5,0,1-0.1,1.5-0.2s0.9-0.2,1.3-0.3
					c0.4-0.1,0.7-0.3,1-0.5c-1.1,0.1-2.1,0.1-3,0.1s-1.7-0.2-2.4-0.5c-0.7-0.3-1.2-0.8-1.5-1.4c-0.4-0.6-0.6-1.4-0.6-2.4
					c0-0.5,0-0.9,0.1-1.4s0.2-1,0.4-1.5c0.2-0.5,0.4-0.9,0.7-1.3c0.3-0.4,0.6-0.8,1-1.1s0.8-0.6,1.2-0.8c0.4-0.2,0.9-0.3,1.5-0.3
					c0.7,0,1.3,0.1,1.8,0.4c0.6,0.3,1,0.6,1.5,1c0.4,0.4,0.8,0.9,1.2,1.5c0.3,0.6,0.6,1.2,0.8,1.8c0.2,0.6,0.4,1.3,0.5,1.9
					c0.1,0.6,0.2,1.3,0.2,1.9c0,1-0.1,1.9-0.4,2.6s-0.7,1.4-1.2,1.9c-0.5,0.6-1.1,1-1.8,1.3c-0.7,0.3-1.5,0.6-2.3,0.8
					s-1.7,0.3-2.6,0.4s-1.9,0.1-2.8,0.1h-0.5v-4.1h0.4L349.6,66.6L349.6,66.6z M354.7,53.6l-2.8-2.8l2.8-2.8l2.8,2.8L354.7,53.6z
					 M354.8,58.9c-0.2,0-0.4,0-0.6,0.2s-0.4,0.3-0.6,0.5s-0.3,0.4-0.4,0.7s-0.2,0.5-0.2,0.8s0.1,0.5,0.2,0.6
					c0.2,0.2,0.3,0.3,0.6,0.4c0.3,0.1,0.5,0.2,0.8,0.2s0.6,0,0.9,0s0.6,0,0.9,0s0.5,0,0.6,0c-0.1-0.4-0.2-0.8-0.3-1.2
					c-0.1-0.4-0.3-0.7-0.5-1.1c-0.2-0.3-0.4-0.6-0.6-0.8C355.4,59,355.1,58.9,354.8,58.9z"/>
				<path class="st1" d="M376.1,70.5c-0.7,0-1.4-0.1-2.1-0.3s-1.3-0.6-1.9-1s-1-1-1.4-1.6c-0.3-0.6-0.6-1.4-0.6-2.1
					c0-1.7,0.7-3.4,2.2-5.2c0.1-0.1,0.2-0.3,0.3-0.3c0.1-0.1,0.2-0.2,0.2-0.3c0.1-0.1,0.1-0.1,0.2-0.2l0.2-0.2l-0.8-0.6l2.5-3.1
					c0.4,0.3,0.9,0.8,1.5,1.3s1.3,1.2,2.1,2.1c2.2,2.5,3.2,4.7,3.2,6.6c0,0.9-0.2,1.6-0.5,2.2s-0.8,1.2-1.3,1.6
					c-0.6,0.4-1.2,0.8-1.9,1C377.5,70.4,376.8,70.5,376.1,70.5z M378.6,65.4c0-0.3-0.1-0.6-0.3-0.9c-0.2-0.3-0.4-0.7-0.6-1
					c-0.3-0.3-0.6-0.7-0.9-1.1c-0.3-0.4-0.7-0.7-1-1.1c-0.2,0.3-0.5,0.6-0.7,0.9c-0.3,0.3-0.5,0.6-0.7,1c-0.2,0.3-0.4,0.7-0.5,1.1
					c-0.1,0.4-0.2,0.7-0.2,1.1c0,0.2,0.1,0.4,0.3,0.5c0.2,0.2,0.4,0.3,0.6,0.4c0.3,0.1,0.5,0.2,0.8,0.2s0.5,0.1,0.7,0.1
					c0.3,0,0.5,0,0.8,0s0.6-0.1,0.8-0.2c0.3-0.1,0.4-0.2,0.6-0.4C378.5,65.8,378.6,65.7,378.6,65.4z"/>
				<path class="st1" d="M390.1,63c0.2,0.6,0.4,1.2,0.6,1.9c0.2,0.6,0.3,1.3,0.4,1.9s0.2,1.2,0.2,1.8c0,0.8-0.1,1.5-0.3,2.3
					c-0.2,0.8-0.5,1.5-0.9,2.2s-0.9,1.4-1.4,2s-1.1,1.2-1.8,1.8c-0.6,0.6-1.4,1.1-2.1,1.6s-1.5,0.9-2.3,1.3l-2.3-3.2
					c0.6-0.3,1.2-0.6,1.8-1c0.6-0.4,1.2-0.8,1.8-1.2c0.6-0.4,1.1-0.9,1.6-1.4s0.9-1,1.3-1.5s0.6-1,0.9-1.5s0.3-1,0.3-1.5
					c0-0.3,0-0.7-0.1-1.2c-0.1-0.4-0.2-0.9-0.4-1.3c-0.2-0.5-0.3-1-0.6-1.5c-0.2-0.5-0.5-1.1-0.7-1.7l3.6-1.7
					C389.7,61.9,389.9,62.4,390.1,63z"/>
				<path class="st1" d="M399.5,70.5c-1.1,0-1.9-0.1-2.6-0.4s-1.3-0.7-1.8-1.2s-0.8-1.1-1-1.8c-0.2-0.7-0.3-1.4-0.3-2.2
					c0-0.4,0-0.9,0-1.5s0-1.3,0-2.1s0-1.7,0-2.6c0-0.9,0-1.9-0.1-2.8c0-0.9-0.1-1.8-0.2-2.7s-0.2-1.6-0.3-2.3l3.8-1.2
					c0.1,0.6,0.2,1.2,0.3,2c0.1,0.8,0.1,1.5,0.2,2.4c0,0.8,0.1,1.7,0.1,2.5s0,1.6,0,2.3c0,0.6,0,1.3,0,2s0,1.4-0.1,2
					c0,0.6,0,1.2,0,1.7s0.1,0.9,0.2,1.2c0.1,0.2,0.2,0.3,0.3,0.4c0.1,0.1,0.3,0.2,0.4,0.2s0.3,0.1,0.5,0.1s0.4,0,0.6,0h0.3v4H399.5
					L399.5,70.5z"/>
				<path class="st1" d="M448.7,66.6v4h-49.3v-4H448.7z"/>
				<path class="st1" d="M448.2,66.6h0.9c0-0.6,0.1-1.2,0.3-1.8c0.1-0.6,0.3-1.3,0.6-2c0.3-0.6,0.6-1.3,0.9-1.9
					c0.3-0.6,0.7-1.2,1.2-1.7c0.4-0.5,0.9-0.9,1.4-1.2s1-0.5,1.5-0.5c0.6,0,1.1,0.2,1.5,0.5c0.5,0.3,0.9,0.7,1.2,1.2
					c0.3,0.5,0.6,1.1,0.8,1.7c0.2,0.6,0.3,1.3,0.3,1.9c0,0.8-0.2,1.5-0.5,2.2s-0.8,1.4-1.3,2s-1.1,1.2-1.8,1.7
					c-0.7,0.5-1.4,0.9-2.1,1.2c0,0.2,0.2,0.4,0.4,0.7c0.2,0.3,0.4,0.6,0.6,0.9c0.3,0.3,0.5,0.6,0.7,0.8s0.4,0.5,0.6,0.6
					c0-0.5,0-1,0.2-1.5s0.3-1,0.6-1.5c0.3-0.5,0.6-0.9,1-1.3s0.8-0.8,1.2-1.1s0.9-0.6,1.3-0.7c0.5-0.2,0.9-0.3,1.3-0.3h0.6v4h-0.7
					c-0.4,0-0.7,0.1-1.1,0.3c-0.3,0.2-0.6,0.4-0.9,0.8c-0.3,0.3-0.5,0.6-0.6,1c-0.2,0.4-0.3,0.8-0.3,1.2c0,0.2,0,0.3,0,0.5
					c0,0.1,0.1,0.3,0.1,0.4c0.1,0.2,0.2,0.3,0.3,0.5c0.1,0.2,0.3,0.3,0.4,0.6l-2.3,2.8c-1-0.6-1.9-1.2-2.6-1.9c-0.8-0.6-1.4-1.3-2-2
					s-1-1.3-1.4-2.1s-0.7-1.4-0.9-2.1h-1.7v-3.9C447.9,66.6,448.2,66.6,448.2,66.6z M455.6,63.4c0-0.2,0-0.5,0-0.8s0-0.5-0.1-0.8
					c0-0.3-0.1-0.5-0.3-0.7c-0.1-0.2-0.3-0.3-0.4-0.5c-0.2,0.1-0.3,0.3-0.5,0.5c-0.2,0.3-0.4,0.5-0.6,0.9c-0.2,0.3-0.4,0.7-0.6,1.1
					c-0.2,0.4-0.3,0.8-0.5,1.2c-0.1,0.4-0.3,0.8-0.3,1.2c-0.1,0.4-0.1,0.7-0.1,1.1c0.3-0.1,0.7-0.2,1.1-0.4c0.4-0.2,0.8-0.5,1.1-0.8
					c0.3-0.3,0.6-0.6,0.9-1C455.4,64.1,455.5,63.7,455.6,63.4z"/>
				<path class="st1" d="M461.2,66.6h1.7c0.3,0,0.7,0,1.2-0.1c0.4,0,0.8-0.2,1.2-0.3c0.4-0.1,0.7-0.3,0.9-0.5
					c0.3-0.2,0.4-0.5,0.4-0.8c0-0.2,0-0.5-0.2-0.9c-0.1-0.4-0.3-0.9-0.5-1.3c-0.2-0.5-0.4-1-0.6-1.5c-0.3-0.6-0.5-1.1-0.7-1.5
					l3.6-1.8c0.2,0.5,0.5,1.1,0.7,1.7c0.2,0.6,0.4,1.2,0.6,1.8s0.3,1.2,0.4,1.8s0.2,1.2,0.2,1.8c0,1-0.2,1.9-0.5,2.6
					s-0.8,1.3-1.4,1.8s-1.3,0.8-2.2,1s-1.8,0.3-2.8,0.3h-2L461.2,66.6L461.2,66.6z M465.2,77.5l-2.8-2.8l2.8-2.8l2.8,2.8L465.2,77.5
					z"/>
			</g>
		</g>
	</g>
</g>
<g>
	<path class="st1" d="M667.9,36.4h11.9c1.1,0,1.8-0.2,2.3-0.7c0.5-0.5,0.8-1.2,0.8-2.3v-2.6v-0.5h0.6h2.5h0.6v0.5v2.6
		c0,2.1-0.6,3.8-1.7,4.8c-1.1,1.1-2.8,1.7-5.1,1.7h-11.9c-2.2,0-3.9-0.5-5.2-1.7c-1.2-1.1-1.8-2.7-1.8-4.8v-2.7v-0.5h0.6h2.5h0.6
		v0.5v2.7c0,1.1,0.3,1.8,0.8,2.3C665.9,36.2,666.7,36.4,667.9,36.4z M668.7,27.9l2.5-2.3l2.4,2.3l-2.4,2.3L668.7,27.9z M674,27.9
		l2.4-2.3l2.5,2.3c-0.1,0.1-0.1,0.1-0.2,0.2c-0.1,0.1-0.5,0.4-1,0.9c-0.5,0.5-1,0.9-1.2,1.2L674,27.9z"/>
	<path class="st1" d="M696.1,39.9h-0.6c-1.7,0-3.1-0.5-3.9-1.5c-0.9-1-1.3-2.4-1.3-4.1V22.5V22h0.6h2.4h0.6v0.5v11.8
		c0,0.8,0.2,1.3,0.4,1.6c0.3,0.3,0.8,0.5,1.3,0.5h0.6c0.1,0,0.2,0.2,0.3,0.5c0.1,0.4,0.1,0.8,0.1,1.1v0.2c0,0.4-0.1,0.8-0.1,1.1
		C696.3,39.7,696.2,39.9,696.1,39.9z"/>
	<path class="st1" d="M699.7,36.4c0.1,0,0.2,0.2,0.3,0.5c0.1,0.4,0.1,0.8,0.1,1.1v0.2c0,0.4-0.1,0.8-0.1,1.1
		c-0.1,0.4-0.2,0.6-0.3,0.6h-3.8c-0.1,0-0.2-0.2-0.3-0.6c-0.1-0.4-0.1-0.8-0.1-1.1V38c0-0.3,0.1-0.7,0.1-1.1
		c0.1-0.4,0.2-0.5,0.3-0.5H699.7z"/>
	<path class="st1" d="M703.3,36.4c0.1,0,0.2,0.2,0.3,0.5c0.1,0.4,0.1,0.8,0.1,1.1v0.2c0,0.4-0.1,0.8-0.1,1.1
		c-0.1,0.4-0.2,0.6-0.3,0.6h-3.8c-0.1,0-0.2-0.2-0.3-0.6c-0.1-0.4-0.1-0.8-0.1-1.1V38c0-0.3,0.1-0.7,0.1-1.1
		c0.1-0.4,0.2-0.5,0.3-0.5H703.3z"/>
	<path class="st1" d="M706.9,36.4c0.1,0,0.2,0.2,0.3,0.5c0.1,0.4,0.1,0.8,0.1,1.1v0.2c0,0.4-0.1,0.8-0.1,1.1
		c-0.1,0.4-0.2,0.6-0.3,0.6h-3.8c-0.1,0-0.2-0.2-0.3-0.6c-0.1-0.4-0.1-0.8-0.1-1.1V38c0-0.3,0.1-0.7,0.1-1.1
		c0.1-0.4,0.2-0.5,0.3-0.5H706.9z"/>
	<path class="st1" d="M710.6,36.4c0.1,0,0.2,0.2,0.3,0.5c0.1,0.4,0.1,0.8,0.1,1.1v0.2c0,0.4-0.1,0.8-0.1,1.1
		c-0.1,0.4-0.2,0.6-0.3,0.6h-3.8c-0.1,0-0.2-0.2-0.3-0.6c-0.1-0.4-0.1-0.8-0.1-1.1V38c0-0.3,0.1-0.7,0.1-1.1
		c0.1-0.4,0.2-0.5,0.3-0.5H710.6z"/>
	<path class="st1" d="M710.4,36.4h3.1c-0.8-0.9-1.2-2-1.2-3.1c0-1.7,0.6-3.1,1.8-4.2c1.2-1.1,2.7-1.7,4.5-1.7c2,0,3.8,0.8,5.1,2.2
		l0.3,0.3l-0.2,0.3l-1.1,1.8l-0.4,0.6l-0.5-0.5c-0.9-0.8-1.9-1.2-3.1-1.2c-0.8,0-1.4,0.2-1.9,0.6c-0.5,0.4-0.8,1-0.8,1.7
		c0,0.7,0.4,1.3,1.2,1.9c0.7,0.5,1.2,0.8,1.6,0.8c0.3,0,0.9-0.1,1.8-0.3l3.1-0.7l0.7-0.2v0.7v2.4v0.4l-0.4,0.1
		c-3.4,1-6.4,1.4-9.1,1.4h-4.5c-0.1,0-0.2-0.2-0.3-0.6c-0.1-0.4-0.1-0.8-0.1-1.1v-0.2c0-0.3,0.1-0.7,0.1-1.1
		C710.2,36.6,710.3,36.4,710.4,36.4z"/>
	<path class="st1" d="M734,39.9h-0.6c-1.7,0-3.1-0.5-3.9-1.5c-0.9-1-1.3-2.4-1.3-4.1V22.5V22h0.6h2.4h0.6v0.5v11.8
		c0,0.8,0.2,1.3,0.4,1.6s0.8,0.5,1.3,0.5h0.6c0.1,0,0.2,0.2,0.3,0.5c0.1,0.4,0.1,0.8,0.1,1.1v0.2c0,0.4-0.1,0.8-0.1,1.1
		C734.2,39.7,734.1,39.9,734,39.9z"/>
	<path class="st1" d="M737.6,36.4c0.1,0,0.2,0.2,0.3,0.5c0.1,0.4,0.1,0.8,0.1,1.1v0.2c0,0.4-0.1,0.8-0.1,1.1
		c-0.1,0.4-0.2,0.6-0.3,0.6h-3.8c-0.1,0-0.2-0.2-0.3-0.6c-0.1-0.4-0.1-0.8-0.1-1.1V38c0-0.3,0.1-0.7,0.1-1.1
		c0.1-0.4,0.2-0.5,0.3-0.5H737.6z"/>
	<path class="st1" d="M741.2,36.4c0.1,0,0.2,0.2,0.3,0.5c0.1,0.4,0.1,0.8,0.1,1.1v0.2c0,0.4-0.1,0.8-0.1,1.1
		c-0.1,0.4-0.2,0.6-0.3,0.6h-3.8c-0.1,0-0.2-0.2-0.3-0.6c-0.1-0.4-0.1-0.8-0.1-1.1V38c0-0.3,0.1-0.7,0.1-1.1
		c0.1-0.4,0.2-0.5,0.3-0.5H741.2z"/>
	<path class="st1" d="M744.8,36.4c0.1,0,0.2,0.2,0.3,0.5c0.1,0.4,0.1,0.8,0.1,1.1v0.2c0,0.4-0.1,0.8-0.1,1.1
		c-0.1,0.4-0.2,0.6-0.3,0.6h-3.8c-0.1,0-0.2-0.2-0.3-0.6c-0.1-0.4-0.1-0.8-0.1-1.1V38c0-0.3,0.1-0.7,0.1-1.1
		c0.1-0.4,0.2-0.5,0.3-0.5H744.8z"/>
	<path class="st1" d="M744.7,36.4h1.4c1,0,1.7-0.2,2.2-0.5c0.4-0.3,0.6-0.9,0.6-1.6v-3.5v-0.5h0.6h2.5h0.6v0.5v3.5
		c0,0.8,0.2,1.2,0.5,1.6s0.9,0.5,1.6,0.5c0.7,0,1.2-0.2,1.6-0.5c0.3-0.3,0.5-0.9,0.5-1.6v-3.5v-0.5h0.6h2.5h0.6v0.5v3.5
		c0,0.8,0.2,1.3,0.5,1.6s0.9,0.5,1.6,0.5c0.5,0,0.9-0.2,1.2-0.4c0.2-0.3,0.4-0.8,0.4-1.6v-4V30h0.6h2.5h0.6v0.5v4.1
		c0,1.7-0.4,3-1.3,4c-0.9,1-2.1,1.5-3.8,1.5c-1.7,0-3-0.5-3.9-1.5c-0.9,1-2.3,1.5-4,1.5c-1.6,0-2.9-0.5-3.9-1.6
		c-1,1-2.6,1.6-4.7,1.6h-1.3c-0.1,0-0.2-0.2-0.3-0.6c-0.1-0.4-0.1-0.8-0.1-1.1v-0.2c0-0.3,0.1-0.7,0.1-1.1
		C744.5,36.6,744.6,36.4,744.7,36.4z"/>
	<path class="st1" d="M680.6,62.7h-0.2v0.5c0,1.8-0.8,3.2-2.2,4.1c-1.5,1-3.6,1.5-6.3,1.5h-1.4c-3,0-5.2-0.7-6.8-2
		c-1.6-1.3-2.3-3.3-2.3-5.9v-4.6v-0.5h0.6h2.5h0.6v0.5v4.6c0,1.5,0.4,2.6,1.3,3.4c0.9,0.7,2.2,1.1,4.1,1.1h1.4
		c0.8,0,1.4-0.1,1.9-0.1c0.5-0.1,1.1-0.2,1.5-0.3c0.4-0.2,0.8-0.4,1-0.6c0.2-0.3,0.4-0.6,0.4-1v-0.4h-3.1c-0.4,0-0.8-0.1-1-0.4
		c-0.2-0.3-0.4-0.6-0.6-1.2c-0.2-0.8-0.3-1.2-0.2-1.5c0.1-0.3,0.4-0.4,0.9-0.4h8c0.1,0,0.2,0.2,0.3,0.5c0.1,0.4,0.1,0.8,0.1,1.1v0.2
		c0,0.4-0.1,0.8-0.1,1.1C680.8,62.6,680.7,62.7,680.6,62.7z M682.3,59.3c0.1,0,0.1,0.2,0.2,0.5c0.1,0.4,0.1,0.8,0.1,1.1V61
		c0,0.4,0,0.8-0.1,1.1c-0.1,0.4-0.1,0.6-0.2,0.6h-2.1c-0.1,0-0.1-0.2-0.2-0.6c-0.1-0.4-0.1-0.8-0.1-1.1v-0.2c0-0.3,0-0.7,0.1-1.1
		c0.1-0.4,0.1-0.5,0.2-0.5H682.3z"/>
	<path class="st1" d="M685.8,59.3c0.1,0,0.2,0.2,0.3,0.5c0.1,0.4,0.1,0.8,0.1,1.1V61c0,0.4-0.1,0.8-0.1,1.1
		c-0.1,0.4-0.2,0.6-0.3,0.6h-3.8c-0.1,0-0.2-0.2-0.3-0.6c-0.1-0.4-0.1-0.8-0.1-1.1v-0.2c0-0.3,0.1-0.7,0.1-1.1
		c0.1-0.4,0.2-0.5,0.3-0.5H685.8z"/>
	<path class="st1" d="M689.4,59.3c0.1,0,0.2,0.2,0.3,0.5c0.1,0.4,0.1,0.8,0.1,1.1V61c0,0.4-0.1,0.8-0.1,1.1
		c-0.1,0.4-0.2,0.6-0.3,0.6h-3.8c-0.1,0-0.2-0.2-0.3-0.6c-0.1-0.4-0.1-0.8-0.1-1.1v-0.2c0-0.3,0.1-0.7,0.1-1.1
		c0.1-0.4,0.2-0.5,0.3-0.5H689.4z"/>
	<path class="st1" d="M693.1,59.3c0.1,0,0.2,0.2,0.3,0.5c0.1,0.4,0.1,0.8,0.1,1.1V61c0,0.4-0.1,0.8-0.1,1.1
		c-0.1,0.4-0.2,0.6-0.3,0.6h-3.8c-0.1,0-0.2-0.2-0.3-0.6c-0.1-0.4-0.1-0.8-0.1-1.1v-0.2c0-0.3,0.1-0.7,0.1-1.1
		c0.1-0.4,0.2-0.5,0.3-0.5H693.1z"/>
	<path class="st1" d="M696.7,59.3c0.1,0,0.2,0.2,0.3,0.5c0.1,0.4,0.1,0.8,0.1,1.1V61c0,0.4-0.1,0.8-0.1,1.1
		c-0.1,0.4-0.2,0.6-0.3,0.6h-3.8c-0.1,0-0.2-0.2-0.3-0.6c-0.1-0.4-0.1-0.8-0.1-1.1v-0.2c0-0.3,0.1-0.7,0.1-1.1
		c0.1-0.4,0.2-0.5,0.3-0.5H696.7z"/>
	<path class="st1" d="M700.3,59.3c0.1,0,0.2,0.2,0.3,0.5c0.1,0.4,0.1,0.8,0.1,1.1V61c0,0.4-0.1,0.8-0.1,1.1
		c-0.1,0.4-0.2,0.6-0.3,0.6h-3.8c-0.1,0-0.2-0.2-0.3-0.6c-0.1-0.4-0.1-0.8-0.1-1.1v-0.2c0-0.3,0.1-0.7,0.1-1.1
		c0.1-0.4,0.2-0.5,0.3-0.5H700.3z"/>
	<path class="st1" d="M703.9,59.3c0.1,0,0.2,0.2,0.3,0.5c0.1,0.4,0.1,0.8,0.1,1.1V61c0,0.4-0.1,0.8-0.1,1.1
		c-0.1,0.4-0.2,0.6-0.3,0.6h-3.8c-0.1,0-0.2-0.2-0.3-0.6c-0.1-0.4-0.1-0.8-0.1-1.1v-0.2c0-0.3,0.1-0.7,0.1-1.1
		c0.1-0.4,0.2-0.5,0.3-0.5H703.9z"/>
	<path class="st1" d="M703.8,59.3h3c0.9,0,1.5-0.1,1.8-0.4c0.3-0.3,0.5-0.8,0.5-1.7v-3.9v-0.5h0.6h2.5h0.6v0.5v4
		c0,1.8-0.5,3.2-1.6,4.1c-1,1-2.5,1.4-4.5,1.4h-2.9c-0.1,0-0.2-0.2-0.3-0.6c-0.1-0.4-0.1-0.8-0.1-1.1v-0.2c0-0.3,0.1-0.7,0.1-1.1
		C703.6,59.5,703.7,59.3,703.8,59.3z M707.5,48.5l2.5-2.3l2.5,2.3l-2.5,2.3L707.5,48.5z"/>
	<path class="st1" d="M722.8,62.7h-0.6c-1.7,0-3.1-0.5-3.9-1.5c-0.9-1-1.3-2.4-1.3-4.1V45.4v-0.5h0.6h2.4h0.6v0.5v11.8
		c0,0.8,0.2,1.3,0.4,1.6c0.3,0.3,0.8,0.5,1.3,0.5h0.6c0.1,0,0.2,0.2,0.3,0.5c0.1,0.4,0.1,0.8,0.1,1.1v0.2c0,0.4-0.1,0.8-0.1,1.1
		C723,62.6,722.9,62.7,722.8,62.7z"/>
	<path class="st1" d="M726.4,59.3c0.1,0,0.2,0.2,0.3,0.5c0.1,0.4,0.1,0.8,0.1,1.1V61c0,0.4-0.1,0.8-0.1,1.1
		c-0.1,0.4-0.2,0.6-0.3,0.6h-3.8c-0.1,0-0.2-0.2-0.3-0.6c-0.1-0.4-0.1-0.8-0.1-1.1v-0.2c0-0.3,0.1-0.7,0.1-1.1
		c0.1-0.4,0.2-0.5,0.3-0.5H726.4z"/>
	<path class="st1" d="M730,59.3c0.1,0,0.2,0.2,0.3,0.5c0.1,0.4,0.1,0.8,0.1,1.1V61c0,0.4-0.1,0.8-0.1,1.1c-0.1,0.4-0.2,0.6-0.3,0.6
		h-3.8c-0.1,0-0.2-0.2-0.3-0.6c-0.1-0.4-0.1-0.8-0.1-1.1v-0.2c0-0.3,0.1-0.7,0.1-1.1c0.1-0.4,0.2-0.5,0.3-0.5H730z"/>
	<path class="st1" d="M728.8,67.2l2.5-2.3l2.4,2.3l-2.4,2.3L728.8,67.2z M729.8,59.3h4.1c0.9,0,1.5-0.1,1.8-0.4
		c0.3-0.3,0.5-0.8,0.5-1.7v-3.9v-0.5h0.6h2.5h0.6v0.5v4c0,1.8-0.5,3.2-1.6,4.1c-1,1-2.5,1.4-4.5,1.4h-4.1c-0.1,0-0.2-0.2-0.3-0.6
		c-0.1-0.4-0.1-0.8-0.1-1.1v-0.2c0-0.3,0.1-0.7,0.1-1.1C729.7,59.5,729.7,59.3,729.8,59.3z M734,67.2l2.4-2.3l2.5,2.3
		c-0.1,0.1-0.1,0.1-0.2,0.2c-0.1,0.1-0.5,0.4-1,0.9c-0.5,0.5-1,0.9-1.2,1.2L734,67.2z"/>
	<path class="st1" d="M750,62.7h-0.6c-1.7,0-3.1-0.5-3.9-1.5c-0.9-1-1.3-2.4-1.3-4.1V45.4v-0.5h0.6h2.4h0.6v0.5v11.8
		c0,0.8,0.2,1.3,0.4,1.6c0.3,0.3,0.8,0.5,1.3,0.5h0.6c0.1,0,0.2,0.2,0.3,0.5c0.1,0.4,0.1,0.8,0.1,1.1v0.2c0,0.4-0.1,0.8-0.1,1.1
		C750.2,62.6,750.1,62.7,750,62.7z"/>
	<path class="st1" d="M753.6,59.3c0.1,0,0.2,0.2,0.3,0.5c0.1,0.4,0.1,0.8,0.1,1.1V61c0,0.4-0.1,0.8-0.1,1.1
		c-0.1,0.4-0.2,0.6-0.3,0.6h-3.8c-0.1,0-0.2-0.2-0.3-0.6c-0.1-0.4-0.1-0.8-0.1-1.1v-0.2c0-0.3,0.1-0.7,0.1-1.1
		c0.1-0.4,0.2-0.5,0.3-0.5H753.6z"/>
	<path class="st1" d="M757.3,59.3c0.1,0,0.2,0.2,0.3,0.5c0.1,0.4,0.1,0.8,0.1,1.1V61c0,0.4-0.1,0.8-0.1,1.1
		c-0.1,0.4-0.2,0.6-0.3,0.6h-3.8c-0.1,0-0.2-0.2-0.3-0.6c-0.1-0.4-0.1-0.8-0.1-1.1v-0.2c0-0.3,0.1-0.7,0.1-1.1
		c0.1-0.4,0.2-0.5,0.3-0.5H757.3z"/>
	<path class="st1" d="M756.1,66.7l2.3-2.1l2.3,2.1l-2.3,2.1L756.1,66.7z M757.1,59.3h4.1c0.9,0,1.5-0.1,1.8-0.4
		c0.3-0.3,0.5-0.8,0.5-1.7v-3.9v-0.5h0.6h2.5h0.6v0.5v4c0,1.8-0.5,3.2-1.6,4.1c-1,1-2.5,1.4-4.5,1.4H757c-0.1,0-0.2-0.2-0.3-0.6
		c-0.1-0.4-0.1-0.8-0.1-1.1v-0.2c0-0.3,0.1-0.7,0.1-1.1C756.9,59.5,757,59.3,757.1,59.3z M758.8,70l2.3-2.1l2.3,2.1l-2.3,2.1
		L758.8,70z M761.4,66.7l2.3-2.1l2.3,2.1l-2.3,2.1L761.4,66.7z"/>
</g>
</svg>
