<?xml version="1.0" encoding="utf-8"?>
<!-- Generator: Adobe Illustrator 23.0.1, SVG Export Plug-In . SVG Version: 6.00 Build 0)  -->
<svg version="1.1" id="Layer_1" xmlns="http://www.w3.org/2000/svg" xmlns:xlink="http://www.w3.org/1999/xlink" x="0px" y="0px"
	 viewBox="0 0 620 250" style="enable-background:new 0 0 620 250;" width="620" height="250"  xml:space="preserve">
<style type="text/css">
	.st0{fill:#E50000;}
	.st1{fill:#FFFFFF;}
	.st2{fill:#004F49;}
	.st3{opacity:0.35;fill:#FFFFFF;enable-background:new    ;}
	.st4{fill:#061133;stroke:#FFFFFF;stroke-width:3;stroke-miterlimit:10;}
	.st5{fill:#FFC200;}
	.st6{fill:#032D44;}
	.st7{opacity:0.48;}
</style>
<g>
	<g>
		<g>
			<path class="st0" d="M602.7,242.9H389.4c-7,0-12.8-5.9-12.8-13.3v-67.9c0-7.3,5.8-13.3,12.8-13.3h213.4c7,0,12.8,5.9,12.8,13.3
				v67.9C615.8,237,610,242.9,602.7,242.9z"/>
			<path class="st1" d="M602.7,244.2H389.4c-7.8,0-14.2-6.6-14.2-14.8v-67.9c0-8.1,6.4-14.8,14.2-14.8h213.4
				c7.8,0,14.2,6.6,14.2,14.8v67.9C616.9,237.8,610.8,244.2,602.7,244.2z M389.4,149.7c-6.4,0-11.6,5.4-11.6,12v67.9
				c0,6.6,5.2,12,11.6,12h213.4c6.5,0,11.6-5.3,11.6-12v-67.9c0-6.6-5.2-12-11.6-12L389.4,149.7L389.4,149.7z"/>
		</g>
		<g>
			<path class="st1" d="M416.1,207.6h-0.4c-3,0-5.7-1.3-8.1-3.8c-1.6,2.4-5,3.8-10.1,3.8h-9.6h-0.8v-0.8v-4.6v-0.8h0.8h9.4
				c0.1,0,0.3,0,0.4,0s0.3,0,0.4,0c1,0,1.7-0.1,2.4-0.3c0.5-0.1,1.3-0.3,1.4-0.4c0.4-0.3,0.5-0.4,0.7-0.7c0.1-0.3,0.3-0.4,0.3-0.8
				s-0.3-1.2-0.5-1.7c-0.3-0.4-0.4-0.7-0.7-1.3c-0.4-0.4-0.5-0.8-1.2-1.3l-6.9-8l-0.4-0.5l0.4-0.5l3.2-3.5l0.7-0.7l0.5,0.8
				l13.7,16.5c1.4,1.8,2.8,2.6,4.2,2.6h0.3c0.4,0,0.5,0.1,0.8,0.3c0.3,0.1,0.4,0.4,0.4,0.7c0.1,0.4,0.1,0.5,0.1,0.8s0,0.4,0,1
				c0,0.1,0,0.1,0,0.1v0.3c0,0.8,0,1.4-0.1,1.9c0,0.3-0.1,0.4-0.3,0.4c-0.1,0.1-0.3,0.3-0.4,0.4
				C416.4,207.5,416.3,207.6,416.1,207.6z"/>
			<path class="st1" d="M437.9,207.6h-0.5c-3.5,0-6.1-1-7.8-2.8c-1.9,1.9-5,2.8-9,2.8H416c-0.7,0-1.3-0.3-1.7-0.8
				c-0.4-0.5-0.5-1.3-0.5-2v-0.2c0-0.8,0.1-1.6,0.4-2c0.4-0.5,1-1,1.8-1h4.7c1.3,0,2.4-0.1,3.4-0.4c0.9-0.4,1.4-0.7,1.8-1.3
				c0.4-0.5,0.5-1.3,0.5-2.2v-6.5v-0.9h0.8h4.5h0.8v0.8v6.5c0,1.4,0.4,2.4,1.2,3.2c0.7,0.5,2,1,3.8,1h0.5c0.4,0,0.5,0.1,0.8,0.3
				c0.3,0.1,0.4,0.4,0.4,0.7c0.1,0.4,0.1,0.5,0.1,0.8s0,0.4,0,1c0,0.1,0,0.1,0,0.1v0.3c0,0,0,0.1,0,0.3c0,0.3,0,0.4,0,0.4
				c0,0.1,0,0.3,0,0.4c0,0.3,0,0.4-0.1,0.5c0,0.1-0.1,0.4-0.1,0.4c-0.1,0.1-0.1,0.4-0.3,0.4c-0.1,0.1-0.3,0.3-0.4,0.3
				C438.3,207.6,438,207.6,437.9,207.6z M415.9,215.2l2.2-2.2c0.7-0.7,1.4-0.8,2-0.1l2.4,2.4c0.7,0.7,0.7,1.4,0,2l-2.2,2.2
				c-0.7,0.7-1.4,0.7-2,0l-2.4-2.4C415.2,216.5,415.2,215.8,415.9,215.2z M425,215.2l2.2-2.2c0.7-0.7,1.4-0.8,2-0.1l2.4,2.4
				c0.7,0.7,0.7,1.4,0,2l-2.2,2.2c-0.7,0.7-1.4,0.7-2,0l-2.5-2.4C424.3,216.5,424.3,215.9,425,215.2z"/>
			<path class="st1" d="M458.9,207.6h-0.4c-3.5,0-6.1-1-7.8-2.8c-2,1.9-5,2.8-9,2.8h-3.9c-0.7,0-1.3-0.3-1.7-0.8
				c-0.4-0.5-0.5-1.3-0.5-2v-0.2c0-0.8,0.1-1.6,0.4-2c0.4-0.5,1-1,1.8-1h4c2,0,3.5-0.4,4.3-1c0.8-0.5,1.3-1.7,1.3-3v-6.5v-0.9h0.8
				h4.5h0.8v0.8v6.5c0,1.4,0.4,2.4,1.2,3.2c0.7,0.5,2,1,3.8,1h0.5c0.4,0,0.5,0.1,0.8,0.3c0.3,0.1,0.4,0.4,0.4,0.7
				c0.1,0.4,0.1,0.5,0.1,0.8s0,0.4,0,1c0,0.1,0,0.1,0,0.1v0.3c0,0,0,0.1,0,0.3c0,0.1,0,0.3,0,0.4c0,0.1,0,0.3,0,0.4
				c0,0.1,0,0.4,0,0.4c0,0.1,0,0.3-0.1,0.4c0,0.1-0.1,0.3-0.1,0.4c0,0.1-0.1,0.3-0.1,0.4c-0.1,0.1-0.1,0.3-0.3,0.3
				c-0.1,0.1-0.3,0.1-0.4,0.1C459.3,207.6,459,207.6,458.9,207.6z M444.6,179.2l2.2-2.2c0.8-0.8,1.6-0.8,2.2-0.1l2.5,2.4
				c0.7,0.7,0.7,1.6-0.1,2.2l-2.2,2.2c-0.7,0.7-1.6,0.7-2.2,0l-2.4-2.5C443.9,180.7,443.9,180,444.6,179.2z"/>
			<path class="st1" d="M458.6,207.6c-0.7,0-1.3-0.3-1.7-0.8c-0.4-0.5-0.5-1.3-0.5-2v-0.2c0-0.8,0.1-1.6,0.4-2c0.4-0.5,1-1,1.8-1
				h8.3c1.9,0,3.5-0.3,4.2-0.5c0.8-0.4,1.3-1.2,1.3-1.8c0-0.1,0-0.3-0.1-0.4c-0.1-0.3-0.3-0.4-0.4-0.8c-0.3-0.4-0.4-0.7-0.8-1.3
				c-0.4-0.4-0.7-1-1.3-1.4l-8.2-9.4c-1-1.2-1.4-2.4-1.4-4.2c0-0.5,0.1-1.2,0.3-1.7c0.1-0.4,0.4-1,0.7-1.3c0.3-0.3,0.7-0.7,1.2-1.2
				c0.4-0.4,1-0.5,1.4-0.7l15.8-5.2l1.3-0.4v1.3v4.6v0.5l-0.5,0.3l-13.1,4.3l7,8.1c2.8,3.5,4.5,6.4,4.5,8.9c0,2.8-1,5.1-2.8,6.5
				c-1.9,1.4-4.9,2-8.6,2h-8.3v0.2H459v-0.2L458.6,207.6L458.6,207.6z"/>
			<path class="st1" d="M518.9,207.6h-18.4c-3.8,0-6.9-1.2-8.8-3.2c-2-2-3-5.1-3-9v-5.1v-0.8h0.8h4.5h0.8v0.8v5.1
				c0,1.9,0.4,3.5,1.4,4.3c0.4,0.4,1.2,0.8,1.7,1.2c0.7,0.3,1.6,0.4,2.5,0.4h18.5c1.9,0,3.5-0.3,4.2-0.7c0.8-0.4,1.3-1.2,1.3-1.9
				c0-0.3-0.3-0.7-0.5-1.4c-0.4-0.7-1.2-1.6-1.9-2.5l-8.2-9.4c-0.4-0.4-0.8-1.3-1.2-1.8c-0.3-0.7-0.4-1.4-0.4-2c0-0.8,0.1-1.6,0.4-2
				c0.3-0.5,0.7-1.3,1.3-1.7c0.5-0.4,1.3-0.8,1.9-1.2l15.7-5.2l1.3-0.4v1.3v4.6v0.5l-0.5,0.1L519,182l13.7,15.7
				c2,2.4,3.8,3.6,5.3,3.6h0.5c0.4,0,0.5,0.1,0.8,0.3c0.3,0.1,0.4,0.4,0.4,0.8c0,0.4,0.1,0.5,0.1,0.8s0,0.4,0,0.8c0,0.1,0,0.1,0,0.1
				v0.3c0,0,0,0.1,0,0.3c0,0.3,0,0.4,0,0.5c0,0.2,0,0.4,0,0.5c0,0.3,0,0.4-0.1,0.5s-0.1,0.4-0.3,0.4c-0.1,0.1-0.3,0.3-0.4,0.4
				c-0.1,0.1-0.4,0.1-0.5,0.1h-0.4c-3.5,0-6.3-1.4-8.8-4.3c-0.3,0.4-0.4,0.8-0.8,1.3c-0.4,0.4-0.7,0.7-1.2,1
				c-0.4,0.3-0.8,0.5-1.3,0.8s-1,0.4-1.4,0.5c-0.4,0.2-1.2,0.4-1.7,0.4c-0.5,0.1-1.3,0.3-1.9,0.3
				C520.2,207.6,519.5,207.6,518.9,207.6z"/>
			<path class="st1" d="M560.3,207.6h-0.4c-3.5,0-6.1-1-7.8-2.8c-1.9,1.9-5,2.8-9,2.8h-4.6c-0.7,0-1.3-0.3-1.7-0.8s-0.5-1.3-0.5-2
				v-0.2c0-0.8,0.1-1.6,0.4-2c0.4-0.5,1-1,1.8-1h4.7c1.3,0,2.4-0.1,3.4-0.4c0.8-0.4,1.4-0.7,1.8-1.3c0.4-0.5,0.5-1.3,0.5-2.2v-6.5
				v-0.9h0.8h4.5h0.8v0.8v6.5c0,1.4,0.4,2.4,1.2,3.2c0.7,0.5,2,1,3.8,1h0.5c0.4,0,0.5,0.1,0.8,0.3c0.3,0.1,0.4,0.4,0.4,0.7
				c0.1,0.4,0.1,0.5,0.1,0.8s0,0.4,0,1c0,0.1,0,0.1,0,0.1v0.3c0,0,0,0.1,0,0.3c0,0.3,0,0.4,0,0.4c0,0.1,0,0.3,0,0.4
				c0,0.3,0,0.4-0.1,0.5c0,0.1-0.1,0.4-0.1,0.4c-0.1,0.1-0.1,0.4-0.3,0.4c-0.1,0.1-0.3,0.3-0.4,0.3
				C560.6,207.6,560.5,207.6,560.3,207.6z M538.2,215.2l2.2-2.2c0.7-0.7,1.4-0.8,2-0.1l2.4,2.4c0.7,0.7,0.7,1.4,0,2l-2.2,2.2
				c-0.7,0.7-1.4,0.7-2,0l-2.4-2.4C537.5,216.5,537.5,215.8,538.2,215.2z M547.3,215.2l2.2-2.2c0.7-0.7,1.4-0.8,2-0.1l2.4,2.4
				c0.7,0.7,0.7,1.4,0,2l-2.2,2.2c-0.7,0.7-1.4,0.7-2,0l-2.5-2.4C546.6,216.5,546.6,215.9,547.3,215.2z"/>
			<path class="st1" d="M578,207.6h-1.3c-2.8,0-5.3-1-7.2-2.8c-1.8,1.9-4.2,2.8-7.1,2.8H560c-0.7,0-1.3-0.3-1.7-0.8s-0.4-1.3-0.4-2
				v-0.2c0-0.8,0.1-1.6,0.4-2c0.4-0.5,1-1,1.8-1h2.4c0.7,0,1.4-0.1,1.9-0.3c0.4-0.1,1-0.4,1.3-0.7c0.4-0.4,0.5-0.7,0.7-1.3
				c0.1-0.4,0.3-1.2,0.3-1.7V175v-0.9h0.8h4.2h0.8v0.8v22.8c0,1.3,0.4,2.2,1.2,2.8c0.7,0.5,1.8,1,3.5,1h1c0.4,0,0.5,0.1,0.8,0.3
				c0.3,0.3,0.4,0.4,0.4,0.8c0,0.4,0.1,0.5,0.1,0.8s0,0.4,0,1c0,0.1,0,0.1,0,0.1v0.3v0.1c0,0.3,0,0.4,0,0.5s0,0.4,0,0.5
				c0,0.3,0,0.4-0.1,0.5s-0.1,0.4-0.3,0.4c-0.1,0.1-0.3,0.3-0.4,0.4C578.4,207.6,578.2,207.6,578,207.6z"/>
			<path class="st1" d="M577.6,207.6c-0.7,0-1.3-0.3-1.7-0.8s-0.5-1.3-0.5-2v-0.2c0-0.8,0.1-1.6,0.4-2c0.4-0.5,1-1,1.8-1h8.3
				c1.9,0,3.5-0.3,4.2-0.5c0.8-0.4,1.3-1.2,1.3-1.8c0-0.1,0-0.3-0.1-0.4c-0.1-0.3-0.3-0.4-0.4-0.8c-0.3-0.4-0.4-0.7-0.8-1.3
				c-0.4-0.4-0.7-1-1.3-1.4l-8.2-9.4c-1-1.2-1.4-2.4-1.4-4.2c0-0.5,0.1-1.2,0.3-1.7c0.1-0.4,0.4-1,0.7-1.3s0.7-0.7,1.2-1.2
				c0.4-0.4,1-0.5,1.4-0.7l15.8-5.2l1.3-0.4v1.3v4.6v0.5l-0.5,0.3l-13.1,4.3l7,8.1c2.8,3.5,4.5,6.4,4.5,8.9c0,2.8-1,5.1-2.8,6.5
				s-4.9,2-8.6,2h-8.3v0.2h-0.5v-0.2h0.1v-0.2L577.6,207.6L577.6,207.6z"/>
		</g>
	</g>
</g>
<g>
	<g>
		<path class="st1" d="M234.7,101.4c-0.5,0.3-1.2,0.5-1.7,0.7c-0.7,0.3-1.7,0.3-2.7,0.5c-0.7,0-1.9,0.3-3,0.3h-14
			c-3.2,0-5.5-0.7-7.1-2.5c-1.7-1.7-2.5-4.2-2.5-7.4v-4.2v-0.7h0.7h3.8h0.7v0.7V93c0,1.7,0.3,2.7,1.2,3.5c0.7,0.7,1.9,1.2,3.5,1.2
			h14.8c-0.7-1.2-1.2-2.7-1.2-4.5c0-1.2,0.3-2.2,0.5-3.2c0.3-0.7,0.7-1.7,1.7-2.7c1.7-1.5,3.5-2.2,5.8-2.2c2.2,0,4.2,0.7,5.8,2.2
			c0.7,0.7,1.2,1.7,1.7,2.7c0.3,0.7,0.5,2.2,0.5,3.2c0,1.7-0.3,3.2-1.2,4.5h3.2c0.3,0,0.3,0,0.5,0S246,98,246,98
			c0,0.3,0.3,0.3,0.3,0.3s0,0.3,0,0.5s0,0.3,0,0.3v0.3c0,0,0,0,0,0.3v0.3c0,0,0,0,0,0.3s0,0.3,0,0.5c0,0,0,0.3,0,0.5
			c0,0.3,0,0.3,0,0.5c0,0,0,0.3-0.3,0.3c0,0.3-0.3,0.3-0.3,0.3c-0.3,0-0.3,0-0.5,0h-3C239,103,236.8,102.1,234.7,101.4z M231.4,77.7
			l1.7-1.7c0.5-0.5,1.2-0.7,1.7,0l2.2,2c0.5,0.5,0.5,1.2,0,1.7l-1.7,1.7c-0.5,0.5-1.2,0.5-1.7,0l-1.9-2.2
			C230.6,78.9,230.6,78.3,231.4,77.7z M231.4,93.3c0,0.7,0.3,1.5,0.7,2.2c0.5,0.5,1.2,0.7,2.2,0.7c1.2,0,1.7-0.3,2.2-0.7
			c0.5-0.5,0.7-1.2,0.7-2.2s-0.3-1.5-0.7-2.2c-0.3-0.3-0.5-0.5-0.7-0.7c-0.3-0.3-0.7-0.3-1.2-0.3c-0.3,0-0.7,0-1.2,0.3
			c-0.3,0.3-0.7,0.3-0.7,0.7c-0.3,0.3-0.5,0.5-0.7,0.7c0,0.3,0,0.3-0.3,0.5C231.4,92.9,231.4,92.9,231.4,93.3z"/>
		<path class="st1" d="M262.5,103h-0.3c-2.7,0-4.9-0.7-6.5-2.2c-1.7,1.7-4.2,2.2-7.4,2.2h-3.8c-0.5,0-1-0.3-1.2-0.7
			c-0.3-0.3-0.3-1-0.3-1.7v-0.4c0-0.7,0-1.2,0.3-1.7c0.3-0.7,0.7-0.7,1.5-0.7h3.8c1,0,1.9,0,2.7-0.3c0.7-0.3,1.2-0.5,1.5-1
			c0.3-0.3,0.3-1,0.3-1.7v-5.5v-0.5h0.7h3.8h0.7v0.7V95c0,1.2,0.3,1.9,0.7,2.5c0.5,0.5,1.7,0.7,3,0.7h0.3c0.3,0,0.5,0,0.7,0.3
			c0.3,0.3,0.3,0.3,0.3,0.5c0.3,0.3,0,0.5,0,0.7c0,0.3,0,0.3,0,0.7c0,0,0,0,0,0.3v0.3c0,0,0,0,0,0.3s0,0.3,0,0.3v0.3v0.3
			c0,0,0,0.3-0.3,0.3c0,0.3-0.3,0.3-0.3,0.3L262.5,103C263,103,262.7,103,262.5,103z M244.7,108.9l1.7-1.7c0.5-0.5,1.2-0.5,1.7,0
			l1.9,1.9c0.5,0.5,0.5,1.2,0,1.7l-1.7,1.7c-0.5,0.5-1.2,0.5-1.7,0l-1.9-1.9C244,110,244,109.6,244.7,108.9z M252.1,108.9l1.7-1.7
			c0.5-0.5,1.2-0.5,1.7,0l1.9,1.9c0.5,0.5,0.5,1.2,0,1.7l-1.7,1.7c-0.5,0.5-1.2,0.5-1.7,0l-2.2-1.9
			C251.4,110,251.8,109.6,252.1,108.9z"/>
		<path class="st1" d="M283.9,103h-2.7c-1.2,0-2.7-0.3-3.8-0.3c-1,0-2.2-0.5-3.5-1.2c-2.2,1-4.9,1.7-7.4,1.7h-3.8
			c-0.5,0-1-0.3-1.2-0.7c-0.3-0.3-0.3-1-0.3-1.7v-0.3c0-0.7,0.3-1.2,0.3-1.7c0.3-0.3,0.7-0.7,1.2-0.7h4.8c-0.7-1.2-1.2-2.7-1.2-4.5
			c0-2.2,0.7-4.2,2.2-5.8c1.7-1.5,3.5-2.2,5.8-2.2c2.2,0,4.2,0.7,5.8,2.2c0.3,0.3,0.7,0.7,0.7,1.2c0.3,0.5,0.5,0.7,0.7,1.2
			c0.3,0.3,0.3,0.7,0.3,1.5c0,0.7,0.3,1,0.3,1.7s0,1.7-0.3,2.2c-0.3,0.7-0.5,1.5-0.7,2.2h3.2c0.3,0,0.3,0,0.5,0s0.3,0.3,0.3,0.3
			c0,0.3,0.3,0.3,0.3,0.3s0,0.3,0,0.5s0,0.3,0,0.3v0.3c0,0,0,0,0,0.3v0.3c0,0,0,0,0,0.3s0,0.3,0,0.3v0.3c0,0.3,0,0.3,0,0.3v0.3
			c0,0.3,0,0.3-0.3,0.3l-0.3,0.3l-0.3,0.3C284.2,103,283.9,103,283.9,103z M270.6,77.7l1.7-1.7c0.5-0.5,1.2-0.7,1.7,0l2.2,1.9
			c0.5,0.5,0.5,1.2,0,1.7l-1.7,1.7c-0.5,0.5-1.2,0.5-1.7,0l-1.9-2.2C270.2,78.9,270.2,78.3,270.6,77.7z M270.6,93.3
			c0,0.7,0.3,1.5,0.7,2.2c0.7,0.7,1.2,0.7,2.2,0.7s1.7-0.3,2.2-0.7c0.5-0.5,0.7-1.2,0.7-2.2s-0.3-1.5-0.7-2.2
			c-0.3-0.3-0.5-0.5-0.7-0.7c-0.3-0.3-0.7-0.3-1.2-0.3c-0.3,0-0.7,0-1.2,0.3c-0.3,0.3-0.7,0.3-0.7,0.7l-0.3,0.3l-0.3,0.3
			c0,0,0,0.3-0.3,0.3v0.3v0.3C270.6,92.9,270.6,92.9,270.6,93.3z"/>
		<path class="st1" d="M302.1,99.2l-1.7,0.7c-3.2,1.7-6.5,2.5-10.2,2.5h-6.4c-0.5,0-1-0.3-1.2-0.7c-0.3-0.5-0.3-1-0.3-1.7v-0.3
			c0-0.7,0-1.2,0.3-1.7c0.3-0.7,0.7-0.7,1.5-0.7h6.1c1.5,0,2.7-0.3,4.2-0.3c1.2-0.3,2.5-0.7,3.8-1.2l4.8-2.2l-2.7-1.7
			c-1.7-0.7-3.2-1.5-4.9-1.5c-1.5,0-2.7,0.5-4.5,1.7l-1.5,1.2l-0.5,0.3l-0.3-0.5l-2.2-2.7l-0.5-0.5l0.5-0.3l1.2-1
			c2.2-1.7,4.8-3,7.1-3.2c2.2-0.3,4.9,0.3,7.4,1.7l3.8,2.2c0.3,0.3,0.7,0.3,1.2,0.7c0.3,0.3,0.7,0.3,1.2,0.3c0.3,0,0.7,0.3,1,0.3
			h0.5v0.5v3.8v0.3l-0.3,0.3l-2.2,1.2c0.7,0.3,1.7,0.7,2.7,0.7h2.5c0.3,0,0.5,0,0.7,0.3c0.3,0.3,0.3,0.3,0.3,0.5c0,0.4,0,0.5,0,0.7
			c0,0.3,0,0.3,0,0.7c0,0,0,0,0,0.3v0.3c0,0.5,0,1.2-0.3,1.5c-0.3,0.5-0.5,0.7-1,0.7H310c-1.5,0-2.7-0.3-4.2-0.7
			C304,101.4,302.6,100.4,302.1,99.2z M292.6,77.3l1.7-1.7c0.5-0.5,1.2-0.7,1.7,0l2.2,1.9c0.5,0.5,0.5,1.2,0,1.7l-1.7,1.7
			c-0.5,0.5-1.2,0.5-1.7,0l-1.9-2.2C291.8,78.3,291.8,77.7,292.6,77.3z"/>
		<path class="st1" d="M311.5,103c-0.5,0-1-0.3-1.2-0.7c-0.3-0.3-0.3-1-0.3-1.7v-0.4c0-0.7,0.3-1.2,0.3-1.7c0.3-0.3,0.7-0.7,1.2-0.7
			h4.9c1.2,0,2.2-0.3,2.7-0.7c0.5-0.5,0.7-1.2,0.7-2.5v-5.8v-0.7h0.7h3.5h0.7v0.7v5.8c0,2.7-0.7,4.9-2.2,6.1s-3.5,2.2-6.1,2.2
			L311.5,103L311.5,103L311.5,103z M312.3,79.6l1.7-1.7c0.5-0.5,1.2-0.5,1.7,0l1.9,1.9c0.5,0.5,0.5,1.2,0,1.7l-1.7,1.7
			c-0.5,0.5-1.2,0.5-1.7,0l-1.9-1.9C311.8,80.7,311.8,80.3,312.3,79.6z M319.6,79.6l1.7-1.7c0.5-0.5,1.2-0.5,1.7,0l1.9,1.9
			c0.5,0.5,0.5,1.2,0,1.7l-1.7,1.7c-0.5,0.5-1.2,0.5-1.7,0l-2.2-1.9C319.2,80.7,319.2,80.3,319.6,79.6z"/>
		<path class="st1" d="M334.3,77.7c0-1.2,0.3-2.2,1.5-3c0.7-0.7,1.9-1.2,3.2-1.2s2.2,0.3,3.2,1.2c0.3,0.3,0.3,0.3,0.5,0.5
			c0.4,0.4,0.3,0.5,0.3,0.7c0.3,0.3,0.3,0.5,0.3,0.7c0.3,0.3,0.3,0.5,0.3,0.7c0,0.3,0,0.7-0.3,1c0,0.3-0.3,0.3-0.3,0.3
			c0,0.3-0.3,0.3-0.3,0.3c-0.3,0.3-0.3,0.3-0.3,0.3c-0.3,0.3-0.3,0.5-0.7,0.7c-0.7,0.7-1.9,1.2-3.2,1.2c-1.2,0-2.2-0.3-3.2-1.2
			c-0.3-0.3-0.7-0.7-1-1.5C334.3,78.9,334.3,78.4,334.3,77.7z M352.1,72.3l3.8,1.9l0.7,0.3l-16.7,29.3l-0.7-0.3l-3.5-1.9l-0.7-0.3
			l16.7-29.1C351.3,72.3,352.1,72.3,352.1,72.3z M348.7,96.7L348.7,96.7L348.7,96.7v-0.2v-0.3V96v-0.3c0-0.3,0-0.3,0.3-0.3
			c0-0.3,0-0.3,0-0.3v-0.3c0-0.3,0.3-0.3,0.3-0.3l0.3-0.3c0-0.3,0-0.3,0.3-0.3c0.3-0.3,0.3-0.3,0.3-0.3l0.3-0.3l0.3-0.3l0.3-0.3
			l0.3-0.3c0.3-0.3,0.3-0.3,0.3-0.3c0.7-0.7,1.9-1.2,3.2-1.2c0.3,0,0.7,0.3,1,0.3s0.3,0.3,0.5,0.3c0.3,0,0.3,0.3,0.3,0.3
			s0.3,0,0.3,0.3c0.3,0,0.3,0.3,0.3,0.3c0.3,0.3,0.5,0.3,0.7,0.7c0.7,0.7,1.5,1.9,1.5,3c0,1-0.3,2.2-1.5,3c-0.3,0.3-0.7,0.7-1.5,0.7
			c-0.5,0.3-1,0.3-1.7,0.3c-1.2,0-2.2-0.3-3.2-1.2C349.3,99,348.7,97.7,348.7,96.7z"/>
	</g>
	<g>
		<path class="st1" d="M380.2,89.2c-1.1,0-2-0.1-3.1-0.4c-1-0.2-1.9-0.5-2.8-1c0.2,1.6,0.4,3.1,0.4,4.6c0.1,1.5,0.2,2.8,0.3,4.2
			c0.1,1.4,0.1,2.7,0.1,4.1s0,2.6,0,3.9h-6.7c0-3-0.1-5.8-0.2-8.8c-0.1-2.8-0.4-5.7-0.7-8.2c-0.4-2.7-0.9-5.1-1.6-7.5
			c-0.7-2.3-1.6-4.5-2.8-6.3l5.8-3.6c0.5,0.8,0.9,1.5,1.3,2.2c0.4,0.6,0.7,1.4,1.1,2c0.5-0.8,1.2-1.5,1.9-2c0.7-0.5,1.5-1.1,2.3-1.4
			c0.8-0.4,1.6-0.6,2.6-0.8c0.9-0.2,1.8-0.3,2.7-0.3c0.6,0,1.2,0.1,1.9,0.2c0.6,0.1,1.2,0.3,1.9,0.5c0.6,0.3,1.2,0.5,1.9,0.9
			s1.2,0.8,1.9,1.4l-3.5,5.6c0,0-0.2-0.1-0.4-0.3c-0.3-0.2-0.5-0.4-1.1-0.5c-0.5-0.2-1-0.4-1.6-0.5c-0.6-0.2-1.3-0.3-2-0.3
			c-0.6,0-1.2,0.1-1.9,0.4c-0.6,0.3-1.2,0.5-1.7,0.9s-0.9,0.7-1.2,1.2c-0.4,0.4-0.4,0.8-0.4,1.2l0,0c0.1,0.5,0.4,0.8,0.7,1.2
			c0.4,0.4,0.9,0.5,1.6,0.6c0.6,0.2,1.2,0.4,1.8,0.4c0.6,0.1,1.2,0.1,1.7,0.1s1.1,0,1.6-0.1s1.2-0.2,1.8-0.4
			c0.5-0.2,1.2-0.4,1.8-0.5c0.5-0.2,1.2-0.5,1.6-0.8l2.7,5.3c-1.7,1.2-3.5,2.1-5,2.6C383.2,88.9,381.7,89.2,380.2,89.2z"/>
		<path class="st1" d="M390.7,91.2c0-1.2,0.3-2.1,0.6-3.3c0.4-1,1-1.9,1.7-2.7c0.7-0.7,1.6-1.3,2.6-1.7c1-0.4,2-0.6,3.3-0.6
			c1.2,0,2.1,0.3,3.3,0.6c1,0.4,1.9,1,2.7,1.7c0.7,0.7,1.3,1.6,1.7,2.7s0.6,2,0.6,3.3c0,1.2-0.3,2.2-0.6,3.3c-0.4,1-1,1.8-1.7,2.6
			c-0.7,0.7-1.6,1.3-2.7,1.7c-1,0.4-2,0.6-3.3,0.6c-1.2,0-2.2-0.3-3.3-0.6c-1-0.4-1.8-1-2.6-1.7c-0.7-0.7-1.3-1.6-1.7-2.6
			C390.9,93.4,390.7,92.3,390.7,91.2z M395.6,91.2c0,0.4,0.1,0.9,0.3,1.2c0.2,0.4,0.4,0.7,0.6,1.1c0.4,0.4,0.6,0.5,1.1,0.6
			c0.4,0.2,0.8,0.3,1.2,0.3c0.4,0,0.9-0.1,1.2-0.3c0.4-0.2,0.7-0.4,1.1-0.6c0.4-0.4,0.5-0.6,0.7-1.1c0.2-0.4,0.3-0.8,0.3-1.2
			c0-0.4-0.1-0.9-0.3-1.2c-0.2-0.4-0.4-0.7-0.7-1.1c-0.4-0.4-0.6-0.5-1.1-0.7c-0.4-0.2-0.8-0.3-1.2-0.3c-0.4,0-0.9,0.1-1.2,0.3
			c-0.4,0.2-0.7,0.4-1.1,0.7c-0.4,0.4-0.5,0.6-0.6,1.1C395.7,90.2,395.6,90.7,395.6,91.2z"/>
	</g>
</g>
<g>
	<path class="st2" d="M355.7,242.7H273c-6.9,0-12.4-5.6-12.4-12.4v-70.2c0-6.9,5.6-12.4,12.4-12.4h82.6c6.9,0,12.4,5.6,12.4,12.4
		v70.2C368,237.2,362.6,242.7,355.7,242.7z"/>
	<path class="st1" d="M355.7,244.2H273c-7.6,0-13.8-6.5-13.8-14.8v-68.6c0-8.1,6.2-14.8,13.8-14.8h82.6c7.6,0,13.8,6.5,13.8,14.8
		v68.7C369.5,237.7,363.3,244.2,355.7,244.2z M273,149.3c-6.1,0-11,5.3-11,11.8v68.6c0,6.5,5,11.8,11,11.8h82.6
		c6.1,0,11-5.3,11-11.8V161c0-6.5-5-11.8-11-11.8L273,149.3L273,149.3z"/>
</g>
<g>
	<g>
		<path class="st1" d="M293.3,218.6c0.5,1,1.1,1.8,1.4,2.8c0.3,0.5,0.4,1.7,1.8,1.7c0.4,0,1-0.1,1.5-0.4c0.5-0.3,1.1-0.8,1.2-1.4
			l0.5-1.8l1.3-0.6l0.1,0.1c-0.2,0.6-0.2,1.3-0.2,1.9c0,1.5,1.3,2,2.4,2c0.5,0,1.2-0.3,1.2-0.9c0-0.8-0.3-1.9-0.6-3
			c0.5-0.5,1.2-1.2,1.9-1.7l0.1,0.1c0.3,1.3,0.4,2.6,0.4,3.4s-0.4,1.8-0.6,2.4c-0.6,1.2-1.8,2.1-3.1,2.1c-1.1,0-2.1-0.5-2.9-1.5l0,0
			c-0.8,1-1.9,1.7-3.6,1.7h-0.5c-0.1,1.2-0.4,2-0.8,2.8c-1.2,2.1-4.3,3.6-7.3,3.6c-4.2,0-6.3-2.5-6.3-5.7c0-1.9,0.6-3.9,1.7-5.1
			l0.9,0.4c-0.6,1.2-1.1,2.4-1.1,3.5c0,3,2.5,4.5,5.3,4.5c2.7,0,5.9-1.7,6.5-3.6c-0.2-2.1-1.1-3.1-2.3-5c0.4-0.6,0.9-1.3,1.4-1.9
			h-0.1L293.3,218.6L293.3,218.6z"/>
		<path class="st1" d="M309,216.3l1.5,2.6c0.5,1,1.2,1.9,1.2,3.5v2c0,1.7-1.1,3.4-2.7,5.1c-1.3,1.2-2.6,1.7-3.5,1.7
			c-1.6,0-3.5-0.4-5.7-1.4l0.3-0.6c0.6,0.2,1.5,0.4,2.5,0.4c3.1,0,6.2-2.3,7.6-5c0.2-0.3,0.3-0.5,0.3-0.9c0-0.3-0.2-0.6-0.3-1
			c-0.8-1.5-1.7-2.8-2.7-4.1C307.9,217.8,308.5,217,309,216.3L309,216.3z"/>
		<path class="st1" d="M313.5,220.8c0.1,1.6,0.9,2.8,3.5,2.8c1.7,0,3.1-0.4,4.7-1.2c0.3-0.1,0.4-0.3,0.4-0.4c0-1.1-0.8-2.4-2-3.5
			c-1.2-1.2-2.9-2.1-4.4-2.8c-0.5-0.2-0.6-0.4-0.6-0.6c0-0.4,0.5-1.4,1.2-2h0.2c1.8,1,3.8,2.3,5.1,3.9c1.3,1.4,2.1,2.8,2.1,4.4
			c0,1.2-0.4,2.3-1,3.2c-1.9,1-4.1,1.7-6,1.7c-2.5,0-4.2-1.2-4.2-4c0-0.3,0-0.8,0.1-1.3L313.5,220.8L313.5,220.8z"/>
		<path class="st1" d="M326.5,226.2c0.2-1.2,0.3-2.5,0.3-3.6v-1.8c0-3.4-0.4-8.3-0.8-11.5c0.5-0.6,1.5-1.4,2.1-1.9l0.2,0.1
			c0.4,4.1,0.5,8.8,0.5,13.1c0,1.2,0,2.3-0.2,3c-0.1,1.1-0.6,1.8-1.9,3L326.5,226.2z"/>
		<path class="st1" d="M332,219.5c1.2,2.6,2.4,4.1,4.9,4.1h0.4v2.4h-0.4c-1,0-1.7-0.2-2.1-0.5h-0.1c0,0.2,0,0.4,0,0.6
			c0,0.9-0.3,1.9-0.9,2.9c-1.7,2.6-3.5,3.6-5.1,3.6s-3.6-0.6-5.5-1.4l0.3-0.6c0.5,0.3,1.4,0.4,2.6,0.4c2.9,0,6.8-2.8,7.3-5.6
			c-0.1-0.2-0.3-0.5-0.5-0.9c-0.9-1.1-1.4-1.9-1.9-2.7C331.2,220.8,331.7,220.2,332,219.5L332,219.5z"/>
		<path class="st1" d="M341.9,207.2c0.9,0.5,1.8,1.2,2.7,1.9c-0.4,0.6-1.1,1.3-1.8,1.8c-0.9-0.6-1.7-1.3-2.6-1.9
			C340.7,208.4,341.4,207.8,341.9,207.2z M342.4,215.5c-1.4,0-2.7,1-2.7,1.7c0,1.5,2.9,1.9,6.3,1.9
			C345.6,217.3,344.1,215.5,342.4,215.5z M339.1,223.4c1.9,0,3.5-0.1,4.7-0.4c1.4-0.4,2.6-1.1,2.6-1.5c0-0.1,0-0.3,0-0.4
			c-0.8,0.1-1.7,0.1-2.5,0.1c-2.6,0-4.4-0.5-5.3-1.9c-0.2-0.4-0.3-0.9-0.3-1.3c0-1.4,0.5-2.7,1.6-3.6c0.9-0.8,1.8-1.2,2.8-1.2
			c1.8,0,3.2,1.4,4.2,3.6c0.5,1.2,1,2.7,1,4.4c0,1.2-0.3,2.1-1.1,2.9c-1.4,1.3-3.9,1.8-7.8,1.8h-1.8c-1.2,0-1.5-0.8-1.5-1.2
			s0.4-1.2,1.5-1.2L339.1,223.4L339.1,223.4z"/>
	</g>
	<g>
		<path class="st1" d="M313.8,194.7c0-0.4-0.4-1.2-1.2-1.6c-1.2-0.9-2.5-1.6-3.6-2.4c-0.6-0.4-1.2-0.3-1.2,0.1
			c-0.1,0.9-0.1,1.7-0.2,2.6c0,0.4,0.4,1.2,1.2,1.5c1.3,0.8,2.6,1.5,3.8,2.4c0.6,0.4,1.2,0.4,1.2,0
			C313.8,196.4,313.8,195.5,313.8,194.7z"/>
		<path class="st1" d="M306.7,195c0-0.4-0.4-1.2-1.2-1.4c-1.3-0.6-2.7-1.3-4-1.9c-0.6-0.3-1.3-0.2-1.3,0.3c-0.1,0.9-0.2,1.7-0.3,2.6
			c-0.1,0.4,0.4,1.1,1.2,1.3c1.4,0.5,2.7,1.2,4.2,1.9c0.6,0.4,1.3,0.3,1.3-0.2C306.6,196.7,306.6,195.9,306.7,195z"/>
		<path class="st1" d="M313.8,199.4c0-0.4-0.4-1.2-1.2-1.6c-1.2-0.9-2.6-1.6-3.8-2.4c-0.6-0.4-1.2-0.3-1.2,0.1
			c-0.1,0.9-0.1,1.7-0.2,2.6c0,0.4,0.4,1.2,1.2,1.5c1.3,0.8,2.7,1.5,4,2.4c0.6,0.4,1.2,0.4,1.2,0
			C313.8,201.2,313.8,200.3,313.8,199.4z"/>
		<path class="st1" d="M320.8,190.8c0-0.4-0.5-0.4-1.2-0.1c-1.2,0.8-2.5,1.5-3.6,2.4c-0.5,0.4-1.2,1.2-1.2,1.6c0,0.9,0,1.7,0,2.6
			c0,0.4,0.4,0.4,1.2,0c1.2-0.9,2.6-1.6,3.8-2.4c0.6-0.4,1.2-1.1,1.2-1.5C320.9,192.5,320.8,191.7,320.8,190.8z"/>
		<path class="st1" d="M321,195.5c0-0.4-0.5-0.4-1.2-0.1c-1.3,0.8-2.6,1.5-3.8,2.4c-0.6,0.4-1.2,1.2-1.2,1.6c0,0.9,0,1.7,0,2.6
			c0,0.4,0.5,0.4,1.2,0c1.3-0.9,2.7-1.6,4-2.4c0.6-0.4,1.2-1.1,1.2-1.5C321.1,197.3,321.1,196.4,321,195.5z"/>
		<path class="st1" d="M328.4,191.9c-0.1-0.4-0.6-0.5-1.3-0.3c-1.3,0.5-2.7,1.2-4,1.9c-0.6,0.4-1.2,1.1-1.2,1.4
			c0.1,0.9,0.1,1.7,0.2,2.6c0,0.4,0.5,0.4,1.3,0.2c1.3-0.6,2.7-1.3,4.2-1.9c0.8-0.3,1.2-1,1.2-1.3
			C328.6,193.6,328.5,192.8,328.4,191.9z"/>
		<path class="st3" d="M348.1,176.8c-0.2-0.4-0.8-0.8-1.4-0.6c-1.2,0.1-2.6,0.3-3.8,0.4c-0.6,0.1-1.1,0.5-1,1
			c0.2,0.9,0.4,1.7,0.6,2.5c0.1,0.4,0.8,0.6,1.4,0.5c1.3-0.2,2.7-0.4,4-0.5c0.6-0.1,1.2-0.4,1-0.9
			C348.6,178.5,348.3,177.7,348.1,176.8z M308.2,171.2c0-0.4-0.4-1.2-1-1.4c-1.1-0.6-2-1.3-3.1-1.9c-0.5-0.3-1.1-0.2-1.1,0.3
			c-0.1,0.9-0.2,1.7-0.3,2.6c-0.1,0.4,0.4,1.1,1,1.3c1.2,0.5,2.1,1.2,3.3,1.9c0.5,0.4,1.1,0.3,1.1-0.2
			C308.1,172.9,308.2,172.1,308.2,171.2z M285.4,182.3c0.1-0.4-0.4-0.9-1.1-1.1c-1.3-0.2-2.7-0.4-4-0.5c-0.6-0.1-1.3,0.2-1.5,0.6
			c-0.3,0.9-0.5,1.6-0.9,2.5c-0.2,0.4,0.3,0.9,1.1,0.9c1.3,0.2,2.7,0.4,4.1,0.5c0.6,0.1,1.3-0.1,1.5-0.5
			C285,184,285.2,183.1,285.4,182.3z M286.7,177.7c0.1-0.4-0.3-0.9-1-1c-1.2-0.2-2.6-0.4-3.8-0.4c-0.6-0.1-1.3,0.3-1.4,0.6
			c-0.3,0.9-0.5,1.6-0.9,2.5c-0.2,0.4,0.3,0.8,1,0.9c1.3,0.1,2.7,0.3,4,0.5c0.6,0.1,1.3-0.1,1.4-0.5
			C286.3,179.4,286.5,178.5,286.7,177.7z M288,173.1c0.1-0.4-0.3-0.9-0.9-1c-1.2-0.2-2.4-0.4-3.5-0.4c-0.5-0.1-1.2,0.3-1.4,0.6
			c-0.3,0.9-0.5,1.6-0.9,2.5c-0.2,0.4,0.3,0.8,0.9,0.9c1.2,0.1,2.6,0.3,3.8,0.4c0.6,0.1,1.2-0.1,1.4-0.5
			C287.5,174.8,287.8,173.9,288,173.1z M289.3,168.4c0.1-0.4-0.3-0.9-0.9-1c-1.2-0.2-2.3-0.3-3.4-0.4c-0.5,0-1.2,0.3-1.3,0.6
			c-0.3,0.9-0.5,1.6-0.9,2.5c-0.2,0.4,0.2,0.8,0.9,0.9c1.2,0.1,2.4,0.3,3.5,0.4c0.5,0.1,1.2-0.2,1.3-0.5
			C288.8,170.2,289,169.3,289.3,168.4z M290.6,163.8c0.1-0.4-0.2-0.9-0.8-1c-1.2-0.2-2.1-0.3-3.3-0.4c-0.5,0-1.2,0.3-1.2,0.6
			c-0.3,0.9-0.5,1.6-0.9,2.5c-0.2,0.4,0.2,0.8,0.8,0.9c1.2,0.1,2.3,0.2,3.4,0.4c0.5,0.1,1.2-0.2,1.2-0.5
			C290.1,165.5,290.3,164.7,290.6,163.8z M296.6,165.4c0.1-0.4-0.3-1-0.9-1.2c-1.1-0.4-2.1-0.6-3.2-0.9c-0.5-0.1-1.2,0.1-1.2,0.5
			c-0.2,0.9-0.4,1.7-0.6,2.5c-0.1,0.4,0.3,0.9,0.9,1.1c1.2,0.3,2.3,0.5,3.4,1c0.5,0.2,1.2,0,1.2-0.4
			C296.2,167.2,296.5,166.3,296.6,165.4z M294.6,174.8c0.1-0.4-0.4-1-1-1.2c-1.2-0.4-2.4-0.6-3.5-1c-0.5-0.1-1.2,0.1-1.3,0.5
			c-0.2,0.9-0.4,1.7-0.6,2.5c-0.1,0.4,0.3,0.9,1,1.1c1.2,0.3,2.5,0.6,3.8,1c0.6,0.2,1.2,0,1.3-0.4
			C294.3,176.5,294.4,175.6,294.6,174.8z M301.2,177.4c0.1-0.4-0.4-1.1-1-1.3c-1.2-0.4-2.4-1-3.5-1.4c-0.5-0.2-1.2,0-1.2,0.4
			c-0.2,0.9-0.3,1.7-0.4,2.6c-0.1,0.4,0.4,1,1.1,1.2c1.2,0.4,2.5,1,3.6,1.4c0.6,0.3,1.2,0.1,1.2-0.3
			C301.1,179.1,301.2,178.2,301.2,177.4z M302.6,167.9c0.1-0.4-0.4-1.1-0.9-1.2c-1.1-0.4-2.1-1-3.2-1.3c-0.5-0.2-1.1,0-1.2,0.4
			c-0.2,0.9-0.3,1.7-0.4,2.6c-0.1,0.4,0.3,1,0.9,1.2c1.2,0.4,2.3,0.9,3.3,1.4c0.5,0.3,1.1,0.1,1.2-0.3
			C302.2,169.6,302.4,168.8,302.6,167.9z M327.9,187.2c-0.1-0.4-0.6-0.5-1.3-0.3c-1.3,0.5-2.6,1.2-3.8,1.9c-0.6,0.4-1.2,1.1-1.2,1.4
			c0.1,0.9,0.1,1.7,0.2,2.6c0,0.4,0.5,0.4,1.2,0.2c1.3-0.6,2.7-1.3,4-1.9c0.6-0.3,1.2-1,1.2-1.3C328,188.9,328,188,327.9,187.2z
			 M327.2,182.5c-0.1-0.4-0.5-0.5-1.2-0.3c-1.2,0.5-2.5,1.2-3.6,1.9c-0.6,0.4-1.2,1.1-1.1,1.4c0.1,0.9,0.1,1.7,0.2,2.6
			c0,0.4,0.5,0.4,1.2,0.2c1.2-0.6,2.6-1.3,3.8-1.9c0.6-0.3,1.2-0.9,1.1-1.3C327.4,184.2,327.3,183.3,327.2,182.5z M326.6,177.8
			c-0.1-0.4-0.5-0.5-1.2-0.3c-1.2,0.5-2.4,1.2-3.5,1.9c-0.5,0.4-1.1,1-1.1,1.4c0.1,0.9,0.1,1.7,0.2,2.6c0,0.4,0.5,0.4,1.2,0.2
			c1.2-0.6,2.5-1.3,3.5-1.9c0.6-0.3,1.1-0.9,1.1-1.3C326.8,179.5,326.7,178.6,326.6,177.8z M326,172.9c-0.1-0.4-0.5-0.5-1.2-0.3
			c-1.2,0.5-2.1,1.2-3.3,1.9c-0.5,0.4-1,1-1,1.4c0.1,0.9,0.1,1.7,0.2,2.6c0,0.4,0.5,0.4,1.2,0.2c1.2-0.6,2.3-1.3,3.5-1.9
			c0.5-0.3,1.1-0.9,1-1.3C326.2,174.7,326.1,173.8,326,172.9z M325.5,168.2c-0.1-0.4-0.5-0.5-1.1-0.3c-1.1,0.5-2,1.2-3.1,1.9
			c-0.5,0.4-1,1-1,1.4c0.1,0.9,0.1,1.7,0.2,2.6c0,0.4,0.4,0.4,1.1,0.2c1.2-0.6,2.1-1.3,3.3-1.9c0.5-0.3,1-0.9,1-1.3
			C325.7,169.9,325.6,169.1,325.5,168.2z M331.4,165.8c-0.1-0.4-0.5-0.6-1.2-0.4c-1.1,0.4-2.1,0.9-3.2,1.3c-0.5,0.3-1,0.9-0.9,1.2
			c0.1,0.9,0.2,1.7,0.4,2.6c0.1,0.4,0.5,0.5,1.2,0.3c1.2-0.4,2.3-1,3.3-1.4c0.5-0.2,1-0.8,0.9-1.2
			C331.7,167.4,331.5,166.6,331.4,165.8z M335,184.4c-0.1-0.4-0.6-0.5-1.3-0.4c-1.3,0.4-2.7,1-3.9,1.5c-0.6,0.3-1.2,0.9-1.2,1.3
			c0.1,0.9,0.2,1.7,0.4,2.6c0.1,0.4,0.6,0.5,1.3,0.3c1.3-0.5,2.7-1.1,4.1-1.5c0.6-0.2,1.2-0.8,1.2-1.2
			C335.4,186.1,335.1,185.3,335,184.4z M342.3,182.5c-0.1-0.4-0.8-0.6-1.4-0.4c-1.3,0.3-2.7,0.6-4,1.1c-0.6,0.2-1.2,0.8-1.1,1.2
			c0.2,0.9,0.4,1.7,0.4,2.6c0.1,0.4,0.8,0.5,1.4,0.4c1.3-0.4,2.7-0.8,4.1-1.1c0.6-0.2,1.2-0.6,1.1-1.1
			C342.7,184.2,342.6,183.3,342.3,182.5z M337.3,164c-0.1-0.4-0.6-0.6-1.2-0.5c-1.1,0.3-2.1,0.5-3.2,0.9c-0.5,0.2-1,0.6-0.9,1.2
			c0.2,0.9,0.4,1.7,0.4,2.6c0.1,0.4,0.6,0.6,1.2,0.4c1.2-0.4,2.3-0.6,3.4-1c0.5-0.1,1-0.5,0.9-1.1
			C337.8,165.8,337.6,164.9,337.3,164z M345,167.8c-0.2-0.4-0.8-0.8-1.3-0.6c-1.2,0.1-2.3,0.2-3.4,0.4c-0.5,0.1-1,0.5-0.9,1
			c0.2,0.9,0.4,1.7,0.6,2.5c0.1,0.4,0.6,0.6,1.3,0.5c1.2-0.2,2.4-0.4,3.5-0.4c0.5-0.1,1-0.4,0.9-0.9
			C345.5,169.5,345.2,168.7,345,167.8z M346.5,172.3c-0.2-0.4-0.8-0.8-1.4-0.6c-1.2,0.1-2.4,0.3-3.5,0.4c-0.5,0.1-1.1,0.5-0.9,1
			c0.2,0.9,0.4,1.7,0.6,2.5c0.1,0.4,0.8,0.6,1.4,0.5c1.2-0.2,2.6-0.4,3.8-0.4c0.6-0.1,1.1-0.4,0.9-0.9
			C347.1,174,346.8,173.2,346.5,172.3z"/>
		<path class="st1" d="M285.2,161.2c-0.2,0.4-0.8,0.8-1.2,0.8c-1.2,0-2.1,0.1-3.3,0.2c-0.5,0.1-0.9-0.2-0.6-0.5
			c0.3-0.8,0.6-1.6,1-2.4c0.2-0.4,0.8-0.9,1.3-0.9c1.1-0.1,2-0.2,3.1-0.3c0.5,0,0.9,0.3,0.6,0.8
			C285.8,159.7,285.5,160.4,285.2,161.2z"/>
		<path class="st1" d="M291.8,159.3c0.1-0.4-0.2-0.9-0.8-1c-1.1-0.2-2-0.3-3.1-0.3c-0.5,0-1.1,0.3-1.2,0.8c-0.3,0.9-0.5,1.6-0.9,2.5
			c-0.2,0.4,0.2,0.8,0.8,0.9c1.2,0.1,2.1,0.2,3.2,0.4c0.5,0.1,1.2-0.2,1.2-0.5C291.3,160.9,291.6,160.1,291.8,159.3z"/>
		<path class="st1" d="M297.5,160.7c0.1-0.4-0.3-1-0.8-1.2c-1.1-0.3-2-0.5-3-0.9c-0.5-0.1-1.1,0.2-1.2,0.5c-0.2,0.9-0.4,1.7-0.6,2.5
			c-0.1,0.4,0.3,0.9,0.8,1c1.1,0.3,2.1,0.5,3.2,0.9c0.5,0.2,1.1,0,1.2-0.4C297.2,162.4,297.3,161.6,297.5,160.7z"/>
		<path class="st1" d="M303.1,163.2c0.1-0.4-0.3-1.1-0.9-1.2c-1.1-0.4-1.9-1-3-1.3c-0.4-0.2-1.1,0-1.2,0.4c-0.2,0.9-0.3,1.7-0.4,2.6
			c-0.1,0.4,0.3,1,0.9,1.2c1.1,0.4,2,0.9,3.2,1.3c0.5,0.3,1.1,0.1,1.1-0.3C302.9,164.9,303,164,303.1,163.2z"/>
		<path class="st1" d="M308.7,166.5c0-0.4-0.4-1.1-0.9-1.4c-1-0.6-1.9-1.2-2.9-1.8c-0.4-0.3-1-0.2-1.1,0.3c-0.1,0.9-0.2,1.7-0.3,2.6
			c-0.1,0.4,0.4,1.1,0.9,1.3c1.1,0.5,2,1.2,3.1,1.9c0.5,0.4,1,0.3,1.1-0.2C308.6,168.2,308.6,167.4,308.7,166.5z"/>
		<path class="st1" d="M313.9,170.8c0-0.4-0.4-1.2-0.9-1.6c-1-0.9-1.9-1.6-2.8-2.4c-0.4-0.4-1-0.3-1,0.1c-0.1,0.9-0.1,1.7-0.2,2.6
			c0,0.4,0.4,1.2,0.9,1.5c1.1,0.8,1.9,1.5,3,2.4c0.4,0.4,1,0.4,1,0C313.9,172.5,313.9,171.7,313.9,170.8z"/>
		<path class="st1" d="M284.5,163.3c0.2-0.4-0.2-0.8-0.8-0.8c-1.2,0-2.1,0.1-3.3,0.2c-0.5,0.1-1.2,0.4-1.3,0.9
			c-0.3,0.8-0.6,1.6-1,2.4c-0.2,0.4,0.2,0.6,0.8,0.6c1.2-0.1,2.3-0.2,3.4-0.2c0.5,0,1.2-0.3,1.3-0.8
			C283.9,164.9,284.2,164.2,284.5,163.3z"/>
		<path class="st1" d="M313.9,175.5c0-0.4-0.4-1.2-1-1.6c-1.1-0.9-1.9-1.6-3-2.4c-0.5-0.4-1-0.3-1,0.1c-0.1,0.9-0.1,1.7-0.2,2.6
			c0,0.4,0.4,1.2,1,1.5c1.1,0.8,2.1,1.5,3.2,2.4c0.5,0.4,1,0.4,1,0C313.9,177.3,313.9,176.5,313.9,175.5z"/>
		<path class="st1" d="M282.9,167.8c0.2-0.4-0.2-0.8-0.8-0.8c-1.2,0-2.3,0-3.5,0.1c-0.5,0.1-1.2,0.4-1.3,0.9c-0.3,0.8-0.6,1.6-1,2.4
			c-0.2,0.4,0.2,0.6,0.8,0.6c1.2-0.1,2.4-0.1,3.5-0.1c0.5,0,1.2-0.3,1.4-0.8C282.3,169.4,282.6,168.7,282.9,167.8z"/>
		<path class="st1" d="M295.6,170.2c0.1-0.4-0.3-1-0.9-1.2c-1.2-0.4-2.3-0.6-3.4-1c-0.5-0.1-1.2,0.1-1.2,0.5
			c-0.2,0.9-0.4,1.7-0.6,2.5c-0.1,0.4,0.3,0.9,0.9,1.1c1.2,0.3,2.4,0.5,3.5,1c0.5,0.2,1.2,0,1.2-0.4
			C295.3,171.8,295.4,171,295.6,170.2z"/>
		<path class="st1" d="M301.9,172.6c0.1-0.4-0.4-1.1-1-1.2c-1.2-0.4-2.3-1-3.4-1.4c-0.5-0.2-1.2,0-1.2,0.4c-0.2,0.9-0.3,1.7-0.4,2.6
			c-0.1,0.4,0.4,1,1,1.2c1.2,0.4,2.4,1,3.5,1.4c0.5,0.3,1.2,0.1,1.2-0.3C301.6,174.3,301.8,173.5,301.9,172.6z"/>
		<path class="st1" d="M308,175.9c0-0.4-0.4-1.2-1-1.4c-1.2-0.6-2.1-1.3-3.3-1.9c-0.5-0.3-1.1-0.2-1.2,0.3c-0.1,0.9-0.2,1.7-0.3,2.6
			c-0.1,0.4,0.4,1.1,1,1.3c1.2,0.5,2.4,1.2,3.5,1.9c0.5,0.4,1.1,0.3,1.2-0.2C307.9,177.7,308,176.8,308,175.9z"/>
		<path class="st1" d="M313.9,180.3c0-0.4-0.4-1.2-1-1.6c-1.1-0.9-2-1.6-3.2-2.4c-0.5-0.4-1.1-0.3-1.1,0.1c-0.1,0.9-0.1,1.7-0.2,2.6
			c0,0.4,0.4,1.2,1.1,1.5c1.2,0.8,2.3,1.5,3.3,2.4c0.5,0.4,1.1,0.4,1.1,0C313.9,182,313.9,181.2,313.9,180.3z"/>
		<path class="st1" d="M281.2,172.3c0.2-0.4-0.2-0.8-0.9-0.8c-1.2,0-2.4,0-3.5,0.1c-0.5,0-1.2,0.4-1.4,0.9c-0.3,0.8-0.6,1.6-1,2.4
			c-0.2,0.4,0.2,0.6,0.9,0.6c1.2-0.1,2.5-0.1,3.6,0c0.6,0,1.2-0.3,1.4-0.6C280.7,173.9,281,173.1,281.2,172.3z"/>
		<path class="st1" d="M307.7,180.8c0-0.4-0.4-1.2-1.1-1.4c-1.2-0.6-2.3-1.3-3.5-1.9c-0.5-0.3-1.2-0.2-1.2,0.3
			c-0.1,0.9-0.2,1.7-0.3,2.6c-0.1,0.4,0.4,1.1,1.1,1.3c1.2,0.5,2.5,1.2,3.5,1.9c0.5,0.4,1.2,0.3,1.2-0.2
			C307.6,182.5,307.6,181.6,307.7,180.8z"/>
		<path class="st1" d="M313.9,185.1c0-0.4-0.4-1.2-1.1-1.6c-1.2-0.9-2.1-1.6-3.3-2.4c-0.5-0.4-1.1-0.3-1.2,0.1
			c-0.1,0.9-0.1,1.7-0.2,2.6c0,0.4,0.4,1.2,1.1,1.5c1.2,0.8,2.4,1.5,3.5,2.4c0.5,0.4,1.1,0.4,1.1,0
			C313.9,186.8,313.9,185.9,313.9,185.1z"/>
		<path class="st1" d="M279.7,176.8c0.2-0.4-0.3-0.8-0.9-0.9c-1.2,0-2.6,0-3.8,0c-0.6,0-1.3,0.4-1.4,0.9c-0.3,0.8-0.6,1.6-1,2.4
			c-0.2,0.4,0.2,0.6,0.9,0.6c1.3,0,2.6,0,3.9,0c0.6,0,1.3-0.3,1.5-0.6C279.1,178.4,279.4,177.6,279.7,176.8z"/>
		<path class="st1" d="M293.7,179.5c0.1-0.4-0.4-1-1.1-1.2c-1.2-0.4-2.6-0.6-3.8-1c-0.6-0.2-1.2,0.1-1.4,0.4
			c-0.2,0.9-0.4,1.7-0.6,2.5c-0.1,0.4,0.4,0.9,1.1,1.1c1.3,0.3,2.7,0.6,4,1.1c0.6,0.2,1.3,0,1.3-0.4
			C293.3,181.2,293.5,180.3,293.7,179.5z"/>
		<path class="st1" d="M300.6,182.1c0.1-0.4-0.4-1.1-1.1-1.3c-1.2-0.5-2.5-1.1-3.8-1.4c-0.6-0.2-1.2,0-1.3,0.4
			c-0.2,0.9-0.3,1.7-0.4,2.6c-0.1,0.4,0.4,1,1.1,1.2c1.3,0.4,2.7,1,3.9,1.5c0.6,0.3,1.2,0.2,1.3-0.3
			C300.4,183.8,300.4,182.9,300.6,182.1z"/>
		<path class="st1" d="M307.4,185.6c0-0.4-0.4-1.2-1.1-1.4c-1.2-0.6-2.5-1.3-3.6-1.9c-0.6-0.3-1.2-0.2-1.2,0.3
			c-0.1,0.9-0.2,1.7-0.3,2.6c-0.1,0.4,0.4,1.1,1.1,1.3c1.3,0.5,2.6,1.2,3.8,1.9c0.6,0.4,1.2,0.3,1.2-0.2
			C307.3,187.3,307.3,186.4,307.4,185.6z"/>
		<path class="st1" d="M313.9,189.9c0-0.4-0.4-1.2-1.1-1.6c-1.2-0.9-2.4-1.6-3.5-2.4c-0.5-0.4-1.2-0.3-1.2,0.1
			c-0.1,0.9-0.1,1.7-0.2,2.6c0,0.4,0.4,1.2,1.2,1.5c1.2,0.8,2.5,1.5,3.6,2.4c0.5,0.4,1.2,0.4,1.2,0
			C313.9,191.6,313.9,190.7,313.9,189.9z"/>
		<path class="st1" d="M278.1,181.3c0.2-0.4-0.3-0.8-1-0.9c-1.3-0.1-2.7-0.1-3.9,0c-0.6,0-1.3,0.4-1.5,0.8c-0.3,0.8-0.6,1.6-1,2.4
			c-0.2,0.4,0.3,0.8,1,0.6c1.3,0,2.7,0,4.1,0.1c0.6,0,1.3-0.3,1.5-0.6C277.5,182.9,277.8,182.1,278.1,181.3z"/>
		<path class="st1" d="M292.7,184.2c0.1-0.4-0.4-1-1.1-1.2c-1.3-0.4-2.7-0.8-4-1.1c-0.6-0.2-1.3,0.1-1.4,0.4
			c-0.2,0.9-0.4,1.7-0.6,2.5c-0.1,0.4,0.4,0.9,1.1,1.1c1.3,0.3,2.7,0.6,4.1,1.1c0.6,0.2,1.3,0,1.4-0.4
			C292.4,185.8,292.6,185,292.7,184.2z"/>
		<path class="st1" d="M300,186.8c0.1-0.4-0.4-1.1-1.2-1.3c-1.3-0.5-2.7-1.1-3.9-1.5c-0.6-0.2-1.3-0.1-1.3,0.4
			c-0.2,0.9-0.3,1.7-0.4,2.6c-0.1,0.4,0.4,1,1.2,1.2c1.3,0.4,2.7,1,4.1,1.5c0.6,0.3,1.3,0.2,1.3-0.3
			C299.7,188.5,299.9,187.6,300,186.8z"/>
		<path class="st1" d="M307.1,190.3c0-0.4-0.4-1.2-1.2-1.4c-1.2-0.6-2.6-1.3-3.8-1.9c-0.6-0.3-1.2-0.2-1.3,0.3
			c-0.1,0.9-0.2,1.7-0.3,2.6c-0.1,0.4,0.4,1.1,1.2,1.3c1.3,0.5,2.7,1.2,4,1.9c0.6,0.4,1.2,0.3,1.2-0.2
			C307,191.9,307.1,191.2,307.1,190.3z"/>
		<path class="st1" d="M276.5,185.8c0.2-0.4-0.3-0.8-1-0.9c-1.3-0.1-2.7-0.1-4.1-0.1c-0.6,0-1.3,0.4-1.5,0.8c-0.3,0.8-0.6,1.6-1,2.4
			c-0.2,0.4,0.3,0.8,1,0.8c1.4,0,2.7,0,4.2,0.1c0.8,0.1,1.4-0.2,1.6-0.6C275.9,187.4,276.2,186.6,276.5,185.8z"/>
		<path class="st1" d="M284.1,186.9c0.1-0.4-0.4-0.9-1.1-1.1c-1.4-0.3-2.7-0.4-4.2-0.5c-0.6-0.1-1.4,0.2-1.5,0.6
			c-0.3,0.9-0.5,1.6-0.9,2.5c-0.2,0.4,0.3,0.9,1.1,1c1.4,0.2,2.8,0.4,4.2,0.6c0.8,0.1,1.4-0.1,1.5-0.4
			C283.6,188.6,283.9,187.7,284.1,186.9z"/>
		<path class="st1" d="M291.8,188.9c0.1-0.4-0.4-1-1.2-1.2c-1.4-0.4-2.7-0.8-4.2-1.1c-0.6-0.2-1.3,0.1-1.5,0.4
			c-0.2,0.9-0.4,1.7-0.6,2.5c-0.1,0.4,0.4,0.9,1.2,1.1c1.4,0.3,2.8,0.6,4.2,1.2c0.8,0.2,1.4,0,1.5-0.4
			C291.4,190.4,291.6,189.7,291.8,188.9z"/>
		<path class="st1" d="M299.3,191.6c0.1-0.4-0.4-1.1-1.2-1.3c-1.3-0.5-2.7-1.1-4.1-1.5c-0.6-0.2-1.3-0.1-1.4,0.4
			c-0.2,0.9-0.3,1.7-0.4,2.6c-0.1,0.4,0.4,1,1.2,1.2c1.4,0.4,2.8,1,4.2,1.5c0.8,0.3,1.3,0.2,1.4-0.3
			C299.1,193.3,299.2,192.4,299.3,191.6z"/>
		<path class="st1" d="M319.6,169.5c0,0.4-0.4,1.2-0.9,1.5c-1.1,0.8-1.9,1.5-3,2.4c-0.4,0.4-1,0.4-1,0c0-0.9,0-1.7,0-2.6
			c0-0.4,0.4-1.2,0.9-1.6c1-0.9,1.9-1.6,2.8-2.4c0.4-0.4,1-0.3,1,0.1C319.5,167.8,319.5,168.7,319.6,169.5z"/>
		<path class="st1" d="M324.8,163.5c-0.1-0.4-0.4-0.5-1.1-0.3c-1.1,0.5-1.9,1.2-2.9,1.8c-0.4,0.4-0.9,1-0.9,1.4
			c0.1,0.9,0.1,1.7,0.2,2.6c0,0.4,0.4,0.4,1.1,0.2c1.1-0.6,2-1.3,3.1-1.9c0.5-0.3,1-0.9,0.9-1.3C325.1,165.2,325,164.3,324.8,163.5z
			"/>
		<path class="st1" d="M330.4,161c-0.1-0.4-0.5-0.6-1.2-0.4c-1.1,0.4-1.9,0.9-3,1.3c-0.4,0.3-0.9,0.9-0.9,1.2
			c0.1,0.9,0.2,1.7,0.4,2.6c0.1,0.4,0.5,0.5,1.1,0.3c1.1-0.4,2-1,3.2-1.3c0.5-0.2,1-0.8,0.9-1.2C330.7,162.8,330.6,161.9,330.4,161z
			"/>
		<path class="st1" d="M336.1,159.4c-0.1-0.4-0.6-0.6-1.2-0.5c-1.1,0.2-2,0.4-3,0.9c-0.4,0.2-0.9,0.6-0.8,1.2
			c0.2,0.9,0.4,1.7,0.4,2.6c0.1,0.4,0.5,0.6,1.2,0.4c1.1-0.4,2.1-0.6,3.2-0.9c0.5-0.1,1-0.5,0.8-1
			C336.5,161.2,336.4,160.3,336.1,159.4z"/>
		<path class="st1" d="M341.9,158.8c-0.2-0.4-0.6-0.8-1.2-0.8c-1.1,0.1-2,0.2-3.1,0.3c-0.5,0.1-0.9,0.4-0.8,1
			c0.2,0.9,0.4,1.7,0.6,2.5c0.1,0.4,0.6,0.6,1.2,0.5c1.1-0.2,2.1-0.3,3.2-0.4c0.5,0,0.9-0.4,0.8-0.9
			C342.4,160.5,342.1,159.7,341.9,158.8z"/>
		<path class="st1" d="M347.8,159.1c-0.2-0.4-0.8-0.9-1.3-0.9c-1.1-0.1-2-0.2-3.1-0.3c-0.5,0-0.9,0.3-0.6,0.8
			c0.3,0.9,0.5,1.6,0.9,2.5c0.2,0.4,0.8,0.8,1.2,0.8c1.2,0,2.1,0.1,3.3,0.2c0.5,0.1,0.9-0.2,0.6-0.5
			C348.4,160.7,348,160,347.8,159.1z"/>
		<path class="st1" d="M319.6,171.8c0-0.4-0.4-0.4-1-0.1c-1.1,0.8-2,1.5-3,2.4c-0.4,0.4-1,1.2-1,1.6c0,0.9,0,1.7,0,2.6
			c0,0.4,0.4,0.4,1,0c1.1-0.9,2-1.6,3.2-2.4c0.5-0.4,1-1.1,1-1.5C319.7,173.5,319.7,172.6,319.6,171.8z"/>
		<path class="st1" d="M343.4,163.3c-0.2-0.4-0.8-0.8-1.2-0.6c-1.2,0.1-2.1,0.2-3.3,0.4c-0.5,0.1-1,0.4-0.8,1
			c0.2,0.9,0.4,1.7,0.6,2.5c0.1,0.4,0.6,0.6,1.2,0.5c1.2-0.2,2.3-0.3,3.4-0.4c0.5,0,1-0.4,0.8-0.9C344,165,343.7,164.2,343.4,163.3z
			"/>
		<path class="st1" d="M349.5,163.6c-0.2-0.4-0.8-0.9-1.3-0.9c-1.2-0.1-2.1-0.2-3.3-0.2c-0.5,0-0.9,0.4-0.8,0.8
			c0.3,0.9,0.5,1.6,0.9,2.5c0.2,0.4,0.8,0.8,1.3,0.8c1.2,0,2.3,0,3.4,0.2c0.5,0.1,1-0.2,0.8-0.6
			C350.2,165.1,349.8,164.4,349.5,163.6z"/>
		<path class="st1" d="M319.9,176.5c0-0.4-0.4-0.4-1.1-0.1c-1.1,0.8-2.1,1.5-3.2,2.4c-0.5,0.4-1,1.2-1,1.6c0,0.9,0,1.7,0,2.6
			c0,0.4,0.4,0.4,1.1,0c1.2-0.9,2.1-1.6,3.3-2.4c0.5-0.4,1.1-1.1,1.1-1.5C320,178.2,319.9,177.4,319.9,176.5z"/>
		<path class="st1" d="M332.2,170.4c-0.1-0.4-0.6-0.6-1.2-0.4c-1.2,0.4-2.3,0.9-3.4,1.4c-0.5,0.3-1,0.9-1,1.2
			c0.1,0.9,0.2,1.7,0.4,2.6c0.1,0.4,0.5,0.5,1.2,0.3c1.2-0.4,2.4-1,3.5-1.4c0.5-0.2,1.1-0.8,1-1.2
			C332.6,172,332.5,171.2,332.2,170.4z"/>
		<path class="st1" d="M338.7,168.7c-0.1-0.4-0.6-0.6-1.2-0.5c-1.2,0.3-2.3,0.5-3.4,1c-0.5,0.2-1,0.6-0.9,1.2
			c0.2,0.9,0.4,1.7,0.4,2.6c0.1,0.4,0.6,0.6,1.2,0.4c1.2-0.4,2.4-0.6,3.5-1c0.5-0.1,1.1-0.5,0.9-1.1
			C339,170.4,338.8,169.5,338.7,168.7z"/>
		<path class="st1" d="M351.3,168c-0.2-0.4-0.8-0.8-1.3-0.9c-1.2-0.1-2.3-0.2-3.5-0.1c-0.5,0-1,0.4-0.8,0.8c0.3,0.9,0.5,1.6,0.9,2.5
			c0.2,0.4,0.8,0.8,1.4,0.8c1.2,0,2.4,0,3.5,0.1c0.5,0,1-0.3,0.8-0.6C352,169.6,351.7,168.9,351.3,168z"/>
		<path class="st1" d="M320.2,181.2c0-0.4-0.4-0.4-1.2-0.1c-1.2,0.8-2.3,1.5-3.3,2.4c-0.5,0.4-1.1,1.2-1.1,1.6c0,0.9,0,1.7,0,2.6
			c0,0.4,0.4,0.4,1.1,0c1.2-0.9,2.3-1.6,3.5-2.4c0.5-0.4,1.1-1.1,1.1-1.5C320.3,182.9,320.2,182.1,320.2,181.2z"/>
		<path class="st1" d="M333.2,175.1c-0.1-0.4-0.6-0.6-1.2-0.4c-1.2,0.4-2.4,1-3.5,1.4c-0.5,0.3-1.1,0.9-1,1.3
			c0.1,0.9,0.2,1.7,0.4,2.6c0.1,0.4,0.5,0.5,1.2,0.3c1.2-0.5,2.5-1.1,3.6-1.4c0.6-0.2,1.1-0.8,1.1-1.2
			C333.5,176.7,333.4,175.8,333.2,175.1z"/>
		<path class="st1" d="M339.9,173.3c-0.1-0.4-0.6-0.6-1.3-0.5c-1.2,0.3-2.4,0.5-3.5,1c-0.5,0.2-1.1,0.6-1,1.2
			c0.2,0.9,0.4,1.7,0.4,2.6c0.1,0.4,0.6,0.6,1.3,0.4c1.2-0.4,2.5-0.6,3.8-1c0.6-0.2,1.1-0.5,1-1.1
			C340.3,175,340.1,174.1,339.9,173.3z"/>
		<path class="st1" d="M353.2,172.4c-0.2-0.4-0.8-0.8-1.4-0.9c-1.2-0.1-2.4-0.1-3.5-0.1c-0.5,0-1,0.4-0.9,0.8
			c0.3,0.9,0.5,1.6,0.9,2.5c0.2,0.4,0.8,0.8,1.4,0.6c1.2,0,2.5,0,3.6,0c0.6,0,1.1-0.3,0.9-0.6C353.9,174,353.5,173.3,353.2,172.4z"
			/>
		<path class="st1" d="M320.5,186c0-0.4-0.5-0.4-1.2-0.1c-1.2,0.8-2.4,1.5-3.5,2.4c-0.5,0.4-1.1,1.2-1.1,1.6c0,0.9,0,1.7,0,2.6
			c0,0.4,0.4,0.4,1.2,0c1.2-0.9,2.4-1.6,3.6-2.4c0.6-0.4,1.2-1.1,1.2-1.5C320.6,187.7,320.5,186.9,320.5,186z"/>
		<path class="st1" d="M334.2,179.7c-0.1-0.4-0.6-0.5-1.3-0.4c-1.2,0.4-2.5,1-3.8,1.4c-0.6,0.3-1.2,0.9-1.1,1.3
			c0.1,0.9,0.2,1.7,0.4,2.6c0.1,0.4,0.6,0.5,1.3,0.3c1.3-0.5,2.6-1.1,3.9-1.5c0.6-0.2,1.2-0.8,1.1-1.2
			C334.4,181.4,334.3,180.6,334.2,179.7z"/>
		<path class="st1" d="M341.1,177.9c-0.1-0.4-0.8-0.6-1.4-0.4c-1.2,0.3-2.6,0.6-3.8,1c-0.6,0.2-1.1,0.6-1.1,1.2
			c0.2,0.9,0.4,1.7,0.4,2.6c0.1,0.4,0.6,0.5,1.3,0.4c1.3-0.4,2.7-0.8,4-1.1c0.6-0.2,1.2-0.5,1.1-1.1
			C341.6,179.6,341.2,178.7,341.1,177.9z"/>
		<path class="st1" d="M355,176.8c-0.2-0.4-0.9-0.8-1.4-0.9c-1.2-0.1-2.5-0.1-3.8,0c-0.6,0-1.1,0.4-0.9,0.9c0.3,0.9,0.5,1.6,0.9,2.5
			c0.2,0.4,0.9,0.8,1.5,0.6c1.3-0.1,2.6-0.1,3.9,0c0.6,0,1.1-0.3,0.9-0.6C355.7,178.4,355.4,177.6,355,176.8z"/>
		<path class="st1" d="M349.6,181.3c-0.2-0.4-0.8-0.8-1.5-0.6c-1.3,0.2-2.7,0.3-4,0.5c-0.6,0.1-1.2,0.5-1.1,1.1
			c0.2,0.9,0.4,1.7,0.6,2.5c0.1,0.4,0.8,0.6,1.5,0.5c1.3-0.3,2.7-0.4,4.1-0.5c0.6-0.1,1.2-0.4,1.1-0.9
			C350.2,183,349.9,182.2,349.6,181.3z"/>
		<path class="st1" d="M356.9,181.2c-0.2-0.4-0.9-0.8-1.5-0.8c-1.3,0-2.6,0-3.9,0c-0.6,0-1.2,0.4-1,0.9c0.3,0.9,0.5,1.6,0.9,2.5
			c0.2,0.4,0.9,0.6,1.5,0.6c1.3-0.1,2.7-0.1,4.1-0.1c0.6,0,1.2-0.3,1-0.6C357.5,182.8,357.2,182,356.9,181.2z"/>
		<path class="st1" d="M335.9,189.1c-0.1-0.4-0.8-0.5-1.4-0.4c-1.3,0.4-2.7,1-4.1,1.5c-0.6,0.3-1.2,0.9-1.2,1.3
			c0.1,0.9,0.2,1.7,0.4,2.6c0.1,0.4,0.6,0.5,1.4,0.3c1.4-0.5,2.8-1.1,4.2-1.5c0.8-0.3,1.2-0.8,1.2-1.2
			C336.3,190.8,336.1,190,335.9,189.1z"/>
		<path class="st1" d="M343.6,187.1c-0.1-0.4-0.8-0.6-1.5-0.4c-1.4,0.3-2.7,0.6-4.2,1.1c-0.6,0.2-1.2,0.8-1.2,1.2
			c0.2,0.9,0.4,1.7,0.4,2.6c0.1,0.4,0.8,0.5,1.5,0.4c1.4-0.4,2.8-0.8,4.2-1.2c0.8-0.2,1.2-0.6,1.2-1.1
			C344,188.8,343.8,187.9,343.6,187.1z"/>
		<path class="st1" d="M351.2,185.8c-0.2-0.4-0.9-0.6-1.5-0.6c-1.3,0.2-2.7,0.4-4.2,0.5c-0.6,0.1-1.2,0.5-1.1,1.1
			c0.2,0.9,0.4,1.7,0.6,2.5c0.1,0.4,0.9,0.6,1.5,0.4c1.4-0.3,2.8-0.4,4.2-0.6c0.8-0.1,1.2-0.4,1.1-1
			C351.7,187.5,351.4,186.7,351.2,185.8z"/>
		<path class="st1" d="M358.7,185.7c-0.2-0.4-0.9-0.8-1.5-0.8c-1.3,0-2.7,0-4.1,0.1c-0.6,0-1.2,0.4-1,0.9c0.3,0.9,0.5,1.6,0.9,2.5
			c0.2,0.4,0.9,0.6,1.6,0.6c1.4-0.1,2.8-0.2,4.2-0.1c0.6,0,1.2-0.3,1-0.8C359.4,187.3,359,186.4,358.7,185.7z"/>
	</g>
</g>
<path class="st4" d="M604.3,139.5h-418c-5,0-9-4-9-9V62.4c0-5,4-9,9-9h418.1c5,0,9,4,9,9v68.1C613.2,135.5,609.3,139.5,604.3,139.5z
	"/>
<path class="st1" d="M604.3,140.7h-418c-5.7,0-10.2-4.6-10.2-10.2V62.4c0-5.7,4.6-10.2,10.2-10.2h418.1c5.7,0,10.2,4.6,10.2,10.2
	v68.1C614.5,136.2,609.9,140.7,604.3,140.7z M186.2,54.6c-4.2,0-7.8,3.6-7.8,7.8v68.1c0,4.2,3.6,7.8,7.8,7.8h418.1
	c4.2,0,7.8-3.5,7.8-7.7V62.4c0-4.2-3.6-7.8-7.8-7.8C604.3,54.6,186.2,54.6,186.2,54.6z"/>
<g>
	<g>
		<g>
			<g>
				<path class="st5" d="M400.2,123.6H212.8c-3.3,0-6.4-2.8-6.4-6.4V76.5c0-3.3,2.8-6.4,6.4-6.4h187.4c3.3,0,6.4,2.8,6.4,6.4v40.7
					C406.7,120.7,403.8,123.6,400.2,123.6z"/>
				<path class="st1" d="M400.2,124.8H212.8c-4.2,0-7.9-3.5-7.9-7.9V76.4c0-4.2,3.5-7.9,7.9-7.9h187.4c4.2,0,7.9,3.5,7.9,7.9v40.7
					C408.1,121.5,404.7,124.8,400.2,124.8z M212.8,71.5c-2.7,0-4.9,2.2-4.9,4.9v40.7c0,2.7,2.2,4.9,4.9,4.9h187.4
					c2.7,0,4.9-2.2,4.9-4.9V76.5c0-2.7-2.2-4.9-4.9-4.9L212.8,71.5L212.8,71.5z"/>
			</g>
		</g>
	</g>
	<g>
		<path class="st6" d="M242.8,107.3c-0.5,0.2-1.1,0.5-1.5,0.7c-0.7,0.2-1.5,0.2-2.5,0.5c-0.7,0-1.8,0.2-2.7,0.2h-12.3
			c-2.8,0-4.9-0.7-6.4-2.2s-2.2-3.7-2.2-6.7v-3.7v-0.7h0.7h3.3h0.7v0.7v3.7c0,1.5,0.2,2.5,1.1,3.2c0.7,0.7,1.8,1.1,3.2,1.1h13.2
			c-0.7-1.1-1.1-2.5-1.1-4c0-1.1,0.2-2,0.5-2.8c0.2-0.7,0.7-1.5,1.5-2.5c1.5-1.3,3.2-2,5.2-2s3.7,0.7,5.2,2c0.7,0.7,1.1,1.5,1.5,2.5
			c0.2,0.7,0.5,2,0.5,2.8c0,1.5-0.2,2.8-1.1,4h2.8c0.2,0,0.2,0,0.5,0c0.2,0,0.2,0.2,0.2,0.2c0,0.2,0.2,0.2,0.2,0.2s0,0.2,0,0.5
			s0,0.2,0,0.2v0.2c0,0,0,0,0,0.2v0.2c0,0,0,0,0,0.2s0,0.2,0,0.5c0,0,0,0.2,0,0.5s0,0.2,0,0.5c0,0,0,0.2-0.2,0.2
			c0,0.2-0.2,0.2-0.2,0.2c-0.2,0-0.2,0-0.5,0h-2.6C246.8,108.6,244.8,108,242.8,107.3z M239.9,86.1l1.5-1.5c0.5-0.5,1.1-0.7,1.5,0
			l2,1.8c0.5,0.5,0.5,1.1,0,1.5l-1.5,1.5c-0.5,0.5-1.1,0.5-1.5,0l-1.8-2C239.2,87.2,239.2,86.6,239.9,86.1z M239.9,100
			c0,0.7,0.2,1.3,0.7,2c0.5,0.5,1.1,0.7,2,0.7c1.1,0,1.5-0.2,2-0.7s0.7-1.1,0.7-2s-0.2-1.3-0.7-2c-0.2-0.2-0.5-0.5-0.7-0.7
			s-0.7-0.2-1.1-0.2c-0.2,0-0.7,0-1.1,0.2c-0.2,0.2-0.7,0.2-0.7,0.7c-0.2,0.2-0.5,0.5-0.7,0.7c0,0.2,0,0.2-0.2,0.5
			C239.9,99.6,239.9,99.6,239.9,100z"/>
		<path class="st6" d="M267.8,108.6h-0.2c-2.5,0-4.4-0.7-5.8-2c-1.5,1.5-3.7,2-6.7,2h-3.3c-0.5,0-0.9-0.2-1.1-0.7
			c-0.2-0.2-0.2-0.9-0.2-1.5v-0.2c0-0.7,0-1.1,0.2-1.5c0.2-0.7,0.7-0.7,1.3-0.7h3.3c0.9,0,1.8,0,2.5-0.2s1.1-0.5,1.3-0.9
			c0.2-0.2,0.2-0.9,0.2-1.5v-4.8v-0.5h0.7h3.3h0.7v0.7v4.9c0,1.1,0.2,1.8,0.7,2.2c0.5,0.5,1.5,0.7,2.7,0.7h0.2c0.2,0,0.5,0,0.7,0.2
			s0.2,0.2,0.2,0.5c0.2,0.2,0,0.5,0,0.7s0,0.2,0,0.7c0,0,0,0,0,0.2v0.2c0,0,0,0,0,0.2s0,0.2,0,0.2v0.2v0.2c0,0,0,0.2-0.2,0.2
			c0,0.2-0.2,0.2-0.2,0.2L267.8,108.6C268.2,108.6,268,108.6,267.8,108.6z M251.8,114l1.5-1.5c0.5-0.5,1.1-0.5,1.5,0l1.8,1.8
			c0.5,0.5,0.5,1.1,0,1.5l-1.5,1.5c-0.5,0.5-1.1,0.5-1.5,0l-1.8-1.8C251.2,115,251.2,114.7,251.8,114z M258.5,114l1.5-1.5
			c0.5-0.5,1.1-0.5,1.5,0l1.8,1.8c0.5,0.5,0.5,1.1,0,1.5l-1.5,1.5c-0.5,0.5-1.1,0.5-1.5,0l-2-1.8C257.8,115,258.1,114.7,258.5,114z"
			/>
		<path class="st6" d="M287,108.6h-2.5c-1.1,0-2.5-0.2-3.3-0.2c-0.9,0-2-0.5-3.2-1.1c-2,0.9-4.4,1.5-6.7,1.5H268
			c-0.5,0-0.9-0.2-1.1-0.7c-0.2-0.2-0.2-0.9-0.2-1.5v-0.2c0-0.7,0.2-1.1,0.2-1.5c0.2-0.2,0.7-0.7,1.1-0.7h4.2
			c-0.7-1.1-1.1-2.5-1.1-4c0-2,0.7-3.7,2-5.2c1.5-1.3,3.2-2,5.2-2s3.7,0.7,5.2,2c0.2,0.2,0.7,0.7,0.7,1.1c0.2,0.5,0.5,0.7,0.7,1.1
			c0.2,0.2,0.2,0.7,0.2,1.3s0.2,0.9,0.2,1.5c0,0.7,0,1.5-0.2,2c-0.2,0.7-0.5,1.3-0.7,2h2.8c0.2,0,0.2,0,0.5,0c0.2,0,0.2,0.2,0.2,0.2
			c0,0.2,0.2,0.2,0.2,0.2s0,0.2,0,0.5s0,0.2,0,0.2v0.2c0,0,0,0,0,0.2v0.2c0,0,0,0,0,0.2s0,0.2,0,0.2v0.2c0,0.2,0,0.2,0,0.2v0.2
			c0,0.2,0,0.2-0.2,0.2l-0.2,0.2l-0.2,0.2C287.2,108.6,287,108.6,287,108.6z M275.1,86.1l1.5-1.5c0.5-0.5,1.1-0.7,1.5,0l2,1.8
			c0.5,0.5,0.5,1.1,0,1.5l-1.5,1.5c-0.5,0.5-1.1,0.5-1.5,0l-1.8-2C274.7,87.2,274.7,86.6,275.1,86.1z M275.1,100
			c0,0.7,0.2,1.3,0.7,2c0.7,0.7,1.1,0.7,2,0.7s1.5-0.2,2-0.7s0.7-1.1,0.7-2s-0.2-1.3-0.7-2c-0.2-0.2-0.5-0.5-0.7-0.7
			s-0.7-0.2-1.1-0.2c-0.2,0-0.7,0-1.1,0.2c-0.2,0.2-0.7,0.2-0.7,0.7l-0.2,0.2l-0.2,0.2c0,0,0,0.2-0.2,0.2v0.2V99
			C275.1,99.6,275.1,99.6,275.1,100z"/>
		<path class="st6" d="M303.4,105.3l-1.5,0.7c-2.8,1.5-5.8,2.2-9.1,2.2h-5.7c-0.5,0-0.9-0.2-1.1-0.7s-0.2-0.9-0.2-1.5v-0.2
			c0-0.7,0-1.1,0.2-1.5c0.2-0.7,0.7-0.7,1.3-0.7h5.5c1.3,0,2.5-0.2,3.7-0.2c1.1-0.2,2.2-0.7,3.3-1.1l4.2-2l-2.5-1.5
			c-1.5-0.7-2.8-1.3-4.4-1.3c-1.3,0-2.5,0.5-4,1.5l-1.3,1.1l-0.5,0.2l-0.2-0.5l-2-2.5l-0.5-0.5l0.5-0.2l1.1-0.9
			c2-1.5,4.2-2.7,6.4-2.8c2-0.2,4.4,0.2,6.7,1.5l3.3,2c0.2,0.2,0.7,0.2,1.1,0.7c0.2,0.2,0.7,0.2,1.1,0.2c0.2,0,0.7,0.2,0.9,0.2h0.5
			V98v3.3v0.2l-0.2,0.2l-2,1.1c0.7,0.2,1.5,0.7,2.5,0.7h2.2c0.2,0,0.5,0,0.7,0.2s0.2,0.2,0.2,0.5s0,0.5,0,0.7s0,0.2,0,0.7
			c0,0,0,0,0,0.2v0.2c0,0.5,0,1.1-0.2,1.3c-0.2,0.5-0.5,0.7-0.9,0.7h-2c-1.3,0-2.5-0.2-3.7-0.7C304.9,107.3,303.9,106.4,303.4,105.3
			z M294.8,85.7l1.5-1.5c0.5-0.5,1.1-0.7,1.5,0l2,1.8c0.5,0.5,0.5,1.1,0,1.5l-1.5,1.5c-0.5,0.5-1.1,0.5-1.5,0l-1.8-2
			C294.1,86.6,294.1,86.1,294.8,85.7z"/>
		<path class="st6" d="M311.8,108.6c-0.5,0-0.9-0.2-1.1-0.7c-0.2-0.2-0.2-0.9-0.2-1.5v-0.2c0-0.7,0.2-1.1,0.2-1.5
			c0.2-0.2,0.7-0.7,1.1-0.7h4.4c1.1,0,2-0.2,2.5-0.7s0.7-1.1,0.7-2.2v-5.3V95h0.7h3.2h0.7v0.7v5.3c0,2.5-0.7,4.4-2,5.5
			c-1.3,1.2-3.2,2-5.5,2L311.8,108.6L311.8,108.6L311.8,108.6z M312.5,87.7l1.5-1.5c0.5-0.5,1.1-0.5,1.5,0l1.8,1.8
			c0.5,0.5,0.5,1.1,0,1.5l-1.5,1.5c-0.5,0.5-1.1,0.5-1.5,0l-1.8-1.8C312,88.7,312,88.3,312.5,87.7z M319.1,87.7l1.5-1.5
			c0.5-0.5,1.1-0.5,1.5,0l1.8,1.8c0.5,0.5,0.5,1.1,0,1.5l-1.5,1.5c-0.5,0.5-1.1,0.5-1.5,0l-2-1.8C318.7,88.7,318.7,88.3,319.1,87.7z
			"/>
		<path class="st6" d="M332.3,86.1c0-1.1,0.2-2,1.3-2.7c0.7-0.7,1.8-1.1,2.8-1.1s2,0.2,2.8,1.1c0.2,0.2,0.2,0.2,0.5,0.5
			s0.2,0.5,0.2,0.7c0.2,0.2,0.2,0.5,0.2,0.7c0.2,0.2,0.2,0.5,0.2,0.7s0,0.7-0.2,0.9c0,0.2-0.2,0.2-0.2,0.2c0,0.2-0.2,0.2-0.2,0.2
			c-0.2,0.2-0.2,0.2-0.2,0.2c-0.2,0.2-0.2,0.5-0.7,0.7c-0.7,0.7-1.8,1.1-2.8,1.1c-1.1,0-2-0.2-2.8-1.1c-0.2-0.2-0.7-0.7-0.9-1.3
			C332.3,87.2,332.3,86.8,332.3,86.1z M348.2,81.3l3.3,1.8l0.7,0.2l-15,26.3l-0.7-0.2l-3.2-1.8l-0.7-0.2l15-26.1
			C347.5,81.3,348.2,81.3,348.2,81.3z M345.1,103.2L345.1,103.2L345.1,103.2V103v-0.2v-0.2v-0.2c0-0.2,0-0.2,0.2-0.2
			c0-0.2,0-0.2,0-0.2v-0.2c0-0.2,0.2-0.2,0.2-0.2l0.2-0.2c0-0.2,0-0.2,0.2-0.2c0.2-0.2,0.2-0.2,0.2-0.2l0.2-0.2l0.2-0.2l0.2-0.2
			l0.2-0.2c0.2-0.2,0.2-0.2,0.2-0.2c0.7-0.7,1.8-1.1,2.8-1.1c0.2,0,0.7,0.2,0.9,0.2c0.2,0,0.2,0.2,0.5,0.2c0.2,0,0.2,0.2,0.2,0.2
			s0.2,0,0.2,0.2c0.2,0,0.2,0.2,0.2,0.2c0.2,0.2,0.5,0.2,0.7,0.7c0.7,0.7,1.3,1.8,1.3,2.7s-0.2,2-1.3,2.7c-0.2,0.2-0.7,0.7-1.3,0.7
			c-0.5,0.2-0.9,0.2-1.5,0.2c-1.1,0-2-0.2-2.8-1.1C345.7,105.2,345.1,104,345.1,103.2z"/>
	</g>
	<g>
		<path class="st6" d="M373.5,96.3c-1,0-1.8-0.1-2.8-0.3c-0.9-0.2-1.8-0.5-2.6-0.9c0.2,1.4,0.3,2.8,0.4,4.1c0.1,1.3,0.2,2.6,0.2,3.8
			c0.1,1.2,0.1,2.5,0.1,3.6s0,2.3,0,3.5h-6c0-2.7-0.1-5.3-0.2-7.9s-0.3-5.1-0.7-7.5c-0.4-2.4-0.8-4.6-1.5-6.8
			c-0.7-2.1-1.5-4-2.6-5.6l5.2-3.2c0.5,0.8,0.8,1.3,1.2,2c0.4,0.6,0.7,1.2,1,1.8c0.5-0.8,1.1-1.3,1.7-1.8c0.7-0.5,1.3-1,2.1-1.2
			c0.8-0.4,1.5-0.6,2.3-0.8c0.8-0.2,1.6-0.2,2.5-0.2c0.6,0,1.1,0.1,1.7,0.2s1.1,0.2,1.7,0.5s1.1,0.5,1.7,0.8s1.1,0.8,1.7,1.2l-3.2,5
			c0,0-0.2-0.1-0.4-0.2c-0.2-0.2-0.5-0.3-1-0.5s-0.9-0.4-1.5-0.5c-0.6-0.2-1.2-0.2-1.8-0.2c-0.6,0-1.1,0.1-1.7,0.3
			c-0.6,0.2-1.1,0.5-1.5,0.8c-0.5,0.3-0.8,0.7-1.1,1.1s-0.4,0.8-0.3,1.1l0,0c0.1,0.5,0.3,0.8,0.7,1.1s0.8,0.5,1.4,0.6
			c0.6,0.2,1.1,0.3,1.6,0.3c0.6,0.1,1.1,0.1,1.5,0.1s1,0,1.5-0.1s1.1-0.2,1.6-0.3c0.5-0.2,1.1-0.3,1.6-0.5s1.1-0.5,1.5-0.8l2.5,4.8
			c-1.5,1.1-3.1,1.9-4.5,2.3C376.2,96.1,374.8,96.3,373.5,96.3z"/>
		<path class="st6" d="M382.8,98.1c0-1.1,0.2-1.9,0.6-2.9c0.4-0.9,0.9-1.7,1.5-2.4c0.7-0.7,1.4-1.2,2.3-1.5c0.9-0.4,1.8-0.6,2.9-0.6
			s1.9,0.2,2.9,0.6c0.9,0.4,1.7,0.9,2.4,1.5c0.7,0.7,1.2,1.5,1.5,2.4c0.4,0.9,0.6,1.8,0.6,2.9s-0.2,2-0.6,2.9s-0.9,1.6-1.5,2.3
			c-0.7,0.7-1.5,1.2-2.4,1.5c-0.9,0.4-1.8,0.6-2.9,0.6s-2-0.2-2.9-0.6s-1.6-0.9-2.3-1.5c-0.7-0.7-1.2-1.4-1.5-2.3
			S382.8,99.2,382.8,98.1z M387.3,98.1c0,0.4,0.1,0.8,0.2,1.1c0.2,0.4,0.4,0.7,0.6,1c0.3,0.3,0.6,0.5,1,0.6c0.4,0.2,0.8,0.2,1.1,0.2
			c0.4,0,0.8-0.1,1.1-0.2c0.4-0.2,0.7-0.4,1-0.6c0.3-0.3,0.5-0.6,0.7-1s0.2-0.8,0.2-1.1c0-0.3-0.1-0.8-0.2-1.1
			c-0.2-0.4-0.4-0.7-0.7-1c-0.3-0.3-0.6-0.5-1-0.7s-0.8-0.2-1.1-0.2c-0.4,0-0.8,0.1-1.1,0.2c-0.4,0.2-0.7,0.4-1,0.7
			c-0.3,0.3-0.5,0.6-0.6,1S387.3,97.7,387.3,98.1z"/>
	</g>
</g>
<g>
	<g class="st7">
		<g>
			<path d="M212.7,18.9c0.1,0.3,0.3,0.7,0.5,1.1s0.4,0.9,0.6,1.4c0.2,0.5,0.4,1.1,0.6,1.7c0.2,0.6,0.3,1.2,0.4,1.8
				c0.1,0.6,0.2,1.2,0.2,1.8c0,1-0.2,1.8-0.4,2.7c-0.3,0.8-0.7,1.5-1.2,2.2c-0.5,0.7-1.2,1.1-2,1.4c-0.8,0.4-1.7,0.5-2.7,0.5
				c-0.9,0-1.6-0.1-2.2-0.4c-0.6-0.3-1-0.7-1.4-1.2c-0.2,0.3-0.4,0.5-0.6,0.7c-0.2,0.2-0.5,0.4-0.8,0.5s-0.7,0.3-1.1,0.3
				c-0.4,0.1-0.9,0.1-1.5,0.1c-0.4,0-0.8,0-1.1-0.1s-0.6-0.1-0.9-0.2c0,1.1-0.2,2.1-0.5,3.1c-0.3,0.9-0.8,1.7-1.4,2.5
				c-0.6,0.7-1.2,1.4-2,1.9s-1.6,1-2.5,1.3c-0.9,0.4-1.8,0.6-2.8,0.8s-1.9,0.3-2.9,0.3c-1.5,0-2.8-0.2-4.1-0.7
				c-1.2-0.5-2.3-1.2-3.2-2c-0.9-0.9-1.6-1.9-2.1-3.2c-0.5-1.2-0.8-2.6-0.8-4.1c0-0.9,0.1-1.7,0.4-2.7c0.2-0.9,0.5-1.8,0.8-2.7
				c0.3-0.9,0.7-1.7,1.1-2.5c0.4-0.8,0.8-1.5,1.2-2.1l3.1,2.4c-0.3,0.6-0.7,1.2-1,1.8c-0.3,0.6-0.6,1.3-0.9,1.9
				c-0.2,0.7-0.5,1.3-0.6,2c-0.2,0.7-0.2,1.3-0.2,1.9c0,0.7,0.1,1.4,0.4,2.1c0.3,0.6,0.8,1.2,1.3,1.7c0.6,0.5,1.2,0.9,2,1.1
				c0.8,0.3,1.6,0.4,2.5,0.4c1,0,1.9-0.1,2.7-0.3s1.6-0.4,2.2-0.8c0.6-0.3,1.2-0.7,1.6-1.2c0.4-0.5,0.8-1,1-1.5l0,0
				c0.2-0.8,0.4-1.6,0.4-2.4c0-0.6-0.1-1.3-0.3-2s-0.4-1.3-0.7-2s-0.6-1.4-1-2c-0.4-0.7-0.7-1.4-1-2.1l3.9-2.2
				c0.2,0.6,0.5,1.1,0.7,1.7c0.3,0.6,0.5,1.1,0.8,1.7c0.3,0.5,0.5,1,0.8,1.5s0.5,0.8,0.8,1.2c0.3,0.3,0.6,0.6,0.9,0.7
				c0.3,0.2,0.6,0.2,1,0.2c0.4-0.1,0.7-0.2,1-0.4c0.2-0.2,0.4-0.5,0.6-0.8c0.1-0.3,0.2-0.7,0.2-1.1s0-0.8,0-1.3
				c0-0.4-0.1-0.9-0.1-1.3s-0.1-0.8-0.1-1.2l4-0.5c0.1,0.3,0.1,0.7,0.2,1.1c0,0.4,0.1,0.9,0.2,1.3c0.1,0.5,0.1,0.9,0.2,1.4
				c0.1,0.5,0.2,0.9,0.4,1.3s0.4,0.8,0.6,1.1c0.2,0.3,0.5,0.5,0.9,0.6c0.3,0,0.6-0.1,0.8-0.2c0.3-0.1,0.5-0.3,0.7-0.5
				s0.3-0.5,0.5-0.8c0.1-0.3,0.2-0.7,0.2-1.1c0-0.3-0.1-0.7-0.2-1.2c-0.1-0.5-0.3-0.9-0.5-1.5c-0.2-0.5-0.5-1.1-0.8-1.7
				s-0.6-1.2-0.9-1.8l3.7-2.1C212.5,18.4,212.6,18.6,212.7,18.9z"/>
			<path d="M224.2,24.8c0.2,0.7,0.4,1.4,0.6,2.2c0.2,0.7,0.3,1.5,0.5,2.2c0.1,0.7,0.2,1.4,0.2,2.1c0,0.9-0.1,1.8-0.4,2.6
				c-0.2,0.9-0.6,1.7-1,2.5s-1,1.6-1.6,2.3s-1.3,1.4-2,2.1c-0.7,0.7-1.6,1.3-2.4,1.8c-0.9,0.6-1.7,1.1-2.7,1.5l-2.6-3.6
				c0.7-0.3,1.4-0.7,2.1-1.2c0.7-0.4,1.4-0.9,2-1.4s1.3-1,1.8-1.6c0.6-0.5,1.1-1.1,1.5-1.7c0.4-0.6,0.7-1.1,1-1.7
				c0.2-0.6,0.4-1.2,0.4-1.7c0-0.4-0.1-0.8-0.2-1.3c-0.1-0.5-0.3-1-0.5-1.5s-0.4-1.1-0.7-1.7s-0.5-1.3-0.8-2l4.2-1.9
				C223.7,23.5,223.9,24.1,224.2,24.8z"/>
			<path d="M229.7,27.5c0.5,0.3,1.1,0.5,1.7,0.7c0.6,0.2,1.1,0.4,1.7,0.5c0.5,0.1,1,0.2,1.4,0.2c0.2,0,0.5,0,0.9-0.1
				c0.4,0,0.8-0.1,1.2-0.2s0.7-0.3,1-0.5s0.4-0.5,0.5-0.8c0-0.4-0.1-0.8-0.3-1.3s-0.6-1-1-1.5s-0.9-1-1.4-1.6
				c-0.5-0.5-1.1-1-1.6-1.5c-0.6-0.5-1.1-0.9-1.7-1.4c-0.6-0.4-1.1-0.8-1.5-1.1l2.6-3.8c0.9,0.7,1.9,1.4,2.8,2.2
				c0.9,0.8,1.8,1.7,2.5,2.6c0.8,0.9,1.4,1.8,2,2.8s1,1.9,1.2,2.9c0.1,0.3,0.1,0.6,0.2,0.8c0,0.3,0,0.6,0,0.8c0,0.9-0.2,1.7-0.5,2.5
				c-0.3,0.7-0.8,1.4-1.4,1.9c-0.6,0.5-1.4,1-2.2,1.3c-0.9,0.3-1.8,0.4-2.9,0.4c-0.1,0-0.2,0-0.2,0c-0.1,0-0.2,0-0.2,0
				c-0.7,0-1.3-0.1-2-0.2c-0.7-0.1-1.4-0.3-2.1-0.6c-0.7-0.2-1.3-0.5-2-0.8c-0.6-0.3-1.2-0.6-1.8-1l1.9-4.3
				C228.7,27,229.2,27.2,229.7,27.5z"/>
			<path d="M244.5,31c0-0.8,0.1-1.7,0.1-2.5s0.1-1.6,0.1-2.4s0-1.5,0-2.1c-0.1-1.4-0.1-2.6-0.2-3.6c-0.1-1-0.1-1.9-0.2-2.7
				c-0.1-0.8-0.1-1.5-0.2-2.1c-0.1-0.6-0.1-1.2-0.2-1.7c-0.1-0.5-0.1-1-0.2-1.4c-0.1-0.4-0.1-0.9-0.2-1.4l4.5-1.5
				c0.2,1.3,0.4,2.6,0.5,3.9s0.2,2.6,0.3,3.8c0.1,1.2,0.1,2.3,0.1,3.3s0,1.9,0,2.6s0,1.4,0,2.1c0,0.8,0,1.6,0,2.4s0,1.7-0.1,2.5
				c0,0.8-0.1,1.7-0.1,2.5l-4.5,0.7C244.4,32.7,244.4,31.9,244.5,31z"/>
			<path d="M261.8,33.5c-0.2,0-0.5,0-0.8,0s-0.7-0.1-1.2-0.3c-0.2,1.2-0.6,2.3-1.2,3.4c-0.6,1.1-1.3,2.1-2.2,3
				c-0.9,0.9-1.8,1.8-2.9,2.6c-1.1,0.8-2.3,1.5-3.5,2.1l-2.6-3.6c0.7-0.3,1.4-0.7,2.1-1.1c0.7-0.4,1.4-0.8,2-1.3s1.2-0.9,1.8-1.4
				c0.5-0.5,1-1,1.4-1.5s0.7-1.1,1-1.6c0.2-0.6,0.3-1.1,0.3-1.7c0-0.4-0.1-0.9-0.2-1.4c-0.1-0.6-0.3-1.2-0.5-1.9
				c-0.2-0.7-0.5-1.3-0.7-2c-0.3-0.7-0.5-1.3-0.8-1.8l4.2-1.8c0.4,1.2,0.8,2.1,1.1,2.9s0.7,1.4,1,1.8c0.3,0.5,0.6,0.8,0.9,1
				s0.6,0.3,0.9,0.3h0.3v4.6h-0.4L261.8,33.5L261.8,33.5z"/>
			<path d="M275.1,28.9v4.6h-13.7v-4.6H275.1z"/>
			<path d="M275,28.9c0.4,0,0.8,0,1.3,0s1,0,1.6,0s1.2-0.1,1.8-0.1c0.6,0,1.2-0.1,1.7-0.2s1-0.2,1.5-0.4c0.5-0.1,0.8-0.3,1.1-0.5
				c-1.3,0.1-2.4,0.2-3.5,0.1s-2-0.3-2.7-0.6c-0.8-0.3-1.4-0.9-1.8-1.5c-0.4-0.7-0.6-1.6-0.7-2.8c0-0.5,0.1-1.1,0.2-1.6
				c0.1-0.6,0.3-1.1,0.5-1.7c0.2-0.5,0.5-1.1,0.8-1.5c0.3-0.5,0.7-0.9,1.1-1.3s0.9-0.7,1.4-0.9c0.5-0.2,1.1-0.3,1.7-0.3
				c0.8,0,1.5,0.1,2.1,0.4c0.6,0.3,1.2,0.7,1.7,1.2s0.9,1.1,1.3,1.7c0.4,0.7,0.7,1.3,0.9,2.1c0.2,0.7,0.4,1.5,0.6,2.2
				s0.2,1.5,0.2,2.2c0,1.2-0.2,2.2-0.5,3c-0.3,0.9-0.8,1.6-1.3,2.2c-0.6,0.6-1.3,1.1-2.1,1.5c-0.8,0.4-1.7,0.7-2.6,0.9
				s-1.9,0.4-3,0.5s-2.1,0.1-3.2,0.1h-0.5V29h0.4V28.9z M280.9,14l-3.2-3.2l3.2-3.2l3.2,3.2L280.9,14z M281,20.1
				c-0.2,0-0.4,0.1-0.7,0.2c-0.2,0.1-0.4,0.3-0.6,0.6c-0.2,0.2-0.4,0.5-0.5,0.8s-0.2,0.6-0.2,0.9s0.1,0.5,0.3,0.7
				c0.2,0.2,0.4,0.3,0.7,0.4c0.3,0.1,0.6,0.2,0.9,0.2c0.4,0,0.7,0.1,1,0.1s0.7,0,1,0s0.5,0,0.7-0.1c-0.1-0.4-0.2-0.9-0.3-1.3
				s-0.3-0.8-0.5-1.2c-0.2-0.4-0.5-0.7-0.7-0.9C281.7,20.2,281.3,20.1,281,20.1z"/>
			<path d="M305.4,33.5c-0.8,0-1.6-0.1-2.4-0.4c-0.8-0.3-1.5-0.7-2.2-1.2c-0.6-0.5-1.2-1.1-1.6-1.8c-0.4-0.7-0.6-1.5-0.6-2.5
				c0-1.9,0.9-3.9,2.6-6c0.1-0.2,0.2-0.3,0.3-0.4c0.1-0.1,0.2-0.2,0.3-0.3c0.1-0.1,0.1-0.2,0.2-0.2l0.3-0.3l-0.9-0.7l2.9-3.5
				c0.5,0.4,1.1,0.9,1.8,1.5c0.7,0.6,1.5,1.4,2.4,2.4c2.5,2.8,3.7,5.4,3.7,7.6c0,1-0.2,1.8-0.6,2.5s-0.9,1.3-1.5,1.8
				c-0.6,0.5-1.4,0.9-2.2,1.1C307.1,33.3,306.3,33.5,305.4,33.5z M308.2,27.6c0-0.3-0.1-0.6-0.3-1c-0.2-0.4-0.4-0.8-0.8-1.2
				c-0.3-0.4-0.7-0.8-1-1.2c-0.4-0.4-0.8-0.8-1.2-1.2c-0.3,0.3-0.5,0.6-0.8,1s-0.6,0.7-0.8,1.1c-0.2,0.4-0.4,0.8-0.6,1.2
				c-0.2,0.4-0.2,0.8-0.2,1.3c0,0.2,0.1,0.4,0.3,0.6c0.2,0.2,0.5,0.3,0.8,0.4s0.6,0.2,0.9,0.2c0.3,0.1,0.6,0.1,0.8,0.1
				c0.3,0,0.6,0,0.9-0.1c0.3,0,0.6-0.1,0.9-0.2s0.5-0.2,0.7-0.4C308.1,28,308.2,27.8,308.2,27.6z"/>
			<path d="M321.5,24.8c0.2,0.7,0.4,1.4,0.6,2.2c0.2,0.7,0.3,1.5,0.5,2.2c0.1,0.7,0.2,1.4,0.2,2.1c0,0.9-0.1,1.8-0.4,2.6
				c-0.2,0.9-0.6,1.7-1,2.5s-1,1.6-1.6,2.3s-1.3,1.4-2,2.1c-0.7,0.7-1.6,1.3-2.4,1.8c-0.9,0.6-1.7,1.1-2.7,1.5l-2.6-3.6
				c0.7-0.3,1.4-0.7,2.1-1.2c0.7-0.4,1.4-0.9,2-1.4s1.3-1,1.8-1.6c0.6-0.5,1.1-1.1,1.5-1.7c0.4-0.6,0.7-1.1,1-1.7
				c0.2-0.6,0.4-1.2,0.4-1.7c0-0.4-0.1-0.8-0.2-1.3s-0.3-1-0.5-1.5s-0.4-1.1-0.7-1.7c-0.3-0.6-0.5-1.3-0.8-2l4.2-1.9
				C321.1,23.5,321.3,24.1,321.5,24.8z"/>
			<path d="M332.3,33.5c-1.2,0-2.2-0.2-3.1-0.5c-0.8-0.3-1.5-0.8-2-1.3c-0.5-0.6-0.9-1.2-1.1-2s-0.4-1.6-0.4-2.5c0-0.5,0-1,0-1.7
				s0-1.5,0-2.4s0-1.9,0-3s0-2.2-0.1-3.3c0-1.1-0.1-2.1-0.2-3.1s-0.2-1.9-0.3-2.6l4.3-1.3c0.1,0.6,0.2,1.4,0.3,2.2s0.1,1.8,0.2,2.7
				c0,0.9,0.1,1.9,0.1,2.8c0,1,0,1.8,0.1,2.7c0,0.7,0,1.5,0,2.3s-0.1,1.6-0.1,2.3c0,0.7,0,1.4,0,2s0.1,1,0.3,1.3
				c0.1,0.2,0.2,0.4,0.3,0.5c0.1,0.1,0.3,0.2,0.5,0.3c0.2,0.1,0.4,0.1,0.6,0.1s0.4,0,0.7,0h0.4v4.6L332.3,33.5L332.3,33.5z"/>
			<path d="M345.7,28.9v4.6H332v-4.6H345.7z"/>
			<path d="M345.2,28.9h1c0-0.6,0.1-1.3,0.3-2.1c0.2-0.7,0.4-1.5,0.7-2.2c0.3-0.8,0.6-1.5,1-2.2s0.8-1.3,1.3-1.9s1-1,1.5-1.4
				c0.6-0.4,1.1-0.5,1.7-0.6c0.6,0,1.2,0.2,1.8,0.5s1,0.8,1.4,1.4s0.7,1.2,0.9,1.9c0.2,0.7,0.3,1.5,0.3,2.2c0,0.9-0.2,1.7-0.6,2.6
				c-0.4,0.8-0.9,1.6-1.5,2.3c-0.6,0.7-1.3,1.4-2.1,1.9c-0.8,0.6-1.6,1-2.4,1.4c0.1,0.2,0.2,0.5,0.4,0.8c0.2,0.3,0.5,0.6,0.7,1
				s0.5,0.6,0.8,0.9c0.3,0.3,0.5,0.5,0.7,0.7c0-0.6,0.1-1.1,0.2-1.7c0.2-0.6,0.4-1.1,0.7-1.7c0.3-0.5,0.7-1,1.1-1.5s0.9-0.9,1.4-1.2
				c0.5-0.4,1-0.6,1.5-0.8c0.5-0.2,1-0.3,1.5-0.3h0.7v4.6h-0.8c-0.4,0-0.8,0.1-1.2,0.3c-0.4,0.2-0.7,0.5-1,0.9s-0.5,0.7-0.7,1.2
				c-0.2,0.4-0.3,0.9-0.3,1.3c0,0.2,0,0.4,0,0.5c0,0.2,0.1,0.3,0.2,0.5s0.2,0.4,0.3,0.5c0.1,0.2,0.3,0.4,0.5,0.6l-2.6,3.2
				c-1.2-0.7-2.2-1.4-3-2.1c-0.9-0.7-1.6-1.5-2.3-2.2c-0.6-0.8-1.2-1.5-1.6-2.3s-0.8-1.6-1.1-2.4h-1.8v-4.6
				C344.8,28.9,345.2,28.9,345.2,28.9z M353.6,25.2c0-0.3,0-0.6,0-0.9s-0.1-0.6-0.1-0.9s-0.2-0.5-0.3-0.8c-0.1-0.2-0.3-0.4-0.5-0.5
				c-0.2,0.1-0.4,0.3-0.6,0.6c-0.2,0.3-0.4,0.6-0.7,1c-0.2,0.4-0.4,0.8-0.6,1.3s-0.4,0.9-0.6,1.4s-0.3,0.9-0.4,1.4
				c-0.1,0.4-0.2,0.8-0.2,1.2c0.4-0.1,0.8-0.2,1.3-0.5c0.4-0.2,0.9-0.5,1.2-0.9c0.4-0.3,0.7-0.7,1-1.1
				C353.5,26.1,353.6,25.7,353.6,25.2z"/>
			<path d="M360.1,28.9h1.9c0.4,0,0.8,0,1.3-0.1s0.9-0.2,1.4-0.3c0.4-0.1,0.8-0.4,1.1-0.6c0.3-0.3,0.4-0.6,0.4-0.9
				c0-0.2-0.1-0.6-0.2-1c-0.1-0.5-0.3-1-0.5-1.5c-0.2-0.6-0.5-1.2-0.7-1.8c-0.3-0.6-0.6-1.2-0.8-1.8l4.1-2c0.3,0.6,0.5,1.2,0.8,1.9
				c0.3,0.7,0.5,1.4,0.7,2.1s0.4,1.4,0.5,2.1s0.2,1.4,0.2,2c0,1.2-0.2,2.1-0.6,3c-0.4,0.8-0.9,1.5-1.6,2c-0.7,0.5-1.5,0.9-2.5,1.2
				c-1,0.2-2,0.4-3.2,0.4h-2.3L360.1,28.9L360.1,28.9z M364.7,41.4l-3.2-3.2l3.2-3.2l3.2,3.2L364.7,41.4z"/>
			<path d="M394.6,33.5c-0.9,0-1.8,0-2.8-0.1s-2-0.2-3-0.4s-1.9-0.5-2.9-0.9c-0.9-0.4-1.8-0.8-2.5-1.4s-1.3-1.3-1.8-2.1
				c-0.5-0.8-0.7-1.8-0.8-3c0-0.6,0.1-1.1,0.2-1.7c0.1-0.5,0.3-1.1,0.5-1.6s0.4-1,0.7-1.5c0.3-0.5,0.5-1,0.8-1.5l3.4,2.8
				c-0.1,0.2-0.3,0.5-0.5,0.8s-0.4,0.7-0.6,1c-0.2,0.4-0.3,0.7-0.4,1.1s-0.2,0.7-0.2,0.9c0,0.4,0.1,0.7,0.4,1s0.6,0.5,1.1,0.7
				s1,0.4,1.6,0.6s1.3,0.3,2,0.4s1.5,0.2,2.3,0.2s1.6,0.1,2.4,0.1c0.4,0,0.8,0,1.2,0c0.4,0,0.8,0,1.2,0c0.4,0,0.7,0,1,0s0.5,0,0.6,0
				c-0.3-0.4-0.7-0.9-0.9-1.4c-0.3-0.6-0.4-1.2-0.5-1.9c0-0.6,0-1.1,0.2-1.7c0.1-0.6,0.3-1.1,0.6-1.7s0.6-1.1,1-1.5
				c0.4-0.5,0.8-0.9,1.3-1.2c0.5-0.4,1-0.6,1.5-0.8c0.5-0.2,1.1-0.3,1.7-0.3c0.8,0,1.6,0.3,2.3,0.6c0.7,0.4,1.3,0.9,1.9,1.5
				c0.5,0.6,0.9,1.3,1.2,2.1c0.3,0.8,0.5,1.6,0.5,2.4c0,0.7-0.1,1.3-0.3,2c-0.2,0.6-0.5,1.2-0.8,1.8c0.5,0,0.9,0.1,1.3,0.1
				s0.8,0.1,1.2,0.1h0.5v4.6h-0.4c-0.6,0-1.2,0-1.8,0c-0.6,0-1.3-0.1-1.9-0.2c-0.6-0.1-1.2-0.2-1.9-0.4c-0.6-0.2-1.2-0.4-1.8-0.6
				c-0.2,0.1-0.5,0.3-1,0.4c-0.4,0.1-0.9,0.2-1.4,0.3s-1.1,0.2-1.6,0.2c-0.6,0.1-1.2,0.1-1.8,0.2c-0.6,0-1.2,0.1-1.7,0.1
				C395.6,33.4,395,33.5,394.6,33.5z M404.2,15.9l-3.2-3.2l3.2-3.2l3.2,3.2L404.2,15.9z M405.6,25.3c0-0.3-0.1-0.6-0.2-0.9
				s-0.3-0.5-0.5-0.7s-0.4-0.4-0.7-0.6c-0.3-0.1-0.5-0.3-0.7-0.3s-0.5,0.1-0.8,0.3c-0.3,0.1-0.6,0.3-0.8,0.5
				c-0.3,0.2-0.5,0.5-0.6,0.8c-0.2,0.3-0.3,0.7-0.3,1.1c0,0.1,0.1,0.3,0.2,0.6c0.1,0.3,0.3,0.5,0.6,0.8c0.2,0.3,0.5,0.5,0.8,0.7
				s0.6,0.4,0.9,0.5c0.2-0.1,0.5-0.3,0.7-0.6c0.2-0.2,0.5-0.5,0.7-0.7c0.2-0.3,0.4-0.5,0.5-0.8C405.6,25.7,405.6,25.5,405.6,25.3z"
				/>
			<path d="M424.4,28.9v4.6h-13.7v-4.6H424.4z"/>
			<path d="M436.7,28.9v4.6h-0.3c-0.5,0-0.9,0-1.4-0.1c-0.4-0.1-0.9-0.2-1.3-0.3s-0.8-0.3-1.1-0.5c-0.3-0.2-0.6-0.4-0.9-0.6
				c-0.5,0.3-1,0.6-1.5,0.8c-0.6,0.2-1.2,0.4-1.8,0.5c-0.6,0.1-1.3,0.2-2,0.2s-1.4,0.1-2,0.1h-0.5V29h0.5c0.7,0,1.3,0,1.9-0.1
				c0.5,0,1-0.1,1.4-0.2s0.8-0.2,1-0.4c0.3-0.2,0.5-0.4,0.7-0.6c0.2-0.3,0.4-0.6,0.4-1c0.1-0.4,0.1-0.8,0-1.2c0-0.4-0.1-0.8-0.2-1.2
				c-0.1-0.4-0.2-0.8-0.3-1.1l4.2-1.2c0.1,0.4,0.2,0.8,0.3,1.2c0.1,0.4,0.2,0.7,0.2,1c0.1,0.3,0.1,0.7,0.2,1c0,0.3,0.1,0.7,0.2,1.1
				c0,0.3,0.1,0.5,0.2,0.8s0.2,0.6,0.3,0.8c0.1,0.3,0.3,0.5,0.6,0.6c0.3,0.2,0.6,0.3,1,0.3h0.2L436.7,28.9L436.7,28.9z M429.5,37.7
				l-2.7,2.7l-2.8-2.8l2.8-2.8l2.7,2.7l2.7-2.7l2.8,2.8l-2.8,2.8L429.5,37.7z"/>
			<path d="M436.1,28.9h1c0.2,0,0.4,0,0.7,0c0.2,0,0.4,0,0.6-0.1c0.2,0,0.4-0.1,0.5-0.1c-0.2-0.2-0.3-0.4-0.5-0.6s-0.3-0.5-0.4-0.7
				c-0.1-0.3-0.2-0.6-0.3-0.9c-0.1-0.3-0.1-0.7-0.2-1c0-0.6,0-1.1,0.2-1.7c0.1-0.6,0.3-1.1,0.6-1.7c0.3-0.5,0.6-1.1,1-1.5
				c0.4-0.5,0.8-0.9,1.3-1.2c0.5-0.4,1-0.6,1.5-0.8c0.5-0.2,1.1-0.3,1.7-0.3c0.8,0,1.6,0.3,2.3,0.6c0.7,0.4,1.3,0.9,1.9,1.5
				c0.5,0.6,0.9,1.3,1.2,2.1c0.3,0.8,0.5,1.6,0.5,2.4c0,0.7-0.1,1.3-0.3,2c-0.2,0.6-0.5,1.2-0.8,1.8c0.2,0.1,0.6,0.1,0.9,0.1
				c0.4,0,0.8,0,1.4,0h0.3v4.6h-0.6c-0.6,0-1.2,0-1.8-0.1c-0.6,0-1.1-0.1-1.7-0.2c-0.5-0.1-1.1-0.2-1.6-0.4
				c-0.5-0.1-1.1-0.3-1.7-0.6c-0.4,0.2-0.8,0.4-1.3,0.5s-1.1,0.3-1.8,0.4c-0.6,0.1-1.3,0.2-2,0.2s-1.4,0.1-2,0.1h-0.6L436.1,28.9
				L436.1,28.9z M443.5,16.2l-3.2-3.2l3.2-3.2l3.2,3.2L443.5,16.2z M445.9,25.3c0-0.3-0.1-0.6-0.2-0.9s-0.3-0.5-0.5-0.7
				s-0.4-0.4-0.7-0.6c-0.2-0.1-0.5-0.3-0.7-0.3s-0.5,0.1-0.8,0.3c-0.3,0.1-0.6,0.3-0.8,0.5c-0.3,0.2-0.5,0.5-0.6,0.8
				c-0.2,0.3-0.3,0.7-0.3,1.1c0,0.1,0.1,0.3,0.2,0.6c0.1,0.3,0.3,0.5,0.6,0.8c0.2,0.3,0.5,0.5,0.8,0.7s0.6,0.4,0.9,0.5
				c0.2-0.1,0.5-0.3,0.7-0.6s0.5-0.5,0.7-0.7c0.2-0.3,0.4-0.5,0.5-0.8C445.8,25.7,445.9,25.5,445.9,25.3z"/>
			<path d="M450.6,28.9h2.9c0.7,0,1.4,0,2.2-0.1c0.8-0.1,1.6-0.2,2.4-0.4c0.8-0.2,1.6-0.4,2.5-0.6c0.8-0.2,1.6-0.5,2.4-0.7
				c0.8-0.3,1.5-0.5,2.2-0.8s1.4-0.6,2-0.9c-0.6-0.1-1.3-0.3-2-0.6c-0.7-0.3-1.5-0.5-2.2-0.8s-1.5-0.5-2.2-0.6
				c-0.7-0.2-1.3-0.3-1.9-0.3c-0.4,0-0.7,0.1-1,0.2s-0.6,0.3-0.9,0.5s-0.5,0.4-0.8,0.7c-0.2,0.2-0.4,0.5-0.6,0.7s-0.3,0.4-0.4,0.5
				l-0.1,0.2l-3.4-2c0.4-0.7,0.8-1.4,1.4-2.1c0.5-0.7,1.1-1.2,1.8-1.7c0.6-0.5,1.3-0.9,2-1.2c0.7-0.3,1.4-0.4,2.1-0.4
				c0.5,0,1,0.1,1.5,0.2s1,0.3,1.5,0.4c0.5,0.2,1,0.4,1.6,0.6c0.5,0.2,1.1,0.5,1.6,0.7c0.5,0.3,1.2,0.5,1.8,0.8
				c0.7,0.3,1.4,0.5,2.1,0.7s1.5,0.4,2.2,0.5c0.8,0.1,1.5,0.2,2.2,0.2l-0.7,4.3c-0.2,0.1-0.5,0.2-0.7,0.3c-0.3,0.1-0.5,0.2-0.7,0.4
				l-0.4,0.2c0.2,0.3,0.5,0.5,0.8,0.6s0.7,0.3,1.1,0.3s0.7,0.1,1,0.1s0.6,0,0.8,0h0.5v4.6h-0.5c-0.9,0-1.8-0.1-2.6-0.2
				c-0.8-0.2-1.6-0.4-2.2-0.7c-0.7-0.3-1.3-0.7-1.8-1.1s-0.9-1-1.3-1.5c-1,0.5-1.9,0.9-3,1.3c-1,0.4-2.1,0.8-3.2,1.2
				c-1.1,0.3-2.3,0.6-3.4,0.8c-1.2,0.2-2.4,0.3-3.7,0.3h-2.9L450.6,28.9L450.6,28.9z M458.7,17.1l-3.2-3.2l3.2-3.2l3.2,3.2
				L458.7,17.1z"/>
			<path d="M474.6,28.9h3.5c0.4,0,0.9,0,1.4-0.1c0.5,0,1-0.1,1.4-0.3c0.4-0.1,0.8-0.3,1.1-0.6c0.3-0.3,0.4-0.6,0.4-1
				c0-0.2-0.1-0.6-0.2-1c-0.1-0.5-0.3-1-0.5-1.5c-0.2-0.6-0.5-1.2-0.8-1.8c-0.3-0.6-0.6-1.2-0.8-1.8l4.1-2c0.3,0.6,0.5,1.2,0.8,1.9
				c0.3,0.7,0.5,1.4,0.7,2.1s0.4,1.4,0.5,2.1s0.2,1.4,0.2,2c0,1.2-0.2,2.2-0.7,3c-0.4,0.8-1,1.5-1.8,2c-0.7,0.5-1.6,0.9-2.6,1.1
				c-1,0.2-2.1,0.4-3.2,0.4h-3.4v-4.5C474.7,28.9,474.6,28.9,474.6,28.9z M481.3,14l-2.7,2.7l-2.8-2.8l2.8-2.8l2.7,2.7l2.7-2.7
				l2.8,2.8l-2.8,2.8L481.3,14z"/>
			<path d="M504,33.5c-0.8,0-1.6-0.1-2.4-0.4c-0.8-0.3-1.5-0.7-2.2-1.2c-0.6-0.5-1.2-1.1-1.6-1.8c-0.4-0.7-0.6-1.5-0.6-2.5
				c0-1.9,0.9-3.9,2.6-6c0.1-0.2,0.2-0.3,0.3-0.4c0.1-0.1,0.2-0.2,0.3-0.3s0.1-0.2,0.2-0.2l0.3-0.3l-0.9-0.7l2.9-3.5
				c0.5,0.4,1.1,0.9,1.8,1.5c0.7,0.6,1.5,1.4,2.4,2.4c2.5,2.8,3.7,5.4,3.7,7.6c0,1-0.2,1.8-0.6,2.5s-0.9,1.3-1.5,1.8
				c-0.6,0.5-1.4,0.9-2.2,1.1C505.7,33.3,504.9,33.5,504,33.5z M506.8,27.6c0-0.3-0.1-0.6-0.3-1c-0.2-0.4-0.4-0.8-0.8-1.2
				c-0.3-0.4-0.7-0.8-1-1.2c-0.4-0.4-0.8-0.8-1.2-1.2c-0.3,0.3-0.5,0.6-0.8,1s-0.6,0.7-0.8,1.1c-0.2,0.4-0.4,0.8-0.6,1.2
				c-0.2,0.4-0.2,0.8-0.2,1.3c0,0.2,0.1,0.4,0.3,0.6c0.2,0.2,0.5,0.3,0.8,0.4s0.6,0.2,0.9,0.2c0.3,0.1,0.6,0.1,0.8,0.1
				c0.3,0,0.6,0,0.9-0.1c0.3,0,0.6-0.1,0.9-0.2s0.5-0.2,0.7-0.4C506.8,28,506.8,27.8,506.8,27.6z"/>
			<path d="M520.1,24.8c0.2,0.7,0.4,1.4,0.6,2.2c0.2,0.7,0.3,1.5,0.5,2.2c0.1,0.7,0.2,1.4,0.2,2.1c0,0.9-0.1,1.8-0.4,2.6
				c-0.2,0.9-0.6,1.7-1,2.5s-1,1.6-1.6,2.3s-1.3,1.4-2,2.1c-0.7,0.7-1.6,1.3-2.4,1.8c-0.9,0.6-1.7,1.1-2.7,1.5l-2.6-3.6
				c0.7-0.3,1.4-0.7,2.1-1.2c0.7-0.4,1.4-0.9,2-1.4s1.3-1,1.8-1.6c0.6-0.5,1.1-1.1,1.5-1.7c0.4-0.6,0.7-1.1,1-1.7
				c0.2-0.6,0.4-1.2,0.4-1.7c0-0.4-0.1-0.8-0.2-1.3s-0.3-1-0.5-1.5s-0.4-1.1-0.7-1.7s-0.5-1.3-0.8-2l4.2-1.9
				C519.7,23.5,519.9,24.1,520.1,24.8z"/>
			<path d="M524.2,31c0-0.8,0.1-1.7,0.1-2.5s0.1-1.6,0.1-2.4s0-1.5,0-2.1c-0.1-1.4-0.1-2.6-0.2-3.6c-0.1-1-0.1-1.9-0.2-2.7
				c-0.1-0.8-0.1-1.5-0.2-2.1c-0.1-0.6-0.1-1.2-0.2-1.7c-0.1-0.5-0.1-1-0.2-1.4c-0.1-0.4-0.1-0.9-0.2-1.4l4.5-1.5
				c0.2,1.3,0.4,2.6,0.5,3.9s0.2,2.6,0.3,3.8c0.1,1.2,0.1,2.3,0.1,3.3s0,1.9,0,2.6s0,1.4,0,2.1c0,0.8,0,1.6,0,2.4s0,1.7-0.1,2.5
				c0,0.8-0.1,1.7-0.1,2.5l-4.5,0.7C524.1,32.7,524.1,31.9,524.2,31z"/>
			<path d="M530.1,39.2c1.4-0.3,2.6-0.6,3.7-1c1.1-0.4,2.1-0.9,2.9-1.4s1.5-1,2.1-1.6s0.9-1.1,1.2-1.7c-0.4,0-0.9,0-1.3,0
				s-0.8,0-1.1-0.1c-1-0.1-1.8-0.3-2.6-0.5c-0.8-0.3-1.4-0.7-2-1.2s-1-1.1-1.3-1.8c-0.3-0.7-0.5-1.5-0.5-2.5c0-0.6,0.1-1.2,0.2-1.8
				c0.1-0.6,0.3-1.2,0.5-1.8c0.2-0.6,0.5-1.1,0.9-1.7c0.4-0.5,0.7-1,1.2-1.4c0.4-0.4,0.9-0.7,1.5-0.9c0.5-0.2,1.1-0.3,1.7-0.3
				c0.7,0,1.4,0.1,2,0.4s1.2,0.6,1.7,1.1s1,1,1.4,1.6s0.7,1.3,1,2s0.5,1.4,0.7,2.2c0.2,0.7,0.3,1.5,0.4,2.2h0.6v4.6h-0.9
				c-0.4,1.4-1,2.7-1.8,3.8s-1.8,2.2-2.9,3c-1.1,0.9-2.4,1.6-3.8,2.1c-1.4,0.6-2.9,1-4.4,1.2L530.1,39.2z M537.2,24.1
				c-0.2,0-0.4,0-0.7,0.2s-0.5,0.4-0.7,0.7s-0.4,0.6-0.6,1c-0.2,0.4-0.2,0.7-0.2,1.1c0,0.3,0.1,0.6,0.3,0.8c0.2,0.2,0.5,0.4,0.8,0.5
				s0.7,0.2,1.1,0.3c0.4,0.1,0.8,0.1,1.2,0.1s0.8,0,1.1,0h0.9c-0.1-0.6-0.3-1.2-0.5-1.7s-0.4-1-0.7-1.5c-0.3-0.4-0.6-0.8-0.9-1.1
				C537.9,24.3,537.6,24.2,537.2,24.1z"/>
			<path d="M558.1,28.9v4.6h-13.7v-4.6H558.1z"/>
			<path d="M568.3,28.9v4.6H568c-0.9,0-1.7-0.1-2.4-0.4c-0.6-0.3-1.2-0.6-1.7-1.1c-0.7,0.5-1.5,0.9-2.4,1.1s-2.1,0.3-3.4,0.3h-0.5
				v-4.6h0.5c1.3,0,2.3-0.2,3-0.6s1-1.1,1-1.9c0-0.3,0-0.7-0.1-1.2s-0.2-1.2-0.5-2.1l4.1-1c0.2,0.5,0.3,1,0.4,1.4
				c0.1,0.4,0.2,0.8,0.2,1.1c0.1,0.3,0.1,0.6,0.1,0.9s0.1,0.6,0.1,0.8c0,0.3,0,0.6,0.1,0.9c0,0.3,0.1,0.6,0.2,0.8s0.3,0.5,0.5,0.6
				c0.2,0.2,0.5,0.3,0.8,0.3h0.3L568.3,28.9L568.3,28.9z M562.1,19.7l-3.2-3.2l3.2-3.2l3.2,3.2L562.1,19.7z"/>
			<path d="M568,28.9c0.5,0,1-0.1,1.4-0.3c0.4-0.2,0.9-0.5,1.3-1c0.4-0.5,0.8-1.2,1.1-2c0.3-0.9,0.7-2,1-3.4l3.8,0.5
				c0,0,0,0.1,0,0.2c-0.1,0.2-0.1,0.6-0.2,1c-0.1,0.4-0.2,0.9-0.2,1.5C576,26,576,26.5,576,27s0.1,0.9,0.2,1.3s0.3,0.6,0.6,0.6
				c0.3,0.1,0.6,0,0.9-0.2c0.3-0.2,0.5-0.5,0.8-0.9c0.2-0.4,0.5-0.8,0.7-1.3s0.4-1,0.6-1.5s0.3-1,0.4-1.5c0.1-0.5,0.2-0.9,0.3-1.3
				l3.8,0.5c0,0.2-0.1,0.6-0.1,1s-0.1,0.8-0.1,1.3s0,0.9,0,1.4s0.1,0.9,0.2,1.2c0.1,0.4,0.2,0.7,0.4,0.9c0.2,0.2,0.5,0.4,0.8,0.4
				s0.6-0.1,0.8-0.3c0.2-0.2,0.4-0.5,0.6-0.8c0.2-0.3,0.3-0.7,0.4-1.2c0.1-0.4,0.2-0.9,0.2-1.3c0-0.5,0.1-0.9,0.1-1.3s0-0.8,0-1.1
				l3.9-0.5l0.5,4.1c0.1,0.4,0.2,0.8,0.4,1.2c0.2,0.3,0.4,0.6,0.7,0.8c0.3,0.2,0.5,0.4,0.8,0.5s0.6,0.2,0.8,0.2h0.5v4.6h-0.5
				c-0.9,0-1.8-0.2-2.6-0.5s-1.5-0.9-2.1-1.7c-0.1,0.1-0.1,0.1-0.2,0.2c-0.1,0.1-0.1,0.1-0.2,0.2l0,0c-0.5,0.5-1.1,1-1.8,1.3
				s-1.4,0.5-2.2,0.5c-0.9,0-1.7-0.2-2.4-0.6c-0.7-0.4-1.3-0.9-1.8-1.5c-0.6,0.6-1.2,1.1-2,1.5c-0.7,0.4-1.5,0.6-2.4,0.6
				c-0.8,0-1.6-0.2-2.3-0.5c-0.7-0.4-1.3-0.9-1.7-1.5c-0.5,0.7-1.2,1.2-1.9,1.5c-0.8,0.3-1.7,0.5-2.8,0.5H568v-4.6l0,0V28.9z
				 M576.6,22.8L576.6,22.8C576.6,22.7,576.6,22.7,576.6,22.8z M582.4,16.6l-2.7,2.7l-2.8-2.8l2.8-2.8l2.7,2.7l2.7-2.7l2.8,2.8
				l-2.8,2.8L582.4,16.6z M584.9,12.4l-2.6,2.6l-2.6-2.6l2.6-2.6L584.9,12.4z"/>
			<path d="M594.4,28.9h3c1.6,0,3-0.1,4.3-0.3c1.3-0.2,2.5-0.4,3.7-0.8c1.1-0.3,2.2-0.7,3.2-1.1s2-0.9,3-1.3c-0.7-0.2-1.3-0.4-2-0.7
				c-0.7-0.3-1.3-0.5-2-0.8s-1.3-0.5-2-0.6c-0.7-0.2-1.3-0.3-1.9-0.3c-0.4,0-0.9,0.1-1.3,0.4c-0.4,0.2-0.8,0.5-1.2,0.8
				c-0.3,0.3-0.6,0.6-0.9,0.9c-0.2,0.3-0.4,0.5-0.4,0.6l-3.3-2.1c0.4-0.6,0.8-1.3,1.3-1.9s1-1.2,1.7-1.6c0.6-0.5,1.2-0.9,1.9-1.1
				c0.7-0.3,1.4-0.4,2.2-0.4c0.6,0,1.1,0.1,1.7,0.2c0.6,0.1,1.1,0.3,1.7,0.5c0.6,0.2,1.1,0.4,1.7,0.7c0.5,0.2,1.1,0.5,1.6,0.7
				s1,0.5,1.5,0.7s1.1,0.5,1.6,0.6c0.5,0.2,1.1,0.4,1.7,0.5c0.6,0.1,1.2,0.2,1.9,0.2l-0.4,4.4l-2,1c-0.8,0.4-1.7,0.8-2.5,1.2
				c-0.8,0.4-1.7,0.8-2.5,1.2c-0.9,0.4-1.7,0.8-2.7,1.1c-0.9,0.4-1.9,0.7-2.9,0.9c-1,0.3-2.1,0.5-3.2,0.6c-1.1,0.2-2.3,0.2-3.6,0.2
				h-3v-4.4C594.3,28.9,594.4,28.9,594.4,28.9z M606.3,41.3l-3.2-3.2l3.2-3.2l3.2,3.2L606.3,41.3z"/>
		</g>
	</g>
	<g>
		<g>
			<path class="st1" d="M211,16.2c0.1,0.3,0.3,0.7,0.5,1.1s0.4,0.9,0.6,1.4c0.2,0.5,0.4,1.1,0.6,1.7c0.2,0.6,0.3,1.2,0.4,1.8
				c0.1,0.6,0.2,1.2,0.2,1.8c0,1-0.2,1.8-0.4,2.7c-0.3,0.8-0.7,1.5-1.2,2.2c-0.5,0.6-1.2,1.1-2,1.4c-0.8,0.4-1.7,0.5-2.7,0.5
				c-0.9,0-1.6-0.1-2.2-0.4c-0.6-0.3-1-0.7-1.4-1.2c-0.2,0.3-0.4,0.5-0.6,0.7s-0.5,0.4-0.8,0.5s-0.7,0.3-1.1,0.3
				c-0.4,0.1-0.9,0.1-1.5,0.1c-0.4,0-0.8,0-1.1-0.1s-0.6-0.1-0.9-0.2c0,1.1-0.2,2.1-0.5,3.1c-0.3,0.9-0.8,1.7-1.4,2.5
				c-0.6,0.7-1.2,1.4-2,1.9s-1.6,1-2.5,1.3c-0.9,0.4-1.8,0.6-2.8,0.8s-1.9,0.3-2.9,0.3c-1.5,0-2.8-0.2-4.1-0.7
				c-1.2-0.5-2.3-1.2-3.2-2c-0.9-0.9-1.6-1.9-2.1-3.2c-0.5-1.2-0.8-2.6-0.8-4.1c0-0.9,0.1-1.7,0.4-2.7c0.2-0.9,0.5-1.8,0.8-2.7
				c0.3-0.9,0.7-1.7,1.1-2.5c0.4-0.8,0.8-1.5,1.2-2.1l3.1,2.4c-0.3,0.6-0.7,1.2-1,1.8c-0.3,0.6-0.6,1.3-0.9,1.9
				c-0.2,0.7-0.5,1.3-0.6,2c-0.2,0.7-0.2,1.3-0.2,1.9c0,0.7,0.1,1.4,0.4,2.1c0.3,0.6,0.8,1.2,1.3,1.7c0.6,0.5,1.2,0.9,2,1.1
				c0.8,0.3,1.6,0.4,2.5,0.4c1,0,1.9-0.1,2.7-0.3s1.6-0.4,2.2-0.8c0.6-0.3,1.2-0.7,1.6-1.2c0.4-0.5,0.8-1,1-1.5l0,0
				c0.2-0.8,0.4-1.6,0.4-2.4c0-0.6-0.1-1.3-0.3-2s-0.4-1.3-0.7-2s-0.6-1.4-1-2c-0.4-0.7-0.7-1.4-1-2.1l3.9-2.2
				c0.2,0.6,0.5,1.1,0.7,1.7c0.3,0.6,0.5,1.1,0.8,1.7c0.3,0.5,0.5,1,0.8,1.5s0.5,0.8,0.8,1.2c0.3,0.3,0.6,0.6,0.9,0.7
				c0.3,0.2,0.6,0.2,1,0.2c0.4-0.1,0.7-0.2,1-0.4c0.2-0.2,0.4-0.5,0.6-0.8c0.1-0.3,0.2-0.7,0.2-1.1s0-0.8,0-1.3
				c0-0.4-0.1-0.9-0.1-1.3s-0.1-0.8-0.1-1.2l4-0.5c0.1,0.3,0.1,0.7,0.2,1.1c0,0.4,0.1,0.9,0.2,1.3c0.1,0.5,0.1,0.9,0.2,1.4
				c0.1,0.5,0.2,0.9,0.4,1.3s0.4,0.8,0.6,1.1c0.2,0.3,0.5,0.5,0.9,0.6c0.3,0,0.6-0.1,0.8-0.2c0.3-0.1,0.5-0.3,0.7-0.5
				s0.3-0.5,0.5-0.8c0.1-0.3,0.2-0.7,0.2-1.1c0-0.3-0.1-0.7-0.2-1.2c-0.1-0.5-0.3-0.9-0.5-1.5c-0.2-0.5-0.5-1.1-0.8-1.7
				s-0.6-1.2-0.9-1.8l3.7-2.1C210.7,15.7,210.8,15.9,211,16.2z"/>
			<path class="st1" d="M222.4,22.2c0.2,0.7,0.4,1.4,0.6,2.2c0.2,0.7,0.3,1.5,0.5,2.2c0.1,0.7,0.2,1.4,0.2,2.1
				c0,0.9-0.1,1.8-0.4,2.6c-0.2,0.9-0.6,1.7-1,2.5s-1,1.6-1.6,2.3s-1.3,1.4-2,2.1c-0.7,0.7-1.6,1.3-2.4,1.8
				c-0.9,0.6-1.7,1.1-2.7,1.5l-2.6-3.6c0.7-0.3,1.4-0.7,2.1-1.2c0.7-0.4,1.4-0.9,2-1.4s1.3-1,1.8-1.6c0.6-0.5,1.1-1.1,1.5-1.7
				c0.4-0.6,0.7-1.1,1-1.7c0.2-0.6,0.4-1.2,0.4-1.7c0-0.4-0.1-0.8-0.2-1.3c-0.1-0.5-0.3-1-0.5-1.5s-0.4-1.1-0.7-1.7s-0.5-1.3-0.8-2
				l4.2-1.9C221.9,20.8,222.2,21.5,222.4,22.2z"/>
			<path class="st1" d="M227.9,24.8c0.5,0.3,1.1,0.5,1.7,0.7c0.6,0.2,1.1,0.4,1.7,0.5c0.5,0.1,1,0.2,1.4,0.2c0.2,0,0.5,0,0.9-0.1
				c0.4,0,0.8-0.1,1.2-0.2s0.7-0.3,1-0.5s0.4-0.5,0.5-0.8c0-0.4-0.1-0.8-0.3-1.3s-0.6-1-1-1.5s-0.9-1-1.4-1.6
				c-0.5-0.5-1.1-1-1.6-1.5c-0.6-0.5-1.1-0.9-1.7-1.4c-0.6-0.4-1.1-0.8-1.5-1.1l2.6-3.8c0.9,0.7,1.9,1.4,2.8,2.2
				c0.9,0.8,1.8,1.7,2.5,2.6s1.4,1.8,2,2.8s1,1.9,1.2,2.9c0.1,0.3,0.1,0.6,0.2,0.8c0,0.3,0,0.6,0,0.8c0,0.9-0.2,1.7-0.5,2.5
				c-0.3,0.7-0.8,1.4-1.4,1.9c-0.6,0.5-1.4,1-2.2,1.3c-0.9,0.3-1.8,0.4-2.9,0.4c-0.1,0-0.2,0-0.2,0c-0.1,0-0.2,0-0.2,0
				c-0.7,0-1.3-0.1-2-0.2s-1.4-0.3-2.1-0.6c-0.7-0.2-1.3-0.5-2-0.8c-0.6-0.3-1.2-0.6-1.8-1l1.9-4.3
				C226.9,24.3,227.4,24.6,227.9,24.8z"/>
			<path class="st1" d="M242.7,28.4c0-0.8,0.1-1.7,0.1-2.5s0.1-1.6,0.1-2.4s0-1.5,0-2.1c-0.1-1.4-0.1-2.6-0.2-3.6
				c-0.1-1-0.1-1.9-0.2-2.7c-0.1-0.8-0.1-1.5-0.2-2.1c-0.1-0.6-0.1-1.2-0.2-1.7c-0.1-0.5-0.1-1-0.2-1.4c-0.1-0.4-0.1-0.9-0.2-1.4
				l4.5-1.5c0.2,1.3,0.4,2.6,0.5,3.9s0.2,2.6,0.3,3.8s0.1,2.3,0.1,3.3s0,1.9,0,2.6s0,1.4,0,2.1c0,0.8,0,1.6,0,2.4s0,1.7-0.1,2.5
				c0,0.8-0.1,1.7-0.1,2.5l-4.5,0.7C242.6,30.1,242.7,29.2,242.7,28.4z"/>
			<path class="st1" d="M260,30.8c-0.2,0-0.5,0-0.8,0s-0.7-0.1-1.2-0.3c-0.2,1.2-0.6,2.3-1.2,3.4c-0.6,1.1-1.3,2.1-2.2,3
				s-1.8,1.8-2.9,2.6c-1.1,0.8-2.3,1.5-3.5,2.1l-2.6-3.6c0.7-0.3,1.4-0.7,2.1-1.1c0.7-0.4,1.4-0.8,2-1.3s1.2-0.9,1.8-1.4
				c0.5-0.5,1-1,1.4-1.5s0.7-1.1,1-1.6c0.2-0.6,0.3-1.1,0.3-1.7c0-0.4-0.1-0.9-0.2-1.4c-0.1-0.6-0.3-1.2-0.5-1.9
				c-0.2-0.7-0.5-1.3-0.7-2c-0.3-0.7-0.5-1.3-0.8-1.8l4.2-1.8c0.4,1.2,0.8,2.1,1.1,2.9c0.4,0.8,0.7,1.4,1,1.8c0.3,0.5,0.6,0.8,0.9,1
				s0.6,0.3,0.9,0.3h0.3v4.6H260V30.8z"/>
			<path class="st1" d="M273.3,26.2v4.6h-13.7v-4.6H273.3z"/>
			<path class="st1" d="M273.3,26.2c0.4,0,0.8,0,1.3,0s1,0,1.6,0s1.2-0.1,1.8-0.1c0.6,0,1.2-0.1,1.7-0.2s1-0.2,1.5-0.4
				c0.5-0.1,0.8-0.3,1.1-0.5c-1.3,0.1-2.4,0.2-3.5,0.1s-2-0.3-2.7-0.6c-0.8-0.3-1.4-0.9-1.8-1.5c-0.4-0.7-0.6-1.6-0.7-2.8
				c0-0.5,0.1-1.1,0.2-1.6c0.1-0.6,0.3-1.1,0.5-1.7c0.2-0.5,0.5-1.1,0.8-1.5c0.3-0.5,0.7-0.9,1.1-1.3c0.4-0.4,0.9-0.7,1.4-0.9
				s1.1-0.3,1.7-0.3c0.8,0,1.5,0.1,2.1,0.4s1.2,0.7,1.7,1.2s0.9,1.1,1.3,1.7c0.4,0.6,0.7,1.3,0.9,2.1c0.2,0.7,0.4,1.5,0.6,2.2
				s0.2,1.5,0.2,2.2c0,1.2-0.2,2.2-0.5,3c-0.3,0.9-0.8,1.6-1.3,2.2c-0.6,0.6-1.3,1.1-2.1,1.5c-0.8,0.4-1.7,0.7-2.6,0.9
				s-1.9,0.4-3,0.5s-2.1,0.1-3.2,0.1h-0.5v-4.6h0.4V26.2z M279.1,11.4l-3.2-3.2l3.2-3.2l3.2,3.2L279.1,11.4z M279.2,17.4
				c-0.2,0-0.4,0.1-0.7,0.2c-0.2,0.1-0.4,0.3-0.6,0.6c-0.2,0.2-0.4,0.5-0.5,0.8s-0.2,0.6-0.2,0.9s0.1,0.5,0.3,0.7
				c0.2,0.2,0.4,0.3,0.7,0.4c0.3,0.1,0.6,0.2,0.9,0.2c0.4,0,0.7,0.1,1,0.1s0.7,0,1,0s0.5,0,0.7-0.1c-0.1-0.4-0.2-0.9-0.3-1.3
				s-0.3-0.8-0.5-1.2c-0.2-0.4-0.5-0.7-0.7-0.9C279.9,17.6,279.6,17.5,279.2,17.4z"/>
			<path class="st1" d="M303.7,30.8c-0.8,0-1.6-0.1-2.4-0.4s-1.5-0.7-2.2-1.2c-0.6-0.5-1.2-1.1-1.6-1.8c-0.4-0.7-0.6-1.5-0.6-2.5
				c0-1.9,0.9-3.9,2.6-6c0.1-0.2,0.2-0.3,0.3-0.4c0.1-0.1,0.2-0.2,0.3-0.3s0.1-0.2,0.2-0.2l0.3-0.3l-0.9-0.7l2.9-3.5
				c0.5,0.4,1.1,0.9,1.8,1.5c0.7,0.6,1.5,1.4,2.4,2.4c2.5,2.8,3.7,5.4,3.7,7.6c0,1-0.2,1.8-0.6,2.5s-0.9,1.3-1.5,1.8
				s-1.4,0.9-2.2,1.1C305.3,30.7,304.5,30.8,303.7,30.8z M306.5,24.9c0-0.3-0.1-0.6-0.3-1c-0.2-0.4-0.4-0.8-0.8-1.2
				c-0.3-0.4-0.7-0.8-1-1.2c-0.4-0.4-0.8-0.8-1.2-1.2c-0.3,0.3-0.5,0.6-0.8,1s-0.6,0.7-0.8,1.1c-0.2,0.4-0.4,0.8-0.6,1.2
				c-0.2,0.4-0.2,0.8-0.2,1.3c0,0.2,0.1,0.4,0.3,0.6c0.2,0.2,0.5,0.3,0.8,0.4s0.6,0.2,0.9,0.2c0.3,0.1,0.6,0.1,0.8,0.1
				c0.3,0,0.6,0,0.9-0.1c0.3,0,0.6-0.1,0.9-0.2s0.5-0.2,0.7-0.4C306.4,25.4,306.5,25.2,306.5,24.9z"/>
			<path class="st1" d="M319.7,22.2c0.2,0.7,0.4,1.4,0.6,2.2c0.2,0.7,0.3,1.5,0.5,2.2c0.1,0.7,0.2,1.4,0.2,2.1
				c0,0.9-0.1,1.8-0.4,2.6c-0.2,0.9-0.6,1.7-1,2.5s-1,1.6-1.6,2.3s-1.3,1.4-2,2.1c-0.7,0.7-1.6,1.3-2.4,1.8
				c-0.9,0.6-1.7,1.1-2.7,1.5l-2.6-3.6c0.7-0.3,1.4-0.7,2.1-1.2c0.7-0.4,1.4-0.9,2-1.4s1.3-1,1.8-1.6c0.6-0.5,1.1-1.1,1.5-1.7
				c0.4-0.6,0.7-1.1,1-1.7c0.2-0.6,0.4-1.2,0.4-1.7c0-0.4-0.1-0.8-0.2-1.3s-0.3-1-0.5-1.5s-0.4-1.1-0.7-1.7c-0.3-0.6-0.5-1.3-0.8-2
				l4.2-1.9C319.3,20.8,319.5,21.5,319.7,22.2z"/>
			<path class="st1" d="M330.5,30.8c-1.2,0-2.2-0.2-3.1-0.5c-0.8-0.3-1.5-0.8-2-1.3c-0.5-0.6-0.9-1.2-1.1-2s-0.4-1.6-0.4-2.5
				c0-0.5,0-1,0-1.7s0-1.5,0-2.4s0-1.9,0-3s0-2.2-0.1-3.3c0-1.1-0.1-2.1-0.2-3.1s-0.2-1.9-0.3-2.6l4.3-1.3c0.1,0.6,0.2,1.4,0.3,2.2
				c0.1,0.9,0.1,1.8,0.2,2.7c0,0.9,0.1,1.9,0.1,2.8c0,1,0,1.8,0.1,2.7c0,0.7,0,1.5,0,2.3s-0.1,1.6-0.1,2.3c0,0.7,0,1.4,0,2
				s0.1,1,0.3,1.3c0.1,0.2,0.2,0.4,0.3,0.5s0.3,0.2,0.5,0.3c0.2,0.1,0.4,0.1,0.6,0.1s0.4,0,0.7,0h0.4v4.6L330.5,30.8L330.5,30.8z"/>
			<path class="st1" d="M344,26.2v4.6h-13.7v-4.6H344z"/>
			<path class="st1" d="M343.4,26.2h1c0-0.6,0.1-1.3,0.3-2.1c0.2-0.7,0.4-1.5,0.7-2.2c0.3-0.8,0.6-1.5,1-2.2s0.8-1.3,1.3-1.9
				s1-1,1.5-1.4c0.6-0.4,1.1-0.5,1.7-0.6c0.6,0,1.2,0.2,1.8,0.5c0.5,0.4,1,0.8,1.4,1.4s0.7,1.2,0.9,1.9c0.2,0.7,0.3,1.5,0.3,2.2
				c0,0.9-0.2,1.7-0.6,2.6c-0.4,0.8-0.9,1.6-1.5,2.3c-0.6,0.7-1.3,1.4-2.1,1.9c-0.8,0.6-1.6,1-2.4,1.4c0.1,0.2,0.2,0.5,0.4,0.8
				c0.2,0.3,0.5,0.6,0.7,1c0.3,0.3,0.5,0.6,0.8,0.9s0.5,0.5,0.7,0.7c0-0.6,0.1-1.1,0.2-1.7c0.2-0.6,0.4-1.1,0.7-1.7
				c0.3-0.5,0.7-1,1.1-1.5s0.9-0.9,1.4-1.2c0.5-0.4,1-0.6,1.5-0.8c0.5-0.2,1-0.3,1.5-0.3h0.7v4.6h-0.8c-0.4,0-0.8,0.1-1.2,0.3
				c-0.4,0.2-0.7,0.5-1,0.9c-0.3,0.4-0.5,0.7-0.7,1.2c-0.2,0.4-0.3,0.9-0.3,1.3c0,0.2,0,0.4,0,0.5c0,0.2,0.1,0.3,0.2,0.5
				s0.2,0.4,0.3,0.5c0.1,0.2,0.3,0.4,0.5,0.6l-2.6,3.2c-1.2-0.7-2.2-1.4-3-2.1c-0.9-0.7-1.6-1.5-2.3-2.2c-0.6-0.8-1.2-1.5-1.6-2.3
				s-0.8-1.6-1.1-2.4H343v-4.6C343,26.2,343.4,26.2,343.4,26.2z M351.9,22.6c0-0.3,0-0.6,0-0.9s-0.1-0.6-0.1-0.9s-0.2-0.5-0.3-0.8
				c-0.1-0.2-0.3-0.4-0.5-0.5c-0.2,0.1-0.4,0.3-0.6,0.6c-0.2,0.3-0.4,0.6-0.7,1c-0.2,0.4-0.4,0.8-0.6,1.3s-0.4,0.9-0.6,1.4
				s-0.3,0.9-0.4,1.4c-0.1,0.4-0.2,0.8-0.2,1.2c0.4-0.1,0.8-0.2,1.3-0.5c0.4-0.2,0.9-0.5,1.2-0.9s0.7-0.7,1-1.1
				C351.7,23.4,351.8,23,351.9,22.6z"/>
			<path class="st1" d="M358.3,26.2h1.9c0.4,0,0.8,0,1.3-0.1s0.9-0.2,1.4-0.3c0.4-0.1,0.8-0.4,1.1-0.6c0.3-0.3,0.4-0.6,0.4-0.9
				c0-0.2-0.1-0.6-0.2-1c-0.1-0.5-0.3-1-0.5-1.5c-0.2-0.6-0.5-1.2-0.7-1.8c-0.3-0.6-0.6-1.2-0.8-1.8l4.1-2c0.3,0.6,0.5,1.2,0.8,1.9
				c0.3,0.7,0.5,1.4,0.7,2.1s0.4,1.4,0.5,2.1s0.2,1.4,0.2,2c0,1.2-0.2,2.1-0.6,3c-0.4,0.8-0.9,1.5-1.6,2s-1.5,0.9-2.5,1.2
				c-1,0.2-2,0.4-3.2,0.4h-2.3L358.3,26.2L358.3,26.2z M363,38.7l-3.2-3.2l3.2-3.2l3.2,3.2L363,38.7z"/>
			<path class="st1" d="M392.8,30.8c-0.9,0-1.8,0-2.8-0.1s-2-0.2-3-0.4c-1-0.2-1.9-0.5-2.9-0.9c-0.9-0.4-1.8-0.8-2.5-1.4
				s-1.3-1.3-1.8-2.1c-0.5-0.8-0.7-1.8-0.8-3c0-0.6,0.1-1.1,0.2-1.7c0.1-0.5,0.3-1.1,0.5-1.6s0.4-1,0.7-1.5c0.3-0.5,0.5-1,0.8-1.5
				l3.4,2.8c-0.1,0.2-0.3,0.5-0.5,0.8s-0.4,0.7-0.6,1s-0.3,0.7-0.4,1.1s-0.2,0.7-0.2,0.9c0,0.4,0.1,0.7,0.4,1s0.6,0.5,1.1,0.7
				s1,0.4,1.6,0.6s1.3,0.3,2,0.4s1.5,0.2,2.3,0.2s1.6,0.1,2.4,0.1c0.4,0,0.8,0,1.2,0c0.4,0,0.8,0,1.2,0c0.4,0,0.7,0,1,0s0.5,0,0.6,0
				c-0.3-0.4-0.7-0.9-0.9-1.4c-0.3-0.6-0.4-1.2-0.5-1.9c0-0.6,0-1.1,0.2-1.7c0.1-0.6,0.3-1.1,0.6-1.7s0.6-1.1,1-1.5
				c0.4-0.5,0.8-0.9,1.3-1.2c0.5-0.4,1-0.6,1.5-0.8s1.1-0.3,1.7-0.3c0.8,0,1.6,0.3,2.3,0.6c0.7,0.4,1.3,0.9,1.9,1.5
				c0.5,0.6,0.9,1.3,1.2,2.1c0.3,0.8,0.5,1.6,0.5,2.4c0,0.7-0.1,1.3-0.3,2c-0.2,0.6-0.5,1.2-0.8,1.8c0.5,0,0.9,0.1,1.3,0.1
				s0.8,0.1,1.2,0.1h0.5v4.6H409c-0.6,0-1.2,0-1.8,0c-0.6,0-1.3-0.1-1.9-0.2s-1.2-0.2-1.9-0.4c-0.6-0.2-1.2-0.4-1.8-0.6
				c-0.2,0.1-0.5,0.3-1,0.4c-0.4,0.1-0.9,0.2-1.4,0.3c-0.5,0.1-1.1,0.2-1.6,0.2c-0.6,0.1-1.2,0.1-1.8,0.2c-0.6,0-1.2,0.1-1.7,0.1
				C393.8,30.8,393.3,30.8,392.8,30.8z M402.4,13.3l-3.2-3.2l3.2-3.2l3.2,3.2L402.4,13.3z M403.9,22.6c0-0.3-0.1-0.6-0.2-0.9
				s-0.3-0.5-0.5-0.7s-0.4-0.4-0.7-0.6c-0.3-0.1-0.5-0.3-0.7-0.3s-0.5,0.1-0.8,0.3c-0.3,0.1-0.6,0.3-0.8,0.5
				c-0.3,0.2-0.5,0.5-0.6,0.8c-0.2,0.3-0.3,0.7-0.3,1.1c0,0.1,0.1,0.3,0.2,0.6c0.1,0.3,0.3,0.5,0.6,0.8c0.2,0.3,0.5,0.5,0.8,0.7
				s0.6,0.4,0.9,0.5c0.2-0.1,0.5-0.3,0.7-0.6c0.2-0.2,0.5-0.5,0.7-0.7c0.2-0.3,0.4-0.5,0.5-0.8C403.8,23.1,403.9,22.8,403.9,22.6z"
				/>
			<path class="st1" d="M422.7,26.2v4.6H409v-4.6H422.7z"/>
			<path class="st1" d="M434.9,26.2v4.6h-0.3c-0.5,0-0.9,0-1.4-0.1s-0.9-0.2-1.3-0.3c-0.4-0.1-0.8-0.3-1.1-0.5
				c-0.3-0.2-0.6-0.4-0.9-0.6c-0.5,0.3-1,0.6-1.6,0.8c-0.6,0.2-1.2,0.4-1.8,0.5c-0.6,0.1-1.3,0.2-2,0.2s-1.4,0.1-2,0.1H422v-4.6h0.5
				c0.7,0,1.3,0,1.9-0.1c0.5,0,1-0.1,1.4-0.2s0.8-0.2,1-0.4c0.3-0.2,0.5-0.4,0.7-0.6c0.2-0.3,0.4-0.6,0.4-1c0.1-0.4,0.1-0.8,0-1.2
				c0-0.4-0.1-0.8-0.2-1.2c-0.1-0.4-0.2-0.8-0.3-1.1l4.2-1.2c0.1,0.4,0.2,0.8,0.3,1.2c0.1,0.4,0.2,0.7,0.2,1c0.1,0.3,0.1,0.7,0.2,1
				c0,0.3,0.1,0.7,0.2,1.1c0,0.3,0.1,0.5,0.2,0.8s0.2,0.6,0.3,0.8c0.1,0.3,0.3,0.5,0.6,0.6c0.3,0.2,0.6,0.3,1,0.3h0.3L434.9,26.2
				L434.9,26.2z M427.7,35l-2.7,2.7l-2.8-2.8l2.8-2.8l2.7,2.7l2.7-2.7l2.8,2.8l-2.8,2.8L427.7,35z"/>
			<path class="st1" d="M434.4,26.2h1c0.2,0,0.4,0,0.7,0c0.2,0,0.4,0,0.6-0.1c0.2,0,0.4-0.1,0.5-0.1c-0.2-0.2-0.3-0.4-0.5-0.6
				s-0.3-0.5-0.4-0.7c-0.1-0.3-0.2-0.6-0.3-0.9c-0.1-0.3-0.1-0.7-0.2-1c0-0.6,0-1.1,0.2-1.7c0.1-0.6,0.3-1.1,0.6-1.7
				c0.3-0.5,0.6-1.1,1-1.5c0.4-0.5,0.8-0.9,1.3-1.2c0.5-0.4,1-0.6,1.5-0.8s1.1-0.3,1.7-0.3c0.8,0,1.6,0.3,2.3,0.6
				c0.7,0.4,1.3,0.9,1.9,1.5c0.5,0.6,0.9,1.3,1.2,2.1c0.3,0.8,0.5,1.6,0.5,2.4c0,0.7-0.1,1.3-0.3,2c-0.2,0.6-0.5,1.2-0.8,1.8
				c0.2,0.1,0.6,0.1,0.9,0.1c0.4,0,0.8,0,1.4,0h0.3v4.6h-0.6c-0.6,0-1.2,0-1.8-0.1c-0.6,0-1.1-0.1-1.7-0.2c-0.5-0.1-1.1-0.2-1.6-0.4
				c-0.5-0.1-1.1-0.3-1.7-0.6c-0.4,0.2-0.8,0.4-1.3,0.5s-1.1,0.3-1.8,0.4c-0.6,0.1-1.3,0.2-2,0.2s-1.4,0.1-2,0.1h-0.6L434.4,26.2
				L434.4,26.2z M441.8,13.5l-3.2-3.2l3.2-3.2l3.2,3.2L441.8,13.5z M444.1,22.6c0-0.3-0.1-0.6-0.2-0.9s-0.3-0.5-0.5-0.7
				s-0.4-0.4-0.7-0.6c-0.2-0.1-0.5-0.3-0.7-0.3s-0.5,0.1-0.8,0.3c-0.3,0.1-0.6,0.3-0.8,0.5c-0.3,0.2-0.5,0.5-0.6,0.8
				c-0.2,0.3-0.3,0.7-0.3,1.1c0,0.1,0.1,0.3,0.2,0.6c0.1,0.3,0.3,0.5,0.6,0.8c0.2,0.3,0.5,0.5,0.8,0.7s0.6,0.4,0.9,0.5
				c0.2-0.1,0.5-0.3,0.7-0.6s0.5-0.5,0.7-0.7c0.2-0.3,0.4-0.5,0.5-0.8C444,23.1,444.1,22.8,444.1,22.6z"/>
			<path class="st1" d="M448.8,26.2h2.9c0.7,0,1.4,0,2.2-0.1c0.8-0.1,1.6-0.2,2.4-0.4c0.8-0.2,1.6-0.4,2.5-0.6
				c0.8-0.2,1.6-0.5,2.4-0.7c0.8-0.3,1.5-0.5,2.2-0.8s1.4-0.6,2-0.9c-0.6-0.1-1.3-0.3-2-0.6c-0.7-0.3-1.5-0.5-2.2-0.8
				s-1.5-0.5-2.2-0.6c-0.7-0.2-1.3-0.3-1.9-0.3c-0.4,0-0.7,0.1-1,0.2s-0.6,0.3-0.9,0.5s-0.5,0.4-0.8,0.7c-0.2,0.2-0.4,0.5-0.6,0.7
				s-0.3,0.4-0.4,0.5l-0.1,0.2l-3.4-2c0.4-0.7,0.8-1.4,1.4-2.1c0.5-0.7,1.1-1.2,1.8-1.7c0.6-0.5,1.3-0.9,2-1.2
				c0.7-0.3,1.4-0.4,2.1-0.4c0.5,0,1,0.1,1.5,0.2s1,0.3,1.5,0.4c0.5,0.2,1,0.4,1.6,0.6c0.5,0.2,1.1,0.5,1.6,0.7
				c0.5,0.3,1.2,0.5,1.8,0.8c0.7,0.3,1.4,0.5,2.1,0.7s1.5,0.4,2.2,0.5c0.8,0.1,1.5,0.2,2.2,0.2l-0.7,4.3c-0.2,0.1-0.5,0.2-0.7,0.3
				c-0.3,0.1-0.5,0.2-0.7,0.4l-0.4,0.2c0.2,0.3,0.5,0.5,0.8,0.6c0.3,0.2,0.7,0.3,1.1,0.3c0.4,0.1,0.7,0.1,1,0.1s0.6,0,0.8,0h0.5v4.6
				h-0.5c-0.9,0-1.8-0.1-2.6-0.2c-0.8-0.2-1.6-0.4-2.2-0.7c-0.7-0.3-1.3-0.7-1.8-1.1s-0.9-1-1.3-1.5c-1,0.5-1.9,0.9-3,1.3
				c-1,0.4-2.1,0.8-3.2,1.2c-1.1,0.3-2.3,0.6-3.4,0.8c-1.2,0.2-2.4,0.3-3.7,0.3h-2.9L448.8,26.2L448.8,26.2z M457,14.4l-3.2-3.2
				L457,8l3.2,3.2L457,14.4z"/>
			<path class="st1" d="M472.8,26.2h3.5c0.4,0,0.9,0,1.4-0.1c0.5,0,1-0.1,1.4-0.3c0.4-0.1,0.8-0.3,1.1-0.6c0.3-0.3,0.4-0.6,0.4-1
				c0-0.2-0.1-0.6-0.2-1c-0.1-0.5-0.3-1-0.5-1.5c-0.2-0.6-0.5-1.2-0.8-1.8c-0.3-0.6-0.6-1.2-0.8-1.8l4.1-2c0.3,0.6,0.5,1.2,0.8,1.9
				c0.3,0.7,0.5,1.4,0.7,2.1s0.4,1.4,0.5,2.1s0.2,1.4,0.2,2c0,1.2-0.2,2.2-0.7,3c-0.4,0.8-1,1.5-1.8,2c-0.7,0.5-1.6,0.9-2.6,1.1
				s-2.1,0.4-3.2,0.4h-3.4v-4.5C472.9,26.2,472.8,26.2,472.8,26.2z M479.5,11.4l-2.7,2.7l-2.8-2.8l2.8-2.8l2.7,2.7l2.7-2.7l2.8,2.8
				l-2.8,2.8L479.5,11.4z"/>
			<path class="st1" d="M502.3,30.8c-0.8,0-1.6-0.1-2.4-0.4s-1.5-0.7-2.2-1.2c-0.6-0.5-1.2-1.1-1.6-1.8c-0.4-0.7-0.6-1.5-0.6-2.5
				c0-1.9,0.9-3.9,2.6-6c0.1-0.2,0.2-0.3,0.3-0.4c0.1-0.1,0.2-0.2,0.3-0.3c0.1-0.1,0.1-0.2,0.2-0.2l0.3-0.3l-0.9-0.7l2.9-3.5
				c0.5,0.4,1.1,0.9,1.8,1.5c0.7,0.6,1.5,1.4,2.4,2.4c2.5,2.8,3.7,5.4,3.7,7.6c0,1-0.2,1.8-0.6,2.5s-0.9,1.3-1.5,1.8
				s-1.4,0.9-2.2,1.1C503.9,30.7,503.1,30.8,502.3,30.8z M505.1,24.9c0-0.3-0.1-0.6-0.3-1c-0.2-0.4-0.4-0.8-0.8-1.2
				c-0.3-0.4-0.7-0.8-1-1.2c-0.4-0.4-0.8-0.8-1.2-1.2c-0.3,0.3-0.5,0.6-0.8,1s-0.6,0.7-0.8,1.1c-0.2,0.4-0.4,0.8-0.6,1.2
				c-0.2,0.4-0.2,0.8-0.2,1.3c0,0.2,0.1,0.4,0.3,0.6c0.2,0.2,0.5,0.3,0.8,0.4s0.6,0.2,0.9,0.2c0.3,0.1,0.6,0.1,0.8,0.1
				c0.3,0,0.6,0,0.9-0.1c0.3,0,0.6-0.1,0.9-0.2s0.5-0.2,0.7-0.4C505,25.4,505.1,25.2,505.1,24.9z"/>
			<path class="st1" d="M518.3,22.2c0.2,0.7,0.4,1.4,0.6,2.2s0.3,1.5,0.5,2.2c0.1,0.7,0.2,1.4,0.2,2.1c0,0.9-0.1,1.8-0.4,2.6
				c-0.2,0.9-0.6,1.7-1,2.5s-1,1.6-1.6,2.3s-1.3,1.4-2,2.1c-0.7,0.7-1.6,1.3-2.4,1.8c-0.9,0.6-1.7,1.1-2.7,1.5l-2.6-3.6
				c0.7-0.3,1.4-0.7,2.1-1.2c0.7-0.4,1.4-0.9,2-1.4s1.3-1,1.8-1.6c0.6-0.5,1.1-1.1,1.5-1.7c0.4-0.6,0.7-1.1,1-1.7
				c0.2-0.6,0.4-1.2,0.4-1.7c0-0.4-0.1-0.8-0.2-1.3s-0.3-1-0.5-1.5s-0.4-1.1-0.7-1.7s-0.5-1.3-0.8-2l4.2-1.9
				C517.9,20.8,518.1,21.5,518.3,22.2z"/>
			<path class="st1" d="M522.4,28.4c0-0.8,0.1-1.7,0.1-2.5s0.1-1.6,0.1-2.4s0-1.5,0-2.1c-0.1-1.4-0.1-2.6-0.2-3.6
				c-0.1-1-0.1-1.9-0.2-2.7c-0.1-0.8-0.1-1.5-0.2-2.1c-0.1-0.6-0.1-1.2-0.2-1.7c-0.1-0.5-0.1-1-0.2-1.4c-0.1-0.4-0.1-0.9-0.2-1.4
				L526,7c0.2,1.3,0.4,2.6,0.5,3.9s0.2,2.6,0.3,3.8s0.1,2.3,0.1,3.3s0,1.9,0,2.6s0,1.4,0,2.1c0,0.8,0,1.6,0,2.4s0,1.7-0.1,2.5
				c0,0.8-0.1,1.7-0.1,2.5l-4.5,0.7C522.3,30.1,522.4,29.2,522.4,28.4z"/>
			<path class="st1" d="M528.3,36.5c1.4-0.3,2.6-0.6,3.7-1c1.1-0.4,2.1-0.9,2.9-1.4c0.8-0.5,1.5-1,2.1-1.6c0.6-0.6,0.9-1.1,1.2-1.7
				c-0.4,0-0.9,0-1.3,0c-0.5,0-0.8,0-1.1-0.1c-1-0.1-1.8-0.3-2.6-0.5c-0.8-0.3-1.4-0.7-2-1.2s-1-1.1-1.3-1.8
				c-0.3-0.7-0.5-1.5-0.5-2.5c0-0.6,0.1-1.2,0.2-1.8c0.1-0.6,0.3-1.2,0.5-1.8c0.2-0.6,0.5-1.1,0.9-1.7c0.4-0.5,0.7-1,1.2-1.4
				c0.4-0.4,0.9-0.7,1.5-0.9c0.5-0.2,1.1-0.3,1.7-0.3c0.7,0,1.4,0.1,2,0.4s1.2,0.6,1.7,1.1s1,1,1.4,1.6s0.7,1.3,1,2s0.5,1.4,0.7,2.2
				s0.3,1.5,0.4,2.2h0.6v4.6h-0.9c-0.4,1.4-1,2.7-1.8,3.8c-0.8,1.1-1.8,2.2-2.9,3c-1.1,0.9-2.4,1.6-3.8,2.1c-1.4,0.6-2.9,1-4.4,1.2
				L528.3,36.5z M535.4,21.4c-0.2,0-0.4,0-0.7,0.2s-0.5,0.4-0.7,0.7c-0.2,0.3-0.4,0.6-0.6,1c-0.2,0.4-0.2,0.7-0.2,1.1
				c0,0.3,0.1,0.6,0.3,0.8c0.2,0.2,0.5,0.4,0.8,0.5s0.7,0.2,1.1,0.3c0.4,0.1,0.8,0.1,1.2,0.1s0.8,0,1.1,0h0.9
				c-0.1-0.6-0.3-1.2-0.5-1.7s-0.4-1-0.7-1.5c-0.3-0.4-0.6-0.8-0.9-1.1C536.2,21.7,535.8,21.5,535.4,21.4z"/>
			<path class="st1" d="M556.3,26.2v4.6h-13.7v-4.6H556.3z"/>
			<path class="st1" d="M566.5,26.2v4.6h-0.3c-0.9,0-1.7-0.1-2.4-0.4c-0.6-0.3-1.2-0.6-1.7-1.1c-0.7,0.5-1.5,0.9-2.4,1.1
				s-2.1,0.3-3.4,0.3h-0.5v-4.6h0.5c1.3,0,2.3-0.2,3-0.6s1-1.1,1-1.9c0-0.3,0-0.7-0.1-1.2s-0.2-1.2-0.5-2.1l4.1-1
				c0.2,0.5,0.3,1,0.4,1.4c0.1,0.4,0.2,0.8,0.2,1.1c0.1,0.3,0.1,0.6,0.1,0.9s0.1,0.6,0.1,0.8c0,0.3,0,0.6,0.1,0.9
				c0,0.3,0.1,0.6,0.2,0.8s0.3,0.5,0.5,0.6c0.2,0.2,0.5,0.3,0.8,0.3h0.3L566.5,26.2L566.5,26.2z M560.3,17.1l-3.2-3.2l3.2-3.2
				l3.2,3.2L560.3,17.1z"/>
			<path class="st1" d="M566.2,26.2c0.5,0,1-0.1,1.4-0.3c0.4-0.2,0.9-0.5,1.3-1c0.4-0.5,0.8-1.2,1.1-2c0.3-0.9,0.7-2,1-3.4l3.8,0.5
				c0,0,0,0.1,0,0.2c-0.1,0.2-0.1,0.6-0.2,1c-0.1,0.4-0.2,0.9-0.2,1.5c-0.1,0.5-0.1,1.1-0.1,1.6s0.1,0.9,0.2,1.3
				c0.1,0.4,0.3,0.6,0.6,0.6c0.3,0.1,0.6,0,0.9-0.2c0.3-0.2,0.5-0.5,0.8-0.9c0.2-0.4,0.5-0.8,0.7-1.3s0.4-1,0.6-1.5
				c0.2-0.5,0.3-1,0.4-1.5c0.1-0.5,0.2-0.9,0.3-1.3l3.8,0.5c0,0.2-0.1,0.6-0.1,1s-0.1,0.8-0.1,1.3s0,0.9,0,1.4s0.1,0.9,0.2,1.2
				c0.1,0.4,0.2,0.7,0.4,0.9c0.2,0.2,0.5,0.4,0.8,0.4s0.6-0.1,0.8-0.3c0.2-0.2,0.4-0.5,0.6-0.8c0.2-0.3,0.3-0.7,0.4-1.2
				c0.1-0.4,0.2-0.9,0.2-1.3c0-0.5,0.1-0.9,0.1-1.3s0-0.8,0-1.1l3.9-0.5l0.5,4.1c0.1,0.4,0.2,0.8,0.4,1.2c0.2,0.3,0.4,0.6,0.7,0.8
				c0.3,0.2,0.5,0.4,0.8,0.5s0.6,0.2,0.8,0.2h0.5v4.6H593c-0.9,0-1.8-0.2-2.6-0.5s-1.5-0.9-2.1-1.7c-0.1,0.1-0.1,0.1-0.2,0.2
				c-0.1,0.1-0.1,0.1-0.2,0.2l0,0c-0.5,0.5-1.1,1-1.8,1.3s-1.4,0.5-2.2,0.5c-0.9,0-1.7-0.2-2.4-0.6s-1.3-0.9-1.8-1.5
				c-0.6,0.6-1.2,1.1-2,1.5c-0.7,0.4-1.5,0.6-2.4,0.6c-0.8,0-1.6-0.2-2.3-0.5s-1.3-0.9-1.7-1.5c-0.5,0.7-1.2,1.2-1.9,1.5
				c-0.8,0.3-1.7,0.5-2.8,0.5h-0.3v-4.6h-0.1V26.2z M574.8,20.1L574.8,20.1C574.8,20,574.8,20,574.8,20.1z M580.6,14l-2.7,2.7
				l-2.8-2.8l2.8-2.8l2.7,2.7l2.7-2.7l2.8,2.8l-2.8,2.8L580.6,14z M583.2,9.8l-2.6,2.6L578,9.8l2.6-2.6L583.2,9.8z"/>
			<path class="st1" d="M592.6,26.2h3c1.6,0,3-0.1,4.3-0.3c1.3-0.2,2.5-0.4,3.7-0.8c1.1-0.3,2.2-0.7,3.2-1.1s2-0.9,3-1.3
				c-0.7-0.2-1.3-0.4-2-0.7c-0.7-0.3-1.3-0.5-2-0.8s-1.3-0.5-2-0.6c-0.7-0.2-1.3-0.3-1.9-0.3c-0.4,0-0.9,0.1-1.3,0.4
				c-0.4,0.2-0.8,0.5-1.2,0.8c-0.3,0.3-0.6,0.6-0.9,0.9c-0.2,0.3-0.4,0.5-0.4,0.6l-3.3-2.1c0.4-0.6,0.8-1.3,1.3-1.9s1-1.2,1.7-1.6
				c0.6-0.5,1.2-0.9,1.9-1.1c0.7-0.3,1.4-0.4,2.2-0.4c0.6,0,1.1,0.1,1.7,0.2c0.6,0.1,1.1,0.3,1.7,0.5c0.6,0.2,1.1,0.4,1.7,0.7
				c0.5,0.2,1.1,0.5,1.6,0.7s1,0.5,1.5,0.7s1.1,0.5,1.6,0.6c0.5,0.2,1.1,0.4,1.7,0.5c0.6,0.1,1.2,0.2,1.9,0.2l-0.4,4.4l-2,1
				c-0.8,0.4-1.7,0.8-2.5,1.2c-0.8,0.4-1.7,0.8-2.5,1.2c-0.9,0.4-1.7,0.8-2.7,1.1c-0.9,0.4-1.9,0.7-2.9,0.9c-1,0.3-2.1,0.5-3.2,0.6
				c-1.1,0.2-2.3,0.2-3.6,0.2h-3v-4.4C592.5,26.2,592.6,26.2,592.6,26.2z M604.5,38.7l-3.2-3.2l3.2-3.2l3.2,3.2L604.5,38.7z"/>
		</g>
	</g>
</g>
<g>
	<path class="st1" d="M444.2,82h17c1.5,0,2.6-0.3,3.3-1c0.7-0.7,1-1.8,1-3.3v-3.8v-0.8h0.8h3.6h0.8v0.8v3.7c0,3-0.8,5.3-2.5,6.9
		c-1.6,1.6-4,2.4-7.2,2.4h-16.9c-3.2,0-5.6-0.8-7.3-2.4c-1.7-1.6-2.5-3.9-2.5-6.9v-3.8V73h0.8h3.6h0.8v0.8v3.8
		c0,1.5,0.4,2.6,1.1,3.3C441.4,81.6,442.6,82,444.2,82z M445.4,69.9l3.5-3.2l3.5,3.2l-3.5,3.2L445.4,69.9z M452.8,69.9l3.5-3.2
		l3.5,3.2c-0.1,0.1-0.2,0.2-0.2,0.2c-0.2,0.2-0.7,0.6-1.4,1.3c-0.8,0.7-1.4,1.3-1.8,1.7L452.8,69.9z"/>
	<path class="st1" d="M484.4,86.9h-0.9c-2.5,0-4.3-0.7-5.6-2.1c-1.3-1.4-1.9-3.3-1.9-5.9V62.2v-0.8h0.8h3.4h0.8v0.8V79
		c0,1.1,0.2,1.8,0.6,2.3c0.4,0.4,1,0.7,1.9,0.7h0.9c0.2,0,0.3,0.3,0.4,0.8s0.1,1.1,0.1,1.5v0.2c0,0.5,0,1.1-0.1,1.6
		C484.7,86.7,484.5,86.9,484.4,86.9z"/>
	<path class="st1" d="M489.5,82c0.2,0,0.3,0.3,0.4,0.8s0.1,1.1,0.1,1.5v0.2c0,0.5,0,1.1-0.1,1.6s-0.2,0.8-0.4,0.8h-5.4
		c-0.2,0-0.3-0.3-0.4-0.8s-0.1-1.1-0.1-1.6v-0.2c0-0.5,0-1,0.1-1.5s0.2-0.8,0.4-0.8H489.5z"/>
	<path class="st1" d="M494.7,82c0.2,0,0.3,0.3,0.4,0.8s0.1,1.1,0.1,1.5v0.2c0,0.5,0,1.1-0.1,1.6s-0.2,0.8-0.4,0.8h-5.4
		c-0.2,0-0.3-0.3-0.4-0.8s-0.1-1.1-0.1-1.6v-0.2c0-0.5,0-1,0.1-1.5s0.2-0.8,0.4-0.8H494.7z"/>
	<path class="st1" d="M499.8,82c0.2,0,0.3,0.3,0.4,0.8s0.1,1.1,0.1,1.5v0.2c0,0.5,0,1.1-0.1,1.6s-0.2,0.8-0.4,0.8h-5.4
		c-0.2,0-0.3-0.3-0.4-0.8s-0.1-1.1-0.1-1.6v-0.2c0-0.5,0-1,0.1-1.5s0.2-0.8,0.4-0.8H499.8z"/>
	<path class="st1" d="M505,82c0.2,0,0.3,0.3,0.4,0.8s0.1,1.1,0.1,1.5v0.2c0,0.5,0,1.1-0.1,1.6s-0.2,0.8-0.4,0.8h-5.4
		c-0.2,0-0.3-0.3-0.4-0.8s-0.1-1.1-0.1-1.6v-0.2c0-0.5,0-1,0.1-1.5s0.2-0.8,0.4-0.8H505z"/>
	<path class="st1" d="M504.8,82h4.4c-1.1-1.3-1.7-2.8-1.7-4.4c0-2.4,0.8-4.4,2.5-6s3.8-2.4,6.4-2.4c2.9,0,5.3,1,7.2,3.1l0.4,0.4
		l-0.3,0.4l-1.5,2.5l-0.5,0.9l-0.8-0.7c-1.3-1.1-2.7-1.7-4.4-1.7c-1.1,0-2,0.3-2.7,0.9s-1.1,1.4-1.1,2.4s0.5,1.9,1.6,2.7
		c1,0.8,1.8,1.2,2.3,1.2c0.4,0,1.3-0.1,2.6-0.4l4.4-1l1-0.2v1v3.5v0.6L524,85c-4.9,1.4-9.2,2-12.9,2h-6.4c-0.2,0-0.3-0.3-0.4-0.8
		s-0.1-1.1-0.1-1.6v-0.2c0-0.5,0-1,0.1-1.5C504.5,82.2,504.6,82,504.8,82z"/>
	<path class="st1" d="M538.3,86.9h-0.9c-2.5,0-4.3-0.7-5.6-2.1s-1.9-3.3-1.9-5.9V62.2v-0.8h0.8h3.4h0.8v0.8V79
		c0,1.1,0.2,1.8,0.6,2.3c0.4,0.4,1,0.7,1.9,0.7h0.9c0.2,0,0.3,0.3,0.4,0.8c0.1,0.5,0.1,1.1,0.1,1.5v0.2c0,0.5,0,1.1-0.1,1.6
		C538.6,86.7,538.5,86.9,538.3,86.9z"/>
	<path class="st1" d="M543.4,82c0.2,0,0.3,0.3,0.4,0.8c0.1,0.5,0.1,1.1,0.1,1.5v0.2c0,0.5,0,1.1-0.1,1.6s-0.2,0.8-0.4,0.8H538
		c-0.2,0-0.3-0.3-0.4-0.8c-0.1-0.5-0.1-1.1-0.1-1.6v-0.2c0-0.5,0-1,0.1-1.5s0.2-0.8,0.4-0.8H543.4z"/>
	<path class="st1" d="M548.6,82c0.2,0,0.3,0.3,0.4,0.8c0.1,0.5,0.1,1.1,0.1,1.5v0.2c0,0.5,0,1.1-0.1,1.6s-0.2,0.8-0.4,0.8h-5.4
		c-0.2,0-0.3-0.3-0.4-0.8c-0.1-0.5-0.1-1.1-0.1-1.6v-0.2c0-0.5,0-1,0.1-1.5s0.2-0.8,0.4-0.8H548.6z"/>
	<path class="st1" d="M553.7,82c0.2,0,0.3,0.3,0.4,0.8c0.1,0.5,0.1,1.1,0.1,1.5v0.2c0,0.5,0,1.1-0.1,1.6s-0.2,0.8-0.4,0.8h-5.4
		c-0.2,0-0.3-0.3-0.4-0.8c-0.1-0.5-0.1-1.1-0.1-1.6v-0.2c0-0.5,0-1,0.1-1.5s0.2-0.8,0.4-0.8H553.7z"/>
	<path class="st1" d="M553.5,82h2c1.4,0,2.5-0.2,3.1-0.7s0.9-1.2,0.9-2.2v-5v-0.8h0.8h3.5h0.8V74v5c0,1,0.3,1.8,0.7,2.2
		c0.5,0.4,1.2,0.7,2.3,0.7c1,0,1.7-0.2,2.2-0.7s0.7-1.2,0.7-2.2v-5v-0.8h0.8h3.5h0.8V74v5c0,1.1,0.2,1.8,0.7,2.3
		c0.5,0.4,1.2,0.7,2.2,0.7c0.8,0,1.3-0.2,1.7-0.6c0.3-0.4,0.5-1.2,0.5-2.2v-5.6v-0.8h0.8h3.6h0.8v0.8v5.8c0,2.4-0.6,4.3-1.9,5.6
		c-1.3,1.4-3.1,2.1-5.4,2.1c-2.4,0-4.2-0.7-5.5-2.1c-1.3,1.4-3.2,2.1-5.7,2.1c-2.3,0-4.1-0.7-5.5-2.2c-1.5,1.5-3.7,2.2-6.7,2.2h-1.9
		c-0.2,0-0.3-0.3-0.4-0.8c-0.1-0.5-0.1-1.1-0.1-1.6v-0.2c0-0.5,0-1,0.1-1.5C553.2,82.2,553.4,82,553.5,82z"/>
	<path class="st1" d="M462.2,119.4h-0.3v0.7c0,2.5-1.1,4.5-3.2,5.9s-5.1,2-9,2h-2c-4.2,0-7.4-1-9.6-2.9s-3.3-4.7-3.3-8.4v-6.5v-0.8
		h0.8h3.6h0.8v0.8v6.5c0,2.2,0.6,3.8,1.8,4.8c1.2,1,3.2,1.5,5.8,1.5h2c1,0,2,0,2.8-0.1s1.5-0.3,2.2-0.5c0.6-0.2,1.1-0.5,1.5-0.9
		c0.3-0.4,0.5-0.9,0.5-1.5v-0.6h-4.4c-0.6,0-1.1-0.2-1.5-0.5c-0.3-0.3-0.6-0.9-0.9-1.7c-0.3-1-0.4-1.8-0.3-2.1
		c0.1-0.4,0.5-0.6,1.2-0.6H462c0.2,0,0.3,0.3,0.4,0.8s0.1,1.1,0.1,1.5v0.2c0,0.5,0,1.1-0.1,1.6C462.5,119.2,462.4,119.4,462.2,119.4
		z M464.8,114.5c0.1,0,0.2,0.3,0.2,0.8c0.1,0.5,0.1,1.1,0.1,1.5v0.2c0,0.5,0,1.1-0.1,1.6s-0.1,0.8-0.2,0.8h-3.1
		c-0.1,0-0.2-0.3-0.2-0.8c-0.1-0.5-0.1-1.1-0.1-1.6v-0.2c0-0.5,0-1,0.1-1.5s0.1-0.8,0.2-0.8H464.8z"/>
	<path class="st1" d="M469.7,114.5c0.2,0,0.3,0.3,0.4,0.8s0.1,1.1,0.1,1.5v0.2c0,0.5,0,1.1-0.1,1.6s-0.2,0.8-0.4,0.8h-5.4
		c-0.2,0-0.3-0.3-0.4-0.8s-0.1-1.1-0.1-1.6v-0.2c0-0.5,0-1,0.1-1.5s0.2-0.8,0.4-0.8H469.7z"/>
	<path class="st1" d="M474.9,114.5c0.2,0,0.3,0.3,0.4,0.8s0.1,1.1,0.1,1.5v0.2c0,0.5,0,1.1-0.1,1.6s-0.2,0.8-0.4,0.8h-5.4
		c-0.2,0-0.3-0.3-0.4-0.8s-0.1-1.1-0.1-1.6v-0.2c0-0.5,0-1,0.1-1.5s0.2-0.8,0.4-0.8H474.9z"/>
	<path class="st1" d="M480,114.5c0.2,0,0.3,0.3,0.4,0.8s0.1,1.1,0.1,1.5v0.2c0,0.5,0,1.1-0.1,1.6s-0.2,0.8-0.4,0.8h-5.4
		c-0.2,0-0.3-0.3-0.4-0.8s-0.1-1.1-0.1-1.6v-0.2c0-0.5,0-1,0.1-1.5s0.2-0.8,0.4-0.8H480z"/>
	<path class="st1" d="M485.2,114.5c0.2,0,0.3,0.3,0.4,0.8s0.1,1.1,0.1,1.5v0.2c0,0.5,0,1.1-0.1,1.6s-0.2,0.8-0.4,0.8h-5.4
		c-0.2,0-0.3-0.3-0.4-0.8s-0.1-1.1-0.1-1.6v-0.2c0-0.5,0-1,0.1-1.5s0.2-0.8,0.4-0.8H485.2z"/>
	<path class="st1" d="M490.4,114.5c0.2,0,0.3,0.3,0.4,0.8s0.1,1.1,0.1,1.5v0.2c0,0.5,0,1.1-0.1,1.6s-0.2,0.8-0.4,0.8H485
		c-0.2,0-0.3-0.3-0.4-0.8s-0.1-1.1-0.1-1.6v-0.2c0-0.5,0-1,0.1-1.5s0.2-0.8,0.4-0.8H490.4z"/>
	<path class="st1" d="M495.5,114.5c0.2,0,0.3,0.3,0.4,0.8s0.1,1.1,0.1,1.5v0.2c0,0.5,0,1.1-0.1,1.6s-0.2,0.8-0.4,0.8h-5.4
		c-0.2,0-0.3-0.3-0.4-0.8s-0.1-1.1-0.1-1.6v-0.2c0-0.5,0-1,0.1-1.5s0.2-0.8,0.4-0.8H495.5z"/>
	<path class="st1" d="M495.3,114.5h4.2c1.3,0,2.2-0.2,2.6-0.6c0.5-0.4,0.7-1.2,0.7-2.4v-5.6v-0.8h0.8h3.6h0.8v0.8v5.6
		c0,2.6-0.7,4.5-2.2,5.9s-3.6,2-6.4,2h-4.2c-0.2,0-0.3-0.3-0.4-0.8s-0.1-1.1-0.1-1.6v-0.2c0-0.5,0-1,0.1-1.5
		C495,114.7,495.2,114.5,495.3,114.5z M500.6,99.1l3.5-3.3l3.5,3.3l-3.5,3.3L500.6,99.1z"/>
	<path class="st1" d="M522.3,119.4h-0.9c-2.5,0-4.3-0.7-5.6-2.1s-1.9-3.3-1.9-5.9V94.7v-0.8h0.8h3.4h0.8v0.8v16.8
		c0,1.1,0.2,1.8,0.6,2.3c0.4,0.4,1,0.7,1.9,0.7h0.9c0.2,0,0.3,0.3,0.4,0.8c0.1,0.5,0.1,1.1,0.1,1.5v0.2c0,0.5,0,1.1-0.1,1.6
		C522.6,119.2,522.5,119.4,522.3,119.4z"/>
	<path class="st1" d="M527.5,114.5c0.2,0,0.3,0.3,0.4,0.8c0.1,0.5,0.1,1.1,0.1,1.5v0.2c0,0.5,0,1.1-0.1,1.6s-0.2,0.8-0.4,0.8h-5.4
		c-0.2,0-0.3-0.3-0.4-0.8c-0.1-0.5-0.1-1.1-0.1-1.6v-0.2c0-0.5,0-1,0.1-1.5s0.2-0.8,0.4-0.8H527.5z"/>
	<path class="st1" d="M532.6,114.5c0.2,0,0.3,0.3,0.4,0.8c0.1,0.5,0.1,1.1,0.1,1.5v0.2c0,0.5,0,1.1-0.1,1.6s-0.2,0.8-0.4,0.8h-5.4
		c-0.2,0-0.3-0.3-0.4-0.8c-0.1-0.5-0.1-1.1-0.1-1.6v-0.2c0-0.5,0-1,0.1-1.5s0.2-0.8,0.4-0.8H532.6z"/>
	<path class="st1" d="M530.9,125.8l3.5-3.2l3.5,3.2l-3.5,3.2L530.9,125.8z M532.4,114.5h5.8c1.3,0,2.2-0.2,2.6-0.6
		c0.5-0.4,0.7-1.2,0.7-2.4v-5.6v-0.8h0.8h3.6h0.8v0.8v5.6c0,2.6-0.7,4.5-2.2,5.9s-3.6,2-6.4,2h-5.9c-0.2,0-0.3-0.3-0.4-0.8
		c-0.1-0.5-0.1-1.1-0.1-1.6v-0.2c0-0.5,0-1,0.1-1.5C532.2,114.7,532.3,114.5,532.4,114.5z M538.3,125.8l3.5-3.2l3.5,3.2
		c-0.1,0.1-0.2,0.2-0.2,0.2c-0.2,0.2-0.7,0.6-1.4,1.3c-0.8,0.7-1.4,1.3-1.8,1.7L538.3,125.8z"/>
	<path class="st1" d="M561.1,119.4h-0.9c-2.5,0-4.3-0.7-5.6-2.1s-1.9-3.3-1.9-5.9V94.7v-0.8h0.8h3.4h0.8v0.8v16.8
		c0,1.1,0.2,1.8,0.6,2.3c0.4,0.4,1,0.7,1.9,0.7h0.9c0.2,0,0.3,0.3,0.4,0.8c0.1,0.5,0.1,1.1,0.1,1.5v0.2c0,0.5,0,1.1-0.1,1.6
		C561.4,119.2,561.3,119.4,561.1,119.4z"/>
	<path class="st1" d="M566.2,114.5c0.2,0,0.3,0.3,0.4,0.8c0.1,0.5,0.1,1.1,0.1,1.5v0.2c0,0.5,0,1.1-0.1,1.6s-0.2,0.8-0.4,0.8h-5.4
		c-0.2,0-0.3-0.3-0.4-0.8c-0.1-0.5-0.1-1.1-0.1-1.6v-0.2c0-0.5,0-1,0.1-1.5s0.2-0.8,0.4-0.8H566.2z"/>
	<path class="st1" d="M571.4,114.5c0.2,0,0.3,0.3,0.4,0.8c0.1,0.5,0.1,1.1,0.1,1.5v0.2c0,0.5,0,1.1-0.1,1.6s-0.2,0.8-0.4,0.8H566
		c-0.2,0-0.3-0.3-0.4-0.8c-0.1-0.5-0.1-1.1-0.1-1.6v-0.2c0-0.5,0-1,0.1-1.5s0.2-0.8,0.4-0.8H571.4z"/>
	<path class="st1" d="M569.9,125.1l3.3-3l3.3,3l-3.3,3.1L569.9,125.1z M571.2,114.5h5.8c1.3,0,2.2-0.2,2.6-0.6
		c0.5-0.4,0.7-1.2,0.7-2.4v-5.6v-0.8h0.8h3.6h0.8v0.8v5.6c0,2.6-0.7,4.5-2.2,5.9s-3.6,2-6.4,2H571c-0.2,0-0.3-0.3-0.4-0.8
		c-0.1-0.5-0.1-1.1-0.1-1.6v-0.2c0-0.5,0-1,0.1-1.5C570.9,114.7,571.1,114.5,571.2,114.5z M573.6,129.8l3.3-3.1l3.3,3.1l-3.3,3
		L573.6,129.8z M577.4,125.1l3.3-3l3.3,3l-3.3,3.1L577.4,125.1z"/>
</g>
</svg>
