<?xml version="1.0" encoding="utf-8"?>
<!-- Generator: Adobe Illustrator 23.0.1, SVG Export Plug-In . SVG Version: 6.00 Build 0)  -->
<svg version="1.1" id="Layer_1" xmlns="http://www.w3.org/2000/svg" xmlns:xlink="http://www.w3.org/1999/xlink" x="0px" y="0px"
	 viewBox="0 0 620 400" style="enable-background:new 0 0 620 400;" height="402" width="622" xml:space="preserve">
<style type="text/css">
	.st0{fill:#FFFFFF;}
	.st1{fill:#E50000;}
	.st2{fill:#004F49;}
	.st3{opacity:0.35;fill:#FFFFFF;enable-background:new    ;}
	.st4{fill:#061133;stroke:#FFFFFF;stroke-width:3;stroke-miterlimit:10;}
	.st5{fill:#FFC200;}
	.st6{fill:#032D44;}
	.st7{opacity:0.48;}
</style>
<g>
	<g>
		<path class="st0" d="M217.7,132.2c-0.7,0.3-1.6,0.7-2.2,0.9c-0.9,0.3-2.2,0.3-3.5,0.7c-0.9,0-2.5,0.3-3.9,0.3h-18.2
			c-4.2,0-7.2-0.9-9.2-3.2c-2.2-2.2-3.2-5.4-3.2-9.7v-5.4v-0.9h0.9h5h0.9v0.9v5.4c0,2.2,0.3,3.5,1.6,4.6c0.9,0.9,2.5,1.6,4.6,1.6
			h19.3c-0.9-1.6-1.6-3.5-1.6-5.9c0-1.6,0.3-2.9,0.7-4.2c0.3-0.9,0.9-2.2,2.2-3.5c2.2-2,4.6-2.9,7.5-2.9s5.4,0.9,7.5,2.9
			c0.9,0.9,1.6,2.2,2.2,3.5c0.3,0.9,0.7,2.9,0.7,4.2c0,2.2-0.3,4.2-1.6,5.9h4.2c0.3,0,0.3,0,0.7,0s0.3,0.3,0.3,0.3
			c0,0.3,0.3,0.3,0.3,0.3s0,0.3,0,0.7s0,0.3,0,0.3v0.3c0,0,0,0,0,0.3v0.3c0,0,0,0,0,0.3s0,0.3,0,0.7c0,0,0,0.3,0,0.7
			c0,0.3,0,0.3,0,0.7c0,0,0,0.3-0.3,0.3c0,0.3-0.3,0.3-0.3,0.3c-0.3,0-0.3,0-0.7,0h-3.9C223.3,134.3,220.4,133.1,217.7,132.2z
			 M213.4,101.4l2.2-2.2c0.7-0.7,1.6-0.9,2.2,0l2.9,2.5c0.7,0.7,0.7,1.6,0,2.2l-2.2,2.2c-0.7,0.7-1.6,0.7-2.2,0l-2.5-2.9
			C212.4,102.9,212.4,102.1,213.4,101.4z M213.4,121.7c0,0.9,0.3,2,0.9,2.9c0.7,0.7,1.6,0.9,2.9,0.9c1.6,0,2.2-0.3,2.9-0.9
			c0.7-0.7,0.9-1.6,0.9-2.9s-0.3-2-0.9-2.9c-0.3-0.3-0.7-0.7-0.9-0.9c-0.3-0.3-0.9-0.3-1.6-0.3c-0.3,0-0.9,0-1.6,0.3
			c-0.3,0.3-0.9,0.3-0.9,0.9c-0.3,0.3-0.7,0.7-0.9,0.9c0,0.3,0,0.3-0.3,0.7C213.4,121.1,213.4,121.1,213.4,121.7z"/>
		<path class="st0" d="M253.9,134.3h-0.3c-3.5,0-6.4-0.9-8.4-2.9c-2.2,2.2-5.4,2.9-9.7,2.9h-5c-0.7,0-1.3-0.3-1.6-0.9
			c-0.3-0.3-0.3-1.3-0.3-2.2v-0.5c0-0.9,0-1.6,0.3-2.2c0.3-0.9,0.9-0.9,2-0.9h5c1.3,0,2.5,0,3.5-0.3c0.9-0.3,1.6-0.7,2-1.3
			c0.3-0.3,0.3-1.3,0.3-2.2v-7.2v-0.7h0.9h5h0.9v0.9v7.2c0,1.6,0.3,2.5,0.9,3.2c0.7,0.7,2.2,0.9,3.9,0.9h0.3c0.3,0,0.7,0,0.9,0.3
			c0.3,0.3,0.3,0.3,0.3,0.7c0.3,0.3,0,0.7,0,0.9c0,0.3,0,0.3,0,0.9c0,0,0,0,0,0.3v0.3c0,0,0,0,0,0.3s0,0.3,0,0.3v0.3v0.3
			c0,0,0,0.3-0.3,0.3c0,0.3-0.3,0.3-0.3,0.3L253.9,134.3C254.6,134.3,254.2,134.3,253.9,134.3z M230.7,142l2.2-2.2
			c0.7-0.7,1.6-0.7,2.2,0l2.5,2.5c0.7,0.7,0.7,1.6,0,2.2l-2.2,2.2c-0.7,0.7-1.6,0.7-2.2,0l-2.5-2.5C229.8,143.5,229.8,143,230.7,142
			z M240.4,142l2.2-2.2c0.7-0.7,1.6-0.7,2.2,0l2.5,2.5c0.7,0.7,0.7,1.6,0,2.2l-2.2,2.2c-0.7,0.7-1.6,0.7-2.2,0l-2.9-2.5
			C239.5,143.5,240,143,240.4,142z"/>
		<path class="st0" d="M281.9,134.3h-3.5c-1.6,0-3.5-0.3-5-0.3c-1.3,0-2.9-0.7-4.6-1.6c-2.9,1.3-6.4,2.2-9.7,2.2h-5
			c-0.7,0-1.3-0.3-1.6-0.9c-0.3-0.3-0.3-1.3-0.3-2.2v-0.3c0-0.9,0.3-1.6,0.3-2.2c0.3-0.3,0.9-0.9,1.6-0.9h6.2
			c-0.9-1.6-1.6-3.5-1.6-5.9c0-2.9,0.9-5.4,2.9-7.5c2.2-2,4.6-2.9,7.5-2.9s5.4,0.9,7.5,2.9c0.3,0.3,0.9,0.9,0.9,1.6
			c0.3,0.7,0.7,0.9,0.9,1.6c0.3,0.3,0.3,0.9,0.3,2c0,0.9,0.3,1.3,0.3,2.2c0,0.9,0,2.2-0.3,2.9c-0.3,0.9-0.7,2-0.9,2.9h4.2
			c0.3,0,0.3,0,0.7,0s0.3,0.3,0.3,0.3c0,0.3,0.3,0.3,0.3,0.3s0,0.3,0,0.7s0,0.3,0,0.3v0.3c0,0,0,0,0,0.3v0.3c0,0,0,0,0,0.3
			s0,0.3,0,0.3v0.3c0,0.3,0,0.3,0,0.3v0.3c0,0.3,0,0.3-0.3,0.3l-0.3,0.3l-0.3,0.3C282.2,134.3,281.9,134.3,281.9,134.3z
			 M264.6,101.4l2.2-2.2c0.7-0.7,1.6-0.9,2.2,0l2.9,2.5c0.7,0.7,0.7,1.6,0,2.2l-2.2,2.2c-0.7,0.7-1.6,0.7-2.2,0l-2.5-2.9
			C264,102.9,264,102.1,264.6,101.4z M264.6,121.7c0,0.9,0.3,2,0.9,2.9c0.9,0.9,1.6,0.9,2.9,0.9s2.2-0.3,2.9-0.9
			c0.7-0.7,0.9-1.6,0.9-2.9s-0.3-2-0.9-2.9c-0.3-0.3-0.7-0.7-0.9-0.9c-0.3-0.3-0.9-0.3-1.6-0.3c-0.3,0-0.9,0-1.6,0.3
			c-0.3,0.3-0.9,0.3-0.9,0.9l-0.3,0.3l-0.3,0.3c0,0,0,0.3-0.3,0.3v0.3v0.3C264.6,121.1,264.6,121.1,264.6,121.7z"/>
		<path class="st0" d="M305.7,129.3l-2.2,0.9c-4.2,2.2-8.4,3.2-13.3,3.2h-8.3c-0.7,0-1.3-0.3-1.6-0.9c-0.3-0.7-0.3-1.3-0.3-2.2V130
			c0-0.9,0-1.6,0.3-2.2c0.3-0.9,0.9-0.9,2-0.9h8c2,0,3.5-0.3,5.4-0.3c1.6-0.3,3.2-0.9,5-1.6l6.2-2.9l-3.5-2.2c-2.2-0.9-4.2-2-6.4-2
			c-2,0-3.5,0.7-5.9,2.2l-2,1.6l-0.7,0.3l-0.3-0.7l-2.9-3.5l-0.7-0.7l0.7-0.3l1.6-1.3c2.9-2.2,6.2-3.9,9.2-4.2
			c2.9-0.3,6.4,0.3,9.7,2.2l5,2.9c0.3,0.3,0.9,0.3,1.6,0.9c0.3,0.3,0.9,0.3,1.6,0.3c0.3,0,0.9,0.3,1.3,0.3h0.7v0.7v5v0.3l-0.3,0.3
			l-2.9,1.6c0.9,0.3,2.2,0.9,3.5,0.9h3.2c0.3,0,0.7,0,0.9,0.3c0.3,0.3,0.3,0.3,0.3,0.7c0,0.5,0,0.7,0,0.9c0,0.3,0,0.3,0,0.9
			c0,0,0,0,0,0.3v0.3c0,0.7,0,1.6-0.3,2c-0.3,0.7-0.7,0.9-1.3,0.9h-2.9c-2,0-3.5-0.3-5.4-0.9C308.1,132.2,306.4,130.9,305.7,129.3z
			 M293.2,100.8l2.2-2.2c0.7-0.7,1.6-0.9,2.2,0l2.9,2.5c0.7,0.7,0.7,1.6,0,2.2l-2.2,2.2c-0.7,0.7-1.6,0.7-2.2,0l-2.5-2.9
			C292.2,102.1,292.2,101.4,293.2,100.8z"/>
		<path class="st0" d="M317.9,134.3c-0.7,0-1.3-0.3-1.6-0.9c-0.3-0.3-0.3-1.3-0.3-2.2v-0.5c0-0.9,0.3-1.6,0.3-2.2
			c0.3-0.3,0.9-0.9,1.6-0.9h6.4c1.6,0,2.9-0.3,3.5-0.9c0.7-0.7,0.9-1.6,0.9-3.2v-7.6V115h0.9h4.6h0.9v0.9v7.6c0,3.5-0.9,6.4-2.9,8
			s-4.6,2.9-8,2.9L317.9,134.3L317.9,134.3L317.9,134.3z M319,103.8l2.2-2.2c0.7-0.7,1.6-0.7,2.2,0l2.5,2.5c0.7,0.7,0.7,1.6,0,2.2
			l-2.2,2.2c-0.7,0.7-1.6,0.7-2.2,0L319,106C318.3,105.2,318.3,104.7,319,103.8z M328.5,103.8l2.2-2.2c0.7-0.7,1.6-0.7,2.2,0
			l2.5,2.5c0.7,0.7,0.7,1.6,0,2.2l-2.2,2.2c-0.7,0.7-1.6,0.7-2.2,0l-2.9-2.5C328,105.2,328,104.7,328.5,103.8z"/>
		<path class="st0" d="M347.7,101.4c0-1.6,0.3-2.9,2-3.9c0.9-0.9,2.5-1.6,4.2-1.6s2.9,0.3,4.2,1.6c0.3,0.3,0.3,0.3,0.7,0.7
			c0.5,0.5,0.3,0.7,0.3,0.9c0.3,0.3,0.3,0.7,0.3,0.9c0.3,0.3,0.3,0.7,0.3,0.9c0,0.3,0,0.9-0.3,1.3c0,0.3-0.3,0.3-0.3,0.3
			c0,0.3-0.3,0.3-0.3,0.3c-0.3,0.3-0.3,0.3-0.3,0.3c-0.3,0.3-0.3,0.7-0.9,0.9c-0.9,0.9-2.5,1.6-4.2,1.6c-1.6,0-2.9-0.3-4.2-1.6
			c-0.3-0.3-0.9-0.9-1.3-2C347.7,102.9,347.7,102.3,347.7,101.4z M370.9,94.3l5,2.5l0.9,0.3L355,135.4l-0.9-0.3l-4.6-2.5l-0.9-0.3
			l21.8-38C369.9,94.3,370.9,94.3,370.9,94.3z M366.4,126.1L366.4,126.1L366.4,126.1v-0.2v-0.3v-0.3V125c0-0.3,0-0.3,0.3-0.3
			c0-0.3,0-0.3,0-0.3v-0.3c0-0.3,0.3-0.3,0.3-0.3l0.3-0.3c0-0.3,0-0.3,0.3-0.3c0.3-0.3,0.3-0.3,0.3-0.3l0.3-0.3l0.3-0.3l0.3-0.3
			l0.3-0.3c0.3-0.3,0.3-0.3,0.3-0.3c0.9-0.9,2.5-1.6,4.2-1.6c0.3,0,0.9,0.3,1.3,0.3s0.3,0.3,0.7,0.3s0.3,0.3,0.3,0.3s0.3,0,0.3,0.3
			c0.3,0,0.3,0.3,0.3,0.3c0.3,0.3,0.7,0.3,0.9,0.9c0.9,0.9,2,2.5,2,3.9c0,1.3-0.3,2.9-2,3.9c-0.3,0.3-0.9,0.9-2,0.9
			c-0.7,0.3-1.3,0.3-2.2,0.3c-1.6,0-2.9-0.3-4.2-1.6C367.2,129.1,366.4,127.5,366.4,126.1z"/>
	</g>
	<g>
		<path class="st0" d="M407.6,116.3c-1.4,0-2.7-0.1-4-0.5c-1.3-0.2-2.5-0.7-3.7-1.3c0.2,2.1,0.5,4,0.6,6s0.2,3.7,0.3,5.5
			c0.1,1.8,0.1,3.5,0.1,5.3s0,3.3,0,5.1h-8.8c0-3.9-0.1-7.6-0.2-11.5c-0.1-3.7-0.5-7.4-0.9-10.7c-0.6-3.5-1.2-6.7-2.1-9.8
			c-0.9-3-2.1-5.9-3.7-8.2l7.5-4.7c0.7,1,1.2,2,1.7,2.9c0.6,0.8,0.9,1.8,1.4,2.7c0.7-1,1.5-2,2.4-2.7s2-1.4,3-1.8
			c1-0.6,2.1-0.8,3.3-1c1.2-0.2,2.3-0.3,3.5-0.3c0.8,0,1.6,0.1,2.4,0.2s1.6,0.3,2.4,0.7c0.8,0.3,1.6,0.7,2.4,1.2s1.6,1,2.4,1.8
			l-4.6,7.3c0,0-0.2-0.1-0.6-0.3c-0.3-0.2-0.7-0.5-1.4-0.7c-0.7-0.2-1.3-0.6-2.1-0.7c-0.8-0.2-1.7-0.3-2.7-0.3
			c-0.8,0-1.6,0.1-2.4,0.5c-0.8,0.3-1.6,0.7-2.2,1.2c-0.7,0.5-1.2,0.9-1.6,1.5s-0.6,1-0.5,1.6l0,0c0.1,0.7,0.5,1,0.9,1.5
			c0.6,0.5,1.2,0.7,2.1,0.8c0.8,0.2,1.6,0.5,2.3,0.5c0.8,0.1,1.6,0.1,2.2,0.1c0.7,0,1.4,0,2.1-0.1s1.6-0.2,2.3-0.5
			c0.7-0.2,1.6-0.5,2.3-0.7c0.7-0.2,1.5-0.7,2.1-1l3.6,6.9c-2.2,1.6-4.5,2.8-6.6,3.3C411.6,115.9,409.6,116.3,407.6,116.3z"/>
		<path class="st0" d="M421.3,118.9c0-1.5,0.3-2.8,0.8-4.3c0.6-1.3,1.3-2.4,2.2-3.5c0.9-0.9,2.1-1.7,3.3-2.2
			c1.3-0.6,2.7-0.8,4.3-0.8c1.5,0,2.8,0.3,4.3,0.8c1.3,0.6,2.4,1.3,3.5,2.2c0.9,0.9,1.7,2.1,2.2,3.5s0.8,2.7,0.8,4.3
			c0,1.6-0.3,2.9-0.8,4.3c-0.6,1.3-1.3,2.3-2.2,3.3c-0.9,0.9-2.1,1.7-3.5,2.2c-1.3,0.6-2.7,0.8-4.3,0.8c-1.5,0-2.9-0.3-4.3-0.8
			c-1.3-0.6-2.3-1.3-3.3-2.2c-0.9-0.9-1.7-2.1-2.2-3.3C421.6,121.8,421.3,120.4,421.3,118.9z M427.7,118.9c0,0.6,0.1,1.2,0.3,1.6
			c0.2,0.6,0.6,0.9,0.8,1.4c0.5,0.5,0.8,0.7,1.4,0.8c0.6,0.2,1,0.3,1.6,0.3s1.2-0.1,1.6-0.3c0.6-0.2,0.9-0.6,1.4-0.8
			c0.5-0.5,0.7-0.8,0.9-1.4c0.2-0.6,0.3-1,0.3-1.6s-0.1-1.2-0.3-1.6c-0.2-0.6-0.6-0.9-0.9-1.4c-0.5-0.5-0.8-0.7-1.4-0.9
			c-0.6-0.2-1-0.3-1.6-0.3s-1.2,0.1-1.6,0.3c-0.6,0.2-0.9,0.6-1.4,0.9c-0.5,0.5-0.7,0.8-0.8,1.4
			C427.9,117.7,427.7,118.2,427.7,118.9z"/>
	</g>
</g>
<g>
	<g>
		<g>
			<g>
				<path class="st1" d="M524.8,319.5H246.4c-9.1,0-16.7-7.7-16.7-17.3v-88.7c0-9.5,7.5-17.3,16.7-17.3H525
					c9.1,0,16.7,7.7,16.7,17.3v88.7C541.9,311.7,534.4,319.5,524.8,319.5z"/>
				<path class="st0" d="M524.8,321.2H246.4c-10.2,0-18.6-8.7-18.6-19.3v-88.7c0-10.5,8.3-19.3,18.6-19.3H525
					c10.2,0,18.6,8.7,18.6,19.3v88.7C543.4,312.8,535.4,321.2,524.8,321.2z M246.4,197.7c-8.3,0-15.1,7-15.1,15.7v88.7
					c0,8.7,6.8,15.7,15.1,15.7H525c8.4,0,15.1-6.9,15.1-15.7v-88.7c0-8.7-6.8-15.7-15.1-15.7L246.4,197.7L246.4,197.7z"/>
			</g>
			<g>
				<path class="st0" d="M281.2,273.4h-0.5c-3.9,0-7.4-1.7-10.5-5c-2.1,3.1-6.6,5-13.2,5h-12.6h-1v-1v-6v-1h1h12.2
					c0.1,0,0.3,0,0.5,0c0.1,0,0.3,0,0.5,0c1.3,0,2.2-0.1,3.1-0.3c0.7-0.1,1.7-0.3,1.8-0.5c0.5-0.3,0.7-0.5,0.9-0.9
					c0.1-0.3,0.3-0.5,0.3-1s-0.3-1.5-0.7-2.2c-0.3-0.5-0.5-0.9-0.9-1.7c-0.5-0.5-0.7-1-1.5-1.7l-9-10.4l-0.5-0.7l0.5-0.7l4.2-4.5
					l0.9-0.9l0.7,1l17.9,21.5c1.8,2.3,3.7,3.3,5.4,3.3h0.3c0.5,0,0.7,0.1,1,0.3c0.3,0.1,0.5,0.5,0.5,0.9c0.1,0.5,0.1,0.7,0.1,1
					s0,0.5,0,1.3c0,0.1,0,0.1,0,0.1v0.3c0,1,0,1.8-0.1,2.4c0,0.3-0.1,0.5-0.3,0.5c-0.1,0.1-0.3,0.3-0.5,0.5
					C281.7,273.3,281.6,273.4,281.2,273.4z"/>
				<path class="st0" d="M309.8,273.4h-0.7c-4.6,0-8-1.3-10.2-3.7c-2.4,2.4-6.6,3.7-11.8,3.7h-6c-0.9,0-1.7-0.3-2.2-1
					s-0.7-1.7-0.7-2.7v-0.2c0-1,0.1-2.1,0.5-2.7c0.5-0.7,1.3-1.3,2.3-1.3h6.1c1.7,0,3.1-0.1,4.4-0.5c1.2-0.5,1.8-0.9,2.3-1.7
					c0.5-0.7,0.7-1.7,0.7-2.9v-8.5v-1.2h1h5.9h1v1v8.5c0,1.8,0.5,3.1,1.5,4.2c0.9,0.7,2.7,1.3,5,1.3h0.7c0.5,0,0.7,0.1,1,0.3
					c0.3,0.1,0.5,0.5,0.5,0.9c0.1,0.5,0.1,0.7,0.1,1s0,0.5,0,1.3c0,0.1,0,0.1,0,0.1v0.3c0,0,0,0.1,0,0.3c0,0.3,0,0.5,0,0.5
					c0,0.1,0,0.3,0,0.5c0,0.3,0,0.5-0.1,0.7c0,0.1-0.1,0.5-0.1,0.5c-0.1,0.1-0.1,0.5-0.3,0.5c-0.1,0.1-0.3,0.3-0.5,0.3
					C310.2,273.4,309.9,273.4,309.8,273.4z M281,283.3l2.9-2.9c0.9-0.9,1.8-1,2.7-0.1l3.1,3.1c0.9,0.9,0.9,1.8,0,2.7l-2.9,2.9
					c-0.9,0.9-1.8,0.9-2.7,0l-3.1-3.1C280.1,285.1,280.1,284.1,281,283.3z M292.9,283.3l2.9-2.9c0.9-0.9,1.8-1,2.7-0.1l3.1,3.1
					c0.9,0.9,0.9,1.8,0,2.7l-2.9,2.9c-0.9,0.9-1.8,0.9-2.7,0l-3.2-3.1C292,285.1,292,284.2,292.9,283.3z"/>
				<path class="st0" d="M337.1,273.4h-0.5c-4.6,0-8-1.3-10.2-3.7c-2.7,2.4-6.6,3.7-11.8,3.7h-5.1c-0.9,0-1.7-0.3-2.2-1
					s-0.7-1.7-0.7-2.7v-0.2c0-1,0.1-2.1,0.5-2.7c0.5-0.7,1.3-1.3,2.3-1.3h5.2c2.7,0,4.5-0.5,5.7-1.3c1-0.7,1.7-2.2,1.7-3.9v-8.5
					v-1.2h1h5.9h1v1v8.5c0,1.8,0.5,3.1,1.5,4.2c0.9,0.7,2.7,1.3,5,1.3h0.7c0.5,0,0.7,0.1,1,0.3c0.3,0.1,0.5,0.5,0.5,0.9
					c0.1,0.5,0.1,0.7,0.1,1s0,0.5,0,1.3c0,0.1,0,0.1,0,0.1v0.3c0,0,0,0.1,0,0.3c0,0.1,0,0.3,0,0.5c0,0.1,0,0.3,0,0.5s0,0.5,0,0.5
					c0,0.1,0,0.3-0.1,0.5c0,0.1-0.1,0.3-0.1,0.5s-0.1,0.3-0.1,0.5c-0.1,0.1-0.1,0.3-0.3,0.3c-0.1,0.1-0.3,0.1-0.5,0.1
					C337.6,273.4,337.3,273.4,337.1,273.4z M318.4,236.3l2.9-2.9c1-1,2.1-1,2.9-0.1l3.2,3.1c0.9,0.9,0.9,2.1-0.1,2.9l-2.9,2.9
					c-0.9,0.9-2.1,0.9-2.9,0l-3.1-3.2C317.6,238.3,317.6,237.4,318.4,236.3z"/>
				<path class="st0" d="M336.8,273.4c-0.9,0-1.7-0.3-2.2-1s-0.7-1.7-0.7-2.7v-0.2c0-1,0.1-2.1,0.5-2.7c0.5-0.7,1.3-1.3,2.3-1.3
					h10.9c2.4,0,4.5-0.3,5.5-0.7c1-0.5,1.7-1.5,1.7-2.3c0-0.1,0-0.3-0.1-0.5c-0.1-0.3-0.3-0.5-0.5-1c-0.3-0.5-0.5-0.9-1-1.7
					c-0.5-0.5-0.9-1.3-1.7-1.8l-10.7-12.2c-1.3-1.5-1.8-3.1-1.8-5.4c0-0.7,0.1-1.5,0.3-2.2c0.1-0.5,0.5-1.3,0.9-1.7
					c0.3-0.3,0.9-0.9,1.5-1.5c0.5-0.5,1.3-0.7,1.8-0.9l20.7-6.8l1.7-0.5v1.7v6v0.7l-0.7,0.3l-17.1,5.7l9.1,10.5
					c3.7,4.5,5.9,8.3,5.9,11.7c0,3.7-1.3,6.7-3.7,8.5c-2.4,1.8-6.4,2.7-11.2,2.7h-10.9V274h-0.1v-0.2L336.8,273.4L336.8,273.4z"/>
				<path class="st0" d="M415.4,273.4h-24c-5,0-9-1.5-11.5-4.2c-2.7-2.7-3.9-6.7-3.9-11.8v-6.7v-1h1h5.9h1v1v6.7
					c0,2.4,0.5,4.5,1.8,5.7c0.5,0.5,1.5,1,2.2,1.5c0.9,0.3,2.1,0.5,3.2,0.5h24.1c2.4,0,4.5-0.3,5.5-0.9s1.7-1.5,1.7-2.4
					c0-0.3-0.3-0.9-0.7-1.8c-0.5-0.9-1.5-2.1-2.4-3.2l-10.7-12.2c-0.5-0.5-1-1.7-1.5-2.3c-0.3-0.9-0.5-1.8-0.5-2.7
					c0-1,0.1-2.1,0.5-2.7c0.3-0.7,0.9-1.7,1.7-2.2c0.7-0.5,1.7-1,2.4-1.5l20.4-6.8l1.7-0.5v1.7v6v0.7l-0.7,0.1l-17.3,5.7l17.9,20.6
					c2.7,3.1,5,4.7,6.9,4.7h0.7c0.5,0,0.7,0.1,1,0.3c0.3,0.1,0.5,0.5,0.5,1s0.1,0.7,0.1,1s0,0.5,0,1c0,0.1,0,0.1,0,0.1v0.3
					c0,0,0,0.1,0,0.3c0,0.3,0,0.5,0,0.7s0,0.5,0,0.7c0,0.3,0,0.5-0.1,0.7c-0.1,0.1-0.1,0.5-0.3,0.5c-0.1,0.1-0.3,0.3-0.5,0.5
					c-0.1,0.1-0.5,0.1-0.7,0.1h-0.5c-4.5,0-8.2-1.8-11.4-5.7c-0.3,0.5-0.5,1-1,1.7c-0.5,0.5-0.9,0.9-1.5,1.3c-0.5,0.3-1,0.7-1.7,1
					s-1.3,0.5-1.8,0.7s-1.5,0.5-2.2,0.5c-0.7,0.1-1.7,0.3-2.4,0.3C417.2,273.4,416.2,273.4,415.4,273.4z"/>
				<path class="st0" d="M469.5,273.4H469c-4.6,0-8-1.3-10.2-3.7c-2.4,2.4-6.6,3.7-11.8,3.7h-6c-0.9,0-1.7-0.3-2.2-1
					s-0.7-1.7-0.7-2.7v-0.2c0-1,0.1-2.1,0.5-2.7c0.5-0.7,1.3-1.3,2.3-1.3h6.1c1.7,0,3.1-0.1,4.4-0.5c1-0.5,1.8-0.9,2.3-1.7
					c0.5-0.7,0.7-1.7,0.7-2.9v-8.5v-1.2h1h5.9h1v1v8.5c0,1.8,0.5,3.1,1.5,4.2c0.9,0.7,2.7,1.3,5,1.3h0.7c0.5,0,0.7,0.1,1,0.3
					c0.3,0.1,0.5,0.5,0.5,0.9c0.1,0.5,0.1,0.7,0.1,1s0,0.5,0,1.3c0,0.1,0,0.1,0,0.1v0.3c0,0,0,0.1,0,0.3c0,0.3,0,0.5,0,0.5
					c0,0.1,0,0.3,0,0.5c0,0.3,0,0.5-0.1,0.7c0,0.1-0.1,0.5-0.1,0.5c-0.1,0.1-0.1,0.5-0.3,0.5c-0.1,0.1-0.3,0.3-0.5,0.3
					C469.8,273.4,469.7,273.4,469.5,273.4z M440.6,283.3l2.9-2.9c0.9-0.9,1.8-1,2.7-0.1l3.1,3.1c0.9,0.9,0.9,1.8,0,2.7l-2.9,2.9
					c-0.9,0.9-1.8,0.9-2.7,0l-3.1-3.1C439.7,285.1,439.7,284.1,440.6,283.3z M452.5,283.3l2.9-2.9c0.9-0.9,1.8-1,2.7-0.1l3.1,3.1
					c0.9,0.9,0.9,1.8,0,2.7l-2.9,2.9c-0.9,0.9-1.8,0.9-2.7,0l-3.2-3.1C451.6,285.1,451.6,284.2,452.5,283.3z"/>
				<path class="st0" d="M492.6,273.4h-1.7c-3.7,0-6.9-1.3-9.4-3.7c-2.3,2.4-5.5,3.7-9.2,3.7h-3.1c-0.9,0-1.7-0.3-2.2-1
					s-0.5-1.7-0.5-2.7v-0.2c0-1,0.1-2.1,0.5-2.7c0.5-0.7,1.3-1.3,2.3-1.3h3.1c0.9,0,1.8-0.1,2.4-0.3c0.5-0.1,1.3-0.5,1.7-0.9
					c0.5-0.5,0.7-0.9,0.9-1.7c0.1-0.5,0.3-1.5,0.3-2.2v-29.6v-1.2h1h5.5h1v1v29.8c0,1.7,0.5,2.9,1.5,3.7c0.9,0.7,2.3,1.3,4.6,1.3
					h1.3c0.5,0,0.7,0.1,1,0.3c0.3,0.3,0.5,0.5,0.5,1s0.1,0.7,0.1,1s0,0.5,0,1.3c0,0.1,0,0.1,0,0.1v0.3v0.1c0,0.3,0,0.5,0,0.7
					s0,0.5,0,0.7c0,0.3,0,0.5-0.1,0.7c-0.1,0.1-0.1,0.5-0.3,0.5c-0.1,0.1-0.3,0.3-0.5,0.5C493.2,273.4,492.8,273.4,492.6,273.4z"/>
				<path class="st0" d="M492.1,273.4c-0.9,0-1.7-0.3-2.2-1s-0.7-1.7-0.7-2.7v-0.2c0-1,0.1-2.1,0.5-2.7c0.5-0.7,1.3-1.3,2.3-1.3
					h10.9c2.4,0,4.5-0.3,5.5-0.7c1-0.5,1.7-1.5,1.7-2.3c0-0.1,0-0.3-0.1-0.5c-0.1-0.3-0.3-0.5-0.5-1c-0.3-0.5-0.5-0.9-1-1.7
					c-0.5-0.5-0.9-1.3-1.7-1.8l-10.7-12.2c-1.3-1.5-1.8-3.1-1.8-5.4c0-0.7,0.1-1.5,0.3-2.2c0.1-0.5,0.5-1.3,0.9-1.7
					c0.5-0.5,0.9-0.9,1.5-1.5c0.5-0.5,1.3-0.7,1.8-0.9l20.7-6.8l1.7-0.5v1.7v6v0.7l-0.7,0.3l-17.1,5.7l9.1,10.5
					c3.7,4.5,5.9,8.3,5.9,11.7c0,3.7-1.3,6.7-3.7,8.5s-6.4,2.7-11.2,2.7h-10.9V274H492v-0.2h0.1V273.4z"/>
			</g>
		</g>
	</g>
	<g>
		<path class="st2" d="M202.4,319.2H94.5c-9,0-16.2-7.3-16.2-16.2v-91.6c0-9,7.3-16.2,16.2-16.2h107.9c9,0,16.2,7.3,16.2,16.2V303
			C218.5,312,211.4,319.2,202.4,319.2z"/>
		<path class="st0" d="M202.4,321.2H94.5c-9.9,0-18-8.5-18-19.3v-89.5c0-10.5,8.1-19.3,18-19.3h107.9c9.9,0,18,8.5,18,19.3V302
			C220.4,312.7,212.3,321.2,202.4,321.2z M94.5,197.3c-8,0-14.3,6.9-14.3,15.4v89.5c0,8.4,6.5,15.4,14.3,15.4h107.9
			c8,0,14.3-6.9,14.3-15.4v-89.6c0-8.4-6.5-15.4-14.3-15.4L94.5,197.3L94.5,197.3z"/>
	</g>
	<g>
		<g>
			<path class="st0" d="M120.9,287.7c0.7,1.3,1.4,2.3,1.8,3.7c0.3,0.7,0.6,2.2,2.3,2.2c0.5,0,1.3-0.1,2-0.5c0.7-0.3,1.4-1,1.6-1.8
				l0.7-2.3l1.7-0.8l0.1,0.1c-0.2,0.8-0.2,1.7-0.2,2.4c0,2,1.7,2.7,3.1,2.7c0.7,0,1.5-0.3,1.5-1.2c0-1-0.3-2.5-0.8-3.9
				c0.7-0.7,1.6-1.6,2.4-2.2l0.1,0.1c0.3,1.7,0.6,3.3,0.6,4.4c0,1-0.5,2.3-0.8,3.1c-0.8,1.6-2.3,2.8-4,2.8c-1.4,0-2.8-0.7-3.8-2l0,0
				c-1,1.3-2.4,2.2-4.7,2.2h-0.7c-0.1,1.6-0.5,2.7-1,3.7c-1.5,2.8-5.7,4.7-9.6,4.7c-5.5,0-8.2-3.2-8.2-7.4c0-2.5,0.8-5.1,2.2-6.7
				l1.2,0.5c-0.8,1.6-1.4,3.1-1.4,4.5c0,3.9,3.2,5.9,6.9,5.9c3.5,0,7.7-2.2,8.4-4.7c-0.2-2.8-1.4-4-3-6.6c0.5-0.8,1.2-1.7,1.8-2.5
				H121v-0.3h-0.1V287.7z"/>
			<path class="st0" d="M141.5,284.7l2,3.3c0.7,1.3,1.5,2.4,1.5,4.5v2.7c0,2.2-1.4,4.4-3.6,6.7c-1.7,1.6-3.3,2.2-4.6,2.2
				c-2.1,0-4.5-0.6-7.4-1.8l0.3-0.8c0.8,0.2,2,0.5,3.2,0.5c4,0,8.1-3,9.9-6.5c0.2-0.3,0.3-0.7,0.3-1.2c0-0.3-0.2-0.8-0.3-1.3
				c-1-2-2.2-3.7-3.5-5.3c0.6-1,1.4-2.1,2-3.1L141.5,284.7z"/>
			<path class="st0" d="M147.4,290.6c0.1,2.1,1.2,3.7,4.6,3.7c2.2,0,4-0.6,6.1-1.6c0.3-0.1,0.6-0.3,0.6-0.6c0-1.4-1-3.1-2.7-4.5
				c-1.6-1.5-3.8-2.8-5.8-3.7c-0.7-0.2-0.8-0.6-0.8-0.8c0-0.6,0.7-1.8,1.5-2.7h0.2c2.3,1.3,5,3,6.7,5.1c1.7,1.8,2.8,3.7,2.8,5.8
				c0,1.5-0.5,3-1.3,4.2c-2.5,1.3-5.3,2.2-7.9,2.2c-3.2,0-5.4-1.5-5.4-5.2c0-0.3,0-1,0.1-1.7h1.2L147.4,290.6L147.4,290.6z"/>
			<path class="st0" d="M164.4,297.6c0.2-1.5,0.3-3.2,0.3-4.7v-2.3c0-4.4-0.6-10.9-1-15c0.7-0.8,2-1.8,2.8-2.5l0.2,0.1
				c0.6,5.3,0.7,11.4,0.7,17.1c0,1.5,0,3-0.2,3.9c-0.1,1.4-0.8,2.3-2.4,3.9L164.4,297.6z"/>
			<path class="st0" d="M171.5,288.9c1.6,3.3,3.1,5.3,6.4,5.3h0.5v3.1h-0.6c-1.3,0-2.2-0.2-2.8-0.7h-0.1c0,0.2,0,0.6,0,0.8
				c0,1.2-0.3,2.5-1.2,3.8c-2.2,3.3-4.6,4.7-6.7,4.7c-2.1,0-4.7-0.8-7.2-1.8l0.3-0.8c0.7,0.3,1.8,0.5,3.3,0.5c3.8,0,8.9-3.7,9.5-7.3
				c-0.1-0.2-0.3-0.7-0.7-1.2c-1.2-1.4-1.8-2.4-2.4-3.6C170.4,290.5,171,289.7,171.5,288.9L171.5,288.9z"/>
			<path class="st0" d="M184.5,272.8c1.2,0.7,2.3,1.6,3.5,2.5c-0.6,0.8-1.4,1.7-2.3,2.3c-1.2-0.8-2.2-1.7-3.3-2.4
				C182.8,274.4,183.8,273.6,184.5,272.8z M185,283.7c-1.8,0-3.5,1.3-3.5,2.2c0,2,3.8,2.5,8.2,2.5C189.2,286,187.2,283.7,185,283.7z
				 M180.8,294.1c2.4,0,4.5-0.1,6.1-0.5c1.8-0.5,3.3-1.4,3.3-2c0-0.1,0-0.3,0-0.5c-1,0.1-2.2,0.1-3.2,0.1c-3.3,0-5.8-0.7-6.9-2.5
				c-0.2-0.5-0.3-1.2-0.3-1.7c0-1.8,0.7-3.6,2.1-4.7c1.2-1,2.3-1.6,3.7-1.6c2.3,0,4.2,1.8,5.4,4.7c0.7,1.6,1.3,3.5,1.3,5.8
				c0,1.6-0.3,2.8-1.4,3.8c-1.8,1.7-5.1,2.3-10.2,2.3h-2.3c-1.6,0-2-1-2-1.6s0.5-1.5,2-1.5L180.8,294.1L180.8,294.1L180.8,294.1z"/>
		</g>
		<g>
			<path class="st0" d="M147.7,256.5c0-0.6-0.6-1.5-1.5-2.1c-1.6-1.2-3.2-2.1-4.7-3.1c-0.8-0.5-1.5-0.3-1.6,0.1
				c-0.1,1.2-0.1,2.2-0.2,3.3c0,0.6,0.6,1.5,1.5,2c1.7,1,3.3,2,5,3.1c0.8,0.6,1.5,0.6,1.5,0C147.7,258.7,147.7,257.6,147.7,256.5z"
				/>
			<path class="st0" d="M138.5,257c0-0.6-0.6-1.5-1.5-1.8c-1.7-0.8-3.5-1.7-5.2-2.4c-0.8-0.3-1.7-0.2-1.7,0.3
				c-0.1,1.2-0.2,2.2-0.3,3.3c-0.1,0.6,0.6,1.4,1.6,1.7c1.8,0.7,3.6,1.6,5.4,2.5c0.8,0.5,1.7,0.3,1.7-0.2
				C138.4,259.2,138.4,258.1,138.5,257z"/>
			<path class="st0" d="M147.7,262.6c0-0.6-0.6-1.5-1.5-2.1c-1.6-1.2-3.3-2.1-5-3.1c-0.8-0.5-1.6-0.3-1.6,0.1
				c-0.1,1.2-0.1,2.2-0.2,3.3c0,0.6,0.6,1.5,1.6,2c1.7,1,3.5,2,5.2,3.1c0.8,0.6,1.6,0.6,1.6,0C147.7,265,147.7,263.8,147.7,262.6z"
				/>
			<path class="st0" d="M156.9,251.4c0-0.6-0.7-0.6-1.6-0.1c-1.6,1-3.2,2-4.7,3.1c-0.7,0.6-1.5,1.5-1.5,2.1c0,1.2,0,2.2,0,3.3
				c0,0.6,0.6,0.6,1.5,0c1.6-1.2,3.3-2.1,5-3.1c0.8-0.5,1.5-1.4,1.5-2C157,253.6,156.9,252.6,156.9,251.4z"/>
			<path class="st0" d="M157.1,257.6c0-0.6-0.7-0.6-1.6-0.1c-1.7,1-3.3,2-5,3.1c-0.8,0.6-1.5,1.5-1.5,2.1c0,1.2,0,2.2,0,3.3
				c0,0.6,0.7,0.6,1.6,0c1.7-1.2,3.5-2.1,5.2-3.1c0.8-0.5,1.6-1.4,1.6-2C157.2,259.9,157.2,258.7,157.1,257.6z"/>
			<path class="st0" d="M166.8,252.9c-0.1-0.6-0.8-0.7-1.7-0.3c-1.7,0.7-3.5,1.6-5.2,2.4c-0.8,0.5-1.6,1.4-1.5,1.8
				c0.1,1.2,0.1,2.2,0.2,3.3c0,0.6,0.7,0.6,1.7,0.2c1.7-0.8,3.6-1.7,5.4-2.5c1-0.3,1.6-1.3,1.6-1.7
				C167,255.1,166.9,254.1,166.8,252.9z"/>
			<path class="st3" d="M192.5,233.2c-0.2-0.5-1-1-1.8-0.8c-1.6,0.1-3.3,0.3-5,0.6c-0.8,0.1-1.4,0.7-1.3,1.3
				c0.2,1.2,0.6,2.2,0.8,3.2c0.1,0.6,1,0.8,1.8,0.7c1.7-0.2,3.5-0.5,5.2-0.7c0.8-0.1,1.5-0.6,1.3-1.2
				C193.1,235.4,192.8,234.4,192.5,233.2z M140.5,225.9c0-0.6-0.5-1.5-1.3-1.8c-1.4-0.8-2.7-1.7-4-2.4c-0.7-0.3-1.4-0.2-1.4,0.3
				c-0.1,1.2-0.2,2.2-0.3,3.3c-0.1,0.6,0.5,1.4,1.3,1.7c1.5,0.7,2.8,1.6,4.3,2.4c0.7,0.5,1.4,0.3,1.4-0.2
				C140.3,228.1,140.5,227.1,140.5,225.9z M110.7,240.4c0.1-0.6-0.5-1.2-1.4-1.4c-1.7-0.2-3.5-0.5-5.2-0.7c-0.8-0.1-1.7,0.2-2,0.8
				c-0.3,1.2-0.7,2.1-1.2,3.2c-0.2,0.5,0.3,1.2,1.4,1.2c1.7,0.2,3.6,0.5,5.3,0.7c0.8,0.1,1.7-0.1,2-0.7
				C110.1,242.6,110.4,241.4,110.7,240.4z M112.4,234.4c0.1-0.6-0.3-1.2-1.3-1.3c-1.6-0.2-3.3-0.5-5-0.6c-0.8-0.1-1.7,0.3-1.8,0.8
				c-0.3,1.2-0.7,2.1-1.2,3.2c-0.2,0.5,0.3,1,1.3,1.2c1.7,0.1,3.5,0.3,5.2,0.7c0.8,0.1,1.7-0.1,1.8-0.7
				C111.8,236.5,112.1,235.4,112.4,234.4z M114,228.3c0.1-0.6-0.3-1.2-1.2-1.3c-1.6-0.2-3.1-0.5-4.6-0.6c-0.7-0.1-1.6,0.3-1.8,0.8
				c-0.3,1.2-0.7,2.1-1.2,3.2c-0.2,0.5,0.3,1,1.2,1.2c1.6,0.1,3.3,0.3,5,0.6c0.8,0.1,1.6-0.1,1.8-0.7
				C113.4,230.5,113.8,229.4,114,228.3z M115.7,222.2c0.1-0.5-0.3-1.2-1.2-1.3c-1.5-0.2-3-0.3-4.4-0.5c-0.7,0-1.5,0.3-1.7,0.8
				c-0.3,1.2-0.7,2.1-1.2,3.2c-0.2,0.5,0.2,1,1.2,1.2c1.6,0.1,3.1,0.3,4.6,0.6c0.7,0.1,1.6-0.2,1.7-0.7
				C115.1,224.5,115.4,223.4,115.7,222.2z M117.5,216.2c0.1-0.6-0.2-1.2-1-1.3c-1.5-0.2-2.8-0.3-4.3-0.5c-0.7,0-1.5,0.3-1.6,0.8
				c-0.3,1.2-0.7,2.1-1.2,3.2c-0.2,0.5,0.2,1,1,1.2c1.5,0.1,3,0.2,4.4,0.5c0.7,0.1,1.5-0.2,1.6-0.7
				C116.8,218.4,117,217.4,117.5,216.2z M125.2,218.3c0.1-0.6-0.3-1.3-1.2-1.5c-1.4-0.5-2.8-0.8-4.2-1.2c-0.7-0.1-1.5,0.1-1.6,0.7
				c-0.2,1.2-0.6,2.2-0.8,3.2c-0.1,0.6,0.3,1.2,1.2,1.4c1.5,0.3,3,0.7,4.4,1.3c0.7,0.2,1.5,0,1.6-0.6
				C124.8,220.6,125.1,219.5,125.2,218.3z M122.7,230.5c0.1-0.6-0.5-1.3-1.3-1.5c-1.6-0.5-3.1-0.8-4.6-1.3c-0.7-0.1-1.6,0.1-1.7,0.7
				c-0.2,1.2-0.6,2.2-0.8,3.2c-0.1,0.6,0.3,1.2,1.3,1.4c1.6,0.3,3.2,0.8,5,1.3c0.8,0.2,1.6,0,1.7-0.6
				C122.2,232.7,122.4,231.6,122.7,230.5z M131.3,233.9c0.1-0.6-0.5-1.4-1.3-1.7c-1.5-0.6-3.1-1.3-4.6-1.8c-0.7-0.2-1.5,0-1.6,0.5
				c-0.2,1.2-0.3,2.2-0.6,3.3c-0.1,0.6,0.5,1.3,1.4,1.5c1.6,0.6,3.2,1.3,4.7,1.8c0.8,0.3,1.6,0.1,1.6-0.3
				C131.1,236.2,131.2,235,131.3,233.9z M133.1,221.5c0.1-0.6-0.5-1.4-1.2-1.6c-1.4-0.6-2.8-1.3-4.2-1.7c-0.7-0.2-1.4,0-1.5,0.5
				c-0.2,1.2-0.3,2.2-0.6,3.3c-0.1,0.6,0.3,1.3,1.2,1.5c1.5,0.5,3,1.2,4.3,1.8c0.7,0.3,1.4,0.1,1.5-0.3
				C132.6,223.7,132.8,222.7,133.1,221.5z M166.1,246.7c-0.1-0.6-0.8-0.7-1.7-0.3c-1.7,0.7-3.3,1.6-5,2.4c-0.8,0.5-1.5,1.4-1.5,1.8
				c0.1,1.2,0.1,2.2,0.2,3.3c0,0.6,0.7,0.6,1.6,0.2c1.7-0.8,3.5-1.7,5.2-2.4c0.8-0.3,1.6-1.3,1.5-1.7
				C166.3,248.9,166.2,247.7,166.1,246.7z M165.2,240.6c-0.1-0.6-0.7-0.7-1.6-0.3c-1.6,0.7-3.2,1.6-4.7,2.4
				c-0.8,0.5-1.5,1.4-1.4,1.8c0.1,1.2,0.1,2.2,0.2,3.3c0,0.6,0.7,0.6,1.6,0.2c1.6-0.8,3.3-1.7,5-2.4c0.8-0.3,1.5-1.2,1.4-1.7
				C165.5,242.8,165.4,241.6,165.2,240.6z M164.5,234.5c-0.1-0.6-0.7-0.7-1.5-0.3c-1.5,0.7-3.1,1.6-4.5,2.4
				c-0.7,0.5-1.4,1.3-1.4,1.8c0.1,1.2,0.1,2.2,0.2,3.3c0,0.6,0.7,0.6,1.5,0.2c1.6-0.8,3.2-1.7,4.6-2.4c0.8-0.3,1.4-1.2,1.4-1.7
				C164.7,236.7,164.6,235.5,164.5,234.5z M163.7,228.1c-0.1-0.6-0.7-0.7-1.5-0.3c-1.5,0.7-2.8,1.6-4.3,2.4
				c-0.7,0.5-1.3,1.3-1.3,1.8c0.1,1.2,0.1,2.2,0.2,3.3c0,0.6,0.7,0.6,1.5,0.2c1.5-0.8,3-1.7,4.5-2.4c0.7-0.3,1.4-1.2,1.3-1.7
				C163.9,230.4,163.8,229.3,163.7,228.1z M163,222c-0.1-0.6-0.7-0.7-1.4-0.3c-1.4,0.7-2.7,1.6-4,2.4c-0.7,0.5-1.3,1.3-1.3,1.8
				c0.1,1.2,0.1,2.2,0.2,3.3c0,0.6,0.6,0.6,1.4,0.2c1.5-0.8,2.8-1.7,4.3-2.4c0.7-0.3,1.3-1.2,1.3-1.7
				C163.2,224.2,163.1,223.1,163,222z M170.7,218.8c-0.1-0.6-0.7-0.8-1.5-0.5c-1.4,0.5-2.8,1.2-4.2,1.7c-0.7,0.3-1.3,1.2-1.2,1.6
				c0.1,1.2,0.2,2.2,0.5,3.3c0.1,0.6,0.7,0.7,1.5,0.3c1.5-0.6,3-1.3,4.3-1.8c0.7-0.2,1.3-1,1.2-1.5
				C171.1,220.8,170.8,219.8,170.7,218.8z M175.5,243.1c-0.1-0.6-0.8-0.7-1.7-0.5c-1.7,0.6-3.5,1.3-5.1,2c-0.8,0.3-1.5,1.2-1.5,1.7
				c0.1,1.2,0.2,2.2,0.5,3.3c0.1,0.6,0.8,0.7,1.7,0.3c1.7-0.7,3.6-1.4,5.3-2c0.8-0.2,1.6-1,1.5-1.6
				C175.9,245.3,175.6,244.3,175.5,243.1z M184.9,240.6c-0.1-0.6-1-0.8-1.8-0.6c-1.7,0.3-3.5,0.8-5.2,1.4c-0.8,0.2-1.5,1-1.4,1.5
				c0.2,1.2,0.5,2.2,0.6,3.3c0.1,0.6,1,0.7,1.8,0.5c1.7-0.5,3.6-1,5.3-1.4c0.8-0.2,1.5-0.8,1.4-1.4
				C185.5,242.8,185.3,241.6,184.9,240.6z M178.5,216.5c-0.1-0.6-0.8-0.8-1.6-0.7c-1.4,0.3-2.8,0.7-4.2,1.2
				c-0.7,0.2-1.3,0.8-1.2,1.5c0.2,1.2,0.5,2.2,0.6,3.3c0.1,0.6,0.8,0.8,1.6,0.6c1.5-0.5,3-0.8,4.4-1.3c0.7-0.1,1.3-0.7,1.2-1.4
				C179,218.8,178.8,217.6,178.5,216.5z M188.5,221.4c-0.2-0.5-1-1-1.7-0.8c-1.5,0.1-3,0.2-4.4,0.5c-0.7,0.1-1.3,0.7-1.2,1.3
				c0.2,1.2,0.6,2.2,0.8,3.2c0.1,0.6,0.8,0.8,1.7,0.7c1.6-0.2,3.1-0.5,4.6-0.6c0.7-0.1,1.3-0.5,1.2-1.2
				C189.1,223.6,188.7,222.6,188.5,221.4z M190.5,227.3c-0.2-0.5-1-1-1.8-0.8c-1.6,0.1-3.1,0.3-4.6,0.6c-0.7,0.1-1.4,0.7-1.2,1.3
				c0.2,1.2,0.6,2.2,0.8,3.2c0.1,0.6,1,0.8,1.8,0.7c1.6-0.2,3.3-0.5,5-0.6c0.8-0.1,1.4-0.6,1.2-1.2
				C191.2,229.5,190.8,228.5,190.5,227.3z"/>
			<path class="st0" d="M110.4,212.9c-0.2,0.5-1,1-1.6,1c-1.5,0-2.8,0.1-4.3,0.2c-0.7,0.1-1.2-0.2-0.8-0.7c0.3-1,0.8-2.1,1.3-3.1
				c0.2-0.5,1-1.2,1.7-1.2c1.4-0.1,2.7-0.2,4-0.3c0.7,0,1.2,0.3,0.8,1C111.1,210.8,110.8,211.7,110.4,212.9z"/>
			<path class="st0" d="M119,210.3c0.1-0.6-0.2-1.2-1-1.3c-1.4-0.2-2.7-0.3-4-0.3c-0.7,0-1.4,0.3-1.6,1c-0.3,1.2-0.7,2.1-1.2,3.2
				c-0.2,0.5,0.2,1,1,1.2c1.5,0.1,2.8,0.2,4.2,0.5c0.7,0.1,1.5-0.2,1.6-0.7C118.4,212.4,118.8,211.4,119,210.3z"/>
			<path class="st0" d="M126.5,212.2c0.1-0.6-0.3-1.3-1-1.5c-1.4-0.3-2.7-0.7-3.9-1.2c-0.7-0.1-1.4,0.2-1.5,0.7
				c-0.2,1.2-0.6,2.2-0.8,3.2c-0.1,0.6,0.3,1.2,1,1.3c1.4,0.3,2.8,0.7,4.2,1.2c0.7,0.2,1.4,0,1.5-0.6
				C126,214.4,126.3,213.3,126.5,212.2z"/>
			<path class="st0" d="M133.8,215.4c0.1-0.6-0.3-1.4-1.2-1.6c-1.4-0.6-2.5-1.3-3.9-1.7c-0.6-0.2-1.4,0-1.5,0.6
				c-0.2,1.2-0.3,2.2-0.6,3.3c-0.1,0.6,0.3,1.3,1.2,1.5c1.4,0.5,2.7,1.2,4.2,1.7c0.7,0.3,1.4,0.1,1.4-0.3
				C133.5,217.6,133.6,216.5,133.8,215.4z"/>
			<path class="st0" d="M141,219.7c0-0.6-0.5-1.4-1.2-1.8c-1.3-0.8-2.5-1.6-3.8-2.3c-0.6-0.3-1.3-0.2-1.4,0.3
				c-0.1,1.2-0.2,2.2-0.3,3.3c-0.1,0.6,0.5,1.4,1.2,1.7c1.4,0.7,2.7,1.6,4,2.4c0.7,0.5,1.3,0.3,1.4-0.2
				C140.9,221.9,140.9,220.8,141,219.7z"/>
			<path class="st0" d="M147.9,225.3c0-0.6-0.5-1.5-1.2-2.1c-1.3-1.2-2.4-2.1-3.7-3.1c-0.6-0.5-1.3-0.3-1.3,0.1
				c-0.1,1.2-0.1,2.2-0.2,3.3c0,0.6,0.5,1.5,1.2,2c1.4,1,2.5,2,3.9,3.1c0.6,0.6,1.3,0.6,1.3,0C147.9,227.5,147.9,226.5,147.9,225.3z
				"/>
			<path class="st0" d="M109.5,215.5c0.2-0.5-0.2-1-1-1c-1.5,0-2.8,0.1-4.3,0.2c-0.7,0.1-1.5,0.6-1.7,1.2c-0.3,1-0.8,2.1-1.3,3.1
				c-0.2,0.5,0.2,0.8,1,0.8c1.5-0.1,3-0.2,4.4-0.2c0.7,0,1.5-0.3,1.7-1C108.7,217.6,109,216.7,109.5,215.5z"/>
			<path class="st0" d="M147.9,231.5c0-0.6-0.5-1.5-1.3-2.1c-1.4-1.2-2.5-2.1-3.9-3.1c-0.7-0.5-1.3-0.3-1.3,0.1
				c-0.1,1.2-0.1,2.2-0.2,3.3c0,0.6,0.5,1.5,1.3,2c1.4,1,2.8,2,4.2,3.1c0.7,0.6,1.3,0.6,1.3,0C147.9,233.8,147.9,232.7,147.9,231.5z
				"/>
			<path class="st0" d="M107.4,221.4c0.2-0.5-0.2-1-1-1c-1.5,0-3,0-4.5,0.1c-0.7,0.1-1.6,0.6-1.7,1.2c-0.3,1-0.8,2.1-1.3,3.1
				c-0.2,0.5,0.2,0.8,1,0.8c1.6-0.1,3.1-0.1,4.6-0.1c0.7,0,1.6-0.3,1.8-1C106.6,223.5,107,222.6,107.4,221.4z"/>
			<path class="st0" d="M123.9,224.5c0.1-0.6-0.3-1.3-1.2-1.5c-1.5-0.5-3-0.8-4.4-1.3c-0.7-0.1-1.5,0.1-1.6,0.7
				c-0.2,1.2-0.6,2.2-0.8,3.2c-0.1,0.6,0.3,1.2,1.2,1.4c1.6,0.3,3.1,0.7,4.6,1.3c0.7,0.2,1.5,0,1.6-0.6
				C123.6,226.6,123.7,225.6,123.9,224.5z"/>
			<path class="st0" d="M132.1,227.7c0.1-0.6-0.5-1.4-1.3-1.6c-1.5-0.6-3-1.3-4.4-1.8c-0.7-0.2-1.5,0-1.6,0.5
				c-0.2,1.2-0.3,2.2-0.6,3.3c-0.1,0.6,0.5,1.3,1.3,1.5c1.6,0.6,3.1,1.3,4.5,1.8c0.7,0.3,1.5,0.1,1.6-0.3
				C131.8,229.8,132,228.8,132.1,227.7z"/>
			<path class="st0" d="M140.1,232c0-0.6-0.5-1.5-1.3-1.8c-1.5-0.8-2.8-1.7-4.3-2.4c-0.7-0.3-1.4-0.2-1.5,0.3
				c-0.1,1.2-0.2,2.2-0.3,3.3c-0.1,0.6,0.5,1.4,1.3,1.7c1.5,0.7,3.1,1.6,4.5,2.4c0.7,0.5,1.4,0.3,1.5-0.2
				C140,234.4,140.1,233.2,140.1,232z"/>
			<path class="st0" d="M147.9,237.7c0-0.6-0.6-1.5-1.3-2.1c-1.4-1.2-2.7-2.1-4.2-3.1c-0.7-0.5-1.4-0.3-1.4,0.1
				c-0.1,1.2-0.1,2.2-0.2,3.3c0,0.6,0.5,1.5,1.4,2c1.5,1,3,2,4.3,3.1c0.7,0.6,1.4,0.6,1.4,0C147.9,239.9,147.9,238.9,147.9,237.7z"
				/>
			<path class="st0" d="M105.2,227.3c0.2-0.5-0.2-1-1.2-1c-1.6,0-3.1,0-4.6,0.1c-0.7,0-1.6,0.5-1.8,1.2c-0.3,1-0.8,2.1-1.3,3.1
				c-0.2,0.5,0.2,0.8,1.2,0.8c1.6-0.1,3.2-0.1,4.7,0c0.8,0,1.6-0.3,1.8-0.8C104.5,229.4,104.9,228.3,105.2,227.3z"/>
			<path class="st0" d="M139.8,238.4c0-0.6-0.5-1.5-1.4-1.8c-1.5-0.8-3-1.7-4.5-2.4c-0.7-0.3-1.5-0.2-1.5,0.3
				c-0.1,1.2-0.2,2.2-0.3,3.3c-0.1,0.6,0.5,1.4,1.4,1.7c1.6,0.7,3.2,1.6,4.6,2.4c0.7,0.5,1.5,0.3,1.5-0.2
				C139.7,240.6,139.7,239.4,139.8,238.4z"/>
			<path class="st0" d="M147.9,244.1c0-0.6-0.6-1.5-1.4-2.1c-1.5-1.2-2.8-2.1-4.3-3.1c-0.7-0.5-1.4-0.3-1.5,0.1
				c-0.1,1.2-0.1,2.2-0.2,3.3c0,0.6,0.6,1.5,1.4,2c1.5,1,3.1,2,4.5,3.1c0.7,0.6,1.4,0.6,1.4,0C147.9,246.2,147.9,245.1,147.9,244.1z
				"/>
			<path class="st0" d="M103.2,233.2c0.2-0.5-0.3-1-1.2-1.2c-1.6,0-3.3,0-5,0c-0.8,0-1.7,0.5-1.8,1.2c-0.3,1-0.8,2.1-1.3,3.1
				c-0.2,0.5,0.2,0.8,1.2,0.8c1.7,0,3.3,0,5.1,0c0.8,0,1.7-0.3,2-0.8C102.5,235.3,102.8,234.2,103.2,233.2z"/>
			<path class="st0" d="M121.5,236.7c0.1-0.6-0.5-1.3-1.4-1.5c-1.6-0.5-3.3-0.8-5-1.3c-0.8-0.2-1.6,0.1-1.8,0.6
				c-0.2,1.2-0.6,2.2-0.8,3.2c-0.1,0.6,0.5,1.2,1.4,1.4c1.7,0.3,3.5,0.8,5.2,1.4c0.8,0.2,1.7,0,1.7-0.5
				C120.9,238.9,121.3,237.7,121.5,236.7z"/>
			<path class="st0" d="M130.5,240.1c0.1-0.6-0.5-1.4-1.4-1.7c-1.6-0.7-3.2-1.4-5-1.8c-0.8-0.2-1.6,0-1.7,0.5
				c-0.2,1.2-0.3,2.2-0.6,3.3c-0.1,0.6,0.5,1.3,1.4,1.6c1.7,0.6,3.5,1.3,5.1,2c0.8,0.3,1.6,0.2,1.7-0.3
				C130.2,242.3,130.3,241.2,130.5,240.1z"/>
			<path class="st0" d="M139.4,244.6c0-0.6-0.6-1.5-1.4-1.8c-1.6-0.8-3.2-1.7-4.7-2.4c-0.8-0.3-1.5-0.2-1.6,0.3
				c-0.1,1.2-0.2,2.2-0.3,3.3c-0.1,0.6,0.6,1.4,1.4,1.7c1.7,0.7,3.3,1.6,5,2.4c0.8,0.5,1.5,0.3,1.6-0.2
				C139.2,246.8,139.3,245.7,139.4,244.6z"/>
			<path class="st0" d="M147.9,250.3c0-0.6-0.6-1.5-1.4-2.1c-1.5-1.2-3.1-2.1-4.5-3.1c-0.7-0.5-1.5-0.3-1.5,0.1
				c-0.1,1.2-0.1,2.2-0.2,3.3c0,0.6,0.6,1.5,1.5,2c1.6,1,3.2,2,4.7,3.1c0.7,0.6,1.5,0.6,1.5,0C147.9,252.5,147.9,251.3,147.9,250.3z
				"/>
			<path class="st0" d="M101.1,239.1c0.2-0.5-0.3-1-1.3-1.2c-1.7-0.1-3.5-0.1-5.1,0c-0.8,0-1.7,0.5-2,1c-0.3,1-0.8,2.1-1.3,3.1
				c-0.2,0.5,0.3,1,1.3,0.8c1.7,0,3.5,0,5.3,0.1c0.8,0,1.7-0.3,2-0.8C100.4,241.2,100.7,240.1,101.1,239.1z"/>
			<path class="st0" d="M120.3,242.8c0.1-0.6-0.5-1.3-1.4-1.5c-1.7-0.5-3.5-1-5.2-1.4c-0.8-0.2-1.7,0.1-1.8,0.6
				c-0.2,1.2-0.6,2.2-0.8,3.2c-0.1,0.6,0.5,1.2,1.4,1.4c1.7,0.3,3.6,0.8,5.3,1.4c0.8,0.2,1.7,0,1.8-0.5
				C119.8,245,120,243.8,120.3,242.8z"/>
			<path class="st0" d="M129.7,246.2c0.1-0.6-0.6-1.4-1.5-1.7c-1.7-0.7-3.5-1.4-5.1-2c-0.8-0.2-1.7-0.1-1.7,0.5
				c-0.2,1.2-0.3,2.2-0.6,3.3c-0.1,0.6,0.5,1.3,1.5,1.6c1.7,0.6,3.6,1.3,5.3,2c0.8,0.3,1.7,0.2,1.7-0.3
				C129.4,248.4,129.6,247.3,129.7,246.2z"/>
			<path class="st0" d="M139,250.8c0-0.6-0.6-1.5-1.5-1.8c-1.6-0.8-3.3-1.7-5-2.4c-0.8-0.3-1.6-0.2-1.7,0.3
				c-0.1,1.2-0.2,2.2-0.3,3.3c-0.1,0.6,0.6,1.4,1.5,1.7c1.7,0.7,3.5,1.6,5.2,2.4c0.8,0.5,1.6,0.3,1.6-0.2
				C138.8,252.9,139,251.9,139,250.8z"/>
			<path class="st0" d="M99,245c0.2-0.5-0.3-1-1.3-1.2c-1.7-0.1-3.6-0.1-5.3-0.1c-0.8,0-1.7,0.5-2,1c-0.3,1-0.8,2.1-1.3,3.1
				c-0.2,0.5,0.3,1,1.3,1c1.8,0,3.6,0,5.4,0.1c1,0.1,1.8-0.2,2.1-0.8C98.3,247.1,98.7,246,99,245z"/>
			<path class="st0" d="M108.9,246.4c0.1-0.6-0.5-1.2-1.4-1.4c-1.8-0.3-3.6-0.6-5.4-0.7c-0.8-0.1-1.8,0.2-2,0.8
				c-0.3,1.2-0.7,2.1-1.2,3.2c-0.2,0.5,0.3,1.2,1.4,1.3c1.8,0.2,3.7,0.5,5.5,0.8c1,0.1,1.8-0.1,2-0.6
				C108.4,248.6,108.7,247.4,108.9,246.4z"/>
			<path class="st0" d="M119,248.9c0.1-0.6-0.5-1.3-1.5-1.5c-1.8-0.5-3.6-1-5.4-1.4c-0.8-0.2-1.7,0.1-2,0.6
				c-0.2,1.2-0.6,2.2-0.8,3.2c-0.1,0.6,0.5,1.2,1.5,1.4c1.8,0.3,3.7,0.8,5.5,1.5c1,0.2,1.8,0,2-0.5C118.5,251,118.8,250.1,119,248.9
				z"/>
			<path class="st0" d="M128.8,252.5c0.1-0.6-0.6-1.4-1.5-1.7c-1.7-0.7-3.6-1.4-5.3-2c-0.8-0.2-1.7-0.1-1.8,0.5
				c-0.2,1.2-0.3,2.2-0.6,3.3c-0.1,0.6,0.6,1.3,1.5,1.6c1.8,0.6,3.7,1.3,5.5,2c1,0.3,1.7,0.2,1.8-0.3
				C128.6,254.7,128.7,253.5,128.8,252.5z"/>
			<path class="st0" d="M155.2,223.6c0,0.6-0.5,1.5-1.2,2c-1.4,1-2.5,2-3.9,3.1c-0.6,0.6-1.3,0.6-1.3,0c0-1.2,0-2.2,0-3.3
				c0-0.6,0.5-1.5,1.2-2.1c1.3-1.2,2.4-2.1,3.7-3.1c0.6-0.5,1.3-0.3,1.3,0.1C155.1,221.4,155.1,222.6,155.2,223.6z"/>
			<path class="st0" d="M162.1,215.8c-0.1-0.6-0.6-0.7-1.4-0.3c-1.4,0.7-2.5,1.5-3.8,2.3c-0.6,0.5-1.2,1.3-1.2,1.8
				c0.1,1.2,0.1,2.2,0.2,3.3c0,0.6,0.6,0.6,1.4,0.2c1.4-0.8,2.7-1.7,4-2.4c0.7-0.3,1.3-1.2,1.2-1.7
				C162.5,218.1,162.4,216.9,162.1,215.8z"/>
			<path class="st0" d="M169.4,212.5c-0.1-0.6-0.7-0.8-1.5-0.6c-1.4,0.5-2.5,1.2-3.9,1.7c-0.6,0.3-1.2,1.2-1.2,1.6
				c0.1,1.2,0.2,2.2,0.5,3.3c0.1,0.6,0.7,0.7,1.4,0.3c1.4-0.6,2.7-1.3,4.2-1.7c0.7-0.2,1.3-1,1.2-1.5
				C169.8,214.8,169.7,213.7,169.4,212.5z"/>
			<path class="st0" d="M176.8,210.4c-0.1-0.6-0.8-0.8-1.5-0.7c-1.4,0.2-2.7,0.6-3.9,1.2c-0.6,0.2-1.2,0.8-1,1.5
				c0.2,1.2,0.5,2.2,0.6,3.3c0.1,0.6,0.7,0.8,1.5,0.6c1.4-0.5,2.8-0.8,4.2-1.2c0.7-0.1,1.3-0.7,1-1.3
				C177.4,212.8,177.2,211.6,176.8,210.4z"/>
			<path class="st0" d="M184.5,209.6c-0.2-0.5-0.8-1-1.6-1c-1.4,0.1-2.7,0.2-4,0.3c-0.7,0.1-1.2,0.6-1,1.3c0.2,1.2,0.6,2.2,0.8,3.2
				c0.1,0.6,0.8,0.8,1.6,0.7c1.4-0.2,2.8-0.3,4.2-0.5c0.7,0,1.2-0.5,1-1.2C185,211.8,184.7,210.8,184.5,209.6z"/>
			<path class="st0" d="M192.1,210.1c-0.2-0.5-1-1.2-1.7-1.2c-1.4-0.1-2.7-0.2-4-0.3c-0.7,0-1.2,0.3-0.8,1c0.3,1.2,0.7,2.1,1.2,3.2
				c0.2,0.5,1,1,1.6,1c1.5,0,2.8,0.1,4.3,0.2c0.7,0.1,1.2-0.2,0.8-0.7C192.9,212.2,192.4,211.3,192.1,210.1z"/>
			<path class="st0" d="M155.4,226.6c0-0.6-0.6-0.6-1.3-0.1c-1.4,1-2.7,2-3.9,3.1c-0.6,0.6-1.3,1.5-1.3,2.1c0,1.2,0,2.2,0,3.3
				c0,0.6,0.6,0.6,1.3,0c1.4-1.2,2.7-2.1,4.2-3.1c0.7-0.5,1.3-1.4,1.3-2C155.5,228.8,155.5,227.7,155.4,226.6z"/>
			<path class="st0" d="M186.4,215.5c-0.2-0.5-1-1-1.6-0.8c-1.5,0.1-2.8,0.2-4.3,0.5c-0.7,0.1-1.3,0.6-1,1.3
				c0.2,1.2,0.6,2.2,0.8,3.2c0.1,0.6,0.8,0.8,1.6,0.7c1.5-0.2,3-0.3,4.4-0.5c0.7,0,1.3-0.5,1-1.2
				C187.1,217.7,186.8,216.7,186.4,215.5z"/>
			<path class="st0" d="M194.4,215.9c-0.2-0.5-1-1.2-1.7-1.2c-1.5-0.1-2.8-0.2-4.3-0.2c-0.7,0-1.2,0.5-1,1c0.3,1.2,0.7,2.1,1.2,3.2
				c0.2,0.5,1,1,1.7,1c1.5,0,3,0,4.4,0.2c0.7,0.1,1.3-0.2,1-0.8C195.2,218,194.7,217,194.4,215.9z"/>
			<path class="st0" d="M155.7,232.7c0-0.6-0.6-0.6-1.4-0.1c-1.4,1-2.8,2-4.2,3.1c-0.7,0.6-1.3,1.5-1.3,2.1c0,1.2,0,2.2,0,3.3
				c0,0.6,0.6,0.6,1.4,0c1.5-1.2,2.8-2.1,4.3-3.1c0.7-0.5,1.4-1.4,1.4-2C155.8,235,155.7,233.9,155.7,232.7z"/>
			<path class="st0" d="M171.8,224.8c-0.1-0.6-0.8-0.8-1.6-0.5c-1.5,0.5-3,1.2-4.4,1.8c-0.7,0.3-1.3,1.2-1.3,1.6
				c0.1,1.2,0.2,2.2,0.5,3.3c0.1,0.6,0.7,0.7,1.6,0.3c1.5-0.6,3.1-1.3,4.5-1.8c0.7-0.2,1.4-1,1.3-1.5
				C172.3,227,172.1,225.8,171.8,224.8z"/>
			<path class="st0" d="M180.2,222.6c-0.1-0.6-0.8-0.8-1.6-0.7c-1.5,0.3-3,0.7-4.4,1.3c-0.7,0.2-1.3,0.8-1.2,1.5
				c0.2,1.2,0.5,2.2,0.6,3.3c0.1,0.6,0.8,0.8,1.6,0.6c1.6-0.5,3.1-0.8,4.6-1.3c0.7-0.1,1.4-0.7,1.2-1.4
				C180.7,224.8,180.4,223.6,180.2,222.6z"/>
			<path class="st0" d="M196.7,221.6c-0.2-0.5-1-1-1.7-1.2c-1.5-0.1-3-0.2-4.5-0.1c-0.7,0-1.3,0.5-1,1c0.3,1.2,0.7,2.1,1.2,3.2
				c0.2,0.5,1,1,1.8,1c1.6,0,3.1,0,4.6,0.1c0.7,0,1.3-0.3,1-0.8C197.6,223.7,197.2,222.8,196.7,221.6z"/>
			<path class="st0" d="M156.1,239c0-0.6-0.6-0.6-1.5-0.1c-1.5,1-3,2-4.3,3.1c-0.7,0.6-1.4,1.5-1.4,2.1c0,1.2,0,2.2,0,3.3
				c0,0.6,0.6,0.6,1.4,0c1.5-1.2,3-2.1,4.5-3.1c0.7-0.5,1.4-1.4,1.4-2C156.2,241.2,156.1,240.1,156.1,239z"/>
			<path class="st0" d="M173,230.9c-0.1-0.6-0.8-0.8-1.6-0.5c-1.6,0.6-3.1,1.3-4.6,1.8c-0.7,0.3-1.4,1.2-1.3,1.7
				c0.1,1.2,0.2,2.2,0.5,3.3c0.1,0.6,0.7,0.7,1.6,0.3c1.6-0.7,3.2-1.4,4.7-1.8c0.8-0.2,1.4-1,1.4-1.5
				C173.5,233.1,173.3,231.9,173,230.9z"/>
			<path class="st0" d="M181.8,228.6c-0.1-0.6-0.8-0.8-1.7-0.7c-1.6,0.3-3.1,0.7-4.6,1.3c-0.7,0.2-1.4,0.8-1.3,1.5
				c0.2,1.2,0.5,2.2,0.6,3.3c0.1,0.6,0.8,0.8,1.7,0.6c1.6-0.5,3.2-0.8,5-1.3c0.8-0.2,1.4-0.7,1.3-1.4
				C182.4,230.8,182,229.6,181.8,228.6z"/>
			<path class="st0" d="M199.1,227.4c-0.2-0.5-1-1-1.8-1.2c-1.6-0.1-3.1-0.1-4.6-0.1c-0.7,0-1.3,0.5-1.2,1c0.3,1.2,0.7,2.1,1.2,3.2
				c0.2,0.5,1,1,1.8,0.8c1.6,0,3.2,0,4.7,0c0.8,0,1.4-0.3,1.2-0.8C200.1,229.5,199.6,228.6,199.1,227.4z"/>
			<path class="st0" d="M156.5,245.2c0-0.6-0.7-0.6-1.5-0.1c-1.6,1-3.1,2-4.5,3.1c-0.7,0.6-1.4,1.5-1.4,2.1c0,1.2,0,2.2,0,3.3
				c0,0.6,0.6,0.6,1.5,0c1.6-1.2,3.1-2.1,4.7-3.1c0.8-0.5,1.5-1.4,1.5-2C156.6,247.4,156.5,246.4,156.5,245.2z"/>
			<path class="st0" d="M174.3,237c-0.1-0.6-0.8-0.7-1.7-0.5c-1.6,0.6-3.2,1.3-5,1.8c-0.8,0.3-1.5,1.2-1.4,1.7
				c0.1,1.2,0.2,2.2,0.5,3.3c0.1,0.6,0.8,0.7,1.7,0.3c1.7-0.7,3.3-1.4,5.1-2c0.8-0.2,1.5-1,1.4-1.6
				C174.6,239.2,174.5,238.2,174.3,237z"/>
			<path class="st0" d="M183.3,234.6c-0.1-0.6-1-0.8-1.8-0.6c-1.6,0.3-3.3,0.8-5,1.3c-0.8,0.2-1.4,0.8-1.4,1.5
				c0.2,1.2,0.5,2.2,0.6,3.3c0.1,0.6,0.8,0.7,1.7,0.5c1.7-0.5,3.5-1,5.2-1.4c0.8-0.2,1.5-0.7,1.4-1.4
				C184,236.8,183.5,235.6,183.3,234.6z"/>
			<path class="st0" d="M201.6,233.2c-0.2-0.5-1.2-1-1.8-1.2c-1.6-0.1-3.2-0.1-5,0c-0.8,0-1.4,0.5-1.2,1.2c0.3,1.2,0.7,2.1,1.2,3.2
				c0.2,0.5,1.2,1,2,0.8c1.7-0.1,3.3-0.1,5.1,0c0.8,0,1.4-0.3,1.2-0.8C202.4,235.3,202,234.2,201.6,233.2z"/>
			<path class="st0" d="M194.5,239.1c-0.2-0.5-1-1-2-0.8c-1.7,0.2-3.5,0.3-5.2,0.7c-0.8,0.1-1.5,0.7-1.4,1.4
				c0.2,1.2,0.6,2.2,0.8,3.2c0.1,0.6,1,0.8,2,0.7c1.7-0.3,3.6-0.6,5.3-0.7c0.8-0.1,1.5-0.6,1.4-1.2
				C195.2,241.3,194.9,240.2,194.5,239.1z"/>
			<path class="st0" d="M204,239c-0.2-0.5-1.2-1-2-1c-1.7,0-3.3,0-5.1,0c-0.8,0-1.5,0.5-1.3,1.2c0.3,1.2,0.7,2.1,1.2,3.2
				c0.2,0.5,1.2,0.8,2,0.8c1.7-0.1,3.6-0.1,5.3-0.1c0.8,0,1.5-0.3,1.3-0.8C204.8,241.1,204.3,239.9,204,239z"/>
			<path class="st0" d="M176.6,249.3c-0.1-0.6-1-0.7-1.8-0.5c-1.7,0.6-3.6,1.3-5.3,2c-0.8,0.3-1.6,1.2-1.5,1.7
				c0.1,1.2,0.2,2.2,0.5,3.3c0.1,0.6,0.8,0.7,1.8,0.3c1.8-0.7,3.7-1.4,5.5-2c1-0.3,1.6-1,1.5-1.6
				C177.1,251.4,176.8,250.4,176.6,249.3z"/>
			<path class="st0" d="M186.7,246.6c-0.1-0.6-1-0.8-2-0.6c-1.8,0.3-3.6,0.8-5.4,1.4c-0.8,0.2-1.6,1-1.5,1.5
				c0.2,1.2,0.5,2.2,0.6,3.3c0.1,0.6,1,0.7,2,0.5c1.8-0.5,3.7-1,5.5-1.5c1-0.2,1.6-0.8,1.5-1.4C187.1,248.8,186.9,247.6,186.7,246.6
				z"/>
			<path class="st0" d="M196.6,245c-0.2-0.5-1.2-0.8-2-0.8c-1.7,0.2-3.6,0.5-5.4,0.7c-0.8,0.1-1.5,0.7-1.4,1.4
				c0.2,1.2,0.6,2.2,0.8,3.2c0.1,0.6,1.2,0.8,2,0.6c1.8-0.3,3.7-0.6,5.5-0.8c1-0.1,1.6-0.6,1.4-1.3
				C197.2,247.2,196.8,246.1,196.6,245z"/>
			<path class="st0" d="M206.3,244.7c-0.2-0.5-1.2-1-2-1c-1.7,0-3.5,0-5.3,0.1c-0.8,0-1.5,0.6-1.3,1.2c0.3,1.2,0.7,2.1,1.2,3.2
				c0.2,0.5,1.2,0.8,2.1,0.8c1.8-0.1,3.7-0.2,5.4-0.1c0.8,0,1.5-0.3,1.3-1C207.2,246.8,206.8,245.7,206.3,244.7z"/>
		</g>
	</g>
</g>
<path class="st4" d="M582.8,182H37.1c-6.5,0-11.7-5.2-11.7-11.7V81.4c0-6.5,5.2-11.7,11.7-11.7h545.8c6.5,0,11.7,5.2,11.7,11.7v89
	C594.5,176.8,589.3,182,582.8,182z"/>
<g>
	<g>
		<g>
			<g>
				<path class="st5" d="M317.2,161.2H72.6c-4.3,0-8.3-3.7-8.3-8.3V99.7c0-4.3,3.7-8.3,8.3-8.3h244.6c4.3,0,8.3,3.7,8.3,8.3v53.1
					C325.7,157.4,322,161.2,317.2,161.2z"/>
				<path class="st0" d="M317.2,162.8H72.6c-5.5,0-10.3-4.6-10.3-10.3V99.6c0-5.5,4.6-10.3,10.3-10.3h244.6
					c5.5,0,10.3,4.6,10.3,10.3v53.1C327.5,158.5,323.1,162.8,317.2,162.8z M72.6,93.3c-3.5,0-6.4,2.9-6.4,6.4v53.1
					c0,3.5,2.9,6.4,6.4,6.4h244.6c3.5,0,6.4-2.9,6.4-6.4V99.7c0-3.5-2.9-6.4-6.4-6.4C317.2,93.3,72.6,93.3,72.6,93.3z"/>
			</g>
		</g>
	</g>
	<g>
		<path class="st6" d="M111.7,140c-0.6,0.3-1.4,0.6-2,0.9c-0.9,0.3-2,0.3-3.2,0.6c-0.9,0-2.3,0.3-3.5,0.3H86.9
			c-3.7,0-6.4-0.9-8.3-2.9c-2-2-2.9-4.8-2.9-8.7v-4.8v-0.9h0.9h4.3h0.9v0.9v4.8c0,2,0.3,3.2,1.4,4.1c0.9,0.9,2.3,1.4,4.1,1.4h17.3
			c-0.9-1.4-1.4-3.2-1.4-5.2c0-1.4,0.3-2.6,0.6-3.7c0.3-0.9,0.9-2,2-3.2c2-1.7,4.1-2.6,6.7-2.6s4.8,0.9,6.7,2.6c0.9,0.9,1.4,2,2,3.2
			c0.3,0.9,0.6,2.6,0.6,3.7c0,2-0.3,3.7-1.4,5.2h3.7c0.3,0,0.3,0,0.6,0s0.3,0.3,0.3,0.3c0,0.3,0.3,0.3,0.3,0.3s0,0.3,0,0.6
			s0,0.3,0,0.3v0.3c0,0,0,0,0,0.3v0.3c0,0,0,0,0,0.3s0,0.3,0,0.6c0,0,0,0.3,0,0.6s0,0.3,0,0.6c0,0,0,0.3-0.3,0.3
			c0,0.3-0.3,0.3-0.3,0.3c-0.3,0-0.3,0-0.6,0h-3.4C117,141.7,114.3,140.9,111.7,140z M108,112.3l2-2c0.6-0.6,1.4-0.9,2,0l2.6,2.3
			c0.6,0.6,0.6,1.4,0,2l-2,2c-0.6,0.6-1.4,0.6-2,0l-2.3-2.6C107.1,113.7,107.1,112.9,108,112.3z M108,130.5c0,0.9,0.3,1.7,0.9,2.6
			c0.6,0.6,1.4,0.9,2.6,0.9c1.4,0,2-0.3,2.6-0.9c0.6-0.6,0.9-1.4,0.9-2.6c0-1.2-0.3-1.7-0.9-2.6c-0.3-0.3-0.6-0.6-0.9-0.9
			s-0.9-0.3-1.4-0.3c-0.3,0-0.9,0-1.4,0.3c-0.3,0.3-0.9,0.3-0.9,0.9c-0.3,0.3-0.6,0.6-0.9,0.9c0,0.3,0,0.3-0.3,0.6
			C108,130,108,130,108,130.5z"/>
		<path class="st6" d="M144.4,141.7h-0.3c-3.2,0-5.7-0.9-7.5-2.6c-2,2-4.8,2.6-8.7,2.6h-4.3c-0.6,0-1.2-0.3-1.4-0.9
			c-0.3-0.3-0.3-1.2-0.3-2v-0.3c0-0.9,0-1.4,0.3-2c0.3-0.9,0.9-0.9,1.7-0.9h4.3c1.2,0,2.3,0,3.2-0.3s1.4-0.6,1.7-1.2
			c0.3-0.3,0.3-1.2,0.3-2v-6.3v-0.6h0.9h4.3h0.9v0.9v6.4c0,1.4,0.3,2.3,0.9,2.9c0.6,0.6,2,0.9,3.5,0.9h0.3c0.3,0,0.6,0,0.9,0.3
			s0.3,0.3,0.3,0.6c0.3,0.3,0,0.6,0,0.9s0,0.3,0,0.9c0,0,0,0,0,0.3v0.3c0,0,0,0,0,0.3s0,0.3,0,0.3v0.3v0.3c0,0,0,0.3-0.3,0.3
			c0,0.3-0.3,0.3-0.3,0.3L144.4,141.7C144.9,141.7,144.6,141.7,144.4,141.7z M123.5,148.8l2-2c0.6-0.6,1.4-0.6,2,0l2.3,2.3
			c0.6,0.6,0.6,1.4,0,2l-2,2c-0.6,0.6-1.4,0.6-2,0l-2.3-2.3C122.7,150.1,122.7,149.7,123.5,148.8z M132.2,148.8l2-2
			c0.6-0.6,1.4-0.6,2,0l2.3,2.3c0.6,0.6,0.6,1.4,0,2l-2,2c-0.6,0.6-1.4,0.6-2,0l-2.6-2.3C131.4,150.1,131.8,149.7,132.2,148.8z"/>
		<path class="st6" d="M169.5,141.7h-3.2c-1.4,0-3.2-0.3-4.3-0.3c-1.2,0-2.6-0.6-4.1-1.4c-2.6,1.2-5.7,2-8.7,2h-4.3
			c-0.6,0-1.2-0.3-1.4-0.9c-0.3-0.3-0.3-1.2-0.3-2v-0.3c0-0.9,0.3-1.4,0.3-2c0.3-0.3,0.9-0.9,1.4-0.9h5.5c-0.9-1.4-1.4-3.2-1.4-5.2
			c0-2.6,0.9-4.8,2.6-6.7c2-1.7,4.1-2.6,6.7-2.6c2.6,0,4.8,0.9,6.7,2.6c0.3,0.3,0.9,0.9,0.9,1.4c0.3,0.6,0.6,0.9,0.9,1.4
			c0.3,0.3,0.3,0.9,0.3,1.7c0,0.8,0.3,1.2,0.3,2c0,0.9,0,2-0.3,2.6c-0.3,0.9-0.6,1.7-0.9,2.6h3.7c0.3,0,0.3,0,0.6,0s0.3,0.3,0.3,0.3
			c0,0.3,0.3,0.3,0.3,0.3s0,0.3,0,0.6s0,0.3,0,0.3v0.3c0,0,0,0,0,0.3v0.3c0,0,0,0,0,0.3s0,0.3,0,0.3v0.3c0,0.3,0,0.3,0,0.3v0.3
			c0,0.3,0,0.3-0.3,0.3l-0.3,0.3l-0.3,0.3C169.8,141.7,169.5,141.7,169.5,141.7z M153.9,112.3l2-2c0.6-0.6,1.4-0.9,2,0l2.6,2.3
			c0.6,0.6,0.6,1.4,0,2l-2,2c-0.6,0.6-1.4,0.6-2,0l-2.3-2.6C153.4,113.7,153.4,112.9,153.9,112.3z M153.9,130.5
			c0,0.9,0.3,1.7,0.9,2.6c0.9,0.9,1.4,0.9,2.6,0.9c1.2,0,2-0.3,2.6-0.9c0.6-0.6,0.9-1.4,0.9-2.6c0-1.2-0.3-1.7-0.9-2.6
			c-0.3-0.3-0.6-0.6-0.9-0.9c-0.3-0.3-0.9-0.3-1.4-0.3c-0.3,0-0.9,0-1.4,0.3c-0.3,0.3-0.9,0.3-0.9,0.9l-0.3,0.3l-0.3,0.3
			c0,0,0,0.3-0.3,0.3v0.3v0.3C153.9,130,153.9,130,153.9,130.5z"/>
		<path class="st6" d="M190.9,137.4l-2,0.9c-3.7,2-7.5,2.9-11.9,2.9h-7.4c-0.6,0-1.2-0.3-1.4-0.9c-0.3-0.6-0.3-1.2-0.3-2V138
			c0-0.9,0-1.4,0.3-2c0.3-0.9,0.9-0.9,1.7-0.9h7.2c1.7,0,3.2-0.3,4.8-0.3c1.4-0.3,2.9-0.9,4.3-1.4l5.5-2.6l-3.2-2
			c-2-0.9-3.7-1.7-5.7-1.7c-1.7,0-3.2,0.6-5.2,2l-1.7,1.4l-0.6,0.3l-0.3-0.6l-2.6-3.2l-0.6-0.6l0.6-0.3l1.4-1.2
			c2.6-2,5.5-3.5,8.3-3.7c2.6-0.3,5.7,0.3,8.7,2l4.3,2.6c0.3,0.3,0.9,0.3,1.4,0.9c0.3,0.3,0.9,0.3,1.4,0.3c0.3,0,0.9,0.3,1.2,0.3
			h0.6v0.6v4.3v0.3l-0.3,0.3l-2.6,1.4c0.9,0.3,2,0.9,3.2,0.9h2.9c0.3,0,0.6,0,0.9,0.3c0.3,0.3,0.3,0.3,0.3,0.6c0,0.4,0,0.6,0,0.9
			s0,0.3,0,0.9c0,0,0,0,0,0.3v0.3c0,0.6,0,1.4-0.3,1.7c-0.3,0.6-0.6,0.9-1.2,0.9H200c-1.7,0-3.2-0.3-4.8-0.9
			C192.9,140,191.5,138.8,190.9,137.4z M179.6,111.8l2-2c0.6-0.6,1.4-0.9,2,0l2.6,2.3c0.6,0.6,0.6,1.4,0,2l-2,2
			c-0.6,0.6-1.4,0.6-2,0l-2.3-2.6C178.7,112.9,178.7,112.3,179.6,111.8z"/>
		<path class="st6" d="M201.8,141.7c-0.6,0-1.2-0.3-1.4-0.9c-0.3-0.3-0.3-1.2-0.3-2v-0.3c0-0.9,0.3-1.4,0.3-2
			c0.3-0.3,0.9-0.9,1.4-0.9h5.7c1.4,0,2.6-0.3,3.2-0.9c0.6-0.6,0.9-1.4,0.9-2.9v-6.9V124h0.9h4.1h0.9v0.9v6.9c0,3.2-0.9,5.7-2.6,7.2
			s-4.1,2.6-7.2,2.6L201.8,141.7L201.8,141.7L201.8,141.7z M202.7,114.4l2-2c0.6-0.6,1.4-0.6,2,0l2.3,2.3c0.6,0.6,0.6,1.4,0,2l-2,2
			c-0.6,0.6-1.4,0.6-2,0l-2.3-2.3C202.1,115.7,202.1,115.2,202.7,114.4z M211.4,114.4l2-2c0.6-0.6,1.4-0.6,2,0l2.3,2.3
			c0.6,0.6,0.6,1.4,0,2l-2,2c-0.6,0.6-1.4,0.6-2,0l-2.6-2.3C210.9,115.7,210.9,115.2,211.4,114.4z"/>
		<path class="st6" d="M228.5,112.3c0-1.4,0.3-2.6,1.7-3.5c0.9-0.9,2.3-1.4,3.7-1.4s2.6,0.3,3.7,1.4c0.3,0.3,0.3,0.3,0.6,0.6
			c0.4,0.4,0.3,0.6,0.3,0.9c0.3,0.3,0.3,0.6,0.3,0.9c0.3,0.3,0.3,0.6,0.3,0.9s0,0.9-0.3,1.2c0,0.3-0.3,0.3-0.3,0.3
			c0,0.3-0.3,0.3-0.3,0.3c-0.3,0.3-0.3,0.3-0.3,0.3c-0.3,0.3-0.3,0.6-0.9,0.9c-0.9,0.9-2.3,1.4-3.7,1.4s-2.6-0.3-3.7-1.4
			c-0.3-0.3-0.9-0.9-1.2-1.7C228.5,113.7,228.5,113.2,228.5,112.3z M249.3,106.1l4.3,2.3l0.9,0.3L235,143l-0.9-0.3l-4.1-2.3
			l-0.9-0.3l19.6-34.1C248.4,106.1,249.3,106.1,249.3,106.1z M245.3,134.6L245.3,134.6L245.3,134.6v-0.3V134v-0.3v-0.3
			c0-0.3,0-0.3,0.3-0.3c0-0.3,0-0.3,0-0.3v-0.3c0-0.3,0.3-0.3,0.3-0.3l0.3-0.3c0-0.3,0-0.3,0.3-0.3c0.3-0.3,0.3-0.3,0.3-0.3l0.3-0.3
			l0.3-0.3l0.3-0.3l0.3-0.3c0.3-0.3,0.3-0.3,0.3-0.3c0.9-0.9,2.3-1.4,3.7-1.4c0.3,0,0.9,0.3,1.2,0.3c0.3,0,0.3,0.3,0.6,0.3
			c0.3,0,0.3,0.3,0.3,0.3s0.3,0,0.3,0.3c0.3,0,0.3,0.3,0.3,0.3c0.3,0.3,0.6,0.3,0.9,0.9c0.9,0.9,1.7,2.3,1.7,3.5s-0.3,2.6-1.7,3.5
			c-0.3,0.3-0.9,0.9-1.7,0.9c-0.6,0.3-1.2,0.3-2,0.3c-1.4,0-2.6-0.3-3.7-1.4C246.1,137.2,245.3,135.7,245.3,134.6z"/>
	</g>
	<g>
		<path class="st6" d="M282.4,125.6c-1.3,0-2.4-0.1-3.6-0.4c-1.2-0.2-2.3-0.6-3.4-1.2c0.2,1.8,0.4,3.6,0.5,5.3
			c0.1,1.7,0.2,3.4,0.3,4.9c0.1,1.6,0.1,3.2,0.1,4.7s0,3,0,4.5h-7.8c0-3.5-0.1-6.9-0.2-10.2c-0.1-3.4-0.4-6.6-0.9-9.7
			s-1.1-6-1.9-8.8c-0.9-2.7-1.9-5.2-3.4-7.3l6.7-4.2c0.6,1,1.1,1.7,1.5,2.6c0.5,0.8,0.9,1.6,1.3,2.4c0.6-1,1.4-1.7,2.2-2.4
			c0.9-0.7,1.7-1.3,2.7-1.6c1-0.5,1.9-0.8,3-1s2.1-0.3,3.2-0.3c0.8,0,1.4,0.1,2.2,0.2c0.8,0.1,1.4,0.3,2.2,0.6
			c0.8,0.3,1.4,0.6,2.2,1.1c0.8,0.4,1.4,1,2.2,1.6l-4.1,6.5c0,0-0.2-0.1-0.5-0.3c-0.3-0.2-0.7-0.4-1.3-0.7c-0.6-0.2-1.2-0.5-1.9-0.7
			c-0.8-0.2-1.5-0.3-2.4-0.3c-0.8,0-1.4,0.1-2.2,0.4c-0.8,0.3-1.4,0.6-2,1.1c-0.6,0.4-1.1,0.9-1.4,1.4s-0.5,1-0.4,1.4l0,0
			c0.1,0.6,0.4,1,0.9,1.4s1.1,0.6,1.8,0.8c0.8,0.2,1.4,0.4,2.1,0.4c0.8,0.1,1.4,0.1,2,0.1s1.3,0,1.9-0.1c0.7-0.1,1.4-0.2,2.1-0.4
			c0.7-0.2,1.4-0.4,2.1-0.7c0.7-0.3,1.4-0.6,1.9-1l3.3,6.2c-2,1.4-4,2.5-5.9,3C285.9,125.3,284.1,125.6,282.4,125.6z"/>
		<path class="st6" d="M294.5,128c0-1.4,0.3-2.5,0.8-3.8c0.5-1.2,1.2-2.2,2-3.1c0.9-0.9,1.8-1.5,3-2s2.4-0.8,3.8-0.8
			s2.5,0.3,3.8,0.8c1.2,0.5,2.2,1.2,3.1,2c0.9,0.9,1.5,1.9,2,3.1s0.8,2.4,0.8,3.8c0,1.4-0.3,2.6-0.8,3.8s-1.2,2.1-2,3
			c-0.9,0.9-1.9,1.5-3.1,2s-2.4,0.8-3.8,0.8s-2.6-0.3-3.8-0.8c-1.2-0.5-2.1-1.2-3-2c-0.9-0.9-1.5-1.8-2-3S294.5,129.4,294.5,128z
			 M300.4,128c0,0.5,0.1,1.1,0.3,1.4c0.2,0.5,0.5,0.9,0.8,1.3c0.4,0.4,0.8,0.6,1.3,0.8s1,0.3,1.4,0.3c0.5,0,1.1-0.1,1.4-0.3
			c0.5-0.2,0.9-0.5,1.3-0.8c0.4-0.4,0.6-0.8,0.9-1.3c0.2-0.5,0.3-1,0.3-1.4s-0.1-1.1-0.3-1.4c-0.2-0.5-0.5-0.9-0.9-1.3
			s-0.8-0.6-1.3-0.9c-0.5-0.2-1-0.3-1.4-0.3c-0.5,0-1.1,0.1-1.4,0.3c-0.5,0.2-0.9,0.5-1.3,0.9s-0.6,0.8-0.8,1.3
			C300.5,127.1,300.4,127.5,300.4,128z"/>
	</g>
</g>
<g>
	<g class="st7">
		<g>
			<path d="M70.6,28.1c0.2,0.4,0.4,0.9,0.7,1.4c0.3,0.6,0.5,1.2,0.8,1.9s0.5,1.4,0.8,2.2c0.2,0.8,0.4,1.5,0.6,2.3
				c0.1,0.8,0.2,1.6,0.2,2.3c0,1.2-0.2,2.4-0.6,3.5s-0.9,2-1.6,2.8s-1.5,1.4-2.6,1.9c-1,0.5-2.2,0.7-3.5,0.7c-1.2,0-2.1-0.2-2.8-0.6
				c-0.7-0.4-1.3-0.9-1.8-1.6c-0.3,0.3-0.5,0.6-0.8,0.9s-0.7,0.5-1.1,0.7c-0.4,0.2-0.9,0.3-1.4,0.4c-0.5,0.1-1.2,0.2-1.9,0.2
				c-0.5,0-1,0-1.4-0.1s-0.8-0.2-1.2-0.3c0,1.5-0.2,2.8-0.7,4c-0.4,1.2-1,2.3-1.8,3.2c-0.7,1-1.6,1.8-2.6,2.5s-2.1,1.3-3.2,1.7
				c-1.2,0.5-2.4,0.8-3.6,1c-1.3,0.2-2.5,0.3-3.8,0.3c-1.9,0-3.7-0.3-5.3-1c-1.6-0.6-3-1.5-4.2-2.7c-1.2-1.1-2.1-2.5-2.8-4.1
				c-0.7-1.6-1-3.4-1-5.3c0-1.1,0.2-2.3,0.5-3.5s0.6-2.3,1-3.5c0.4-1.1,0.9-2.2,1.4-3.2s1.1-1.9,1.6-2.8l4.1,3.2
				c-0.5,0.7-0.9,1.5-1.3,2.4c-0.4,0.8-0.8,1.7-1.1,2.5c-0.3,0.9-0.6,1.7-0.8,2.6c-0.2,0.9-0.3,1.7-0.3,2.5c0,1,0.2,1.9,0.6,2.7
				s1,1.6,1.7,2.2c0.7,0.6,1.6,1.1,2.6,1.5s2.1,0.5,3.2,0.5c1.3,0,2.5-0.1,3.6-0.4c1.1-0.2,2.1-0.6,2.9-1c0.8-0.4,1.6-0.9,2.1-1.5
				c0.6-0.6,1-1.3,1.2-2l0,0c0.3-1,0.5-2.1,0.5-3.2c0-0.8-0.1-1.7-0.4-2.6c-0.2-0.9-0.5-1.7-0.9-2.6c-0.4-0.9-0.8-1.8-1.3-2.7
				s-0.9-1.8-1.3-2.7l5.2-2.9c0.3,0.7,0.7,1.5,1,2.2c0.3,0.8,0.7,1.5,1,2.2s0.7,1.3,1,1.9c0.4,0.6,0.7,1.1,1.1,1.5
				c0.4,0.4,0.8,0.7,1.2,1c0.4,0.2,0.8,0.3,1.3,0.2s1-0.3,1.3-0.6s0.6-0.7,0.7-1.1c0.2-0.4,0.3-0.9,0.3-1.5c0-0.5,0.1-1.1,0-1.7
				c0-0.6-0.1-1.1-0.1-1.7c-0.1-0.6-0.1-1.1-0.1-1.5l5.2-0.7c0.1,0.4,0.2,0.9,0.2,1.4c0.1,0.5,0.1,1.1,0.2,1.7
				c0.1,0.6,0.2,1.2,0.3,1.8s0.3,1.2,0.5,1.7s0.5,1,0.8,1.4c0.3,0.4,0.7,0.7,1.2,0.8c0.4,0,0.8-0.1,1.1-0.2c0.3-0.1,0.6-0.4,0.9-0.6
				c0.3-0.3,0.4-0.6,0.6-1c0.1-0.4,0.2-0.9,0.2-1.4s-0.1-1-0.3-1.6c-0.2-0.6-0.4-1.2-0.7-1.9c-0.3-0.7-0.6-1.4-1-2.2
				s-0.8-1.5-1.2-2.3l4.8-2.7C70.3,27.5,70.4,27.7,70.6,28.1z"/>
			<path d="M85.5,35.9c0.3,0.9,0.6,1.9,0.8,2.8c0.2,1,0.4,1.9,0.6,2.9s0.2,1.9,0.2,2.7c0,1.2-0.2,2.3-0.5,3.5
				c-0.3,1.1-0.8,2.2-1.4,3.3s-1.3,2.1-2.1,3c-0.8,1-1.7,1.9-2.7,2.7c-1,0.9-2,1.7-3.1,2.4s-2.3,1.4-3.5,2l-3.4-4.8
				c0.9-0.5,1.8-1,2.7-1.5c0.9-0.6,1.8-1.2,2.7-1.8c0.8-0.7,1.6-1.3,2.4-2.1c0.7-0.7,1.4-1.4,1.9-2.2c0.5-0.7,1-1.5,1.3-2.2
				c0.3-0.8,0.5-1.5,0.5-2.2c0-0.5-0.1-1.1-0.2-1.7c-0.1-0.6-0.3-1.3-0.6-2c-0.3-0.7-0.5-1.5-0.9-2.3c-0.3-0.8-0.7-1.6-1.1-2.5
				l5.4-2.5C85,34.2,85.2,35,85.5,35.9z"/>
			<path d="M92.8,39.4c0.7,0.3,1.4,0.6,2.2,0.9c0.7,0.3,1.5,0.5,2.2,0.7s1.3,0.3,1.8,0.3c0.3,0,0.7,0,1.2-0.1c0.5,0,1-0.1,1.5-0.3
				c0.5-0.1,0.9-0.3,1.3-0.6s0.6-0.6,0.6-1c0-0.5-0.1-1-0.4-1.7c-0.3-0.6-0.7-1.3-1.2-1.9c-0.5-0.7-1.1-1.3-1.8-2
				c-0.7-0.7-1.4-1.3-2.1-2c-0.7-0.6-1.5-1.2-2.2-1.8c-0.7-0.5-1.4-1-2-1.4l3.3-4.9c1.2,0.9,2.4,1.8,3.6,2.9s2.3,2.2,3.3,3.4
				c1,1.2,1.9,2.4,2.6,3.7s1.3,2.5,1.6,3.8c0.1,0.4,0.2,0.7,0.2,1.1c0,0.4,0.1,0.7,0.1,1.1c0,1.2-0.2,2.2-0.7,3.2s-1.1,1.8-1.9,2.5
				s-1.8,1.3-2.9,1.6c-1.1,0.4-2.4,0.6-3.7,0.6c-0.1,0-0.2,0-0.3,0c-0.1,0-0.2,0-0.3,0c-0.9,0-1.8-0.1-2.7-0.3
				c-0.9-0.2-1.8-0.4-2.7-0.7c-0.9-0.3-1.7-0.7-2.6-1.1c-0.8-0.4-1.6-0.8-2.3-1.3l2.5-5.7C91.5,38.7,92.1,39.1,92.8,39.4z"/>
			<path d="M112.1,44c0.1-1.1,0.1-2.2,0.2-3.3s0.1-2.1,0.1-3.1s0-2,0-2.8c-0.1-1.8-0.1-3.3-0.2-4.7c-0.1-1.3-0.1-2.5-0.2-3.6
				c-0.1-1-0.1-2-0.2-2.7c-0.1-0.8-0.1-1.5-0.2-2.2s-0.2-1.3-0.2-1.8c-0.1-0.6-0.2-1.2-0.3-1.8l5.8-1.9c0.3,1.7,0.5,3.4,0.7,5.1
				s0.3,3.3,0.4,4.9s0.1,3,0.2,4.4c0,1.3,0,2.5,0,3.4s0,1.8,0,2.8s0,2,0,3.1s0,2.2-0.1,3.3c0,1.1-0.1,2.2-0.2,3.2l-5.8,0.9
				C111.9,46.2,112,45.1,112.1,44z"/>
			<path d="M134.6,47.2c-0.3,0-0.6,0-1.1-0.1s-1-0.2-1.5-0.4c-0.3,1.6-0.8,3-1.6,4.4s-1.7,2.7-2.8,3.9c-1.1,1.2-2.4,2.3-3.8,3.4
				c-1.4,1-3,2-4.6,2.8l-3.4-4.8c0.9-0.5,1.8-0.9,2.7-1.5c0.9-0.5,1.8-1.1,2.6-1.7c0.8-0.6,1.6-1.2,2.3-1.9c0.7-0.6,1.3-1.3,1.9-2
				c0.5-0.7,0.9-1.4,1.2-2.1c0.3-0.7,0.5-1.5,0.5-2.2c0-0.5-0.1-1.1-0.3-1.9s-0.4-1.6-0.7-2.4c-0.3-0.9-0.6-1.7-1-2.6
				c-0.4-0.9-0.7-1.7-1-2.4l5.4-2.4c0.5,1.5,1,2.8,1.4,3.8c0.5,1,0.9,1.8,1.3,2.4c0.4,0.6,0.8,1,1.2,1.3c0.4,0.2,0.8,0.4,1.2,0.4
				h0.5v5.9L134.6,47.2L134.6,47.2z"/>
			<path d="M152.1,41.2v5.9h-17.8v-5.9H152.1z"/>
			<path d="M152,41.2c0.5,0,1,0,1.7,0s1.4,0,2.1-0.1c0.7,0,1.5-0.1,2.3-0.1s1.5-0.2,2.2-0.3s1.4-0.3,1.9-0.5
				c0.6-0.2,1.1-0.4,1.4-0.7c-1.6,0.2-3.2,0.2-4.5,0.1c-1.4-0.1-2.6-0.3-3.6-0.8s-1.8-1.1-2.3-2c-0.6-0.9-0.8-2.1-0.9-3.6
				c0-0.7,0.1-1.4,0.2-2.1c0.1-0.7,0.3-1.5,0.6-2.2s0.6-1.4,1-2s0.9-1.2,1.4-1.7s1.2-0.9,1.8-1.1c0.7-0.3,1.4-0.4,2.2-0.4
				c1,0,1.9,0.2,2.7,0.6s1.6,0.9,2.2,1.5c0.7,0.6,1.2,1.4,1.7,2.2c0.5,0.9,0.9,1.7,1.2,2.7c0.3,0.9,0.6,1.9,0.7,2.9
				c0.2,1,0.2,1.9,0.2,2.8c0,1.5-0.2,2.8-0.6,3.9c-0.4,1.1-1,2.1-1.8,2.9c-0.8,0.8-1.6,1.4-2.7,1.9c-1,0.5-2.2,0.9-3.4,1.2
				s-2.5,0.5-3.9,0.6s-2.8,0.2-4.2,0.2h-0.7v-5.9C150.9,41.2,152,41.2,152,41.2z M159.6,21.8l-4.2-4.2l4.2-4.2l4.2,4.2L159.6,21.8z
				 M159.7,29.7c-0.3,0-0.6,0.1-0.9,0.3c-0.3,0.2-0.6,0.4-0.8,0.7c-0.3,0.3-0.5,0.6-0.6,1c-0.2,0.4-0.3,0.8-0.3,1.2s0.1,0.7,0.3,0.9
				s0.5,0.4,0.9,0.6c0.4,0.1,0.8,0.2,1.2,0.3c0.5,0.1,0.9,0.1,1.4,0.1c0.4,0,0.9,0,1.3,0c0.4,0,0.7,0,0.9-0.1
				c-0.1-0.6-0.3-1.1-0.4-1.7s-0.4-1.1-0.7-1.6s-0.6-0.9-1-1.2C160.6,29.9,160.2,29.7,159.7,29.7z"/>
			<path d="M191.7,47.2c-1,0-2-0.2-3.1-0.5c-1-0.4-2-0.9-2.8-1.5c-0.8-0.7-1.5-1.5-2.1-2.4c-0.5-0.9-0.8-2-0.8-3.2
				c0-2.5,1.1-5.1,3.3-7.8c0.2-0.2,0.3-0.4,0.4-0.5c0.1-0.1,0.2-0.3,0.3-0.4s0.2-0.2,0.3-0.3l0.3-0.3l-1.1-1l3.7-4.6
				c0.6,0.5,1.4,1.1,2.3,1.9c0.9,0.8,1.9,1.8,3.1,3.1c3.2,3.7,4.9,7,4.9,9.9c0,1.3-0.3,2.4-0.8,3.3c-0.5,1-1.2,1.8-2,2.4
				c-0.8,0.6-1.8,1.1-2.8,1.5C193.8,47,192.7,47.2,191.7,47.2z M195.3,39.5c0-0.4-0.1-0.8-0.4-1.3c-0.3-0.5-0.6-1-1-1.5
				s-0.9-1.1-1.4-1.6s-1-1.1-1.5-1.6c-0.3,0.4-0.7,0.8-1.1,1.3c-0.4,0.5-0.7,1-1,1.5s-0.6,1.1-0.8,1.6c-0.2,0.6-0.3,1.1-0.3,1.6
				c0,0.3,0.2,0.6,0.4,0.8c0.3,0.2,0.6,0.4,1,0.5s0.8,0.2,1.2,0.3s0.8,0.1,1.1,0.1c0.4,0,0.8,0,1.2-0.1s0.8-0.2,1.2-0.3
				s0.7-0.3,0.9-0.5C195.2,40.1,195.3,39.8,195.3,39.5z"/>
			<path d="M212.6,35.9c0.3,0.9,0.6,1.9,0.8,2.8c0.2,1,0.4,1.9,0.6,2.9c0.2,1,0.2,1.9,0.2,2.7c0,1.2-0.2,2.3-0.5,3.5
				s-0.8,2.2-1.4,3.3c-0.6,1.1-1.3,2.1-2.1,3c-0.8,1-1.7,1.9-2.7,2.7c-1,0.9-2,1.7-3.1,2.4s-2.3,1.4-3.5,2l-3.4-4.8
				c0.9-0.5,1.8-1,2.7-1.5c0.9-0.6,1.8-1.2,2.7-1.8c0.8-0.7,1.6-1.3,2.4-2.1c0.7-0.7,1.4-1.4,1.9-2.2c0.5-0.7,1-1.5,1.3-2.2
				c0.3-0.8,0.5-1.5,0.5-2.2c0-0.5-0.1-1.1-0.2-1.7c-0.1-0.6-0.3-1.3-0.6-2s-0.5-1.5-0.9-2.3c-0.3-0.8-0.7-1.6-1.1-2.5l5.4-2.5
				C212,34.2,212.3,35,212.6,35.9z"/>
			<path d="M226.7,47.2c-1.6,0-2.9-0.2-4-0.6c-1.1-0.4-2-1-2.7-1.7s-1.2-1.6-1.5-2.6S218,40.2,218,39c0-0.6,0-1.4,0-2.2
				c0-0.9,0-1.9,0-3.1c0-1.2,0-2.5,0-3.9s0-2.8-0.1-4.2s-0.1-2.8-0.2-4.1c-0.1-1.3-0.3-2.4-0.4-3.4l5.6-1.7c0.2,0.8,0.3,1.8,0.4,2.9
				c0.1,1.1,0.2,2.3,0.3,3.5s0.1,2.5,0.1,3.7s0.1,2.4,0.1,3.5c0,0.9,0,1.9,0,3c0,1-0.1,2-0.1,3c0,0.9,0,1.8,0,2.6s0.2,1.3,0.3,1.7
				c0.1,0.3,0.3,0.5,0.4,0.7c0.2,0.2,0.4,0.3,0.6,0.3c0.2,0.1,0.5,0.1,0.7,0.1c0.3,0,0.6,0,0.9,0h0.5v5.9L226.7,47.2L226.7,47.2
				L226.7,47.2z"/>
			<path d="M244.2,41.2v5.9h-17.8v-5.9H244.2z"/>
			<path d="M243.5,41.2h1.3c0-0.8,0.2-1.7,0.4-2.7s0.5-2,0.9-2.9c0.4-1,0.8-1.9,1.3-2.9c0.5-0.9,1.1-1.7,1.7-2.5
				c0.6-0.7,1.3-1.3,2-1.8s1.5-0.7,2.3-0.8c0.8,0,1.6,0.2,2.3,0.7s1.3,1.1,1.8,1.8c0.5,0.7,0.9,1.6,1.2,2.5c0.3,0.9,0.4,1.9,0.4,2.9
				c0,1.1-0.2,2.3-0.7,3.3c-0.5,1.1-1.1,2.1-1.9,3c-0.8,0.9-1.7,1.8-2.7,2.5s-2,1.4-3.1,1.8c0.1,0.3,0.3,0.7,0.6,1.1
				c0.3,0.4,0.6,0.8,1,1.3c0.4,0.4,0.7,0.8,1.1,1.2c0.4,0.4,0.7,0.7,0.9,0.9c0-0.7,0.1-1.5,0.3-2.2c0.2-0.8,0.5-1.5,1-2.2
				c0.4-0.7,0.9-1.4,1.4-2c0.6-0.6,1.1-1.2,1.8-1.6c0.6-0.5,1.3-0.8,2-1.1s1.3-0.4,2-0.4h0.9V47h-1c-0.6,0-1.1,0.1-1.6,0.4
				c-0.5,0.3-1,0.7-1.4,1.1c-0.4,0.5-0.7,1-1,1.6c-0.2,0.6-0.4,1.1-0.4,1.7c0,0.3,0,0.5,0.1,0.7c0,0.2,0.1,0.4,0.2,0.7
				c0.1,0.2,0.2,0.5,0.4,0.7c0.2,0.3,0.4,0.5,0.6,0.8l-3.4,4.2c-1.5-0.9-2.8-1.9-4-2.8c-1.1-1-2.1-1.9-3-2.9c-0.8-1-1.5-2-2.1-3
				s-1-2.1-1.4-3.1h-2.4v-5.9H243.5z M254.6,36.4c0-0.4,0-0.7,0-1.1c0-0.4-0.1-0.8-0.2-1.1c-0.1-0.4-0.2-0.7-0.4-1s-0.4-0.5-0.6-0.7
				c-0.2,0.1-0.5,0.4-0.8,0.7c-0.3,0.4-0.6,0.8-0.9,1.3c-0.3,0.5-0.6,1-0.8,1.6c-0.3,0.6-0.5,1.2-0.7,1.8s-0.4,1.2-0.5,1.8
				s-0.2,1.1-0.2,1.6c0.5-0.1,1.1-0.3,1.7-0.6c0.6-0.3,1.1-0.7,1.6-1.1c0.5-0.4,0.9-0.9,1.3-1.5C254.3,37.5,254.5,37,254.6,36.4z"/>
			<path d="M263,41.2h2.5c0.5,0,1.1,0,1.7-0.1s1.2-0.2,1.8-0.4c0.5-0.2,1-0.5,1.4-0.8s0.6-0.7,0.6-1.2c0-0.3-0.1-0.7-0.3-1.3
				c-0.2-0.6-0.4-1.3-0.7-2c-0.3-0.7-0.6-1.5-1-2.3s-0.7-1.6-1.1-2.3l5.4-2.7c0.4,0.8,0.7,1.6,1,2.5s0.7,1.8,0.9,2.7
				c0.3,0.9,0.5,1.8,0.7,2.7s0.3,1.8,0.3,2.6c0,1.5-0.3,2.8-0.8,3.9c-0.5,1.1-1.2,2-2.1,2.7s-2,1.2-3.2,1.5
				c-1.3,0.3-2.6,0.5-4.1,0.5h-3L263,41.2L263,41.2z M269,57.5l-4.2-4.2l4.2-4.2l4.2,4.2L269,57.5z"/>
			<path d="M308,47.2c-1.1,0-2.3,0-3.6-0.1s-2.6-0.3-3.9-0.5c-1.3-0.3-2.5-0.6-3.8-1.1c-1.2-0.5-2.3-1.1-3.2-1.9
				c-0.9-0.8-1.7-1.7-2.3-2.8c-0.6-1.1-0.9-2.4-1-3.9c0-0.7,0.1-1.5,0.2-2.2c0.2-0.7,0.4-1.4,0.6-2c0.3-0.7,0.6-1.3,0.9-2
				c0.3-0.6,0.7-1.3,1.1-1.9l4.4,3.7c-0.2,0.3-0.4,0.6-0.7,1c-0.3,0.4-0.5,0.9-0.7,1.3c-0.2,0.5-0.4,0.9-0.6,1.4s-0.2,0.9-0.2,1.2
				c0,0.5,0.2,0.9,0.5,1.3c0.3,0.4,0.8,0.7,1.4,1s1.3,0.5,2.1,0.7c0.8,0.2,1.7,0.4,2.6,0.5s1.9,0.2,3,0.3c1,0.1,2.1,0.1,3.2,0.1
				c0.5,0,1,0,1.6,0s1.1,0,1.6,0s0.9,0,1.3,0s0.6,0,0.8,0c-0.5-0.5-0.9-1.1-1.2-1.9c-0.4-0.7-0.6-1.6-0.6-2.5c0-0.7,0.1-1.5,0.2-2.2
				c0.2-0.8,0.4-1.5,0.8-2.2s0.8-1.4,1.3-2s1.1-1.2,1.7-1.6c0.6-0.5,1.3-0.8,2-1.1c0.7-0.2,1.4-0.4,2.2-0.3c1.1,0.1,2.1,0.3,3,0.8
				s1.8,1.2,2.4,2c0.7,0.8,1.2,1.7,1.6,2.8c0.4,1,0.6,2.1,0.6,3.2c0,0.9-0.1,1.7-0.4,2.5s-0.7,1.6-1.1,2.4c0.6,0.1,1.2,0.1,1.8,0.2
				c0.6,0,1.1,0.1,1.6,0.1h0.6v5.9h-0.5c-0.8,0-1.6,0-2.4,0s-1.6-0.1-2.5-0.2c-0.8-0.1-1.6-0.3-2.4-0.5s-1.6-0.5-2.3-0.8
				c-0.3,0.2-0.7,0.3-1.2,0.5c-0.5,0.1-1.1,0.3-1.8,0.4c-0.7,0.1-1.4,0.2-2.1,0.3c-0.8,0.1-1.5,0.2-2.3,0.2
				c-0.8,0.1-1.5,0.1-2.3,0.1C309.3,47.2,308.6,47.2,308,47.2z M320.5,24.3l-4.2-4.2l4.2-4.2l4.2,4.2L320.5,24.3z M322.4,36.5
				c0-0.4-0.1-0.8-0.3-1.1c-0.2-0.4-0.4-0.7-0.7-1c-0.3-0.3-0.6-0.5-0.9-0.7s-0.6-0.3-0.9-0.4c-0.3,0.1-0.6,0.2-1,0.3
				c-0.4,0.2-0.7,0.4-1.1,0.7c-0.3,0.3-0.6,0.7-0.8,1.1c-0.2,0.4-0.3,0.9-0.3,1.5c0,0.2,0.1,0.4,0.3,0.8c0.2,0.3,0.4,0.7,0.8,1
				c0.3,0.3,0.7,0.7,1.1,1s0.8,0.5,1.2,0.6c0.3-0.2,0.6-0.4,1-0.7c0.3-0.3,0.6-0.6,0.9-1c0.3-0.3,0.5-0.7,0.6-1.1
				C322.4,37.1,322.4,36.8,322.4,36.5z"/>
			<path d="M347,41.2v5.9h-17.8v-5.9H347z"/>
			<path d="M363,41.2v5.9h-0.4c-0.6,0-1.2-0.1-1.8-0.2c-0.6-0.1-1.1-0.2-1.6-0.4s-1-0.4-1.4-0.6c-0.4-0.3-0.8-0.5-1.1-0.8
				c-0.6,0.5-1.3,0.8-2,1.1c-0.8,0.3-1.6,0.5-2.4,0.6s-1.7,0.2-2.6,0.3c-0.9,0-1.8,0.1-2.6,0.1h-0.7v-5.9h0.7c0.9,0,1.7,0,2.4-0.1
				c0.7,0,1.3-0.1,1.9-0.3c0.5-0.1,1-0.3,1.3-0.5c0.4-0.2,0.7-0.5,0.9-0.8c0.3-0.4,0.5-0.8,0.5-1.3c0.1-0.5,0.1-1,0-1.5
				s-0.2-1-0.3-1.6c-0.1-0.5-0.3-1-0.4-1.5l5.5-1.6c0.2,0.6,0.3,1.1,0.4,1.5c0.1,0.5,0.2,0.9,0.3,1.4c0.1,0.4,0.2,0.9,0.2,1.3
				c0.1,0.5,0.1,0.9,0.2,1.5c0,0.3,0.1,0.7,0.2,1.1c0.1,0.4,0.2,0.8,0.4,1.1c0.2,0.3,0.4,0.6,0.8,0.8c0.3,0.2,0.8,0.3,1.3,0.3h0.3
				L363,41.2L363,41.2z M353.5,52.7l-3.5,3.5l-3.6-3.6L350,49l3.6,3.6l3.5-3.5l3.6,3.6l-3.6,3.6L353.5,52.7z"/>
			<path d="M362.2,41.2h1.4c0.3,0,0.6,0,0.9,0s0.6,0,0.8-0.1c0.3,0,0.5-0.1,0.6-0.1c-0.2-0.3-0.4-0.5-0.7-0.8
				c-0.2-0.3-0.4-0.6-0.6-1s-0.3-0.7-0.4-1.1c-0.1-0.4-0.2-0.8-0.2-1.3c0-0.7,0.1-1.5,0.2-2.2c0.2-0.8,0.4-1.5,0.8-2.2
				s0.8-1.4,1.3-2s1.1-1.2,1.7-1.6c0.6-0.5,1.3-0.8,2-1.1c0.7-0.2,1.4-0.4,2.2-0.3c1.1,0.1,2.1,0.3,3,0.8s1.8,1.2,2.4,2
				c0.7,0.8,1.2,1.7,1.6,2.8c0.4,1,0.6,2.1,0.6,3.2c0,0.9-0.1,1.7-0.4,2.5s-0.7,1.6-1.1,2.4c0.3,0.1,0.7,0.1,1.2,0.2
				c0.5,0,1.1,0.1,1.8,0.1h0.4v5.9H381c-0.8,0-1.6,0-2.3-0.1c-0.7,0-1.5-0.1-2.2-0.2c-0.7-0.1-1.4-0.3-2.1-0.5s-1.4-0.4-2.2-0.8
				c-0.5,0.3-1,0.5-1.7,0.7s-1.5,0.4-2.3,0.5s-1.7,0.2-2.6,0.3s-1.8,0.1-2.7,0.1h-0.7L362.2,41.2L362.2,41.2z M371.9,24.6l-4.2-4.2
				l4.2-4.2l4.2,4.2L371.9,24.6z M375,36.5c0-0.4-0.1-0.8-0.3-1.1c-0.2-0.4-0.4-0.7-0.7-1c-0.3-0.3-0.6-0.5-0.9-0.7
				s-0.6-0.3-0.9-0.4c-0.3,0.1-0.6,0.2-1,0.3c-0.4,0.2-0.7,0.4-1.1,0.7c-0.3,0.3-0.6,0.7-0.8,1.1c-0.2,0.4-0.3,0.9-0.3,1.5
				c0,0.2,0.1,0.4,0.3,0.8c0.2,0.3,0.4,0.7,0.8,1c0.3,0.3,0.7,0.7,1.1,1s0.8,0.5,1.2,0.6c0.3-0.2,0.6-0.4,1-0.7
				c0.3-0.3,0.6-0.6,0.9-1c0.3-0.3,0.5-0.7,0.6-1.1C374.9,37.1,375,36.8,375,36.5z"/>
			<path d="M381.1,41.2h3.8c0.9,0,1.9-0.1,2.9-0.2c1-0.1,2.1-0.3,3.1-0.5c1.1-0.2,2.1-0.5,3.2-0.8s2.1-0.6,3.2-1
				c1-0.3,2-0.7,2.9-1.1c0.9-0.4,1.8-0.8,2.6-1.1c-0.8-0.2-1.6-0.5-2.6-0.8s-1.9-0.7-2.9-1s-1.9-0.6-2.9-0.8
				c-0.9-0.2-1.7-0.3-2.5-0.3c-0.5,0-0.9,0.1-1.3,0.3s-0.8,0.4-1.2,0.7c-0.4,0.3-0.7,0.6-1,0.9c-0.3,0.3-0.5,0.6-0.8,0.9
				c-0.2,0.3-0.4,0.5-0.5,0.7l-0.2,0.3l-4.5-2.6c0.5-0.9,1.1-1.8,1.8-2.7c0.7-0.9,1.5-1.6,2.3-2.3c0.8-0.7,1.7-1.2,2.6-1.6
				s1.8-0.6,2.7-0.6c0.7,0,1.4,0.1,2,0.2c0.7,0.2,1.3,0.3,2,0.6c0.7,0.2,1.4,0.5,2.1,0.8s1.4,0.6,2.1,1s1.5,0.7,2.4,1
				s1.8,0.6,2.7,0.9c0.9,0.3,1.9,0.5,2.9,0.6c1,0.2,1.9,0.2,2.9,0.2l-1,5.6c-0.3,0.1-0.6,0.3-1,0.4c-0.4,0.2-0.7,0.3-1,0.5l-0.5,0.2
				c0.3,0.3,0.7,0.6,1.1,0.8s0.9,0.3,1.4,0.4s0.9,0.2,1.3,0.2s0.8,0,1,0h0.6v5.9h-0.6c-1.2,0-2.3-0.1-3.4-0.3s-2-0.5-2.9-0.9
				s-1.6-0.9-2.3-1.5c-0.7-0.6-1.2-1.2-1.7-2c-1.2,0.6-2.5,1.2-3.9,1.7c-1.3,0.6-2.7,1.1-4.2,1.5c-1.4,0.4-2.9,0.8-4.5,1.1
				c-1.5,0.3-3.2,0.4-4.8,0.4h-3.8v-5.7L381.1,41.2L381.1,41.2z M391.7,25.8l-4.2-4.2l4.2-4.2l4.2,4.2L391.7,25.8z"/>
			<path d="M412.4,41.2h4.5c0.5,0,1.1,0,1.8-0.1c0.7-0.1,1.3-0.2,1.8-0.3c0.6-0.2,1-0.4,1.4-0.8c0.4-0.3,0.6-0.8,0.6-1.4
				c0-0.3-0.1-0.7-0.3-1.3c-0.2-0.6-0.4-1.3-0.7-2c-0.3-0.7-0.6-1.5-1-2.3s-0.7-1.6-1.1-2.3l5.4-2.7c0.4,0.8,0.7,1.6,1,2.5
				s0.7,1.8,0.9,2.7c0.3,0.9,0.5,1.8,0.7,2.7s0.3,1.8,0.3,2.6c0,1.6-0.3,2.9-0.9,4s-1.3,2-2.3,2.7s-2.1,1.2-3.4,1.5
				s-2.7,0.5-4.2,0.5h-4.5L412.4,41.2L412.4,41.2z M421.2,21.8l-3.5,3.5l-3.6-3.6l3.6-3.6l3.6,3.6l3.5-3.5l3.6,3.6l-3.6,3.6
				L421.2,21.8z"/>
			<path d="M450.9,47.2c-1,0-2-0.2-3.1-0.5c-1-0.4-2-0.9-2.8-1.5c-0.8-0.7-1.5-1.5-2.1-2.4c-0.5-0.9-0.8-2-0.8-3.2
				c0-2.5,1.1-5.1,3.3-7.8c0.2-0.2,0.3-0.4,0.4-0.5s0.2-0.3,0.3-0.4c0.1-0.1,0.2-0.2,0.3-0.3l0.3-0.3l-1.1-1l3.7-4.6
				c0.6,0.5,1.4,1.1,2.3,1.9s1.9,1.8,3.1,3.1c3.2,3.7,4.9,7,4.9,9.9c0,1.3-0.3,2.4-0.8,3.3c-0.5,1-1.2,1.8-2,2.4
				c-0.8,0.6-1.8,1.1-2.8,1.5C453,47,452,47.2,450.9,47.2z M454.6,39.5c0-0.4-0.1-0.8-0.4-1.3s-0.6-1-1-1.5s-0.9-1.1-1.4-1.6
				s-1-1.1-1.5-1.6c-0.3,0.4-0.7,0.8-1.1,1.3s-0.7,1-1,1.5s-0.6,1.1-0.8,1.6c-0.2,0.6-0.3,1.1-0.3,1.6c0,0.3,0.2,0.6,0.4,0.8
				c0.3,0.2,0.6,0.4,1,0.5s0.8,0.2,1.2,0.3c0.4,0.1,0.8,0.1,1.1,0.1c0.4,0,0.8,0,1.2-0.1c0.4-0.1,0.8-0.2,1.2-0.3
				c0.4-0.1,0.7-0.3,0.9-0.5C454.4,40.1,454.6,39.8,454.6,39.5z"/>
			<path d="M471.9,35.9c0.3,0.9,0.6,1.9,0.8,2.8c0.2,1,0.4,1.9,0.6,2.9s0.2,1.9,0.2,2.7c0,1.2-0.2,2.3-0.5,3.5
				c-0.3,1.1-0.8,2.2-1.4,3.3s-1.3,2.1-2.1,3c-0.8,1-1.7,1.9-2.7,2.7c-1,0.9-2,1.7-3.1,2.4s-2.3,1.4-3.5,2l-3.4-4.8
				c0.9-0.5,1.8-1,2.7-1.5c0.9-0.6,1.8-1.2,2.7-1.8c0.8-0.7,1.6-1.3,2.4-2.1c0.7-0.7,1.4-1.4,1.9-2.2c0.5-0.7,1-1.5,1.3-2.2
				c0.3-0.8,0.5-1.5,0.5-2.2c0-0.5-0.1-1.1-0.2-1.7c-0.1-0.6-0.3-1.3-0.6-2c-0.3-0.7-0.5-1.5-0.9-2.3c-0.3-0.8-0.7-1.6-1.1-2.5
				l5.4-2.5C471.3,34.2,471.6,35,471.9,35.9z"/>
			<path d="M477.2,44c0.1-1.1,0.1-2.2,0.2-3.3s0.1-2.1,0.1-3.1s0-2,0-2.8c-0.1-1.8-0.1-3.3-0.2-4.7c-0.1-1.3-0.1-2.5-0.2-3.6
				c-0.1-1-0.1-2-0.2-2.7c-0.1-0.8-0.1-1.5-0.2-2.2s-0.2-1.3-0.2-1.8c-0.1-0.6-0.2-1.2-0.3-1.8l5.8-1.9c0.3,1.7,0.5,3.4,0.7,5.1
				s0.3,3.3,0.4,4.9s0.1,3,0.2,4.4c0,1.3,0,2.5,0,3.4s0,1.8,0,2.8s0,2,0,3.1s0,2.2-0.1,3.3c0,1.1-0.1,2.2-0.2,3.2l-5.8,0.9
				C477.1,46.2,477.1,45.1,477.2,44z"/>
			<path d="M484.9,54.6c1.8-0.4,3.4-0.8,4.8-1.3c1.5-0.5,2.7-1.1,3.8-1.8c1.1-0.7,2-1.4,2.7-2.1c0.7-0.7,1.2-1.5,1.5-2.3
				c-0.5,0-1.1,0-1.7,0s-1.1,0-1.5-0.1c-1.2-0.1-2.4-0.3-3.4-0.7s-1.9-0.9-2.6-1.5s-1.3-1.4-1.7-2.4c-0.4-0.9-0.6-2-0.6-3.2
				c0-0.8,0.1-1.5,0.2-2.4c0.2-0.8,0.4-1.6,0.7-2.4c0.3-0.8,0.7-1.5,1.1-2.2c0.5-0.7,1-1.3,1.6-1.8s1.2-0.9,1.9-1.2
				c0.7-0.3,1.4-0.4,2.2-0.4c1,0,1.8,0.2,2.6,0.5s1.5,0.8,2.2,1.4s1.3,1.3,1.8,2.1s1,1.6,1.4,2.6c0.4,0.9,0.7,1.9,0.9,2.8
				c0.2,1,0.4,1.9,0.5,2.9h0.8V47h-1.2c-0.5,1.8-1.3,3.5-2.3,5c-1.1,1.5-2.4,2.8-3.8,3.9c-1.5,1.1-3.2,2-5,2.8
				c-1.8,0.7-3.7,1.2-5.7,1.5L484.9,54.6z M494.1,34.9c-0.3-0.1-0.6,0-0.9,0.3c-0.3,0.2-0.7,0.5-0.9,0.9s-0.5,0.8-0.7,1.3
				s-0.3,0.9-0.3,1.4c0,0.4,0.2,0.8,0.4,1.1c0.3,0.3,0.6,0.5,1,0.7s0.9,0.3,1.4,0.4c0.5,0.1,1,0.2,1.6,0.2c0.5,0,1,0.1,1.4,0.1h1.2
				c-0.2-0.8-0.4-1.5-0.7-2.2c-0.3-0.7-0.6-1.4-0.9-1.9c-0.3-0.6-0.7-1-1.1-1.4C495.1,35.3,494.7,35,494.1,34.9z"/>
			<path d="M521.5,41.2v5.9h-17.8v-5.9H521.5z"/>
			<path d="M534.7,41.2v5.9h-0.4c-1.2,0-2.2-0.2-3.1-0.5c-0.8-0.3-1.6-0.8-2.2-1.4c-0.9,0.7-2,1.1-3.2,1.4c-1.2,0.3-2.7,0.5-4.4,0.5
				h-0.7v-5.9h0.7c1.7,0,3-0.3,3.9-0.8c0.9-0.6,1.3-1.4,1.3-2.5c0-0.4-0.1-0.9-0.2-1.6c-0.1-0.7-0.3-1.6-0.6-2.7l5.3-1.3
				c0.2,0.7,0.4,1.3,0.5,1.8s0.2,1,0.3,1.5c0.1,0.4,0.1,0.8,0.2,1.2s0.1,0.7,0.1,1.1c0,0.4,0.1,0.7,0.1,1.1c0.1,0.4,0.1,0.8,0.3,1.1
				c0.1,0.3,0.3,0.6,0.6,0.8s0.6,0.3,1,0.3C534.2,41.2,534.7,41.2,534.7,41.2z M526.7,29.2l-4.2-4.2l4.2-4.2l4.2,4.2L526.7,29.2z"/>
			<path d="M534.3,41.2c0.7,0,1.3-0.1,1.9-0.3c0.6-0.2,1.1-0.6,1.6-1.3c0.5-0.6,1-1.5,1.4-2.7c0.5-1.1,0.9-2.6,1.3-4.5l5,0.7
				c0,0.1,0,0.1-0.1,0.2c-0.1,0.3-0.2,0.8-0.3,1.3c-0.1,0.6-0.2,1.2-0.3,1.9s-0.1,1.4-0.1,2s0.1,1.2,0.2,1.7s0.4,0.8,0.8,0.8
				c0.4,0.1,0.8,0,1.1-0.2c0.4-0.3,0.7-0.6,1-1.1s0.6-1,0.9-1.7c0.3-0.6,0.5-1.3,0.8-2c0.2-0.7,0.4-1.3,0.6-2
				c0.2-0.7,0.3-1.2,0.4-1.7l5,0.7c0,0.3-0.1,0.7-0.1,1.3c-0.1,0.5-0.1,1.1-0.2,1.7c0,0.6-0.1,1.2,0,1.8c0,0.6,0.1,1.1,0.2,1.6
				c0.1,0.5,0.3,0.9,0.6,1.2s0.6,0.5,1.1,0.5c0.4,0,0.8-0.1,1.1-0.4c0.3-0.3,0.6-0.6,0.8-1.1c0.2-0.4,0.4-1,0.5-1.5
				c0.1-0.6,0.2-1.2,0.3-1.7c0.1-0.6,0.1-1.2,0.1-1.7c0-0.6,0-1.1-0.1-1.5l5.1-0.7l0.6,5.3c0.1,0.6,0.2,1.1,0.5,1.5s0.5,0.8,0.9,1.1
				c0.3,0.3,0.7,0.5,1.1,0.6c0.4,0.1,0.7,0.2,1.1,0.2h0.6v5.9H569c-1.2,0-2.4-0.2-3.4-0.6c-1.1-0.4-2-1.1-2.8-2.2
				c-0.1,0.1-0.2,0.2-0.2,0.3c-0.1,0.1-0.1,0.2-0.2,0.2l0,0c-0.7,0.7-1.5,1.3-2.3,1.7s-1.8,0.6-2.9,0.6c-1.1,0-2.2-0.2-3.2-0.7
				s-1.8-1.2-2.4-2c-0.8,0.8-1.6,1.5-2.6,2s-2,0.8-3.1,0.8s-2.1-0.2-3-0.7s-1.7-1.1-2.3-2c-0.7,0.9-1.5,1.6-2.5,2s-2.2,0.6-3.7,0.6
				H534v-5.9C534,41.2,534.3,41.2,534.3,41.2z M545.6,33.2L545.6,33.2C545.6,33.1,545.6,33.1,545.6,33.2z M553.1,25.2l-3.5,3.5
				l-3.7-3.6l3.6-3.6l3.6,3.6l3.5-3.5l3.7,3.6l-3.6,3.6L553.1,25.2z M556.5,19.7l-3.3,3.3l-3.4-3.4l3.3-3.3L556.5,19.7z"/>
			<path d="M568.8,41.2h4c2,0,3.9-0.1,5.6-0.4c1.7-0.2,3.3-0.6,4.8-1s2.9-0.9,4.2-1.4s2.6-1.1,3.9-1.7c-0.9-0.2-1.7-0.5-2.6-0.9
				c-0.9-0.4-1.7-0.7-2.6-1c-0.9-0.3-1.7-0.6-2.6-0.8c-0.9-0.2-1.7-0.3-2.5-0.3c-0.6,0-1.1,0.2-1.7,0.5c-0.6,0.3-1.1,0.7-1.5,1.1
				c-0.5,0.4-0.8,0.8-1.1,1.2s-0.5,0.6-0.6,0.8l-4.3-2.8c0.5-0.8,1-1.7,1.7-2.5s1.4-1.5,2.2-2.1s1.6-1.1,2.5-1.5s1.9-0.6,2.9-0.6
				c0.7,0,1.5,0.1,2.2,0.2c0.7,0.2,1.5,0.4,2.2,0.6c0.7,0.3,1.5,0.5,2.2,0.9c0.7,0.3,1.4,0.6,2.1,1c0.7,0.3,1.3,0.6,2,0.9
				s1.4,0.6,2.1,0.8c0.7,0.3,1.5,0.5,2.2,0.6c0.8,0.2,1.6,0.3,2.4,0.3l-0.5,5.8l-2.7,1.3c-1.1,0.5-2.2,1.1-3.3,1.6
				c-1.1,0.6-2.2,1.1-3.3,1.6s-2.3,1-3.5,1.5s-2.4,0.9-3.7,1.2s-2.7,0.6-4.1,0.8c-1.5,0.2-3,0.3-4.7,0.3h-4L568.8,41.2L568.8,41.2z
				 M584.3,57.4l-4.2-4.2l4.2-4.2l4.2,4.2L584.3,57.4z"/>
		</g>
	</g>
	<g>
		<g>
			<path class="st0" d="M68.3,24.7c0.2,0.4,0.4,0.9,0.7,1.4c0.3,0.6,0.5,1.2,0.8,1.9c0.3,0.7,0.5,1.4,0.8,2.2
				c0.2,0.8,0.4,1.5,0.6,2.3c0.1,0.8,0.2,1.6,0.2,2.3c0,1.2-0.2,2.4-0.6,3.5s-0.9,2-1.6,2.8s-1.5,1.4-2.6,1.9
				c-1,0.5-2.2,0.7-3.5,0.7c-1.2,0-2.1-0.2-2.8-0.6c-0.7-0.4-1.3-0.9-1.8-1.6c-0.3,0.3-0.5,0.6-0.8,0.9s-0.7,0.5-1.1,0.7
				c-0.4,0.2-0.9,0.3-1.4,0.4c-0.5,0.1-1.2,0.2-1.9,0.2c-0.5,0-1,0-1.4-0.1s-0.8-0.2-1.2-0.3c0,1.5-0.2,2.8-0.7,4
				c-0.4,1.2-1,2.3-1.8,3.2c-0.7,1-1.6,1.8-2.6,2.5s-2.1,1.3-3.2,1.7c-1.2,0.5-2.4,0.8-3.6,1C37.5,55.9,36.3,56,35,56
				c-1.9,0-3.7-0.3-5.3-1c-1.6-0.6-3-1.5-4.2-2.7c-1.2-1.1-2.1-2.5-2.8-4.1c-0.7-1.6-1-3.4-1-5.3c0-1.1,0.2-2.3,0.5-3.5
				s0.6-2.3,1-3.5c0.4-1.1,0.9-2.2,1.4-3.2s1.1-1.9,1.6-2.8l4.1,3.2c-0.5,0.7-0.9,1.5-1.3,2.4c-0.4,0.8-0.8,1.7-1.1,2.5
				c-0.3,0.9-0.6,1.7-0.8,2.6c-0.2,0.9-0.3,1.7-0.3,2.5c0,1,0.2,1.9,0.6,2.7s1,1.6,1.7,2.2c0.7,0.6,1.6,1.1,2.6,1.5s2.1,0.5,3.2,0.5
				c1.3,0,2.5-0.1,3.6-0.4c1.1-0.2,2.1-0.6,2.9-1c0.8-0.4,1.6-0.9,2.1-1.5c0.6-0.6,1-1.3,1.2-2l0,0c0.3-1,0.5-2.1,0.5-3.2
				c0-0.8-0.1-1.7-0.4-2.6c-0.2-0.9-0.5-1.7-0.9-2.6c-0.4-0.9-0.8-1.8-1.3-2.7s-0.9-1.8-1.3-2.7l5.2-2.9c0.3,0.7,0.7,1.5,1,2.2
				c0.3,0.8,0.7,1.5,1,2.2s0.7,1.3,1,1.9c0.4,0.6,0.7,1.1,1.1,1.5c0.4,0.4,0.8,0.7,1.2,1c0.4,0.2,0.8,0.3,1.3,0.2s1-0.3,1.3-0.6
				s0.6-0.7,0.7-1.1c0.2-0.4,0.3-0.9,0.3-1.5c0-0.5,0.1-1.1,0-1.7c0-0.6-0.1-1.1-0.1-1.7c-0.1-0.6-0.1-1.1-0.1-1.5l5.2-0.7
				c0.1,0.4,0.2,0.9,0.2,1.4c0.1,0.5,0.1,1.1,0.2,1.7c0.1,0.6,0.2,1.2,0.3,1.8c0.1,0.6,0.3,1.2,0.5,1.7s0.5,1,0.8,1.4
				s0.7,0.7,1.2,0.8c0.4,0,0.8-0.1,1.1-0.2c0.3-0.1,0.6-0.4,0.9-0.6c0.3-0.3,0.4-0.6,0.6-1c0.1-0.4,0.2-0.9,0.2-1.4s-0.1-1-0.3-1.6
				c-0.2-0.6-0.4-1.2-0.7-1.9c-0.3-0.7-0.6-1.4-1-2.2c-0.4-0.8-0.8-1.5-1.2-2.3l4.8-2.7C68,24,68.1,24.3,68.3,24.7z"/>
			<path class="st0" d="M83.2,32.5c0.3,0.9,0.6,1.9,0.8,2.8c0.2,1,0.4,1.9,0.6,2.9s0.2,1.9,0.2,2.7c0,1.2-0.2,2.3-0.5,3.5
				s-0.8,2.2-1.4,3.3s-1.3,2.1-2.1,3c-0.8,1-1.7,1.9-2.7,2.7c-1,0.9-2,1.7-3.1,2.4s-2.3,1.4-3.5,2L68.3,53c0.9-0.5,1.8-1,2.7-1.5
				s1.8-1.2,2.7-1.8c0.8-0.7,1.6-1.3,2.4-2.1c0.7-0.7,1.4-1.4,1.9-2.2c0.5-0.7,1-1.5,1.3-2.2c0.3-0.8,0.5-1.5,0.5-2.2
				c0-0.5-0.1-1.1-0.2-1.7c-0.1-0.6-0.3-1.3-0.6-2c-0.3-0.7-0.5-1.5-0.9-2.3c-0.3-0.8-0.7-1.6-1.1-2.5l5.4-2.5
				C82.7,30.7,82.9,31.5,83.2,32.5z"/>
			<path class="st0" d="M90.5,35.9c0.7,0.3,1.4,0.6,2.2,0.9c0.7,0.3,1.5,0.5,2.2,0.7s1.3,0.3,1.8,0.3c0.3,0,0.7,0,1.2-0.1
				c0.5,0,1-0.1,1.5-0.3c0.5-0.1,0.9-0.3,1.3-0.6s0.6-0.6,0.6-1c0-0.5-0.1-1-0.4-1.7c-0.3-0.6-0.7-1.3-1.2-1.9s-1.1-1.3-1.8-2
				c-0.7-0.7-1.4-1.3-2.1-2c-0.7-0.6-1.5-1.2-2.2-1.8s-1.4-1-2-1.4l3.3-4.9c1.2,0.9,2.4,1.8,3.6,2.9s2.3,2.2,3.3,3.4
				c1,1.2,1.9,2.4,2.6,3.7c0.7,1.3,1.3,2.5,1.6,3.8c0.1,0.4,0.2,0.7,0.2,1.1c0,0.4,0.1,0.7,0.1,1.1c0,1.2-0.2,2.2-0.7,3.2
				s-1.1,1.8-1.9,2.5s-1.8,1.3-2.9,1.6c-1.1,0.4-2.4,0.6-3.7,0.6c-0.1,0-0.2,0-0.3,0c-0.1,0-0.2,0-0.3,0c-0.9,0-1.8-0.1-2.7-0.3
				c-0.9-0.2-1.8-0.4-2.7-0.7c-0.9-0.3-1.7-0.7-2.6-1.1c-0.8-0.4-1.6-0.8-2.3-1.3l2.5-5.7C89.1,35.3,89.8,35.6,90.5,35.9z"/>
			<path class="st0" d="M109.8,40.6c0.1-1.1,0.1-2.2,0.2-3.3c0-1.1,0.1-2.1,0.1-3.1s0-2,0-2.8c-0.1-1.8-0.1-3.3-0.2-4.7
				c-0.1-1.3-0.1-2.5-0.2-3.6c-0.1-1-0.1-2-0.2-2.7c-0.1-0.8-0.1-1.5-0.2-2.2s-0.2-1.3-0.2-1.8c-0.1-0.6-0.2-1.2-0.3-1.8l5.8-1.9
				c0.3,1.7,0.5,3.4,0.7,5.1c0.2,1.7,0.3,3.3,0.4,4.9s0.1,3,0.2,4.4c0,1.3,0,2.5,0,3.4s0,1.8,0,2.8s0,2,0,3.1s0,2.2-0.1,3.3
				c0,1.1-0.1,2.2-0.2,3.2l-5.8,0.9C109.6,42.7,109.7,41.7,109.8,40.6z"/>
			<path class="st0" d="M132.3,43.7c-0.3,0-0.6,0-1.1-0.1s-1-0.2-1.5-0.4c-0.3,1.6-0.8,3-1.6,4.4s-1.7,2.7-2.8,3.9
				c-1.1,1.2-2.4,2.3-3.8,3.4c-1.4,1-3,2-4.6,2.8l-3.4-4.8c0.9-0.5,1.8-0.9,2.7-1.5c0.9-0.5,1.8-1.1,2.6-1.7
				c0.8-0.6,1.6-1.2,2.3-1.9c0.7-0.6,1.3-1.3,1.9-2c0.5-0.7,0.9-1.4,1.2-2.1c0.3-0.7,0.5-1.5,0.5-2.2c0-0.5-0.1-1.1-0.3-1.9
				s-0.4-1.6-0.7-2.4c-0.3-0.9-0.6-1.7-1-2.6c-0.4-0.9-0.7-1.7-1-2.4l5.4-2.4c0.5,1.5,1,2.8,1.4,3.8c0.5,1,0.9,1.8,1.3,2.4
				c0.4,0.6,0.8,1,1.2,1.3c0.4,0.2,0.8,0.4,1.2,0.4h0.5v5.9L132.3,43.7L132.3,43.7z"/>
			<path class="st0" d="M149.8,37.8v5.9H132v-5.9H149.8z"/>
			<path class="st0" d="M149.7,37.8c0.5,0,1,0,1.7,0s1.4,0,2.1-0.1c0.7,0,1.5-0.1,2.3-0.1s1.5-0.2,2.2-0.3s1.4-0.3,1.9-0.5
				c0.6-0.2,1.1-0.4,1.4-0.7c-1.6,0.2-3.2,0.2-4.5,0.1c-1.4-0.1-2.6-0.3-3.6-0.8s-1.8-1.1-2.3-2c-0.6-0.9-0.8-2.1-0.9-3.6
				c0-0.7,0.1-1.4,0.2-2.1c0.1-0.7,0.3-1.5,0.6-2.2s0.6-1.4,1-2s0.9-1.2,1.4-1.7s1.2-0.9,1.8-1.1c0.7-0.3,1.4-0.4,2.2-0.4
				c1,0,1.9,0.2,2.7,0.6s1.6,0.9,2.2,1.5c0.7,0.6,1.2,1.4,1.7,2.2c0.5,0.9,0.9,1.7,1.2,2.7c0.3,0.9,0.6,1.9,0.7,2.9
				c0.2,1,0.2,1.9,0.2,2.8c0,1.5-0.2,2.8-0.6,3.9c-0.4,1.1-1,2.1-1.8,2.9c-0.8,0.8-1.6,1.4-2.7,1.9c-1,0.5-2.2,0.9-3.4,1.2
				s-2.5,0.5-3.9,0.6s-2.8,0.2-4.2,0.2H149v-5.9C149,37.8,149.7,37.8,149.7,37.8z M157.3,18.4l-4.2-4.2l4.2-4.2l4.2,4.2L157.3,18.4z
				 M157.4,26.3c-0.3,0-0.6,0.1-0.9,0.3c-0.3,0.2-0.6,0.4-0.8,0.7c-0.3,0.3-0.5,0.6-0.6,1c-0.2,0.4-0.3,0.8-0.3,1.2
				c0,0.4,0.1,0.7,0.3,0.9c0.2,0.2,0.5,0.4,0.9,0.6c0.4,0.1,0.8,0.2,1.2,0.3c0.5,0.1,0.9,0.1,1.4,0.1c0.4,0,0.9,0,1.3,0
				c0.4,0,0.7,0,0.9-0.1c-0.1-0.6-0.3-1.1-0.4-1.7s-0.4-1.1-0.7-1.6s-0.6-0.9-1-1.2C158.3,26.5,157.9,26.3,157.4,26.3z"/>
			<path class="st0" d="M189.3,43.7c-1,0-2-0.2-3.1-0.5c-1-0.4-2-0.9-2.8-1.5c-0.8-0.7-1.5-1.5-2.1-2.4c-0.5-0.9-0.8-2-0.8-3.2
				c0-2.5,1.1-5.1,3.3-7.8c0.2-0.2,0.3-0.4,0.4-0.5c0.1-0.1,0.2-0.3,0.3-0.4s0.2-0.2,0.3-0.3l0.3-0.3l-1.1-1l3.7-4.6
				c0.6,0.5,1.4,1.1,2.3,1.9c0.9,0.8,1.9,1.8,3.1,3.1c3.2,3.7,4.9,7,4.9,9.9c0,1.3-0.3,2.4-0.8,3.3c-0.5,1-1.2,1.8-2,2.4
				c-0.8,0.6-1.8,1.1-2.8,1.5C191.5,43.5,190.4,43.7,189.3,43.7z M193,36c0-0.4-0.1-0.8-0.4-1.3c-0.3-0.5-0.6-1-1-1.5
				s-0.9-1.1-1.4-1.6c-0.5-0.5-1-1.1-1.5-1.6c-0.3,0.4-0.7,0.8-1.1,1.3c-0.4,0.5-0.7,1-1,1.5s-0.6,1.1-0.8,1.6
				c-0.2,0.6-0.3,1.1-0.3,1.6c0,0.3,0.2,0.6,0.4,0.8c0.3,0.2,0.6,0.4,1,0.5s0.8,0.2,1.2,0.3s0.8,0.1,1.1,0.1c0.4,0,0.8,0,1.2-0.1
				s0.8-0.2,1.2-0.3s0.7-0.3,0.9-0.5C192.9,36.6,193,36.4,193,36z"/>
			<path class="st0" d="M210.3,32.5c0.3,0.9,0.6,1.9,0.8,2.8c0.2,1,0.4,1.9,0.6,2.9c0.2,1,0.2,1.9,0.2,2.7c0,1.2-0.2,2.3-0.5,3.5
				c-0.3,1.1-0.8,2.2-1.4,3.3c-0.6,1.1-1.3,2.1-2.1,3c-0.8,1-1.7,1.9-2.7,2.7c-1,0.9-2,1.7-3.1,2.4s-2.3,1.4-3.5,2l-3.4-4.8
				c0.9-0.5,1.8-1,2.7-1.5s1.8-1.2,2.7-1.8c0.8-0.7,1.6-1.3,2.4-2.1c0.7-0.7,1.4-1.4,1.9-2.2c0.5-0.7,1-1.5,1.3-2.2
				c0.3-0.8,0.5-1.5,0.5-2.2c0-0.5-0.1-1.1-0.2-1.7c-0.1-0.6-0.3-1.3-0.6-2s-0.5-1.5-0.9-2.3c-0.3-0.8-0.7-1.6-1.1-2.5l5.4-2.5
				C209.7,30.7,210,31.5,210.3,32.5z"/>
			<path class="st0" d="M224.3,43.7c-1.6,0-2.9-0.2-4-0.6c-1.1-0.4-2-1-2.7-1.7s-1.2-1.6-1.5-2.6s-0.5-2.1-0.5-3.3
				c0-0.6,0-1.4,0-2.2c0-0.9,0-1.9,0-3.1s0-2.5,0-3.9s0-2.8-0.1-4.2c-0.1-1.4-0.1-2.8-0.2-4.1c-0.1-1.3-0.3-2.4-0.4-3.4l5.6-1.7
				c0.2,0.8,0.3,1.8,0.4,2.9s0.2,2.3,0.3,3.5s0.1,2.5,0.1,3.7s0.1,2.4,0.1,3.5c0,0.9,0,1.9,0,3c0,1-0.1,2-0.1,3c0,0.9,0,1.8,0,2.6
				s0.2,1.3,0.3,1.7c0.1,0.3,0.3,0.5,0.4,0.7c0.2,0.2,0.4,0.3,0.6,0.3c0.2,0.1,0.5,0.1,0.7,0.1c0.3,0,0.6,0,0.9,0h0.5v5.9h-0.4
				L224.3,43.7L224.3,43.7z"/>
			<path class="st0" d="M241.9,37.8v5.9h-17.8v-5.9H241.9z"/>
			<path class="st0" d="M241.2,37.8h1.3c0-0.8,0.2-1.7,0.4-2.7s0.5-2,0.9-2.9c0.4-1,0.8-1.9,1.3-2.9c0.5-0.9,1.1-1.7,1.7-2.5
				c0.6-0.7,1.3-1.3,2-1.8s1.5-0.7,2.3-0.8c0.8,0,1.6,0.2,2.3,0.7s1.3,1.1,1.8,1.8c0.5,0.7,0.9,1.6,1.2,2.5s0.4,1.9,0.4,2.9
				c0,1.1-0.2,2.3-0.7,3.3c-0.5,1.1-1.1,2.1-1.9,3c-0.8,0.9-1.7,1.8-2.7,2.5s-2,1.4-3.1,1.8c0.1,0.3,0.3,0.7,0.6,1.1
				c0.3,0.4,0.6,0.8,1,1.3c0.4,0.4,0.7,0.8,1.1,1.2c0.4,0.4,0.7,0.7,0.9,0.9c0-0.7,0.1-1.5,0.3-2.2c0.2-0.8,0.5-1.5,1-2.2
				c0.4-0.7,0.9-1.4,1.4-2c0.6-0.6,1.1-1.2,1.8-1.6c0.6-0.5,1.3-0.8,2-1.1s1.3-0.4,2-0.4h0.9v5.9h-1c-0.6,0-1.1,0.1-1.6,0.4
				c-0.5,0.3-1,0.7-1.4,1.1c-0.4,0.5-0.7,1-1,1.6c-0.2,0.6-0.4,1.1-0.4,1.7c0,0.3,0,0.5,0.1,0.7c0,0.2,0.1,0.4,0.2,0.7
				c0.1,0.2,0.2,0.5,0.4,0.7c0.2,0.3,0.4,0.5,0.6,0.8l-3.4,4.2c-1.5-0.9-2.8-1.9-4-2.8c-1.1-1-2.1-1.9-3-2.9c-0.8-1-1.5-2-2.1-3
				s-1-2.1-1.4-3.1H241v-5.9H241.2z M252.3,33c0-0.4,0-0.7,0-1.1s-0.1-0.8-0.2-1.1c-0.1-0.4-0.2-0.7-0.4-1s-0.4-0.5-0.6-0.7
				c-0.2,0.1-0.5,0.4-0.8,0.7c-0.3,0.4-0.6,0.8-0.9,1.3c-0.3,0.5-0.6,1-0.8,1.6c-0.3,0.6-0.5,1.2-0.7,1.8s-0.4,1.2-0.5,1.8
				s-0.2,1.1-0.2,1.6c0.5-0.1,1.1-0.3,1.7-0.6c0.6-0.3,1.1-0.7,1.6-1.1s0.9-0.9,1.3-1.5C252,34.1,252.2,33.5,252.3,33z"/>
			<path class="st0" d="M260.7,37.8h2.5c0.5,0,1.1,0,1.7-0.1s1.2-0.2,1.8-0.4c0.5-0.2,1-0.5,1.4-0.8s0.6-0.7,0.6-1.2
				c0-0.3-0.1-0.7-0.3-1.3c-0.2-0.6-0.4-1.3-0.7-2c-0.3-0.7-0.6-1.5-1-2.3s-0.7-1.6-1.1-2.3l5.4-2.7c0.4,0.8,0.7,1.6,1,2.5
				s0.7,1.8,0.9,2.7c0.3,0.9,0.5,1.8,0.7,2.7s0.3,1.8,0.3,2.6c0,1.5-0.3,2.8-0.8,3.9c-0.5,1.1-1.2,2-2.1,2.7s-2,1.2-3.2,1.5
				c-1.3,0.3-2.6,0.5-4.1,0.5h-3L260.7,37.8L260.7,37.8z M266.7,54l-4.2-4.2l4.2-4.2l4.2,4.2L266.7,54z"/>
			<path class="st0" d="M305.7,43.7c-1.1,0-2.3,0-3.6-0.1c-1.3-0.1-2.6-0.3-3.9-0.5c-1.3-0.3-2.5-0.6-3.8-1.1
				c-1.2-0.5-2.3-1.1-3.2-1.9c-0.9-0.8-1.7-1.7-2.3-2.8c-0.6-1.1-0.9-2.4-1-3.9c0-0.7,0.1-1.5,0.2-2.2c0.2-0.7,0.4-1.4,0.6-2
				c0.3-0.7,0.6-1.3,0.9-2c0.3-0.6,0.7-1.3,1.1-1.9l4.4,3.7c-0.2,0.3-0.4,0.6-0.7,1c-0.3,0.4-0.5,0.9-0.7,1.3
				c-0.2,0.5-0.4,0.9-0.6,1.4s-0.2,0.9-0.2,1.2c0,0.5,0.2,0.9,0.5,1.3c0.3,0.4,0.8,0.7,1.4,1s1.3,0.5,2.1,0.7
				c0.8,0.2,1.7,0.4,2.6,0.5s1.9,0.2,3,0.3c1,0.1,2.1,0.1,3.2,0.1c0.5,0,1,0,1.6,0s1.1,0,1.6,0s0.9,0,1.3,0s0.6,0,0.8,0
				c-0.5-0.5-0.9-1.1-1.2-1.9c-0.4-0.7-0.6-1.6-0.6-2.5c0-0.7,0.1-1.5,0.2-2.2c0.2-0.8,0.4-1.5,0.8-2.2s0.8-1.4,1.3-2
				s1.1-1.2,1.7-1.6c0.6-0.5,1.3-0.8,2-1.1c0.7-0.2,1.4-0.4,2.2-0.3c1.1,0.1,2.1,0.3,3,0.8s1.8,1.2,2.4,2c0.7,0.8,1.2,1.7,1.6,2.8
				c0.4,1,0.6,2.1,0.6,3.2c0,0.9-0.1,1.7-0.4,2.5s-0.7,1.6-1.1,2.4c0.6,0.1,1.2,0.1,1.8,0.2c0.6,0,1.1,0.1,1.6,0.1h0.6v5.9H327
				c-0.8,0-1.6,0-2.4,0s-1.6-0.1-2.5-0.2c-0.8-0.1-1.6-0.3-2.4-0.5s-1.6-0.5-2.3-0.8c-0.3,0.2-0.7,0.3-1.2,0.5
				c-0.5,0.1-1.1,0.3-1.8,0.4c-0.7,0.1-1.4,0.2-2.1,0.3c-0.8,0.1-1.5,0.2-2.3,0.2c-0.8,0.1-1.5,0.1-2.3,0.1
				C307,43.7,306.3,43.7,305.7,43.7z M318.2,20.8l-4.2-4.2l4.2-4.2l4.2,4.2L318.2,20.8z M320.1,33c0-0.4-0.1-0.8-0.3-1.1
				c-0.2-0.4-0.4-0.7-0.7-1c-0.3-0.3-0.6-0.5-0.9-0.7s-0.6-0.3-0.9-0.4c-0.3,0.1-0.6,0.2-1,0.3c-0.4,0.2-0.7,0.4-1.1,0.7
				c-0.3,0.3-0.6,0.7-0.8,1.1c-0.2,0.4-0.3,0.9-0.3,1.5c0,0.2,0.1,0.4,0.3,0.8c0.2,0.3,0.4,0.7,0.8,1c0.3,0.3,0.7,0.7,1.1,1
				s0.8,0.5,1.2,0.6c0.3-0.2,0.6-0.4,1-0.7c0.3-0.3,0.6-0.6,0.9-1c0.3-0.3,0.5-0.7,0.6-1.1C320.1,33.6,320.1,33.3,320.1,33z"/>
			<path class="st0" d="M344.7,37.8v5.9h-17.8v-5.9H344.7z"/>
			<path class="st0" d="M360.7,37.8v5.9h-0.4c-0.6,0-1.2-0.1-1.8-0.2c-0.6-0.1-1.1-0.2-1.6-0.4s-1-0.4-1.4-0.6
				c-0.4-0.3-0.8-0.5-1.1-0.8c-0.6,0.5-1.3,0.8-2,1.1c-0.8,0.3-1.6,0.5-2.4,0.6s-1.7,0.2-2.6,0.3c-0.9,0-1.8,0.1-2.6,0.1h-0.7v-5.9
				h0.7c0.9,0,1.7,0,2.4-0.1c0.7,0,1.3-0.1,1.9-0.3c0.5-0.1,1-0.3,1.3-0.5c0.4-0.2,0.7-0.5,0.9-0.8c0.3-0.4,0.5-0.8,0.5-1.3
				c0.1-0.5,0.1-1,0-1.5s-0.2-1-0.3-1.6c-0.1-0.5-0.3-1-0.4-1.5l5.5-1.6c0.2,0.6,0.3,1.1,0.4,1.5c0.1,0.5,0.2,0.9,0.3,1.4
				c0.1,0.4,0.2,0.9,0.2,1.3c0.1,0.5,0.1,0.9,0.2,1.5c0,0.3,0.1,0.7,0.2,1.1c0.1,0.4,0.2,0.8,0.4,1.1c0.2,0.3,0.4,0.6,0.8,0.8
				c0.3,0.2,0.8,0.3,1.3,0.3h0.3L360.7,37.8L360.7,37.8z M351.2,49.2l-3.5,3.5l-3.6-3.6l3.6-3.6l3.6,3.6l3.5-3.5l3.6,3.6l-3.6,3.6
				L351.2,49.2z"/>
			<path class="st0" d="M359.9,37.8h1.4c0.3,0,0.6,0,0.9,0s0.6,0,0.8-0.1c0.3,0,0.5-0.1,0.6-0.1c-0.2-0.3-0.4-0.5-0.7-0.8
				c-0.2-0.3-0.4-0.6-0.6-1s-0.3-0.7-0.4-1.1c-0.1-0.4-0.2-0.8-0.2-1.3c0-0.7,0.1-1.5,0.2-2.2c0.2-0.8,0.4-1.5,0.8-2.2
				s0.8-1.4,1.3-2s1.1-1.2,1.7-1.6c0.6-0.5,1.3-0.8,2-1.1c0.7-0.2,1.4-0.4,2.2-0.3c1.1,0.1,2.1,0.3,3,0.8s1.8,1.2,2.4,2
				c0.7,0.8,1.2,1.7,1.6,2.8c0.4,1,0.6,2.1,0.6,3.2c0,0.9-0.1,1.7-0.4,2.5s-0.7,1.6-1.1,2.4c0.3,0.1,0.7,0.1,1.2,0.2
				c0.5,0,1.1,0.1,1.8,0.1h0.4v5.9h-0.7c-0.8,0-1.6,0-2.3-0.1c-0.7,0-1.5-0.1-2.2-0.2c-0.7-0.1-1.4-0.3-2.1-0.5s-1.4-0.4-2.2-0.8
				c-0.5,0.3-1,0.5-1.7,0.7s-1.5,0.4-2.3,0.5s-1.7,0.2-2.6,0.3s-1.8,0.1-2.7,0.1h-0.7L359.9,37.8L359.9,37.8z M369.6,21.2l-4.2-4.2
				l4.2-4.2l4.2,4.2L369.6,21.2z M372.7,33c0-0.4-0.1-0.8-0.3-1.1c-0.2-0.4-0.4-0.7-0.7-1s-0.6-0.5-0.9-0.7s-0.6-0.3-0.9-0.4
				c-0.3,0.1-0.6,0.2-1,0.3c-0.4,0.2-0.7,0.4-1.1,0.7c-0.3,0.3-0.6,0.7-0.8,1.1c-0.2,0.4-0.3,0.9-0.3,1.5c0,0.2,0.1,0.4,0.3,0.8
				c0.2,0.3,0.4,0.7,0.8,1c0.3,0.3,0.7,0.7,1.1,1s0.8,0.5,1.2,0.6c0.3-0.2,0.6-0.4,1-0.7c0.3-0.3,0.6-0.6,0.9-1
				c0.3-0.3,0.5-0.7,0.6-1.1C372.6,33.6,372.7,33.3,372.7,33z"/>
			<path class="st0" d="M378.8,37.8h3.8c0.9,0,1.9-0.1,2.9-0.2c1-0.1,2.1-0.3,3.1-0.5c1.1-0.2,2.1-0.5,3.2-0.8s2.1-0.6,3.2-1
				c1-0.3,2-0.7,2.9-1.1c0.9-0.4,1.8-0.8,2.6-1.1c-0.8-0.2-1.6-0.5-2.6-0.8s-1.9-0.7-2.9-1s-1.9-0.6-2.9-0.8
				c-0.9-0.2-1.7-0.3-2.5-0.3c-0.5,0-0.9,0.1-1.3,0.3c-0.4,0.2-0.8,0.4-1.2,0.7c-0.4,0.3-0.7,0.6-1,0.9c-0.3,0.3-0.5,0.6-0.8,0.9
				c-0.2,0.3-0.4,0.5-0.5,0.7l-0.2,0.3l-4.5-2.6c0.5-0.9,1.1-1.8,1.8-2.7c0.7-0.9,1.5-1.6,2.3-2.3c0.8-0.7,1.7-1.2,2.6-1.6
				s1.8-0.6,2.7-0.6c0.7,0,1.4,0.1,2,0.2c0.7,0.2,1.3,0.3,2,0.6c0.7,0.2,1.4,0.5,2.1,0.8s1.4,0.6,2.1,1s1.5,0.7,2.4,1
				s1.8,0.6,2.7,0.9c0.9,0.3,1.9,0.5,2.9,0.6c1,0.2,1.9,0.2,2.9,0.2l-1,5.6c-0.3,0.1-0.6,0.3-1,0.4c-0.4,0.2-0.7,0.3-1,0.5l-0.5,0.2
				c0.3,0.3,0.7,0.6,1.1,0.8s0.9,0.3,1.4,0.4s0.9,0.2,1.3,0.2s0.8,0,1,0h0.6v5.9h-0.6c-1.2,0-2.3-0.1-3.4-0.3s-2-0.5-2.9-0.9
				s-1.6-0.9-2.3-1.5c-0.7-0.6-1.2-1.2-1.7-2c-1.2,0.6-2.5,1.2-3.9,1.7c-1.3,0.6-2.7,1.1-4.2,1.5c-1.4,0.4-2.9,0.8-4.5,1.1
				c-1.5,0.3-3.2,0.4-4.8,0.4h-3.8v-5.7L378.8,37.8L378.8,37.8z M389.4,22.3l-4.2-4.2l4.2-4.2l4.2,4.2L389.4,22.3z"/>
			<path class="st0" d="M410.1,37.8h4.5c0.5,0,1.1,0,1.8-0.1c0.7-0.1,1.3-0.2,1.8-0.3c0.6-0.2,1-0.4,1.4-0.8
				c0.4-0.3,0.6-0.8,0.6-1.4c0-0.3-0.1-0.7-0.3-1.3c-0.2-0.6-0.4-1.3-0.7-2c-0.3-0.7-0.6-1.5-1-2.3s-0.7-1.6-1.1-2.3l5.4-2.7
				c0.4,0.8,0.7,1.6,1,2.5s0.7,1.8,0.9,2.7c0.3,0.9,0.5,1.8,0.7,2.7s0.3,1.8,0.3,2.6c0,1.6-0.3,2.9-0.9,4s-1.3,2-2.3,2.7
				s-2.1,1.2-3.4,1.5s-2.7,0.5-4.2,0.5h-4.5L410.1,37.8L410.1,37.8z M418.9,18.4l-3.5,3.5l-3.6-3.6l3.6-3.6l3.6,3.6l3.5-3.5l3.6,3.6
				l-3.6,3.6L418.9,18.4z"/>
			<path class="st0" d="M448.6,43.7c-1,0-2-0.2-3.1-0.5c-1-0.4-2-0.9-2.8-1.5c-0.8-0.7-1.5-1.5-2.1-2.4c-0.5-0.9-0.8-2-0.8-3.2
				c0-2.5,1.1-5.1,3.3-7.8c0.2-0.2,0.3-0.4,0.4-0.5s0.2-0.3,0.3-0.4c0.1-0.1,0.2-0.2,0.3-0.3l0.3-0.3l-1.1-1l3.7-4.6
				c0.6,0.5,1.4,1.1,2.3,1.9s1.9,1.8,3.1,3.1c3.2,3.7,4.9,7,4.9,9.9c0,1.3-0.3,2.4-0.8,3.3c-0.5,1-1.2,1.8-2,2.4
				c-0.8,0.6-1.8,1.1-2.8,1.5C450.7,43.5,449.7,43.7,448.6,43.7z M452.2,36c0-0.4-0.1-0.8-0.4-1.3s-0.6-1-1-1.5s-0.9-1.1-1.4-1.6
				c-0.5-0.5-1-1.1-1.5-1.6c-0.3,0.4-0.7,0.8-1.1,1.3s-0.7,1-1,1.5s-0.6,1.1-0.8,1.6c-0.2,0.6-0.3,1.1-0.3,1.6
				c0,0.3,0.2,0.6,0.4,0.8c0.3,0.2,0.6,0.4,1,0.5s0.8,0.2,1.2,0.3c0.4,0.1,0.8,0.1,1.1,0.1c0.4,0,0.8,0,1.2-0.1
				c0.4-0.1,0.8-0.2,1.2-0.3c0.4-0.1,0.7-0.3,0.9-0.5C452.1,36.6,452.2,36.4,452.2,36z"/>
			<path class="st0" d="M469.6,32.5c0.3,0.9,0.6,1.9,0.8,2.8s0.4,1.9,0.6,2.9s0.2,1.9,0.2,2.7c0,1.2-0.2,2.3-0.5,3.5
				c-0.3,1.1-0.8,2.2-1.4,3.3s-1.3,2.1-2.1,3c-0.8,1-1.7,1.9-2.7,2.7c-1,0.9-2,1.7-3.1,2.4s-2.3,1.4-3.5,2l-3.4-4.8
				c0.9-0.5,1.8-1,2.7-1.5c0.9-0.6,1.8-1.2,2.7-1.8c0.8-0.7,1.6-1.3,2.4-2.1c0.7-0.7,1.4-1.4,1.9-2.2c0.5-0.7,1-1.5,1.3-2.2
				c0.3-0.8,0.5-1.5,0.5-2.2c0-0.5-0.1-1.1-0.2-1.7c-0.1-0.6-0.3-1.3-0.6-2c-0.3-0.7-0.5-1.5-0.9-2.3c-0.3-0.8-0.7-1.6-1.1-2.5
				l5.4-2.5C469,30.7,469.3,31.5,469.6,32.5z"/>
			<path class="st0" d="M474.9,40.6c0.1-1.1,0.1-2.2,0.2-3.3s0.1-2.1,0.1-3.1s0-2,0-2.8c-0.1-1.8-0.1-3.3-0.2-4.7
				c-0.1-1.3-0.1-2.5-0.2-3.6c-0.1-1-0.1-2-0.2-2.7c-0.1-0.8-0.1-1.5-0.2-2.2s-0.2-1.3-0.2-1.8c-0.1-0.6-0.2-1.2-0.3-1.8l5.8-1.9
				c0.3,1.7,0.5,3.4,0.7,5.1c0.2,1.7,0.3,3.3,0.4,4.9s0.1,3,0.2,4.4c0,1.3,0,2.5,0,3.4s0,1.8,0,2.8s0,2,0,3.1s0,2.2-0.1,3.3
				c0,1.1-0.1,2.2-0.2,3.2l-5.8,0.9C474.8,42.7,474.8,41.7,474.9,40.6z"/>
			<path class="st0" d="M482.6,51.2c1.8-0.4,3.4-0.8,4.8-1.3c1.5-0.5,2.7-1.1,3.8-1.8c1.1-0.7,2-1.4,2.7-2.1
				c0.7-0.7,1.2-1.5,1.5-2.3c-0.5,0-1.1,0-1.7,0s-1.1,0-1.5-0.1c-1.2-0.1-2.4-0.3-3.4-0.7s-1.9-0.9-2.6-1.5s-1.3-1.4-1.7-2.4
				c-0.4-0.9-0.6-2-0.6-3.2c0-0.8,0.1-1.5,0.2-2.4c0.2-0.8,0.4-1.6,0.7-2.4c0.3-0.8,0.7-1.5,1.1-2.2c0.5-0.7,1-1.3,1.6-1.8
				s1.2-0.9,1.9-1.2c0.7-0.3,1.4-0.4,2.2-0.4c1,0,1.8,0.2,2.6,0.5s1.5,0.8,2.2,1.4s1.3,1.3,1.8,2.1c0.5,0.8,1,1.6,1.4,2.6
				c0.4,0.9,0.7,1.9,0.9,2.8c0.2,1,0.4,1.9,0.5,2.9h0.8v5.9h-1.2c-0.5,1.8-1.3,3.5-2.3,5c-1.1,1.5-2.4,2.8-3.8,3.9
				c-1.5,1.1-3.2,2-5,2.8c-1.8,0.7-3.7,1.2-5.7,1.5L482.6,51.2z M491.8,31.5c-0.3-0.1-0.6,0-0.9,0.3c-0.3,0.2-0.7,0.5-0.9,0.9
				c-0.3,0.4-0.5,0.8-0.7,1.3s-0.3,0.9-0.3,1.4c0,0.4,0.2,0.8,0.4,1.1c0.3,0.3,0.6,0.5,1,0.7s0.9,0.3,1.4,0.4c0.5,0.1,1,0.2,1.6,0.2
				c0.5,0,1,0.1,1.4,0.1h1.2c-0.2-0.8-0.4-1.5-0.7-2.2c-0.3-0.7-0.6-1.4-0.9-1.9c-0.3-0.6-0.7-1-1.1-1.4
				C492.8,31.8,492.4,31.6,491.8,31.5z"/>
			<path class="st0" d="M519.2,37.8v5.9h-17.8v-5.9H519.2z"/>
			<path class="st0" d="M532.4,37.8v5.9H532c-1.2,0-2.2-0.2-3.1-0.5c-0.8-0.3-1.6-0.8-2.2-1.4c-0.9,0.7-2,1.1-3.2,1.4
				c-1.2,0.3-2.7,0.5-4.4,0.5h-0.7v-5.9h0.7c1.7,0,3-0.3,3.9-0.8c0.9-0.6,1.3-1.4,1.3-2.5c0-0.4-0.1-0.9-0.2-1.6
				c-0.1-0.7-0.3-1.6-0.6-2.7l5.3-1.3c0.2,0.7,0.4,1.3,0.5,1.8s0.2,1,0.3,1.5c0.1,0.4,0.1,0.8,0.2,1.2c0,0.4,0.1,0.7,0.1,1.1
				c0,0.4,0.1,0.7,0.1,1.1c0.1,0.4,0.1,0.8,0.3,1.1c0.1,0.3,0.3,0.6,0.6,0.8s0.6,0.3,1,0.3C531.9,37.8,532.4,37.8,532.4,37.8z
				 M524.4,25.8l-4.2-4.2l4.2-4.2l4.2,4.2L524.4,25.8z"/>
			<path class="st0" d="M532,37.8c0.7,0,1.3-0.1,1.9-0.3c0.6-0.2,1.1-0.6,1.6-1.3c0.5-0.6,1-1.5,1.4-2.7c0.5-1.1,0.9-2.6,1.3-4.5
				l5,0.7c0,0.1,0,0.1-0.1,0.2c-0.1,0.3-0.2,0.8-0.3,1.3c-0.1,0.6-0.2,1.2-0.3,1.9s-0.1,1.4-0.1,2s0.1,1.2,0.2,1.7s0.4,0.8,0.8,0.8
				c0.4,0.1,0.8,0,1.1-0.2c0.4-0.3,0.7-0.6,1-1.1s0.6-1,0.9-1.7c0.3-0.6,0.5-1.3,0.8-2s0.4-1.3,0.6-2c0.2-0.7,0.3-1.2,0.4-1.7l5,0.7
				c0,0.3-0.1,0.7-0.1,1.3c-0.1,0.5-0.1,1.1-0.1,1.7c0,0.6-0.1,1.2,0,1.8c0,0.6,0.1,1.1,0.2,1.6c0.1,0.5,0.3,0.9,0.6,1.2
				s0.6,0.5,1.1,0.5c0.4,0,0.8-0.1,1.1-0.4s0.6-0.6,0.8-1.1c0.2-0.4,0.4-1,0.5-1.5c0.1-0.6,0.2-1.2,0.3-1.7c0.1-0.6,0.1-1.2,0.1-1.7
				c0-0.6,0-1.1-0.1-1.5l5.1-0.7l0.6,5.3c0.1,0.6,0.2,1.1,0.5,1.5s0.5,0.8,0.9,1.1c0.3,0.3,0.7,0.5,1.1,0.6c0.4,0.1,0.7,0.2,1.1,0.2
				h0.6v5.9h-0.6c-1.2,0-2.4-0.2-3.4-0.6c-1.1-0.4-2-1.1-2.8-2.2c-0.1,0.1-0.2,0.2-0.2,0.3c-0.1,0.1-0.1,0.2-0.2,0.2l0,0
				c-0.7,0.7-1.5,1.3-2.3,1.7s-1.8,0.6-2.9,0.6c-1.1,0-2.2-0.2-3.2-0.7s-1.8-1.2-2.4-2c-0.8,0.8-1.6,1.5-2.6,2s-2,0.8-3.1,0.8
				s-2.1-0.2-3-0.7s-1.7-1.1-2.3-2c-0.7,0.9-1.5,1.6-2.5,2s-2.2,0.6-3.7,0.6h-0.4v-5.9C531.9,37.8,532,37.8,532,37.8z M543.3,29.7
				L543.3,29.7C543.3,29.6,543.3,29.6,543.3,29.7z M550.8,21.7l-3.5,3.5l-3.7-3.6l3.6-3.6l3.6,3.6l3.5-3.5l3.7,3.6l-3.6,3.6
				L550.8,21.7z M554.2,16.2l-3.3,3.3l-3.4-3.4l3.3-3.3L554.2,16.2z"/>
			<path class="st0" d="M566.5,37.8h4c2,0,3.9-0.1,5.6-0.4c1.7-0.2,3.3-0.6,4.8-1s2.9-0.9,4.2-1.4s2.6-1.1,3.9-1.7
				c-0.9-0.2-1.7-0.5-2.6-0.9c-0.9-0.4-1.7-0.7-2.6-1c-0.9-0.3-1.7-0.6-2.6-0.8c-0.9-0.2-1.7-0.3-2.5-0.3c-0.6,0-1.1,0.2-1.7,0.5
				c-0.6,0.3-1.1,0.7-1.5,1.1c-0.5,0.4-0.8,0.8-1.1,1.2c-0.3,0.4-0.5,0.6-0.6,0.8l-4.3-2.8c0.5-0.8,1-1.7,1.7-2.5s1.4-1.5,2.2-2.1
				s1.6-1.1,2.5-1.5s1.9-0.6,2.9-0.6c0.7,0,1.5,0.1,2.2,0.2c0.7,0.2,1.5,0.4,2.2,0.6c0.7,0.3,1.5,0.5,2.2,0.9c0.7,0.3,1.4,0.6,2.1,1
				c0.7,0.3,1.3,0.6,2,0.9s1.4,0.6,2.1,0.8c0.7,0.3,1.5,0.5,2.2,0.6c0.8,0.2,1.6,0.3,2.4,0.3l-0.5,5.8l-2.7,1.3
				c-1.1,0.5-2.2,1.1-3.3,1.6c-1.1,0.6-2.2,1.1-3.3,1.6s-2.3,1-3.5,1.5s-2.4,0.9-3.7,1.2s-2.7,0.6-4.1,0.8c-1.5,0.2-3,0.3-4.7,0.3
				h-4L566.5,37.8L566.5,37.8z M582,54l-4.2-4.2l4.2-4.2l4.2,4.2L582,54z"/>
		</g>
	</g>
</g>
<g>
	<path class="st0" d="M372.5,106.7h22.2c2,0,3.4-0.4,4.3-1.3c0.9-0.9,1.4-2.3,1.4-4.3v-4.9v-1h1.1h4.7h1.1v1v4.9c0,3.9-1.1,7-3.2,9
		c-2.1,2.1-5.3,3.1-9.4,3.1h-22.1c-4.1,0-7.3-1-9.6-3.1c-2.2-2.1-3.3-5-3.3-9v-5v-1h1.1h4.7h1.1v1v5c0,2,0.5,3.4,1.4,4.2
		C368.9,106.3,370.4,106.7,372.5,106.7z M374,90.9l4.6-4.2l4.5,4.2l-4.5,4.2L374,90.9z M383.8,90.9l4.5-4.2l4.6,4.2
		c-0.1,0.1-0.2,0.2-0.3,0.3c-0.2,0.2-0.9,0.8-1.9,1.7s-1.8,1.7-2.3,2.2L383.8,90.9z"/>
	<path class="st0" d="M425,113.2h-1.2c-3.2,0-5.7-0.9-7.3-2.7c-1.7-1.8-2.5-4.4-2.5-7.7V80.9v-1h1.1h4.5h1.1v1v22
		c0,1.4,0.3,2.4,0.8,3c0.5,0.6,1.4,0.9,2.5,0.9h1.2c0.2,0,0.4,0.3,0.5,1c0.1,0.7,0.2,1.4,0.2,2v0.3c0,0.7-0.1,1.4-0.2,2.1
		C425.4,112.9,425.2,113.2,425,113.2z"/>
	<path class="st0" d="M431.7,106.7c0.2,0,0.4,0.3,0.5,1c0.1,0.7,0.2,1.4,0.2,2v0.3c0,0.7-0.1,1.4-0.2,2.1c-0.1,0.7-0.3,1.1-0.5,1.1
		h-7c-0.2,0-0.4-0.4-0.5-1.1c-0.1-0.7-0.2-1.4-0.2-2.1v-0.3c0-0.6,0.1-1.3,0.2-2s0.3-1,0.5-1H431.7z"/>
	<path class="st0" d="M438.5,106.7c0.2,0,0.4,0.3,0.5,1c0.1,0.7,0.2,1.4,0.2,2v0.3c0,0.7-0.1,1.4-0.2,2.1c-0.1,0.7-0.3,1.1-0.5,1.1
		h-7c-0.2,0-0.4-0.4-0.5-1.1c-0.1-0.7-0.2-1.4-0.2-2.1v-0.3c0-0.6,0.1-1.3,0.2-2c0.1-0.7,0.3-1,0.5-1H438.5z"/>
	<path class="st0" d="M445.2,106.7c0.2,0,0.4,0.3,0.5,1c0.1,0.7,0.2,1.4,0.2,2v0.3c0,0.7-0.1,1.4-0.2,2.1c-0.1,0.7-0.3,1.1-0.5,1.1
		h-7c-0.2,0-0.4-0.4-0.5-1.1c-0.1-0.7-0.2-1.4-0.2-2.1v-0.3c0-0.6,0.1-1.3,0.2-2c0.1-0.7,0.3-1,0.5-1H445.2z"/>
	<path class="st0" d="M451.9,106.7c0.2,0,0.4,0.3,0.5,1c0.1,0.7,0.2,1.4,0.2,2v0.3c0,0.7-0.1,1.4-0.2,2.1c-0.1,0.7-0.3,1.1-0.5,1.1
		h-7c-0.2,0-0.4-0.4-0.5-1.1c-0.1-0.7-0.2-1.4-0.2-2.1v-0.3c0-0.6,0.1-1.3,0.2-2c0.1-0.7,0.3-1,0.5-1H451.9z"/>
	<path class="st0" d="M451.7,106.7h5.8c-1.5-1.7-2.2-3.7-2.2-5.8c0-3.1,1.1-5.7,3.3-7.8c2.2-2.1,5-3.1,8.4-3.1c3.8,0,7,1.4,9.4,4.1
		l0.5,0.5l-0.4,0.6l-2,3.3l-0.7,1.1l-1-0.9c-1.6-1.4-3.5-2.2-5.7-2.2c-1.4,0-2.6,0.4-3.6,1.2c-1,0.8-1.4,1.8-1.4,3.1
		c0,1.3,0.7,2.4,2.2,3.5c1.3,1,2.3,1.5,3,1.5c0.5,0,1.7-0.2,3.4-0.5l5.7-1.3l1.3-0.3v1.3v4.5v0.7l-0.8,0.2c-6.3,1.8-12,2.6-16.9,2.6
		h-8.4c-0.2,0-0.4-0.4-0.5-1.1c-0.1-0.7-0.2-1.4-0.2-2.1v-0.3c0-0.6,0.1-1.3,0.2-2C451.3,107.1,451.5,106.7,451.7,106.7z"/>
	<path class="st0" d="M495.5,113.2h-1.2c-3.2,0-5.7-0.9-7.3-2.7c-1.7-1.8-2.5-4.4-2.5-7.7V80.9v-1h1.1h4.5h1.1v1v22
		c0,1.4,0.3,2.4,0.8,3c0.5,0.6,1.4,0.9,2.5,0.9h1.2c0.2,0,0.4,0.3,0.5,1c0.1,0.7,0.2,1.4,0.2,2v0.3c0,0.7-0.1,1.4-0.2,2.1
		C495.9,112.9,495.7,113.2,495.5,113.2z"/>
	<path class="st0" d="M502.2,106.7c0.2,0,0.4,0.3,0.5,1c0.1,0.7,0.2,1.4,0.2,2v0.3c0,0.7-0.1,1.4-0.2,2.1c-0.1,0.7-0.3,1.1-0.5,1.1
		h-7c-0.2,0-0.4-0.4-0.5-1.1c-0.1-0.7-0.2-1.4-0.2-2.1v-0.3c0-0.6,0.1-1.3,0.2-2s0.3-1,0.5-1H502.2z"/>
	<path class="st0" d="M508.9,106.7c0.2,0,0.4,0.3,0.5,1c0.1,0.7,0.2,1.4,0.2,2v0.3c0,0.7-0.1,1.4-0.2,2.1c-0.1,0.7-0.3,1.1-0.5,1.1
		h-7c-0.2,0-0.4-0.4-0.5-1.1c-0.1-0.7-0.2-1.4-0.2-2.1v-0.3c0-0.6,0.1-1.3,0.2-2s0.3-1,0.5-1H508.9z"/>
	<path class="st0" d="M515.7,106.7c0.2,0,0.4,0.3,0.5,1c0.1,0.7,0.2,1.4,0.2,2v0.3c0,0.7-0.1,1.4-0.2,2.1c-0.1,0.7-0.3,1.1-0.5,1.1
		h-7c-0.2,0-0.4-0.4-0.5-1.1c-0.1-0.7-0.2-1.4-0.2-2.1v-0.3c0-0.6,0.1-1.3,0.2-2c0.1-0.7,0.3-1,0.5-1H515.7z"/>
	<path class="st0" d="M515.4,106.7h2.6c1.9,0,3.2-0.3,4.1-0.9c0.8-0.6,1.2-1.6,1.2-2.9v-6.5v-1h1.1h4.6h1.1v1l0,6.5
		c0,1.4,0.3,2.3,0.9,2.9c0.6,0.6,1.6,0.9,3,0.9c1.3,0,2.3-0.3,2.9-0.9c0.6-0.6,0.9-1.6,0.9-2.9l0-6.5v-1h1.1h4.6h1.1v1l0,6.5
		c0,1.4,0.3,2.4,0.9,3c0.6,0.6,1.6,0.9,2.9,0.9c1,0,1.7-0.3,2.2-0.8c0.4-0.5,0.7-1.5,0.7-2.9v-7.4v-1h1.1h4.7h1.1v1v7.6
		c0,3.1-0.8,5.6-2.5,7.4c-1.7,1.8-4,2.7-7,2.7c-3.1,0-5.5-0.9-7.2-2.8c-1.7,1.9-4.2,2.8-7.4,2.8c-3,0-5.4-1-7.2-2.9
		c-1.9,1.9-4.9,2.9-8.8,2.9h-2.5c-0.2,0-0.4-0.4-0.5-1.1c-0.1-0.7-0.2-1.4-0.2-2.1v-0.3c0-0.6,0.1-1.3,0.2-2
		C515,107.1,515.2,106.7,515.4,106.7z"/>
	<path class="st0" d="M396.1,155.7h-0.4v1c0,3.3-1.4,5.9-4.1,7.6c-2.8,1.8-6.7,2.7-11.7,2.7h-2.6c-5.5,0-9.7-1.3-12.6-3.7
		c-2.9-2.5-4.3-6.2-4.3-11v-8.5v-1h1.1l4.7,0h1.1v1v8.5c0,2.8,0.8,4.9,2.4,6.3c1.6,1.3,4.1,2,7.6,2h2.6c1.4,0,2.6-0.1,3.6-0.2
		c1-0.1,2-0.3,2.8-0.6c0.8-0.3,1.5-0.7,1.9-1.2s0.7-1.2,0.7-1.9v-0.8h-5.7c-0.8,0-1.5-0.2-1.9-0.7c-0.4-0.5-0.8-1.2-1.1-2.3
		c-0.4-1.4-0.5-2.3-0.4-2.8c0.1-0.5,0.7-0.7,1.6-0.7h14.8c0.2,0,0.4,0.3,0.5,1c0.1,0.7,0.2,1.4,0.2,2v0.3c0,0.7-0.1,1.4-0.2,2.1
		C396.5,155.4,396.3,155.7,396.1,155.7z M399.4,149.2c0.1,0,0.2,0.3,0.3,1c0.1,0.7,0.1,1.4,0.1,2v0.3c0,0.7,0,1.4-0.1,2.1
		c-0.1,0.7-0.2,1.1-0.3,1.1h-4c-0.1,0-0.2-0.4-0.3-1.1c-0.1-0.7-0.1-1.4-0.1-2.1v-0.3c0-0.6,0-1.3,0.1-2c0.1-0.7,0.2-1,0.3-1H399.4z
		"/>
	<path class="st0" d="M405.9,149.2c0.2,0,0.4,0.3,0.5,1c0.1,0.7,0.2,1.4,0.2,2v0.3c0,0.7-0.1,1.4-0.2,2.1c-0.1,0.7-0.3,1.1-0.5,1.1
		h-7c-0.2,0-0.4-0.4-0.5-1.1c-0.1-0.7-0.2-1.4-0.2-2.1v-0.3c0-0.6,0.1-1.3,0.2-2c0.1-0.7,0.3-1,0.5-1H405.9z"/>
	<path class="st0" d="M412.6,149.2c0.2,0,0.4,0.3,0.5,1c0.1,0.7,0.2,1.4,0.2,2v0.3c0,0.7-0.1,1.4-0.2,2.1c-0.1,0.7-0.3,1.1-0.5,1.1
		h-7c-0.2,0-0.4-0.4-0.5-1.1c-0.1-0.7-0.2-1.4-0.2-2.1v-0.3c0-0.6,0.1-1.3,0.2-2c0.1-0.7,0.3-1,0.5-1H412.6z"/>
	<path class="st0" d="M419.4,149.2c0.2,0,0.4,0.3,0.5,1c0.1,0.7,0.2,1.4,0.2,2v0.3c0,0.7-0.1,1.4-0.2,2.1c-0.1,0.7-0.3,1.1-0.5,1.1
		h-7c-0.2,0-0.4-0.4-0.5-1.1c-0.1-0.7-0.2-1.4-0.2-2.1v-0.3c0-0.6,0.1-1.3,0.2-2c0.1-0.7,0.3-1,0.5-1H419.4z"/>
	<path class="st0" d="M426.1,149.2c0.2,0,0.4,0.3,0.5,1c0.1,0.7,0.2,1.4,0.2,2v0.3c0,0.7-0.1,1.4-0.2,2.1c-0.1,0.7-0.3,1.1-0.5,1.1
		h-7c-0.2,0-0.4-0.4-0.5-1.1c-0.1-0.7-0.2-1.4-0.2-2.1v-0.3c0-0.6,0.1-1.3,0.2-2c0.1-0.7,0.3-1,0.5-1H426.1z"/>
	<path class="st0" d="M432.8,149.2c0.2,0,0.4,0.3,0.5,1c0.1,0.7,0.2,1.4,0.2,2v0.3c0,0.7-0.1,1.4-0.2,2.1c-0.1,0.7-0.3,1.1-0.5,1.1
		h-7c-0.2,0-0.4-0.4-0.5-1.1c-0.1-0.7-0.2-1.4-0.2-2.1v-0.3c0-0.6,0.1-1.3,0.2-2c0.1-0.7,0.3-1,0.5-1H432.8z"/>
	<path class="st0" d="M439.6,149.2c0.2,0,0.4,0.3,0.5,1c0.1,0.7,0.2,1.4,0.2,2v0.3c0,0.7-0.1,1.4-0.2,2.1c-0.1,0.7-0.3,1.1-0.5,1.1
		h-7c-0.2,0-0.4-0.4-0.5-1.1c-0.1-0.7-0.2-1.4-0.2-2.1v-0.3c0-0.6,0.1-1.3,0.2-2c0.1-0.7,0.3-1,0.5-1H439.6z"/>
	<path class="st0" d="M439.3,149.2h5.5c1.7,0,2.8-0.2,3.4-0.8c0.6-0.5,0.9-1.5,0.9-3.1V138v-1h1.1h4.7h1.1v1v7.4
		c0,3.3-1,5.9-2.9,7.6c-1.9,1.8-4.7,2.6-8.4,2.6h-5.4c-0.2,0-0.4-0.4-0.5-1.1c-0.1-0.7-0.2-1.4-0.2-2.1v-0.3c0-0.6,0.1-1.3,0.2-2
		C438.9,149.6,439.1,149.2,439.3,149.2z M446.2,129.1l4.6-4.3l4.6,4.3l-4.6,4.3L446.2,129.1z"/>
	<path class="st0" d="M474.6,155.7h-1.2c-3.2,0-5.7-0.9-7.3-2.7c-1.7-1.8-2.5-4.4-2.5-7.7v-21.9v-1h1.1h4.5h1.1v1v22
		c0,1.4,0.3,2.4,0.8,3c0.5,0.6,1.4,0.9,2.5,0.9h1.2c0.2,0,0.4,0.3,0.5,1c0.1,0.7,0.2,1.4,0.2,2v0.3c0,0.7-0.1,1.4-0.2,2.1
		C475,155.4,474.9,155.7,474.6,155.7z"/>
	<path class="st0" d="M481.4,149.2c0.2,0,0.4,0.3,0.5,1c0.1,0.7,0.2,1.4,0.2,2v0.3c0,0.7-0.1,1.4-0.2,2.1c-0.1,0.7-0.3,1.1-0.5,1.1
		h-7c-0.2,0-0.4-0.4-0.5-1.1c-0.1-0.7-0.2-1.4-0.2-2.1v-0.3c0-0.6,0.1-1.3,0.2-2c0.1-0.7,0.3-1,0.5-1H481.4z"/>
	<path class="st0" d="M488.1,149.2c0.2,0,0.4,0.3,0.5,1c0.1,0.7,0.2,1.4,0.2,2v0.3c0,0.7-0.1,1.4-0.2,2.1c-0.1,0.7-0.3,1.1-0.5,1.1
		h-7c-0.2,0-0.4-0.4-0.5-1.1c-0.1-0.7-0.2-1.4-0.2-2.1v-0.3c0-0.6,0.1-1.3,0.2-2c0.1-0.7,0.3-1,0.5-1H488.1z"/>
	<path class="st0" d="M485.8,164l4.6-4.2l4.5,4.2l-4.5,4.2L485.8,164z M487.8,149.2h7.6c1.7,0,2.8-0.2,3.4-0.8
		c0.6-0.5,0.9-1.5,0.9-3.1V138v-1h1.1h4.7h1.1v1v7.4c0,3.3-1,5.9-2.9,7.6c-1.9,1.8-4.7,2.6-8.3,2.6h-7.7c-0.2,0-0.4-0.4-0.5-1.1
		c-0.1-0.7-0.2-1.4-0.2-2.1v-0.3c0-0.6,0.1-1.3,0.2-2C487.5,149.6,487.6,149.2,487.8,149.2z M495.6,164l4.5-4.2l4.6,4.2
		c-0.1,0.1-0.2,0.2-0.3,0.3c-0.2,0.2-0.9,0.8-1.9,1.7c-1,0.9-1.8,1.7-2.3,2.2L495.6,164z"/>
	<path class="st0" d="M525.3,155.7h-1.2c-3.2,0-5.7-0.9-7.3-2.7c-1.7-1.8-2.5-4.4-2.5-7.7v-21.9v-1h1.1h4.5h1.1v1v22
		c0,1.4,0.3,2.4,0.8,3c0.5,0.6,1.4,0.9,2.5,0.9h1.2c0.2,0,0.4,0.3,0.5,1c0.1,0.7,0.2,1.4,0.2,2v0.3c0,0.7-0.1,1.4-0.2,2.1
		C525.7,155.4,525.5,155.7,525.3,155.7z"/>
	<path class="st0" d="M532,149.2c0.2,0,0.4,0.3,0.5,1c0.1,0.7,0.2,1.4,0.2,2v0.3c0,0.7-0.1,1.4-0.2,2.1c-0.1,0.7-0.3,1.1-0.5,1.1h-7
		c-0.2,0-0.4-0.4-0.5-1.1c-0.1-0.7-0.2-1.4-0.2-2.1v-0.3c0-0.6,0.1-1.3,0.2-2c0.1-0.7,0.3-1,0.5-1H532z"/>
	<path class="st0" d="M538.8,149.2c0.2,0,0.4,0.3,0.5,1c0.1,0.7,0.2,1.4,0.2,2v0.3c0,0.7-0.1,1.4-0.2,2.1c-0.1,0.7-0.3,1.1-0.5,1.1
		h-7c-0.2,0-0.4-0.4-0.5-1.1c-0.1-0.7-0.2-1.4-0.2-2.1v-0.3c0-0.6,0.1-1.3,0.2-2c0.1-0.7,0.3-1,0.5-1H538.8z"/>
	<path class="st0" d="M536.7,163.1l4.3-4l4.3,4l-4.3,4L536.7,163.1z M538.5,149.2h7.6c1.7,0,2.8-0.2,3.4-0.8
		c0.6-0.5,0.9-1.5,0.9-3.1V138v-1h1.1h4.7h1.1v1v7.4c0,3.3-1,5.9-2.9,7.6c-1.9,1.8-4.7,2.6-8.3,2.6h-7.7c-0.2,0-0.4-0.4-0.5-1.1
		c-0.1-0.7-0.2-1.4-0.2-2.1v-0.3c0-0.6,0.1-1.3,0.2-2C538.2,149.6,538.3,149.2,538.5,149.2z M541.6,169.2l4.3-4l4.3,4l-4.3,4
		L541.6,169.2z M546.5,163.1l4.3-4l4.3,4l-4.3,4L546.5,163.1z"/>
</g>
</svg>
