<?xml version="1.0" encoding="utf-8"?>
<!-- Generator: Adobe Illustrator 23.0.1, SVG Export Plug-In . SVG Version: 6.00 Build 0)  -->
<svg version="1.1" id="Layer_1" xmlns="http://www.w3.org/2000/svg" xmlns:xlink="http://www.w3.org/1999/xlink" x="0px" y="0px"
	 viewBox="0 0 520 400" style="enable-background:new 0 0 520 400;"  width="520" height="400"  xml:space="preserve">
<style type="text/css">
	.st0{fill:#E50000;}
	.st1{fill:#FFFFFF;}
	.st2{fill:#004F49;}
	.st3{opacity:0.35;fill:#FFFFFF;enable-background:new    ;}
	.st4{fill:#061133;stroke:#FFFFFF;stroke-width:3;stroke-miterlimit:10;}
	.st5{fill:#FFC200;}
	.st6{fill:#032D44;}
	.st7{opacity:0.48;}
</style>
<g>
	<g>
		<g>
			<path class="st0" d="M491.8,283.6H250.7c-7.9,0-14.5-6.7-14.5-15v-76.8c0-8.2,6.5-15,14.5-15h241.2c7.9,0,14.5,6.7,14.5,15v76.8
				C506.6,276.9,500.1,283.6,491.8,283.6z"/>
			<path class="st1" d="M491.8,285.1H250.7c-8.8,0-16.1-7.5-16.1-16.7v-76.8c0-9.1,7.2-16.7,16.1-16.7h241.2
				c8.8,0,16.1,7.5,16.1,16.7v76.8C507.9,277.8,501,285.1,491.8,285.1z M250.7,178.2c-7.2,0-13.1,6.1-13.1,13.6v76.8
				c0,7.5,5.9,13.6,13.1,13.6h241.2c7.3,0,13.1-6,13.1-13.6v-76.8c0-7.5-5.9-13.6-13.1-13.6H250.7L250.7,178.2z"/>
		</g>
		<g>
			<path class="st1" d="M280.9,243.7h-0.4c-3.4,0-6.4-1.5-9.1-4.3c-1.8,2.7-5.7,4.3-11.4,4.3h-10.9h-0.9v-0.9v-5.2v-0.9h0.9h10.6
				c0.1,0,0.3,0,0.4,0s0.3,0,0.4,0c1.1,0,1.9-0.1,2.7-0.3c0.6-0.1,1.5-0.3,1.6-0.4c0.4-0.3,0.6-0.4,0.8-0.8c0.1-0.3,0.3-0.4,0.3-0.9
				s-0.3-1.3-0.6-1.9c-0.3-0.4-0.4-0.8-0.8-1.5c-0.4-0.4-0.6-0.9-1.3-1.5l-7.8-9l-0.4-0.6l0.4-0.6l3.6-3.9l0.8-0.8l0.6,0.9
				l15.5,18.6c1.6,2,3.2,2.9,4.7,2.9h0.3c0.4,0,0.6,0.1,0.9,0.3c0.3,0.1,0.4,0.4,0.4,0.8c0.1,0.4,0.1,0.6,0.1,0.9s0,0.4,0,1.1
				c0,0.1,0,0.1,0,0.1v0.3c0,0.9,0,1.6-0.1,2.1c0,0.3-0.1,0.4-0.3,0.4c-0.1,0.1-0.3,0.3-0.4,0.4
				C281.3,243.6,281.2,243.7,280.9,243.7z"/>
			<path class="st1" d="M305.6,243.7H305c-4,0-6.9-1.1-8.8-3.2c-2.1,2.1-5.7,3.2-10.2,3.2h-5.2c-0.8,0-1.5-0.3-1.9-0.9
				s-0.6-1.5-0.6-2.3v-0.2c0-0.9,0.1-1.8,0.4-2.3c0.4-0.6,1.1-1.1,2-1.1h5.3c1.5,0,2.7-0.1,3.8-0.4c1-0.4,1.6-0.8,2-1.5
				c0.4-0.6,0.6-1.5,0.6-2.5v-7.4v-1h0.9h5.1h0.9v0.9v7.4c0,1.6,0.4,2.7,1.3,3.6c0.8,0.6,2.3,1.1,4.3,1.1h0.6c0.4,0,0.6,0.1,0.9,0.3
				c0.3,0.1,0.4,0.4,0.4,0.8c0.1,0.4,0.1,0.6,0.1,0.9c0,0.3,0,0.4,0,1.1c0,0.1,0,0.1,0,0.1v0.3c0,0,0,0.1,0,0.3c0,0.3,0,0.4,0,0.4
				c0,0.1,0,0.3,0,0.4c0,0.3,0,0.4-0.1,0.6c0,0.1-0.1,0.4-0.1,0.4c-0.1,0.1-0.1,0.4-0.3,0.4c-0.1,0.1-0.3,0.3-0.4,0.3
				C306,243.7,305.7,243.7,305.6,243.7z M280.7,252.3l2.5-2.5c0.8-0.8,1.6-0.9,2.3-0.1l2.7,2.7c0.8,0.8,0.8,1.6,0,2.3l-2.5,2.5
				c-0.8,0.8-1.6,0.8-2.3,0l-2.7-2.7C279.9,253.8,279.9,253,280.7,252.3z M291,252.3l2.5-2.5c0.8-0.8,1.6-0.9,2.3-0.1l2.7,2.7
				c0.8,0.8,0.8,1.6,0,2.3l-2.5,2.5c-0.8,0.8-1.6,0.8-2.3,0l-2.8-2.7C290.2,253.8,290.2,253.1,291,252.3z"/>
			<path class="st1" d="M329.3,243.7h-0.4c-4,0-6.9-1.1-8.8-3.2c-2.3,2.1-5.7,3.2-10.2,3.2h-4.4c-0.8,0-1.5-0.3-1.9-0.9
				c-0.4-0.6-0.6-1.5-0.6-2.3v-0.2c0-0.9,0.1-1.8,0.4-2.3c0.4-0.6,1.1-1.1,2-1.1h4.5c2.3,0,3.9-0.4,4.9-1.1c0.9-0.6,1.5-1.9,1.5-3.4
				V225v-1h0.9h5.1h0.9v0.9v7.4c0,1.6,0.4,2.7,1.3,3.6c0.8,0.6,2.3,1.1,4.3,1.1h0.6c0.4,0,0.6,0.1,0.9,0.3c0.3,0.1,0.4,0.4,0.4,0.8
				c0.1,0.4,0.1,0.6,0.1,0.9c0,0.3,0,0.4,0,1.1c0,0.1,0,0.1,0,0.1v0.3c0,0,0,0.1,0,0.3c0,0.1,0,0.3,0,0.4c0,0.1,0,0.3,0,0.4
				c0,0.1,0,0.4,0,0.4c0,0.1,0,0.3-0.1,0.4c0,0.1-0.1,0.3-0.1,0.4s-0.1,0.3-0.1,0.4c-0.1,0.1-0.1,0.3-0.3,0.3
				c-0.1,0.1-0.3,0.1-0.4,0.1C329.7,243.7,329.4,243.7,329.3,243.7z M313.1,211.6l2.5-2.5c0.9-0.9,1.8-0.9,2.5-0.1l2.8,2.7
				c0.8,0.8,0.8,1.8-0.1,2.5l-2.5,2.5c-0.8,0.8-1.8,0.8-2.5,0l-2.7-2.8C312.4,213.3,312.4,212.5,313.1,211.6z"/>
			<path class="st1" d="M329,243.7c-0.8,0-1.5-0.3-1.9-0.9s-0.6-1.5-0.6-2.3v-0.2c0-0.9,0.1-1.8,0.4-2.3c0.4-0.6,1.1-1.1,2-1.1h9.4
				c2.1,0,3.9-0.3,4.8-0.6c0.9-0.4,1.5-1.3,1.5-2c0-0.1,0-0.3-0.1-0.4c-0.1-0.3-0.3-0.4-0.4-0.9c-0.3-0.4-0.4-0.8-0.9-1.5
				c-0.4-0.4-0.8-1.1-1.5-1.6l-9.3-10.6c-1.1-1.3-1.6-2.7-1.6-4.7c0-0.6,0.1-1.3,0.3-1.9c0.1-0.4,0.4-1.1,0.8-1.5
				c0.3-0.3,0.8-0.8,1.3-1.3c0.4-0.4,1.1-0.6,1.6-0.8l17.9-5.9l1.5-0.4v1.5v5.2v0.6l-0.6,0.3l-14.8,4.9l7.9,9.1
				c3.2,3.9,5.1,7.2,5.1,10.1c0,3.2-1.1,5.8-3.2,7.4c-2.1,1.6-5.5,2.3-9.7,2.3h-9.4v-0.1h-0.1v-0.2L329,243.7L329,243.7z"/>
			<path class="st1" d="M397.1,243.7h-20.8c-4.3,0-7.8-1.3-10-3.6c-2.3-2.3-3.4-5.8-3.4-10.2v-5.8v-0.9h0.9h5.1h0.9v0.9v5.8
				c0,2.1,0.4,3.9,1.6,4.9c0.4,0.4,1.3,0.9,1.9,1.3c0.8,0.3,1.8,0.4,2.8,0.4H397c2.1,0,3.9-0.3,4.8-0.8s1.5-1.3,1.5-2.1
				c0-0.3-0.3-0.8-0.6-1.6c-0.4-0.8-1.3-1.8-2.1-2.8l-9.3-10.6c-0.4-0.4-0.9-1.5-1.3-2c-0.3-0.8-0.4-1.6-0.4-2.3
				c0-0.9,0.1-1.8,0.4-2.3c0.3-0.6,0.8-1.5,1.5-1.9c0.6-0.4,1.5-0.9,2.1-1.3l17.7-5.9l1.5-0.4v1.5v5.2v0.6l-0.6,0.1l-15,4.9
				l15.5,17.8c2.3,2.7,4.3,4.1,6,4.1h0.6c0.4,0,0.6,0.1,0.9,0.3c0.3,0.1,0.4,0.4,0.4,0.9c0,0.4,0.1,0.6,0.1,0.9c0,0.3,0,0.4,0,0.9
				c0,0.1,0,0.1,0,0.1v0.3c0,0,0,0.1,0,0.3c0,0.3,0,0.4,0,0.6c0,0.2,0,0.4,0,0.6c0,0.3,0,0.4-0.1,0.6c-0.1,0.1-0.1,0.4-0.3,0.4
				c-0.1,0.1-0.3,0.3-0.4,0.4s-0.4,0.1-0.6,0.1h-0.4c-3.9,0-7.1-1.6-9.9-4.9c-0.3,0.4-0.4,0.9-0.9,1.5c-0.4,0.4-0.8,0.8-1.3,1.1
				c-0.4,0.3-0.9,0.6-1.5,0.9s-1.1,0.4-1.6,0.6c-0.5,0.2-1.3,0.4-1.9,0.4c-0.6,0.1-1.5,0.3-2.1,0.3
				C398.6,243.7,397.8,243.7,397.1,243.7z"/>
			<path class="st1" d="M443.9,243.7h-0.4c-4,0-6.9-1.1-8.8-3.2c-2.1,2.1-5.7,3.2-10.2,3.2h-5.2c-0.8,0-1.5-0.3-1.9-0.9
				c-0.4-0.6-0.6-1.5-0.6-2.3v-0.2c0-0.9,0.1-1.8,0.4-2.3c0.4-0.6,1.1-1.1,2-1.1h5.3c1.5,0,2.7-0.1,3.8-0.4c0.9-0.4,1.6-0.8,2-1.5
				c0.4-0.6,0.6-1.5,0.6-2.5v-7.4v-1h0.9h5.1h0.9v0.9v7.4c0,1.6,0.4,2.7,1.3,3.6c0.8,0.6,2.3,1.1,4.3,1.1h0.6c0.4,0,0.6,0.1,0.9,0.3
				c0.3,0.1,0.4,0.4,0.4,0.8c0.1,0.4,0.1,0.6,0.1,0.9c0,0.3,0,0.4,0,1.1c0,0.1,0,0.1,0,0.1v0.3c0,0,0,0.1,0,0.3c0,0.3,0,0.4,0,0.4
				c0,0.1,0,0.3,0,0.4c0,0.3,0,0.4-0.1,0.6c0,0.1-0.1,0.4-0.1,0.4c-0.1,0.1-0.1,0.4-0.3,0.4c-0.1,0.1-0.3,0.3-0.4,0.3
				C444.2,243.7,444.1,243.7,443.9,243.7z M418.9,252.3l2.5-2.5c0.8-0.8,1.6-0.9,2.3-0.1l2.7,2.7c0.8,0.8,0.8,1.6,0,2.3l-2.5,2.5
				c-0.8,0.8-1.6,0.8-2.3,0l-2.7-2.7C418.1,253.8,418.1,253,418.9,252.3z M429.2,252.3l2.5-2.5c0.8-0.8,1.6-0.9,2.3-0.1l2.7,2.7
				c0.8,0.8,0.8,1.6,0,2.3l-2.5,2.5c-0.8,0.8-1.6,0.8-2.3,0l-2.8-2.7C428.4,253.8,428.4,253.1,429.2,252.3z"/>
			<path class="st1" d="M463.9,243.7h-1.5c-3.2,0-6-1.1-8.1-3.2c-2,2.1-4.8,3.2-8,3.2h-2.7c-0.8,0-1.5-0.3-1.9-0.9s-0.4-1.5-0.4-2.3
				v-0.2c0-0.9,0.1-1.8,0.4-2.3c0.4-0.6,1.1-1.1,2-1.1h2.7c0.8,0,1.6-0.1,2.1-0.3c0.4-0.1,1.1-0.4,1.5-0.8c0.4-0.4,0.6-0.8,0.8-1.5
				c0.1-0.4,0.3-1.3,0.3-1.9v-25.6v-1h0.9h4.8h0.9v0.9v25.8c0,1.5,0.4,2.5,1.3,3.2c0.8,0.6,2,1.1,4,1.1h1.1c0.4,0,0.6,0.1,0.9,0.3
				c0.3,0.3,0.4,0.4,0.4,0.9c0,0.4,0.1,0.6,0.1,0.9c0,0.3,0,0.4,0,1.1c0,0.1,0,0.1,0,0.1v0.3v0.1c0,0.3,0,0.4,0,0.6s0,0.4,0,0.6
				c0,0.3,0,0.4-0.1,0.6c-0.1,0.1-0.1,0.4-0.3,0.4c-0.1,0.1-0.3,0.3-0.4,0.4C464.4,243.7,464.1,243.7,463.9,243.7z"/>
			<path class="st1" d="M463.5,243.7c-0.8,0-1.5-0.3-1.9-0.9s-0.6-1.5-0.6-2.3v-0.2c0-0.9,0.1-1.8,0.4-2.3c0.4-0.6,1.1-1.1,2-1.1
				h9.4c2.1,0,3.9-0.3,4.8-0.6c0.9-0.4,1.5-1.3,1.5-2c0-0.1,0-0.3-0.1-0.4c-0.1-0.3-0.3-0.4-0.4-0.9c-0.3-0.4-0.4-0.8-0.9-1.5
				c-0.4-0.4-0.8-1.1-1.5-1.6l-9.3-10.6c-1.1-1.3-1.6-2.7-1.6-4.7c0-0.6,0.1-1.3,0.3-1.9c0.1-0.4,0.4-1.1,0.8-1.5s0.8-0.8,1.3-1.3
				c0.4-0.4,1.1-0.6,1.6-0.8l17.9-5.9l1.5-0.4v1.5v5.2v0.6l-0.6,0.3l-14.8,4.9l7.9,9.1c3.2,3.9,5.1,7.2,5.1,10.1
				c0,3.2-1.1,5.8-3.2,7.4c-2.1,1.6-5.5,2.3-9.7,2.3H464v-0.1h-0.6v-0.2h0.1V243.7z"/>
		</g>
	</g>
</g>
<g>
	<g>
		<path class="st1" d="M78.5,122c-0.6,0.3-1.4,0.6-1.9,0.8c-0.8,0.3-1.9,0.3-3,0.6c-0.8,0-2.2,0.3-3.4,0.3H54.4
			c-3.6,0-6.2-0.8-8-2.8c-1.9-1.9-2.8-4.7-2.8-8.4v-4.7V107h0.8h4.3h0.8v0.8v4.7c0,1.9,0.3,3,1.4,4c0.8,0.8,2.2,1.4,4,1.4h16.7
			c-0.8-1.4-1.4-3-1.4-5.1c0-1.4,0.3-2.5,0.6-3.6c0.3-0.8,0.8-1.9,1.9-3c1.9-1.7,4-2.5,6.5-2.5s4.7,0.8,6.5,2.5
			c0.8,0.8,1.4,1.9,1.9,3c0.3,0.8,0.6,2.5,0.6,3.6c0,1.9-0.3,3.6-1.4,5.1h3.6c0.3,0,0.3,0,0.6,0s0.3,0.3,0.3,0.3
			c0,0.3,0.3,0.3,0.3,0.3s0,0.3,0,0.6c0,0.3,0,0.3,0,0.3v0.3c0,0,0,0,0,0.3v0.3c0,0,0,0,0,0.3s0,0.3,0,0.6c0,0,0,0.3,0,0.6
			s0,0.3,0,0.6c0,0,0,0.3-0.3,0.3c0,0.3-0.3,0.3-0.3,0.3c-0.3,0-0.3,0-0.6,0H87C83.4,123.8,80.9,122.8,78.5,122z M74.8,95.3l1.9-1.9
			c0.6-0.6,1.4-0.8,1.9,0l2.5,2.2c0.6,0.6,0.6,1.4,0,1.9l-1.9,1.9c-0.6,0.6-1.4,0.6-1.9,0l-2.2-2.5C73.9,96.6,73.9,95.9,74.8,95.3z
			 M74.8,112.9c0,0.8,0.3,1.7,0.8,2.5c0.6,0.6,1.4,0.8,2.5,0.8c1.4,0,1.9-0.3,2.5-0.8c0.6-0.6,0.8-1.4,0.8-2.5s-0.3-1.7-0.8-2.5
			c-0.3-0.3-0.6-0.6-0.8-0.8c-0.3-0.3-0.8-0.3-1.4-0.3c-0.3,0-0.8,0-1.4,0.3c-0.3,0.3-0.8,0.3-0.8,0.8c-0.3,0.3-0.6,0.6-0.8,0.8
			c0,0.3,0,0.3-0.3,0.6C74.8,112.4,74.8,112.4,74.8,112.9z"/>
		<path class="st1" d="M109.9,123.8h-0.3c-3,0-5.5-0.8-7.3-2.5c-1.9,1.9-4.7,2.5-8.4,2.5h-4.3c-0.6,0-1.1-0.3-1.4-0.8
			c-0.3-0.3-0.3-1.1-0.3-1.9v-0.4c0-0.8,0-1.4,0.3-1.9c0.3-0.8,0.8-0.8,1.7-0.8h4.3c1.1,0,2.2,0,3-0.3s1.4-0.6,1.7-1.1
			c0.3-0.3,0.3-1.1,0.3-1.9v-6.2v-0.6h0.8h4.3h0.8v0.8v6.2c0,1.4,0.3,2.2,0.8,2.8c0.6,0.6,1.9,0.8,3.4,0.8h0.3c0.3,0,0.6,0,0.8,0.3
			c0.3,0.3,0.3,0.3,0.3,0.6c0.3,0.3,0,0.6,0,0.8c0,0.3,0,0.3,0,0.8c0,0,0,0,0,0.3v0.3c0,0,0,0,0,0.3s0,0.3,0,0.3v0.3v0.3
			c0,0,0,0.3-0.3,0.3c0,0.3-0.3,0.3-0.3,0.3L109.9,123.8C110.5,123.8,110.1,123.8,109.9,123.8z M89.8,130.5l1.9-1.9
			c0.6-0.6,1.4-0.6,1.9,0l2.2,2.2c0.6,0.6,0.6,1.4,0,1.9l-1.9,1.9c-0.6,0.6-1.4,0.6-1.9,0l-2.2-2.2C89,131.8,89,131.3,89.8,130.5z
			 M98.2,130.5l1.9-1.9c0.6-0.6,1.4-0.6,1.9,0l2.2,2.2c0.6,0.6,0.6,1.4,0,1.9l-1.9,1.9c-0.6,0.6-1.4,0.6-1.9,0l-2.5-2.2
			C97.4,131.8,97.8,131.3,98.2,130.5z"/>
		<path class="st1" d="M134.1,123.8h-3c-1.4,0-3-0.3-4.3-0.3c-1.1,0-2.5-0.6-4-1.4c-2.5,1.1-5.5,1.9-8.4,1.9h-4.3
			c-0.6,0-1.1-0.3-1.4-0.8c-0.3-0.3-0.3-1.1-0.3-1.9V121c0-0.8,0.3-1.4,0.3-1.9c0.3-0.3,0.8-0.8,1.4-0.8h5.4c-0.8-1.4-1.4-3-1.4-5.1
			c0-2.5,0.8-4.7,2.5-6.5c1.9-1.7,4-2.5,6.5-2.5s4.7,0.8,6.5,2.5c0.3,0.3,0.8,0.8,0.8,1.4c0.3,0.6,0.6,0.8,0.8,1.4
			c0.3,0.3,0.3,0.8,0.3,1.7c0,0.8,0.3,1.1,0.3,1.9s0,1.9-0.3,2.5c-0.3,0.8-0.6,1.7-0.8,2.5h3.6c0.3,0,0.3,0,0.6,0s0.3,0.3,0.3,0.3
			c0,0.3,0.3,0.3,0.3,0.3s0,0.3,0,0.6s0,0.3,0,0.3v0.3c0,0,0,0,0,0.3v0.3c0,0,0,0,0,0.3s0,0.3,0,0.3v0.3c0,0.3,0,0.3,0,0.3v0.3
			c0,0.3,0,0.3-0.3,0.3l-0.3,0.3l-0.3,0.3C134.4,123.8,134.1,123.8,134.1,123.8z M119.1,95.3l1.9-1.9c0.6-0.6,1.4-0.8,1.9,0l2.5,2.2
			c0.6,0.6,0.6,1.4,0,1.9l-1.9,1.9c-0.6,0.6-1.4,0.6-1.9,0l-2.2-2.5C118.6,96.6,118.6,95.9,119.1,95.3z M119.1,112.9
			c0,0.8,0.3,1.7,0.8,2.5c0.8,0.8,1.4,0.8,2.5,0.8s1.9-0.3,2.5-0.8c0.6-0.6,0.8-1.4,0.8-2.5s-0.3-1.7-0.8-2.5
			c-0.3-0.3-0.6-0.6-0.8-0.8c-0.3-0.3-0.8-0.3-1.4-0.3c-0.3,0-0.8,0-1.4,0.3c-0.3,0.3-0.8,0.3-0.8,0.8l-0.3,0.3l-0.3,0.3
			c0,0,0,0.3-0.3,0.3v0.3v0.3C119.1,112.4,119.1,112.4,119.1,112.9z"/>
		<path class="st1" d="M154.7,119.5l-1.9,0.8c-3.6,1.9-7.3,2.8-11.5,2.8h-7.2c-0.6,0-1.1-0.3-1.4-0.8c-0.3-0.6-0.3-1.1-0.3-1.9v-0.3
			c0-0.8,0-1.4,0.3-1.9c0.3-0.8,0.8-0.8,1.7-0.8h6.9c1.7,0,3-0.3,4.7-0.3c1.4-0.3,2.8-0.8,4.3-1.4l5.4-2.5l-3-1.9
			c-1.9-0.8-3.6-1.7-5.5-1.7c-1.7,0-3,0.6-5.1,1.9l-1.7,1.4l-0.6,0.3l-0.3-0.6l-2.5-3l-0.6-0.6l0.6-0.3l1.4-1.1
			c2.5-1.9,5.4-3.4,8-3.6c2.5-0.3,5.5,0.3,8.4,1.9l4.3,2.5c0.3,0.3,0.8,0.3,1.4,0.8c0.3,0.3,0.8,0.3,1.4,0.3c0.3,0,0.8,0.3,1.1,0.3
			h0.6v0.6v4.3v0.3l-0.3,0.3l-2.5,1.4c0.8,0.3,1.9,0.8,3,0.8h2.8c0.3,0,0.6,0,0.8,0.3c0.3,0.3,0.3,0.3,0.3,0.6c0,0.4,0,0.6,0,0.8
			c0,0.3,0,0.3,0,0.8c0,0,0,0,0,0.3v0.3c0,0.6,0,1.4-0.3,1.7c-0.3,0.6-0.6,0.8-1.1,0.8h-2.5c-1.7,0-3-0.3-4.7-0.8
			C156.8,122,155.3,120.9,154.7,119.5z M143.9,94.8l1.9-1.9c0.6-0.6,1.4-0.8,1.9,0l2.5,2.2c0.6,0.6,0.6,1.4,0,1.9l-1.9,1.9
			c-0.6,0.6-1.4,0.6-1.9,0l-2.2-2.5C143,95.9,143,95.3,143.9,94.8z"/>
		<path class="st1" d="M165.3,123.8c-0.6,0-1.1-0.3-1.4-0.8c-0.3-0.3-0.3-1.1-0.3-1.9v-0.4c0-0.8,0.3-1.4,0.3-1.9
			c0.3-0.3,0.8-0.8,1.4-0.8h5.5c1.4,0,2.5-0.3,3-0.8c0.6-0.6,0.8-1.4,0.8-2.8v-6.6V107h0.8h4h0.8v0.8v6.6c0,3-0.8,5.5-2.5,6.9
			s-4,2.5-6.9,2.5H165.3L165.3,123.8L165.3,123.8z M166.2,97.4l1.9-1.9c0.6-0.6,1.4-0.6,1.9,0l2.2,2.2c0.6,0.6,0.6,1.4,0,1.9
			l-1.9,1.9c-0.6,0.6-1.4,0.6-1.9,0l-2.2-2.2C165.6,98.6,165.6,98.2,166.2,97.4z M174.5,97.4l1.9-1.9c0.6-0.6,1.4-0.6,1.9,0l2.2,2.2
			c0.6,0.6,0.6,1.4,0,1.9l-1.9,1.9c-0.6,0.6-1.4,0.6-1.9,0l-2.5-2.2C174,98.6,174,98.2,174.5,97.4z"/>
		<path class="st1" d="M191.1,95.3c0-1.4,0.3-2.5,1.7-3.4c0.8-0.8,2.2-1.4,3.6-1.4c1.4,0,2.5,0.3,3.6,1.4c0.3,0.3,0.3,0.3,0.6,0.6
			c0.4,0.4,0.3,0.6,0.3,0.8c0.3,0.3,0.3,0.6,0.3,0.8c0.3,0.3,0.3,0.6,0.3,0.8c0,0.3,0,0.8-0.3,1.1c0,0.3-0.3,0.3-0.3,0.3
			c0,0.3-0.3,0.3-0.3,0.3c-0.3,0.3-0.3,0.3-0.3,0.3c-0.3,0.3-0.3,0.6-0.8,0.8c-0.8,0.8-2.2,1.4-3.6,1.4s-2.5-0.3-3.6-1.4
			c-0.3-0.3-0.8-0.8-1.1-1.7C191.1,96.6,191.1,96.1,191.1,95.3z M211.2,89.2l4.3,2.2l0.8,0.3l-18.9,33.1l-0.8-0.3l-4-2.2l-0.8-0.3
			l18.9-32.9C210.3,89.2,211.2,89.2,211.2,89.2z M207.3,116.7L207.3,116.7L207.3,116.7v-0.2v-0.3v-0.3v-0.3c0-0.3,0-0.3,0.3-0.3
			c0-0.3,0-0.3,0-0.3v-0.3c0-0.3,0.3-0.3,0.3-0.3l0.3-0.3c0-0.3,0-0.3,0.3-0.3c0.3-0.3,0.3-0.3,0.3-0.3l0.3-0.3l0.3-0.3l0.3-0.3
			l0.3-0.3c0.3-0.3,0.3-0.3,0.3-0.3c0.8-0.8,2.2-1.4,3.6-1.4c0.3,0,0.8,0.3,1.1,0.3s0.3,0.3,0.6,0.3s0.3,0.3,0.3,0.3s0.3,0,0.3,0.3
			c0.3,0,0.3,0.3,0.3,0.3c0.3,0.3,0.6,0.3,0.8,0.8c0.8,0.8,1.7,2.2,1.7,3.4c0,1.1-0.3,2.5-1.7,3.4c-0.3,0.3-0.8,0.8-1.7,0.8
			c-0.6,0.3-1.1,0.3-1.9,0.3c-1.4,0-2.5-0.3-3.6-1.4C208,119.3,207.3,117.9,207.3,116.7z"/>
	</g>
	<g>
		<path class="st1" d="M243,108.2c-1.2,0-2.3-0.1-3.5-0.4c-1.1-0.2-2.2-0.6-3.2-1.1c0.2,1.8,0.4,3.5,0.5,5.2s0.2,3.2,0.3,4.8
			c0.1,1.6,0.1,3,0.1,4.6s0,2.9,0,4.4h-7.6c0-3.4-0.1-6.6-0.2-10c-0.1-3.2-0.4-6.4-0.8-9.3c-0.5-3-1-5.8-1.8-8.5
			c-0.8-2.6-1.8-5.1-3.2-7.1l6.5-4.1c0.6,0.9,1,1.7,1.5,2.5c0.5,0.7,0.8,1.6,1.2,2.3c0.6-0.9,1.3-1.7,2.1-2.3
			c0.8-0.6,1.7-1.2,2.6-1.6c0.9-0.5,1.8-0.7,2.9-0.9c1-0.2,2-0.3,3-0.3c0.7,0,1.4,0.1,2.1,0.2c0.7,0.1,1.4,0.3,2.1,0.6
			c0.7,0.3,1.4,0.6,2.1,1s1.4,0.9,2.1,1.6l-4,6.3c0,0-0.2-0.1-0.5-0.3c-0.3-0.2-0.6-0.4-1.2-0.6c-0.6-0.2-1.1-0.5-1.8-0.6
			c-0.7-0.2-1.5-0.3-2.3-0.3c-0.7,0-1.4,0.1-2.1,0.4c-0.7,0.3-1.4,0.6-1.9,1c-0.6,0.4-1,0.8-1.4,1.3s-0.5,0.9-0.4,1.4l0,0
			c0.1,0.6,0.4,0.9,0.8,1.3c0.5,0.4,1,0.6,1.8,0.7c0.7,0.2,1.4,0.4,2,0.4c0.7,0.1,1.4,0.1,1.9,0.1c0.6,0,1.2,0,1.8-0.1
			s1.4-0.2,2-0.4s1.4-0.4,2-0.6s1.3-0.6,1.8-0.9l3.1,6c-1.9,1.4-3.9,2.4-5.7,2.9C246.4,107.9,244.7,108.2,243,108.2z"/>
		<path class="st1" d="M254.8,110.5c0-1.3,0.3-2.4,0.7-3.7c0.5-1.1,1.1-2.1,1.9-3c0.8-0.8,1.8-1.5,2.9-1.9c1.1-0.5,2.3-0.7,3.7-0.7
			c1.3,0,2.4,0.3,3.7,0.7c1.1,0.5,2.1,1.1,3,1.9c0.8,0.8,1.5,1.8,1.9,3s0.7,2.3,0.7,3.7s-0.3,2.5-0.7,3.7c-0.5,1.1-1.1,2-1.9,2.9
			c-0.8,0.8-1.8,1.5-3,1.9c-1.1,0.5-2.3,0.7-3.7,0.7c-1.3,0-2.5-0.3-3.7-0.7c-1.1-0.5-2-1.1-2.9-1.9c-0.8-0.8-1.5-1.8-1.9-2.9
			C255.1,113,254.8,111.8,254.8,110.5z M260.4,110.5c0,0.5,0.1,1,0.3,1.4c0.2,0.5,0.5,0.8,0.7,1.2c0.4,0.4,0.7,0.6,1.2,0.7
			c0.5,0.2,0.9,0.3,1.4,0.3s1-0.1,1.4-0.3c0.5-0.2,0.8-0.5,1.2-0.7c0.4-0.4,0.6-0.7,0.8-1.2c0.2-0.5,0.3-0.9,0.3-1.4s-0.1-1-0.3-1.4
			c-0.2-0.5-0.5-0.8-0.8-1.2c-0.4-0.4-0.7-0.6-1.2-0.8c-0.5-0.2-0.9-0.3-1.4-0.3s-1,0.1-1.4,0.3c-0.5,0.2-0.8,0.5-1.2,0.8
			c-0.4,0.4-0.6,0.7-0.7,1.2C260.5,109.4,260.4,109.9,260.4,110.5z"/>
	</g>
</g>
<g>
	<path class="st2" d="M212.6,283.4h-93.4c-7.8,0-14-6.3-14-14v-79.3c0-7.8,6.3-14,14-14h93.4c7.8,0,14,6.3,14,14v79.3
		C226.6,277.1,220.4,283.4,212.6,283.4z"/>
	<path class="st1" d="M212.6,285.1h-93.4c-8.6,0-15.6-7.4-15.6-16.7v-77.5c0-9.1,7-16.7,15.6-16.7h93.4c8.6,0,15.6,7.4,15.6,16.7
		v77.6C228.2,277.7,221.2,285.1,212.6,285.1z M119.2,177.8c-6.9,0-12.4,6-12.4,13.3v77.5c0,7.3,5.6,13.3,12.4,13.3h93.4
		c6.9,0,12.4-6,12.4-13.3V191c0-7.3-5.6-13.3-12.4-13.3h-93.4C119.2,177.7,119.2,177.8,119.2,177.8z"/>
</g>
<g>
	<g>
		<path class="st1" d="M142.1,256.1c0.6,1.1,1.2,2,1.6,3.2c0.3,0.6,0.5,1.9,2,1.9c0.4,0,1.1-0.1,1.7-0.4c0.6-0.3,1.2-0.9,1.4-1.6
			l0.6-2l1.5-0.7l0.1,0.1c-0.2,0.7-0.2,1.5-0.2,2.1c0,1.7,1.5,2.3,2.7,2.3c0.6,0,1.3-0.3,1.3-1c0-0.9-0.3-2.2-0.7-3.4
			c0.6-0.6,1.4-1.4,2.1-1.9l0.1,0.1c0.3,1.5,0.5,2.9,0.5,3.8s-0.4,2-0.7,2.7c-0.7,1.4-2,2.4-3.5,2.4c-1.2,0-2.4-0.6-3.3-1.7l0,0
			c-0.9,1.1-2.1,1.9-4.1,1.9h-0.6c-0.1,1.4-0.4,2.3-0.9,3.2c-1.3,2.4-4.9,4.1-8.3,4.1c-4.8,0-7.1-2.8-7.1-6.4c0-2.2,0.7-4.4,1.9-5.8
			l1,0.4c-0.7,1.4-1.2,2.7-1.2,3.9c0,3.4,2.8,5.1,6,5.1c3,0,6.7-1.9,7.3-4.1c-0.2-2.4-1.2-3.5-2.6-5.7c0.4-0.7,1-1.5,1.6-2.2h-0.1
			v-0.3H142.1L142.1,256.1z"/>
		<path class="st1" d="M159.9,253.5l1.7,2.9c0.6,1.1,1.3,2.1,1.3,3.9v2.3c0,1.9-1.2,3.8-3.1,5.8c-1.5,1.4-2.9,1.9-4,1.9
			c-1.8,0-3.9-0.5-6.4-1.6l0.3-0.7c0.7,0.2,1.7,0.4,2.8,0.4c3.5,0,7-2.6,8.6-5.6c0.2-0.3,0.3-0.6,0.3-1c0-0.3-0.2-0.7-0.3-1.1
			c-0.9-1.7-1.9-3.2-3-4.6c0.5-0.9,1.2-1.8,1.7-2.7L159.9,253.5z"/>
		<path class="st1" d="M165,258.6c0.1,1.8,1,3.2,4,3.2c1.9,0,3.5-0.5,5.3-1.4c0.3-0.1,0.5-0.3,0.5-0.5c0-1.2-0.9-2.7-2.3-3.9
			c-1.4-1.3-3.3-2.4-5-3.2c-0.6-0.2-0.7-0.5-0.7-0.7c0-0.5,0.6-1.6,1.3-2.3h0.2c2,1.1,4.3,2.6,5.8,4.4c1.5,1.6,2.4,3.2,2.4,5
			c0,1.3-0.4,2.6-1.1,3.6c-2.2,1.1-4.6,1.9-6.8,1.9c-2.8,0-4.7-1.3-4.7-4.5c0-0.3,0-0.9,0.1-1.5h1V258.6z"/>
		<path class="st1" d="M179.7,264.7c0.2-1.3,0.3-2.8,0.3-4.1v-2c0-3.8-0.5-9.4-0.9-13c0.6-0.7,1.7-1.6,2.4-2.2l0.2,0.1
			c0.5,4.6,0.6,9.9,0.6,14.8c0,1.3,0,2.6-0.2,3.4c-0.1,1.2-0.7,2-2.1,3.4L179.7,264.7z"/>
		<path class="st1" d="M185.9,257.1c1.4,2.9,2.7,4.6,5.5,4.6h0.4v2.7h-0.5c-1.1,0-1.9-0.2-2.4-0.6h-0.1c0,0.2,0,0.5,0,0.7
			c0,1-0.3,2.2-1,3.3c-1.9,2.9-4,4.1-5.8,4.1s-4.1-0.7-6.2-1.6l0.3-0.7c0.6,0.3,1.6,0.4,2.9,0.4c3.3,0,7.7-3.2,8.2-6.3
			c-0.1-0.2-0.3-0.6-0.6-1c-1-1.2-1.6-2.1-2.1-3.1c0.5-1,1-1.7,1.4-2.4L185.9,257.1z"/>
		<path class="st1" d="M197.1,243.2c1,0.6,2,1.4,3,2.2c-0.5,0.7-1.2,1.5-2,2c-1-0.7-1.9-1.5-2.9-2.1
			C195.7,244.6,196.5,243.9,197.1,243.2z M197.6,252.6c-1.6,0-3,1.1-3,1.9c0,1.7,3.3,2.2,7.1,2.2
			C201.2,254.6,199.5,252.6,197.6,252.6z M193.9,261.6c2.1,0,3.9-0.1,5.3-0.4c1.6-0.4,2.9-1.2,2.9-1.7c0-0.1,0-0.3,0-0.4
			c-0.9,0.1-1.9,0.1-2.8,0.1c-2.9,0-5-0.6-6-2.2c-0.2-0.4-0.3-1-0.3-1.5c0-1.6,0.6-3.1,1.8-4.1c1-0.9,2-1.4,3.2-1.4
			c2,0,3.6,1.6,4.7,4.1c0.6,1.4,1.1,3,1.1,5c0,1.4-0.3,2.4-1.2,3.3c-1.6,1.5-4.4,2-8.8,2h-2c-1.4,0-1.7-0.9-1.7-1.4s0.4-1.3,1.7-1.3
			h2.1V261.6z"/>
	</g>
	<g>
		<path class="st1" d="M165.3,229.1c0-0.5-0.5-1.3-1.3-1.8c-1.4-1-2.8-1.8-4.1-2.7c-0.7-0.4-1.3-0.3-1.4,0.1c-0.1,1-0.1,1.9-0.2,2.9
			c0,0.5,0.5,1.3,1.3,1.7c1.5,0.9,2.9,1.7,4.3,2.7c0.7,0.5,1.3,0.5,1.3,0C165.3,231,165.3,230,165.3,229.1z"/>
		<path class="st1" d="M157.3,229.5c0-0.5-0.5-1.3-1.3-1.6c-1.5-0.7-3-1.5-4.5-2.1c-0.7-0.3-1.5-0.2-1.5,0.3c-0.1,1-0.2,1.9-0.3,2.9
			c-0.1,0.5,0.5,1.2,1.4,1.5c1.6,0.6,3.1,1.4,4.7,2.2c0.7,0.4,1.5,0.3,1.5-0.2C157.2,231.4,157.2,230.5,157.3,229.5z"/>
		<path class="st1" d="M165.3,234.4c0-0.5-0.5-1.3-1.3-1.8c-1.4-1-2.9-1.8-4.3-2.7c-0.7-0.4-1.4-0.3-1.4,0.1c-0.1,1-0.1,1.9-0.2,2.9
			c0,0.5,0.5,1.3,1.4,1.7c1.5,0.9,3,1.7,4.5,2.7c0.7,0.5,1.4,0.5,1.4,0C165.3,236.4,165.3,235.4,165.3,234.4z"/>
		<path class="st1" d="M173.2,224.7c0-0.5-0.6-0.5-1.4-0.1c-1.4,0.9-2.8,1.7-4.1,2.7c-0.6,0.5-1.3,1.3-1.3,1.8c0,1,0,1.9,0,2.9
			c0,0.5,0.5,0.5,1.3,0c1.4-1,2.9-1.8,4.3-2.7c0.7-0.4,1.3-1.2,1.3-1.7C173.3,226.6,173.2,225.7,173.2,224.7z"/>
		<path class="st1" d="M173.4,230c0-0.5-0.6-0.5-1.4-0.1c-1.5,0.9-2.9,1.7-4.3,2.7c-0.7,0.5-1.3,1.3-1.3,1.8c0,1,0,1.9,0,2.9
			c0,0.5,0.6,0.5,1.4,0c1.5-1,3-1.8,4.5-2.7c0.7-0.4,1.4-1.2,1.4-1.7C173.5,232,173.5,231,173.4,230z"/>
		<path class="st1" d="M181.8,226c-0.1-0.5-0.7-0.6-1.5-0.3c-1.5,0.6-3,1.4-4.5,2.1c-0.7,0.4-1.4,1.2-1.3,1.6c0.1,1,0.1,1.9,0.2,2.9
			c0,0.5,0.6,0.5,1.5,0.2c1.5-0.7,3.1-1.5,4.7-2.2c0.9-0.3,1.4-1.1,1.4-1.5C182,227.9,181.9,227,181.8,226z"/>
		<path class="st3" d="M204.1,208.9c-0.2-0.4-0.9-0.9-1.6-0.7c-1.4,0.1-2.9,0.3-4.3,0.5c-0.7,0.1-1.2,0.6-1.1,1.1
			c0.2,1,0.5,1.9,0.7,2.8c0.1,0.5,0.9,0.7,1.6,0.6c1.5-0.2,3-0.4,4.5-0.6c0.7-0.1,1.3-0.5,1.1-1
			C204.6,210.8,204.3,209.9,204.1,208.9z M159,202.6c0-0.5-0.4-1.3-1.1-1.6c-1.2-0.7-2.3-1.5-3.5-2.1c-0.6-0.3-1.2-0.2-1.2,0.3
			c-0.1,1-0.2,1.9-0.3,2.9c-0.1,0.5,0.4,1.2,1.1,1.5c1.3,0.6,2.4,1.4,3.7,2.1c0.6,0.4,1.2,0.3,1.2-0.2
			C158.9,204.5,159,203.6,159,202.6z M133.2,215.1c0.1-0.5-0.4-1-1.2-1.2c-1.5-0.2-3-0.4-4.5-0.6c-0.7-0.1-1.5,0.2-1.7,0.7
			c-0.3,1-0.6,1.8-1,2.8c-0.2,0.4,0.3,1,1.2,1c1.5,0.2,3.1,0.4,4.6,0.6c0.7,0.1,1.5-0.1,1.7-0.6C132.7,217,133,216,133.2,215.1z
			 M134.7,209.9c0.1-0.5-0.3-1-1.1-1.1c-1.4-0.2-2.9-0.4-4.3-0.5c-0.7-0.1-1.5,0.3-1.6,0.7c-0.3,1-0.6,1.8-1,2.8
			c-0.2,0.4,0.3,0.9,1.1,1c1.5,0.1,3,0.3,4.5,0.6c0.7,0.1,1.5-0.1,1.6-0.6C134.2,211.8,134.4,210.8,134.7,209.9z M136.1,204.7
			c0.1-0.5-0.3-1-1-1.1c-1.4-0.2-2.7-0.4-4-0.5c-0.6-0.1-1.4,0.3-1.6,0.7c-0.3,1-0.6,1.8-1,2.8c-0.2,0.4,0.3,0.9,1,1
			c1.4,0.1,2.9,0.3,4.3,0.5c0.7,0.1,1.4-0.1,1.6-0.6C135.6,206.6,135.9,205.6,136.1,204.7z M137.6,199.4c0.1-0.4-0.3-1-1-1.1
			c-1.3-0.2-2.6-0.3-3.8-0.4c-0.6,0-1.3,0.3-1.5,0.7c-0.3,1-0.6,1.8-1,2.8c-0.2,0.4,0.2,0.9,1,1c1.4,0.1,2.7,0.3,4,0.5
			c0.6,0.1,1.4-0.2,1.5-0.6C137,201.4,137.3,200.4,137.6,199.4z M139.1,194.2c0.1-0.5-0.2-1-0.9-1.1c-1.3-0.2-2.4-0.3-3.7-0.4
			c-0.6,0-1.3,0.3-1.4,0.7c-0.3,1-0.6,1.8-1,2.8c-0.2,0.4,0.2,0.9,0.9,1c1.3,0.1,2.6,0.2,3.8,0.4c0.6,0.1,1.3-0.2,1.4-0.6
			C138.5,196.1,138.7,195.2,139.1,194.2z M145.8,196c0.1-0.5-0.3-1.1-1-1.3c-1.2-0.4-2.4-0.7-3.6-1c-0.6-0.1-1.3,0.1-1.4,0.6
			c-0.2,1-0.5,1.9-0.7,2.8c-0.1,0.5,0.3,1,1,1.2c1.3,0.3,2.6,0.6,3.8,1.1c0.6,0.2,1.3,0,1.4-0.5C145.4,198,145.7,197,145.8,196z
			 M143.6,206.6c0.1-0.5-0.4-1.1-1.1-1.3c-1.4-0.4-2.7-0.7-4-1.1c-0.6-0.1-1.4,0.1-1.5,0.6c-0.2,1-0.5,1.9-0.7,2.8
			c-0.1,0.5,0.3,1,1.1,1.2c1.4,0.3,2.8,0.7,4.3,1.1c0.7,0.2,1.4,0,1.5-0.5C143.2,208.5,143.4,207.5,143.6,206.6z M151.1,209.5
			c0.1-0.5-0.4-1.2-1.1-1.5c-1.3-0.5-2.7-1.1-4-1.6c-0.6-0.2-1.3,0-1.4,0.4c-0.2,1-0.3,1.9-0.5,2.9c-0.1,0.5,0.4,1.1,1.2,1.3
			c1.4,0.5,2.8,1.1,4.1,1.6c0.7,0.3,1.4,0.1,1.4-0.3C150.9,211.5,151,210.5,151.1,209.5z M152.6,198.8c0.1-0.5-0.4-1.2-1-1.4
			c-1.2-0.5-2.4-1.1-3.6-1.5c-0.6-0.2-1.2,0-1.3,0.4c-0.2,1-0.3,1.9-0.5,2.9c-0.1,0.5,0.3,1.1,1,1.3c1.3,0.4,2.6,1,3.7,1.6
			c0.6,0.3,1.2,0.1,1.3-0.3C152.2,200.7,152.4,199.8,152.6,198.8z M181.2,220.6c-0.1-0.5-0.7-0.6-1.5-0.3c-1.5,0.6-2.9,1.4-4.3,2.1
			c-0.7,0.4-1.3,1.2-1.3,1.6c0.1,1,0.1,1.9,0.2,2.9c0,0.5,0.6,0.5,1.4,0.2c1.5-0.7,3-1.5,4.5-2.1c0.7-0.3,1.4-1.1,1.3-1.5
			C181.4,222.5,181.3,221.5,181.2,220.6z M180.4,215.3c-0.1-0.5-0.6-0.6-1.4-0.3c-1.4,0.6-2.8,1.4-4.1,2.1c-0.7,0.4-1.3,1.2-1.2,1.6
			c0.1,1,0.1,1.9,0.2,2.9c0,0.5,0.6,0.5,1.4,0.2c1.4-0.7,2.9-1.5,4.3-2.1c0.7-0.3,1.3-1,1.2-1.5
			C180.7,217.2,180.6,216.2,180.4,215.3z M179.8,210c-0.1-0.5-0.6-0.6-1.3-0.3c-1.3,0.6-2.7,1.4-3.9,2.1c-0.6,0.4-1.2,1.1-1.2,1.6
			c0.1,1,0.1,1.9,0.2,2.9c0,0.5,0.6,0.5,1.3,0.2c1.4-0.7,2.8-1.5,4-2.1c0.7-0.3,1.2-1,1.2-1.5C180,211.9,179.9,210.9,179.8,210z
			 M179.1,204.5c-0.1-0.5-0.6-0.6-1.3-0.3c-1.3,0.6-2.4,1.4-3.7,2.1c-0.6,0.4-1.1,1.1-1.1,1.6c0.1,1,0.1,1.9,0.2,2.9
			c0,0.5,0.6,0.5,1.3,0.2c1.3-0.7,2.6-1.5,3.9-2.1c0.6-0.3,1.2-1,1.1-1.5C179.3,206.5,179.2,205.5,179.1,204.5z M178.5,199.2
			c-0.1-0.5-0.6-0.6-1.2-0.3c-1.2,0.6-2.3,1.4-3.5,2.1c-0.6,0.4-1.1,1.1-1.1,1.6c0.1,1,0.1,1.9,0.2,2.9c0,0.5,0.5,0.5,1.2,0.2
			c1.3-0.7,2.4-1.5,3.7-2.1c0.6-0.3,1.1-1,1.1-1.5C178.7,201.1,178.6,200.2,178.5,199.2z M185.2,196.4c-0.1-0.5-0.6-0.7-1.3-0.4
			c-1.2,0.4-2.4,1-3.6,1.5c-0.6,0.3-1.1,1-1,1.4c0.1,1,0.2,1.9,0.4,2.9c0.1,0.5,0.6,0.6,1.3,0.3c1.3-0.5,2.6-1.1,3.7-1.6
			c0.6-0.2,1.1-0.9,1-1.3C185.5,198.2,185.3,197.3,185.2,196.4z M189.3,217.5c-0.1-0.5-0.7-0.6-1.5-0.4c-1.5,0.5-3,1.1-4.4,1.7
			c-0.7,0.3-1.3,1-1.3,1.5c0.1,1,0.2,1.9,0.4,2.9c0.1,0.5,0.7,0.6,1.5,0.3c1.5-0.6,3.1-1.2,4.6-1.7c0.7-0.2,1.4-0.9,1.3-1.4
			C189.7,219.4,189.4,218.5,189.3,217.5z M197.5,215.3c-0.1-0.5-0.9-0.7-1.6-0.5c-1.5,0.3-3,0.7-4.5,1.2c-0.7,0.2-1.3,0.9-1.2,1.3
			c0.2,1,0.4,1.9,0.5,2.9c0.1,0.5,0.9,0.6,1.6,0.4c1.5-0.4,3.1-0.9,4.6-1.2c0.7-0.2,1.3-0.7,1.2-1.2
			C198,217.2,197.8,216.2,197.5,215.3z M191.9,194.4c-0.1-0.5-0.7-0.7-1.4-0.6c-1.2,0.3-2.4,0.6-3.6,1c-0.6,0.2-1.1,0.7-1,1.3
			c0.2,1,0.4,1.9,0.5,2.9c0.1,0.5,0.7,0.7,1.4,0.5c1.3-0.4,2.6-0.7,3.8-1.1c0.6-0.1,1.1-0.6,1-1.2
			C192.4,196.4,192.2,195.4,191.9,194.4z M200.6,198.7c-0.2-0.4-0.9-0.9-1.5-0.7c-1.3,0.1-2.6,0.2-3.8,0.4c-0.6,0.1-1.1,0.6-1,1.1
			c0.2,1,0.5,1.9,0.7,2.8c0.1,0.5,0.7,0.7,1.5,0.6c1.4-0.2,2.7-0.4,4-0.5c0.6-0.1,1.1-0.4,1-1C201.1,200.6,200.8,199.7,200.6,198.7z
			 M202.3,203.8c-0.2-0.4-0.9-0.9-1.6-0.7c-1.4,0.1-2.7,0.3-4,0.5c-0.6,0.1-1.2,0.6-1,1.1c0.2,1,0.5,1.9,0.7,2.8
			c0.1,0.5,0.9,0.7,1.6,0.6c1.4-0.2,2.9-0.4,4.3-0.5c0.7-0.1,1.2-0.5,1-1C202.9,205.7,202.6,204.8,202.3,203.8z"/>
		<path class="st1" d="M133,191.3c-0.2,0.4-0.9,0.9-1.4,0.9c-1.3,0-2.4,0.1-3.7,0.2c-0.6,0.1-1-0.2-0.7-0.6c0.3-0.9,0.7-1.8,1.1-2.7
			c0.2-0.4,0.9-1,1.5-1c1.2-0.1,2.3-0.2,3.5-0.3c0.6,0,1,0.3,0.7,0.9C133.6,189.5,133.3,190.3,133,191.3z"/>
		<path class="st1" d="M140.4,189.1c0.1-0.5-0.2-1-0.9-1.1c-1.2-0.2-2.3-0.3-3.5-0.3c-0.6,0-1.2,0.3-1.4,0.9c-0.3,1-0.6,1.8-1,2.8
			c-0.2,0.4,0.2,0.9,0.9,1c1.3,0.1,2.4,0.2,3.6,0.4c0.6,0.1,1.3-0.2,1.4-0.6C139.9,190.9,140.2,190,140.4,189.1z"/>
		<path class="st1" d="M146.9,190.7c0.1-0.5-0.3-1.1-0.9-1.3c-1.2-0.3-2.3-0.6-3.4-1c-0.6-0.1-1.2,0.2-1.3,0.6
			c-0.2,1-0.5,1.9-0.7,2.8c-0.1,0.5,0.3,1,0.9,1.1c1.2,0.3,2.4,0.6,3.6,1c0.6,0.2,1.2,0,1.3-0.5
			C146.5,192.6,146.7,191.7,146.9,190.7z"/>
		<path class="st1" d="M153.2,193.5c0.1-0.5-0.3-1.2-1-1.4c-1.2-0.5-2.2-1.1-3.4-1.5c-0.5-0.2-1.2,0-1.3,0.5c-0.2,1-0.3,1.9-0.5,2.9
			c-0.1,0.5,0.3,1.1,1,1.3c1.2,0.4,2.3,1,3.6,1.5c0.6,0.3,1.2,0.1,1.2-0.3C153,195.4,153.1,194.4,153.2,193.5z"/>
		<path class="st1" d="M159.5,197.2c0-0.5-0.4-1.2-1-1.6c-1.1-0.7-2.2-1.4-3.3-2c-0.5-0.3-1.1-0.2-1.2,0.3c-0.1,1-0.2,1.9-0.3,2.9
			c-0.1,0.5,0.4,1.2,1,1.5c1.2,0.6,2.3,1.4,3.5,2.1c0.6,0.4,1.1,0.3,1.2-0.2C159.4,199.1,159.4,198.2,159.5,197.2z"/>
		<path class="st1" d="M165.4,202.1c0-0.5-0.4-1.3-1-1.8c-1.1-1-2.1-1.8-3.2-2.7c-0.5-0.4-1.1-0.3-1.1,0.1c-0.1,1-0.1,1.9-0.2,2.9
			c0,0.5,0.4,1.3,1,1.7c1.2,0.9,2.2,1.7,3.4,2.7c0.5,0.5,1.1,0.5,1.1,0C165.4,204,165.4,203.1,165.4,202.1z"/>
		<path class="st1" d="M132.2,193.6c0.2-0.4-0.2-0.9-0.9-0.9c-1.3,0-2.4,0.1-3.7,0.2c-0.6,0.1-1.3,0.5-1.5,1
			c-0.3,0.9-0.7,1.8-1.1,2.7c-0.2,0.4,0.2,0.7,0.9,0.7c1.3-0.1,2.6-0.2,3.8-0.2c0.6,0,1.3-0.3,1.5-0.9
			C131.5,195.4,131.8,194.6,132.2,193.6z"/>
		<path class="st1" d="M165.4,207.4c0-0.5-0.4-1.3-1.1-1.8c-1.2-1-2.2-1.8-3.4-2.7c-0.6-0.4-1.1-0.3-1.1,0.1c-0.1,1-0.1,1.9-0.2,2.9
			c0,0.5,0.4,1.3,1.1,1.7c1.2,0.9,2.4,1.7,3.6,2.7c0.6,0.5,1.1,0.5,1.1,0C165.4,209.4,165.4,208.5,165.4,207.4z"/>
		<path class="st1" d="M130.4,198.7c0.2-0.4-0.2-0.9-0.9-0.9c-1.3,0-2.6,0-3.9,0.1c-0.6,0.1-1.4,0.5-1.5,1c-0.3,0.9-0.7,1.8-1.1,2.7
			c-0.2,0.4,0.2,0.7,0.9,0.7c1.4-0.1,2.7-0.1,4-0.1c0.6,0,1.4-0.3,1.6-0.9C129.7,200.5,130,199.7,130.4,198.7z"/>
		<path class="st1" d="M144.7,201.4c0.1-0.5-0.3-1.1-1-1.3c-1.3-0.4-2.6-0.7-3.8-1.1c-0.6-0.1-1.3,0.1-1.4,0.6
			c-0.2,1-0.5,1.9-0.7,2.8c-0.1,0.5,0.3,1,1,1.2c1.4,0.3,2.7,0.6,4,1.1c0.6,0.2,1.3,0,1.4-0.5C144.4,203.2,144.5,202.3,144.7,201.4z
			"/>
		<path class="st1" d="M151.8,204.1c0.1-0.5-0.4-1.2-1.1-1.4c-1.3-0.5-2.6-1.1-3.8-1.6c-0.6-0.2-1.3,0-1.4,0.4
			c-0.2,1-0.3,1.9-0.5,2.9c-0.1,0.5,0.4,1.1,1.1,1.3c1.4,0.5,2.7,1.1,3.9,1.6c0.6,0.3,1.3,0.1,1.4-0.3
			C151.5,206,151.7,205.1,151.8,204.1z"/>
		<path class="st1" d="M158.7,207.9c0-0.5-0.4-1.3-1.1-1.6c-1.3-0.7-2.4-1.5-3.7-2.1c-0.6-0.3-1.2-0.2-1.3,0.3
			c-0.1,1-0.2,1.9-0.3,2.9c-0.1,0.5,0.4,1.2,1.1,1.5c1.3,0.6,2.7,1.4,3.9,2.1c0.6,0.4,1.2,0.3,1.3-0.2
			C158.6,209.9,158.7,208.9,158.7,207.9z"/>
		<path class="st1" d="M165.4,212.8c0-0.5-0.5-1.3-1.1-1.8c-1.2-1-2.3-1.8-3.6-2.7c-0.6-0.4-1.2-0.3-1.2,0.1c-0.1,1-0.1,1.9-0.2,2.9
			c0,0.5,0.4,1.3,1.2,1.7c1.3,0.9,2.6,1.7,3.7,2.7c0.6,0.5,1.2,0.5,1.2,0C165.4,214.7,165.4,213.8,165.4,212.8z"/>
		<path class="st1" d="M128.5,203.8c0.2-0.4-0.2-0.9-1-0.9c-1.4,0-2.7,0-4,0.1c-0.6,0-1.4,0.4-1.6,1c-0.3,0.9-0.7,1.8-1.1,2.7
			c-0.2,0.4,0.2,0.7,1,0.7c1.4-0.1,2.8-0.1,4.1,0c0.7,0,1.4-0.3,1.6-0.7C127.9,205.6,128.2,204.7,128.5,203.8z"/>
		<path class="st1" d="M158.4,213.4c0-0.5-0.4-1.3-1.2-1.6c-1.3-0.7-2.6-1.5-3.9-2.1c-0.6-0.3-1.3-0.2-1.3,0.3
			c-0.1,1-0.2,1.9-0.3,2.9c-0.1,0.5,0.4,1.2,1.2,1.5c1.4,0.6,2.8,1.4,4,2.1c0.6,0.4,1.3,0.3,1.3-0.2
			C158.3,215.3,158.3,214.3,158.4,213.4z"/>
		<path class="st1" d="M165.4,218.3c0-0.5-0.5-1.3-1.2-1.8c-1.3-1-2.4-1.8-3.7-2.7c-0.6-0.4-1.2-0.3-1.3,0.1c-0.1,1-0.1,1.9-0.2,2.9
			c0,0.5,0.5,1.3,1.2,1.7c1.3,0.9,2.7,1.7,3.9,2.7c0.6,0.5,1.2,0.5,1.2,0C165.4,220.2,165.4,219.2,165.4,218.3z"/>
		<path class="st1" d="M126.7,208.9c0.2-0.4-0.3-0.9-1-1c-1.4,0-2.9,0-4.3,0c-0.7,0-1.5,0.4-1.6,1c-0.3,0.9-0.7,1.8-1.1,2.7
			c-0.2,0.4,0.2,0.7,1,0.7c1.5,0,2.9,0,4.4,0c0.7,0,1.5-0.3,1.7-0.7C126.1,210.7,126.4,209.8,126.7,208.9z"/>
		<path class="st1" d="M142.6,211.9c0.1-0.5-0.4-1.1-1.2-1.3c-1.4-0.4-2.9-0.7-4.3-1.1c-0.7-0.2-1.4,0.1-1.6,0.5
			c-0.2,1-0.5,1.9-0.7,2.8c-0.1,0.5,0.4,1,1.2,1.2c1.5,0.3,3,0.7,4.5,1.2c0.7,0.2,1.5,0,1.5-0.4
			C142.1,213.8,142.4,212.8,142.6,211.9z"/>
		<path class="st1" d="M150.4,214.9c0.1-0.5-0.4-1.2-1.2-1.5c-1.4-0.6-2.8-1.2-4.3-1.6c-0.7-0.2-1.4,0-1.5,0.4
			c-0.2,1-0.3,1.9-0.5,2.9c-0.1,0.5,0.4,1.1,1.2,1.4c1.5,0.5,3,1.1,4.4,1.7c0.7,0.3,1.4,0.2,1.5-0.3
			C150.1,216.8,150.2,215.8,150.4,214.9z"/>
		<path class="st1" d="M158.1,218.8c0-0.5-0.5-1.3-1.2-1.6c-1.4-0.7-2.8-1.5-4.1-2.1c-0.7-0.3-1.3-0.2-1.4,0.3
			c-0.1,1-0.2,1.9-0.3,2.9c-0.1,0.5,0.5,1.2,1.2,1.5c1.5,0.6,2.9,1.4,4.3,2.1c0.7,0.4,1.3,0.3,1.4-0.2
			C157.9,220.7,158,219.7,158.1,218.8z"/>
		<path class="st1" d="M165.4,223.7c0-0.5-0.5-1.3-1.2-1.8c-1.3-1-2.7-1.8-3.9-2.7c-0.6-0.4-1.3-0.3-1.3,0.1c-0.1,1-0.1,1.9-0.2,2.9
			c0,0.5,0.5,1.3,1.3,1.7c1.4,0.9,2.8,1.7,4.1,2.7c0.6,0.5,1.3,0.5,1.3,0C165.4,225.6,165.4,224.6,165.4,223.7z"/>
		<path class="st1" d="M124.9,214c0.2-0.4-0.3-0.9-1.1-1c-1.5-0.1-3-0.1-4.4,0c-0.7,0-1.5,0.4-1.7,0.9c-0.3,0.9-0.7,1.8-1.1,2.7
			c-0.2,0.4,0.3,0.9,1.1,0.7c1.5,0,3,0,4.6,0.1c0.7,0,1.5-0.3,1.7-0.7C124.3,215.8,124.6,214.9,124.9,214z"/>
		<path class="st1" d="M141.5,217.2c0.1-0.5-0.4-1.1-1.2-1.3c-1.5-0.4-3-0.9-4.5-1.2c-0.7-0.2-1.5,0.1-1.6,0.5
			c-0.2,1-0.5,1.9-0.7,2.8c-0.1,0.5,0.4,1,1.2,1.2c1.5,0.3,3.1,0.7,4.6,1.2c0.7,0.2,1.5,0,1.6-0.4
			C141.1,219.1,141.3,218.1,141.5,217.2z"/>
		<path class="st1" d="M149.7,220.2c0.1-0.5-0.5-1.2-1.3-1.5c-1.5-0.6-3-1.2-4.4-1.7c-0.7-0.2-1.5-0.1-1.5,0.4
			c-0.2,1-0.3,1.9-0.5,2.9c-0.1,0.5,0.4,1.1,1.3,1.4c1.5,0.5,3.1,1.1,4.6,1.7c0.7,0.3,1.5,0.2,1.5-0.3
			C149.4,222.1,149.6,221.1,149.7,220.2z"/>
		<path class="st1" d="M157.7,224.1c0-0.5-0.5-1.3-1.3-1.6c-1.4-0.7-2.9-1.5-4.3-2.1c-0.7-0.3-1.4-0.2-1.5,0.3
			c-0.1,1-0.2,1.9-0.3,2.9c-0.1,0.5,0.5,1.2,1.3,1.5c1.5,0.6,3,1.4,4.5,2.1c0.7,0.4,1.4,0.3,1.4-0.2
			C157.6,226,157.7,225.1,157.7,224.1z"/>
		<path class="st1" d="M123.1,219.1c0.2-0.4-0.3-0.9-1.1-1c-1.5-0.1-3.1-0.1-4.6-0.1c-0.7,0-1.5,0.4-1.7,0.9
			c-0.3,0.9-0.7,1.8-1.1,2.7c-0.2,0.4,0.3,0.9,1.1,0.9c1.6,0,3.1,0,4.7,0.1c0.9,0.1,1.6-0.2,1.8-0.7
			C122.5,220.9,122.8,220,123.1,219.1z"/>
		<path class="st1" d="M131.7,220.3c0.1-0.5-0.4-1-1.2-1.2c-1.6-0.3-3.1-0.5-4.7-0.6c-0.7-0.1-1.6,0.2-1.7,0.7c-0.3,1-0.6,1.8-1,2.8
			c-0.2,0.4,0.3,1,1.2,1.1c1.6,0.2,3.2,0.4,4.8,0.7c0.9,0.1,1.6-0.1,1.7-0.5C131.2,222.2,131.5,221.2,131.7,220.3z"/>
		<path class="st1" d="M140.4,222.5c0.1-0.5-0.4-1.1-1.3-1.3c-1.6-0.4-3.1-0.9-4.7-1.2c-0.7-0.2-1.5,0.1-1.7,0.5
			c-0.2,1-0.5,1.9-0.7,2.8c-0.1,0.5,0.4,1,1.3,1.2c1.6,0.3,3.2,0.7,4.8,1.3c0.9,0.2,1.6,0,1.7-0.4
			C140,224.3,140.2,223.5,140.4,222.5z"/>
		<path class="st1" d="M148.9,225.6c0.1-0.5-0.5-1.2-1.3-1.5c-1.5-0.6-3.1-1.2-4.6-1.7c-0.7-0.2-1.5-0.1-1.6,0.4
			c-0.2,1-0.3,1.9-0.5,2.9c-0.1,0.5,0.5,1.1,1.3,1.4c1.6,0.5,3.2,1.1,4.8,1.7c0.9,0.3,1.5,0.2,1.6-0.3
			C148.7,227.5,148.8,226.5,148.9,225.6z"/>
		<path class="st1" d="M171.8,200.6c0,0.5-0.4,1.3-1,1.7c-1.2,0.9-2.2,1.7-3.4,2.7c-0.5,0.5-1.1,0.5-1.1,0c0-1,0-1.9,0-2.9
			c0-0.5,0.4-1.3,1-1.8c1.1-1,2.1-1.8,3.2-2.7c0.5-0.4,1.1-0.3,1.1,0.1C171.7,198.7,171.7,199.7,171.8,200.6z"/>
		<path class="st1" d="M177.7,193.8c-0.1-0.5-0.5-0.6-1.2-0.3c-1.2,0.6-2.2,1.3-3.3,2c-0.5,0.4-1,1.1-1,1.6c0.1,1,0.1,1.9,0.2,2.9
			c0,0.5,0.5,0.5,1.2,0.2c1.2-0.7,2.3-1.5,3.5-2.1c0.6-0.3,1.1-1,1-1.5C178.1,195.8,178,194.8,177.7,193.8z"/>
		<path class="st1" d="M184.1,191c-0.1-0.5-0.6-0.7-1.3-0.5c-1.2,0.4-2.2,1-3.4,1.5c-0.5,0.3-1,1-1,1.4c0.1,1,0.2,1.9,0.4,2.9
			c0.1,0.5,0.6,0.6,1.2,0.3c1.2-0.5,2.3-1.1,3.6-1.5c0.6-0.2,1.1-0.9,1-1.3C184.4,193,184.3,192,184.1,191z"/>
		<path class="st1" d="M190.5,189.2c-0.1-0.5-0.7-0.7-1.3-0.6c-1.2,0.2-2.3,0.5-3.4,1c-0.5,0.2-1,0.7-0.9,1.3c0.2,1,0.4,1.9,0.5,2.9
			c0.1,0.5,0.6,0.7,1.3,0.5c1.2-0.4,2.4-0.7,3.6-1c0.6-0.1,1.1-0.6,0.9-1.1C191,191.2,190.8,190.2,190.5,189.2z"/>
		<path class="st1" d="M197.1,188.5c-0.2-0.4-0.7-0.9-1.4-0.9c-1.2,0.1-2.3,0.2-3.5,0.3c-0.6,0.1-1,0.5-0.9,1.1
			c0.2,1,0.5,1.9,0.7,2.8c0.1,0.5,0.7,0.7,1.4,0.6c1.2-0.2,2.4-0.3,3.6-0.4c0.6,0,1-0.4,0.9-1C197.6,190.4,197.3,189.5,197.1,188.5z
			"/>
		<path class="st1" d="M203.7,188.9c-0.2-0.4-0.9-1-1.5-1c-1.2-0.1-2.3-0.2-3.5-0.3c-0.6,0-1,0.3-0.7,0.9c0.3,1,0.6,1.8,1,2.8
			c0.2,0.4,0.9,0.9,1.4,0.9c1.3,0,2.4,0.1,3.7,0.2c0.6,0.1,1-0.2,0.7-0.6C204.4,190.7,204,189.9,203.7,188.9z"/>
		<path class="st1" d="M171.9,203.2c0-0.5-0.5-0.5-1.1-0.1c-1.2,0.9-2.3,1.7-3.4,2.7c-0.5,0.5-1.1,1.3-1.1,1.8c0,1,0,1.9,0,2.9
			c0,0.5,0.5,0.5,1.1,0c1.2-1,2.3-1.8,3.6-2.7c0.6-0.4,1.1-1.2,1.1-1.7C172,205.1,172,204.1,171.9,203.2z"/>
		<path class="st1" d="M198.8,193.6c-0.2-0.4-0.9-0.9-1.4-0.7c-1.3,0.1-2.4,0.2-3.7,0.4c-0.6,0.1-1.1,0.5-0.9,1.1
			c0.2,1,0.5,1.9,0.7,2.8c0.1,0.5,0.7,0.7,1.4,0.6c1.3-0.2,2.6-0.3,3.8-0.4c0.6,0,1.1-0.4,0.9-1
			C199.4,195.5,199.1,194.6,198.8,193.6z"/>
		<path class="st1" d="M205.7,193.9c-0.2-0.4-0.9-1-1.5-1c-1.3-0.1-2.4-0.2-3.7-0.2c-0.6,0-1,0.4-0.9,0.9c0.3,1,0.6,1.8,1,2.8
			c0.2,0.4,0.9,0.9,1.5,0.9c1.3,0,2.6,0,3.8,0.2c0.6,0.1,1.1-0.2,0.9-0.7C206.4,195.7,206,194.9,205.7,193.9z"/>
		<path class="st1" d="M172.2,208.5c0-0.5-0.5-0.5-1.2-0.1c-1.2,0.9-2.4,1.7-3.6,2.7c-0.6,0.5-1.1,1.3-1.1,1.8c0,1,0,1.9,0,2.9
			c0,0.5,0.5,0.5,1.2,0c1.3-1,2.4-1.8,3.7-2.7c0.6-0.4,1.2-1.2,1.2-1.7C172.3,210.5,172.2,209.5,172.2,208.5z"/>
		<path class="st1" d="M186.1,201.6c-0.1-0.5-0.7-0.7-1.4-0.4c-1.3,0.4-2.6,1-3.8,1.6c-0.6,0.3-1.1,1-1.1,1.4c0.1,1,0.2,1.9,0.4,2.9
			c0.1,0.5,0.6,0.6,1.4,0.3c1.3-0.5,2.7-1.1,3.9-1.6c0.6-0.2,1.2-0.9,1.1-1.3C186.6,203.5,186.4,202.5,186.1,201.6z"/>
		<path class="st1" d="M193.4,199.7c-0.1-0.5-0.7-0.7-1.4-0.6c-1.3,0.3-2.6,0.6-3.8,1.1c-0.6,0.2-1.1,0.7-1,1.3
			c0.2,1,0.4,1.9,0.5,2.9c0.1,0.5,0.7,0.7,1.4,0.5c1.4-0.4,2.7-0.7,4-1.1c0.6-0.1,1.2-0.6,1-1.2
			C193.8,201.6,193.6,200.6,193.4,199.7z"/>
		<path class="st1" d="M207.7,198.9c-0.2-0.4-0.9-0.9-1.5-1c-1.3-0.1-2.6-0.2-3.9-0.1c-0.6,0-1.1,0.4-0.9,0.9c0.3,1,0.6,1.8,1,2.8
			c0.2,0.4,0.9,0.9,1.6,0.9c1.4,0,2.7,0,4,0.1c0.6,0,1.1-0.3,0.9-0.7C208.5,200.7,208.1,199.9,207.7,198.9z"/>
		<path class="st1" d="M172.5,213.9c0-0.5-0.5-0.5-1.3-0.1c-1.3,0.9-2.6,1.7-3.7,2.7c-0.6,0.5-1.2,1.3-1.2,1.8c0,1,0,1.9,0,2.9
			c0,0.5,0.5,0.5,1.2,0c1.3-1,2.6-1.8,3.9-2.7c0.6-0.4,1.2-1.2,1.2-1.7C172.6,215.8,172.5,214.9,172.5,213.9z"/>
		<path class="st1" d="M187.2,206.9c-0.1-0.5-0.7-0.7-1.4-0.4c-1.4,0.5-2.7,1.1-4,1.6c-0.6,0.3-1.2,1-1.1,1.5c0.1,1,0.2,1.9,0.4,2.9
			c0.1,0.5,0.6,0.6,1.4,0.3c1.4-0.6,2.8-1.2,4.1-1.6c0.7-0.2,1.2-0.9,1.2-1.3C187.6,208.8,187.4,207.8,187.2,206.9z"/>
		<path class="st1" d="M194.8,204.9c-0.1-0.5-0.7-0.7-1.5-0.6c-1.4,0.3-2.7,0.6-4,1.1c-0.6,0.2-1.2,0.7-1.1,1.3
			c0.2,1,0.4,1.9,0.5,2.9c0.1,0.5,0.7,0.7,1.5,0.5c1.4-0.4,2.8-0.7,4.3-1.1c0.7-0.2,1.2-0.6,1.1-1.2
			C195.3,206.8,195,205.8,194.8,204.9z"/>
		<path class="st1" d="M209.8,203.9c-0.2-0.4-0.9-0.9-1.6-1c-1.4-0.1-2.7-0.1-4-0.1c-0.6,0-1.1,0.4-1,0.9c0.3,1,0.6,1.8,1,2.8
			c0.2,0.4,0.9,0.9,1.6,0.7c1.4,0,2.8,0,4.1,0c0.7,0,1.2-0.3,1-0.7C210.6,205.7,210.2,204.9,209.8,203.9z"/>
		<path class="st1" d="M172.9,219.3c0-0.5-0.6-0.5-1.3-0.1c-1.4,0.9-2.7,1.7-3.9,2.7c-0.6,0.5-1.2,1.3-1.2,1.8c0,1,0,1.9,0,2.9
			c0,0.5,0.5,0.5,1.3,0c1.4-1,2.7-1.8,4.1-2.7c0.7-0.4,1.3-1.2,1.3-1.7C173,221.2,172.9,220.3,172.9,219.3z"/>
		<path class="st1" d="M188.3,212.2c-0.1-0.5-0.7-0.6-1.5-0.4c-1.4,0.5-2.8,1.1-4.3,1.6c-0.7,0.3-1.3,1-1.2,1.5
			c0.1,1,0.2,1.9,0.4,2.9c0.1,0.5,0.7,0.6,1.5,0.3c1.5-0.6,2.9-1.2,4.4-1.7c0.7-0.2,1.3-0.9,1.2-1.4
			C188.6,214.1,188.5,213.2,188.3,212.2z"/>
		<path class="st1" d="M196.1,210.1c-0.1-0.5-0.9-0.7-1.6-0.5c-1.4,0.3-2.9,0.7-4.3,1.1c-0.7,0.2-1.2,0.7-1.2,1.3
			c0.2,1,0.4,1.9,0.5,2.9c0.1,0.5,0.7,0.6,1.5,0.4c1.5-0.4,3-0.9,4.5-1.2c0.7-0.2,1.3-0.6,1.2-1.2C196.7,212,196.3,211,196.1,210.1z
			"/>
		<path class="st1" d="M211.9,208.9c-0.2-0.4-1-0.9-1.6-1c-1.4-0.1-2.8-0.1-4.3,0c-0.7,0-1.2,0.4-1,1c0.3,1,0.6,1.8,1,2.8
			c0.2,0.4,1,0.9,1.7,0.7c1.5-0.1,2.9-0.1,4.4,0c0.7,0,1.2-0.3,1-0.7C212.6,210.7,212.3,209.8,211.9,208.9z"/>
		<path class="st1" d="M205.8,214c-0.2-0.4-0.9-0.9-1.7-0.7c-1.5,0.2-3,0.3-4.5,0.6c-0.7,0.1-1.3,0.6-1.2,1.2c0.2,1,0.5,1.9,0.7,2.8
			c0.1,0.5,0.9,0.7,1.7,0.6c1.5-0.3,3.1-0.5,4.6-0.6c0.7-0.1,1.3-0.5,1.2-1C206.4,215.9,206.1,215,205.8,214z"/>
		<path class="st1" d="M214,213.9c-0.2-0.4-1-0.9-1.7-0.9c-1.5,0-2.9,0-4.4,0c-0.7,0-1.3,0.4-1.1,1c0.3,1,0.6,1.8,1,2.8
			c0.2,0.4,1,0.7,1.7,0.7c1.5-0.1,3.1-0.1,4.6-0.1c0.7,0,1.3-0.3,1.1-0.7C214.7,215.7,214.3,214.7,214,213.9z"/>
		<path class="st1" d="M190.3,222.8c-0.1-0.5-0.9-0.6-1.6-0.4c-1.5,0.5-3.1,1.1-4.6,1.7c-0.7,0.3-1.4,1-1.3,1.5
			c0.1,1,0.2,1.9,0.4,2.9c0.1,0.5,0.7,0.6,1.6,0.3c1.6-0.6,3.2-1.2,4.8-1.7c0.9-0.3,1.4-0.9,1.3-1.4
			C190.7,224.7,190.5,223.8,190.3,222.8z"/>
		<path class="st1" d="M199,220.5c-0.1-0.5-0.9-0.7-1.7-0.5c-1.6,0.3-3.1,0.7-4.7,1.2c-0.7,0.2-1.4,0.9-1.3,1.3
			c0.2,1,0.4,1.9,0.5,2.9c0.1,0.5,0.9,0.6,1.7,0.4c1.6-0.4,3.2-0.9,4.8-1.3c0.9-0.2,1.4-0.7,1.3-1.2
			C199.4,222.4,199.2,221.4,199,220.5z"/>
		<path class="st1" d="M207.6,219.1c-0.2-0.4-1-0.7-1.7-0.7c-1.5,0.2-3.1,0.4-4.7,0.6c-0.7,0.1-1.3,0.6-1.2,1.2
			c0.2,1,0.5,1.9,0.7,2.8c0.1,0.5,1,0.7,1.7,0.5c1.6-0.3,3.2-0.5,4.8-0.7c0.9-0.1,1.4-0.5,1.2-1.1
			C208.1,221,207.8,220.1,207.6,219.1z"/>
		<path class="st1" d="M216,218.9c-0.2-0.4-1-0.9-1.7-0.9c-1.5,0-3,0-4.6,0.1c-0.7,0-1.3,0.5-1.1,1c0.3,1,0.6,1.8,1,2.8
			c0.2,0.4,1,0.7,1.8,0.7c1.6-0.1,3.2-0.2,4.7-0.1c0.7,0,1.3-0.3,1.1-0.9C216.8,220.7,216.4,219.7,216,218.9z"/>
	</g>
</g>
<path class="st4" d="M496.2,165.1H23.7c-5.6,0-10.1-4.5-10.1-10.1V78c0-5.6,4.5-10.1,10.1-10.1h472.6c5.6,0,10.1,4.5,10.1,10.1v77
	C506.4,160.6,501.9,165.1,496.2,165.1z"/>
<g>
	<g>
		<g>
			<g>
				<path class="st5" d="M266.9,147.1H55.1c-3.7,0-7.2-3.2-7.2-7.2v-46c0-3.7,3.2-7.2,7.2-7.2h211.8c3.7,0,7.2,3.2,7.2,7.2v46
					C274.2,143.8,271,147.1,266.9,147.1z"/>
				<path class="st1" d="M266.9,148.5H55.1c-4.8,0-9-4-9-9V93.8c0-4.8,4-9,9-9h211.8c4.8,0,9,4,9,9v46
					C275.8,144.8,271.9,148.5,266.9,148.5z M55.1,88.3c-3,0-5.6,2.5-5.6,5.6v46c0,3,2.5,5.6,5.6,5.6h211.8c3,0,5.6-2.5,5.6-5.6v-46
					c0-3-2.5-5.6-5.6-5.6C266.9,88.3,55.1,88.3,55.1,88.3z"/>
			</g>
		</g>
	</g>
	<g>
		<path class="st6" d="M88.9,128.8c-0.5,0.3-1.2,0.5-1.7,0.8c-0.8,0.3-1.7,0.3-2.8,0.5c-0.8,0-2,0.3-3,0.3h-14
			c-3.2,0-5.6-0.8-7.2-2.5c-1.7-1.7-2.5-4.2-2.5-7.6v-4.2v-0.8h0.8h3.7H63v0.8v4.2c0,1.7,0.3,2.8,1.2,3.6c0.8,0.8,2,1.2,3.6,1.2h15
			c-0.8-1.2-1.2-2.8-1.2-4.5c0-1.2,0.3-2.3,0.5-3.2c0.3-0.8,0.8-1.7,1.7-2.8c1.7-1.5,3.6-2.3,5.8-2.3c2.3,0,4.2,0.8,5.8,2.3
			c0.8,0.8,1.2,1.7,1.7,2.8c0.3,0.8,0.5,2.3,0.5,3.2c0,1.7-0.3,3.2-1.2,4.5h3.2c0.3,0,0.3,0,0.5,0c0.3,0,0.3,0.3,0.3,0.3
			c0,0.3,0.3,0.3,0.3,0.3s0,0.3,0,0.5c0,0.3,0,0.3,0,0.3v0.3c0,0,0,0,0,0.3v0.3c0,0,0,0,0,0.3s0,0.3,0,0.5c0,0,0,0.3,0,0.5
			s0,0.3,0,0.5c0,0,0,0.3-0.3,0.3c0,0.3-0.3,0.3-0.3,0.3c-0.3,0-0.3,0-0.5,0h-3C93.5,130.2,91.2,129.5,88.9,128.8z M85.7,104.7
			l1.7-1.7c0.5-0.5,1.2-0.8,1.7,0l2.3,2c0.5,0.5,0.5,1.2,0,1.7l-1.7,1.7c-0.5,0.5-1.2,0.5-1.7,0l-2-2.3
			C84.9,106,84.9,105.3,85.7,104.7z M85.7,120.5c0,0.8,0.3,1.5,0.8,2.3c0.5,0.5,1.2,0.8,2.3,0.8c1.2,0,1.7-0.3,2.3-0.8
			c0.5-0.5,0.8-1.2,0.8-2.3c0-1-0.3-1.5-0.8-2.3c-0.3-0.3-0.5-0.5-0.8-0.8s-0.8-0.3-1.2-0.3c-0.3,0-0.8,0-1.2,0.3
			c-0.3,0.3-0.8,0.3-0.8,0.8c-0.3,0.3-0.5,0.5-0.8,0.8c0,0.3,0,0.3-0.3,0.5C85.7,120.1,85.7,120.1,85.7,120.5z"/>
		<path class="st6" d="M117.3,130.2H117c-2.8,0-5-0.8-6.5-2.3c-1.7,1.7-4.2,2.3-7.6,2.3h-3.7c-0.5,0-1-0.3-1.2-0.8
			c-0.3-0.3-0.3-1-0.3-1.7v-0.3c0-0.8,0-1.2,0.3-1.7c0.3-0.8,0.8-0.8,1.5-0.8h3.7c1,0,2,0,2.8-0.3s1.2-0.5,1.5-1
			c0.3-0.3,0.3-1,0.3-1.7v-5.5v-0.5h0.8h3.7h0.7v0.8v5.6c0,1.2,0.3,2,0.8,2.5s1.7,0.8,3,0.8h0.3c0.3,0,0.5,0,0.8,0.3
			s0.3,0.3,0.3,0.5c0.3,0.3,0,0.5,0,0.8s0,0.3,0,0.8c0,0,0,0,0,0.3v0.3c0,0,0,0,0,0.3s0,0.3,0,0.3v0.3v0.3c0,0,0,0.3-0.3,0.3
			c0,0.3-0.3,0.3-0.3,0.3L117.3,130.2C117.7,130.2,117.4,130.2,117.3,130.2z M99.2,136.3l1.7-1.7c0.5-0.5,1.2-0.5,1.7,0l2,2
			c0.5,0.5,0.5,1.2,0,1.7l-1.7,1.7c-0.5,0.5-1.2,0.5-1.7,0l-2-2C98.5,137.5,98.5,137.1,99.2,136.3z M106.7,136.3l1.7-1.7
			c0.5-0.5,1.2-0.5,1.7,0l2,2c0.5,0.5,0.5,1.2,0,1.7l-1.7,1.7c-0.5,0.5-1.2,0.5-1.7,0l-2.3-2C106,137.5,106.3,137.1,106.7,136.3z"/>
		<path class="st6" d="M138.9,130.2h-2.8c-1.2,0-2.8-0.3-3.7-0.3c-1,0-2.3-0.5-3.6-1.2c-2.3,1-5,1.7-7.6,1.7h-3.7
			c-0.5,0-1-0.3-1.2-0.8c-0.3-0.3-0.3-1-0.3-1.7v-0.3c0-0.8,0.3-1.2,0.3-1.7c0.3-0.3,0.8-0.8,1.2-0.8h4.8c-0.8-1.2-1.2-2.8-1.2-4.5
			c0-2.3,0.8-4.2,2.3-5.8c1.7-1.5,3.6-2.3,5.8-2.3c2.3,0,4.2,0.8,5.8,2.3c0.3,0.3,0.8,0.8,0.8,1.2c0.3,0.5,0.5,0.8,0.8,1.2
			c0.3,0.3,0.3,0.8,0.3,1.5s0.3,1,0.3,1.7c0,0.8,0,1.7-0.3,2.3c-0.3,0.8-0.5,1.5-0.8,2.3h3.2c0.3,0,0.3,0,0.5,0s0.3,0.3,0.3,0.3
			c0,0.3,0.3,0.3,0.3,0.3s0,0.3,0,0.5c0,0.3,0,0.3,0,0.3v0.3c0,0,0,0,0,0.3v0.3c0,0,0,0,0,0.3s0,0.3,0,0.3v0.3c0,0.3,0,0.3,0,0.3
			v0.3c0,0.3,0,0.3-0.3,0.3l-0.3,0.3l-0.3,0.3C139.2,130.2,138.9,130.2,138.9,130.2z M125.4,104.7l1.7-1.7c0.5-0.5,1.2-0.8,1.7,0
			l2.3,2c0.5,0.5,0.5,1.2,0,1.7l-1.7,1.7c-0.5,0.5-1.2,0.5-1.7,0l-2-2.3C125,106,125,105.3,125.4,104.7z M125.4,120.5
			c0,0.8,0.3,1.5,0.8,2.3c0.8,0.8,1.2,0.8,2.3,0.8c1,0,1.7-0.3,2.3-0.8c0.5-0.5,0.8-1.2,0.8-2.3c0-1-0.3-1.5-0.8-2.3
			c-0.3-0.3-0.5-0.5-0.8-0.8s-0.8-0.3-1.2-0.3c-0.3,0-0.8,0-1.2,0.3c-0.3,0.3-0.8,0.3-0.8,0.8l-0.3,0.3l-0.3,0.3c0,0,0,0.3-0.3,0.3
			v0.3v0.3C125.4,120.1,125.4,120.1,125.4,120.5z"/>
		<path class="st6" d="M157.5,126.5l-1.7,0.8c-3.2,1.7-6.5,2.5-10.3,2.5H139c-0.5,0-1-0.3-1.2-0.8c-0.3-0.5-0.3-1-0.3-1.7V127
			c0-0.8,0-1.2,0.3-1.7c0.3-0.8,0.8-0.8,1.5-0.8h6.3c1.5,0,2.8-0.3,4.2-0.3c1.2-0.3,2.5-0.8,3.7-1.2l4.8-2.3l-2.8-1.7
			c-1.7-0.8-3.2-1.5-5-1.5c-1.5,0-2.8,0.5-4.5,1.7l-1.5,1.2l-0.5,0.3l-0.3-0.5l-2.3-2.8l-0.5-0.5l0.5-0.3l1.2-1
			c2.3-1.7,4.8-3,7.2-3.2c2.3-0.3,5,0.3,7.6,1.7l3.7,2.3c0.3,0.3,0.8,0.3,1.2,0.8c0.3,0.3,0.8,0.3,1.2,0.3c0.3,0,0.8,0.3,1,0.3h0.5
			v0.5v3.7v0.3l-0.3,0.3l-2.3,1.2c0.8,0.3,1.7,0.8,2.8,0.8h2.5c0.3,0,0.5,0,0.8,0.3s0.3,0.3,0.3,0.5c0,0.3,0,0.5,0,0.8s0,0.3,0,0.8
			c0,0,0,0,0,0.3v0.3c0,0.5,0,1.2-0.3,1.5c-0.3,0.5-0.5,0.8-1,0.8h-2.3c-1.5,0-2.8-0.3-4.2-0.8C159.2,128.8,158,127.7,157.5,126.5z
			 M147.7,104.3l1.7-1.7c0.5-0.5,1.2-0.8,1.7,0l2.3,2c0.5,0.5,0.5,1.2,0,1.7l-1.7,1.7c-0.5,0.5-1.2,0.5-1.7,0l-2-2.3
			C146.9,105.3,146.9,104.7,147.7,104.3z"/>
		<path class="st6" d="M166.9,130.2c-0.5,0-1-0.3-1.2-0.8c-0.3-0.3-0.3-1-0.3-1.7v-0.3c0-0.8,0.3-1.2,0.3-1.7
			c0.3-0.3,0.8-0.8,1.2-0.8h5c1.2,0,2.3-0.3,2.8-0.8s0.8-1.2,0.8-2.5v-6v-0.8h0.8h3.6h0.8v0.8v6c0,2.8-0.8,5-2.3,6.3
			s-3.6,2.3-6.3,2.3H166.9L166.9,130.2L166.9,130.2z M167.7,106.6l1.7-1.7c0.5-0.5,1.2-0.5,1.7,0l2,2c0.5,0.5,0.5,1.2,0,1.7
			l-1.7,1.7c-0.5,0.5-1.2,0.5-1.7,0l-2-2C167.2,107.7,167.2,107.3,167.7,106.6z M175.2,106.6l1.7-1.7c0.5-0.5,1.2-0.5,1.7,0l2,2
			c0.5,0.5,0.5,1.2,0,1.7l-1.7,1.7c-0.5,0.5-1.2,0.5-1.7,0l-2.3-2C174.8,107.7,174.8,107.3,175.2,106.6z"/>
		<path class="st6" d="M190.1,104.7c0-1.2,0.3-2.3,1.5-3c0.8-0.8,2-1.2,3.2-1.2s2.3,0.3,3.2,1.2c0.3,0.3,0.3,0.3,0.5,0.5
			c0.3,0.3,0.3,0.5,0.3,0.8c0.3,0.3,0.3,0.5,0.3,0.8c0.3,0.3,0.3,0.5,0.3,0.8s0,0.8-0.3,1c0,0.3-0.3,0.3-0.3,0.3
			c0,0.3-0.3,0.3-0.3,0.3c-0.3,0.3-0.3,0.3-0.3,0.3c-0.3,0.3-0.3,0.5-0.8,0.8c-0.8,0.8-2,1.2-3.2,1.2s-2.3-0.3-3.2-1.2
			c-0.3-0.3-0.8-0.8-1-1.5C190.1,106,190.1,105.5,190.1,104.7z M208.1,99.4l3.7,2l0.8,0.3l-17,29.8l-0.8-0.3l-3.6-2l-0.8-0.3
			l17-29.5C207.3,99.4,208.1,99.4,208.1,99.4z M204.6,124.1L204.6,124.1L204.6,124.1v-0.3v-0.3v-0.3V123c0-0.3,0-0.3,0.3-0.3
			c0-0.3,0-0.3,0-0.3v-0.3c0-0.3,0.3-0.3,0.3-0.3l0.3-0.3c0-0.3,0-0.3,0.3-0.3c0.3-0.3,0.3-0.3,0.3-0.3l0.3-0.3l0.3-0.3l0.3-0.3
			l0.3-0.3c0.3-0.3,0.3-0.3,0.3-0.3c0.8-0.8,2-1.2,3.2-1.2c0.3,0,0.8,0.3,1,0.3c0.3,0,0.3,0.3,0.5,0.3s0.3,0.3,0.3,0.3
			s0.3,0,0.3,0.3c0.3,0,0.3,0.3,0.3,0.3c0.3,0.3,0.5,0.3,0.8,0.8c0.8,0.8,1.5,2,1.5,3s-0.3,2.3-1.5,3c-0.3,0.3-0.8,0.8-1.5,0.8
			c-0.5,0.3-1,0.3-1.7,0.3c-1.2,0-2.3-0.3-3.2-1.2C205.3,126.3,204.6,125,204.6,124.1z"/>
	</g>
	<g>
		<path class="st6" d="M236.7,116.3c-1.1,0-2.1-0.1-3.1-0.3c-1-0.2-2-0.5-3-1c0.2,1.6,0.3,3.1,0.4,4.6c0.1,1.5,0.2,3,0.3,4.3
			c0.1,1.4,0.1,2.8,0.1,4.1c0,1.3,0,2.6,0,3.9h-6.8c0-3-0.1-6-0.2-8.9c-0.1-3-0.3-5.7-0.8-8.4c-0.4-2.7-1-5.2-1.7-7.7
			c-0.8-2.3-1.7-4.5-3-6.4l5.8-3.7c0.5,0.9,1,1.5,1.3,2.3c0.4,0.7,0.8,1.4,1.1,2.1c0.5-0.9,1.2-1.5,1.9-2.1c0.8-0.6,1.5-1.1,2.3-1.4
			c0.9-0.4,1.7-0.7,2.6-0.9c1-0.2,1.8-0.3,2.8-0.3c0.7,0,1.2,0.1,1.9,0.2s1.2,0.3,1.9,0.5s1.2,0.5,1.9,1c0.7,0.3,1.2,0.9,1.9,1.4
			l-3.6,5.7c0,0-0.2-0.1-0.4-0.3c-0.3-0.2-0.6-0.3-1.1-0.6c-0.5-0.2-1-0.4-1.7-0.6s-1.3-0.3-2.1-0.3c-0.7,0-1.2,0.1-1.9,0.3
			c-0.7,0.3-1.2,0.5-1.7,1c-0.5,0.3-1,0.8-1.2,1.2c-0.3,0.4-0.4,0.9-0.3,1.2l0,0c0.1,0.5,0.3,0.9,0.8,1.2c0.4,0.3,1,0.5,1.6,0.7
			c0.7,0.2,1.2,0.3,1.8,0.3c0.7,0.1,1.2,0.1,1.7,0.1s1.1,0,1.7-0.1c0.6-0.1,1.2-0.2,1.8-0.3c0.6-0.2,1.2-0.3,1.8-0.6
			c0.6-0.3,1.2-0.5,1.7-0.9l2.9,5.4c-1.7,1.2-3.5,2.2-5.1,2.6C239.8,116.1,238.2,116.3,236.7,116.3z"/>
		<path class="st6" d="M247.2,118.3c0-1.2,0.3-2.2,0.7-3.3c0.4-1,1-1.9,1.7-2.7c0.8-0.8,1.6-1.3,2.6-1.7c1-0.4,2.1-0.7,3.3-0.7
			c1.2,0,2.2,0.3,3.3,0.7c1,0.4,1.9,1,2.7,1.7c0.8,0.8,1.3,1.7,1.7,2.7c0.4,1,0.7,2.1,0.7,3.3c0,1.2-0.3,2.3-0.7,3.3
			c-0.4,1-1,1.8-1.7,2.6c-0.8,0.8-1.7,1.3-2.7,1.7c-1,0.4-2.1,0.7-3.3,0.7s-2.3-0.3-3.3-0.7c-1-0.4-1.8-1-2.6-1.7
			c-0.8-0.8-1.3-1.6-1.7-2.6S247.2,119.5,247.2,118.3z M252.3,118.3c0,0.4,0.1,1,0.3,1.2c0.2,0.4,0.4,0.8,0.7,1.1
			c0.3,0.3,0.7,0.5,1.1,0.7s0.9,0.3,1.2,0.3c0.4,0,1-0.1,1.2-0.3c0.4-0.2,0.8-0.4,1.1-0.7c0.3-0.3,0.5-0.7,0.8-1.1
			c0.2-0.4,0.3-0.9,0.3-1.2c0-0.3-0.1-1-0.3-1.2c-0.2-0.4-0.4-0.8-0.8-1.1c-0.3-0.3-0.7-0.5-1.1-0.8c-0.4-0.2-0.9-0.3-1.2-0.3
			c-0.4,0-1,0.1-1.2,0.3c-0.4,0.2-0.8,0.4-1.1,0.8c-0.3,0.3-0.5,0.7-0.7,1.1C252.4,117.5,252.3,117.9,252.3,118.3z"/>
	</g>
</g>
<g>
	<g class="st7">
		<g>
			<path d="M52.9,28.8c0.2,0.3,0.4,0.8,0.6,1.2c0.2,0.5,0.4,1,0.7,1.6c0.2,0.6,0.5,1.2,0.7,1.9s0.4,1.3,0.5,2s0.2,1.3,0.2,2
				c0,1.1-0.2,2.1-0.5,3s-0.8,1.7-1.4,2.4c-0.6,0.7-1.3,1.2-2.2,1.6c-0.9,0.4-1.9,0.6-3,0.6c-1,0-1.8-0.2-2.5-0.5
				c-0.6-0.3-1.2-0.8-1.6-1.4c-0.2,0.3-0.5,0.6-0.7,0.8s-0.6,0.4-0.9,0.6c-0.4,0.2-0.8,0.3-1.2,0.4c-0.5,0.1-1,0.1-1.7,0.1
				c-0.5,0-0.9,0-1.3-0.1s-0.7-0.1-1-0.2c0,1.3-0.2,2.4-0.6,3.5c-0.4,1-0.9,2-1.5,2.8s-1.4,1.5-2.3,2.2c-0.9,0.6-1.8,1.1-2.8,1.5
				s-2,0.7-3.1,0.9S25.1,56,24,56c-1.7,0-3.2-0.3-4.6-0.8s-2.6-1.3-3.7-2.3c-1-1-1.8-2.2-2.4-3.6c-0.6-1.4-0.9-2.9-0.9-4.6
				c0-1,0.2-2,0.4-3s0.5-2,0.9-3s0.8-1.9,1.2-2.8c0.5-0.9,0.9-1.7,1.4-2.4l3.6,2.7c-0.4,0.6-0.8,1.3-1.1,2c-0.4,0.7-0.7,1.4-1,2.2
				c-0.3,0.7-0.5,1.5-0.7,2.2s-0.3,1.5-0.3,2.1c0,0.8,0.1,1.6,0.5,2.3s0.9,1.4,1.5,1.9s1.4,1,2.3,1.3s1.8,0.5,2.8,0.5
				c1.1,0,2.2-0.1,3.1-0.3c1-0.2,1.8-0.5,2.5-0.9s1.3-0.8,1.8-1.3s0.9-1.1,1.1-1.7l0,0c0.3-0.9,0.4-1.8,0.4-2.8
				c0-0.7-0.1-1.5-0.3-2.2S32,40,31.7,39.2s-0.7-1.5-1.1-2.3s-0.8-1.6-1.2-2.3l4.5-2.5c0.3,0.6,0.6,1.3,0.8,1.9
				c0.3,0.7,0.6,1.3,0.9,1.9c0.3,0.6,0.6,1.1,0.9,1.7c0.3,0.5,0.6,0.9,0.9,1.3c0.3,0.4,0.7,0.6,1,0.8c0.4,0.3,0.8,0.3,1.2,0.3
				c0.5-0.1,0.8-0.2,1.1-0.5s0.5-0.6,0.6-1s0.2-0.8,0.3-1.3c0-0.5,0-1,0-1.4c0-0.5-0.1-1-0.1-1.5s-0.1-0.9-0.1-1.3l4.5-0.6
				c0.1,0.3,0.1,0.7,0.2,1.2c0.1,0.5,0.1,1,0.2,1.5s0.2,1,0.3,1.6c0.1,0.5,0.3,1,0.4,1.5c0.1,0.5,0.4,0.9,0.7,1.2s0.6,0.6,1,0.7
				c0.3,0,0.7-0.1,0.9-0.2c0.3-0.1,0.5-0.3,0.8-0.5c0.2-0.2,0.4-0.5,0.5-0.9s0.2-0.8,0.2-1.2s-0.1-0.8-0.2-1.4
				c-0.1-0.5-0.3-1.1-0.6-1.7c-0.3-0.6-0.5-1.2-0.9-1.9c-0.3-0.7-0.7-1.3-1.1-2l4.2-2.3C52.6,28.2,52.7,28.4,52.9,28.8z"/>
			<path d="M65.8,35.5c0.3,0.8,0.5,1.6,0.7,2.5c0.2,0.8,0.4,1.7,0.5,2.5s0.2,1.6,0.2,2.3c0,1-0.1,2-0.4,3s-0.7,1.9-1.2,2.8
				c-0.5,0.9-1.1,1.8-1.8,2.6s-1.5,1.6-2.3,2.4c-0.8,0.7-1.8,1.4-2.7,2.1c-1,0.6-2,1.2-3,1.7l-3-4.1c0.8-0.4,1.6-0.8,2.4-1.3
				s1.6-1,2.3-1.6s1.4-1.2,2.1-1.8c0.6-0.6,1.2-1.2,1.7-1.9c0.5-0.6,0.8-1.3,1.1-1.9c0.3-0.7,0.4-1.3,0.4-1.9c0-0.5-0.1-1-0.2-1.5
				c-0.1-0.5-0.3-1.1-0.5-1.7c-0.2-0.6-0.5-1.3-0.8-2s-0.6-1.4-0.9-2.2l4.7-2.2C65.3,34,65.5,34.7,65.8,35.5z"/>
			<path d="M72.1,38.5c0.6,0.3,1.2,0.6,1.9,0.8c0.6,0.2,1.3,0.4,1.9,0.6s1.1,0.2,1.6,0.2c0.2,0,0.6,0,1-0.1c0.4,0,0.9-0.1,1.3-0.3
				c0.4-0.1,0.8-0.3,1.1-0.5c0.3-0.2,0.5-0.5,0.5-0.9s-0.1-0.9-0.4-1.4s-0.6-1.1-1.1-1.7s-1-1.2-1.6-1.8s-1.2-1.2-1.8-1.7
				c-0.6-0.5-1.3-1.1-1.9-1.5s-1.2-0.9-1.7-1.2l2.9-4.3c1.1,0.7,2.1,1.6,3.1,2.5s2,1.9,2.9,2.9s1.6,2.1,2.3,3.2
				c0.6,1.1,1.1,2.2,1.4,3.3c0.1,0.3,0.1,0.6,0.2,1c0,0.3,0,0.6,0,0.9c0,1-0.2,1.9-0.6,2.8c-0.4,0.8-0.9,1.6-1.6,2.2
				c-0.7,0.6-1.5,1.1-2.5,1.4c-1,0.3-2.1,0.5-3.2,0.5c-0.1,0-0.2,0-0.3,0s-0.2,0-0.3,0c-0.7,0-1.5-0.1-2.3-0.2
				c-0.8-0.2-1.6-0.4-2.3-0.6s-1.5-0.6-2.2-0.9c-0.7-0.3-1.4-0.7-2-1.1l2.1-4.9C70.9,37.9,71.4,38.2,72.1,38.5z"/>
			<path d="M88.7,42.5c0.1-1,0.1-1.9,0.1-2.8s0.1-1.8,0.1-2.7s0-1.7,0-2.4c-0.1-1.5-0.1-2.9-0.2-4.1s-0.1-2.2-0.2-3.1
				s-0.1-1.7-0.2-2.4c-0.1-0.7-0.1-1.3-0.2-1.9S88,22,87.9,21.5s-0.2-1-0.2-1.5l5-1.7c0.2,1.5,0.4,2.9,0.6,4.4
				c0.1,1.5,0.3,2.9,0.3,4.2c0.1,1.4,0.1,2.6,0.2,3.8c0,1.2,0,2.2,0,3c0,0.7,0,1.6,0,2.4c0,0.9,0,1.8,0,2.7s0,1.9-0.1,2.8
				c0,1-0.1,1.9-0.1,2.8l-5,0.8C88.6,44.4,88.7,43.5,88.7,42.5z"/>
			<path d="M108.3,45.2c-0.2,0-0.6,0-0.9,0s-0.8-0.2-1.3-0.4c-0.2,1.3-0.7,2.6-1.3,3.8c-0.7,1.2-1.5,2.3-2.4,3.4s-2.1,2-3.3,2.9
				c-1.2,0.9-2.6,1.7-4,2.4l-3-4.1c0.8-0.4,1.5-0.8,2.3-1.3s1.5-1,2.2-1.5s1.4-1.1,2-1.6c0.6-0.6,1.1-1.1,1.6-1.7
				c0.5-0.6,0.8-1.2,1.1-1.8c0.3-0.6,0.4-1.3,0.4-1.9c0-0.4-0.1-1-0.2-1.6s-0.4-1.4-0.6-2.1c-0.3-0.7-0.5-1.5-0.8-2.3
				s-0.6-1.5-0.9-2.1l4.7-2.1c0.4,1.3,0.8,2.4,1.2,3.3s0.8,1.6,1.1,2.1c0.4,0.5,0.7,0.9,1.1,1.1c0.3,0.2,0.7,0.3,1,0.3h0.4v5.1
				L108.3,45.2L108.3,45.2z"/>
			<path d="M123.4,40.1v5.1H108v-5.1H123.4z"/>
			<path d="M123.3,40.1c0.4,0,0.9,0,1.5,0s1.2,0,1.8,0c0.6,0,1.3-0.1,2-0.1s1.3-0.1,1.9-0.2c0.6-0.1,1.2-0.2,1.7-0.4
				s0.9-0.4,1.3-0.6c-1.4,0.1-2.7,0.2-3.9,0.1c-1.2-0.1-2.2-0.3-3.1-0.7s-1.5-1-2-1.8s-0.7-1.8-0.7-3.1c0-0.6,0.1-1.2,0.2-1.8
				c0.1-0.6,0.3-1.3,0.5-1.9s0.5-1.2,0.9-1.7s0.8-1,1.2-1.4c0.5-0.4,1-0.7,1.6-1c0.6-0.2,1.2-0.4,1.9-0.4c0.9,0,1.6,0.2,2.4,0.5
				s1.4,0.8,1.9,1.3c0.6,0.6,1.1,1.2,1.5,1.9s0.8,1.5,1.1,2.3s0.5,1.6,0.6,2.5s0.2,1.7,0.2,2.4c0,1.3-0.2,2.4-0.5,3.4
				s-0.9,1.8-1.5,2.5c-0.7,0.7-1.4,1.2-2.3,1.7c-0.9,0.4-1.9,0.8-2.9,1s-2.2,0.4-3.4,0.5s-2.4,0.1-3.7,0.1h-0.6v-5.1
				C122.9,40.1,123.3,40.1,123.3,40.1z M129.9,23.3l-3.6-3.6l3.6-3.6l3.6,3.6L129.9,23.3z M130,30.1c-0.3,0-0.5,0.1-0.8,0.2
				c-0.3,0.2-0.5,0.4-0.7,0.6s-0.4,0.6-0.5,0.9c-0.1,0.3-0.2,0.7-0.2,1c0,0.3,0.1,0.6,0.3,0.8c0.2,0.2,0.5,0.4,0.8,0.5
				s0.7,0.2,1.1,0.3c0.4,0,0.8,0.1,1.2,0.1s0.7,0,1.1,0c0.3,0,0.6,0,0.8-0.1c-0.1-0.5-0.2-1-0.4-1.5s-0.4-1-0.6-1.4
				c-0.2-0.4-0.5-0.8-0.8-1C130.8,30.3,130.4,30.2,130,30.1z"/>
			<path d="M157.7,45.2c-0.9,0-1.8-0.2-2.7-0.5s-1.7-0.7-2.4-1.3s-1.3-1.3-1.8-2.1s-0.7-1.7-0.7-2.8c0-2.2,1-4.4,2.9-6.8
				c0.2-0.2,0.3-0.3,0.4-0.5c0.1-0.1,0.2-0.2,0.3-0.3s0.2-0.2,0.2-0.3l0.3-0.3l-1-0.8l3.2-4c0.6,0.4,1.2,1,2,1.7s1.7,1.6,2.7,2.7
				c2.8,3.2,4.2,6.1,4.2,8.6c0,1.1-0.2,2-0.7,2.9c-0.4,0.8-1,1.5-1.7,2.1s-1.5,1-2.4,1.3C159.5,45.1,158.6,45.2,157.7,45.2z
				 M160.8,38.6c0-0.3-0.1-0.7-0.3-1.1c-0.2-0.4-0.5-0.9-0.9-1.3c-0.4-0.5-0.7-0.9-1.2-1.4c-0.4-0.5-0.9-0.9-1.3-1.4
				c-0.3,0.3-0.6,0.7-0.9,1.1c-0.3,0.4-0.6,0.8-0.9,1.3c-0.3,0.5-0.5,0.9-0.7,1.4s-0.3,1-0.2,1.4c0,0.3,0.1,0.5,0.4,0.7
				c0.2,0.2,0.5,0.4,0.9,0.5c0.3,0.1,0.7,0.2,1.1,0.3c0.4,0.1,0.7,0.1,0.9,0.1c0.3,0,0.7,0,1.1-0.1c0.4,0,0.7-0.1,1-0.3
				c0.3-0.1,0.6-0.3,0.8-0.5C160.7,39.1,160.8,38.9,160.8,38.6z"/>
			<path d="M175.8,35.5c0.3,0.8,0.5,1.6,0.7,2.5c0.2,0.8,0.4,1.7,0.5,2.5s0.2,1.6,0.2,2.3c0,1-0.1,2-0.4,3s-0.7,1.9-1.2,2.8
				c-0.5,0.9-1.1,1.8-1.8,2.6s-1.5,1.6-2.3,2.4c-0.8,0.7-1.8,1.4-2.7,2.1c-1,0.6-2,1.2-3,1.7l-3-4.1c0.8-0.4,1.6-0.8,2.4-1.3
				s1.6-1,2.3-1.6s1.4-1.2,2.1-1.8c0.6-0.6,1.2-1.2,1.7-1.9c0.5-0.6,0.8-1.3,1.1-1.9c0.3-0.7,0.4-1.3,0.4-1.9c0-0.5-0.1-1-0.2-1.5
				c-0.1-0.5-0.3-1.1-0.5-1.7c-0.2-0.6-0.5-1.3-0.8-2s-0.6-1.4-0.9-2.2l4.7-2.2C175.3,34,175.6,34.7,175.8,35.5z"/>
			<path d="M188,45.2c-1.4,0-2.5-0.2-3.5-0.5c-0.9-0.4-1.7-0.9-2.3-1.5s-1-1.4-1.3-2.3c-0.3-0.9-0.4-1.8-0.4-2.8c0-0.5,0-1.2,0-1.9
				c0-0.8,0-1.7,0-2.7s0-2.1,0-3.4c0-1.2,0-2.4-0.1-3.7c0-1.2-0.1-2.4-0.2-3.5c-0.1-1.1-0.2-2.1-0.4-2.9l4.9-1.5
				c0.1,0.7,0.3,1.6,0.4,2.5s0.2,2,0.2,3.1c0.1,1.1,0.1,2.1,0.1,3.2s0,2.1,0.1,3c0,0.8,0,1.7,0,2.6s-0.1,1.8-0.1,2.6s0,1.6,0,2.2
				s0.1,1.2,0.3,1.5c0.1,0.3,0.2,0.4,0.4,0.6s0.3,0.2,0.5,0.3s0.4,0.1,0.6,0.1c0.2,0,0.5,0,0.8,0h0.4v5.1L188,45.2L188,45.2z"/>
			<path d="M203.2,40.1v5.1h-15.4v-5.1H203.2z"/>
			<path d="M202.5,40.1h1.2c0-0.7,0.1-1.5,0.3-2.3s0.4-1.7,0.8-2.5c0.3-0.9,0.7-1.7,1.2-2.5s0.9-1.5,1.5-2.1
				c0.5-0.6,1.1-1.1,1.8-1.5c0.6-0.4,1.3-0.6,2-0.7c0.7,0,1.4,0.2,2,0.6s1.1,0.9,1.6,1.6c0.4,0.6,0.8,1.4,1,2.2
				c0.3,0.8,0.4,1.6,0.4,2.5c0,1-0.2,1.9-0.6,2.9c-0.4,0.9-1,1.8-1.7,2.6s-1.5,1.5-2.3,2.2c-0.9,0.6-1.8,1.2-2.7,1.6
				c0.1,0.3,0.2,0.6,0.5,0.9c0.2,0.4,0.5,0.7,0.8,1.1s0.6,0.7,0.9,1c0.3,0.3,0.6,0.6,0.8,0.8c0-0.6,0.1-1.3,0.3-1.9
				c0.2-0.7,0.5-1.3,0.8-1.9c0.4-0.6,0.8-1.2,1.2-1.7c0.5-0.5,1-1,1.5-1.4s1.1-0.7,1.7-1c0.6-0.2,1.2-0.4,1.7-0.4h0.8v5.1h-0.8
				c-0.5,0-0.9,0.1-1.4,0.4c-0.4,0.2-0.8,0.6-1.2,1s-0.6,0.8-0.8,1.3s-0.3,1-0.3,1.5c0,0.2,0,0.4,0,0.6c0,0.2,0.1,0.4,0.2,0.6
				c0.1,0.2,0.2,0.4,0.4,0.6c0.1,0.2,0.3,0.5,0.6,0.7l-3,3.6c-1.3-0.8-2.4-1.6-3.4-2.4c-1-0.8-1.8-1.7-2.6-2.5
				c-0.7-0.9-1.3-1.7-1.8-2.6c-0.5-0.9-0.9-1.8-1.2-2.7h-2.1L202.5,40.1L202.5,40.1z M212.1,35.9c0-0.3,0-0.6,0-1
				c0-0.3-0.1-0.7-0.2-1s-0.2-0.6-0.3-0.9s-0.3-0.5-0.5-0.6c-0.2,0.1-0.4,0.3-0.7,0.6c-0.2,0.3-0.5,0.7-0.7,1.1
				c-0.3,0.4-0.5,0.9-0.7,1.4s-0.4,1-0.6,1.6c-0.2,0.5-0.3,1.1-0.4,1.6s-0.2,1-0.2,1.4c0.5-0.1,1-0.3,1.5-0.5c0.5-0.3,1-0.6,1.4-1
				s0.8-0.8,1.1-1.3C211.9,36.9,212.1,36.4,212.1,35.9z"/>
			<path d="M219.4,40.1h2.2c0.5,0,1,0,1.5-0.1s1.1-0.2,1.5-0.4c0.5-0.2,0.9-0.4,1.2-0.7s0.5-0.6,0.5-1.1c0-0.3-0.1-0.6-0.2-1.2
				c-0.2-0.5-0.4-1.1-0.6-1.7c-0.3-0.6-0.5-1.3-0.8-2s-0.6-1.4-0.9-2l4.7-2.3c0.3,0.7,0.6,1.4,0.9,2.2c0.3,0.8,0.6,1.6,0.8,2.3
				c0.2,0.8,0.4,1.6,0.6,2.4c0.1,0.8,0.2,1.5,0.2,2.3c0,1.3-0.2,2.4-0.7,3.4c-0.4,0.9-1,1.7-1.8,2.3s-1.7,1-2.8,1.3
				s-2.3,0.4-3.6,0.4h-2.6L219.4,40.1L219.4,40.1z M224.7,54.2l-3.6-3.6l3.6-3.6l3.6,3.6L224.7,54.2z"/>
			<path d="M258.4,45.2c-1,0-2,0-3.1-0.1s-2.2-0.2-3.4-0.5c-1.1-0.2-2.2-0.6-3.3-1c-1-0.4-2-1-2.8-1.6c-0.8-0.7-1.5-1.5-2-2.4
				s-0.8-2.1-0.9-3.4c0-0.6,0.1-1.3,0.2-1.9c0.1-0.6,0.3-1.2,0.6-1.8c0.2-0.6,0.5-1.1,0.8-1.7s0.6-1.1,0.9-1.7l3.8,3.2
				c-0.2,0.2-0.4,0.5-0.6,0.9c-0.2,0.4-0.4,0.7-0.6,1.1s-0.4,0.8-0.5,1.2s-0.2,0.8-0.2,1.1c0,0.4,0.1,0.8,0.4,1.1
				c0.3,0.3,0.7,0.6,1.2,0.8s1.1,0.5,1.8,0.6c0.7,0.2,1.5,0.3,2.3,0.4c0.8,0.1,1.7,0.2,2.6,0.2c0.9,0.1,1.8,0.1,2.8,0.1
				c0.4,0,0.9,0,1.4,0s0.9,0,1.4,0c0.4,0,0.8,0,1.1,0c0.3,0,0.6,0,0.7,0c-0.4-0.4-0.7-1-1.1-1.6c-0.3-0.6-0.5-1.4-0.5-2.2
				c0-0.6,0-1.3,0.2-1.9c0.2-0.7,0.4-1.3,0.7-1.9s0.7-1.2,1.1-1.7s0.9-1,1.5-1.4c0.5-0.4,1.1-0.7,1.7-0.9c0.6-0.2,1.3-0.3,1.9-0.3
				c0.9,0,1.8,0.3,2.6,0.7c0.8,0.4,1.5,1,2.1,1.7s1.1,1.5,1.4,2.4s0.5,1.8,0.5,2.8c0,0.7-0.1,1.5-0.4,2.2s-0.6,1.4-0.9,2.1
				c0.5,0.1,1,0.1,1.5,0.1s1,0.1,1.4,0.1h0.5v5.1h-0.5c-0.7,0-1.4,0-2.1,0s-1.4-0.1-2.1-0.2c-0.7-0.1-1.4-0.2-2.1-0.4
				s-1.4-0.4-2-0.7c-0.3,0.2-0.6,0.3-1.1,0.4c-0.5,0.1-1,0.2-1.6,0.3s-1.2,0.2-1.9,0.3c-0.7,0.1-1.3,0.1-2,0.2c-0.7,0-1.3,0.1-2,0.1
				C259.5,45.2,258.9,45.2,258.4,45.2z M269.2,25.4l-3.6-3.6l3.6-3.6l3.6,3.6L269.2,25.4z M270.9,36c0-0.3-0.1-0.7-0.3-1
				s-0.4-0.6-0.6-0.8s-0.5-0.5-0.8-0.6c-0.3-0.2-0.5-0.3-0.8-0.4c-0.3,0.1-0.5,0.2-0.9,0.3c-0.3,0.1-0.6,0.3-0.9,0.6
				s-0.5,0.6-0.7,0.9c-0.2,0.4-0.3,0.8-0.3,1.3c0,0.2,0.1,0.4,0.3,0.7s0.4,0.6,0.7,0.9s0.6,0.6,0.9,0.8c0.3,0.3,0.7,0.4,1.1,0.5
				c0.3-0.2,0.5-0.4,0.8-0.6c0.3-0.3,0.5-0.5,0.8-0.8c0.2-0.3,0.4-0.6,0.5-0.9S270.9,36.3,270.9,36z"/>
			<path d="M292.1,40.1v5.1h-15.4v-5.1H292.1z"/>
			<path d="M306,40.1v5.1h-0.4c-0.5,0-1,0-1.5-0.1s-1-0.2-1.4-0.4s-0.9-0.3-1.2-0.6c-0.4-0.2-0.7-0.5-1-0.7
				c-0.5,0.4-1.1,0.7-1.8,0.9s-1.4,0.4-2.1,0.5s-1.5,0.2-2.3,0.2s-1.5,0.1-2.3,0.1h-0.6V40h0.6c0.8,0,1.5,0,2.1-0.1
				c0.6,0,1.2-0.1,1.6-0.2c0.5-0.1,0.8-0.3,1.2-0.4s0.6-0.4,0.8-0.7c0.3-0.3,0.4-0.7,0.5-1.2s0.1-0.9,0-1.3c0-0.5-0.1-0.9-0.3-1.4
				c-0.1-0.5-0.2-0.9-0.3-1.3l4.7-1.4c0.1,0.5,0.2,0.9,0.3,1.3c0.1,0.4,0.2,0.8,0.2,1.2c0.1,0.4,0.1,0.8,0.2,1.2s0.1,0.8,0.2,1.3
				c0,0.3,0.1,0.6,0.2,1c0.1,0.3,0.2,0.7,0.4,1c0.2,0.3,0.4,0.5,0.7,0.7c0.3,0.2,0.7,0.3,1.1,0.3L306,40.1L306,40.1z M297.8,50
				l-3.1,3.1l-3.2-3.1l3.1-3.1l3.1,3.1l3.1-3.1L304,50l-3.1,3.1L297.8,50z"/>
			<path d="M305.4,40.1h1.2c0.2,0,0.5,0,0.8,0s0.5,0,0.7-0.1c0.2,0,0.4-0.1,0.5-0.1c-0.2-0.2-0.4-0.5-0.6-0.7
				c-0.2-0.3-0.3-0.5-0.5-0.8c-0.1-0.3-0.3-0.6-0.4-1s-0.2-0.7-0.2-1.1c0-0.6,0-1.3,0.2-1.9c0.2-0.7,0.4-1.3,0.7-1.9
				c0.3-0.6,0.7-1.2,1.1-1.7s0.9-1,1.5-1.4c0.5-0.4,1.1-0.7,1.7-0.9c0.6-0.2,1.3-0.3,1.9-0.3c0.9,0,1.8,0.3,2.6,0.7
				c0.8,0.4,1.5,1,2.1,1.7s1.1,1.5,1.4,2.4s0.5,1.8,0.5,2.8c0,0.7-0.1,1.5-0.4,2.2s-0.6,1.4-0.9,2.1c0.3,0.1,0.6,0.1,1,0.1
				s0.9,0,1.6,0h0.3v5.1h-0.6c-0.7,0-1.4,0-2-0.1c-0.6,0-1.3-0.1-1.9-0.2c-0.6-0.1-1.2-0.2-1.8-0.4c-0.6-0.2-1.3-0.4-1.9-0.7
				c-0.4,0.2-0.9,0.4-1.5,0.6c-0.6,0.2-1.3,0.3-2,0.4c-0.7,0.1-1.5,0.2-2.2,0.2s-1.6,0.1-2.3,0.1h-0.6L305.4,40.1L305.4,40.1z
				 M313.7,25.7l-3.6-3.6l3.6-3.6l3.6,3.6L313.7,25.7z M316.4,36c0-0.3-0.1-0.7-0.3-1s-0.4-0.6-0.6-0.8s-0.5-0.5-0.8-0.6
				c-0.3-0.2-0.5-0.3-0.8-0.4c-0.3,0.1-0.5,0.2-0.9,0.3c-0.3,0.1-0.6,0.3-0.9,0.6s-0.5,0.6-0.7,0.9c-0.2,0.4-0.3,0.8-0.3,1.3
				c0,0.2,0.1,0.4,0.3,0.7c0.2,0.3,0.4,0.6,0.7,0.9c0.3,0.3,0.6,0.6,0.9,0.8c0.3,0.3,0.7,0.4,1.1,0.5c0.3-0.2,0.5-0.4,0.8-0.6
				s0.5-0.5,0.8-0.8c0.2-0.3,0.4-0.6,0.5-0.9C316.3,36.5,316.4,36.3,316.4,36z"/>
			<path d="M321.7,40.1h3.3c0.8,0,1.6-0.1,2.5-0.2c0.9-0.1,1.8-0.3,2.7-0.4c0.9-0.2,1.9-0.4,2.8-0.7s1.8-0.5,2.7-0.8
				c0.9-0.3,1.7-0.6,2.5-0.9c0.8-0.3,1.6-0.7,2.2-1c-0.7-0.2-1.4-0.4-2.2-0.7c-0.8-0.3-1.7-0.6-2.5-0.9c-0.8-0.3-1.7-0.5-2.5-0.7
				s-1.5-0.3-2.1-0.3c-0.4,0-0.8,0.1-1.2,0.3c-0.4,0.2-0.7,0.4-1,0.6c-0.3,0.2-0.6,0.5-0.9,0.7c-0.3,0.3-0.5,0.5-0.7,0.7
				s-0.3,0.4-0.4,0.6l-0.1,0.2l-3.9-2.2c0.4-0.8,1-1.6,1.6-2.3s1.3-1.4,2-2s1.5-1,2.3-1.4c0.8-0.3,1.6-0.5,2.4-0.5
				c0.6,0,1.2,0.1,1.8,0.2s1.2,0.3,1.8,0.5c0.6,0.2,1.2,0.4,1.8,0.7c0.6,0.3,1.2,0.5,1.8,0.8c0.6,0.3,1.3,0.6,2.1,0.9
				s1.5,0.6,2.4,0.8c0.9,0.2,1.7,0.4,2.5,0.6c0.9,0.1,1.7,0.2,2.5,0.2l-0.8,4.8c-0.3,0.1-0.5,0.2-0.8,0.4c-0.3,0.1-0.6,0.3-0.8,0.4
				l-0.4,0.2c0.3,0.3,0.6,0.5,1,0.7s0.8,0.3,1.2,0.4s0.8,0.1,1.2,0.2c0.4,0,0.7,0,0.9,0h0.6v5.1h-0.6c-1,0-2-0.1-2.9-0.3
				s-1.8-0.5-2.5-0.8s-1.4-0.8-2-1.3s-1.1-1.1-1.4-1.7c-1.1,0.5-2.2,1-3.4,1.5c-1.2,0.5-2.4,0.9-3.6,1.3s-2.5,0.7-3.9,0.9
				c-1.3,0.2-2.7,0.3-4.2,0.3h-3.3v-4.9C322.2,40.1,321.7,40.1,321.7,40.1z M330.9,26.7l-3.6-3.6l3.6-3.6l3.6,3.6L330.9,26.7z"/>
			<path d="M348.8,40.1h3.9c0.5,0,1,0,1.5-0.1c0.6,0,1.1-0.1,1.6-0.3s0.9-0.4,1.2-0.7s0.5-0.7,0.5-1.2c0-0.3-0.1-0.6-0.2-1.2
				c-0.2-0.5-0.4-1.1-0.6-1.7c-0.3-0.6-0.5-1.3-0.9-2c-0.3-0.7-0.6-1.4-1-2l4.7-2.3c0.3,0.7,0.6,1.4,0.9,2.2
				c0.3,0.8,0.6,1.6,0.8,2.3c0.2,0.8,0.4,1.6,0.6,2.4c0.1,0.8,0.2,1.5,0.2,2.3c0,1.3-0.2,2.5-0.7,3.4s-1.2,1.7-2,2.3s-1.8,1-3,1.3
				c-1.1,0.3-2.4,0.4-3.7,0.4h-3.9v-5.1C348.7,40.1,348.8,40.1,348.8,40.1z M356.4,23.3l-3.1,3.1l-3.2-3.1l3.1-3.1l3.1,3.1l3.1-3.1
				l3.2,3.1l-3.1,3.1L356.4,23.3z"/>
			<path d="M382.1,45.2c-0.9,0-1.8-0.2-2.7-0.5c-0.9-0.3-1.7-0.7-2.4-1.3c-0.7-0.6-1.3-1.3-1.8-2.1s-0.7-1.7-0.7-2.8
				c0-2.2,1-4.4,2.9-6.8c0.2-0.2,0.3-0.3,0.4-0.5c0.1-0.1,0.2-0.2,0.3-0.3s0.2-0.2,0.2-0.3l0.3-0.3l-1-0.8l3.2-4
				c0.6,0.4,1.2,1,2,1.7s1.7,1.6,2.7,2.7c2.8,3.2,4.2,6.1,4.2,8.6c0,1.1-0.2,2-0.7,2.9c-0.4,0.8-1,1.5-1.7,2.1s-1.5,1-2.4,1.3
				C384,45.1,383.1,45.2,382.1,45.2z M385.3,38.6c0-0.3-0.1-0.7-0.3-1.1c-0.2-0.4-0.5-0.9-0.9-1.3c-0.4-0.5-0.7-0.9-1.2-1.4
				c-0.4-0.5-0.9-0.9-1.3-1.4c-0.3,0.3-0.6,0.7-0.9,1.1c-0.3,0.4-0.6,0.8-0.9,1.3s-0.5,0.9-0.7,1.4s-0.3,1-0.2,1.4
				c0,0.3,0.1,0.5,0.4,0.7c0.2,0.2,0.5,0.4,0.9,0.5c0.3,0.1,0.7,0.2,1.1,0.3s0.7,0.1,0.9,0.1c0.3,0,0.7,0,1.1-0.1s0.7-0.1,1-0.3
				c0.3-0.1,0.6-0.3,0.8-0.5C385.2,39.1,385.3,38.9,385.3,38.6z"/>
			<path d="M400.3,35.5c0.3,0.8,0.5,1.6,0.7,2.5s0.4,1.7,0.5,2.5s0.2,1.6,0.2,2.3c0,1-0.1,2-0.4,3s-0.7,1.9-1.2,2.8
				c-0.5,0.9-1.1,1.8-1.8,2.6c-0.7,0.8-1.5,1.6-2.3,2.4c-0.8,0.7-1.8,1.4-2.7,2.1c-1,0.6-2,1.2-3,1.7l-3-4.1
				c0.8-0.4,1.6-0.8,2.4-1.3s1.6-1,2.3-1.6c0.7-0.6,1.4-1.2,2.1-1.8c0.6-0.6,1.2-1.2,1.7-1.9c0.5-0.6,0.8-1.3,1.1-1.9
				c0.3-0.7,0.4-1.3,0.4-1.9c0-0.5-0.1-1-0.2-1.5s-0.3-1.1-0.5-1.7c-0.2-0.6-0.5-1.3-0.8-2s-0.6-1.4-0.9-2.2l4.7-2.2
				C399.8,34,400,34.7,400.3,35.5z"/>
			<path d="M404.9,42.5c0.1-1,0.1-1.9,0.1-2.8s0.1-1.8,0.1-2.7s0-1.7,0-2.4c-0.1-1.5-0.1-2.9-0.2-4.1s-0.1-2.2-0.2-3.1
				s-0.1-1.7-0.2-2.4c-0.1-0.7-0.1-1.3-0.2-1.9s-0.1-1.1-0.2-1.6s-0.2-1-0.2-1.5l5-1.7c0.2,1.5,0.4,2.9,0.6,4.4s0.3,2.9,0.3,4.2
				c0.1,1.4,0.1,2.6,0.2,3.8c0,1.2,0,2.2,0,3c0,0.7,0,1.6,0,2.4c0,0.9,0,1.8,0,2.7s0,1.9-0.1,2.8c0,1-0.1,1.9-0.1,2.8l-5,0.8
				C404.8,44.4,404.8,43.5,404.9,42.5z"/>
			<path d="M411.6,51.7c1.5-0.3,2.9-0.7,4.2-1.1c1.3-0.5,2.4-1,3.3-1.5s1.7-1.2,2.4-1.8c0.6-0.6,1.1-1.3,1.3-2c-0.5,0-1,0-1.5,0
				s-1,0-1.3-0.1c-1.1-0.1-2.1-0.3-2.9-0.6s-1.6-0.8-2.3-1.3c-0.6-0.6-1.1-1.2-1.5-2c-0.3-0.8-0.5-1.7-0.5-2.8c0-0.7,0.1-1.3,0.2-2
				s0.3-1.4,0.6-2c0.3-0.7,0.6-1.3,1-1.9c0.4-0.6,0.8-1.1,1.3-1.5s1.1-0.8,1.7-1.1c0.6-0.3,1.3-0.4,1.9-0.4c0.8,0,1.6,0.1,2.3,0.4
				s1.3,0.7,1.9,1.2s1.1,1.1,1.5,1.8c0.5,0.7,0.8,1.4,1.2,2.2c0.3,0.8,0.6,1.6,0.8,2.4s0.4,1.7,0.4,2.5h0.7v5.1h-1
				c-0.4,1.6-1.1,3-2,4.3s-2,2.4-3.3,3.4s-2.7,1.8-4.3,2.4c-1.6,0.6-3.2,1.1-4.9,1.3L411.6,51.7z M419.6,34.7c-0.2,0-0.5,0-0.8,0.2
				s-0.6,0.5-0.8,0.8s-0.5,0.7-0.6,1.1c-0.2,0.4-0.3,0.8-0.2,1.2c0,0.4,0.1,0.7,0.4,0.9c0.2,0.2,0.5,0.4,0.9,0.6
				c0.4,0.2,0.8,0.3,1.2,0.4c0.5,0.1,0.9,0.1,1.3,0.2c0.4,0,0.9,0,1.3,0h1c-0.2-0.7-0.4-1.3-0.6-1.9c-0.2-0.6-0.5-1.2-0.8-1.7
				s-0.6-0.9-1-1.2C420.5,34.9,420,34.7,419.6,34.7z"/>
			<path d="M443.2,40.1v5.1h-15.4v-5.1H443.2z"/>
			<path d="M454.7,40.1v5.1h-0.4c-1.1,0-1.9-0.1-2.7-0.4c-0.7-0.3-1.4-0.7-1.9-1.2c-0.8,0.6-1.7,1-2.8,1.3c-1.1,0.3-2.3,0.4-3.8,0.4
				h-0.6v-5.1h0.6c1.5,0,2.6-0.2,3.4-0.7s1.1-1.2,1.1-2.2c0-0.3,0-0.8-0.1-1.4c-0.1-0.6-0.3-1.4-0.5-2.3l4.6-1.1
				c0.2,0.6,0.3,1.1,0.4,1.6s0.2,0.9,0.3,1.3c0.1,0.4,0.1,0.7,0.1,1.1s0.1,0.6,0.1,0.9s0.1,0.6,0.1,1c0,0.3,0.1,0.7,0.3,1
				s0.3,0.5,0.5,0.7s0.5,0.3,0.9,0.3h0.4V40.1z M447.8,29.7l-3.6-3.6l3.6-3.6l3.6,3.6L447.8,29.7z"/>
			<path d="M454.4,40.1c0.6,0,1.1-0.1,1.6-0.3s1-0.6,1.4-1.1s0.9-1.3,1.3-2.3s0.8-2.3,1.1-3.9l4.3,0.6c0,0.1,0,0.1,0,0.2
				c-0.1,0.3-0.1,0.7-0.2,1.1c-0.1,0.5-0.2,1-0.3,1.7c-0.1,0.6-0.1,1.2-0.1,1.8s0.1,1,0.2,1.4s0.3,0.6,0.7,0.7c0.3,0.1,0.7,0,1-0.2
				s0.6-0.5,0.9-1c0.3-0.4,0.5-0.9,0.8-1.5c0.2-0.6,0.5-1.1,0.7-1.7s0.4-1.2,0.5-1.7c0.1-0.6,0.3-1.1,0.3-1.5l4.3,0.6
				c0,0.3-0.1,0.6-0.1,1.1c-0.1,0.5-0.1,0.9-0.1,1.4s0,1,0,1.5s0.1,1,0.2,1.4s0.3,0.8,0.5,1c0.2,0.3,0.5,0.4,0.9,0.4
				s0.7-0.1,0.9-0.4s0.5-0.6,0.7-0.9c0.2-0.4,0.3-0.8,0.4-1.3s0.2-1,0.2-1.5c0.1-0.5,0.1-1,0.1-1.5s0-0.9,0-1.3l4.4-0.6l0.5,4.6
				c0.1,0.5,0.2,0.9,0.4,1.3c0.2,0.4,0.5,0.7,0.8,0.9s0.6,0.4,0.9,0.6c0.3,0.1,0.6,0.2,0.9,0.2h0.5V45h-0.5c-1.1,0-2-0.2-3-0.6
				c-0.9-0.4-1.7-1-2.4-1.9c-0.1,0.1-0.1,0.2-0.2,0.2c-0.1,0.1-0.1,0.1-0.2,0.2l0,0c-0.6,0.6-1.3,1.1-2,1.5s-1.6,0.5-2.5,0.5
				c-1,0-1.9-0.2-2.7-0.6c-0.8-0.4-1.5-1-2.1-1.7c-0.7,0.7-1.4,1.3-2.2,1.7c-0.8,0.4-1.7,0.7-2.7,0.7c-0.9,0-1.8-0.2-2.6-0.6
				s-1.5-1-2-1.7c-0.6,0.8-1.3,1.4-2.2,1.7s-1.9,0.5-3.2,0.5h-0.3v-5.1h0.2L454.4,40.1L454.4,40.1z M464.1,33.2L464.1,33.2
				C464.1,33.1,464.1,33.1,464.1,33.2z M470.7,26.2l-3.1,3.1l-3.2-3.1l3.1-3.1l3.1,3.1l3.1-3.1l3.2,3.1l-3.1,3.1L470.7,26.2z
				 M473.6,21.5l-2.9,2.9l-2.9-2.9l2.9-2.9L473.6,21.5z"/>
			<path d="M484.2,40.1h3.4c1.8,0,3.4-0.1,4.8-0.3s2.8-0.5,4.1-0.9c1.3-0.4,2.5-0.8,3.6-1.2c1.1-0.5,2.3-1,3.4-1.5
				c-0.7-0.2-1.5-0.5-2.2-0.8s-1.5-0.6-2.2-0.9c-0.7-0.3-1.5-0.5-2.2-0.7s-1.5-0.3-2.2-0.3c-0.5,0-1,0.1-1.5,0.4
				c-0.5,0.3-0.9,0.6-1.3,0.9c-0.4,0.3-0.7,0.7-1,1s-0.4,0.6-0.5,0.7l-3.8-2.4c0.4-0.7,0.9-1.4,1.5-2.1c0.6-0.7,1.2-1.3,1.9-1.8
				c0.7-0.5,1.4-1,2.2-1.3c0.8-0.3,1.6-0.5,2.5-0.5c0.6,0,1.3,0.1,1.9,0.2s1.3,0.3,1.9,0.5s1.3,0.5,1.9,0.7c0.6,0.3,1.2,0.6,1.8,0.8
				c0.6,0.3,1.2,0.5,1.7,0.8c0.6,0.3,1.2,0.5,1.8,0.7c0.6,0.2,1.3,0.4,1.9,0.5c0.7,0.1,1.4,0.2,2.1,0.2l-0.4,5l-2.3,1.1
				c-0.9,0.5-1.9,0.9-2.8,1.4s-1.9,1-2.9,1.4c-1,0.5-2,0.9-3,1.3c-1,0.4-2.1,0.8-3.2,1.1s-2.3,0.5-3.6,0.7c-1.3,0.2-2.6,0.3-4,0.3
				h-3.3L484.2,40.1L484.2,40.1z M497.7,54.1l-3.6-3.6l3.6-3.6l3.6,3.6L497.7,54.1z"/>
		</g>
	</g>
	<g>
		<g>
			<path class="st1" d="M50.9,25.8c0.2,0.3,0.4,0.8,0.6,1.2c0.2,0.5,0.4,1,0.7,1.6c0.2,0.6,0.5,1.2,0.7,1.9c0.2,0.7,0.4,1.3,0.5,2
				s0.2,1.3,0.2,2c0,1.1-0.2,2.1-0.5,3s-0.8,1.7-1.4,2.4c-0.6,0.7-1.3,1.2-2.2,1.6c-0.9,0.4-1.9,0.6-3,0.6c-1,0-1.8-0.2-2.5-0.5
				c-0.6-0.3-1.2-0.8-1.6-1.4c-0.2,0.3-0.5,0.6-0.7,0.8s-0.6,0.4-0.9,0.6c-0.4,0.2-0.8,0.3-1.2,0.4c-0.5,0.1-1,0.1-1.7,0.1
				c-0.5,0-0.9,0-1.3-0.1s-0.7-0.1-1-0.2c0,1.3-0.2,2.4-0.6,3.5c-0.4,1-0.9,2-1.5,2.8s-1.4,1.5-2.3,2.2c-0.9,0.6-1.8,1.1-2.8,1.5
				s-2,0.7-3.1,0.9S23.1,53,22,53c-1.7,0-3.2-0.3-4.6-0.8s-2.6-1.3-3.7-2.3c-1-1-1.8-2.2-2.4-3.6c-0.6-1.4-0.9-2.9-0.9-4.6
				c0-1,0.2-2,0.4-3s0.5-2,0.9-3s0.8-1.9,1.2-2.8c0.5-0.9,0.9-1.7,1.4-2.4l3.6,2.7c-0.4,0.6-0.8,1.3-1.1,2c-0.4,0.7-0.7,1.4-1,2.2
				c-0.3,0.7-0.5,1.5-0.7,2.2s-0.3,1.5-0.3,2.1c0,0.8,0.1,1.6,0.5,2.3s0.9,1.4,1.5,1.9s1.4,1,2.3,1.3s1.8,0.5,2.8,0.5
				c1.1,0,2.2-0.1,3.1-0.3c1-0.2,1.8-0.5,2.5-0.9s1.3-0.8,1.8-1.3s0.9-1.1,1.1-1.7l0,0c0.3-0.9,0.4-1.8,0.4-2.8
				c0-0.7-0.1-1.5-0.3-2.2S30,37,29.7,36.2s-0.7-1.5-1.1-2.3s-0.8-1.6-1.2-2.3l4.5-2.5c0.3,0.6,0.6,1.3,0.8,1.9
				c0.3,0.7,0.6,1.3,0.9,1.9s0.6,1.1,0.9,1.7c0.3,0.5,0.6,0.9,0.9,1.3c0.3,0.4,0.7,0.6,1,0.8c0.4,0.3,0.8,0.3,1.2,0.3
				c0.5-0.1,0.8-0.2,1.1-0.5s0.5-0.6,0.6-1s0.2-0.8,0.3-1.3c0-0.5,0-1,0-1.4c0-0.5-0.1-1-0.1-1.5s-0.1-0.9-0.1-1.3l4.5-0.6
				c0.1,0.3,0.1,0.7,0.2,1.2c0.1,0.5,0.1,1,0.2,1.5c0.1,0.5,0.2,1,0.3,1.6c0.1,0.5,0.3,1,0.4,1.5c0.1,0.5,0.4,0.9,0.7,1.2
				s0.6,0.6,1,0.7c0.3,0,0.7-0.1,0.9-0.2c0.3-0.1,0.5-0.3,0.8-0.5c0.2-0.2,0.4-0.5,0.5-0.9s0.2-0.8,0.2-1.2s-0.1-0.8-0.2-1.4
				c-0.1-0.5-0.3-1.1-0.6-1.7s-0.5-1.2-0.9-1.9c-0.3-0.7-0.7-1.3-1.1-2l4.2-2.3C50.6,25.2,50.7,25.4,50.9,25.8z"/>
			<path class="st1" d="M63.8,32.5c0.3,0.8,0.5,1.6,0.7,2.5c0.2,0.8,0.4,1.7,0.5,2.5s0.2,1.6,0.2,2.3c0,1-0.1,2-0.4,3
				s-0.7,1.9-1.2,2.8c-0.5,0.9-1.1,1.8-1.8,2.6s-1.5,1.6-2.3,2.4c-0.8,0.7-1.8,1.4-2.7,2.1c-1,0.6-2,1.2-3,1.7l-3-4.1
				c0.8-0.4,1.6-0.8,2.4-1.3s1.6-1,2.3-1.6s1.4-1.2,2.1-1.8c0.6-0.6,1.2-1.2,1.7-1.9c0.5-0.6,0.8-1.3,1.1-1.9
				c0.3-0.7,0.4-1.3,0.4-1.9c0-0.5-0.1-1-0.2-1.5s-0.3-1.1-0.5-1.7c-0.2-0.6-0.5-1.3-0.8-2s-0.6-1.4-0.9-2.2l4.7-2.2
				C63.3,31,63.5,31.7,63.8,32.5z"/>
			<path class="st1" d="M70.1,35.5c0.6,0.3,1.2,0.6,1.9,0.8c0.6,0.2,1.3,0.4,1.9,0.6s1.1,0.2,1.6,0.2c0.2,0,0.6,0,1-0.1
				c0.4,0,0.9-0.1,1.3-0.3c0.4-0.1,0.8-0.3,1.1-0.5c0.3-0.2,0.5-0.5,0.5-0.9s-0.1-0.9-0.4-1.4s-0.6-1.1-1.1-1.7s-1-1.2-1.6-1.8
				c-0.6-0.6-1.2-1.2-1.8-1.7c-0.6-0.5-1.3-1.1-1.9-1.5s-1.2-0.9-1.7-1.2l2.9-4.3c1.1,0.7,2.1,1.6,3.1,2.5s2,1.9,2.9,2.9
				s1.6,2.1,2.3,3.2c0.6,1.1,1.1,2.2,1.4,3.3c0.1,0.3,0.1,0.6,0.2,1c0,0.3,0,0.6,0,0.9c0,1-0.2,1.9-0.6,2.8
				c-0.4,0.8-0.9,1.6-1.6,2.2c-0.7,0.6-1.5,1.1-2.5,1.4c-1,0.3-2.1,0.5-3.2,0.5c-0.1,0-0.2,0-0.3,0s-0.2,0-0.3,0
				c-0.7,0-1.5-0.1-2.3-0.2c-0.8-0.2-1.6-0.4-2.3-0.6s-1.5-0.6-2.2-0.9c-0.7-0.3-1.4-0.7-2-1.1l2.1-4.9
				C68.9,34.9,69.4,35.2,70.1,35.5z"/>
			<path class="st1" d="M86.7,39.5c0.1-1,0.1-1.9,0.1-2.8s0.1-1.8,0.1-2.7s0-1.7,0-2.4c-0.1-1.5-0.1-2.9-0.2-4.1s-0.1-2.2-0.2-3.1
				s-0.1-1.7-0.2-2.4c-0.1-0.7-0.1-1.3-0.2-1.9S86,19,85.9,18.5s-0.2-1-0.2-1.5l5-1.7c0.2,1.5,0.4,2.9,0.6,4.4
				c0.1,1.5,0.3,2.9,0.3,4.2c0.1,1.4,0.1,2.6,0.2,3.8c0,1.2,0,2.2,0,3c0,0.7,0,1.6,0,2.4c0,0.9,0,1.8,0,2.7s0,1.9-0.1,2.8
				c0,1-0.1,1.9-0.1,2.8l-5,0.8C86.6,41.4,86.7,40.5,86.7,39.5z"/>
			<path class="st1" d="M106.3,42.2c-0.2,0-0.6,0-0.9,0s-0.8-0.2-1.3-0.4c-0.2,1.3-0.7,2.6-1.3,3.8c-0.7,1.2-1.5,2.3-2.4,3.4
				s-2.1,2-3.3,2.9c-1.2,0.9-2.6,1.7-4,2.4l-3-4.1c0.8-0.4,1.5-0.8,2.3-1.3s1.5-1,2.2-1.5s1.4-1.1,2-1.6c0.6-0.6,1.1-1.1,1.6-1.7
				c0.5-0.6,0.8-1.2,1.1-1.8c0.3-0.6,0.4-1.3,0.4-1.9c0-0.4-0.1-1-0.2-1.6s-0.4-1.4-0.6-2.1c-0.3-0.7-0.5-1.5-0.8-2.3
				s-0.6-1.5-0.9-2.1l4.7-2.1c0.4,1.3,0.8,2.4,1.2,3.3s0.8,1.6,1.1,2.1c0.4,0.5,0.7,0.9,1.1,1.1c0.3,0.2,0.7,0.3,1,0.3h0.4v5.1
				L106.3,42.2L106.3,42.2z"/>
			<path class="st1" d="M121.4,37.1v5.1H106v-5.1H121.4z"/>
			<path class="st1" d="M121.3,37.1c0.4,0,0.9,0,1.5,0s1.2,0,1.8,0c0.6,0,1.3-0.1,2-0.1s1.3-0.1,1.9-0.2c0.6-0.1,1.2-0.2,1.7-0.4
				s0.9-0.4,1.3-0.6c-1.4,0.1-2.7,0.2-3.9,0.1c-1.2-0.1-2.2-0.3-3.1-0.7s-1.5-1-2-1.8s-0.7-1.8-0.7-3.1c0-0.6,0.1-1.2,0.2-1.8
				c0.1-0.6,0.3-1.3,0.5-1.9s0.5-1.2,0.9-1.7s0.8-1,1.2-1.4c0.5-0.4,1-0.7,1.6-1c0.6-0.2,1.2-0.4,1.9-0.4c0.9,0,1.6,0.2,2.4,0.5
				s1.4,0.8,1.9,1.3c0.6,0.6,1.1,1.2,1.5,1.9s0.8,1.5,1.1,2.3s0.5,1.6,0.6,2.5s0.2,1.7,0.2,2.4c0,1.3-0.2,2.4-0.5,3.4
				s-0.9,1.8-1.5,2.5c-0.7,0.7-1.4,1.2-2.3,1.7c-0.9,0.4-1.9,0.8-2.9,1s-2.2,0.4-3.4,0.5c-1.2,0.1-2.4,0.1-3.7,0.1h-0.6v-5.1H121.3z
				 M127.9,20.3l-3.6-3.6l3.6-3.6l3.6,3.6L127.9,20.3z M128,27.1c-0.3,0-0.5,0.1-0.8,0.2c-0.3,0.2-0.5,0.4-0.7,0.6s-0.4,0.6-0.5,0.9
				s-0.2,0.7-0.2,1s0.1,0.6,0.3,0.8c0.2,0.2,0.5,0.4,0.8,0.5s0.7,0.2,1.1,0.3c0.4,0,0.8,0.1,1.2,0.1s0.7,0,1.1,0
				c0.3,0,0.6,0,0.8-0.1c-0.1-0.5-0.2-1-0.4-1.5s-0.4-1-0.6-1.4c-0.2-0.4-0.5-0.8-0.8-1C128.8,27.3,128.4,27.2,128,27.1z"/>
			<path class="st1" d="M155.7,42.2c-0.9,0-1.8-0.2-2.7-0.5s-1.7-0.7-2.4-1.3s-1.3-1.3-1.8-2.1s-0.7-1.7-0.7-2.8
				c0-2.2,1-4.4,2.9-6.8c0.2-0.2,0.3-0.3,0.4-0.5c0.1-0.1,0.2-0.2,0.3-0.3s0.2-0.2,0.2-0.3l0.3-0.3l-1-0.8l3.2-4
				c0.6,0.4,1.2,1,2,1.7s1.7,1.6,2.7,2.7c2.8,3.2,4.2,6.1,4.2,8.6c0,1.1-0.2,2-0.7,2.9c-0.4,0.8-1,1.5-1.7,2.1s-1.5,1-2.4,1.3
				C157.5,42.1,156.6,42.2,155.7,42.2z M158.8,35.6c0-0.3-0.1-0.7-0.3-1.1c-0.2-0.4-0.5-0.9-0.9-1.3c-0.4-0.5-0.7-0.9-1.2-1.4
				c-0.4-0.5-0.9-0.9-1.3-1.4c-0.3,0.3-0.6,0.7-0.9,1.1c-0.3,0.4-0.6,0.8-0.9,1.3c-0.3,0.5-0.5,0.9-0.7,1.4s-0.3,1-0.2,1.4
				c0,0.3,0.1,0.5,0.4,0.7c0.2,0.2,0.5,0.4,0.9,0.5c0.3,0.1,0.7,0.2,1.1,0.3c0.4,0.1,0.7,0.1,0.9,0.1c0.3,0,0.7,0,1.1-0.1
				c0.4,0,0.7-0.1,1-0.3c0.3-0.1,0.6-0.3,0.8-0.5C158.7,36.1,158.8,35.9,158.8,35.6z"/>
			<path class="st1" d="M173.8,32.5c0.3,0.8,0.5,1.6,0.7,2.5c0.2,0.8,0.4,1.7,0.5,2.5s0.2,1.6,0.2,2.3c0,1-0.1,2-0.4,3
				s-0.7,1.9-1.2,2.8c-0.5,0.9-1.1,1.8-1.8,2.6s-1.5,1.6-2.3,2.4c-0.8,0.7-1.8,1.4-2.7,2.1c-1,0.6-2,1.2-3,1.7l-3-4.1
				c0.8-0.4,1.6-0.8,2.4-1.3s1.6-1,2.3-1.6s1.4-1.2,2.1-1.8c0.6-0.6,1.2-1.2,1.7-1.9c0.5-0.6,0.8-1.3,1.1-1.9
				c0.3-0.7,0.4-1.3,0.4-1.9c0-0.5-0.1-1-0.2-1.5c-0.1-0.5-0.3-1.1-0.5-1.7c-0.2-0.6-0.5-1.3-0.8-2s-0.6-1.4-0.9-2.2l4.7-2.2
				C173.3,31,173.6,31.7,173.8,32.5z"/>
			<path class="st1" d="M186,42.2c-1.4,0-2.5-0.2-3.5-0.5c-0.9-0.4-1.7-0.9-2.3-1.5s-1-1.4-1.3-2.3c-0.3-0.9-0.4-1.8-0.4-2.8
				c0-0.5,0-1.2,0-1.9c0-0.8,0-1.7,0-2.7s0-2.1,0-3.4c0-1.2,0-2.4-0.1-3.7c0-1.2-0.1-2.4-0.2-3.5c-0.1-1.1-0.2-2.1-0.4-2.9l4.9-1.5
				c0.1,0.7,0.3,1.6,0.4,2.5s0.2,2,0.2,3.1c0.1,1.1,0.1,2.1,0.1,3.2s0,2.1,0.1,3c0,0.8,0,1.7,0,2.6s-0.1,1.8-0.1,2.6s0,1.6,0,2.2
				s0.1,1.2,0.3,1.5c0.1,0.3,0.2,0.4,0.4,0.6s0.3,0.2,0.5,0.3s0.4,0.1,0.6,0.1c0.2,0,0.5,0,0.8,0h0.4v5.1L186,42.2L186,42.2z"/>
			<path class="st1" d="M201.2,37.1v5.1h-15.4v-5.1H201.2z"/>
			<path class="st1" d="M200.5,37.1h1.2c0-0.7,0.1-1.5,0.3-2.3s0.4-1.7,0.8-2.5c0.3-0.9,0.7-1.7,1.2-2.5s0.9-1.5,1.5-2.1
				c0.5-0.6,1.1-1.1,1.8-1.5c0.6-0.4,1.3-0.6,2-0.7c0.7,0,1.4,0.2,2,0.6s1.1,0.9,1.6,1.6c0.4,0.6,0.8,1.4,1,2.2
				c0.3,0.8,0.4,1.6,0.4,2.5c0,1-0.2,1.9-0.6,2.9c-0.4,0.9-1,1.8-1.7,2.6s-1.5,1.5-2.3,2.2c-0.9,0.6-1.8,1.2-2.7,1.6
				c0.1,0.3,0.2,0.6,0.5,0.9c0.2,0.4,0.5,0.7,0.8,1.1s0.6,0.7,0.9,1c0.3,0.3,0.6,0.6,0.8,0.8c0-0.6,0.1-1.3,0.3-1.9
				c0.2-0.7,0.5-1.3,0.8-1.9c0.4-0.6,0.8-1.2,1.2-1.7c0.5-0.5,1-1,1.5-1.4s1.1-0.7,1.7-1c0.6-0.2,1.2-0.4,1.7-0.4h0.8v5.1h-0.8
				c-0.5,0-0.9,0.1-1.4,0.4c-0.4,0.2-0.8,0.6-1.2,1s-0.6,0.8-0.8,1.3s-0.3,1-0.3,1.5c0,0.2,0,0.4,0,0.6c0,0.2,0.1,0.4,0.2,0.6
				c0.1,0.2,0.2,0.4,0.4,0.6c0.1,0.2,0.3,0.5,0.6,0.7l-3,3.6c-1.3-0.8-2.4-1.6-3.4-2.4c-1-0.8-1.8-1.7-2.6-2.5
				c-0.7-0.9-1.3-1.7-1.8-2.6c-0.5-0.9-0.9-1.8-1.2-2.7h-2.1L200.5,37.1L200.5,37.1z M210.1,32.9c0-0.3,0-0.6,0-1
				c0-0.3-0.1-0.7-0.2-1s-0.2-0.6-0.3-0.9s-0.3-0.5-0.5-0.6c-0.2,0.1-0.4,0.3-0.7,0.6c-0.2,0.3-0.5,0.7-0.7,1.1
				c-0.3,0.4-0.5,0.9-0.7,1.4s-0.4,1-0.6,1.6c-0.2,0.5-0.3,1.1-0.4,1.6s-0.2,1-0.2,1.4c0.5-0.1,1-0.3,1.5-0.5c0.5-0.3,1-0.6,1.4-1
				s0.8-0.8,1.1-1.3C209.9,33.9,210.1,33.4,210.1,32.9z"/>
			<path class="st1" d="M217.4,37.1h2.2c0.5,0,1,0,1.5-0.1s1.1-0.2,1.5-0.4c0.5-0.2,0.9-0.4,1.2-0.7s0.5-0.6,0.5-1.1
				c0-0.3-0.1-0.6-0.2-1.2c-0.2-0.5-0.4-1.1-0.6-1.7c-0.3-0.6-0.5-1.3-0.8-2s-0.6-1.4-0.9-2l4.7-2.3c0.3,0.7,0.6,1.4,0.9,2.2
				c0.3,0.8,0.6,1.6,0.8,2.3c0.2,0.8,0.4,1.6,0.6,2.4c0.1,0.8,0.2,1.5,0.2,2.3c0,1.3-0.2,2.4-0.7,3.4c-0.4,0.9-1,1.7-1.8,2.3
				s-1.7,1-2.8,1.3s-2.3,0.4-3.6,0.4h-2.6L217.4,37.1L217.4,37.1z M222.7,51.2l-3.6-3.6l3.6-3.6l3.6,3.6L222.7,51.2z"/>
			<path class="st1" d="M256.4,42.2c-1,0-2,0-3.1-0.1s-2.2-0.2-3.4-0.5c-1.1-0.2-2.2-0.6-3.3-1c-1-0.4-2-1-2.8-1.6
				c-0.8-0.7-1.5-1.5-2-2.4s-0.8-2.1-0.9-3.4c0-0.6,0.1-1.3,0.2-1.9c0.1-0.6,0.3-1.2,0.6-1.8c0.2-0.6,0.5-1.1,0.8-1.7
				s0.6-1.1,0.9-1.7l3.8,3.2c-0.2,0.2-0.4,0.5-0.6,0.9c-0.2,0.4-0.4,0.7-0.6,1.1s-0.4,0.8-0.5,1.2c-0.1,0.4-0.2,0.8-0.2,1.1
				c0,0.4,0.1,0.8,0.4,1.1c0.3,0.3,0.7,0.6,1.2,0.8s1.1,0.5,1.8,0.6c0.7,0.2,1.5,0.3,2.3,0.4c0.8,0.1,1.7,0.2,2.6,0.2
				c0.9,0.1,1.8,0.1,2.8,0.1c0.4,0,0.9,0,1.4,0s0.9,0,1.4,0c0.4,0,0.8,0,1.1,0c0.3,0,0.6,0,0.7,0c-0.4-0.4-0.7-1-1.1-1.6
				c-0.3-0.6-0.5-1.4-0.5-2.2c0-0.6,0-1.3,0.2-1.9c0.2-0.7,0.4-1.3,0.7-1.9s0.7-1.2,1.1-1.7s0.9-1,1.5-1.4c0.5-0.4,1.1-0.7,1.7-0.9
				c0.6-0.2,1.3-0.3,1.9-0.3c0.9,0,1.8,0.3,2.6,0.7c0.8,0.4,1.5,1,2.1,1.7s1.1,1.5,1.4,2.4s0.5,1.8,0.5,2.8c0,0.7-0.1,1.5-0.4,2.2
				s-0.6,1.4-0.9,2.1c0.5,0.1,1,0.1,1.5,0.1s1,0.1,1.4,0.1h0.5v5.1h-0.5c-0.7,0-1.4,0-2.1,0s-1.4-0.1-2.1-0.2
				c-0.7-0.1-1.4-0.2-2.1-0.4s-1.4-0.4-2-0.7c-0.3,0.2-0.6,0.3-1.1,0.4c-0.5,0.1-1,0.2-1.6,0.3s-1.2,0.2-1.9,0.3
				c-0.7,0.1-1.3,0.1-2,0.2c-0.7,0-1.3,0.1-2,0.1C257.5,42.2,256.9,42.2,256.4,42.2z M267.2,22.4l-3.6-3.6l3.6-3.6l3.6,3.6
				L267.2,22.4z M268.9,33c0-0.3-0.1-0.7-0.3-1s-0.4-0.6-0.6-0.8s-0.5-0.5-0.8-0.6c-0.3-0.2-0.5-0.3-0.8-0.4
				c-0.3,0.1-0.5,0.2-0.9,0.3c-0.3,0.1-0.6,0.3-0.9,0.6c-0.3,0.3-0.5,0.6-0.7,0.9c-0.2,0.4-0.3,0.8-0.3,1.3c0,0.2,0.1,0.4,0.3,0.7
				s0.4,0.6,0.7,0.9s0.6,0.6,0.9,0.8c0.3,0.3,0.7,0.4,1.1,0.5c0.3-0.2,0.5-0.4,0.8-0.6c0.3-0.3,0.5-0.5,0.8-0.8
				c0.2-0.3,0.4-0.6,0.5-0.9S268.9,33.3,268.9,33z"/>
			<path class="st1" d="M290.1,37.1v5.1h-15.4v-5.1H290.1z"/>
			<path class="st1" d="M304,37.1v5.1h-0.4c-0.5,0-1,0-1.5-0.1s-1-0.2-1.4-0.4s-0.9-0.3-1.2-0.6c-0.4-0.2-0.7-0.5-1-0.7
				c-0.5,0.4-1.1,0.7-1.8,0.9s-1.4,0.4-2.1,0.5s-1.5,0.2-2.3,0.2s-1.5,0.1-2.3,0.1h-0.6V37h0.6c0.8,0,1.5,0,2.1-0.1
				c0.6,0,1.2-0.1,1.6-0.2c0.5-0.1,0.8-0.3,1.2-0.4s0.6-0.4,0.8-0.7c0.3-0.3,0.4-0.7,0.5-1.2s0.1-0.9,0-1.3c0-0.5-0.1-0.9-0.3-1.4
				c-0.1-0.5-0.2-0.9-0.3-1.3l4.7-1.4c0.1,0.5,0.2,0.9,0.3,1.3c0.1,0.4,0.2,0.8,0.2,1.2c0.1,0.4,0.1,0.8,0.2,1.2s0.1,0.8,0.2,1.3
				c0,0.3,0.1,0.6,0.2,1c0.1,0.3,0.2,0.7,0.4,1c0.2,0.3,0.4,0.5,0.7,0.7c0.3,0.2,0.7,0.3,1.1,0.3L304,37.1L304,37.1z M295.8,47
				l-3.1,3.1l-3.2-3.1l3.1-3.1l3.1,3.1l3.1-3.1L302,47l-3.1,3.1L295.8,47z"/>
			<path class="st1" d="M303.4,37.1h1.2c0.2,0,0.5,0,0.8,0s0.5,0,0.7-0.1c0.2,0,0.4-0.1,0.5-0.1c-0.2-0.2-0.4-0.5-0.6-0.7
				c-0.2-0.3-0.3-0.5-0.5-0.8c-0.1-0.3-0.3-0.6-0.4-1s-0.2-0.7-0.2-1.1c0-0.6,0-1.3,0.2-1.9c0.2-0.7,0.4-1.3,0.7-1.9
				c0.3-0.6,0.7-1.2,1.1-1.7s0.9-1,1.5-1.4c0.5-0.4,1.1-0.7,1.7-0.9c0.6-0.2,1.3-0.3,1.9-0.3c0.9,0,1.8,0.3,2.6,0.7
				c0.8,0.4,1.5,1,2.1,1.7s1.1,1.5,1.4,2.4s0.5,1.8,0.5,2.8c0,0.7-0.1,1.5-0.4,2.2s-0.6,1.4-0.9,2.1c0.3,0.1,0.6,0.1,1,0.1
				s0.9,0,1.6,0h0.3v5.1h-0.6c-0.7,0-1.4,0-2-0.1c-0.6,0-1.3-0.1-1.9-0.2c-0.6-0.1-1.2-0.2-1.8-0.4c-0.6-0.2-1.3-0.4-1.9-0.7
				c-0.4,0.2-0.9,0.4-1.5,0.6c-0.6,0.2-1.3,0.3-2,0.4c-0.7,0.1-1.5,0.2-2.2,0.2s-1.6,0.1-2.3,0.1h-0.6L303.4,37.1L303.4,37.1z
				 M311.7,22.7l-3.6-3.6l3.6-3.6l3.6,3.6L311.7,22.7z M314.4,33c0-0.3-0.1-0.7-0.3-1s-0.4-0.6-0.6-0.8s-0.5-0.5-0.8-0.6
				c-0.3-0.2-0.5-0.3-0.8-0.4c-0.3,0.1-0.5,0.2-0.9,0.3c-0.3,0.1-0.6,0.3-0.9,0.6c-0.3,0.3-0.5,0.6-0.7,0.9
				c-0.2,0.4-0.3,0.8-0.3,1.3c0,0.2,0.1,0.4,0.3,0.7c0.2,0.3,0.4,0.6,0.7,0.9c0.3,0.3,0.6,0.6,0.9,0.8c0.3,0.3,0.7,0.4,1.1,0.5
				c0.3-0.2,0.5-0.4,0.8-0.6s0.5-0.5,0.8-0.8c0.2-0.3,0.4-0.6,0.5-0.9C314.3,33.5,314.4,33.3,314.4,33z"/>
			<path class="st1" d="M319.7,37.1h3.3c0.8,0,1.6-0.1,2.5-0.2c0.9-0.1,1.8-0.3,2.7-0.4c0.9-0.2,1.9-0.4,2.8-0.7s1.8-0.5,2.7-0.8
				c0.9-0.3,1.7-0.6,2.5-0.9c0.8-0.3,1.6-0.7,2.2-1c-0.7-0.2-1.4-0.4-2.2-0.7c-0.8-0.3-1.7-0.6-2.5-0.9s-1.7-0.5-2.5-0.7
				s-1.5-0.3-2.1-0.3c-0.4,0-0.8,0.1-1.2,0.3c-0.4,0.2-0.7,0.4-1,0.6s-0.6,0.5-0.9,0.7c-0.3,0.3-0.5,0.5-0.7,0.7s-0.3,0.4-0.4,0.6
				l-0.1,0.2l-3.9-2.2c0.4-0.8,1-1.6,1.6-2.3c0.6-0.7,1.3-1.4,2-2s1.5-1,2.3-1.4c0.8-0.3,1.6-0.5,2.4-0.5c0.6,0,1.2,0.1,1.8,0.2
				s1.2,0.3,1.8,0.5c0.6,0.2,1.2,0.4,1.8,0.7c0.6,0.3,1.2,0.5,1.8,0.8c0.6,0.3,1.3,0.6,2.1,0.9s1.5,0.6,2.4,0.8s1.7,0.4,2.5,0.6
				c0.9,0.1,1.7,0.2,2.5,0.2l-0.8,4.8c-0.3,0.1-0.5,0.2-0.8,0.4c-0.3,0.1-0.6,0.3-0.8,0.4l-0.4,0.2c0.3,0.3,0.6,0.5,1,0.7
				s0.8,0.3,1.2,0.4s0.8,0.1,1.2,0.2c0.4,0,0.7,0,0.9,0h0.6v5.1h-0.6c-1,0-2-0.1-2.9-0.3s-1.8-0.5-2.5-0.8s-1.4-0.8-2-1.3
				s-1.1-1.1-1.4-1.7c-1.1,0.5-2.2,1-3.4,1.5c-1.2,0.5-2.4,0.9-3.6,1.3s-2.5,0.7-3.9,0.9c-1.3,0.2-2.7,0.3-4.2,0.3h-3.3v-4.9
				C320.2,37.1,319.7,37.1,319.7,37.1z M328.9,23.7l-3.6-3.6l3.6-3.6l3.6,3.6L328.9,23.7z"/>
			<path class="st1" d="M346.8,37.1h3.9c0.5,0,1,0,1.5-0.1c0.6,0,1.1-0.1,1.6-0.3s0.9-0.4,1.2-0.7s0.5-0.7,0.5-1.2
				c0-0.3-0.1-0.6-0.2-1.2c-0.2-0.5-0.4-1.1-0.6-1.7c-0.3-0.6-0.5-1.3-0.9-2c-0.3-0.7-0.6-1.4-1-2l4.7-2.3c0.3,0.7,0.6,1.4,0.9,2.2
				c0.3,0.8,0.6,1.6,0.8,2.3c0.2,0.8,0.4,1.6,0.6,2.4c0.1,0.8,0.2,1.5,0.2,2.3c0,1.3-0.2,2.5-0.7,3.4s-1.2,1.7-2,2.3s-1.8,1-3,1.3
				c-1.1,0.3-2.4,0.4-3.7,0.4h-3.9v-5.1C346.7,37.1,346.8,37.1,346.8,37.1z M354.4,20.3l-3.1,3.1l-3.2-3.1l3.1-3.1l3.1,3.1l3.1-3.1
				l3.2,3.1l-3.1,3.1L354.4,20.3z"/>
			<path class="st1" d="M380.1,42.2c-0.9,0-1.8-0.2-2.7-0.5c-0.9-0.3-1.7-0.7-2.4-1.3c-0.7-0.6-1.3-1.3-1.8-2.1s-0.7-1.7-0.7-2.8
				c0-2.2,1-4.4,2.9-6.8c0.2-0.2,0.3-0.3,0.4-0.5c0.1-0.1,0.2-0.2,0.3-0.3s0.2-0.2,0.2-0.3l0.3-0.3l-1-0.8l3.2-4
				c0.6,0.4,1.2,1,2,1.7s1.7,1.6,2.7,2.7c2.8,3.2,4.2,6.1,4.2,8.6c0,1.1-0.2,2-0.7,2.9c-0.4,0.8-1,1.5-1.7,2.1s-1.5,1-2.4,1.3
				C382,42.1,381.1,42.2,380.1,42.2z M383.3,35.6c0-0.3-0.1-0.7-0.3-1.1c-0.2-0.4-0.5-0.9-0.9-1.3c-0.4-0.5-0.7-0.9-1.2-1.4
				c-0.4-0.5-0.9-0.9-1.3-1.4c-0.3,0.3-0.6,0.7-0.9,1.1s-0.6,0.8-0.9,1.3s-0.5,0.9-0.7,1.4s-0.3,1-0.2,1.4c0,0.3,0.1,0.5,0.4,0.7
				c0.2,0.2,0.5,0.4,0.9,0.5c0.3,0.1,0.7,0.2,1.1,0.3s0.7,0.1,0.9,0.1c0.3,0,0.7,0,1.1-0.1s0.7-0.1,1-0.3c0.3-0.1,0.6-0.3,0.8-0.5
				C383.2,36.1,383.3,35.9,383.3,35.6z"/>
			<path class="st1" d="M398.3,32.5c0.3,0.8,0.5,1.6,0.7,2.5s0.4,1.7,0.5,2.5s0.2,1.6,0.2,2.3c0,1-0.1,2-0.4,3s-0.7,1.9-1.2,2.8
				c-0.5,0.9-1.1,1.8-1.8,2.6c-0.7,0.8-1.5,1.6-2.3,2.4c-0.8,0.7-1.8,1.4-2.7,2.1c-1,0.6-2,1.2-3,1.7l-3-4.1
				c0.8-0.4,1.6-0.8,2.4-1.3s1.6-1,2.3-1.6c0.7-0.6,1.4-1.2,2.1-1.8c0.6-0.6,1.2-1.2,1.7-1.9c0.5-0.6,0.8-1.3,1.1-1.9
				c0.3-0.7,0.4-1.3,0.4-1.9c0-0.5-0.1-1-0.2-1.5s-0.3-1.1-0.5-1.7c-0.2-0.6-0.5-1.3-0.8-2s-0.6-1.4-0.9-2.2l4.7-2.2
				C397.8,31,398,31.7,398.3,32.5z"/>
			<path class="st1" d="M402.9,39.5c0.1-1,0.1-1.9,0.1-2.8s0.1-1.8,0.1-2.7s0-1.7,0-2.4c-0.1-1.5-0.1-2.9-0.2-4.1s-0.1-2.2-0.2-3.1
				s-0.1-1.7-0.2-2.4c-0.1-0.7-0.1-1.3-0.2-1.9s-0.1-1.1-0.2-1.6s-0.2-1-0.2-1.5l5-1.7c0.2,1.5,0.4,2.9,0.6,4.4s0.3,2.9,0.3,4.2
				c0.1,1.4,0.1,2.6,0.2,3.8c0,1.2,0,2.2,0,3c0,0.7,0,1.6,0,2.4c0,0.9,0,1.8,0,2.7s0,1.9-0.1,2.8c0,1-0.1,1.9-0.1,2.8l-5,0.8
				C402.8,41.4,402.8,40.5,402.9,39.5z"/>
			<path class="st1" d="M409.6,48.7c1.5-0.3,2.9-0.7,4.2-1.1c1.3-0.5,2.4-1,3.3-1.5s1.7-1.2,2.4-1.8c0.6-0.6,1.1-1.3,1.3-2
				c-0.5,0-1,0-1.5,0s-1,0-1.3-0.1c-1.1-0.1-2.1-0.3-2.9-0.6s-1.6-0.8-2.3-1.3c-0.6-0.6-1.1-1.2-1.5-2c-0.3-0.8-0.5-1.7-0.5-2.8
				c0-0.7,0.1-1.3,0.2-2s0.3-1.4,0.6-2c0.3-0.7,0.6-1.3,1-1.9s0.8-1.1,1.3-1.5s1.1-0.8,1.7-1.1c0.6-0.3,1.3-0.4,1.9-0.4
				c0.8,0,1.6,0.1,2.3,0.4s1.3,0.7,1.9,1.2s1.1,1.1,1.5,1.8c0.5,0.7,0.8,1.4,1.2,2.2c0.3,0.8,0.6,1.6,0.8,2.4s0.4,1.7,0.4,2.5h0.7
				v5.1h-1c-0.4,1.6-1.1,3-2,4.3s-2,2.4-3.3,3.4s-2.7,1.8-4.3,2.4c-1.6,0.6-3.2,1.1-4.9,1.3L409.6,48.7z M417.6,31.7
				c-0.2,0-0.5,0-0.8,0.2s-0.6,0.5-0.8,0.8s-0.5,0.7-0.6,1.1c-0.2,0.4-0.3,0.8-0.2,1.2c0,0.4,0.1,0.7,0.4,0.9
				c0.2,0.2,0.5,0.4,0.9,0.6c0.4,0.2,0.8,0.3,1.2,0.4c0.5,0.1,0.9,0.1,1.3,0.2c0.4,0,0.9,0,1.3,0h1c-0.2-0.7-0.4-1.3-0.6-1.9
				c-0.2-0.6-0.5-1.2-0.8-1.7s-0.6-0.9-1-1.2C418.5,31.9,418,31.7,417.6,31.7z"/>
			<path class="st1" d="M441.2,37.1v5.1h-15.4v-5.1H441.2z"/>
			<path class="st1" d="M452.7,37.1v5.1h-0.4c-1.1,0-1.9-0.1-2.7-0.4c-0.7-0.3-1.4-0.7-1.9-1.2c-0.8,0.6-1.7,1-2.8,1.3
				c-1.1,0.3-2.3,0.4-3.8,0.4h-0.6v-5.1h0.6c1.5,0,2.6-0.2,3.4-0.7s1.1-1.2,1.1-2.2c0-0.3,0-0.8-0.1-1.4c-0.1-0.6-0.3-1.4-0.5-2.3
				l4.6-1.1c0.2,0.6,0.3,1.1,0.4,1.6s0.2,0.9,0.3,1.3c0.1,0.4,0.1,0.7,0.1,1.1s0.1,0.6,0.1,0.9s0.1,0.6,0.1,1c0,0.3,0.1,0.7,0.3,1
				s0.3,0.5,0.5,0.7s0.5,0.3,0.9,0.3h0.4V37.1z M445.8,26.7l-3.6-3.6l3.6-3.6l3.6,3.6L445.8,26.7z"/>
			<path class="st1" d="M452.4,37.1c0.6,0,1.1-0.1,1.6-0.3s1-0.6,1.4-1.1s0.9-1.3,1.3-2.3s0.8-2.3,1.1-3.9l4.3,0.6
				c0,0.1,0,0.1,0,0.2c-0.1,0.3-0.1,0.7-0.2,1.1c-0.1,0.5-0.2,1-0.3,1.7c-0.1,0.6-0.1,1.2-0.1,1.8s0.1,1,0.2,1.4s0.3,0.6,0.7,0.7
				c0.3,0.1,0.7,0,1-0.2s0.6-0.5,0.9-1c0.3-0.4,0.5-0.9,0.8-1.5c0.2-0.6,0.5-1.1,0.7-1.7s0.4-1.2,0.5-1.7c0.1-0.6,0.3-1.1,0.3-1.5
				l4.3,0.6c0,0.3-0.1,0.6-0.1,1.1c-0.1,0.5-0.1,0.9-0.1,1.4s0,1,0,1.5s0.1,1,0.2,1.4s0.3,0.8,0.5,1c0.2,0.3,0.5,0.4,0.9,0.4
				s0.7-0.1,0.9-0.4s0.5-0.6,0.7-0.9c0.2-0.4,0.3-0.8,0.4-1.3s0.2-1,0.2-1.5c0.1-0.5,0.1-1,0.1-1.5s0-0.9,0-1.3l4.4-0.6l0.5,4.6
				c0.1,0.5,0.2,0.9,0.4,1.3c0.2,0.4,0.5,0.7,0.8,0.9s0.6,0.4,0.9,0.6c0.3,0.1,0.6,0.2,0.9,0.2h0.5V42h-0.5c-1.1,0-2-0.2-3-0.6
				c-0.9-0.4-1.7-1-2.4-1.9c-0.1,0.1-0.1,0.2-0.2,0.2c-0.1,0.1-0.1,0.1-0.2,0.2l0,0c-0.6,0.6-1.3,1.1-2,1.5s-1.6,0.5-2.5,0.5
				c-1,0-1.9-0.2-2.7-0.6c-0.8-0.4-1.5-1-2.1-1.7c-0.7,0.7-1.4,1.3-2.2,1.7c-0.8,0.4-1.7,0.7-2.7,0.7c-0.9,0-1.8-0.2-2.6-0.6
				s-1.5-1-2-1.7c-0.6,0.8-1.3,1.4-2.2,1.7s-1.9,0.5-3.2,0.5h-0.3v-5.1h0.2L452.4,37.1L452.4,37.1z M462.1,30.2L462.1,30.2
				C462.1,30.1,462.1,30.1,462.1,30.2z M468.7,23.2l-3.1,3.1l-3.2-3.1l3.1-3.1l3.1,3.1l3.1-3.1l3.2,3.1l-3.1,3.1L468.7,23.2z
				 M471.6,18.5l-2.9,2.9l-2.9-2.9l2.9-2.9L471.6,18.5z"/>
			<path class="st1" d="M482.2,37.1h3.4c1.8,0,3.4-0.1,4.8-0.3s2.8-0.5,4.1-0.9c1.3-0.4,2.5-0.8,3.6-1.2c1.1-0.5,2.3-1,3.4-1.5
				c-0.7-0.2-1.5-0.5-2.2-0.8s-1.5-0.6-2.2-0.9s-1.5-0.5-2.2-0.7s-1.5-0.3-2.2-0.3c-0.5,0-1,0.1-1.5,0.4s-0.9,0.6-1.3,0.9
				c-0.4,0.3-0.7,0.7-1,1s-0.4,0.6-0.5,0.7l-3.8-2.4c0.4-0.7,0.9-1.4,1.5-2.1s1.2-1.3,1.9-1.8c0.7-0.5,1.4-1,2.2-1.3
				c0.8-0.3,1.6-0.5,2.5-0.5c0.6,0,1.3,0.1,1.9,0.2s1.3,0.3,1.9,0.5s1.3,0.5,1.9,0.7c0.6,0.3,1.2,0.6,1.8,0.8
				c0.6,0.3,1.2,0.5,1.7,0.8c0.6,0.3,1.2,0.5,1.8,0.7c0.6,0.2,1.3,0.4,1.9,0.5c0.7,0.1,1.4,0.2,2.1,0.2l-0.4,5l-2.3,1.1
				c-0.9,0.5-1.9,0.9-2.8,1.4s-1.9,1-2.9,1.4c-1,0.5-2,0.9-3,1.3c-1,0.4-2.1,0.8-3.2,1.1s-2.3,0.5-3.6,0.7c-1.3,0.2-2.6,0.3-4,0.3
				h-3.3L482.2,37.1L482.2,37.1z M495.7,51.1l-3.6-3.6l3.6-3.6l3.6,3.6L495.7,51.1z"/>
		</g>
	</g>
</g>
<g>
	<path class="st1" d="M310.9,99.9h19.6c1.7,0,3-0.4,3.8-1.2c0.8-0.8,1.2-2,1.2-3.8v-4.3v-0.9h0.9h4.1h0.9v0.9v4.3
		c0,3.5-0.9,6.1-2.8,8c-1.9,1.8-4.6,2.7-8.3,2.7h-19.4c-3.7,0-6.5-0.9-8.4-2.7c-2-1.8-2.9-4.4-2.9-7.9v-4.4v-0.9h0.9h4.1h0.9v0.9V95
		c0,1.7,0.4,3,1.2,3.7C307.7,99.5,309,99.9,310.9,99.9z M312.2,85.9l4-3.7l4,3.7l-4,3.7L312.2,85.9z M320.8,85.9l4-3.7l4,3.7
		c-0.1,0.1-0.2,0.2-0.3,0.3c-0.2,0.2-0.8,0.7-1.7,1.5c-0.9,0.8-1.6,1.5-2.1,1.9L320.8,85.9z"/>
	<path class="st1" d="M357.2,105.6h-1.1c-2.8,0-5-0.8-6.5-2.4s-2.2-3.8-2.2-6.8V77.1v-0.9h0.9h3.9h0.9v0.9v19.4
		c0,1.2,0.2,2.1,0.7,2.6s1.2,0.8,2.2,0.8h1c0.2,0,0.3,0.3,0.4,0.9s0.2,1.2,0.2,1.8v0.2c0,0.6-0.1,1.2-0.2,1.8
		C357.5,105.3,357.3,105.6,357.2,105.6z"/>
	<path class="st1" d="M363.1,99.9c0.2,0,0.3,0.3,0.4,0.9s0.2,1.2,0.2,1.8v0.2c0,0.6-0.1,1.2-0.2,1.8c-0.1,0.6-0.2,0.9-0.4,0.9h-6.2
		c-0.2,0-0.3-0.3-0.4-0.9s-0.2-1.2-0.2-1.8v-0.2c0-0.6,0.1-1.2,0.2-1.8c0.1-0.6,0.2-0.9,0.4-0.9H363.1z"/>
	<path class="st1" d="M369,99.9c0.2,0,0.3,0.3,0.4,0.9s0.2,1.2,0.2,1.8v0.2c0,0.6-0.1,1.2-0.2,1.8c-0.1,0.6-0.2,0.9-0.4,0.9h-6.2
		c-0.2,0-0.3-0.3-0.4-0.9s-0.2-1.2-0.2-1.8v-0.2c0-0.6,0.1-1.2,0.2-1.8c0.1-0.6,0.2-0.9,0.4-0.9H369z"/>
	<path class="st1" d="M374.9,99.9c0.2,0,0.3,0.3,0.4,0.9s0.2,1.2,0.2,1.8v0.2c0,0.6-0.1,1.2-0.2,1.8c-0.1,0.6-0.2,0.9-0.4,0.9h-6.2
		c-0.2,0-0.3-0.3-0.4-0.9s-0.2-1.2-0.2-1.8v-0.2c0-0.6,0.1-1.2,0.2-1.8c0.1-0.6,0.2-0.9,0.4-0.9H374.9z"/>
	<path class="st1" d="M380.9,99.9c0.2,0,0.3,0.3,0.4,0.9s0.2,1.2,0.2,1.8v0.2c0,0.6-0.1,1.2-0.2,1.8c-0.1,0.6-0.2,0.9-0.4,0.9h-6.2
		c-0.2,0-0.3-0.3-0.4-0.9s-0.2-1.2-0.2-1.8v-0.2c0-0.6,0.1-1.2,0.2-1.8c0.1-0.6,0.2-0.9,0.4-0.9H380.9z"/>
	<path class="st1" d="M380.6,99.9h5.1c-1.3-1.5-1.9-3.2-1.9-5.1c0-2.8,1-5,2.9-6.9c2-1.8,4.4-2.7,7.4-2.7c3.4,0,6.1,1.2,8.3,3.6
		l0.4,0.5l-0.3,0.5l-1.7,2.9l-0.6,1l-0.9-0.8c-1.4-1.3-3.1-1.9-5-1.9c-1.3,0-2.3,0.3-3.1,1c-0.8,0.7-1.3,1.6-1.3,2.7
		s0.6,2.1,1.9,3.1c1.2,0.9,2.1,1.3,2.6,1.3s1.5-0.2,3-0.5l5-1.1l1.2-0.3v1.1v4v0.7l-0.7,0.2c-5.6,1.6-10.5,2.3-14.9,2.3h-7.4
		c-0.2,0-0.3-0.3-0.4-0.9s-0.2-1.2-0.2-1.8v-0.2c0-0.6,0.1-1.2,0.2-1.8C380.3,100.2,380.5,99.9,380.6,99.9z"/>
	<path class="st1" d="M419.2,105.6h-1.1c-2.8,0-5-0.8-6.5-2.4s-2.2-3.8-2.2-6.8V77.1v-0.9h0.9h3.9h0.9v0.9v19.4
		c0,1.2,0.2,2.1,0.7,2.6s1.2,0.8,2.2,0.8h1c0.2,0,0.3,0.3,0.4,0.9s0.2,1.2,0.2,1.8v0.2c0,0.6-0.1,1.2-0.2,1.8
		C419.5,105.3,419.4,105.6,419.2,105.6z"/>
	<path class="st1" d="M425.1,99.9c0.2,0,0.3,0.3,0.4,0.9s0.2,1.2,0.2,1.8v0.2c0,0.6-0.1,1.2-0.2,1.8c-0.1,0.6-0.2,0.9-0.4,0.9h-6.2
		c-0.2,0-0.3-0.3-0.4-0.9s-0.2-1.2-0.2-1.8v-0.2c0-0.6,0.1-1.2,0.2-1.8c0.1-0.6,0.2-0.9,0.4-0.9H425.1z"/>
	<path class="st1" d="M431,99.9c0.2,0,0.3,0.3,0.4,0.9s0.2,1.2,0.2,1.8v0.2c0,0.6-0.1,1.2-0.2,1.8c-0.1,0.6-0.2,0.9-0.4,0.9h-6.2
		c-0.2,0-0.3-0.3-0.4-0.9s-0.2-1.2-0.2-1.8v-0.2c0-0.6,0.1-1.2,0.2-1.8c0.1-0.6,0.2-0.9,0.4-0.9H431z"/>
	<path class="st1" d="M437,99.9c0.2,0,0.3,0.3,0.4,0.9s0.2,1.2,0.2,1.8v0.2c0,0.6-0.1,1.2-0.2,1.8c-0.1,0.6-0.2,0.9-0.4,0.9h-6.2
		c-0.2,0-0.3-0.3-0.4-0.9s-0.2-1.2-0.2-1.8v-0.2c0-0.6,0.1-1.2,0.2-1.8c0.1-0.6,0.2-0.9,0.4-0.9H437z"/>
	<path class="st1" d="M436.7,99.9h2.3c1.7,0,2.9-0.3,3.6-0.8c0.7-0.6,1.1-1.4,1.1-2.6v-5.7v-0.9h0.9h4.1h0.9v0.9v5.8
		c0,1.2,0.3,2.1,0.8,2.6s1.4,0.8,2.7,0.8c1.2,0,2-0.3,2.5-0.8s0.8-1.4,0.8-2.6v-5.7V90h0.9h4h0.9v0.9v5.7c0,1.2,0.3,2.1,0.8,2.6
		s1.4,0.8,2.5,0.8c0.9,0,1.5-0.2,1.9-0.7s0.6-1.3,0.6-2.6v-6.5v-0.9h0.9h4.2h0.9v0.9v6.7c0,2.7-0.7,4.9-2.2,6.5s-3.6,2.4-6.2,2.4
		c-2.7,0-4.8-0.8-6.3-2.5c-1.5,1.6-3.7,2.5-6.5,2.5c-2.6,0-4.7-0.8-6.3-2.5c-1.7,1.7-4.3,2.5-7.8,2.5h-2.2c-0.2,0-0.3-0.3-0.4-0.9
		s-0.2-1.2-0.2-1.8v-0.2c0-0.6,0.1-1.2,0.2-1.8C436.4,100.2,436.6,99.9,436.7,99.9z"/>
	<path class="st1" d="M331.7,143h-0.3v0.9c0,2.9-1.2,5.2-3.6,6.7c-2.4,1.6-5.9,2.3-10.3,2.3h-2.3c-4.9,0-8.6-1.1-11.1-3.3
		s-3.8-5.4-3.8-9.7v-7.5v-0.9h0.9h4.2h0.9v0.9v7.5c0,2.5,0.7,4.3,2.1,5.5s3.6,1.8,6.7,1.8h2.3c1.2,0,2.3-0.1,3.2-0.2
		c0.9-0.1,1.7-0.3,2.5-0.6c0.7-0.3,1.3-0.6,1.7-1.1c0.4-0.5,0.6-1,0.6-1.7V143h-5.1c-0.7,0-1.3-0.2-1.7-0.6c-0.4-0.4-0.7-1.1-1-2
		c-0.4-1.2-0.5-2-0.4-2.5c0.1-0.4,0.6-0.7,1.4-0.7h13c0.2,0,0.3,0.3,0.4,0.9c0.1,0.6,0.2,1.2,0.2,1.8v0.2c0,0.6-0.1,1.2-0.2,1.8
		C332,142.7,331.9,143,331.7,143z M334.6,137.3c0.1,0,0.2,0.3,0.3,0.9c0.1,0.6,0.1,1.2,0.1,1.8v0.2c0,0.6,0,1.2-0.1,1.8
		s-0.1,0.9-0.3,0.9h-3.5c-0.1,0-0.2-0.3-0.3-0.9c-0.1-0.6-0.1-1.2-0.1-1.8V140c0-0.6,0-1.2,0.1-1.8s0.1-0.9,0.3-0.9H334.6z"/>
	<path class="st1" d="M340.3,137.3c0.2,0,0.3,0.3,0.4,0.9c0.1,0.6,0.2,1.2,0.2,1.8v0.2c0,0.6-0.1,1.2-0.2,1.8s-0.2,0.9-0.4,0.9h-6.2
		c-0.2,0-0.3-0.3-0.4-0.9c-0.1-0.6-0.2-1.2-0.2-1.8V140c0-0.6,0.1-1.2,0.2-1.8s0.2-0.9,0.4-0.9H340.3z"/>
	<path class="st1" d="M346.2,137.3c0.2,0,0.3,0.3,0.4,0.9c0.1,0.6,0.2,1.2,0.2,1.8v0.2c0,0.6-0.1,1.2-0.2,1.8s-0.2,0.9-0.4,0.9H340
		c-0.2,0-0.3-0.3-0.4-0.9c-0.1-0.6-0.2-1.2-0.2-1.8V140c0-0.6,0.1-1.2,0.2-1.8s0.2-0.9,0.4-0.9H346.2z"/>
	<path class="st1" d="M352.2,137.3c0.2,0,0.3,0.3,0.4,0.9c0.1,0.6,0.2,1.2,0.2,1.8v0.2c0,0.6-0.1,1.2-0.2,1.8s-0.2,0.9-0.4,0.9H346
		c-0.2,0-0.3-0.3-0.4-0.9c-0.1-0.6-0.2-1.2-0.2-1.8V140c0-0.6,0.1-1.2,0.2-1.8s0.2-0.9,0.4-0.9H352.2z"/>
	<path class="st1" d="M358.1,137.3c0.2,0,0.3,0.3,0.4,0.9c0.1,0.6,0.2,1.2,0.2,1.8v0.2c0,0.6-0.1,1.2-0.2,1.8s-0.2,0.9-0.4,0.9h-6.2
		c-0.2,0-0.3-0.3-0.4-0.9c-0.1-0.6-0.2-1.2-0.2-1.8V140c0-0.6,0.1-1.2,0.2-1.8s0.2-0.9,0.4-0.9H358.1z"/>
	<path class="st1" d="M364,137.3c0.2,0,0.3,0.3,0.4,0.9c0.1,0.6,0.2,1.2,0.2,1.8v0.2c0,0.6-0.1,1.2-0.2,1.8s-0.2,0.9-0.4,0.9h-6.2
		c-0.2,0-0.3-0.3-0.4-0.9c-0.1-0.6-0.2-1.2-0.2-1.8V140c0-0.6,0.1-1.2,0.2-1.8s0.2-0.9,0.4-0.9H364z"/>
	<path class="st1" d="M370,137.3c0.2,0,0.3,0.3,0.4,0.9c0.1,0.6,0.2,1.2,0.2,1.8v0.2c0,0.6-0.1,1.2-0.2,1.8s-0.2,0.9-0.4,0.9h-6.2
		c-0.2,0-0.3-0.3-0.4-0.9c-0.1-0.6-0.2-1.2-0.2-1.8V140c0-0.6,0.1-1.2,0.2-1.8s0.2-0.9,0.4-0.9H370z"/>
	<path class="st1" d="M369.7,137.3h4.8c1.5,0,2.5-0.2,3-0.7c0.5-0.4,0.8-1.3,0.8-2.7v-6.5v-0.9h0.9h4.1h0.9v0.9v6.5
		c0,2.9-0.8,5.2-2.5,6.7c-1.7,1.6-4.1,2.3-7.4,2.3h-4.8c-0.2,0-0.3-0.3-0.4-0.9c-0.1-0.6-0.2-1.2-0.2-1.8V140c0-0.6,0.1-1.2,0.2-1.8
		C369.4,137.6,369.6,137.3,369.7,137.3z M375.8,119.5l4.1-3.8l4.1,3.8l-4.1,3.8L375.8,119.5z"/>
	<path class="st1" d="M400.9,143h-1.1c-2.8,0-5-0.8-6.5-2.4c-1.5-1.6-2.2-3.8-2.2-6.8v-19.3v-0.9h0.9h3.9h0.9v0.9v19.4
		c0,1.2,0.2,2.1,0.7,2.6s1.2,0.8,2.2,0.8h1c0.2,0,0.3,0.3,0.4,0.9c0.1,0.6,0.2,1.2,0.2,1.8v0.2c0,0.6-0.1,1.2-0.2,1.8
		C401.2,142.7,401,143,400.9,143z"/>
	<path class="st1" d="M406.8,137.3c0.2,0,0.3,0.3,0.4,0.9c0.1,0.6,0.2,1.2,0.2,1.8v0.2c0,0.6-0.1,1.2-0.2,1.8s-0.2,0.9-0.4,0.9h-6.2
		c-0.2,0-0.3-0.3-0.4-0.9c-0.1-0.6-0.2-1.2-0.2-1.8V140c0-0.6,0.1-1.2,0.2-1.8s0.2-0.9,0.4-0.9H406.8z"/>
	<path class="st1" d="M412.7,137.3c0.2,0,0.3,0.3,0.4,0.9c0.1,0.6,0.2,1.2,0.2,1.8v0.2c0,0.6-0.1,1.2-0.2,1.8s-0.2,0.9-0.4,0.9h-6.2
		c-0.2,0-0.3-0.3-0.4-0.9c-0.1-0.6-0.2-1.2-0.2-1.8V140c0-0.6,0.1-1.2,0.2-1.8s0.2-0.9,0.4-0.9H412.7z"/>
	<path class="st1" d="M410.7,150.3l4-3.7l4,3.7l-4,3.7L410.7,150.3z M412.5,137.3h6.7c1.5,0,2.5-0.2,3-0.7c0.5-0.4,0.8-1.3,0.8-2.7
		v-6.5v-0.9h0.9h4.1h0.9v0.9v6.5c0,2.9-0.8,5.2-2.5,6.7c-1.7,1.6-4.1,2.3-7.3,2.3h-6.7c-0.2,0-0.3-0.3-0.4-0.9
		c-0.1-0.6-0.2-1.2-0.2-1.8V140c0-0.6,0.1-1.2,0.2-1.8C412.2,137.6,412.3,137.3,412.5,137.3z M419.3,150.3l4-3.7l4,3.7
		c-0.1,0.1-0.2,0.2-0.3,0.3c-0.2,0.2-0.8,0.7-1.7,1.5c-0.9,0.8-1.6,1.5-2.1,1.9L419.3,150.3z"/>
	<path class="st1" d="M445.5,143h-1.1c-2.8,0-5-0.8-6.5-2.4c-1.5-1.6-2.2-3.8-2.2-6.8v-19.3v-0.9h0.9h3.9h0.9v0.9v19.4
		c0,1.2,0.2,2.1,0.7,2.6s1.2,0.8,2.2,0.8h1c0.2,0,0.3,0.3,0.4,0.9c0.1,0.6,0.2,1.2,0.2,1.8v0.2c0,0.6-0.1,1.2-0.2,1.8
		C445.8,142.7,445.7,143,445.5,143z"/>
	<path class="st1" d="M451.4,137.3c0.2,0,0.3,0.3,0.4,0.9c0.1,0.6,0.2,1.2,0.2,1.8v0.2c0,0.6-0.1,1.2-0.2,1.8s-0.2,0.9-0.4,0.9h-6.2
		c-0.2,0-0.3-0.3-0.4-0.9c-0.1-0.6-0.2-1.2-0.2-1.8V140c0-0.6,0.1-1.2,0.2-1.8s0.2-0.9,0.4-0.9H451.4z"/>
	<path class="st1" d="M457.3,137.3c0.2,0,0.3,0.3,0.4,0.9c0.1,0.6,0.2,1.2,0.2,1.8v0.2c0,0.6-0.1,1.2-0.2,1.8s-0.2,0.9-0.4,0.9h-6.2
		c-0.2,0-0.3-0.3-0.4-0.9c-0.1-0.6-0.2-1.2-0.2-1.8V140c0-0.6,0.1-1.2,0.2-1.8s0.2-0.9,0.4-0.9H457.3z"/>
	<path class="st1" d="M455.5,149.5l3.8-3.5l3.8,3.5l-3.8,3.5L455.5,149.5z M457.1,137.3h6.7c1.5,0,2.5-0.2,3-0.7
		c0.5-0.4,0.8-1.3,0.8-2.7v-6.5v-0.9h0.9h4.1h0.9v0.9v6.5c0,2.9-0.8,5.2-2.5,6.7c-1.7,1.6-4.1,2.3-7.3,2.3H457
		c-0.2,0-0.3-0.3-0.4-0.9c-0.1-0.6-0.2-1.2-0.2-1.8V140c0-0.6,0.1-1.2,0.2-1.8C456.8,137.6,456.9,137.3,457.1,137.3z M459.9,154.9
		l3.8-3.5l3.8,3.5l-3.8,3.5L459.9,154.9z M464.2,149.5l3.8-3.5l3.8,3.5L468,153L464.2,149.5z"/>
</g>
</svg>
