<?xml version="1.0" encoding="utf-8"?>
<!-- Generator: Adobe Illustrator 23.0.1, SVG Export Plug-In . SVG Version: 6.00 Build 0)  -->
<svg version="1.1" id="Layer_1" xmlns="http://www.w3.org/2000/svg" xmlns:xlink="http://www.w3.org/1999/xlink" x="0px" y="0px"
	 viewBox="0 0 520 250" style="enable-background:new 0 0 520 250;" width="520" height="250" xml:space="preserve">
<style type="text/css">
	.st0{fill:#E50000;}
	.st1{fill:#FFFFFF;}
	.st2{fill:#004F49;}
	.st3{opacity:0.35;fill:#FFFFFF;enable-background:new    ;}
	.st4{fill:#061133;stroke:#FFFFFF;stroke-width:3;stroke-miterlimit:10;}
	.st5{fill:#FFC200;}
	.st6{fill:#032D44;}
	.st7{opacity:0.48;}
</style>
<g>
	<g>
		<g>
			<path class="st0" d="M463,242.3H257.8c-6.8,0-12.4-5.8-12.4-13v-66.1c0-7.1,5.5-13,12.4-13h205.3c6.8,0,12.4,5.8,12.4,13v66.1
				C475.5,236.6,469.9,242.3,463,242.3z"/>
			<path class="st1" d="M463,243.6H257.8c-7.5,0-13.7-6.4-13.7-14.4v-66.1c0-7.9,6.1-14.4,13.7-14.4h205.3c7.5,0,13.7,6.4,13.7,14.4
				v66.1C476.7,237.3,470.7,243.6,463,243.6z M257.8,151.5c-6.1,0-11.2,5.3-11.2,11.7v66.1c0,6.4,5.1,11.7,11.2,11.7h205.3
				c6.2,0,11.2-5.2,11.2-11.7v-66.1c0-6.4-5.1-11.7-11.2-11.7L257.8,151.5L257.8,151.5z"/>
		</g>
		<g>
			<path class="st1" d="M284.3,207.9h-0.4c-2.9,0-5.5-1.3-7.9-3.7c-1.6,2.3-4.9,3.7-9.8,3.7h-9.4H256v-0.7v-4.5v-0.8h0.8h9.1
				c0.1,0,0.3,0,0.4,0s0.3,0,0.4,0c1,0,1.7-0.1,2.3-0.3c0.5-0.1,1.3-0.3,1.4-0.4c0.4-0.3,0.5-0.4,0.7-0.7c0.1-0.3,0.3-0.4,0.3-0.8
				c0-0.4-0.3-1.2-0.5-1.7c-0.3-0.4-0.4-0.7-0.7-1.3c-0.4-0.4-0.5-0.8-1.2-1.3l-6.7-7.8l-0.3-0.4l0.4-0.5l3-3.3l0.7-0.7l0.5,0.8
				l13.4,16c1.4,1.8,2.8,2.5,4,2.5h0.3c0.4,0,0.5,0.1,0.8,0.3c0.3,0.1,0.4,0.4,0.4,0.7c0.1,0.4,0.1,0.5,0.1,0.8s0,0.4,0,1
				c0,0.1,0,0.1,0,0.1v0.3c0,0.8,0,1.4-0.1,1.9c0,0.3-0.1,0.4-0.3,0.4c-0.1,0.1-0.3,0.3-0.4,0.4
				C284.7,207.8,284.6,207.9,284.3,207.9z"/>
			<path class="st1" d="M305.6,207.9h-0.5c-3.4,0-6-1-7.6-2.8c-1.9,1.9-4.9,2.8-8.8,2.8h-4.5c-0.7,0-1.3-0.3-1.7-0.8
				s-0.5-1.3-0.5-2.1v-0.2c0-0.8,0.1-1.6,0.4-2.1c0.4-0.5,1-1,1.8-1h4.6c1.3,0,2.3-0.1,3.2-0.4c0.9-0.4,1.4-0.7,1.8-1.3
				c0.4-0.5,0.5-1.3,0.5-2.1v-6.3v-0.9h0.8h4.4h0.8v0.8v6.3c0,1.4,0.4,2.3,1.2,3c0.7,0.5,2.1,1,3.7,1h0.5c0.4,0,0.5,0.1,0.8,0.3
				c0.3,0.1,0.4,0.4,0.4,0.7c0.1,0.4,0.1,0.5,0.1,0.8s0,0.4,0,1c0,0.1,0,0.1,0,0.1v0.3c0,0,0,0.1,0,0.3c0,0.3,0,0.4,0,0.4
				c0,0.1,0,0.3,0,0.4c0,0.3,0,0.4-0.1,0.5c0,0.1-0.1,0.4-0.1,0.4c-0.1,0.1-0.1,0.4-0.3,0.4c-0.1,0.1-0.3,0.3-0.4,0.3
				C306,207.9,305.7,207.9,305.6,207.9z M284.2,215.4l2.1-2.1c0.7-0.7,1.4-0.8,2.1-0.1l2.3,2.3c0.7,0.7,0.7,1.4,0,2.1l-2.1,2.1
				c-0.7,0.7-1.4,0.7-2.1,0l-2.3-2.3C283.4,216.6,283.4,216,284.2,215.4z M293,215.4l2.1-2.1c0.7-0.7,1.4-0.8,2.1-0.1l2.3,2.3
				c0.7,0.7,0.7,1.4,0,2.1l-2.1,2.1c-0.7,0.7-1.4,0.7-2.1,0l-2.4-2.3C292.3,216.6,292.3,216.1,293,215.4z"/>
			<path class="st1" d="M326.1,207.9h-0.4c-3.4,0-6-1-7.6-2.8c-2.1,1.9-4.9,2.8-8.8,2.8h-3.7c-0.7,0-1.3-0.3-1.7-0.8
				s-0.5-1.3-0.5-2.1v-0.2c0-0.8,0.1-1.6,0.4-2.1c0.4-0.5,1-1,1.8-1h3.8c2.1,0,3.3-0.4,4.2-1c0.8-0.5,1.3-1.7,1.3-2.9v-6.3v-0.8h0.8
				h4.4h0.8v0.8v6.3c0,1.4,0.4,2.3,1.2,3c0.7,0.5,2.1,1,3.7,1h0.5c0.4,0,0.5,0.1,0.8,0.3c0.3,0.1,0.4,0.4,0.4,0.7
				c0.1,0.4,0.1,0.5,0.1,0.8s0,0.4,0,1c0,0.1,0,0.1,0,0.1v0.3c0,0,0,0.1,0,0.3c0,0.1,0,0.3,0,0.4s0,0.3,0,0.4s0,0.4,0,0.4
				c0,0.1,0,0.3-0.1,0.4c0,0.1-0.1,0.3-0.1,0.4c0,0.1-0.1,0.3-0.1,0.4c-0.1,0.1-0.1,0.3-0.3,0.3c-0.1,0.1-0.3,0.1-0.4,0.1
				C326.3,207.9,326.2,207.9,326.1,207.9z M312.1,180.3l2.1-2.1c0.8-0.8,1.6-0.8,2.1-0.1l2.4,2.3c0.7,0.7,0.7,1.6-0.1,2.1l-2.1,2.1
				c-0.7,0.7-1.6,0.7-2.1,0l-2.3-2.4C311.5,181.8,311.5,181.1,312.1,180.3z"/>
			<path class="st1" d="M325.8,207.9c-0.7,0-1.3-0.3-1.7-0.8s-0.5-1.3-0.5-2.1v-0.2c0-0.8,0.1-1.6,0.4-2.1c0.4-0.5,1-1,1.8-1h8.1
				c1.9,0,3.3-0.3,4.1-0.5c0.8-0.4,1.3-1.2,1.3-1.8c0-0.1,0-0.3-0.1-0.4c-0.1-0.3-0.3-0.4-0.4-0.8c-0.3-0.4-0.4-0.7-0.8-1.3
				c-0.4-0.4-0.7-1-1.3-1.4l-8-9.1c-1-1.2-1.4-2.3-1.4-4c0-0.5,0.1-1.2,0.3-1.7c0.1-0.4,0.4-1,0.7-1.3c0.3-0.3,0.7-0.7,1.2-1.2
				c0.4-0.4,1-0.5,1.4-0.7l15.4-5.1l1.3-0.4v1.3v4.5v0.5l-0.5,0.3l-12.8,4.2l6.8,7.9c2.8,3.3,4.4,6.2,4.4,8.7c0,2.8-1,5-2.8,6.3
				s-4.7,2.1-8.4,2.1h-8.1v-0.1h-0.1v-0.2h-0.3V207.9z"/>
			<path class="st1" d="M384.4,207.9h-18c-3.7,0-6.7-1.2-8.6-3c-2.1-2.1-2.9-5-2.9-8.8v-5v-0.8h0.8h4.4h0.8v0.8v5
				c0,1.9,0.4,3.3,1.4,4.2c0.4,0.4,1.2,0.8,1.7,1.2c0.7,0.3,1.6,0.4,2.4,0.4h17.9c1.9,0,3.3-0.3,4.1-0.7c0.8-0.4,1.3-1.2,1.3-1.9
				c0-0.3-0.3-0.7-0.5-1.4c-0.4-0.7-1.2-1.6-1.9-2.4l-8-9.1c-0.4-0.4-0.8-1.3-1.2-1.8c-0.3-0.7-0.4-1.4-0.4-2.1
				c0-0.8,0.1-1.6,0.4-2.1s0.7-1.3,1.3-1.7c0.5-0.4,1.3-0.8,1.9-1.2l15.4-5.1l1.3-0.4v1.3v4.5v0.5l-0.5,0.1l-13,4.2l13.4,15.3
				c2.1,2.3,3.7,3.5,5.2,3.5h0.5c0.4,0,0.5,0.1,0.8,0.3c0.3,0.1,0.4,0.4,0.4,0.8s0.1,0.5,0.1,0.8s0,0.4,0,0.8c0,0.1,0,0.1,0,0.1v0.3
				c0,0,0,0.1,0,0.3c0,0.3,0,0.4,0,0.5s0,0.4,0,0.5c0,0.3,0,0.4-0.1,0.5s-0.1,0.4-0.3,0.4c-0.1,0.1-0.3,0.3-0.4,0.4
				c-0.1,0.1-0.4,0.1-0.5,0.1h-0.4c-3.3,0-6.2-1.4-8.5-4.2c-0.3,0.4-0.4,0.8-0.8,1.3c-0.4,0.4-0.7,0.7-1.2,1
				c-0.4,0.3-0.8,0.5-1.3,0.8s-1,0.4-1.4,0.5s-1.2,0.4-1.7,0.4c-0.5,0.1-1.3,0.3-1.9,0.3C385.8,207.9,385.1,207.9,384.4,207.9z"/>
			<path class="st1" d="M424.7,207.9h-0.4c-3.4,0-6-1-7.6-2.8c-1.9,1.9-4.9,2.8-8.8,2.8h-4.5c-0.7,0-1.3-0.3-1.7-0.8
				c-0.4-0.5-0.5-1.3-0.5-2.1v-0.2c0-0.8,0.1-1.6,0.4-2.1c0.4-0.5,1-1,1.8-1h4.6c1.3,0,2.3-0.1,3.2-0.4c0.8-0.4,1.4-0.7,1.8-1.3
				c0.4-0.5,0.5-1.3,0.5-2.1v-6.3v-0.9h0.8h4.4h0.8v0.8v6.3c0,1.4,0.4,2.3,1.2,3c0.7,0.5,2.1,1,3.7,1h0.5c0.4,0,0.5,0.1,0.8,0.3
				c0.3,0.1,0.4,0.4,0.4,0.7c0.1,0.4,0.1,0.5,0.1,0.8s0,0.4,0,1c0,0.1,0,0.1,0,0.1v0.3c0,0,0,0.1,0,0.3c0,0.3,0,0.4,0,0.4
				c0,0.1,0,0.3,0,0.4c0,0.3,0,0.4-0.1,0.5c0,0.1-0.1,0.4-0.1,0.4c-0.1,0.1-0.1,0.4-0.3,0.4c-0.1,0.1-0.3,0.3-0.4,0.3
				C425,207.9,424.9,207.9,424.7,207.9z M403.3,215.4l2.1-2.1c0.7-0.7,1.4-0.8,2.1-0.1l2.3,2.3c0.7,0.7,0.7,1.4,0,2.1l-2.1,2.1
				c-0.7,0.7-1.4,0.7-2.1,0l-2.3-2.3C402.6,216.6,402.6,216,403.3,215.4z M412.1,215.4l2.1-2.1c0.7-0.7,1.4-0.8,2.1-0.1l2.3,2.3
				c0.7,0.7,0.7,1.4,0,2.1l-2.1,2.1c-0.7,0.7-1.4,0.7-2.1,0l-2.4-2.3C411.4,216.6,411.4,216.1,412.1,215.4z"/>
			<path class="st1" d="M442,207.9h-1.3c-2.8,0-5.2-1-7-2.8c-1.8,1.9-4.1,2.8-6.9,2.8h-2.3c-0.7,0-1.3-0.3-1.7-0.8
				c-0.4-0.5-0.4-1.3-0.4-2.1v-0.2c0-0.8,0.1-1.6,0.4-2.1c0.4-0.5,1-1,1.8-1h2.3c0.7,0,1.4-0.1,1.9-0.3c0.4-0.1,1-0.4,1.3-0.7
				c0.4-0.4,0.5-0.7,0.7-1.3c0.1-0.4,0.3-1.2,0.3-1.7v-22.1v-0.9h0.8h4.1h0.8v0.8v22.3c0,1.3,0.4,2.1,1.2,2.8c0.7,0.5,1.8,1,3.4,1h1
				c0.4,0,0.5,0.1,0.8,0.3c0.3,0.3,0.4,0.4,0.4,0.8s0.1,0.5,0.1,0.8s0,0.4,0,1c0,0.1,0,0.1,0,0.1v0.3v0.1c0,0.3,0,0.4,0,0.5
				s0,0.4,0,0.5c0,0.3,0,0.4-0.1,0.5s-0.1,0.4-0.3,0.4c-0.1,0.1-0.3,0.3-0.4,0.4C442.4,207.9,442.2,207.9,442,207.9z"/>
			<path class="st1" d="M441.6,207.9c-0.7,0-1.3-0.3-1.7-0.8s-0.5-1.3-0.5-2.1v-0.2c0-0.8,0.1-1.6,0.4-2.1c0.4-0.5,1-1,1.8-1h8.1
				c1.9,0,3.3-0.3,4.1-0.5c0.8-0.4,1.3-1.2,1.3-1.8c0-0.1,0-0.3-0.1-0.4c-0.1-0.3-0.3-0.4-0.4-0.8c-0.3-0.4-0.4-0.7-0.8-1.3
				c-0.4-0.4-0.7-1-1.3-1.4l-8-9.1c-1-1.2-1.4-2.3-1.4-4c0-0.5,0.1-1.2,0.3-1.7c0.1-0.4,0.4-1,0.7-1.3c0.4-0.4,0.7-0.7,1.2-1.2
				c0.4-0.4,1-0.5,1.4-0.7l15.4-5.1l1.3-0.4v1.3v4.5v0.5l-0.5,0.3l-12.8,4.2l6.8,7.9c2.8,3.3,4.4,6.2,4.4,8.7c0,2.8-1,5-2.8,6.3
				s-4.7,2.1-8.4,2.1h-8v-0.1h-0.5V207.9z"/>
		</g>
	</g>
</g>
<g>
	<g>
		<path class="st1" d="M103.5,102c-0.5,0.2-1.2,0.5-1.7,0.7c-0.7,0.2-1.7,0.2-2.7,0.5c-0.7,0-1.9,0.2-2.9,0.2H82.8
			c-3.1,0-5.3-0.7-6.9-2.4c-1.7-1.7-2.4-4-2.4-7.3v-4V89h0.7h3.6h0.7v0.7v4c0,1.7,0.2,2.7,1.2,3.4c0.7,0.7,1.9,1.2,3.4,1.2h14.4
			c-0.7-1.2-1.2-2.7-1.2-4.4c0-1.2,0.2-2.2,0.5-3.1c0.2-0.7,0.7-1.7,1.7-2.7c1.7-1.5,3.4-2.2,5.6-2.2s4,0.7,5.6,2.2
			c0.7,0.7,1.2,1.7,1.7,2.7c0.2,0.7,0.5,2.2,0.5,3.1c0,1.7-0.2,3.1-1.2,4.4h3.1c0.2,0,0.2,0,0.5,0c0.2,0,0.2,0.2,0.2,0.2
			c0,0.2,0.2,0.2,0.2,0.2s0,0.2,0,0.5s0,0.2,0,0.2v0.2c0,0,0,0,0,0.2v0.2c0,0,0,0,0,0.2s0,0.2,0,0.5c0,0,0,0.2,0,0.5s0,0.2,0,0.5
			c0,0,0,0.2-0.2,0.2c0,0.2-0.2,0.2-0.2,0.2c-0.2,0-0.2,0-0.5,0H111C107.8,103.5,105.6,102.7,103.5,102z M100.3,79l1.7-1.7
			c0.5-0.5,1.2-0.7,1.7,0l2.2,1.9c0.5,0.5,0.5,1.2,0,1.7l-1.7,1.7c-0.5,0.5-1.2,0.5-1.7,0l-1.9-2.2C99.6,80.2,99.6,79.5,100.3,79z
			 M100.3,94.1c0,0.7,0.2,1.5,0.7,2.2c0.5,0.5,1.2,0.7,2.2,0.7c1.2,0,1.7-0.2,2.2-0.7s0.7-1.2,0.7-2.2s-0.2-1.5-0.7-2.2
			c-0.2-0.2-0.5-0.5-0.7-0.7S104,91,103.5,91c-0.2,0-0.7,0-1.2,0.2c-0.2,0.2-0.7,0.2-0.7,0.7c-0.2,0.2-0.5,0.5-0.7,0.7
			c0,0.2,0,0.2-0.2,0.5C100.3,93.7,100.3,93.7,100.3,94.1z"/>
		<path class="st1" d="M130.7,103.5h-0.2c-2.7,0-4.8-0.7-6.3-2.2c-1.7,1.7-4,2.2-7.3,2.2h-3.6c-0.5,0-1-0.2-1.2-0.7
			c-0.2-0.2-0.2-1-0.2-1.7v-0.2c0-0.7,0-1.2,0.2-1.7c0.2-0.7,0.7-0.7,1.5-0.7h3.6c1,0,1.9,0,2.7-0.2c0.7-0.2,1.2-0.5,1.5-1
			c0.2-0.2,0.2-1,0.2-1.7v-5.4v-0.5h0.7h3.6h0.7v0.7v5.3c0,1.2,0.2,1.9,0.7,2.4s1.7,0.7,2.9,0.7h0.2c0.2,0,0.5,0,0.7,0.2
			s0.2,0.2,0.2,0.5c0.2,0.2,0,0.5,0,0.7s0,0.2,0,0.7c0,0,0,0,0,0.2v0.2c0,0,0,0,0,0.2s0,0.2,0,0.2v0.2v0.2c0,0,0,0.2-0.2,0.2
			c0,0.2-0.2,0.2-0.2,0.2l-0.2,0.2C131.1,103.5,130.8,103.5,130.7,103.5z M113.3,109.3l1.7-1.7c0.5-0.5,1.2-0.5,1.7,0l1.9,1.9
			c0.5,0.5,0.5,1.2,0,1.7l-1.7,1.7c-0.5,0.5-1.2,0.5-1.7,0l-1.9-1.9C112.6,110.4,112.6,110,113.3,109.3z M120.5,109.3l1.7-1.7
			c0.5-0.5,1.2-0.5,1.7,0l1.9,1.9c0.5,0.5,0.5,1.2,0,1.7l-1.7,1.7c-0.5,0.5-1.2,0.5-1.7,0l-2.2-1.9
			C119.8,110.4,120.1,110,120.5,109.3z"/>
		<path class="st1" d="M151.5,103.5h-2.7c-1.2,0-2.7-0.2-3.6-0.2c-1,0-2.2-0.5-3.4-1.2c-2.2,1-4.8,1.7-7.3,1.7h-3.6
			c-0.5,0-1-0.2-1.2-0.7c-0.2-0.2-0.2-1-0.2-1.7v-0.2c0-0.7,0.2-1.2,0.2-1.7c0.2-0.2,0.7-0.7,1.2-0.7h4.6c-0.7-1.2-1.2-2.7-1.2-4.4
			c0-2.2,0.7-4,2.2-5.6c1.7-1.5,3.4-2.2,5.6-2.2c2.2,0,4,0.7,5.6,2.2c0.2,0.2,0.7,0.7,0.7,1.2c0.2,0.5,0.5,0.7,0.7,1.2
			c0.2,0.2,0.2,0.7,0.2,1.5s0.2,1,0.2,1.7s0,1.7-0.2,2.2c-0.2,0.7-0.5,1.5-0.7,2.2h3.1c0.2,0,0.2,0,0.5,0c0.2,0,0.2,0.2,0.2,0.2
			c0,0.2,0.2,0.2,0.2,0.2s0,0.2,0,0.5s0,0.2,0,0.2v0.2c0,0,0,0,0,0.2v0.2c0,0,0,0,0,0.2s0,0.2,0,0.2v0.2c0,0.2,0,0.2,0,0.2v0.2
			c0,0.2,0,0.2-0.2,0.2l-0.2,0.2l-0.2,0.2C151.7,103.5,151.5,103.5,151.5,103.5z M138.5,79l1.7-1.7c0.5-0.5,1.2-0.7,1.7,0l2.2,1.9
			c0.5,0.5,0.5,1.2,0,1.7l-1.7,1.7c-0.5,0.5-1.2,0.5-1.7,0l-1.9-2.2C138.1,80.2,138.1,79.5,138.5,79z M138.5,94.1
			c0,0.7,0.2,1.5,0.7,2.2c0.7,0.7,1.2,0.7,2.2,0.7s1.7-0.2,2.2-0.7s0.7-1.2,0.7-2.2s-0.2-1.5-0.7-2.2c-0.2-0.2-0.5-0.5-0.7-0.7
			s-0.7-0.2-1.2-0.2c-0.2,0-0.7,0-1.2,0.2c-0.2,0.2-0.7,0.2-0.7,0.7l-0.2,0.2l-0.2,0.2c0,0,0,0.2-0.2,0.2v0.2v0.2
			C138.5,93.7,138.5,93.7,138.5,94.1z"/>
		<path class="st1" d="M169.2,99.8l-1.7,0.7c-3.1,1.7-6.3,2.4-9.8,2.4h-6.2c-0.5,0-1-0.2-1.2-0.7s-0.2-1-0.2-1.7v-0.2
			c0-0.7,0-1.2,0.2-1.7c0.2-0.7,0.7-0.7,1.5-0.7h6c1.5,0,2.7-0.2,4-0.2c1.2-0.2,2.4-0.7,3.6-1.2l4.6-2.2l-2.7-1.7
			c-1.7-0.7-3.1-1.5-4.8-1.5c-1.5,0-2.7,0.5-4.4,1.7l-1.5,1.2l-0.5,0.2l-0.2-0.5l-2.2-2.7l-0.5-0.5l0.5-0.2l1.2-1
			c2.2-1.7,4.6-2.9,6.9-3.1c2.2-0.2,4.8,0.2,7.3,1.7l3.6,2.2c0.2,0.2,0.7,0.2,1.2,0.7c0.2,0.2,0.7,0.2,1.2,0.2c0.2,0,0.7,0.2,1,0.2
			h0.5v0.5v3.6v0.2l-0.2,0.2l-2.2,1.2c0.7,0.2,1.7,0.7,2.7,0.7h2.4c0.2,0,0.5,0,0.7,0.2s0.2,0.2,0.2,0.5s0,0.5,0,0.7s0,0.2,0,0.7
			c0,0,0,0,0,0.2v0.2c0,0.5,0,1.2-0.2,1.5c-0.2,0.5-0.5,0.7-1,0.7h-2c-1.5,0-2.7-0.2-4-0.7C170.9,102,169.7,101.1,169.2,99.8z
			 M159.9,78.5l1.7-1.7c0.5-0.5,1.2-0.7,1.7,0l2.2,1.9c0.5,0.5,0.5,1.2,0,1.7l-1.7,1.7c-0.5,0.5-1.2,0.5-1.7,0l-1.9-2.2
			C159.1,79.5,159.1,79,159.9,78.5z"/>
		<path class="st1" d="M178.3,103.5c-0.5,0-1-0.2-1.2-0.7c-0.2-0.2-0.2-1-0.2-1.7v-0.2c0-0.7,0.2-1.2,0.2-1.7
			c0.2-0.2,0.7-0.7,1.2-0.7h4.8c1.2,0,2.2-0.2,2.7-0.7s0.7-1.2,0.7-2.4v-5.7V89h0.7h3.4h0.7v0.7v5.5c0,2.7-0.7,4.8-2.2,6
			s-3.4,2.2-6,2.2L178.3,103.5L178.3,103.5L178.3,103.5z M179.1,80.7l1.7-1.7c0.5-0.5,1.2-0.5,1.7,0l1.9,1.9c0.5,0.5,0.5,1.2,0,1.7
			l-1.7,1.7c-0.5,0.5-1.2,0.5-1.7,0l-1.9-1.9C178.6,81.8,178.6,81.4,179.1,80.7z M186.3,80.7L188,79c0.5-0.5,1.2-0.5,1.7,0l1.9,1.9
			c0.5,0.5,0.5,1.2,0,1.7l-1.7,1.7c-0.5,0.5-1.2,0.5-1.7,0l-2.2-1.9C185.8,81.8,185.8,81.4,186.3,80.7z"/>
		<path class="st1" d="M200.5,79c0-1.2,0.2-2.2,1.5-2.9c0.7-0.7,1.9-1.2,3.1-1.2c1.2,0,2.2,0.2,3.1,1.2c0.2,0.2,0.2,0.2,0.5,0.5
			s0.2,0.5,0.2,0.7c0.2,0.2,0.2,0.5,0.2,0.7c0.2,0.2,0.2,0.5,0.2,0.7s0,0.7-0.2,1c0,0.2-0.2,0.2-0.2,0.2c0,0.2-0.2,0.2-0.2,0.2
			c-0.2,0.2-0.2,0.2-0.2,0.2c-0.2,0.2-0.2,0.5-0.7,0.7c-0.7,0.7-1.9,1.2-3.1,1.2c-1.1,0-2.2-0.2-3.1-1.2c-0.2-0.2-0.7-0.7-1-1.5
			C200.5,80.2,200.5,79.8,200.5,79z M217.8,73.8l3.6,1.9l0.7,0.2l-16.3,28.6l-0.7-0.2l-3.4-1.9l-0.7-0.2l16.3-28.3
			C217.1,73.8,217.8,73.8,217.8,73.8z M214.5,97.5L214.5,97.5L214.5,97.5v-0.2v-0.2v-0.2v-0.2c0-0.2,0-0.2,0.2-0.2
			c0-0.2,0-0.2,0-0.2v-0.2c0-0.2,0.2-0.2,0.2-0.2l0.2-0.2c0-0.2,0-0.2,0.2-0.2c0.2-0.2,0.2-0.2,0.2-0.2l0.2-0.2l0.2-0.2l0.2-0.2
			l0.2-0.2c0.2-0.2,0.2-0.2,0.2-0.2c0.7-0.7,1.9-1.2,3.1-1.2c0.2,0,0.7,0.2,1,0.2s0.2,0.2,0.5,0.2c0.2,0,0.2,0.2,0.2,0.2
			s0.2,0,0.2,0.2c0.2,0,0.2,0.2,0.2,0.2c0.2,0.2,0.5,0.2,0.7,0.7c0.7,0.7,1.5,1.9,1.5,2.9s-0.2,2.2-1.5,2.9
			c-0.2,0.2-0.7,0.7-1.5,0.7c-0.5,0.2-1,0.2-1.7,0.2c-1.2,0-2.2-0.2-3.1-1.2C215.1,99.7,214.5,98.5,214.5,97.5z"/>
	</g>
	<g>
		<path class="st1" d="M245.2,90.1c-1,0-2-0.1-3-0.3c-1-0.2-1.9-0.5-2.8-1c0.2,1.5,0.3,3,0.4,4.4s0.2,2.8,0.2,4.1
			c0.1,1.4,0.1,2.7,0.1,4s0,2.5,0,3.8h-6.5c0-2.9-0.1-5.7-0.2-8.6c-0.1-2.8-0.3-5.5-0.7-8.1s-0.9-5-1.6-7.3
			c-0.7-2.3-1.6-4.4-2.8-6.1l5.6-3.5c0.5,0.8,0.9,1.5,1.3,2.2c0.4,0.6,0.7,1.4,1,2c0.5-0.8,1.1-1.5,1.9-2c0.7-0.6,1.5-1,2.3-1.4
			s1.6-0.6,2.5-0.8c0.9-0.2,1.8-0.2,2.7-0.2c0.6,0,1.2,0.1,1.9,0.2c0.6,0.1,1.2,0.2,1.9,0.5s1.2,0.5,1.9,0.9
			c0.6,0.3,1.2,0.8,1.9,1.4l-3.4,5.4c0,0-0.2-0.1-0.4-0.2c-0.2-0.2-0.6-0.3-1-0.6c-0.5-0.2-1-0.4-1.6-0.6s-1.3-0.2-2-0.2
			c-0.6,0-1.2,0.1-1.9,0.3c-0.6,0.2-1.2,0.5-1.7,0.9c-0.5,0.3-0.9,0.7-1.2,1.1s-0.4,0.8-0.3,1.2l0,0c0.1,0.5,0.3,0.8,0.7,1.1
			c0.4,0.3,0.9,0.5,1.5,0.6c0.6,0.2,1.2,0.3,1.8,0.3c0.6,0.1,1.2,0.1,1.7,0.1s1,0,1.6-0.1s1.2-0.2,1.8-0.3c0.6-0.2,1.2-0.3,1.8-0.6
			c0.6-0.2,1.1-0.5,1.6-0.8l2.7,5.2c-1.7,1.2-3.3,2.1-4.9,2.5C248.2,89.8,246.7,90.1,245.2,90.1z"/>
		<path class="st1" d="M255.4,92c0-1.1,0.2-2.1,0.6-3.1c0.4-1,1-1.9,1.7-2.6s1.5-1.3,2.5-1.7s2-0.6,3.1-0.6s2.1,0.2,3.1,0.6
			s1.9,1,2.6,1.7s1.3,1.6,1.7,2.6c0.4,1,0.6,2,0.6,3.1s-0.2,2.2-0.6,3.1c-0.4,1-1,1.8-1.7,2.5s-1.6,1.3-2.6,1.7s-2,0.6-3.1,0.6
			s-2.2-0.2-3.1-0.6s-1.8-1-2.5-1.7s-1.3-1.5-1.7-2.5C255.6,94.2,255.4,93.1,255.4,92z M260.2,92c0,0.4,0.1,0.9,0.2,1.2
			c0.2,0.4,0.4,0.7,0.6,1c0.3,0.3,0.6,0.5,1,0.6c0.4,0.2,0.8,0.2,1.2,0.2s0.9-0.1,1.2-0.2c0.4-0.2,0.7-0.4,1-0.6
			c0.3-0.3,0.5-0.6,0.7-1s0.2-0.8,0.2-1.2s-0.1-0.9-0.2-1.2c-0.2-0.4-0.4-0.7-0.7-1s-0.6-0.5-1-0.7s-0.8-0.2-1.2-0.2
			s-0.9,0.1-1.2,0.2c-0.4,0.2-0.7,0.4-1,0.7s-0.5,0.6-0.6,1S260.2,91.6,260.2,92z"/>
	</g>
</g>
<g>
	<path class="st2" d="M224,241.7h-75.5c-7.4,0-13.4-6-13.4-13.4v-63.6c0-7.4,6-13.4,13.4-13.4H224c7.4,0,13.4,6,13.4,13.4v63.6
		C237.4,235.6,231.4,241.7,224,241.7z"/>
	<path class="st1" d="M225.5,243.1h-78.8c-7.3,0-13.2-6.3-13.2-14v-65.3c0-7.7,5.9-14,13.2-14h78.8c7.3,0,13.2,6.3,13.2,14V229
		C238.7,236.8,232.8,243.1,225.5,243.1z M146.8,152.5c-5.8,0-10.5,5-10.5,11.2V229c0,6.2,4.7,11.2,10.5,11.2h78.7
		c5.8,0,10.5-5,10.5-11.2v-65.2c0-6.2-4.7-11.2-10.5-11.2h-78.7V152.5z"/>
</g>
<g>
	<g>
		<path class="st1" d="M166.1,217.6c0.6,0.9,0.9,1.7,1.3,2.6c0.3,0.5,0.4,1.5,1.7,1.5c0.4,0,0.9-0.1,1.4-0.4
			c0.5-0.3,0.9-0.7,1.1-1.3l0.5-1.7l1.2-0.6l0.1,0.1c-0.2,0.6-0.2,1.2-0.2,1.7c0,1.4,1.2,2,2.2,2c0.6,0,1.1-0.3,1.1-0.8
			c0-0.7-0.3-1.8-0.7-2.8c0.6-0.6,1.1-1.1,1.8-1.6l0.1,0.1c0.3,1.2,0.4,2.4,0.4,3.3c0,0.8-0.3,1.6-0.6,2.2c-0.6,1.1-1.6,2-2.9,2
			c-1,0-2-0.5-2.8-1.4l0,0c-0.7,0.8-1.8,1.6-3.6,1.6h-0.5c-0.1,1.1-0.3,1.9-0.7,2.6c-1,2-4.1,3.5-7,3.5c-4.1,0-6-2.3-6-5.4
			c0-1.9,0.6-3.7,1.6-5l0.8,0.3c-0.6,1.1-1,2.2-1,3.3c0,2.8,2.3,4.3,5.1,4.3c2.5,0,5.6-1.6,6.2-3.5c-0.2-2-1-2.9-2.1-4.9
			c0.3-0.6,0.8-1.2,1.3-1.9h0.1L166.1,217.6L166.1,217.6z"/>
		<path class="st1" d="M181.1,215.5l1.4,2.3c0.5,0.9,1,1.8,1,3.4v1.9c0,1.5-1,3.3-2.6,4.9c-1.2,1.1-2.3,1.6-3.5,1.6
			c-1.5,0-3.3-0.5-5.3-1.3l0.2-0.6c0.6,0.2,1.4,0.3,2.3,0.3c2.9,0,5.9-2.1,7.3-4.8c0.2-0.3,0.2-0.6,0.2-0.8c0-0.3-0.2-0.6-0.3-0.9
			c-0.7-1.4-1.6-2.7-2.4-3.9c0.5-0.7,0.9-1.5,1.4-2.2L181.1,215.5z"/>
		<path class="st1" d="M185.3,219.7c0.1,1.5,0.8,2.7,3.4,2.7c1.6,0,2.9-0.4,4.5-1.1c0.3-0.1,0.4-0.3,0.4-0.4c0-0.9-0.7-2.2-1.9-3.4
			c-1.2-1.1-2.7-2-4.3-2.6c-0.5-0.2-0.7-0.4-0.7-0.6c0-0.4,0.6-1.3,1-2h0.2c1.7,0.9,3.6,2.2,5,3.7c1.2,1.3,2,2.7,2,4.2
			c0,1.1-0.3,2.1-0.9,3c-1.8,0.9-3.9,1.6-5.8,1.6c-2.3,0-4-1.1-4-3.8c0-0.3,0-0.7,0.1-1.3L185.3,219.7L185.3,219.7z"/>
		<path class="st1" d="M197.7,224.8c0.2-1.1,0.2-2.3,0.2-3.6v-1.7c0-3.3-0.4-7.9-0.7-11c0.6-0.6,1.4-1.4,2-1.8l0.2,0.1
			c0.4,3.9,0.5,8.3,0.5,12.4c0,1.1,0,2.1-0.1,2.9c-0.1,1-0.6,1.7-1.8,2.8L197.7,224.8z"/>
		<path class="st1" d="M203,218.5c1.2,2.4,2.2,3.8,4.7,3.8h0.4v2.2h-0.4c-0.9,0-1.6-0.2-2.1-0.6h-0.1c0,0.2,0,0.4,0,0.6
			c0,0.8-0.3,1.9-0.8,2.7c-1.6,2.4-3.5,3.6-5,3.6s-3.5-0.6-5.2-1.4l0.3-0.6c0.6,0.2,1.3,0.4,2.3,0.4c2.7,0,6.4-2.6,6.9-5.3
			c-0.1-0.2-0.3-0.5-0.6-0.8c-0.8-1-1.3-1.8-1.8-2.6c0.4-0.8,0.8-1.4,1.1-2L203,218.5z"/>
		<path class="st1" d="M212.5,206.7c0.8,0.5,1.7,1.1,2.4,1.9c-0.4,0.6-1,1.2-1.7,1.7c-0.8-0.6-1.6-1.2-2.4-1.8
			C211.4,207.8,211.9,207.2,212.5,206.7z M212.9,214.6c-1.3,0-2.4,0.9-2.4,1.5c0,1.4,2.7,1.8,6,1.8
			C215.9,216.4,214.5,214.6,212.9,214.6z M209.8,222.3c1.8,0,3.4-0.1,4.5-0.3c1.3-0.3,2.4-1,2.4-1.4c0-0.1,0-0.3,0-0.4
			c-0.7,0.1-1.6,0.1-2.3,0.1c-2.4,0-4.3-0.5-5-1.9c-0.2-0.4-0.3-0.8-0.3-1.2c0-1.3,0.6-2.5,1.5-3.5c0.8-0.7,1.7-1.2,2.6-1.2
			c1.7,0,3,1.3,4,3.5c0.5,1.1,0.9,2.5,0.9,4.2c0,1.1-0.3,2-1,2.7c-1.3,1.2-3.8,1.7-7.4,1.7H208c-1.1,0-1.4-0.7-1.4-1.2
			c0-0.4,0.3-1.1,1.4-1.1L209.8,222.3L209.8,222.3z"/>
	</g>
	<g>
		<path class="st1" d="M185.7,194.8c0-0.4-0.5-1.1-1-1.5c-1.1-0.8-2.3-1.5-3.5-2.2c-0.6-0.4-1.1-0.3-1.1,0.1c0,0.8-0.1,1.6-0.1,2.4
			c0,0.4,0.5,1,1.1,1.4c1.2,0.7,2.4,1.5,3.6,2.2c0.6,0.4,1.1,0.4,1.1,0C185.6,196.5,185.6,195.6,185.7,194.8z"/>
		<path class="st1" d="M178.9,195.2c0-0.4-0.5-1-1.1-1.3c-1.2-0.6-2.5-1.2-3.8-1.8c-0.6-0.3-1.2-0.2-1.3,0.2
			c-0.1,0.8-0.2,1.6-0.3,2.4c-0.1,0.4,0.4,1,1.1,1.3c1.3,0.6,2.6,1.2,4,1.8c0.7,0.3,1.2,0.3,1.2-0.1
			C178.8,196.9,178.8,196,178.9,195.2z"/>
		<path class="st1" d="M185.6,199.3c0-0.4-0.5-1.1-1.1-1.5c-1.2-0.8-2.4-1.5-3.7-2.2c-0.6-0.4-1.1-0.3-1.2,0.1
			c0,0.8-0.1,1.6-0.1,2.4c0,0.4,0.5,1,1.1,1.4c1.2,0.7,2.5,1.5,3.8,2.2c0.6,0.4,1.1,0.4,1.1,0C185.6,200.9,185.6,200.1,185.6,199.3z
			"/>
		<path class="st1" d="M192.2,191.1c0-0.4-0.5-0.5-1.1-0.1c-1.2,0.7-2.3,1.4-3.5,2.2c-0.6,0.4-1,1.1-1,1.5c0,0.8,0,1.6,0,2.4
			c0,0.4,0.5,0.4,1.1,0c1.2-0.8,2.3-1.5,3.6-2.2c0.6-0.4,1.1-1,1.1-1.4C192.3,192.8,192.2,191.9,192.2,191.1z"/>
		<path class="st1" d="M192.5,195.6c0-0.4-0.5-0.5-1.2-0.1c-1.2,0.7-2.4,1.5-3.7,2.2c-0.6,0.4-1.1,1.1-1.1,1.5c0,0.8,0,1.6,0,2.4
			c0,0.4,0.5,0.4,1.1,0c1.2-0.8,2.4-1.5,3.8-2.2c0.6-0.4,1.1-1,1.1-1.4C192.5,197.3,192.5,196.5,192.5,195.6z"/>
		<path class="st1" d="M199.6,192.2c-0.1-0.4-0.6-0.5-1.3-0.2c-1.3,0.6-2.5,1.2-3.8,1.8c-0.6,0.3-1.1,0.9-1.1,1.3
			c0.1,0.8,0.1,1.6,0.2,2.4c0,0.4,0.6,0.5,1.2,0.1c1.3-0.6,2.6-1.2,4-1.8c0.7-0.3,1.2-0.8,1.1-1.3
			C199.8,193.8,199.7,193,199.6,192.2z"/>
		<path class="st3" d="M218.3,177.9c-0.1-0.4-0.7-0.7-1.3-0.6c-1.2,0.1-2.3,0.3-3.6,0.5c-0.6,0.1-1,0.5-0.9,0.9
			c0.2,0.8,0.4,1.5,0.6,2.3c0.1,0.4,0.7,0.6,1.3,0.5c1.2-0.2,2.4-0.4,3.8-0.5c0.6-0.1,1-0.4,0.9-0.8
			C218.9,179.4,218.6,178.6,218.3,177.9z M180.5,172.5c0-0.4-0.4-1-0.8-1.3c-1-0.6-1.9-1.2-2.9-1.7c-0.5-0.3-0.9-0.1-1,0.3
			c-0.1,0.8-0.2,1.6-0.3,2.4c-0.1,0.4,0.3,1,0.9,1.2c1,0.5,2.1,1.1,3.2,1.7c0.5,0.3,1,0.3,1-0.2
			C180.3,174.1,180.4,173.3,180.5,172.5z M158.6,183c0.1-0.4-0.3-0.8-0.9-0.9c-1.2-0.2-2.5-0.4-3.8-0.5c-0.6-0.1-1.2,0.2-1.4,0.6
			c-0.3,0.8-0.5,1.5-0.8,2.3c-0.1,0.4,0.3,0.8,0.9,0.8c1.3,0.1,2.5,0.3,3.9,0.6c0.7,0.1,1.3-0.1,1.4-0.5
			C158.2,184.6,158.4,183.8,158.6,183z M159.8,178.7c0.1-0.4-0.3-0.8-0.9-0.9c-1.2-0.2-2.4-0.4-3.6-0.5c-0.6-0.1-1.2,0.2-1.3,0.6
			c-0.3,0.8-0.5,1.5-0.8,2.3c-0.1,0.4,0.3,0.7,0.9,0.8c1.2,0.1,2.4,0.3,3.8,0.5c0.6,0.1,1.2-0.1,1.3-0.5
			C159.4,180.2,159.6,179.4,159.8,178.7z M161,174.3c0.1-0.4-0.3-0.8-0.8-0.9c-1.1-0.2-2.2-0.3-3.5-0.4c-0.6,0-1.1,0.2-1.3,0.6
			c-0.3,0.8-0.5,1.5-0.8,2.3c-0.1,0.4,0.2,0.7,0.8,0.8c1.2,0.1,2.3,0.3,3.6,0.5c0.6,0.1,1.2-0.1,1.3-0.5
			C160.6,175.8,160.8,175,161,174.3z M162.3,169.8c0.1-0.4-0.2-0.8-0.8-0.9c-1.1-0.2-2.1-0.3-3.3-0.4c-0.5,0-1.1,0.3-1.2,0.6
			c-0.3,0.8-0.5,1.5-0.8,2.3c-0.1,0.4,0.2,0.7,0.8,0.8c1.1,0.1,2.2,0.2,3.5,0.4c0.6,0.1,1.1-0.1,1.2-0.5
			C161.9,171.4,162.1,170.6,162.3,169.8z M163.5,165.5c0.1-0.4-0.2-0.8-0.7-0.9c-1-0.2-2-0.3-3.2-0.3c-0.5,0-1.1,0.3-1.2,0.7
			c-0.3,0.8-0.5,1.5-0.8,2.3c-0.1,0.4,0.2,0.7,0.7,0.8c1.1,0.1,2.1,0.2,3.3,0.4c0.5,0.1,1.1-0.2,1.2-0.6
			C163.1,167.1,163.3,166.3,163.5,165.5z M169.2,167c0.1-0.4-0.3-0.9-0.8-1c-1-0.3-2-0.6-3-0.8c-0.5-0.1-1,0.1-1.1,0.5
			c-0.2,0.8-0.4,1.6-0.6,2.3c-0.1,0.4,0.2,0.8,0.8,0.9c1.1,0.2,2.1,0.5,3.3,0.8c0.5,0.2,1,0,1.1-0.4
			C168.9,168.6,169.1,167.8,169.2,167z M167.3,175.9c0.1-0.4-0.3-0.9-0.9-1.1c-1.1-0.3-2.2-0.6-3.5-0.9c-0.6-0.1-1.1,0.1-1.2,0.5
			c-0.2,0.8-0.4,1.6-0.6,2.3c-0.1,0.4,0.3,0.8,0.9,1c1.2,0.3,2.3,0.6,3.6,0.9c0.6,0.2,1.1,0,1.2-0.4
			C167,177.4,167.2,176.6,167.3,175.9z M173.6,178.3c0.1-0.4-0.4-0.9-0.9-1.2c-1.1-0.5-2.2-0.9-3.4-1.3c-0.6-0.2-1.1,0-1.2,0.4
			c-0.2,0.8-0.3,1.6-0.5,2.4c-0.1,0.4,0.3,0.9,0.9,1.1c1.2,0.4,2.3,0.9,3.6,1.3c0.6,0.2,1.1,0.1,1.2-0.3
			C173.4,179.9,173.5,179.1,173.6,178.3z M174.9,169.3c0.1-0.4-0.3-0.9-0.8-1.2c-1-0.5-2-0.9-3-1.3c-0.5-0.2-1,0-1.1,0.4
			c-0.2,0.8-0.3,1.6-0.5,2.4c-0.1,0.4,0.3,0.9,0.8,1.1c1,0.4,2.1,0.8,3.2,1.3c0.5,0.2,1,0.1,1.1-0.3
			C174.7,170.9,174.8,170.1,174.9,169.3z M199,187.7c-0.1-0.4-0.6-0.5-1.2-0.2c-1.2,0.6-2.4,1.2-3.7,1.8c-0.6,0.3-1.1,0.9-1,1.3
			c0.1,0.8,0.1,1.6,0.2,2.4c0,0.4,0.6,0.5,1.2,0.1c1.2-0.6,2.5-1.2,3.8-1.8c0.6-0.3,1.1-0.8,1.1-1.3
			C199.2,189.3,199.1,188.5,199,187.7z M198.4,183.1c-0.1-0.4-0.6-0.5-1.2-0.2c-1.1,0.6-2.3,1.1-3.5,1.8c-0.6,0.3-1,0.9-1,1.3
			c0.1,0.8,0.1,1.6,0.2,2.4c0,0.4,0.5,0.5,1.1,0.1c1.2-0.6,2.4-1.2,3.6-1.8c0.6-0.3,1.1-0.8,1-1.2
			C198.6,184.8,198.5,184,198.4,183.1z M197.8,178.7c-0.1-0.4-0.5-0.5-1.1-0.2c-1.1,0.5-2.2,1.1-3.3,1.8c-0.5,0.3-1,0.9-0.9,1.3
			c0.1,0.8,0.1,1.6,0.2,2.4c0,0.4,0.5,0.5,1.1,0.2c1.1-0.6,2.2-1.2,3.5-1.8c0.6-0.3,1-0.8,1-1.2C198,180.3,197.9,179.5,197.8,178.7z
			 M197.3,174.2c-0.1-0.4-0.5-0.5-1-0.3c-1,0.5-2.1,1.1-3.2,1.7c-0.5,0.3-0.9,0.9-0.9,1.3c0.1,0.8,0.1,1.6,0.2,2.4
			c0,0.4,0.5,0.5,1,0.2c1.1-0.6,2.1-1.2,3.3-1.8c0.6-0.3,1-0.8,0.9-1.2C197.5,175.8,197.4,175,197.3,174.2z M196.7,169.6
			c-0.1-0.4-0.5-0.5-1-0.3c-1,0.5-2,1.1-2.9,1.7c-0.5,0.3-0.9,0.9-0.8,1.3c0.1,0.8,0.1,1.6,0.2,2.4c0,0.4,0.5,0.5,1,0.2
			c1-0.6,2-1.2,3.2-1.7c0.5-0.3,0.9-0.8,0.9-1.2C196.9,171.2,196.8,170.4,196.7,169.6z M202.4,167.2c-0.1-0.4-0.6-0.6-1.1-0.4
			c-1,0.4-2,0.8-3,1.3c-0.5,0.2-0.9,0.8-0.8,1.2c0.1,0.8,0.2,1.6,0.3,2.4c0.1,0.4,0.5,0.5,1.1,0.3c1-0.5,2.1-0.9,3.2-1.3
			c0.5-0.2,0.9-0.7,0.8-1.1C202.7,168.8,202.5,168,202.4,167.2z M205.9,185.1c-0.1-0.4-0.7-0.6-1.3-0.4c-1.2,0.4-2.4,0.9-3.8,1.4
			c-0.6,0.3-1.1,0.8-1,1.2c0.1,0.8,0.2,1.6,0.3,2.4c0.1,0.4,0.6,0.5,1.3,0.3c1.3-0.5,2.5-1,3.9-1.4c0.6-0.2,1.1-0.7,1-1.1
			C206.2,186.7,206.1,185.9,205.9,185.1z M212.8,183.2c-0.1-0.4-0.7-0.6-1.3-0.5c-1.2,0.3-2.5,0.6-3.8,1c-0.6,0.2-1.1,0.7-1,1.1
			c0.2,0.8,0.3,1.6,0.5,2.4c0.1,0.4,0.7,0.6,1.3,0.4c1.3-0.4,2.6-0.7,3.9-1c0.7-0.2,1.1-0.6,1-1C213.3,184.8,213.1,184,212.8,183.2z
			 M208.1,165.7c-0.1-0.4-0.6-0.6-1.1-0.5c-1,0.2-2,0.5-3,0.8c-0.5,0.2-0.9,0.6-0.8,1c0.2,0.8,0.3,1.6,0.5,2.4
			c0.1,0.4,0.6,0.6,1.1,0.4c1.1-0.3,2.1-0.6,3.3-0.8c0.5-0.1,0.9-0.5,0.8-0.9C208.5,167.2,208.3,166.4,208.1,165.7z M215.3,169.2
			c-0.1-0.4-0.7-0.7-1.2-0.6c-1.1,0.1-2.1,0.2-3.3,0.4c-0.5,0.1-0.9,0.5-0.8,0.9c0.2,0.8,0.4,1.5,0.6,2.3c0.1,0.4,0.7,0.6,1.2,0.5
			c1.1-0.2,2.2-0.3,3.5-0.4c0.6,0,0.9-0.4,0.8-0.8C215.9,170.7,215.6,170,215.3,169.2z M216.8,173.6c-0.1-0.4-0.7-0.7-1.3-0.6
			c-1.1,0.1-2.2,0.2-3.5,0.4c-0.6,0.1-0.9,0.5-0.8,0.9c0.2,0.8,0.4,1.5,0.6,2.3c0.1,0.4,0.7,0.6,1.3,0.5c1.2-0.2,2.3-0.4,3.6-0.5
			c0.6-0.1,1-0.4,0.8-0.8C217.3,175.1,217,174.3,216.8,173.6z"/>
		<path class="st1" d="M158.4,162.9c-0.1,0.4-0.7,0.7-1.2,0.7c-1,0-2,0.1-3.2,0.2c-0.5,0.1-0.8-0.2-0.7-0.6c0.3-0.7,0.6-1.5,0.9-2.2
			c0.2-0.4,0.7-0.8,1.2-0.8c1-0.1,2-0.2,2.9-0.2c0.5,0,0.8,0.3,0.7,0.7C158.9,161.4,158.7,162.2,158.4,162.9z"/>
		<path class="st1" d="M164.7,161.1c0.1-0.4-0.2-0.8-0.7-0.9c-1-0.1-1.9-0.2-2.9-0.3c-0.5,0-1,0.3-1.1,0.7c-0.3,0.8-0.5,1.5-0.8,2.3
			c-0.1,0.4,0.2,0.7,0.7,0.8c1,0.1,2,0.2,3,0.3c0.5,0.1,1-0.2,1.1-0.6C164.3,162.7,164.5,161.9,164.7,161.1z"/>
		<path class="st1" d="M170.1,162.5c0.1-0.4-0.2-0.9-0.7-1c-0.9-0.3-1.9-0.6-2.9-0.8c-0.5-0.1-1,0.1-1.1,0.5
			c-0.2,0.8-0.4,1.5-0.6,2.3c-0.1,0.4,0.2,0.8,0.7,0.9c1,0.2,2,0.5,3,0.8c0.5,0.2,1,0,1.1-0.4C169.8,164.1,170,163.3,170.1,162.5z"
			/>
		<path class="st1" d="M175.5,164.7c0.1-0.4-0.3-0.9-0.8-1.2c-0.9-0.5-1.9-0.9-2.8-1.2c-0.5-0.2-0.9,0-1,0.4
			c-0.2,0.8-0.3,1.6-0.5,2.4c-0.1,0.4,0.3,0.9,0.8,1.1c1,0.4,2,0.8,3,1.3c0.5,0.2,1,0.1,1-0.3C175.3,166.4,175.4,165.6,175.5,164.7z
			"/>
		<path class="st1" d="M180.7,168c0-0.4-0.3-1-0.8-1.3c-0.9-0.6-1.8-1.2-2.8-1.7c-0.5-0.3-0.9-0.1-0.9,0.3c-0.1,0.8-0.2,1.6-0.3,2.4
			c-0.1,0.4,0.3,0.9,0.8,1.2c1,0.5,1.9,1.1,2.9,1.7c0.5,0.3,0.9,0.3,0.9-0.2C180.6,169.6,180.7,168.8,180.7,168z"/>
		<path class="st1" d="M185.7,172.1c0-0.4-0.4-1.1-0.8-1.5c-0.9-0.8-1.8-1.5-2.7-2.2c-0.5-0.4-0.9-0.3-0.9,0.1
			c0,0.8-0.1,1.6-0.1,2.4c0,0.4,0.4,1,0.8,1.4c0.9,0.7,1.9,1.4,2.8,2.2c0.5,0.4,0.9,0.4,0.9,0C185.7,173.7,185.7,172.9,185.7,172.1z
			"/>
		<path class="st1" d="M157.7,164.9c0.1-0.4-0.2-0.7-0.7-0.7c-1,0-2.1,0.1-3.2,0.2c-0.5,0.1-1.1,0.4-1.2,0.8
			c-0.3,0.7-0.6,1.5-0.9,2.2c-0.2,0.4,0.2,0.6,0.7,0.6c1.1-0.1,2.1-0.1,3.3-0.1c0.5,0,1.1-0.3,1.2-0.7
			C157.2,166.5,157.4,165.7,157.7,164.9z"/>
		<path class="st1" d="M185.7,176.6c0-0.4-0.4-1.1-0.9-1.5c-0.9-0.8-1.9-1.5-2.8-2.2c-0.5-0.4-0.9-0.3-0.9,0.1
			c0,0.8-0.1,1.6-0.1,2.4c0,0.4,0.4,1,0.9,1.4c1,0.7,2,1.4,3,2.2c0.5,0.4,0.9,0.4,0.9,0C185.7,178.3,185.7,177.4,185.7,176.6z"/>
		<path class="st1" d="M156.2,169.2c0.1-0.4-0.2-0.7-0.7-0.7c-1.1,0-2.1,0-3.3,0.1c-0.5,0-1.1,0.4-1.3,0.8c-0.3,0.7-0.6,1.5-0.9,2.2
			c-0.2,0.4,0.2,0.6,0.7,0.6c1.1-0.1,2.2-0.1,3.4-0.1c0.6,0,1.1-0.3,1.3-0.7C155.7,170.7,156,170,156.2,169.2z"/>
		<path class="st1" d="M168.3,171.4c0.1-0.4-0.3-0.9-0.8-1c-1.1-0.3-2.1-0.6-3.3-0.8c-0.5-0.1-1.1,0.1-1.2,0.5
			c-0.2,0.8-0.4,1.6-0.6,2.3c-0.1,0.4,0.3,0.8,0.8,0.9c1.1,0.3,2.2,0.5,3.4,0.9c0.6,0.2,1.1,0,1.2-0.4
			C168,173,168.2,172.3,168.3,171.4z"/>
		<path class="st1" d="M174.3,173.8c0.1-0.4-0.3-0.9-0.9-1.2c-1-0.5-2.1-0.9-3.2-1.3c-0.5-0.2-1,0-1.1,0.4c-0.2,0.8-0.3,1.6-0.5,2.4
			c-0.1,0.4,0.3,0.9,0.9,1.1c1.1,0.4,2.2,0.8,3.4,1.3c0.6,0.2,1.1,0.1,1.1-0.3C174.1,175.4,174.2,174.6,174.3,173.8z"/>
		<path class="st1" d="M180.1,177c0-0.4-0.4-1-0.9-1.3c-1-0.6-2.1-1.2-3.2-1.7c-0.5-0.3-1-0.2-1,0.3c-0.1,0.8-0.2,1.6-0.3,2.4
			c-0.1,0.4,0.4,1,0.9,1.2c1.1,0.5,2.2,1.1,3.3,1.8c0.5,0.3,1,0.3,1-0.2C180,178.7,180,177.9,180.1,177z"/>
		<path class="st1" d="M185.7,181.1c0-0.4-0.4-1.1-0.9-1.5c-1-0.8-2-1.5-3-2.2c-0.5-0.4-0.9-0.3-1,0.1c0,0.8-0.1,1.6-0.1,2.4
			c0,0.4,0.4,1,0.9,1.4c1,0.7,2.1,1.4,3.2,2.2c0.5,0.4,0.9,0.4,0.9,0C185.7,182.7,185.7,181.9,185.7,181.1z"/>
		<path class="st1" d="M154.6,173.5c0.1-0.4-0.2-0.7-0.8-0.7c-1.1,0-2.2,0-3.5,0.1c-0.6,0-1.2,0.4-1.3,0.8c-0.3,0.7-0.6,1.5-0.9,2.2
			c-0.2,0.4,0.2,0.6,0.8,0.6c1.2-0.1,2.3-0.1,3.6,0c0.6,0,1.2-0.3,1.3-0.7C154.1,175,154.4,174.3,154.6,173.5z"/>
		<path class="st1" d="M179.8,181.6c0-0.4-0.4-1-0.9-1.3c-1.1-0.6-2.2-1.2-3.3-1.8c-0.6-0.3-1-0.2-1.1,0.2c-0.1,0.8-0.2,1.6-0.3,2.4
			c-0.1,0.4,0.4,1,1,1.2c1.1,0.6,2.3,1.1,3.5,1.8c0.6,0.3,1.1,0.3,1.1-0.2C179.7,183.2,179.7,182.4,179.8,181.6z"/>
		<path class="st1" d="M185.7,185.7c0-0.4-0.4-1.1-0.9-1.5c-1-0.8-2.1-1.5-3.2-2.2c-0.5-0.4-1-0.3-1,0.1c0,0.8-0.1,1.6-0.1,2.4
			c0,0.4,0.4,1,1,1.4c1.1,0.7,2.2,1.4,3.3,2.2c0.5,0.4,1,0.4,1,0C185.7,187.3,185.7,186.5,185.7,185.7z"/>
		<path class="st1" d="M153.1,177.8c0.1-0.4-0.2-0.7-0.8-0.8c-1.2,0-2.3,0-3.6,0c-0.6,0-1.2,0.4-1.4,0.8c-0.3,0.7-0.6,1.5-0.9,2.2
			c-0.2,0.4,0.2,0.7,0.8,0.6c1.2,0,2.4,0,3.7,0c0.6,0,1.2-0.3,1.4-0.6C152.6,179.3,152.9,178.6,153.1,177.8z"/>
		<path class="st1" d="M166.4,180.3c0.1-0.4-0.3-0.9-0.9-1.1c-1.2-0.3-2.3-0.7-3.6-0.9c-0.6-0.1-1.2,0.1-1.3,0.5
			c-0.2,0.8-0.4,1.6-0.6,2.3c-0.1,0.4,0.3,0.8,0.9,1c1.2,0.3,2.4,0.6,3.8,1c0.6,0.2,1.2,0,1.3-0.4
			C166.1,181.9,166.3,181.1,166.4,180.3z"/>
		<path class="st1" d="M173,182.8c0.1-0.4-0.4-1-1-1.2c-1.2-0.5-2.3-0.9-3.6-1.3c-0.6-0.2-1.1,0-1.2,0.4c-0.2,0.8-0.3,1.6-0.5,2.4
			c-0.1,0.4,0.4,0.9,1,1.1c1.2,0.4,2.4,0.9,3.7,1.4c0.6,0.3,1.2,0.1,1.2-0.3C172.8,184.5,172.9,183.6,173,182.8z"/>
		<path class="st1" d="M179.5,186.1c0-0.4-0.4-1-1-1.3c-1.1-0.6-2.3-1.2-3.5-1.8c-0.6-0.3-1.1-0.2-1.2,0.2c-0.1,0.8-0.2,1.6-0.3,2.4
			c-0.1,0.4,0.4,1,1,1.2c1.2,0.6,2.4,1.2,3.6,1.8c0.6,0.3,1.1,0.3,1.1-0.1C179.4,187.7,179.4,186.9,179.5,186.1z"/>
		<path class="st1" d="M185.7,190.3c0-0.4-0.4-1.1-1-1.5c-1.1-0.8-2.2-1.5-3.4-2.2c-0.6-0.4-1-0.3-1.1,0.1c0,0.8-0.1,1.6-0.1,2.4
			c0,0.4,0.4,1,1,1.4c1.1,0.7,2.3,1.4,3.5,2.2c0.6,0.4,1,0.4,1,0C185.7,191.9,185.7,191.1,185.7,190.3z"/>
		<path class="st1" d="M151.7,182.1c0.1-0.4-0.3-0.7-0.9-0.8c-1.2-0.1-2.4-0.1-3.7,0c-0.6,0-1.2,0.4-1.4,0.7
			c-0.3,0.7-0.6,1.5-0.9,2.2c-0.2,0.4,0.2,0.7,0.9,0.7c1.2,0,2.5,0,3.9,0.1c0.6,0,1.3-0.2,1.4-0.6
			C151.1,183.6,151.4,182.8,151.7,182.1z"/>
		<path class="st1" d="M165.5,184.8c0.1-0.4-0.4-0.9-1-1.1c-1.2-0.4-2.5-0.7-3.8-1c-0.6-0.1-1.2,0.1-1.3,0.5
			c-0.2,0.8-0.4,1.6-0.6,2.3c-0.1,0.4,0.3,0.8,1,1c1.3,0.3,2.6,0.6,3.9,1c0.7,0.2,1.2,0,1.3-0.4
			C165.2,186.4,165.4,185.6,165.5,184.8z"/>
		<path class="st1" d="M172.4,187.3c0.1-0.4-0.4-1-1-1.2c-1.2-0.5-2.4-1-3.8-1.4c-0.6-0.2-1.2-0.1-1.3,0.4c-0.2,0.8-0.3,1.6-0.5,2.4
			c-0.1,0.4,0.4,0.9,1,1.1c1.3,0.4,2.5,0.9,3.9,1.4c0.6,0.3,1.2,0.1,1.3-0.3C172.2,188.9,172.3,188.1,172.4,187.3z"/>
		<path class="st1" d="M179.2,190.7c0-0.4-0.4-1-1-1.3c-1.2-0.6-2.4-1.2-3.7-1.8c-0.6-0.3-1.1-0.2-1.2,0.2c-0.1,0.8-0.2,1.6-0.3,2.4
			c-0.1,0.4,0.4,1,1.1,1.3c1.2,0.6,2.5,1.2,3.8,1.8c0.6,0.3,1.1,0.3,1.2-0.1C179.1,192.3,179.1,191.5,179.2,190.7z"/>
		<path class="st1" d="M150.2,186.4c0.1-0.4-0.3-0.7-0.9-0.8c-1.3-0.1-2.5-0.1-3.9-0.1c-0.6,0-1.3,0.3-1.4,0.7
			c-0.3,0.7-0.6,1.5-0.9,2.2c-0.2,0.4,0.2,0.7,0.9,0.7c1.3,0,2.6,0,4,0.1c0.7,0,1.3-0.2,1.5-0.6
			C149.6,187.9,149.9,187.1,150.2,186.4z"/>
		<path class="st1" d="M157.4,187.4c0.1-0.4-0.3-0.8-1-0.9c-1.3-0.2-2.6-0.4-3.9-0.6c-0.6-0.1-1.3,0.2-1.4,0.6
			c-0.3,0.8-0.5,1.5-0.8,2.3c-0.1,0.4,0.3,0.8,1,0.8c1.3,0.2,2.6,0.4,4.1,0.6c0.7,0.1,1.3-0.1,1.4-0.5
			C157,188.9,157.2,188.2,157.4,187.4z"/>
		<path class="st1" d="M164.7,189.2c0.1-0.4-0.4-0.9-1-1.1c-1.3-0.4-2.6-0.7-4-1c-0.7-0.2-1.3,0.1-1.4,0.5c-0.2,0.8-0.4,1.6-0.6,2.3
			c-0.1,0.4,0.4,0.8,1,1c1.3,0.3,2.7,0.7,4.1,1c0.7,0.2,1.3,0,1.4-0.4C164.3,190.9,164.5,190,164.7,189.2z"/>
		<path class="st1" d="M171.9,191.9c0.1-0.4-0.4-1-1.1-1.2c-1.3-0.5-2.5-1-3.9-1.4c-0.7-0.2-1.2-0.1-1.3,0.3
			c-0.2,0.8-0.3,1.6-0.5,2.4c-0.1,0.4,0.4,0.9,1.1,1.1c1.3,0.4,2.6,0.9,4.1,1.4c0.7,0.3,1.3,0.2,1.3-0.3
			C171.6,193.4,171.7,192.7,171.9,191.9z"/>
		<path class="st1" d="M191.1,170.8c0,0.4-0.4,1-0.8,1.4c-0.9,0.7-1.9,1.4-2.8,2.2c-0.5,0.4-0.9,0.4-0.9,0c0-0.8,0-1.6,0-2.4
			c0-0.4,0.4-1.1,0.8-1.5c0.9-0.8,1.8-1.5,2.7-2.2c0.5-0.4,0.9-0.3,0.9,0.1C191,169.2,191,170,191.1,170.8z"/>
		<path class="st1" d="M196.2,165.1c-0.1-0.4-0.5-0.5-0.9-0.3c-0.9,0.5-1.8,1.1-2.8,1.7c-0.5,0.3-0.8,0.9-0.8,1.3
			c0.1,0.8,0.1,1.6,0.2,2.4c0,0.4,0.4,0.5,0.9,0.2c1-0.6,1.9-1.2,2.9-1.7c0.5-0.3,0.9-0.8,0.8-1.2
			C196.4,166.8,196.3,166,196.2,165.1z"/>
		<path class="st1" d="M201.5,162.7c-0.1-0.4-0.5-0.6-1-0.4c-0.9,0.4-1.9,0.8-2.8,1.2c-0.5,0.2-0.8,0.8-0.8,1.2
			c0.1,0.8,0.2,1.6,0.3,2.4c0.1,0.4,0.5,0.5,1,0.3c1-0.5,2-0.9,3-1.3c0.5-0.2,0.9-0.7,0.8-1.1C201.8,164.3,201.7,163.5,201.5,162.7z
			"/>
		<path class="st1" d="M206.9,161.3c-0.1-0.4-0.6-0.6-1.1-0.5c-1,0.2-1.9,0.5-2.9,0.8c-0.5,0.2-0.8,0.6-0.7,1
			c0.2,0.8,0.3,1.6,0.5,2.4c0.1,0.4,0.6,0.6,1.1,0.4c1-0.3,2-0.6,3-0.8c0.5-0.1,0.8-0.5,0.7-0.9C207.3,162.8,207.1,162,206.9,161.3z
			"/>
		<path class="st1" d="M212.4,160.7c-0.1-0.4-0.6-0.7-1.1-0.7c-1,0-1.9,0.1-2.9,0.3c-0.5,0.1-0.8,0.5-0.7,0.9
			c0.2,0.8,0.4,1.5,0.6,2.3c0.1,0.4,0.6,0.6,1.1,0.6c1-0.2,2-0.3,3-0.3c0.5,0,0.8-0.4,0.7-0.8C212.9,162.2,212.7,161.4,212.4,160.7z
			"/>
		<path class="st1" d="M218,161c-0.2-0.4-0.7-0.8-1.2-0.8c-1-0.1-2-0.2-2.9-0.2c-0.5,0-0.8,0.3-0.7,0.7c0.3,0.8,0.5,1.5,0.8,2.3
			c0.1,0.4,0.7,0.7,1.2,0.7c1,0,2,0.1,3.2,0.2c0.5,0.1,0.8-0.2,0.7-0.6C218.6,162.5,218.3,161.8,218,161z"/>
		<path class="st1" d="M191.2,173c0-0.4-0.4-0.5-0.9-0.1c-1,0.7-1.9,1.4-2.8,2.2c-0.5,0.4-0.9,1.1-0.9,1.5c0,0.8,0,1.6,0,2.4
			c0,0.4,0.4,0.4,0.9,0c1-0.8,2-1.5,3-2.2c0.5-0.4,0.9-1,0.9-1.4C191.3,174.6,191.2,173.8,191.2,173z"/>
		<path class="st1" d="M213.9,164.9c-0.1-0.4-0.7-0.7-1.2-0.7c-1,0.1-2,0.2-3.2,0.3c-0.5,0.1-0.8,0.5-0.7,0.9
			c0.2,0.8,0.4,1.5,0.6,2.3c0.1,0.4,0.6,0.6,1.2,0.6c1.1-0.2,2.1-0.3,3.3-0.4c0.5,0,0.9-0.4,0.7-0.8
			C214.4,166.5,214.1,165.8,213.9,164.9z"/>
		<path class="st1" d="M219.7,165.2c-0.2-0.4-0.7-0.8-1.2-0.8c-1-0.1-2.1-0.2-3.2-0.2c-0.5,0-0.8,0.3-0.7,0.7
			c0.3,0.8,0.5,1.5,0.8,2.3c0.1,0.4,0.7,0.7,1.2,0.7c1.1,0,2.1,0,3.3,0.1c0.5,0,0.9-0.2,0.7-0.6C220.3,166.7,220,166,219.7,165.2z"
			/>
		<path class="st1" d="M191.4,177.4c0-0.4-0.5-0.5-1-0.1c-1,0.7-2,1.4-3,2.2c-0.5,0.4-0.9,1.1-0.9,1.5c0,0.8,0,1.6,0,2.4
			c0,0.4,0.4,0.4,0.9,0c1-0.8,2.1-1.5,3.2-2.2c0.5-0.4,1-1,0.9-1.4C191.5,179.1,191.5,178.3,191.4,177.4z"/>
		<path class="st1" d="M203.2,171.7c-0.1-0.4-0.6-0.6-1.1-0.4c-1.1,0.4-2.1,0.8-3.2,1.3c-0.5,0.2-0.9,0.8-0.9,1.2
			c0.1,0.8,0.2,1.6,0.3,2.4c0.1,0.4,0.5,0.5,1.1,0.3c1.1-0.5,2.2-0.9,3.4-1.3c0.6-0.2,1-0.7,0.9-1.1
			C203.5,173.3,203.4,172.5,203.2,171.7z"/>
		<path class="st1" d="M209.3,170c-0.1-0.4-0.6-0.6-1.2-0.5c-1.1,0.2-2.1,0.5-3.3,0.8c-0.5,0.2-0.9,0.6-0.8,1
			c0.2,0.8,0.3,1.6,0.5,2.4c0.1,0.4,0.6,0.6,1.2,0.4c1.1-0.3,2.2-0.6,3.4-0.9c0.6-0.1,0.9-0.5,0.8-0.9
			C209.7,171.6,209.5,170.8,209.3,170z"/>
		<path class="st1" d="M221.4,169.4c-0.2-0.4-0.7-0.7-1.3-0.8c-1.1-0.1-2.1-0.1-3.3-0.1c-0.5,0-0.9,0.3-0.7,0.7
			c0.3,0.8,0.5,1.5,0.8,2.3c0.1,0.4,0.7,0.7,1.3,0.7c1.1,0,2.2,0,3.4,0.1c0.6,0,0.9-0.2,0.7-0.6C222,170.9,221.7,170.1,221.4,169.4z
			"/>
		<path class="st1" d="M191.7,182c0-0.4-0.5-0.5-1-0.1c-1.1,0.7-2.1,1.4-3.2,2.2c-0.5,0.4-0.9,1.1-0.9,1.5c0,0.8,0,1.6,0,2.4
			c0,0.4,0.4,0.4,1,0c1.1-0.8,2.1-1.5,3.3-2.2c0.6-0.4,1-1,1-1.4C191.8,183.6,191.7,182.8,191.7,182z"/>
		<path class="st1" d="M204.1,176.1c-0.1-0.4-0.6-0.6-1.2-0.4c-1.1,0.4-2.2,0.8-3.4,1.3c-0.6,0.2-1,0.8-0.9,1.2
			c0.1,0.8,0.2,1.6,0.3,2.4c0.1,0.4,0.6,0.5,1.2,0.3c1.1-0.5,2.3-0.9,3.6-1.3c0.6-0.2,1-0.7,0.9-1.1
			C204.4,177.8,204.2,176.9,204.1,176.1z"/>
		<path class="st1" d="M210.4,174.4c-0.1-0.4-0.7-0.6-1.2-0.5c-1.1,0.3-2.2,0.5-3.5,0.9c-0.6,0.2-1,0.6-0.9,1.1
			c0.2,0.8,0.3,1.6,0.5,2.4c0.1,0.4,0.6,0.6,1.2,0.4c1.2-0.3,2.3-0.7,3.6-0.9c0.6-0.1,1-0.6,0.9-1
			C210.8,176,210.6,175.2,210.4,174.4z"/>
		<path class="st1" d="M223.1,173.6c-0.2-0.4-0.7-0.7-1.3-0.8c-1.1-0.1-2.2-0.1-3.5-0.1c-0.6,0-0.9,0.3-0.8,0.7
			c0.3,0.8,0.5,1.5,0.8,2.3c0.1,0.4,0.7,0.7,1.3,0.7c1.2,0,2.3,0,3.6,0c0.6,0,0.9-0.2,0.8-0.6C223.7,175.1,223.4,174.4,223.1,173.6z
			"/>
		<path class="st1" d="M191.9,186.6c0-0.4-0.5-0.5-1.1-0.1c-1.1,0.7-2.2,1.4-3.4,2.2c-0.5,0.4-1,1.1-1,1.5c0,0.8,0,1.6,0,2.4
			c0,0.4,0.5,0.4,1,0c1.1-0.8,2.2-1.5,3.5-2.2c0.6-0.4,1-1,1-1.4C192,188.2,192,187.4,191.9,186.6z"/>
		<path class="st1" d="M204.9,180.6c-0.1-0.4-0.6-0.6-1.2-0.4c-1.2,0.4-2.3,0.9-3.6,1.3c-0.6,0.2-1,0.8-1,1.2
			c0.1,0.8,0.2,1.6,0.3,2.4c0.1,0.4,0.6,0.5,1.2,0.3c1.2-0.5,2.4-1,3.7-1.4c0.6-0.2,1.1-0.7,1-1.1
			C205.3,182.2,205.2,181.4,204.9,180.6z"/>
		<path class="st1" d="M211.7,178.8c-0.1-0.4-0.7-0.6-1.3-0.5c-1.2,0.3-2.3,0.6-3.6,0.9c-0.6,0.2-1,0.7-0.9,1.1
			c0.2,0.8,0.3,1.6,0.5,2.4c0.1,0.4,0.7,0.6,1.3,0.4c1.2-0.4,2.4-0.7,3.8-1c0.6-0.1,1-0.6,0.9-1
			C212.1,180.4,211.9,179.6,211.7,178.8z"/>
		<path class="st1" d="M224.9,177.9c-0.2-0.4-0.8-0.7-1.4-0.8c-1.2-0.1-2.3-0.1-3.6,0c-0.6,0-1,0.4-0.8,0.8c0.3,0.8,0.5,1.5,0.8,2.3
			c0.1,0.4,0.8,0.7,1.4,0.6c1.2-0.1,2.4-0.1,3.7,0c0.6,0,1-0.3,0.8-0.6C225.6,179.3,225.2,178.6,224.9,177.9z"/>
		<path class="st1" d="M219.8,182.1c-0.1-0.4-0.7-0.7-1.4-0.6c-1.2,0.1-2.5,0.3-3.8,0.5c-0.6,0.1-1,0.5-0.9,0.9
			c0.2,0.8,0.4,1.5,0.6,2.3c0.1,0.4,0.7,0.6,1.4,0.5c1.3-0.2,2.5-0.4,3.9-0.6c0.6-0.1,1.1-0.4,0.9-0.8
			C220.3,183.6,220.1,182.9,219.8,182.1z"/>
		<path class="st1" d="M226.7,182c-0.2-0.4-0.8-0.7-1.4-0.7c-1.2,0-2.4,0-3.7,0c-0.6,0-1,0.4-0.9,0.8c0.3,0.8,0.5,1.5,0.8,2.3
			c0.1,0.4,0.8,0.7,1.4,0.6c1.3-0.1,2.5-0.1,3.9-0.1c0.6,0,1-0.3,0.9-0.7C227.3,183.5,227,182.7,226.7,182z"/>
		<path class="st1" d="M206.8,189.5c-0.1-0.4-0.7-0.6-1.3-0.3c-1.3,0.4-2.6,0.9-3.9,1.4c-0.6,0.3-1.1,0.8-1.1,1.2
			c0.1,0.8,0.2,1.6,0.3,2.4c0.1,0.4,0.6,0.5,1.3,0.3c1.3-0.5,2.6-1,4.1-1.4c0.7-0.2,1.2-0.7,1.1-1.1
			C207.1,191.2,206.9,190.4,206.8,189.5z"/>
		<path class="st1" d="M214,187.6c-0.1-0.4-0.7-0.6-1.4-0.5c-1.3,0.3-2.6,0.6-3.9,1c-0.7,0.2-1.1,0.7-1,1.1c0.2,0.8,0.3,1.6,0.5,2.4
			c0.1,0.4,0.7,0.6,1.4,0.4c1.3-0.4,2.7-0.7,4.1-1c0.7-0.2,1.1-0.6,1-1C214.4,189.1,214.2,188.4,214,187.6z"/>
		<path class="st1" d="M221.2,186.5c-0.1-0.4-0.8-0.7-1.4-0.6c-1.3,0.1-2.6,0.3-3.9,0.6c-0.7,0.1-1.1,0.5-1,0.9
			c0.2,0.8,0.4,1.5,0.6,2.3c0.1,0.4,0.8,0.6,1.4,0.5c1.3-0.2,2.7-0.5,4.1-0.6c0.7-0.1,1.1-0.5,1-0.8
			C221.8,188,221.5,187.2,221.2,186.5z"/>
		<path class="st1" d="M228.4,186.2c-0.2-0.4-0.8-0.7-1.4-0.7c-1.3,0-2.5,0-3.9,0.1c-0.6,0-1.1,0.4-0.9,0.8c0.3,0.8,0.5,1.5,0.8,2.3
			c0.1,0.4,0.8,0.7,1.5,0.6c1.3-0.1,2.6-0.1,4-0.1c0.7,0,1.1-0.3,0.9-0.7C229,187.7,228.7,187,228.4,186.2z"/>
	</g>
</g>
<path class="st4" d="M465.6,137.4H54.3c-4.9,0-8.8-3.9-8.8-8.8v-67c0-4.9,3.9-8.8,8.8-8.8h411.3c4.9,0,8.8,3.9,8.8,8.8v67
	C474.4,133.4,470.5,137.4,465.6,137.4z"/>
<g>
	<g>
		<g>
			<g>
				<path class="st5" d="M264.1,121.7H79.7c-3.3,0-6.3-2.8-6.3-6.3v-40c0-3.3,2.8-6.3,6.3-6.3h184.4c3.3,0,6.3,2.8,6.3,6.3v40.1
					C270.4,118.8,267.6,121.7,264.1,121.7z"/>
				<path class="st1" d="M264.1,122.9H79.7c-4.2,0-7.8-3.5-7.8-7.8V75.3c0-4.2,3.5-7.8,7.8-7.8h184.4c4.2,0,7.8,3.5,7.8,7.8v40.1
					C271.8,119.7,268.5,122.9,264.1,122.9z M79.7,70.5c-2.6,0-4.8,2.2-4.8,4.8v40.1c0,2.6,2.2,4.8,4.8,4.8h184.4
					c2.6,0,4.8-2.2,4.8-4.8v-40c0-2.6-2.2-4.8-4.8-4.8L79.7,70.5L79.7,70.5z"/>
			</g>
		</g>
	</g>
	<g>
		<path class="st6" d="M109.2,105.7c-0.5,0.2-1.1,0.5-1.5,0.7c-0.7,0.2-1.5,0.2-2.4,0.5c-0.7,0-1.7,0.2-2.6,0.2H90.5
			c-2.8,0-4.8-0.7-6.3-2.2s-2.2-3.6-2.2-6.6v-3.6V94h0.7H86h0.7v0.7v3.6c0,1.5,0.2,2.4,1.1,3.1c0.7,0.7,1.7,1.1,3.1,1.1h13
			c-0.7-1.1-1.1-2.4-1.1-3.9c0-1.1,0.2-2,0.5-2.8c0.2-0.7,0.7-1.5,1.5-2.4c1.5-1.3,3.1-2,5.1-2s3.6,0.7,5.1,2
			c0.7,0.7,1.1,1.5,1.5,2.4c0.2,0.7,0.5,2,0.5,2.8c0,1.5-0.2,2.8-1.1,3.9h2.8c0.2,0,0.2,0,0.5,0c0.2,0,0.2,0.2,0.2,0.2
			c0,0.2,0.2,0.2,0.2,0.2s0,0.2,0,0.5s0,0.2,0,0.2v0.2c0,0,0,0,0,0.2v0.2c0,0,0,0,0,0.2s0,0.2,0,0.5c0,0,0,0.2,0,0.5s0,0.2,0,0.5
			c0,0,0,0.2-0.2,0.2c0,0.2-0.2,0.2-0.2,0.2c-0.2,0-0.2,0-0.5,0H116C113.2,107,111.1,106.4,109.2,105.7z M106.4,84.8l1.5-1.5
			c0.5-0.5,1.1-0.7,1.5,0l2,1.7c0.5,0.5,0.5,1.1,0,1.5l-1.5,1.5c-0.5,0.5-1.1,0.5-1.5,0l-1.7-2C105.7,85.9,105.7,85.3,106.4,84.8z
			 M106.4,98.6c0,0.7,0.2,1.3,0.7,2c0.5,0.5,1.1,0.7,2,0.7c1.1,0,1.5-0.2,2-0.7s0.7-1.1,0.7-2s-0.2-1.3-0.7-2
			c-0.2-0.2-0.5-0.5-0.7-0.7s-0.7-0.2-1.1-0.2c-0.2,0-0.7,0-1.1,0.2c-0.2,0.2-0.7,0.2-0.7,0.7c-0.2,0.2-0.5,0.5-0.7,0.7
			c0,0.2,0,0.2-0.2,0.5C106.4,98.2,106.4,98.2,106.4,98.6z"/>
		<path class="st6" d="M133.9,107h-0.2c-2.4,0-4.3-0.7-5.7-2c-1.5,1.5-3.6,2-6.6,2h-3.3c-0.5,0-0.9-0.2-1.1-0.7
			c-0.2-0.2-0.2-0.9-0.2-1.5v-0.2c0-0.7,0-1.1,0.2-1.5c0.2-0.7,0.7-0.7,1.3-0.7h3.3c0.9,0,1.7,0,2.4-0.2s1.1-0.5,1.3-0.9
			c0.2-0.2,0.2-0.9,0.2-1.5V95v-0.5h0.7h3.3h0.7v0.7v4.8c0,1.1,0.2,1.7,0.7,2.2s1.5,0.7,2.6,0.7h0.2c0.2,0,0.5,0,0.7,0.2
			s0.2,0.2,0.2,0.5c0.2,0.2,0,0.5,0,0.7s0,0.2,0,0.7c0,0,0,0,0,0.2v0.2c0,0,0,0,0,0.2s0,0.2,0,0.2v0.2v0.2c0,0,0,0.2-0.2,0.2
			c0,0.2-0.2,0.2-0.2,0.2L133.9,107C134.2,107,134,107,133.9,107z M118.1,112.3l1.5-1.5c0.5-0.5,1.1-0.5,1.5,0l1.7,1.7
			c0.5,0.5,0.5,1.1,0,1.5l-1.5,1.5c-0.5,0.5-1.1,0.5-1.5,0l-1.7-1.7C117.5,113.3,117.5,113,118.1,112.3z M124.6,112.3l1.5-1.5
			c0.5-0.5,1.1-0.5,1.5,0l1.7,1.7c0.5,0.5,0.5,1.1,0,1.5l-1.5,1.5c-0.5,0.5-1.1,0.5-1.5,0l-2-1.7C124,113.3,124.3,113,124.6,112.3z"
			/>
		<path class="st6" d="M152.7,107h-2.4c-1.1,0-2.4-0.2-3.3-0.2c-0.9,0-2-0.5-3.1-1.1c-2,0.9-4.3,1.5-6.6,1.5H134
			c-0.5,0-0.9-0.2-1.1-0.7c-0.2-0.2-0.2-0.9-0.2-1.5v-0.2c0-0.7,0.2-1.1,0.2-1.5c0.2-0.2,0.7-0.7,1.1-0.7h4.2
			c-0.7-1.1-1.1-2.4-1.1-3.9c0-2,0.7-3.6,2-5.1c1.5-1.3,3.1-2,5.1-2s3.6,0.7,5.1,2c0.2,0.2,0.7,0.7,0.7,1.1c0.2,0.5,0.5,0.7,0.7,1.1
			c0.2,0.2,0.2,0.7,0.2,1.3c0,0.6,0.2,0.9,0.2,1.5c0,0.7,0,1.5-0.2,2c-0.2,0.7-0.5,1.3-0.7,2h2.8c0.2,0,0.2,0,0.5,0
			c0.2,0,0.2,0.2,0.2,0.2c0,0.2,0.2,0.2,0.2,0.2s0,0.2,0,0.5s0,0.2,0,0.2v0.2c0,0,0,0,0,0.2v0.2c0,0,0,0,0,0.2s0,0.2,0,0.2v0.2
			c0,0.2,0,0.2,0,0.2v0.2c0,0.2,0,0.2-0.2,0.2l-0.2,0.2l-0.2,0.2C152.9,107,152.7,107,152.7,107z M141,84.8l1.5-1.5
			c0.5-0.5,1.1-0.7,1.5,0l2,1.7c0.5,0.5,0.5,1.1,0,1.5l-1.5,1.5c-0.5,0.5-1.1,0.5-1.5,0l-1.7-2C140.6,85.9,140.6,85.3,141,84.8z
			 M141,98.6c0,0.7,0.2,1.3,0.7,2c0.7,0.7,1.1,0.7,2,0.7s1.5-0.2,2-0.7s0.7-1.1,0.7-2s-0.2-1.3-0.7-2c-0.2-0.2-0.5-0.5-0.7-0.7
			s-0.7-0.2-1.1-0.2c-0.2,0-0.7,0-1.1,0.2c-0.2,0.2-0.7,0.2-0.7,0.7l-0.2,0.2l-0.2,0.2c0,0,0,0.2-0.2,0.2v0.2v0.2
			C141,98.2,141,98.2,141,98.6z"/>
		<path class="st6" d="M168.8,103.8l-1.5,0.7c-2.8,1.5-5.7,2.2-8.9,2.2h-5.6c-0.5,0-0.9-0.2-1.1-0.7c-0.2-0.5-0.2-0.9-0.2-1.5v-0.2
			c0-0.7,0-1.1,0.2-1.5c0.2-0.7,0.7-0.7,1.3-0.7h5.5c1.3,0,2.4-0.2,3.6-0.2c1.1-0.2,2.2-0.7,3.3-1.1l4.2-2l-2.4-1.5
			c-1.5-0.7-2.8-1.3-4.3-1.3c-1.3,0-2.4,0.5-3.9,1.5l-1.3,1.1l-0.5,0.2l-0.2-0.5l-2-2.4l-0.5-0.5l0.5-0.2l1.1-0.9
			c2-1.5,4.2-2.6,6.3-2.8c2-0.2,4.3,0.2,6.6,1.5l3.3,2c0.2,0.2,0.7,0.2,1.1,0.7c0.2,0.2,0.7,0.2,1.1,0.2c0.2,0,0.7,0.2,0.9,0.2h0.5
			v0.5v3.3v0.2l-0.2,0.2l-2,1.1c0.7,0.2,1.5,0.7,2.4,0.7h2.2c0.2,0,0.5,0,0.7,0.2s0.2,0.2,0.2,0.5s0,0.5,0,0.7s0,0.2,0,0.7
			c0,0,0,0,0,0.2v0.2c0,0.5,0,1.1-0.2,1.3c-0.2,0.5-0.5,0.7-0.9,0.7h-2c-1.3,0-2.4-0.2-3.6-0.7C170.3,105.7,169.3,104.8,168.8,103.8
			z M160.4,84.5l1.5-1.5c0.5-0.5,1.1-0.7,1.5,0l2,1.7c0.5,0.5,0.5,1.1,0,1.5l-1.5,1.5c-0.5,0.5-1.1,0.5-1.5,0l-1.7-2
			C159.7,85.3,159.7,84.8,160.4,84.5z"/>
		<path class="st6" d="M177.1,107c-0.5,0-0.9-0.2-1.1-0.7c-0.2-0.2-0.2-0.9-0.2-1.5v-0.2c0-0.7,0.2-1.1,0.2-1.5
			c0.2-0.2,0.7-0.7,1.1-0.7h4.3c1.1,0,2-0.2,2.4-0.7c0.5-0.5,0.7-1.1,0.7-2.2v-5.2v-0.7h0.7h3.1h0.7v0.7v5.2c0,2.4-0.7,4.3-2,5.5
			c-1.3,1.1-3.1,2-5.5,2L177.1,107L177.1,107L177.1,107z M177.8,86.4l1.5-1.5c0.5-0.5,1.1-0.5,1.5,0l1.7,1.7c0.5,0.5,0.5,1.1,0,1.5
			l-1.5,1.5c-0.5,0.5-1.1,0.5-1.5,0l-1.7-1.7C177.3,87.4,177.3,87,177.8,86.4z M184.3,86.4l1.5-1.5c0.5-0.5,1.1-0.5,1.5,0l1.7,1.7
			c0.5,0.5,0.5,1.1,0,1.5l-1.5,1.5c-0.5,0.5-1.1,0.5-1.5,0l-2-1.7C183.9,87.4,183.9,87,184.3,86.4z"/>
		<path class="st6" d="M197.2,84.8c0-1.1,0.2-2,1.3-2.6c0.7-0.7,1.7-1.1,2.8-1.1s2,0.2,2.8,1.1c0.2,0.2,0.2,0.2,0.5,0.5
			s0.2,0.5,0.2,0.7c0.2,0.2,0.2,0.5,0.2,0.7c0.2,0.2,0.2,0.5,0.2,0.7s0,0.7-0.2,0.9c0,0.2-0.2,0.2-0.2,0.2c0,0.2-0.2,0.2-0.2,0.2
			c-0.2,0.2-0.2,0.2-0.2,0.2c-0.2,0.2-0.2,0.5-0.7,0.7c-0.7,0.7-1.7,1.1-2.8,1.1s-2-0.2-2.8-1.1c-0.2-0.2-0.7-0.7-0.9-1.3
			C197.2,85.9,197.2,85.5,197.2,84.8z M212.9,80.2l3.3,1.7l0.7,0.2L202.1,108l-0.7-0.2l-3.1-1.7l-0.7-0.2l14.8-25.7
			C212.2,80.2,212.9,80.2,212.9,80.2z M209.9,101.7L209.9,101.7L209.9,101.7v-0.2v-0.2V101v-0.2c0-0.2,0-0.2,0.2-0.2
			c0-0.2,0-0.2,0-0.2v-0.2c0-0.2,0.2-0.2,0.2-0.2l0.2-0.2c0-0.2,0-0.2,0.2-0.2c0.2-0.2,0.2-0.2,0.2-0.2l0.2-0.2l0.2-0.2l0.2-0.2
			l0.2-0.2c0.2-0.2,0.2-0.2,0.2-0.2c0.7-0.7,1.7-1.1,2.8-1.1c0.2,0,0.7,0.2,0.9,0.2s0.2,0.2,0.5,0.2c0.2,0,0.2,0.2,0.2,0.2
			s0.2,0,0.2,0.2c0.2,0,0.2,0.2,0.2,0.2c0.2,0.2,0.5,0.2,0.7,0.7c0.7,0.7,1.3,1.7,1.3,2.6s-0.2,2-1.3,2.6c-0.2,0.2-0.7,0.7-1.3,0.7
			c-0.5,0.2-0.9,0.2-1.5,0.2c-1.1,0-2-0.2-2.8-1.1C210.5,103.6,209.9,102.5,209.9,101.7z"/>
	</g>
	<g>
		<path class="st6" d="M237.8,94.9c-1,0-1.8-0.1-2.7-0.3c-0.9-0.2-1.7-0.5-2.6-0.9c0.2,1.4,0.3,2.7,0.4,4c0.1,1.3,0.2,2.6,0.2,3.7
			c0.1,1.2,0.1,2.4,0.1,3.6c0,1.1,0,2.3,0,3.4h-5.9c0-2.6-0.1-5.2-0.2-7.7c-0.1-2.6-0.3-5-0.7-7.3s-0.8-4.5-1.4-6.7
			c-0.7-2-1.4-3.9-2.6-5.5l5.1-3.2c0.5,0.8,0.8,1.3,1.1,2c0.4,0.6,0.7,1.2,1,1.8c0.5-0.8,1.1-1.3,1.7-1.8c0.7-0.5,1.3-1,2-1.2
			c0.8-0.4,1.4-0.6,2.3-0.8c0.8-0.2,1.6-0.2,2.4-0.2c0.6,0,1.1,0.1,1.7,0.2c0.6,0.1,1.1,0.2,1.7,0.5c0.6,0.2,1.1,0.5,1.7,0.8
			c0.6,0.3,1.1,0.8,1.7,1.2l-3.1,4.9c0,0-0.2-0.1-0.4-0.2s-0.5-0.3-1-0.5s-0.9-0.4-1.4-0.5c-0.6-0.2-1.1-0.2-1.8-0.2
			c-0.6,0-1.1,0.1-1.7,0.3c-0.6,0.2-1.1,0.5-1.5,0.8c-0.5,0.3-0.8,0.7-1.1,1.1s-0.4,0.8-0.3,1.1l0,0c0.1,0.5,0.3,0.8,0.7,1.1
			s0.8,0.5,1.4,0.6c0.6,0.2,1.1,0.3,1.6,0.3c0.6,0.1,1.1,0.1,1.5,0.1c0.5,0,1,0,1.4-0.1c0.5-0.1,1.1-0.2,1.6-0.3
			c0.5-0.2,1.1-0.3,1.6-0.5s1.1-0.5,1.4-0.8l2.5,4.7c-1.5,1.1-3,1.9-4.5,2.3C240.5,94.7,239.1,94.9,237.8,94.9z"/>
		<path class="st6" d="M247,96.7c0-1.1,0.2-1.9,0.6-2.9c0.4-0.9,0.9-1.7,1.5-2.3c0.7-0.7,1.4-1.1,2.3-1.5s1.8-0.6,2.9-0.6
			s1.9,0.2,2.9,0.6c0.9,0.4,1.7,0.9,2.3,1.5c0.7,0.7,1.1,1.4,1.5,2.3s0.6,1.8,0.6,2.9s-0.2,2-0.6,2.9s-0.9,1.6-1.5,2.3
			c-0.7,0.7-1.4,1.1-2.3,1.5s-1.8,0.6-2.9,0.6s-2-0.2-2.9-0.6s-1.6-0.9-2.3-1.5c-0.7-0.7-1.1-1.4-1.5-2.3
			C247.2,98.6,247,97.7,247,96.7z M251.4,96.7c0,0.4,0.1,0.8,0.2,1.1c0.2,0.4,0.4,0.7,0.6,1c0.3,0.3,0.6,0.5,1,0.6s0.8,0.2,1.1,0.2
			c0.4,0,0.8-0.1,1.1-0.2c0.4-0.2,0.7-0.4,1-0.6c0.3-0.3,0.5-0.6,0.7-1s0.2-0.8,0.2-1.1s-0.1-0.8-0.2-1.1c-0.2-0.4-0.4-0.7-0.7-1
			c-0.3-0.3-0.6-0.5-1-0.7s-0.8-0.2-1.1-0.2c-0.4,0-0.8,0.1-1.1,0.2c-0.4,0.2-0.7,0.4-1,0.7c-0.3,0.3-0.5,0.6-0.6,1
			S251.4,96.3,251.4,96.7z"/>
	</g>
</g>
<g>
	<g class="st7">
		<g>
			<path d="M51.2,21.7c0.1,0.3,0.3,0.7,0.5,1.1s0.4,0.9,0.6,1.4c0.2,0.5,0.4,1.1,0.6,1.7c0.2,0.6,0.3,1.2,0.4,1.8
				c0.1,0.6,0.2,1.2,0.2,1.8c0,1-0.2,1.8-0.4,2.7c-0.3,0.8-0.7,1.5-1.2,2.2c-0.5,0.6-1.2,1.1-2,1.5s-1.7,0.5-2.7,0.5
				c-0.9,0-1.6-0.1-2.2-0.4c-0.6-0.3-1-0.7-1.4-1.2c-0.2,0.3-0.4,0.5-0.6,0.7c-0.2,0.2-0.5,0.4-0.8,0.5s-0.7,0.3-1.1,0.3
				c-0.4,0.1-0.9,0.1-1.5,0.1c-0.4,0-0.8,0-1.1-0.1s-0.6-0.1-0.9-0.2c0,1.1-0.2,2.2-0.5,3.1s-0.8,1.8-1.4,2.5
				c-0.6,0.7-1.2,1.4-2,1.9s-1.6,1-2.5,1.3c-0.9,0.4-1.8,0.6-2.8,0.8S26.5,46,25.5,46c-1.5,0-2.8-0.2-4.1-0.7s-2.3-1.2-3.2-2
				c-0.9-0.9-1.6-1.9-2.1-3.2c-0.5-1.2-0.8-2.6-0.8-4.1c0-0.9,0.1-1.8,0.4-2.7c0.2-0.9,0.5-1.8,0.8-2.7c0.3-0.9,0.7-1.7,1.1-2.5
				s0.8-1.5,1.2-2.1l3.1,2.4c-0.3,0.6-0.7,1.2-1,1.8c-0.3,0.6-0.6,1.3-0.9,1.9c-0.3,0.7-0.5,1.3-0.6,2s-0.2,1.3-0.2,1.9
				c0,0.7,0.1,1.4,0.4,2.1c0.3,0.6,0.8,1.2,1.3,1.7c0.6,0.5,1.2,0.9,2,1.1c0.8,0.3,1.6,0.4,2.5,0.4c1,0,1.9-0.1,2.8-0.3
				c0.8-0.2,1.6-0.4,2.2-0.8c0.6-0.3,1.2-0.7,1.6-1.2s0.8-1,1-1.5l0,0c0.2-0.8,0.4-1.6,0.4-2.4c0-0.6-0.1-1.3-0.3-2s-0.4-1.3-0.7-2
				s-0.6-1.4-1-2c-0.4-0.7-0.7-1.4-1-2.1l4-2.2c0.3,0.6,0.5,1.1,0.8,1.7s0.5,1.1,0.8,1.7c0.3,0.5,0.5,1,0.8,1.5s0.5,0.8,0.8,1.2
				c0.3,0.3,0.6,0.6,0.9,0.7c0.3,0.2,0.6,0.2,1,0.2c0.4-0.1,0.7-0.2,1-0.4c0.3-0.2,0.4-0.5,0.6-0.8s0.2-0.7,0.2-1.1s0-0.8,0-1.3
				c0-0.4-0.1-0.9-0.1-1.3s-0.1-0.8-0.1-1.2l4-0.5c0.1,0.3,0.1,0.7,0.2,1.1c0,0.4,0.1,0.9,0.2,1.3c0.1,0.5,0.1,0.9,0.2,1.4
				c0.1,0.5,0.2,0.9,0.4,1.3s0.4,0.8,0.6,1.1c0.2,0.3,0.5,0.5,0.9,0.6c0.3,0,0.6-0.1,0.8-0.2c0.3-0.1,0.5-0.3,0.7-0.5
				s0.3-0.5,0.5-0.8c0.1-0.3,0.2-0.7,0.2-1.1c0-0.3-0.1-0.7-0.2-1.2s-0.3-1-0.5-1.5s-0.5-1.1-0.8-1.7s-0.6-1.2-0.9-1.8l3.7-2.1
				C51,21.2,51.1,21.4,51.2,21.7z"/>
			<path d="M62.7,27.7c0.2,0.7,0.4,1.4,0.6,2.2c0.2,0.7,0.3,1.5,0.5,2.2s0.2,1.4,0.2,2.1c0,0.9-0.1,1.8-0.4,2.6
				c-0.2,0.9-0.6,1.7-1,2.5s-1,1.6-1.6,2.3s-1.3,1.4-2,2.1c-0.8,0.7-1.6,1.3-2.4,1.8s-1.7,1.1-2.7,1.5l-2.6-3.7
				c0.7-0.3,1.4-0.7,2.1-1.2c0.7-0.4,1.4-0.9,2-1.4s1.3-1,1.8-1.6c0.6-0.5,1.1-1.1,1.5-1.7c0.4-0.6,0.7-1.1,1-1.7
				c0.2-0.6,0.4-1.2,0.4-1.7c0-0.4-0.1-0.8-0.2-1.3c-0.1-0.5-0.3-1-0.5-1.5s-0.4-1.1-0.7-1.7s-0.5-1.3-0.8-2l4.2-1.9
				C62.2,26.3,62.4,27,62.7,27.7z"/>
			<path d="M68.2,30.3c0.5,0.3,1.1,0.5,1.7,0.7s1.1,0.4,1.7,0.5c0.5,0.1,1,0.2,1.4,0.2c0.2,0,0.5,0,0.9-0.1c0.4,0,0.8-0.1,1.2-0.2
				c0.4-0.1,0.7-0.3,1-0.5s0.4-0.5,0.5-0.8c0-0.4-0.1-0.8-0.3-1.3c-0.2-0.5-0.6-1-1-1.5s-0.9-1-1.4-1.6c-0.5-0.5-1.1-1-1.6-1.5
				s-1.1-0.9-1.7-1.4S69.4,22.3,69,22l2.6-3.8c0.9,0.7,1.9,1.4,2.8,2.2c0.9,0.8,1.8,1.7,2.5,2.6s1.4,1.8,2,2.8s1,1.9,1.2,2.9
				c0.1,0.3,0.1,0.6,0.2,0.8c0,0.3,0,0.6,0,0.8c0,0.9-0.2,1.7-0.5,2.5c-0.3,0.7-0.8,1.4-1.5,1.9c-0.6,0.5-1.4,1-2.2,1.3
				c-0.9,0.3-1.8,0.4-2.9,0.4c-0.1,0-0.2,0-0.2,0h-0.2c-0.7,0-1.3-0.1-2-0.2c-0.7-0.1-1.4-0.3-2.1-0.6c-0.7-0.2-1.3-0.5-2-0.8
				c-0.6-0.3-1.2-0.6-1.8-1l1.9-4.3C67.2,29.8,67.7,30.1,68.2,30.3z"/>
			<path d="M83,33.9c0-0.8,0.1-1.7,0.1-2.5s0.1-1.6,0.1-2.4s0-1.5,0-2.2c-0.1-1.4-0.1-2.6-0.2-3.6s-0.1-2-0.2-2.8s-0.1-1.5-0.2-2.1
				s-0.1-1.2-0.2-1.7s-0.1-1-0.2-1.4s-0.1-0.9-0.2-1.4l4.5-1.5c0.2,1.3,0.4,2.6,0.5,3.9s0.2,2.6,0.3,3.8c0.1,1.2,0.1,2.3,0.1,3.3
				s0,1.9,0,2.6s0,1.4,0,2.2s0,1.6,0,2.4s0,1.7-0.1,2.5c0,0.8-0.1,1.7-0.1,2.5l-4.5,0.7C82.9,35.5,83,34.7,83,33.9z"/>
			<path d="M100.3,36.3c-0.2,0-0.5,0-0.8,0s-0.7-0.1-1.2-0.3c-0.2,1.2-0.6,2.3-1.2,3.4c-0.6,1.1-1.3,2.1-2.2,3S93.1,44.2,92,45
				s-2.3,1.5-3.5,2.1l-2.6-3.7c0.7-0.3,1.4-0.7,2.1-1.1s1.4-0.8,2-1.3s1.2-0.9,1.8-1.4c0.5-0.5,1-1,1.4-1.5s0.7-1.1,1-1.6
				c0.2-0.6,0.3-1.1,0.3-1.7c0-0.4-0.1-0.9-0.2-1.4c-0.1-0.6-0.3-1.2-0.5-1.9c-0.2-0.7-0.5-1.3-0.7-2c-0.3-0.7-0.5-1.3-0.8-1.8
				l4.2-1.8c0.4,1.2,0.8,2.1,1.1,2.9c0.4,0.8,0.7,1.4,1,1.8c0.3,0.5,0.6,0.8,0.9,1s0.6,0.3,0.9,0.3h0.3v4.6h-0.4
				C100.3,36.5,100.3,36.3,100.3,36.3z"/>
			<path d="M113.7,31.7v4.6H100v-4.6C100,31.7,113.7,31.7,113.7,31.7z"/>
			<path d="M126.8,31.7v4.6h-13.7v-4.6C113.1,31.7,126.8,31.7,126.8,31.7z"/>
			<path d="M126.7,31.7c0.4,0,0.8,0,1.3,0s1,0,1.6,0s1.2-0.1,1.8-0.1s1.2-0.1,1.7-0.2s1-0.2,1.5-0.4c0.5-0.1,0.8-0.3,1.1-0.5
				c-1.3,0.1-2.4,0.2-3.5,0.1s-2-0.3-2.7-0.6c-0.8-0.3-1.4-0.9-1.8-1.6c-0.4-0.7-0.6-1.6-0.7-2.8c0-0.5,0.1-1.1,0.2-1.6
				c0.1-0.6,0.3-1.1,0.5-1.7c0.2-0.5,0.5-1.1,0.8-1.5c0.3-0.5,0.7-0.9,1.1-1.3c0.4-0.4,0.9-0.7,1.4-0.9c0.5-0.2,1.1-0.3,1.7-0.3
				c0.8,0,1.5,0.1,2.1,0.4s1.2,0.7,1.7,1.2s0.9,1.1,1.3,1.7c0.4,0.7,0.7,1.3,0.9,2.1c0.3,0.7,0.4,1.5,0.6,2.2s0.2,1.5,0.2,2.2
				c0,1.2-0.2,2.2-0.5,3c-0.3,0.9-0.8,1.6-1.3,2.2c-0.6,0.6-1.3,1.1-2.1,1.5s-1.7,0.7-2.6,0.9c-0.9,0.2-2,0.4-3,0.5
				c-1.1,0.1-2.1,0.1-3.2,0.1h-0.5v-4.6C126.3,31.7,126.7,31.7,126.7,31.7z M132.6,16.8l-3.2-3.2l3.2-3.2l3.2,3.2L132.6,16.8z
				 M132.7,22.9c-0.2,0-0.4,0.1-0.7,0.2c-0.2,0.1-0.5,0.3-0.6,0.6s-0.4,0.5-0.5,0.8s-0.2,0.6-0.2,0.9s0.1,0.5,0.3,0.7
				s0.4,0.3,0.7,0.4s0.6,0.2,0.9,0.2c0.4,0,0.7,0.1,1,0.1s0.7,0,1,0s0.5,0,0.7-0.1c-0.1-0.4-0.2-0.9-0.3-1.3s-0.3-0.8-0.5-1.2
				c-0.2-0.4-0.5-0.7-0.8-0.9C133.4,23.1,133,22.9,132.7,22.9z"/>
			<path d="M157.2,36.3c-0.8,0-1.6-0.1-2.4-0.4s-1.5-0.7-2.2-1.2c-0.6-0.5-1.2-1.1-1.6-1.8s-0.6-1.5-0.6-2.5c0-1.9,0.9-3.9,2.6-6
				c0.1-0.2,0.2-0.3,0.3-0.4s0.2-0.2,0.3-0.3c0.1-0.1,0.1-0.2,0.2-0.2l0.3-0.3l-0.9-0.8l2.9-3.5c0.5,0.4,1.1,0.9,1.8,1.5
				s1.5,1.4,2.4,2.4c2.5,2.8,3.7,5.4,3.7,7.6c0,1-0.2,1.8-0.6,2.5s-0.9,1.3-1.5,1.8s-1.4,0.9-2.2,1.1
				C158.8,36.2,158,36.3,157.2,36.3z M160,30.4c0-0.3-0.1-0.6-0.3-1s-0.4-0.8-0.8-1.2c-0.3-0.4-0.7-0.8-1-1.2s-0.8-0.8-1.2-1.2
				c-0.3,0.3-0.5,0.6-0.8,1s-0.6,0.7-0.8,1.1s-0.4,0.8-0.6,1.2c-0.2,0.4-0.2,0.8-0.2,1.3c0,0.2,0.1,0.4,0.3,0.6s0.5,0.3,0.8,0.4
				s0.6,0.2,0.9,0.2c0.3,0.1,0.6,0.1,0.8,0.1c0.3,0,0.6,0,0.9-0.1c0.3,0,0.6-0.1,0.9-0.2c0.3-0.1,0.5-0.2,0.7-0.4S160,30.7,160,30.4
				z"/>
			<path d="M173.3,27.7c0.2,0.7,0.4,1.4,0.6,2.2c0.2,0.7,0.3,1.5,0.5,2.2s0.2,1.4,0.2,2.1c0,0.9-0.1,1.8-0.4,2.6
				c-0.2,0.9-0.6,1.7-1,2.5s-1,1.6-1.6,2.3s-1.3,1.4-2,2.1c-0.8,0.7-1.6,1.3-2.4,1.8s-1.7,1.1-2.7,1.5l-2.6-3.7
				c0.7-0.3,1.4-0.7,2.1-1.2c0.7-0.4,1.4-0.9,2-1.4s1.3-1,1.8-1.6c0.6-0.5,1.1-1.1,1.5-1.7c0.4-0.6,0.7-1.1,1-1.7
				c0.2-0.6,0.4-1.2,0.4-1.7c0-0.4-0.1-0.8-0.2-1.3c-0.1-0.5-0.3-1-0.5-1.5s-0.4-1.1-0.7-1.7s-0.5-1.3-0.8-2l4.2-1.9
				C172.8,26.3,173,27,173.3,27.7z"/>
			<path d="M184,36.3c-1.2,0-2.2-0.2-3.1-0.5c-0.8-0.3-1.5-0.8-2-1.3c-0.5-0.6-0.9-1.2-1.1-2c-0.2-0.8-0.4-1.6-0.4-2.5
				c0-0.5,0-1,0-1.7s0-1.5,0-2.4s0-1.9,0-3s0-2.2-0.1-3.3c0-1.1-0.1-2.1-0.2-3.1c-0.1-1-0.2-1.9-0.3-2.6l4.3-1.3
				c0.1,0.6,0.2,1.4,0.3,2.2c0.1,0.9,0.1,1.8,0.2,2.7c0,0.9,0.1,1.9,0.1,2.8s0,1.8,0.1,2.7c0,0.7,0,1.5,0,2.3s-0.1,1.6-0.1,2.3
				c0,0.7,0,1.4,0,2s0.1,1,0.3,1.3c0.1,0.2,0.2,0.4,0.3,0.5s0.3,0.2,0.5,0.3s0.4,0.1,0.6,0.1c0.2,0,0.4,0,0.7,0h0.4v4.6L184,36.3
				L184,36.3z"/>
			<path d="M197.5,31.7v4.6h-13.7v-4.6C183.8,31.7,197.5,31.7,197.5,31.7z"/>
			<path d="M210.6,31.7v4.6h-13.7v-4.6C196.9,31.7,210.6,31.7,210.6,31.7z"/>
			<path d="M210,31.7h1c0-0.6,0.1-1.3,0.3-2.1c0.2-0.7,0.4-1.5,0.7-2.3s0.6-1.5,1-2.2s0.8-1.3,1.3-1.9s1-1,1.6-1.4s1.1-0.5,1.7-0.6
				c0.6,0,1.2,0.2,1.8,0.5c0.5,0.4,1,0.8,1.4,1.4s0.7,1.2,0.9,1.9c0.2,0.7,0.3,1.5,0.3,2.2c0,0.9-0.2,1.7-0.6,2.6
				c-0.4,0.8-0.9,1.6-1.5,2.3s-1.3,1.4-2.1,1.9c-0.8,0.6-1.6,1-2.4,1.4c0.1,0.2,0.2,0.5,0.4,0.8s0.5,0.6,0.7,1
				c0.3,0.3,0.6,0.6,0.8,0.9c0.3,0.3,0.5,0.5,0.7,0.7c0-0.6,0.1-1.1,0.2-1.7c0.2-0.6,0.4-1.1,0.7-1.7c0.3-0.5,0.7-1,1.1-1.5
				s0.9-0.9,1.4-1.2c0.5-0.4,1-0.6,1.5-0.8s1-0.3,1.5-0.3h0.7v4.6h-0.8c-0.4,0-0.8,0.1-1.2,0.3s-0.7,0.5-1,0.9s-0.5,0.7-0.7,1.2
				c-0.2,0.4-0.3,0.9-0.3,1.3c0,0.2,0,0.4,0,0.5c0,0.2,0.1,0.3,0.2,0.5c0.1,0.2,0.2,0.4,0.3,0.5c0.1,0.2,0.3,0.4,0.5,0.6l-2.6,3.2
				c-1.2-0.7-2.2-1.4-3-2.2c-0.9-0.7-1.6-1.5-2.3-2.2c-0.6-0.8-1.2-1.5-1.6-2.3s-0.8-1.6-1.1-2.4H210V31.7z M218.5,28
				c0-0.3,0-0.6,0-0.9s-0.1-0.6-0.1-0.9c-0.1-0.3-0.2-0.5-0.3-0.8s-0.3-0.4-0.5-0.5c-0.2,0.1-0.4,0.3-0.6,0.6
				c-0.2,0.3-0.4,0.6-0.7,1c-0.2,0.4-0.4,0.8-0.6,1.3c-0.2,0.5-0.4,0.9-0.6,1.4c-0.2,0.5-0.3,0.9-0.4,1.4c-0.1,0.4-0.2,0.8-0.2,1.2
				c0.4-0.1,0.8-0.2,1.3-0.5c0.4-0.2,0.9-0.5,1.2-0.9c0.4-0.3,0.7-0.7,1-1.1C218.4,28.9,218.5,28.5,218.5,28z"/>
			<path d="M225,31.7h1.9c0.4,0,0.8,0,1.3-0.1s0.9-0.2,1.4-0.3c0.4-0.1,0.8-0.4,1.1-0.6c0.3-0.3,0.4-0.6,0.4-0.9
				c0-0.2-0.1-0.6-0.2-1s-0.3-1-0.5-1.5c-0.2-0.6-0.5-1.2-0.8-1.8c-0.3-0.6-0.6-1.2-0.8-1.8l4.1-2c0.3,0.6,0.5,1.3,0.8,1.9
				c0.3,0.7,0.5,1.4,0.7,2.1s0.4,1.4,0.5,2.1s0.2,1.4,0.2,2c0,1.2-0.2,2.1-0.6,3c-0.4,0.8-0.9,1.5-1.6,2c-0.7,0.5-1.5,0.9-2.5,1.2
				s-2,0.4-3.2,0.4H225V31.7z M229.6,44.2l-3.2-3.2l3.2-3.2l3.2,3.2L229.6,44.2z"/>
			<path d="M259.5,36.3c-0.9,0-1.8,0-2.8-0.1s-2-0.2-3-0.4s-2-0.5-2.9-0.9s-1.8-0.8-2.5-1.4s-1.3-1.3-1.8-2.1
				c-0.5-0.8-0.7-1.8-0.8-3c0-0.6,0.1-1.1,0.2-1.7c0.1-0.5,0.3-1.1,0.5-1.6s0.4-1,0.7-1.5s0.5-1,0.8-1.5l3.4,2.8
				c-0.1,0.2-0.3,0.5-0.5,0.8s-0.4,0.7-0.6,1c-0.2,0.4-0.3,0.7-0.4,1.1c-0.1,0.4-0.2,0.7-0.2,0.9c0,0.4,0.1,0.7,0.4,1
				c0.3,0.3,0.6,0.5,1.1,0.8c0.5,0.2,1,0.4,1.6,0.6s1.3,0.3,2,0.4s1.5,0.2,2.3,0.2s1.6,0.1,2.4,0.1c0.4,0,0.8,0,1.2,0s0.8,0,1.2,0
				c0.4,0,0.7,0,1,0s0.5,0,0.6,0c-0.3-0.4-0.7-0.9-0.9-1.4c-0.3-0.6-0.4-1.2-0.5-1.9c0-0.6,0-1.1,0.2-1.7c0.1-0.6,0.3-1.1,0.6-1.7
				c0.3-0.5,0.6-1.1,1-1.5c0.4-0.5,0.8-0.9,1.3-1.2c0.5-0.4,1-0.6,1.5-0.8c0.5-0.2,1.1-0.3,1.7-0.3c0.8,0,1.6,0.3,2.3,0.6
				c0.7,0.4,1.3,0.9,1.9,1.5c0.5,0.6,0.9,1.3,1.2,2.1s0.5,1.6,0.5,2.4c0,0.7-0.1,1.3-0.3,2c-0.2,0.6-0.5,1.2-0.8,1.8
				c0.5,0,0.9,0.1,1.3,0.1s0.8,0.1,1.2,0.1h0.5v4.6h-0.4c-0.6,0-1.2,0-1.8,0c-0.6,0-1.3-0.1-1.9-0.2c-0.6-0.1-1.2-0.2-1.9-0.4
				c-0.6-0.2-1.2-0.4-1.8-0.6c-0.2,0.1-0.5,0.3-1,0.4s-0.9,0.2-1.4,0.3s-1.1,0.2-1.6,0.2s-1.2,0.1-1.8,0.2c-0.6,0-1.2,0.1-1.7,0.1
				C260.5,36.3,260,36.3,259.5,36.3z M269.1,18.7l-3.2-3.2l3.2-3.2l3.2,3.2L269.1,18.7z M270.6,28.1c0-0.3-0.1-0.6-0.2-0.9
				c-0.2-0.3-0.3-0.5-0.5-0.8c-0.2-0.2-0.5-0.4-0.7-0.6c-0.3-0.1-0.5-0.3-0.7-0.3s-0.5,0.1-0.8,0.3c-0.3,0.1-0.6,0.3-0.8,0.5
				c-0.3,0.2-0.5,0.5-0.6,0.8s-0.3,0.7-0.3,1.1c0,0.1,0.1,0.3,0.2,0.6c0.1,0.3,0.3,0.5,0.6,0.8s0.5,0.5,0.8,0.7s0.6,0.4,0.9,0.5
				c0.2-0.1,0.5-0.3,0.7-0.6s0.5-0.5,0.7-0.8s0.4-0.5,0.5-0.8C270.5,28.6,270.6,28.3,270.6,28.1z"/>
			<path d="M289.4,31.7v4.6h-13.7v-4.6C275.7,31.7,289.4,31.7,289.4,31.7z"/>
			<path d="M302.5,31.7v4.6h-13.7v-4.6C288.8,31.7,302.5,31.7,302.5,31.7z"/>
			<path d="M314.8,31.7v4.6h-0.3c-0.5,0-0.9,0-1.4-0.1s-0.9-0.2-1.3-0.3s-0.8-0.3-1.1-0.5s-0.6-0.4-0.9-0.6c-0.5,0.3-1,0.6-1.6,0.8
				s-1.2,0.4-1.8,0.5c-0.6,0.1-1.3,0.2-2,0.2s-1.4,0.1-2,0.1h-0.5v-4.6h0.5c0.7,0,1.3,0,1.9-0.1c0.5,0,1-0.1,1.4-0.2s0.8-0.2,1-0.4
				s0.5-0.4,0.7-0.6c0.2-0.3,0.4-0.6,0.4-1s0.1-0.8,0-1.2c0-0.4-0.1-0.8-0.2-1.2c-0.1-0.4-0.2-0.8-0.3-1.1l4.2-1.2
				c0.1,0.4,0.2,0.8,0.3,1.2c0.1,0.4,0.2,0.7,0.2,1s0.1,0.7,0.2,1c0,0.3,0.1,0.7,0.2,1.1c0,0.3,0.1,0.5,0.2,0.8s0.2,0.6,0.3,0.8
				s0.3,0.5,0.6,0.6c0.3,0.2,0.6,0.3,1,0.3h0.3L314.8,31.7L314.8,31.7z M307.6,40.5l-2.7,2.7l-2.8-2.8l2.8-2.8l2.7,2.7l2.7-2.7
				l2.8,2.8l-2.8,2.8L307.6,40.5z"/>
			<path d="M314.2,31.7h1c0.2,0,0.4,0,0.7,0c0.2,0,0.4,0,0.7-0.1s0.4-0.1,0.5-0.1c-0.2-0.2-0.3-0.4-0.5-0.6s-0.3-0.5-0.4-0.7
				s-0.2-0.6-0.3-0.9c-0.1-0.3-0.1-0.7-0.2-1c0-0.6,0-1.1,0.2-1.7c0.1-0.6,0.3-1.1,0.6-1.7c0.3-0.5,0.6-1.1,1-1.5
				c0.4-0.5,0.8-0.9,1.3-1.2c0.5-0.4,1-0.6,1.5-0.8c0.5-0.2,1.1-0.3,1.7-0.3c0.8,0,1.6,0.3,2.3,0.6s1.3,0.9,1.9,1.5
				c0.5,0.6,0.9,1.3,1.2,2.1c0.3,0.8,0.5,1.6,0.5,2.4c0,0.7-0.1,1.3-0.3,2c-0.2,0.6-0.5,1.2-0.8,1.8c0.3,0.1,0.6,0.1,0.9,0.1
				c0.4,0,0.8,0,1.4,0h0.3v4.6h-0.6c-0.6,0-1.2,0-1.8-0.1c-0.6,0-1.1-0.1-1.7-0.2c-0.5-0.1-1.1-0.2-1.6-0.4
				c-0.5-0.1-1.1-0.3-1.7-0.6c-0.4,0.2-0.8,0.4-1.3,0.5s-1.1,0.3-1.8,0.4c-0.6,0.1-1.3,0.2-2,0.2s-1.4,0.1-2,0.1h-0.6v-4.4
				C314.3,31.7,314.2,31.7,314.2,31.7z M321.6,19l-3.2-3.2l3.2-3.2l3.2,3.2L321.6,19z M324,28.1c0-0.3-0.1-0.6-0.2-0.9
				s-0.3-0.5-0.5-0.8c-0.2-0.2-0.5-0.4-0.7-0.6c-0.3-0.1-0.5-0.3-0.7-0.3s-0.5,0.1-0.8,0.3c-0.3,0.1-0.6,0.3-0.8,0.5
				c-0.3,0.2-0.5,0.5-0.6,0.8c-0.2,0.3-0.3,0.7-0.3,1.1c0,0.1,0.1,0.3,0.2,0.6c0.1,0.3,0.3,0.5,0.6,0.8s0.5,0.5,0.8,0.7
				s0.6,0.4,0.9,0.5c0.2-0.1,0.5-0.3,0.7-0.6s0.5-0.5,0.7-0.8s0.4-0.5,0.5-0.8C323.9,28.6,324,28.3,324,28.1z"/>
			<path d="M328.7,31.7h2.9c0.7,0,1.4,0,2.2-0.1s1.6-0.2,2.4-0.4s1.6-0.4,2.5-0.6c0.8-0.2,1.6-0.5,2.4-0.7c0.8-0.3,1.5-0.5,2.3-0.8
				c0.7-0.3,1.4-0.6,2-0.9c-0.6-0.1-1.3-0.3-2-0.6s-1.5-0.5-2.2-0.8c-0.8-0.3-1.5-0.5-2.2-0.6c-0.7-0.2-1.3-0.3-1.9-0.3
				c-0.4,0-0.7,0.1-1,0.2s-0.6,0.3-0.9,0.5s-0.5,0.4-0.8,0.7c-0.2,0.2-0.4,0.5-0.6,0.7s-0.3,0.4-0.4,0.5l-0.1,0.2l-3.4-2
				c0.4-0.7,0.8-1.4,1.4-2.1s1.1-1.2,1.8-1.7c0.6-0.5,1.3-0.9,2-1.2c0.7-0.3,1.4-0.4,2.1-0.4c0.5,0,1,0.1,1.6,0.2
				c0.5,0.1,1,0.3,1.6,0.4c0.5,0.2,1,0.4,1.6,0.6c0.5,0.2,1.1,0.5,1.6,0.7c0.5,0.3,1.2,0.5,1.8,0.8s1.4,0.5,2.1,0.7s1.5,0.4,2.2,0.5
				c0.8,0.1,1.5,0.2,2.2,0.2l-0.8,4.3c-0.2,0.1-0.5,0.2-0.7,0.3c-0.3,0.1-0.5,0.2-0.7,0.4l-0.4,0.2c0.2,0.3,0.5,0.5,0.8,0.6
				c0.3,0.2,0.7,0.3,1.1,0.3c0.4,0.1,0.7,0.1,1,0.1s0.6,0,0.8,0h0.5v4.6H353c-0.9,0-1.8-0.1-2.6-0.2c-0.8-0.2-1.6-0.4-2.2-0.7
				s-1.3-0.7-1.8-1.1c-0.5-0.4-0.9-1-1.3-1.5c-1,0.5-1.9,0.9-3,1.3c-1,0.4-2.1,0.8-3.2,1.2c-1.1,0.3-2.3,0.6-3.4,0.8
				c-1.2,0.2-2.4,0.3-3.7,0.3h-2.9v-4.6C328.9,31.7,328.7,31.7,328.7,31.7z M336.9,19.9l-3.2-3.2l3.2-3.2l3.2,3.2L336.9,19.9z"/>
			<path d="M352.7,31.7h3.5c0.4,0,0.9,0,1.4-0.1c0.5,0,1-0.1,1.4-0.3c0.4-0.1,0.8-0.3,1.1-0.6c0.3-0.3,0.4-0.6,0.4-1
				c0-0.2-0.1-0.6-0.2-1c-0.1-0.5-0.3-1-0.5-1.5c-0.2-0.6-0.5-1.2-0.8-1.8c-0.3-0.6-0.6-1.2-0.8-1.8l4.1-2c0.3,0.6,0.5,1.3,0.8,1.9
				c0.3,0.7,0.5,1.4,0.7,2.1s0.4,1.4,0.5,2.1s0.2,1.4,0.2,2c0,1.2-0.2,2.2-0.7,3c-0.4,0.8-1,1.5-1.8,2s-1.6,0.9-2.6,1.1
				c-1,0.2-2.1,0.4-3.2,0.4h-3.4v-4.5C352.8,31.7,352.7,31.7,352.7,31.7z M359.5,16.8l-2.7,2.7l-2.8-2.8l2.8-2.8l2.7,2.7l2.7-2.7
				l2.8,2.8l-2.8,2.8L359.5,16.8z"/>
			<path d="M382.2,36.3c-0.8,0-1.6-0.1-2.4-0.4s-1.5-0.7-2.2-1.2s-1.2-1.1-1.6-1.8s-0.6-1.5-0.6-2.5c0-1.9,0.9-3.9,2.6-6
				c0.1-0.2,0.2-0.3,0.3-0.4c0.1-0.1,0.2-0.2,0.3-0.3c0.1-0.1,0.1-0.2,0.2-0.2l0.3-0.3l-0.9-0.8l2.9-3.5c0.5,0.4,1.1,0.9,1.8,1.5
				s1.5,1.4,2.4,2.4c2.5,2.8,3.7,5.4,3.7,7.6c0,1-0.2,1.8-0.6,2.5s-0.9,1.3-1.5,1.8s-1.4,0.9-2.2,1.1
				C383.9,36.2,383.1,36.3,382.2,36.3z M385,30.4c0-0.3-0.1-0.6-0.3-1s-0.4-0.8-0.8-1.2c-0.3-0.4-0.7-0.8-1-1.2
				c-0.4-0.4-0.8-0.8-1.2-1.2c-0.3,0.3-0.5,0.6-0.8,1s-0.6,0.7-0.8,1.1c-0.2,0.4-0.4,0.8-0.6,1.2c-0.2,0.4-0.2,0.8-0.2,1.3
				c0,0.2,0.1,0.4,0.3,0.6c0.2,0.2,0.5,0.3,0.8,0.4s0.6,0.2,0.9,0.2c0.3,0.1,0.6,0.1,0.8,0.1c0.3,0,0.6,0,0.9-0.1
				c0.3,0,0.6-0.1,0.9-0.2s0.5-0.2,0.7-0.4S385,30.7,385,30.4z"/>
			<path d="M398.3,27.7c0.2,0.7,0.4,1.4,0.6,2.2s0.3,1.5,0.5,2.2c0.1,0.7,0.2,1.4,0.2,2.1c0,0.9-0.1,1.8-0.4,2.6s-0.6,1.7-1,2.5
				s-1,1.6-1.6,2.3s-1.3,1.4-2,2.1s-1.6,1.3-2.4,1.8c-0.9,0.6-1.7,1.1-2.7,1.5l-2.6-3.7c0.7-0.3,1.4-0.7,2.1-1.2s1.4-0.9,2-1.4
				c0.7-0.5,1.3-1,1.8-1.6c0.6-0.5,1.1-1.1,1.5-1.7c0.4-0.6,0.7-1.1,1-1.7s0.4-1.2,0.4-1.7c0-0.4-0.1-0.8-0.2-1.3s-0.3-1-0.5-1.5
				s-0.4-1.1-0.7-1.7s-0.5-1.3-0.8-2l4.2-1.9C397.9,26.3,398.1,27,398.3,27.7z"/>
			<path d="M402.4,33.9c0-0.8,0.1-1.7,0.1-2.5s0.1-1.6,0.1-2.4s0-1.5,0-2.2c-0.1-1.4-0.1-2.6-0.2-3.6s-0.1-2-0.2-2.8
				s-0.1-1.5-0.2-2.1s-0.1-1.2-0.2-1.7s-0.1-1-0.2-1.4s-0.1-0.9-0.2-1.4l4.5-1.5c0.2,1.3,0.4,2.6,0.5,3.9s0.2,2.6,0.3,3.8
				c0.1,1.2,0.1,2.3,0.1,3.3s0,1.9,0,2.6s0,1.4,0,2.2c0,0.8,0,1.6,0,2.4s0,1.7-0.1,2.5c0,0.8-0.1,1.7-0.1,2.5l-4.5,0.7
				C402.3,35.5,402.4,34.7,402.4,33.9z"/>
			<path d="M408.3,42c1.4-0.3,2.6-0.6,3.7-1s2.1-0.9,2.9-1.4s1.5-1,2.1-1.6s0.9-1.1,1.2-1.7c-0.4,0-0.9,0-1.3,0
				c-0.5,0-0.8,0-1.1-0.1c-1-0.1-1.8-0.3-2.6-0.5c-0.8-0.3-1.5-0.7-2-1.2c-0.6-0.5-1-1.1-1.3-1.8s-0.5-1.5-0.5-2.5
				c0-0.6,0.1-1.2,0.2-1.8c0.1-0.6,0.3-1.2,0.5-1.8c0.2-0.6,0.5-1.1,0.9-1.7c0.4-0.5,0.7-1,1.2-1.4c0.4-0.4,0.9-0.7,1.5-0.9
				c0.5-0.2,1.1-0.3,1.7-0.3c0.7,0,1.4,0.1,2,0.4s1.2,0.6,1.7,1.1s1,1,1.4,1.6s0.7,1.3,1,2s0.5,1.4,0.7,2.2c0.2,0.7,0.3,1.5,0.4,2.2
				h0.6v4.6h-0.9c-0.4,1.4-1,2.7-1.8,3.8s-1.8,2.2-3,3c-1.1,0.9-2.4,1.6-3.8,2.1c-1.4,0.6-2.9,1-4.4,1.2L408.3,42z M415.4,26.9
				c-0.2,0-0.4,0-0.7,0.2c-0.3,0.2-0.5,0.4-0.7,0.7c-0.2,0.3-0.4,0.6-0.6,1s-0.2,0.7-0.2,1.1c0,0.3,0.1,0.6,0.3,0.8
				c0.2,0.2,0.5,0.4,0.8,0.5s0.7,0.2,1.1,0.3c0.4,0.1,0.8,0.1,1.2,0.1s0.8,0,1.1,0h0.9c-0.1-0.6-0.3-1.2-0.5-1.7s-0.4-1-0.7-1.5
				s-0.6-0.8-0.9-1.1C416.2,27.2,415.8,27,415.4,26.9z"/>
			<path d="M436.4,31.7v4.6h-13.7v-4.6C422.7,31.7,436.4,31.7,436.4,31.7z"/>
			<path d="M449.5,31.7v4.6h-13.7v-4.6C435.8,31.7,449.5,31.7,449.5,31.7z"/>
			<path d="M459.6,31.7v4.6h-0.3c-0.9,0-1.7-0.1-2.4-0.4c-0.6-0.3-1.2-0.6-1.7-1.1c-0.7,0.5-1.5,0.9-2.4,1.1
				c-0.9,0.2-2.1,0.3-3.4,0.3h-0.5v-4.6h0.5c1.3,0,2.3-0.2,3-0.6s1-1.1,1-1.9c0-0.3,0-0.7-0.1-1.2s-0.2-1.2-0.5-2.1l4.1-1
				c0.2,0.5,0.3,1,0.4,1.4s0.2,0.8,0.2,1.1c0.1,0.3,0.1,0.6,0.1,0.9s0.1,0.6,0.1,0.8c0,0.3,0,0.6,0.1,0.9s0.1,0.6,0.2,0.8
				s0.3,0.5,0.5,0.6c0.2,0.2,0.5,0.3,0.8,0.3h0.3L459.6,31.7L459.6,31.7z M453.5,22.5l-3.2-3.2l3.2-3.2l3.2,3.2L453.5,22.5z"/>
			<path d="M459.3,31.7c0.5,0,1-0.1,1.4-0.3c0.4-0.2,0.9-0.5,1.3-1s0.8-1.2,1.1-2c0.3-0.9,0.7-2,1-3.4l3.8,0.5c0,0,0,0.1,0,0.2
				c-0.1,0.2-0.1,0.6-0.2,1s-0.2,0.9-0.2,1.5c-0.1,0.5-0.1,1.1-0.1,1.6s0.1,0.9,0.2,1.3s0.3,0.6,0.6,0.6c0.3,0.1,0.6,0,0.9-0.2
				s0.5-0.5,0.8-0.9s0.5-0.8,0.7-1.3s0.4-1,0.6-1.5s0.3-1,0.4-1.5s0.2-0.9,0.3-1.3l3.8,0.5c0,0.2-0.1,0.6-0.1,1s-0.1,0.8-0.1,1.3
				s0,0.9,0,1.4s0.1,0.9,0.2,1.2c0.1,0.4,0.2,0.7,0.4,0.9s0.5,0.4,0.8,0.4s0.6-0.1,0.8-0.3c0.2-0.2,0.4-0.5,0.6-0.8s0.3-0.7,0.4-1.2
				c0.1-0.4,0.2-0.9,0.2-1.3c0-0.5,0.1-0.9,0.1-1.3s0-0.8,0-1.1l3.9-0.5l0.5,4.1c0.1,0.4,0.2,0.8,0.4,1.2s0.4,0.6,0.7,0.8
				c0.3,0.2,0.5,0.4,0.8,0.5s0.6,0.2,0.8,0.2h0.5v4.6h-0.5c-0.9,0-1.8-0.2-2.6-0.5c-0.8-0.3-1.5-0.9-2.2-1.7
				c-0.1,0.1-0.1,0.1-0.2,0.2c-0.1,0.1-0.1,0.1-0.2,0.2l0,0c-0.5,0.5-1.1,1-1.8,1.3c-0.7,0.3-1.4,0.5-2.2,0.5
				c-0.9,0-1.7-0.2-2.4-0.6s-1.3-0.9-1.8-1.5c-0.6,0.6-1.2,1.1-2,1.5c-0.7,0.4-1.5,0.6-2.4,0.6c-0.8,0-1.6-0.2-2.3-0.5
				c-0.7-0.4-1.3-0.9-1.7-1.5c-0.5,0.7-1.2,1.2-1.9,1.5c-0.8,0.3-1.7,0.5-2.8,0.5h-0.3V32l0,0L459.3,31.7L459.3,31.7z M468,25.6
				L468,25.6C468,25.5,468,25.5,468,25.6z M473.8,19.4l-2.7,2.7l-2.8-2.8l2.8-2.8l2.7,2.7l2.7-2.7l2.8,2.8l-2.8,2.8L473.8,19.4z
				 M476.3,15.2l-2.6,2.6l-2.6-2.6l2.6-2.6L476.3,15.2z"/>
			<path d="M485.8,31.7h3c1.6,0,3-0.1,4.3-0.3s2.5-0.4,3.7-0.8s2.2-0.7,3.2-1.1s2-0.9,3-1.3c-0.7-0.2-1.3-0.4-2-0.7
				c-0.7-0.3-1.3-0.5-2-0.8s-1.3-0.5-2-0.6c-0.7-0.2-1.3-0.3-1.9-0.3c-0.4,0-0.9,0.1-1.3,0.4c-0.4,0.2-0.8,0.5-1.2,0.8
				c-0.3,0.3-0.6,0.6-0.9,0.9c-0.2,0.3-0.4,0.5-0.4,0.6l-3.3-2.2c0.4-0.6,0.8-1.3,1.3-1.9s1.1-1.2,1.7-1.6c0.6-0.5,1.3-0.9,1.9-1.1
				c0.7-0.3,1.4-0.4,2.2-0.4c0.6,0,1.1,0.1,1.7,0.2s1.1,0.3,1.7,0.5s1.1,0.4,1.7,0.7c0.5,0.2,1.1,0.5,1.6,0.7s1,0.5,1.5,0.7
				s1.1,0.5,1.6,0.6c0.5,0.2,1.1,0.4,1.7,0.5s1.2,0.2,1.9,0.2l-0.4,4.4l-2,1c-0.8,0.4-1.7,0.8-2.5,1.2c-0.8,0.4-1.7,0.8-2.5,1.2
				s-1.7,0.8-2.7,1.1c-0.9,0.4-1.9,0.7-2.9,0.9s-2.1,0.5-3.2,0.6S490,36,488.7,36h-3L485.8,31.7L485.8,31.7z M497.7,44.2l-3.2-3.2
				l3.2-3.2l3.2,3.2L497.7,44.2z"/>
		</g>
	</g>
	<g>
		<g>
			<path class="st1" d="M49.2,18.7c0.1,0.3,0.3,0.7,0.5,1.1s0.4,0.9,0.6,1.4c0.2,0.5,0.4,1.1,0.6,1.7c0.2,0.6,0.3,1.2,0.4,1.8
				c0.1,0.6,0.2,1.2,0.2,1.8c0,1-0.2,1.8-0.4,2.7c-0.3,0.8-0.7,1.5-1.2,2.2c-0.5,0.6-1.2,1.1-2,1.5s-1.7,0.5-2.7,0.5
				c-0.9,0-1.6-0.1-2.2-0.4c-0.6-0.3-1-0.7-1.4-1.2c-0.2,0.3-0.4,0.5-0.6,0.7c-0.2,0.2-0.5,0.4-0.8,0.5s-0.7,0.3-1.1,0.3
				c-0.4,0.1-0.9,0.1-1.5,0.1c-0.4,0-0.8,0-1.1-0.1s-0.6-0.1-0.9-0.2c0,1.1-0.2,2.2-0.5,3.1s-0.8,1.8-1.4,2.5
				c-0.6,0.7-1.2,1.4-2,1.9s-1.6,1-2.5,1.3c-0.9,0.4-1.8,0.6-2.8,0.8S24.5,43,23.5,43c-1.5,0-2.8-0.2-4.1-0.7s-2.3-1.2-3.2-2
				c-0.9-0.9-1.6-1.9-2.1-3.2c-0.5-1.2-0.8-2.6-0.8-4.1c0-0.9,0.1-1.8,0.4-2.7c0.2-0.9,0.5-1.8,0.8-2.7c0.3-0.9,0.7-1.7,1.1-2.5
				c0.4-0.8,0.8-1.5,1.2-2.1l3.1,2.4c-0.3,0.6-0.7,1.2-1,1.8c-0.3,0.6-0.6,1.3-0.9,1.9c-0.3,0.7-0.5,1.3-0.6,2s-0.2,1.3-0.2,1.9
				c0,0.7,0.1,1.4,0.4,2.1c0.3,0.6,0.8,1.2,1.3,1.7c0.6,0.5,1.2,0.9,2,1.1c0.8,0.3,1.6,0.4,2.5,0.4c1,0,1.9-0.1,2.8-0.3
				c0.8-0.2,1.6-0.4,2.2-0.8c0.6-0.3,1.2-0.7,1.6-1.2s0.8-1,1-1.5l0,0c0.2-0.8,0.4-1.6,0.4-2.4c0-0.6-0.1-1.3-0.3-2s-0.4-1.3-0.7-2
				c-0.3-0.7-0.6-1.4-1-2c-0.4-0.7-0.7-1.4-1-2.1l4-2.2c0.3,0.6,0.5,1.1,0.8,1.7s0.5,1.1,0.8,1.7c0.3,0.5,0.5,1,0.8,1.5
				s0.5,0.8,0.8,1.2c0.3,0.3,0.6,0.6,0.9,0.7c0.3,0.2,0.6,0.2,1,0.2c0.4-0.1,0.7-0.2,1-0.4c0.3-0.2,0.4-0.5,0.6-0.8s0.2-0.7,0.2-1.1
				s0-0.8,0-1.3c0-0.4-0.1-0.9-0.1-1.3s-0.1-0.8-0.1-1.2l4-0.5c0.1,0.3,0.1,0.7,0.2,1.1c0,0.4,0.1,0.9,0.2,1.3
				c0.1,0.5,0.1,0.9,0.2,1.4c0.1,0.5,0.2,0.9,0.4,1.3s0.4,0.8,0.6,1.1c0.2,0.3,0.5,0.5,0.9,0.6c0.3,0,0.6-0.1,0.8-0.2
				c0.3-0.1,0.5-0.3,0.7-0.5s0.3-0.5,0.5-0.8c0.1-0.3,0.2-0.7,0.2-1.1c0-0.3-0.1-0.7-0.2-1.2s-0.3-1-0.5-1.5s-0.5-1.1-0.8-1.7
				s-0.6-1.2-0.9-1.8l3.7-2.1C49,18.2,49.1,18.4,49.2,18.7z"/>
			<path class="st1" d="M60.7,24.7c0.2,0.7,0.4,1.4,0.6,2.2c0.2,0.7,0.3,1.5,0.5,2.2s0.2,1.4,0.2,2.1c0,0.9-0.1,1.8-0.4,2.6
				c-0.2,0.9-0.6,1.7-1,2.5s-1,1.6-1.6,2.3s-1.3,1.4-2,2.1c-0.8,0.7-1.6,1.3-2.4,1.8s-1.7,1.1-2.7,1.5l-2.6-3.7
				c0.7-0.3,1.4-0.7,2.1-1.2c0.7-0.4,1.4-0.9,2-1.4s1.3-1,1.8-1.6c0.6-0.5,1.1-1.1,1.5-1.7c0.4-0.6,0.7-1.1,1-1.7
				c0.2-0.6,0.4-1.2,0.4-1.7c0-0.4-0.1-0.8-0.2-1.3c-0.1-0.5-0.3-1-0.5-1.5s-0.4-1.1-0.7-1.7s-0.5-1.3-0.8-2l4.2-1.9
				C60.2,23.3,60.4,24,60.7,24.7z"/>
			<path class="st1" d="M66.2,27.3c0.5,0.3,1.1,0.5,1.7,0.7s1.1,0.4,1.7,0.5c0.5,0.1,1,0.2,1.4,0.2c0.2,0,0.5,0,0.9-0.1
				c0.4,0,0.8-0.1,1.2-0.2c0.4-0.1,0.7-0.3,1-0.5s0.4-0.5,0.5-0.8c0-0.4-0.1-0.8-0.3-1.3c-0.2-0.5-0.6-1-1-1.5s-0.9-1-1.4-1.6
				c-0.5-0.5-1.1-1-1.6-1.5s-1.1-0.9-1.7-1.4S67.4,19.3,67,19l2.6-3.8c0.9,0.7,1.9,1.4,2.8,2.2s1.8,1.7,2.5,2.6s1.4,1.8,2,2.8
				s1,1.9,1.2,2.9c0.1,0.3,0.1,0.6,0.2,0.8c0,0.3,0,0.6,0,0.8c0,0.9-0.2,1.7-0.5,2.5c-0.3,0.7-0.8,1.4-1.5,1.9
				c-0.6,0.5-1.4,1-2.2,1.3c-0.9,0.3-1.8,0.4-2.9,0.4c-0.1,0-0.2,0-0.2,0h-0.2c-0.7,0-1.3-0.1-2-0.2c-0.7-0.1-1.4-0.3-2.1-0.6
				c-0.7-0.2-1.3-0.5-2-0.8c-0.6-0.3-1.2-0.6-1.8-1l1.9-4.3C65.2,26.8,65.7,27.1,66.2,27.3z"/>
			<path class="st1" d="M81,30.9c0-0.8,0.1-1.7,0.1-2.5s0.1-1.6,0.1-2.4s0-1.5,0-2.2c-0.1-1.4-0.1-2.6-0.2-3.6s-0.1-2-0.2-2.8
				s-0.1-1.5-0.2-2.1s-0.1-1.2-0.2-1.7s-0.1-1-0.2-1.4s-0.1-0.9-0.2-1.4l4.5-1.5c0.2,1.3,0.4,2.6,0.5,3.9s0.2,2.6,0.3,3.8
				c0.1,1.2,0.1,2.3,0.1,3.3s0,1.9,0,2.6s0,1.4,0,2.2s0,1.6,0,2.4s0,1.7-0.1,2.5c0,0.8-0.1,1.7-0.1,2.5l-4.5,0.7
				C80.9,32.5,81,31.7,81,30.9z"/>
			<path class="st1" d="M98.3,33.3c-0.2,0-0.5,0-0.8,0s-0.7-0.1-1.2-0.3c-0.2,1.2-0.6,2.3-1.2,3.4c-0.6,1.1-1.3,2.1-2.2,3
				S91.1,41.2,90,42s-2.3,1.5-3.5,2.1l-2.6-3.7c0.7-0.3,1.4-0.7,2.1-1.1s1.4-0.8,2-1.3s1.2-0.9,1.8-1.4c0.5-0.5,1-1,1.4-1.5
				s0.7-1.1,1-1.6c0.2-0.6,0.3-1.1,0.3-1.7c0-0.4-0.1-0.9-0.2-1.4c-0.1-0.6-0.3-1.2-0.5-1.9c-0.2-0.7-0.5-1.3-0.7-2
				c-0.3-0.7-0.5-1.3-0.8-1.8l4.2-1.8c0.4,1.2,0.8,2.1,1.1,2.9c0.4,0.8,0.7,1.4,1,1.8c0.3,0.5,0.6,0.8,0.9,1s0.6,0.3,0.9,0.3h0.3
				v4.6h-0.4C98.3,33.5,98.3,33.3,98.3,33.3z"/>
			<path class="st1" d="M111.7,28.7v4.6H98v-4.6C98,28.7,111.7,28.7,111.7,28.7z"/>
			<path class="st1" d="M124.8,28.7v4.6h-13.7v-4.6C111.1,28.7,124.8,28.7,124.8,28.7z"/>
			<path class="st1" d="M124.7,28.7c0.4,0,0.8,0,1.3,0s1,0,1.6,0s1.2-0.1,1.8-0.1c0.6,0,1.2-0.1,1.7-0.2s1-0.2,1.5-0.4
				c0.5-0.1,0.8-0.3,1.1-0.5c-1.3,0.1-2.4,0.2-3.5,0.1s-2-0.3-2.7-0.6c-0.8-0.3-1.4-0.9-1.8-1.6s-0.6-1.6-0.7-2.8
				c0-0.5,0.1-1.1,0.2-1.6c0.1-0.6,0.3-1.1,0.5-1.7c0.2-0.5,0.5-1.1,0.8-1.5c0.3-0.5,0.7-0.9,1.1-1.3s0.9-0.7,1.4-0.9
				s1.1-0.3,1.7-0.3c0.8,0,1.5,0.1,2.1,0.4c0.6,0.3,1.2,0.7,1.7,1.2s0.9,1.1,1.3,1.7c0.4,0.7,0.7,1.3,0.9,2.1
				c0.3,0.7,0.4,1.5,0.6,2.2s0.2,1.5,0.2,2.2c0,1.2-0.2,2.2-0.5,3c-0.3,0.9-0.8,1.6-1.3,2.2c-0.6,0.6-1.3,1.1-2.1,1.5
				c-0.8,0.4-1.7,0.7-2.6,0.9c-0.9,0.2-2,0.4-3,0.5c-1.1,0.1-2.1,0.1-3.2,0.1h-0.5v-4.6C124.3,28.7,124.7,28.7,124.7,28.7z
				 M130.6,13.8l-3.2-3.2l3.2-3.2l3.2,3.2L130.6,13.8z M130.7,19.9c-0.2,0-0.4,0.1-0.7,0.2c-0.2,0.1-0.5,0.3-0.6,0.6
				s-0.4,0.5-0.5,0.8s-0.2,0.6-0.2,0.9s0.1,0.5,0.3,0.7s0.4,0.3,0.7,0.4s0.6,0.2,0.9,0.2c0.4,0,0.7,0.1,1,0.1s0.7,0,1,0
				s0.5,0,0.7-0.1c-0.1-0.4-0.2-0.9-0.3-1.3s-0.3-0.8-0.5-1.2c-0.2-0.4-0.5-0.7-0.8-0.9C131.4,20.1,131,19.9,130.7,19.9z"/>
			<path class="st1" d="M155.2,33.3c-0.8,0-1.6-0.1-2.4-0.4s-1.5-0.7-2.2-1.2c-0.6-0.5-1.2-1.1-1.6-1.8s-0.6-1.5-0.6-2.5
				c0-1.9,0.9-3.9,2.6-6c0.1-0.2,0.2-0.3,0.3-0.4s0.2-0.2,0.3-0.3c0.1-0.1,0.1-0.2,0.2-0.2l0.3-0.3l-0.9-0.8l2.9-3.5
				c0.5,0.4,1.1,0.9,1.8,1.5s1.5,1.4,2.4,2.4c2.5,2.8,3.7,5.4,3.7,7.6c0,1-0.2,1.8-0.6,2.5s-0.9,1.3-1.5,1.8
				c-0.6,0.5-1.4,0.9-2.2,1.1C156.8,33.2,156,33.3,155.2,33.3z M158,27.4c0-0.3-0.1-0.6-0.3-1s-0.4-0.8-0.8-1.2
				c-0.3-0.4-0.7-0.8-1-1.2s-0.8-0.8-1.2-1.2c-0.3,0.3-0.5,0.6-0.8,1s-0.6,0.7-0.8,1.1s-0.4,0.8-0.6,1.2c-0.2,0.4-0.2,0.8-0.2,1.3
				c0,0.2,0.1,0.4,0.3,0.6s0.5,0.3,0.8,0.4s0.6,0.2,0.9,0.2c0.3,0.1,0.6,0.1,0.8,0.1c0.3,0,0.6,0,0.9-0.1c0.3,0,0.6-0.1,0.9-0.2
				c0.3-0.1,0.5-0.2,0.7-0.4S158,27.7,158,27.4z"/>
			<path class="st1" d="M171.3,24.7c0.2,0.7,0.4,1.4,0.6,2.2c0.2,0.7,0.3,1.5,0.5,2.2s0.2,1.4,0.2,2.1c0,0.9-0.1,1.8-0.4,2.6
				c-0.2,0.9-0.6,1.7-1,2.5s-1,1.6-1.6,2.3s-1.3,1.4-2,2.1c-0.8,0.7-1.6,1.3-2.4,1.8s-1.7,1.1-2.7,1.5l-2.6-3.7
				c0.7-0.3,1.4-0.7,2.1-1.2c0.7-0.4,1.4-0.9,2-1.4s1.3-1,1.8-1.6c0.6-0.5,1.1-1.1,1.5-1.7c0.4-0.6,0.7-1.1,1-1.7
				c0.2-0.6,0.4-1.2,0.4-1.7c0-0.4-0.1-0.8-0.2-1.3c-0.1-0.5-0.3-1-0.5-1.5s-0.4-1.1-0.7-1.7s-0.5-1.3-0.8-2l4.2-1.9
				C170.8,23.3,171,24,171.3,24.7z"/>
			<path class="st1" d="M182,33.3c-1.2,0-2.2-0.2-3.1-0.5c-0.8-0.3-1.5-0.8-2-1.3c-0.5-0.6-0.9-1.2-1.1-2c-0.2-0.8-0.4-1.6-0.4-2.5
				c0-0.5,0-1,0-1.7s0-1.5,0-2.4s0-1.9,0-3s0-2.2-0.1-3.3c0-1.1-0.1-2.1-0.2-3.1c-0.1-1-0.2-1.9-0.3-2.6l4.3-1.3
				c0.1,0.6,0.2,1.4,0.3,2.2c0.1,0.9,0.1,1.8,0.2,2.7c0,0.9,0.1,1.9,0.1,2.8s0,1.8,0.1,2.7c0,0.7,0,1.5,0,2.3s-0.1,1.6-0.1,2.3
				c0,0.7,0,1.4,0,2s0.1,1,0.3,1.3c0.1,0.2,0.2,0.4,0.3,0.5s0.3,0.2,0.5,0.3s0.4,0.1,0.6,0.1c0.2,0,0.4,0,0.7,0h0.4v4.6L182,33.3
				L182,33.3z"/>
			<path class="st1" d="M195.5,28.7v4.6h-13.7v-4.6C181.8,28.7,195.5,28.7,195.5,28.7z"/>
			<path class="st1" d="M208.6,28.7v4.6h-13.7v-4.6C194.9,28.7,208.6,28.7,208.6,28.7z"/>
			<path class="st1" d="M208,28.7h1c0-0.6,0.1-1.3,0.3-2.1c0.2-0.7,0.4-1.5,0.7-2.3s0.6-1.5,1-2.2s0.8-1.3,1.3-1.9s1-1,1.6-1.4
				s1.1-0.5,1.7-0.6c0.6,0,1.2,0.2,1.8,0.5c0.5,0.4,1,0.8,1.4,1.4s0.7,1.2,0.9,1.9c0.2,0.7,0.3,1.5,0.3,2.2c0,0.9-0.2,1.7-0.6,2.6
				c-0.4,0.8-0.9,1.6-1.5,2.3c-0.6,0.7-1.3,1.4-2.1,1.9c-0.8,0.6-1.6,1-2.4,1.4c0.1,0.2,0.2,0.5,0.4,0.8s0.5,0.6,0.7,1
				c0.3,0.3,0.6,0.6,0.8,0.9c0.3,0.3,0.5,0.5,0.7,0.7c0-0.6,0.1-1.1,0.2-1.7c0.2-0.6,0.4-1.1,0.7-1.7c0.3-0.5,0.7-1,1.1-1.5
				s0.9-0.9,1.4-1.2c0.5-0.4,1-0.6,1.5-0.8c0.5-0.2,1-0.3,1.5-0.3h0.7v4.6h-0.8c-0.4,0-0.8,0.1-1.2,0.3s-0.7,0.5-1,0.9
				s-0.5,0.7-0.7,1.2c-0.2,0.4-0.3,0.9-0.3,1.3c0,0.2,0,0.4,0,0.5c0,0.2,0.1,0.3,0.2,0.5c0.1,0.2,0.2,0.4,0.3,0.5
				c0.1,0.2,0.3,0.4,0.5,0.6l-2.6,3.2c-1.2-0.7-2.2-1.4-3-2.2c-0.9-0.7-1.6-1.5-2.3-2.2c-0.6-0.8-1.2-1.5-1.6-2.3s-0.8-1.6-1.1-2.4
				H208V28.7z M216.5,25c0-0.3,0-0.6,0-0.9s-0.1-0.6-0.1-0.9c-0.1-0.3-0.2-0.5-0.3-0.8s-0.3-0.4-0.5-0.5c-0.2,0.1-0.4,0.3-0.6,0.6
				c-0.2,0.3-0.4,0.6-0.7,1c-0.2,0.4-0.4,0.8-0.6,1.3c-0.2,0.5-0.4,0.9-0.6,1.4c-0.2,0.5-0.3,0.9-0.4,1.4c-0.1,0.4-0.2,0.8-0.2,1.2
				c0.4-0.1,0.8-0.2,1.3-0.5c0.4-0.2,0.9-0.5,1.2-0.9c0.4-0.3,0.7-0.7,1-1.1C216.4,25.9,216.5,25.5,216.5,25z"/>
			<path class="st1" d="M223,28.7h1.9c0.4,0,0.8,0,1.3-0.1s0.9-0.2,1.4-0.3c0.4-0.1,0.8-0.4,1.1-0.6c0.3-0.3,0.4-0.6,0.4-0.9
				c0-0.2-0.1-0.6-0.2-1s-0.3-1-0.5-1.5c-0.2-0.6-0.5-1.2-0.8-1.8c-0.3-0.6-0.6-1.2-0.8-1.8l4.1-2c0.3,0.6,0.5,1.3,0.8,1.9
				c0.3,0.7,0.5,1.4,0.7,2.1s0.4,1.4,0.5,2.1s0.2,1.4,0.2,2c0,1.2-0.2,2.1-0.6,3c-0.4,0.8-0.9,1.5-1.6,2c-0.7,0.5-1.5,0.9-2.5,1.2
				s-2,0.4-3.2,0.4H223V28.7z M227.6,41.2l-3.2-3.2l3.2-3.2l3.2,3.2L227.6,41.2z"/>
			<path class="st1" d="M257.5,33.3c-0.9,0-1.8,0-2.8-0.1s-2-0.2-3-0.4s-2-0.5-2.9-0.9s-1.8-0.8-2.5-1.4s-1.3-1.3-1.8-2.1
				c-0.5-0.8-0.7-1.8-0.8-3c0-0.6,0.1-1.1,0.2-1.7c0.1-0.5,0.3-1.1,0.5-1.6s0.4-1,0.7-1.5s0.5-1,0.8-1.5l3.4,2.8
				c-0.1,0.2-0.3,0.5-0.5,0.8s-0.4,0.7-0.6,1c-0.2,0.4-0.3,0.7-0.4,1.1c-0.1,0.4-0.2,0.7-0.2,0.9c0,0.4,0.1,0.7,0.4,1
				c0.3,0.3,0.6,0.5,1.1,0.8c0.5,0.2,1,0.4,1.6,0.6s1.3,0.3,2,0.4s1.5,0.2,2.3,0.2s1.6,0.1,2.4,0.1c0.4,0,0.8,0,1.2,0s0.8,0,1.2,0
				c0.4,0,0.7,0,1,0s0.5,0,0.6,0c-0.3-0.4-0.7-0.9-0.9-1.4c-0.3-0.6-0.4-1.2-0.5-1.9c0-0.6,0-1.1,0.2-1.7c0.1-0.6,0.3-1.1,0.6-1.7
				c0.3-0.5,0.6-1.1,1-1.5c0.4-0.5,0.8-0.9,1.3-1.2c0.5-0.4,1-0.6,1.5-0.8c0.5-0.2,1.1-0.3,1.7-0.3c0.8,0,1.6,0.3,2.3,0.6
				c0.7,0.4,1.3,0.9,1.9,1.5c0.5,0.6,0.9,1.3,1.2,2.1s0.5,1.6,0.5,2.4c0,0.7-0.1,1.3-0.3,2c-0.2,0.6-0.5,1.2-0.8,1.8
				c0.5,0,0.9,0.1,1.3,0.1s0.8,0.1,1.2,0.1h0.5v4.6h-0.4c-0.6,0-1.2,0-1.8,0c-0.6,0-1.3-0.1-1.9-0.2c-0.6-0.1-1.2-0.2-1.9-0.4
				c-0.6-0.2-1.2-0.4-1.8-0.6c-0.2,0.1-0.5,0.3-1,0.4s-0.9,0.2-1.4,0.3s-1.1,0.2-1.6,0.2s-1.2,0.1-1.8,0.2c-0.6,0-1.2,0.1-1.7,0.1
				C258.5,33.3,258,33.3,257.5,33.3z M267.1,15.7l-3.2-3.2l3.2-3.2l3.2,3.2L267.1,15.7z M268.6,25.1c0-0.3-0.1-0.6-0.2-0.9
				c-0.2-0.3-0.3-0.5-0.5-0.8c-0.2-0.2-0.5-0.4-0.7-0.6c-0.3-0.1-0.5-0.3-0.7-0.3s-0.5,0.1-0.8,0.3c-0.3,0.1-0.6,0.3-0.8,0.5
				c-0.3,0.2-0.5,0.5-0.6,0.8s-0.3,0.7-0.3,1.1c0,0.1,0.1,0.3,0.2,0.6c0.1,0.3,0.3,0.5,0.6,0.8s0.5,0.5,0.8,0.7s0.6,0.4,0.9,0.5
				c0.2-0.1,0.5-0.3,0.7-0.6s0.5-0.5,0.7-0.8s0.4-0.5,0.5-0.8C268.5,25.6,268.6,25.3,268.6,25.1z"/>
			<path class="st1" d="M287.4,28.7v4.6h-13.7v-4.6C273.7,28.7,287.4,28.7,287.4,28.7z"/>
			<path class="st1" d="M300.5,28.7v4.6h-13.7v-4.6C286.8,28.7,300.5,28.7,300.5,28.7z"/>
			<path class="st1" d="M312.8,28.7v4.6h-0.3c-0.5,0-0.9,0-1.4-0.1s-0.9-0.2-1.3-0.3s-0.8-0.3-1.1-0.5s-0.6-0.4-0.9-0.6
				c-0.5,0.3-1,0.6-1.6,0.8s-1.2,0.4-1.8,0.5c-0.6,0.1-1.3,0.2-2,0.2s-1.4,0.1-2,0.1h-0.5v-4.6h0.5c0.7,0,1.3,0,1.9-0.1
				c0.5,0,1-0.1,1.4-0.2s0.8-0.2,1-0.4s0.5-0.4,0.7-0.6c0.2-0.3,0.4-0.6,0.4-1s0.1-0.8,0-1.2c0-0.4-0.1-0.8-0.2-1.2
				c-0.1-0.4-0.2-0.8-0.3-1.1l4.2-1.2c0.1,0.4,0.2,0.8,0.3,1.2c0.1,0.4,0.2,0.7,0.2,1s0.1,0.7,0.2,1c0,0.3,0.1,0.7,0.2,1.1
				c0,0.3,0.1,0.5,0.2,0.8s0.2,0.6,0.3,0.8s0.3,0.5,0.6,0.6c0.3,0.2,0.6,0.3,1,0.3h0.3L312.8,28.7L312.8,28.7z M305.6,37.5l-2.7,2.7
				l-2.8-2.8l2.8-2.8l2.7,2.7l2.7-2.7l2.8,2.8l-2.8,2.8L305.6,37.5z"/>
			<path class="st1" d="M312.2,28.7h1c0.2,0,0.4,0,0.7,0c0.2,0,0.4,0,0.7-0.1s0.4-0.1,0.5-0.1c-0.2-0.2-0.3-0.4-0.5-0.6
				s-0.3-0.5-0.4-0.7s-0.2-0.6-0.3-0.9c-0.1-0.3-0.1-0.7-0.2-1c0-0.6,0-1.1,0.2-1.7c0.1-0.6,0.3-1.1,0.6-1.7c0.3-0.5,0.6-1.1,1-1.5
				c0.4-0.5,0.8-0.9,1.3-1.2c0.5-0.4,1-0.6,1.5-0.8c0.5-0.2,1.1-0.3,1.7-0.3c0.8,0,1.6,0.3,2.3,0.6s1.3,0.9,1.9,1.5
				c0.5,0.6,0.9,1.3,1.2,2.1c0.3,0.8,0.5,1.6,0.5,2.4c0,0.7-0.1,1.3-0.3,2c-0.2,0.6-0.5,1.2-0.8,1.8c0.3,0.1,0.6,0.1,0.9,0.1
				c0.4,0,0.8,0,1.4,0h0.3v4.6h-0.6c-0.6,0-1.2,0-1.8-0.1c-0.6,0-1.1-0.1-1.7-0.2c-0.5-0.1-1.1-0.2-1.6-0.4
				c-0.5-0.1-1.1-0.3-1.7-0.6c-0.4,0.2-0.8,0.4-1.3,0.5s-1.1,0.3-1.8,0.4c-0.6,0.1-1.3,0.2-2,0.2s-1.4,0.1-2,0.1h-0.6v-4.4
				C312.3,28.7,312.2,28.7,312.2,28.7z M319.6,16l-3.2-3.2l3.2-3.2l3.2,3.2L319.6,16z M322,25.1c0-0.3-0.1-0.6-0.2-0.9
				s-0.3-0.5-0.5-0.8c-0.2-0.2-0.5-0.4-0.7-0.6c-0.3-0.1-0.5-0.3-0.7-0.3s-0.5,0.1-0.8,0.3c-0.3,0.1-0.6,0.3-0.8,0.5
				c-0.3,0.2-0.5,0.5-0.6,0.8c-0.2,0.3-0.3,0.7-0.3,1.1c0,0.1,0.1,0.3,0.2,0.6c0.1,0.3,0.3,0.5,0.6,0.8s0.5,0.5,0.8,0.7
				s0.6,0.4,0.9,0.5c0.2-0.1,0.5-0.3,0.7-0.6s0.5-0.5,0.7-0.8s0.4-0.5,0.5-0.8C321.9,25.6,322,25.3,322,25.1z"/>
			<path class="st1" d="M326.7,28.7h2.9c0.7,0,1.4,0,2.2-0.1s1.6-0.2,2.4-0.4s1.6-0.4,2.5-0.6c0.8-0.2,1.6-0.5,2.4-0.7
				c0.8-0.3,1.5-0.5,2.3-0.8c0.7-0.3,1.4-0.6,2-0.9c-0.6-0.1-1.3-0.3-2-0.6s-1.5-0.5-2.2-0.8c-0.8-0.3-1.5-0.5-2.2-0.6
				c-0.7-0.2-1.3-0.3-1.9-0.3c-0.4,0-0.7,0.1-1,0.2s-0.6,0.3-0.9,0.5s-0.5,0.4-0.8,0.7c-0.2,0.2-0.4,0.5-0.6,0.7s-0.3,0.4-0.4,0.5
				l-0.1,0.2l-3.4-2c0.4-0.7,0.8-1.4,1.4-2.1s1.1-1.2,1.8-1.7c0.6-0.5,1.3-0.9,2-1.2c0.7-0.3,1.4-0.4,2.1-0.4c0.5,0,1,0.1,1.6,0.2
				c0.5,0.1,1,0.3,1.6,0.4c0.5,0.2,1,0.4,1.6,0.6c0.5,0.2,1.1,0.5,1.6,0.7c0.5,0.3,1.2,0.5,1.8,0.8s1.4,0.5,2.1,0.7s1.5,0.4,2.2,0.5
				c0.8,0.1,1.5,0.2,2.2,0.2l-0.8,4.3c-0.2,0.1-0.5,0.2-0.7,0.3c-0.3,0.1-0.5,0.2-0.7,0.4l-0.4,0.2c0.2,0.3,0.5,0.5,0.8,0.6
				c0.3,0.2,0.7,0.3,1.1,0.3c0.4,0.1,0.7,0.1,1,0.1s0.6,0,0.8,0h0.5v4.6H351c-0.9,0-1.8-0.1-2.6-0.2c-0.8-0.2-1.6-0.4-2.2-0.7
				s-1.3-0.7-1.8-1.1s-0.9-1-1.3-1.5c-1,0.5-1.9,0.9-3,1.3c-1,0.4-2.1,0.8-3.2,1.2c-1.1,0.3-2.3,0.6-3.4,0.8
				c-1.2,0.2-2.4,0.3-3.7,0.3h-2.9v-4.6C326.9,28.7,326.7,28.7,326.7,28.7z M334.9,16.9l-3.2-3.2l3.2-3.2l3.2,3.2L334.9,16.9z"/>
			<path class="st1" d="M350.7,28.7h3.5c0.4,0,0.9,0,1.4-0.1c0.5,0,1-0.1,1.4-0.3c0.4-0.1,0.8-0.3,1.1-0.6c0.3-0.3,0.4-0.6,0.4-1
				c0-0.2-0.1-0.6-0.2-1c-0.1-0.5-0.3-1-0.5-1.5c-0.2-0.6-0.5-1.2-0.8-1.8c-0.3-0.6-0.6-1.2-0.8-1.8l4.1-2c0.3,0.6,0.5,1.3,0.8,1.9
				c0.3,0.7,0.5,1.4,0.7,2.1s0.4,1.4,0.5,2.1s0.2,1.4,0.2,2c0,1.2-0.2,2.2-0.7,3c-0.4,0.8-1,1.5-1.8,2c-0.8,0.5-1.6,0.9-2.6,1.1
				s-2.1,0.4-3.2,0.4h-3.4v-4.5C350.8,28.7,350.7,28.7,350.7,28.7z M357.5,13.8l-2.7,2.7l-2.8-2.8l2.8-2.8l2.7,2.7l2.7-2.7l2.8,2.8
				l-2.8,2.8L357.5,13.8z"/>
			<path class="st1" d="M380.2,33.3c-0.8,0-1.6-0.1-2.4-0.4s-1.5-0.7-2.2-1.2s-1.2-1.1-1.6-1.8s-0.6-1.5-0.6-2.5
				c0-1.9,0.9-3.9,2.6-6c0.1-0.2,0.2-0.3,0.3-0.4c0.1-0.1,0.2-0.2,0.3-0.3c0.1-0.1,0.1-0.2,0.2-0.2l0.3-0.3l-0.9-0.8l2.9-3.5
				c0.5,0.4,1.1,0.9,1.8,1.5s1.5,1.4,2.4,2.4c2.5,2.8,3.7,5.4,3.7,7.6c0,1-0.2,1.8-0.6,2.5s-0.9,1.3-1.5,1.8
				c-0.6,0.5-1.4,0.9-2.2,1.1C381.9,33.2,381.1,33.3,380.2,33.3z M383,27.4c0-0.3-0.1-0.6-0.3-1s-0.4-0.8-0.8-1.2
				c-0.3-0.4-0.7-0.8-1-1.2c-0.4-0.4-0.8-0.8-1.2-1.2c-0.3,0.3-0.5,0.6-0.8,1s-0.6,0.7-0.8,1.1c-0.2,0.4-0.4,0.8-0.6,1.2
				c-0.2,0.4-0.2,0.8-0.2,1.3c0,0.2,0.1,0.4,0.3,0.6c0.2,0.2,0.5,0.3,0.8,0.4s0.6,0.2,0.9,0.2c0.3,0.1,0.6,0.1,0.8,0.1
				c0.3,0,0.6,0,0.9-0.1c0.3,0,0.6-0.1,0.9-0.2s0.5-0.2,0.7-0.4S383,27.7,383,27.4z"/>
			<path class="st1" d="M396.3,24.7c0.2,0.7,0.4,1.4,0.6,2.2s0.3,1.5,0.5,2.2c0.1,0.7,0.2,1.4,0.2,2.1c0,0.9-0.1,1.8-0.4,2.6
				s-0.6,1.7-1,2.5s-1,1.6-1.6,2.3s-1.3,1.4-2,2.1s-1.6,1.3-2.4,1.8c-0.9,0.6-1.7,1.1-2.7,1.5l-2.6-3.7c0.7-0.3,1.4-0.7,2.1-1.2
				s1.4-0.9,2-1.4c0.7-0.5,1.3-1,1.8-1.6c0.6-0.5,1.1-1.1,1.5-1.7c0.4-0.6,0.7-1.1,1-1.7s0.4-1.2,0.4-1.7c0-0.4-0.1-0.8-0.2-1.3
				s-0.3-1-0.5-1.5s-0.4-1.1-0.7-1.7s-0.5-1.3-0.8-2l4.2-1.9C395.9,23.3,396.1,24,396.3,24.7z"/>
			<path class="st1" d="M400.4,30.9c0-0.8,0.1-1.7,0.1-2.5s0.1-1.6,0.1-2.4s0-1.5,0-2.2c-0.1-1.4-0.1-2.6-0.2-3.6s-0.1-2-0.2-2.8
				s-0.1-1.5-0.2-2.1s-0.1-1.2-0.2-1.7s-0.1-1-0.2-1.4s-0.1-0.9-0.2-1.4l4.5-1.5c0.2,1.3,0.4,2.6,0.5,3.9s0.2,2.6,0.3,3.8
				c0.1,1.2,0.1,2.3,0.1,3.3s0,1.9,0,2.6s0,1.4,0,2.2c0,0.8,0,1.6,0,2.4s0,1.7-0.1,2.5c0,0.8-0.1,1.7-0.1,2.5l-4.5,0.7
				C400.3,32.5,400.4,31.7,400.4,30.9z"/>
			<path class="st1" d="M406.3,39c1.4-0.3,2.6-0.6,3.7-1s2.1-0.9,2.9-1.4s1.5-1,2.1-1.6s0.9-1.1,1.2-1.7c-0.4,0-0.9,0-1.3,0
				c-0.5,0-0.8,0-1.1-0.1c-1-0.1-1.8-0.3-2.6-0.5c-0.8-0.3-1.5-0.7-2-1.2c-0.6-0.5-1-1.1-1.3-1.8c-0.3-0.7-0.5-1.5-0.5-2.5
				c0-0.6,0.1-1.2,0.2-1.8c0.1-0.6,0.3-1.2,0.5-1.8c0.2-0.6,0.5-1.1,0.9-1.7c0.4-0.5,0.7-1,1.2-1.4c0.4-0.4,0.9-0.7,1.5-0.9
				c0.5-0.2,1.1-0.3,1.7-0.3c0.7,0,1.4,0.1,2,0.4s1.2,0.6,1.7,1.1s1,1,1.4,1.6s0.7,1.3,1,2s0.5,1.4,0.7,2.2c0.2,0.7,0.3,1.5,0.4,2.2
				h0.6v4.6h-0.9c-0.4,1.4-1,2.7-1.8,3.8s-1.8,2.2-3,3c-1.1,0.9-2.4,1.6-3.8,2.1c-1.4,0.6-2.9,1-4.4,1.2L406.3,39z M413.4,23.9
				c-0.2,0-0.4,0-0.7,0.2c-0.3,0.2-0.5,0.4-0.7,0.7c-0.2,0.3-0.4,0.6-0.6,1s-0.2,0.7-0.2,1.1c0,0.3,0.1,0.6,0.3,0.8
				c0.2,0.2,0.5,0.4,0.8,0.5s0.7,0.2,1.1,0.3c0.4,0.1,0.8,0.1,1.2,0.1s0.8,0,1.1,0h0.9c-0.1-0.6-0.3-1.2-0.5-1.7s-0.4-1-0.7-1.5
				s-0.6-0.8-0.9-1.1C414.2,24.2,413.8,24,413.4,23.9z"/>
			<path class="st1" d="M434.4,28.7v4.6h-13.7v-4.6C420.7,28.7,434.4,28.7,434.4,28.7z"/>
			<path class="st1" d="M447.5,28.7v4.6h-13.7v-4.6C433.8,28.7,447.5,28.7,447.5,28.7z"/>
			<path class="st1" d="M457.6,28.7v4.6h-0.3c-0.9,0-1.7-0.1-2.4-0.4c-0.6-0.3-1.2-0.6-1.7-1.1c-0.7,0.5-1.5,0.9-2.4,1.1
				s-2.1,0.3-3.4,0.3h-0.5v-4.6h0.5c1.3,0,2.3-0.2,3-0.6s1-1.1,1-1.9c0-0.3,0-0.7-0.1-1.2s-0.2-1.2-0.5-2.1l4.1-1
				c0.2,0.5,0.3,1,0.4,1.4s0.2,0.8,0.2,1.1c0.1,0.3,0.1,0.6,0.1,0.9s0.1,0.6,0.1,0.8c0,0.3,0,0.6,0.1,0.9s0.1,0.6,0.2,0.8
				s0.3,0.5,0.5,0.6c0.2,0.2,0.5,0.3,0.8,0.3h0.3L457.6,28.7L457.6,28.7z M451.5,19.5l-3.2-3.2l3.2-3.2l3.2,3.2L451.5,19.5z"/>
			<path class="st1" d="M457.3,28.7c0.5,0,1-0.1,1.4-0.3c0.4-0.2,0.9-0.5,1.3-1s0.8-1.2,1.1-2c0.3-0.9,0.7-2,1-3.4l3.8,0.5
				c0,0,0,0.1,0,0.2c-0.1,0.2-0.1,0.6-0.2,1s-0.2,0.9-0.2,1.5c-0.1,0.5-0.1,1.1-0.1,1.6s0.1,0.9,0.2,1.3s0.3,0.6,0.6,0.6
				c0.3,0.1,0.6,0,0.9-0.2s0.5-0.5,0.8-0.9s0.5-0.8,0.7-1.3s0.4-1,0.6-1.5s0.3-1,0.4-1.5s0.2-0.9,0.3-1.3l3.8,0.5
				c0,0.2-0.1,0.6-0.1,1s-0.1,0.8-0.1,1.3s0,0.9,0,1.4s0.1,0.9,0.2,1.2c0.1,0.4,0.2,0.7,0.4,0.9s0.5,0.4,0.8,0.4s0.6-0.1,0.8-0.3
				c0.2-0.2,0.4-0.5,0.6-0.8s0.3-0.7,0.4-1.2c0.1-0.4,0.2-0.9,0.2-1.3c0-0.5,0.1-0.9,0.1-1.3s0-0.8,0-1.1l3.9-0.5l0.5,4.1
				c0.1,0.4,0.2,0.8,0.4,1.2s0.4,0.6,0.7,0.8c0.3,0.2,0.5,0.4,0.8,0.5s0.6,0.2,0.8,0.2h0.5v4.6h-0.5c-0.9,0-1.8-0.2-2.6-0.5
				c-0.8-0.3-1.5-0.9-2.2-1.7c-0.1,0.1-0.1,0.1-0.2,0.2s-0.1,0.1-0.2,0.2l0,0c-0.5,0.5-1.1,1-1.8,1.3c-0.7,0.3-1.4,0.5-2.2,0.5
				c-0.9,0-1.7-0.2-2.4-0.6s-1.3-0.9-1.8-1.5c-0.6,0.6-1.2,1.1-2,1.5c-0.7,0.4-1.5,0.6-2.4,0.6c-0.8,0-1.6-0.2-2.3-0.5
				c-0.7-0.4-1.3-0.9-1.7-1.5c-0.5,0.7-1.2,1.2-1.9,1.5c-0.8,0.3-1.7,0.5-2.8,0.5h-0.3V29l0,0L457.3,28.7L457.3,28.7z M466,22.6
				L466,22.6C466,22.5,466,22.5,466,22.6z M471.8,16.4l-2.7,2.7l-2.8-2.8l2.8-2.8l2.7,2.7l2.7-2.7l2.8,2.8l-2.8,2.8L471.8,16.4z
				 M474.3,12.2l-2.6,2.6l-2.6-2.6l2.6-2.6L474.3,12.2z"/>
			<path class="st1" d="M483.8,28.7h3c1.6,0,3-0.1,4.3-0.3s2.5-0.4,3.7-0.8s2.2-0.7,3.2-1.1s2-0.9,3-1.3c-0.7-0.2-1.3-0.4-2-0.7
				c-0.7-0.3-1.3-0.5-2-0.8s-1.3-0.5-2-0.6c-0.7-0.2-1.3-0.3-1.9-0.3c-0.4,0-0.9,0.1-1.3,0.4c-0.4,0.2-0.8,0.5-1.2,0.8
				c-0.3,0.3-0.6,0.6-0.9,0.9c-0.2,0.3-0.4,0.5-0.4,0.6l-3.3-2.2c0.4-0.6,0.8-1.3,1.3-1.9s1.1-1.2,1.7-1.6c0.6-0.5,1.3-0.9,1.9-1.1
				c0.7-0.3,1.4-0.4,2.2-0.4c0.6,0,1.1,0.1,1.7,0.2s1.1,0.3,1.7,0.5s1.1,0.4,1.7,0.7c0.5,0.2,1.1,0.5,1.6,0.7s1,0.5,1.5,0.7
				s1.1,0.5,1.6,0.6c0.5,0.2,1.1,0.4,1.7,0.5s1.2,0.2,1.9,0.2l-0.4,4.4l-2,1c-0.8,0.4-1.7,0.8-2.5,1.2c-0.8,0.4-1.7,0.8-2.5,1.2
				s-1.7,0.8-2.7,1.1c-0.9,0.4-1.9,0.7-2.9,0.9s-2.1,0.5-3.2,0.6S488,33,486.7,33h-3L483.8,28.7L483.8,28.7z M495.7,41.2l-3.2-3.2
				l3.2-3.2l3.2,3.2L495.7,41.2z"/>
		</g>
	</g>
</g>
<g>
	<path class="st1" d="M305.9,80.7h16.8c1.5,0,2.6-0.3,3.3-1c0.7-0.7,1-1.7,1-3.2v-3.7V72h0.8h3.5h0.8v0.8v3.7c0,3-0.8,5.3-2.4,6.8
		c-1.6,1.6-4,2.4-7.1,2.4h-16.7c-3.1,0-5.5-0.8-7.2-2.3c-1.7-1.6-2.5-3.8-2.5-6.8v-3.8V72h0.8h3.5h0.8v0.8v3.8
		c0,1.5,0.4,2.5,1.1,3.2C303.1,80.3,304.3,80.7,305.9,80.7z M307,68.7l3.4-3.2l3.4,3.2l-3.4,3.2L307,68.7z M314.4,68.7l3.4-3.2
		l3.4,3.2c-0.1,0.1-0.2,0.2-0.2,0.2c-0.2,0.2-0.7,0.6-1.4,1.3c-0.8,0.7-1.4,1.3-1.8,1.6L314.4,68.7z"/>
	<path class="st1" d="M345.6,85.6h-0.9c-2.4,0-4.3-0.7-5.5-2c-1.3-1.4-1.9-3.3-1.9-5.8V61.2v-0.8h0.8h3.4h0.8v0.8v16.6
		c0,1.1,0.2,1.8,0.6,2.2c0.4,0.4,1,0.7,1.9,0.7h0.9c0.1,0,0.3,0.3,0.4,0.8s0.1,1,0.1,1.5v0.2c0,0.5,0,1-0.1,1.6
		C345.8,85.3,345.7,85.6,345.6,85.6z"/>
	<path class="st1" d="M350.6,80.7c0.2,0,0.3,0.3,0.4,0.8s0.1,1,0.1,1.5v0.2c0,0.5,0,1-0.1,1.6c-0.1,0.5-0.2,0.8-0.4,0.8h-5.3
		c-0.2,0-0.3-0.3-0.4-0.8s-0.1-1.1-0.1-1.6V83c0-0.5,0-1,0.1-1.5s0.2-0.8,0.4-0.8H350.6z"/>
	<path class="st1" d="M355.7,80.7c0.2,0,0.3,0.3,0.4,0.8s0.1,1,0.1,1.5v0.2c0,0.5,0,1-0.1,1.6c-0.1,0.5-0.2,0.8-0.4,0.8h-5.3
		c-0.2,0-0.3-0.3-0.4-0.8s-0.1-1.1-0.1-1.6V83c0-0.5,0-1,0.1-1.5s0.2-0.8,0.4-0.8H355.7z"/>
	<path class="st1" d="M360.8,80.7c0.2,0,0.3,0.3,0.4,0.8s0.1,1,0.1,1.5v0.2c0,0.5,0,1-0.1,1.6c-0.1,0.5-0.2,0.8-0.4,0.8h-5.3
		c-0.2,0-0.3-0.3-0.4-0.8s-0.1-1.1-0.1-1.6V83c0-0.5,0-1,0.1-1.5s0.2-0.8,0.4-0.8H360.8z"/>
	<path class="st1" d="M365.9,80.7c0.2,0,0.3,0.3,0.4,0.8s0.1,1,0.1,1.5v0.2c0,0.5,0,1-0.1,1.6c-0.1,0.5-0.2,0.8-0.4,0.8h-5.3
		c-0.2,0-0.3-0.3-0.4-0.8s-0.1-1.1-0.1-1.6V83c0-0.5,0-1,0.1-1.5s0.2-0.8,0.4-0.8H365.9z"/>
	<path class="st1" d="M365.7,80.7h4.4c-1.1-1.3-1.7-2.8-1.7-4.4c0-2.4,0.8-4.3,2.5-5.9s3.8-2.3,6.4-2.3c2.9,0,5.3,1,7.1,3.1l0.3,0.4
		l-0.3,0.4l-1.5,2.5l-0.5,0.9l-0.8-0.7c-1.2-1.1-2.7-1.6-4.3-1.6c-1.1,0-2,0.3-2.7,0.9s-1.1,1.4-1.1,2.3c0,1,0.5,1.8,1.6,2.6
		c1,0.8,1.8,1.2,2.3,1.2c0.4,0,1.3-0.1,2.5-0.4l4.3-1l1-0.2v1v3.4v0.6l-0.6,0.2c-4.8,1.3-9,2-12.7,2h-6.3c-0.2,0-0.3-0.3-0.4-0.8
		s-0.1-1.1-0.1-1.6V83c0-0.5,0-1,0.1-1.5C365.4,80.9,365.5,80.7,365.7,80.7z"/>
	<path class="st1" d="M398.8,85.6h-0.9c-2.4,0-4.3-0.7-5.5-2c-1.3-1.4-1.9-3.3-1.9-5.8V61.2v-0.8h0.8h3.4h0.8v0.8v16.6
		c0,1.1,0.2,1.8,0.6,2.2c0.4,0.4,1,0.7,1.9,0.7h0.9c0.1,0,0.3,0.3,0.4,0.8s0.1,1,0.1,1.5v0.2c0,0.5,0,1-0.1,1.6
		C399,85.3,398.9,85.6,398.8,85.6z"/>
	<path class="st1" d="M403.8,80.7c0.2,0,0.3,0.3,0.4,0.8s0.1,1,0.1,1.5v0.2c0,0.5,0,1-0.1,1.6c-0.1,0.5-0.2,0.8-0.4,0.8h-5.3
		c-0.2,0-0.3-0.3-0.4-0.8s-0.1-1.1-0.1-1.6V83c0-0.5,0-1,0.1-1.5s0.2-0.8,0.4-0.8H403.8z"/>
	<path class="st1" d="M408.9,80.7c0.2,0,0.3,0.3,0.4,0.8s0.1,1,0.1,1.5v0.2c0,0.5,0,1-0.1,1.6c-0.1,0.5-0.2,0.8-0.4,0.8h-5.3
		c-0.2,0-0.3-0.3-0.4-0.8s-0.1-1.1-0.1-1.6V83c0-0.5,0-1,0.1-1.5s0.2-0.8,0.4-0.8H408.9z"/>
	<path class="st1" d="M414,80.7c0.2,0,0.3,0.3,0.4,0.8s0.1,1,0.1,1.5v0.2c0,0.5,0,1-0.1,1.6c-0.1,0.5-0.2,0.8-0.4,0.8h-5.3
		c-0.2,0-0.3-0.3-0.4-0.8s-0.1-1.1-0.1-1.6V83c0-0.5,0-1,0.1-1.5s0.2-0.8,0.4-0.8H414z"/>
	<path class="st1" d="M413.8,80.7h1.9c1.4,0,2.4-0.2,3.1-0.7c0.6-0.5,0.9-1.2,0.9-2.2v-4.9v-0.8h0.8h3.5h0.8v0.8v4.9
		c0,1,0.2,1.8,0.7,2.2c0.5,0.4,1.2,0.7,2.3,0.7c1,0,1.7-0.2,2.2-0.7c0.5-0.4,0.7-1.2,0.7-2.2v-4.9v-0.8h0.8h3.5h0.8v0.8v4.9
		c0,1.1,0.2,1.8,0.7,2.2c0.4,0.4,1.2,0.7,2.2,0.7c0.8,0,1.3-0.2,1.6-0.6c0.3-0.4,0.5-1.2,0.5-2.2v-5.6v-0.8h0.8h3.6h0.8v0.8V78
		c0,2.4-0.6,4.2-1.9,5.6s-3,2-5.3,2s-4.2-0.7-5.4-2.1c-1.3,1.4-3.2,2.1-5.6,2.1c-2.3,0-4.1-0.7-5.4-2.2c-1.5,1.4-3.7,2.2-6.7,2.2
		h-1.9c-0.2,0-0.3-0.3-0.4-0.8s-0.1-1.1-0.1-1.6V83c0-0.5,0-1,0.1-1.5C413.5,80.9,413.6,80.7,413.8,80.7z"/>
	<path class="st1" d="M323.7,117.6h-0.3v0.7c0,2.5-1,4.4-3.1,5.8s-5,2-8.9,2h-2c-4.2,0-7.3-0.9-9.5-2.8s-3.2-4.7-3.2-8.3v-6.4v-0.8
		h0.8h3.6h0.8v0.8v6.4c0,2.1,0.6,3.7,1.8,4.7c1.2,1,3.1,1.5,5.7,1.5h2c1,0,1.9,0,2.7-0.1c0.8-0.1,1.5-0.3,2.1-0.5s1.1-0.5,1.5-0.9
		c0.3-0.4,0.5-0.9,0.5-1.5v-0.6h-4.3c-0.6,0-1.1-0.2-1.4-0.5s-0.6-0.9-0.9-1.7c-0.3-1-0.4-1.7-0.3-2.1s0.5-0.6,1.2-0.6h11.2
		c0.1,0,0.3,0.3,0.4,0.8s0.1,1,0.1,1.5v0.2c0,0.5,0,1-0.1,1.6C324,117.4,323.9,117.6,323.7,117.6z M326.2,112.7
		c0.1,0,0.2,0.3,0.2,0.8c0.1,0.5,0.1,1,0.1,1.5v0.2c0,0.5,0,1-0.1,1.6c0,0.5-0.1,0.8-0.2,0.8h-3c-0.1,0-0.2-0.3-0.2-0.8
		c-0.1-0.5-0.1-1.1-0.1-1.6V115c0-0.5,0-1,0.1-1.5c0-0.5,0.1-0.8,0.2-0.8H326.2z"/>
	<path class="st1" d="M331.1,112.7c0.2,0,0.3,0.3,0.4,0.8s0.1,1,0.1,1.5v0.2c0,0.5,0,1-0.1,1.6c-0.1,0.5-0.2,0.8-0.4,0.8h-5.3
		c-0.2,0-0.3-0.3-0.4-0.8s-0.1-1.1-0.1-1.6V115c0-0.5,0-1,0.1-1.5s0.2-0.8,0.4-0.8H331.1z"/>
	<path class="st1" d="M336.2,112.7c0.2,0,0.3,0.3,0.4,0.8s0.1,1,0.1,1.5v0.2c0,0.5,0,1-0.1,1.6c-0.1,0.5-0.2,0.8-0.4,0.8h-5.3
		c-0.2,0-0.3-0.3-0.4-0.8s-0.1-1.1-0.1-1.6V115c0-0.5,0-1,0.1-1.5s0.2-0.8,0.4-0.8H336.2z"/>
	<path class="st1" d="M341.3,112.7c0.2,0,0.3,0.3,0.4,0.8s0.1,1,0.1,1.5v0.2c0,0.5,0,1-0.1,1.6c-0.1,0.5-0.2,0.8-0.4,0.8H336
		c-0.2,0-0.3-0.3-0.4-0.8s-0.1-1.1-0.1-1.6V115c0-0.5,0-1,0.1-1.5s0.2-0.8,0.4-0.8H341.3z"/>
	<path class="st1" d="M346.4,112.7c0.2,0,0.3,0.3,0.4,0.8s0.1,1,0.1,1.5v0.2c0,0.5,0,1-0.1,1.6c-0.1,0.5-0.2,0.8-0.4,0.8h-5.3
		c-0.2,0-0.3-0.3-0.4-0.8s-0.1-1.1-0.1-1.6V115c0-0.5,0-1,0.1-1.5s0.2-0.8,0.4-0.8H346.4z"/>
	<path class="st1" d="M351.5,112.7c0.2,0,0.3,0.3,0.4,0.8s0.1,1,0.1,1.5v0.2c0,0.5,0,1-0.1,1.6c-0.1,0.5-0.2,0.8-0.4,0.8h-5.3
		c-0.2,0-0.3-0.3-0.4-0.8s-0.1-1.1-0.1-1.6V115c0-0.5,0-1,0.1-1.5s0.2-0.8,0.4-0.8H351.5z"/>
	<path class="st1" d="M356.5,112.7c0.2,0,0.3,0.3,0.4,0.8s0.1,1,0.1,1.5v0.2c0,0.5,0,1-0.1,1.6c-0.1,0.5-0.2,0.8-0.4,0.8h-5.3
		c-0.2,0-0.3-0.3-0.4-0.8s-0.1-1.1-0.1-1.6V115c0-0.5,0-1,0.1-1.5s0.2-0.8,0.4-0.8H356.5z"/>
	<path class="st1" d="M356.3,112.7h4.1c1.3,0,2.1-0.2,2.6-0.6s0.7-1.2,0.7-2.3v-5.5v-0.8h0.8h3.5h0.8v0.8v5.6c0,2.5-0.7,4.4-2.2,5.8
		s-3.6,2-6.3,2h-4.1c-0.2,0-0.3-0.3-0.4-0.8s-0.1-1.1-0.1-1.6V115c0-0.5,0-1,0.1-1.5C356.1,113,356.2,112.7,356.3,112.7z
		 M361.6,97.5l3.5-3.2l3.5,3.2l-3.5,3.2L361.6,97.5z"/>
	<path class="st1" d="M383,117.6h-0.9c-2.4,0-4.3-0.7-5.5-2c-1.3-1.4-1.9-3.3-1.9-5.8V93.2v-0.8h0.8h3.4h0.8v0.8v16.6
		c0,1.1,0.2,1.8,0.6,2.2c0.4,0.4,1,0.7,1.9,0.7h0.9c0.1,0,0.3,0.3,0.4,0.8s0.1,1,0.1,1.5v0.2c0,0.5,0,1-0.1,1.6
		C383.3,117.4,383.2,117.6,383,117.6z"/>
	<path class="st1" d="M388.1,112.7c0.2,0,0.3,0.3,0.4,0.8s0.1,1,0.1,1.5v0.2c0,0.5,0,1-0.1,1.6c-0.1,0.5-0.2,0.8-0.4,0.8h-5.3
		c-0.2,0-0.3-0.3-0.4-0.8s-0.1-1.1-0.1-1.6V115c0-0.5,0-1,0.1-1.5s0.2-0.8,0.4-0.8H388.1z"/>
	<path class="st1" d="M393.2,112.7c0.2,0,0.3,0.3,0.4,0.8s0.1,1,0.1,1.5v0.2c0,0.5,0,1-0.1,1.6c-0.1,0.5-0.2,0.8-0.4,0.8h-5.3
		c-0.2,0-0.3-0.3-0.4-0.8s-0.1-1.1-0.1-1.6V115c0-0.5,0-1,0.1-1.5s0.2-0.8,0.4-0.8H393.2z"/>
	<path class="st1" d="M391.4,123.9l3.4-3.2l3.4,3.2l-3.4,3.2L391.4,123.9z M393,112.7h5.8c1.3,0,2.1-0.2,2.6-0.6s0.7-1.2,0.7-2.3
		v-5.5v-0.8h0.8h3.5h0.8v0.8v5.6c0,2.5-0.7,4.4-2.2,5.8c-1.4,1.3-3.5,2-6.3,2H393c-0.2,0-0.3-0.3-0.4-0.8s-0.1-1.1-0.1-1.6V115
		c0-0.5,0-1,0.1-1.5S392.8,112.7,393,112.7z M398.8,123.9l3.4-3.2l3.4,3.2c-0.1,0.1-0.2,0.2-0.2,0.2c-0.2,0.2-0.7,0.6-1.4,1.3
		c-0.8,0.7-1.4,1.3-1.8,1.6L398.8,123.9z"/>
	<path class="st1" d="M421.3,117.6h-0.9c-2.4,0-4.3-0.7-5.5-2c-1.3-1.4-1.9-3.3-1.9-5.8V93.2v-0.8h0.8h3.4h0.8v0.8v16.6
		c0,1.1,0.2,1.8,0.6,2.2c0.4,0.4,1,0.7,1.9,0.7h0.9c0.1,0,0.3,0.3,0.4,0.8s0.1,1,0.1,1.5v0.2c0,0.5,0,1-0.1,1.6
		C421.6,117.4,421.4,117.6,421.3,117.6z"/>
	<path class="st1" d="M426.3,112.7c0.2,0,0.3,0.3,0.4,0.8s0.1,1,0.1,1.5v0.2c0,0.5,0,1-0.1,1.6c-0.1,0.5-0.2,0.8-0.4,0.8H421
		c-0.2,0-0.3-0.3-0.4-0.8s-0.1-1.1-0.1-1.6V115c0-0.5,0-1,0.1-1.5s0.2-0.8,0.4-0.8H426.3z"/>
	<path class="st1" d="M431.4,112.7c0.2,0,0.3,0.3,0.4,0.8s0.1,1,0.1,1.5v0.2c0,0.5,0,1-0.1,1.6c-0.1,0.5-0.2,0.8-0.4,0.8h-5.3
		c-0.2,0-0.3-0.3-0.4-0.8s-0.1-1.1-0.1-1.6V115c0-0.5,0-1,0.1-1.5s0.2-0.8,0.4-0.8H431.4z"/>
	<path class="st1" d="M429.9,123.2l3.3-3l3.3,3l-3.3,3L429.9,123.2z M431.2,112.7h5.8c1.3,0,2.1-0.2,2.6-0.6s0.7-1.2,0.7-2.3v-5.5
		v-0.8h0.8h3.5h0.8v0.8v5.6c0,2.5-0.7,4.4-2.2,5.8c-1.4,1.3-3.5,2-6.3,2h-5.8c-0.2,0-0.3-0.3-0.4-0.8s-0.1-1.1-0.1-1.6V115
		c0-0.5,0-1,0.1-1.5C431,113,431.1,112.7,431.2,112.7z M433.6,127.8l3.3-3l3.3,3l-3.3,3L433.6,127.8z M437.3,123.2l3.3-3l3.3,3
		l-3.3,3L437.3,123.2z"/>
</g>
</svg>
