<?xml version="1.0" encoding="utf-8"?>
<!-- Generator: Adobe Illustrator 23.0.1, SVG Export Plug-In . SVG Version: 6.00 Build 0)  -->
<svg version="1.1" id="Layer_1" xmlns="http://www.w3.org/2000/svg" xmlns:xlink="http://www.w3.org/1999/xlink" x="0px" y="0px"
	 viewBox="0 0 992 250" style="enable-background:new 0 0 992 250;" width="992" height="250"  xml:space="preserve">
<style type="text/css">
	.st0{fill:#061133;stroke:#FFFFFF;stroke-width:3;stroke-miterlimit:10;}
	.st1{fill:#FFC200;}
	.st2{fill:#FFFFFF;}
	.st3{fill:#032D44;}
	.st4{fill:#E50000;}
	.st5{fill:#004F49;}
	.st6{opacity:0.35;fill:#FFFFFF;enable-background:new    ;}
	.st7{opacity:0.48;}
</style>
<path class="st0" d="M946.3,198H452.5c-5.9,0-10.6-4.7-10.6-10.6V107c0-5.9,4.7-10.6,10.6-10.6h493.9c5.9,0,10.6,4.7,10.6,10.6v80.5
	C956.9,193.3,952.2,198,946.3,198z"/>
<g>
	<g>
		<g>
			<g>
				<path class="st1" d="M700.9,179.2H479.6c-3.9,0-7.5-3.4-7.5-7.5v-48.1c0-3.9,3.4-7.5,7.5-7.5H701c3.9,0,7.5,3.4,7.5,7.5v48.1
					C708.6,175.8,705.2,179.2,700.9,179.2z"/>
				<path class="st2" d="M700.9,180.7H479.6c-5,0-9.4-4.2-9.4-9.4v-47.8c0-5,4.2-9.4,9.4-9.4H701c5,0,9.4,4.2,9.4,9.4v48.1
					C710.2,176.8,706.2,180.7,700.9,180.7z M479.6,117.8c-3.2,0-5.8,2.6-5.8,5.8v48.1c0,3.2,2.6,5.8,5.8,5.8H701
					c3.2,0,5.8-2.6,5.8-5.8v-48.1c0-3.2-2.6-5.8-5.8-5.8C701,117.8,479.6,117.8,479.6,117.8z"/>
			</g>
		</g>
	</g>
	<g>
		<path class="st3" d="M514.9,160c-0.5,0.3-1.3,0.5-1.8,0.8c-0.8,0.3-1.8,0.3-2.9,0.5c-0.8,0-2.1,0.3-3.2,0.3h-14.5
			c-3.4,0-5.8-0.8-7.5-2.6c-1.8-1.8-2.6-4.4-2.6-7.9v-4.4v-0.8h0.8h3.9h0.8v0.8v4.4c0,1.8,0.3,2.9,1.3,3.7c0.8,0.8,2.1,1.3,3.7,1.3
			h15.6c-0.8-1.3-1.3-2.9-1.3-4.7c0-1.3,0.3-2.4,0.5-3.4c0.3-0.8,0.8-1.8,1.8-2.9c1.8-1.5,3.7-2.4,6.1-2.4s4.4,0.8,6.1,2.4
			c0.8,0.8,1.3,1.8,1.8,2.9c0.3,0.8,0.5,2.4,0.5,3.4c0,1.8-0.3,3.4-1.3,4.7h3.4c0.3,0,0.3,0,0.5,0c0.3,0,0.3,0.3,0.3,0.3
			c0,0.3,0.3,0.3,0.3,0.3s0,0.3,0,0.5c0,0.3,0,0.3,0,0.3v0.3c0,0,0,0,0,0.3v0.3c0,0,0,0,0,0.3s0,0.3,0,0.5c0,0,0,0.3,0,0.5
			c0,0.3,0,0.3,0,0.5c0,0,0,0.3-0.3,0.3c0,0.3-0.3,0.3-0.3,0.3c-0.3,0-0.3,0-0.5,0H523C519.7,161.6,517.3,160.9,514.9,160z
			 M511.6,134.9l1.8-1.8c0.5-0.5,1.3-0.8,1.8,0l2.4,2.1c0.5,0.5,0.5,1.3,0,1.8l-1.8,1.8c-0.5,0.5-1.3,0.5-1.8,0l-2.1-2.4
			C510.7,136.2,510.7,135.5,511.6,134.9z M511.6,151.4c0,0.8,0.3,1.5,0.8,2.4c0.5,0.5,1.3,0.8,2.4,0.8c1.3,0,1.8-0.3,2.4-0.8
			c0.5-0.5,0.8-1.3,0.8-2.4c0-1.1-0.3-1.5-0.8-2.4c-0.3-0.3-0.5-0.5-0.8-0.8s-0.8-0.3-1.3-0.3c-0.3,0-0.8,0-1.3,0.3
			c-0.3,0.3-0.8,0.3-0.8,0.8c-0.3,0.3-0.5,0.5-0.8,0.8c0,0.3,0,0.3-0.3,0.5C511.6,150.9,511.6,150.9,511.6,151.4z"/>
		<path class="st3" d="M544.6,161.6h-0.3c-2.9,0-5.2-0.8-6.8-2.4c-1.8,1.8-4.4,2.4-7.9,2.4h-3.9c-0.5,0-1.1-0.3-1.3-0.8
			c-0.3-0.3-0.3-1.1-0.3-1.8v-0.3c0-0.8,0-1.3,0.3-1.8c0.3-0.8,0.8-0.8,1.5-0.8h3.9c1.1,0,2.1,0,2.9-0.3c0.8-0.3,1.3-0.5,1.5-1.1
			c0.3-0.3,0.3-1.1,0.3-1.8v-5.7v-0.5h0.8h3.9h0.8v0.8v5.8c0,1.3,0.3,2.1,0.8,2.6s1.8,0.8,3.2,0.8h0.3c0.3,0,0.5,0,0.8,0.3
			s0.3,0.3,0.3,0.5c0.3,0.3,0,0.5,0,0.8s0,0.3,0,0.8c0,0,0,0,0,0.3v0.3c0,0,0,0,0,0.3s0,0.3,0,0.3v0.3v0.3c0,0,0,0.3-0.3,0.3
			c0,0.3-0.3,0.3-0.3,0.3L544.6,161.6C545,161.6,544.7,161.6,544.6,161.6z M525.7,167.9l1.8-1.8c0.5-0.5,1.3-0.5,1.8,0l2.1,2.1
			c0.5,0.5,0.5,1.3,0,1.8l-1.8,1.8c-0.5,0.5-1.3,0.5-1.8,0l-2.1-2.1C524.9,169.1,524.9,168.8,525.7,167.9z M533.5,167.9l1.8-1.8
			c0.5-0.5,1.3-0.5,1.8,0l2.1,2.1c0.5,0.5,0.5,1.3,0,1.8l-1.8,1.8c-0.5,0.5-1.3,0.5-1.8,0l-2.4-2.1
			C532.7,169.1,533.1,168.8,533.5,167.9z"/>
		<path class="st3" d="M567.2,161.6h-2.9c-1.3,0-2.9-0.3-3.9-0.3c-1.1,0-2.4-0.5-3.7-1.3c-2.4,1.1-5.2,1.8-7.9,1.8h-3.9
			c-0.5,0-1.1-0.3-1.3-0.8c-0.3-0.3-0.3-1.1-0.3-1.8v-0.3c0-0.8,0.3-1.3,0.3-1.8c0.3-0.3,0.8-0.8,1.3-0.8h5
			c-0.8-1.3-1.3-2.9-1.3-4.7c0-2.4,0.8-4.4,2.4-6.1c1.8-1.5,3.7-2.4,6.1-2.4c2.4,0,4.4,0.8,6.1,2.4c0.3,0.3,0.8,0.8,0.8,1.3
			c0.3,0.5,0.5,0.8,0.8,1.3c0.3,0.3,0.3,0.8,0.3,1.5s0.3,1.1,0.3,1.8c0,0.8,0,1.8-0.3,2.4c-0.3,0.8-0.5,1.5-0.8,2.4h3.4
			c0.3,0,0.3,0,0.5,0s0.3,0.3,0.3,0.3c0,0.3,0.3,0.3,0.3,0.3s0,0.3,0,0.5c0,0.3,0,0.3,0,0.3v0.3c0,0,0,0,0,0.3v0.3c0,0,0,0,0,0.3
			s0,0.3,0,0.3v0.3c0,0.3,0,0.3,0,0.3v0.3c0,0.3,0,0.3-0.3,0.3l-0.3,0.3l-0.3,0.3C567.5,161.6,567.2,161.6,567.2,161.6z
			 M553.1,134.9l1.8-1.8c0.5-0.5,1.3-0.8,1.8,0l2.4,2.1c0.5,0.5,0.5,1.3,0,1.8l-1.8,1.8c-0.5,0.5-1.3,0.5-1.8,0l-2.1-2.4
			C552.7,136.2,552.7,135.5,553.1,134.9z M553.1,151.4c0,0.8,0.3,1.5,0.8,2.4c0.8,0.8,1.3,0.8,2.4,0.8c1.1,0,1.8-0.3,2.4-0.8
			c0.5-0.5,0.8-1.3,0.8-2.4c0-1.1-0.3-1.5-0.8-2.4c-0.3-0.3-0.5-0.5-0.8-0.8s-0.8-0.3-1.3-0.3c-0.3,0-0.8,0-1.3,0.3
			c-0.3,0.3-0.8,0.3-0.8,0.8l-0.3,0.3l-0.3,0.3c0,0,0,0.3-0.3,0.3v0.3v0.3C553.1,150.9,553.1,150.9,553.1,151.4z"/>
		<path class="st3" d="M586.6,157.7l-1.8,0.8c-3.4,1.8-6.8,2.6-10.7,2.6h-6.7c-0.5,0-1.1-0.3-1.3-0.8c-0.3-0.5-0.3-1.1-0.3-1.8v-0.3
			c0-0.8,0-1.3,0.3-1.8c0.3-0.8,0.8-0.8,1.5-0.8h6.5c1.5,0,2.9-0.3,4.4-0.3c1.3-0.3,2.6-0.8,3.9-1.3l5-2.4l-2.9-1.8
			c-1.8-0.8-3.4-1.5-5.2-1.5c-1.5,0-2.9,0.5-4.7,1.8l-1.5,1.3l-0.5,0.3l-0.3-0.5l-2.4-2.9l-0.5-0.5l0.5-0.3l1.3-1.1
			c2.4-1.8,5-3.2,7.5-3.4c2.4-0.3,5.2,0.3,7.9,1.8l3.9,2.4c0.3,0.3,0.8,0.3,1.3,0.8c0.3,0.3,0.8,0.3,1.3,0.3c0.3,0,0.8,0.3,1.1,0.3
			h0.5v0.5v3.9v0.3l-0.3,0.3l-2.4,1.3c0.8,0.3,1.8,0.8,2.9,0.8h2.6c0.3,0,0.5,0,0.8,0.3s0.3,0.3,0.3,0.5c0,0.4,0,0.5,0,0.8
			s0,0.3,0,0.8c0,0,0,0,0,0.3v0.3c0,0.5,0,1.3-0.3,1.5c-0.3,0.5-0.5,0.8-1.1,0.8h-2.4c-1.5,0-2.9-0.3-4.4-0.8
			C588.4,160,587.1,158.9,586.6,157.7z M576.4,134.5l1.8-1.8c0.5-0.5,1.3-0.8,1.8,0l2.4,2.1c0.5,0.5,0.5,1.3,0,1.8l-1.8,1.8
			c-0.5,0.5-1.3,0.5-1.8,0l-2.1-2.4C575.6,135.5,575.6,134.9,576.4,134.5z"/>
		<path class="st3" d="M596.5,161.6c-0.5,0-1.1-0.3-1.3-0.8c-0.3-0.3-0.3-1.1-0.3-1.8v-0.3c0-0.8,0.3-1.3,0.3-1.8
			c0.3-0.3,0.8-0.8,1.3-0.8h5.2c1.3,0,2.4-0.3,2.9-0.8s0.8-1.3,0.8-2.6v-6.3v-0.8h0.8h3.7h0.8v0.8v6.3c0,2.9-0.8,5.2-2.4,6.5
			c-1.5,1.4-3.7,2.4-6.5,2.4L596.5,161.6L596.5,161.6L596.5,161.6z M597.3,136.9l1.8-1.8c0.5-0.5,1.3-0.5,1.8,0l2.1,2.1
			c0.5,0.5,0.5,1.3,0,1.8l-1.8,1.8c-0.5,0.5-1.3,0.5-1.8,0l-2.1-2.1C596.8,138,596.8,137.6,597.3,136.9z M605.1,136.9l1.8-1.8
			c0.5-0.5,1.3-0.5,1.8,0l2.1,2.1c0.5,0.5,0.5,1.3,0,1.8l-1.8,1.8c-0.5,0.5-1.3,0.5-1.8,0l-2.4-2.1
			C604.7,138,604.7,137.6,605.1,136.9z"/>
		<path class="st3" d="M620.7,134.9c0-1.3,0.3-2.4,1.5-3.2c0.8-0.8,2.1-1.3,3.4-1.3c1.3,0,2.4,0.3,3.4,1.3c0.3,0.3,0.3,0.3,0.5,0.5
			c0.4,0.4,0.3,0.5,0.3,0.8c0.3,0.3,0.3,0.5,0.3,0.8c0.3,0.3,0.3,0.5,0.3,0.8s0,0.8-0.3,1.1c0,0.3-0.3,0.3-0.3,0.3
			c0,0.3-0.3,0.3-0.3,0.3c-0.3,0.3-0.3,0.3-0.3,0.3c-0.3,0.3-0.3,0.5-0.8,0.8c-0.8,0.8-2.1,1.3-3.4,1.3c-1.3,0-2.4-0.3-3.4-1.3
			c-0.3-0.3-0.8-0.8-1.1-1.5C620.7,136.2,620.7,135.8,620.7,134.9z M639.5,129.3l3.9,2.1l0.8,0.3l-17.7,31.1l-0.8-0.3l-3.7-2.1
			l-0.8-0.3l17.7-30.8C638.7,129.3,639.5,129.3,639.5,129.3z M635.8,155.1L635.8,155.1L635.8,155.1v-0.3v-0.3v-0.3V154
			c0-0.3,0-0.3,0.3-0.3c0-0.3,0-0.3,0-0.3v-0.3c0-0.3,0.3-0.3,0.3-0.3l0.3-0.3c0-0.3,0-0.3,0.3-0.3c0.3-0.3,0.3-0.3,0.3-0.3l0.3-0.3
			l0.3-0.3l0.3-0.3l0.3-0.3c0.3-0.3,0.3-0.3,0.3-0.3c0.8-0.8,2.1-1.3,3.4-1.3c0.3,0,0.8,0.3,1.1,0.3s0.3,0.3,0.5,0.3
			c0.3,0,0.3,0.3,0.3,0.3s0.3,0,0.3,0.3c0.3,0,0.3,0.3,0.3,0.3c0.3,0.3,0.5,0.3,0.8,0.8c0.8,0.8,1.5,2.1,1.5,3.2
			c0,1.1-0.3,2.4-1.5,3.2c-0.3,0.3-0.8,0.8-1.5,0.8c-0.5,0.3-1.1,0.3-1.8,0.3c-1.3,0-2.4-0.3-3.4-1.3
			C636.6,157.5,635.8,156.1,635.8,155.1z"/>
	</g>
	<g>
		<path class="st3" d="M669.4,147c-1.2,0-2.2-0.1-3.3-0.4c-1.1-0.2-2.1-0.5-3.1-1.1c0.2,1.6,0.4,3.3,0.5,4.8s0.2,3.1,0.3,4.5
			c0.1,1.5,0.1,2.9,0.1,4.3c0,1.4,0,2.7,0,4.1h-7.1c0-3.2-0.1-6.3-0.2-9.3c-0.1-3.1-0.4-6-0.8-8.8c-0.5-2.8-1-5.5-1.7-8
			c-0.8-2.5-1.7-4.7-3.1-6.6l6.1-3.8c0.5,0.9,1,1.5,1.4,2.4c0.5,0.7,0.8,1.5,1.2,2.2c0.5-0.9,1.3-1.5,2-2.2c0.8-0.6,1.5-1.2,2.5-1.5
			c0.9-0.5,1.7-0.7,2.7-0.9c1-0.2,1.9-0.3,2.9-0.3c0.7,0,1.3,0.1,2,0.2s1.3,0.3,2,0.5c0.7,0.3,1.3,0.5,2,1c0.7,0.4,1.3,0.9,2,1.5
			l-3.7,5.9c0,0-0.2-0.1-0.5-0.3s-0.6-0.4-1.2-0.6c-0.5-0.2-1.1-0.5-1.7-0.6c-0.7-0.2-1.4-0.3-2.2-0.3c-0.7,0-1.3,0.1-2,0.4
			c-0.7,0.3-1.3,0.5-1.8,1c-0.5,0.4-1,0.8-1.3,1.3s-0.5,0.9-0.4,1.3l0,0c0.1,0.5,0.4,0.9,0.8,1.3c0.5,0.4,1,0.5,1.6,0.7
			c0.7,0.2,1.3,0.4,1.9,0.4c0.7,0.1,1.3,0.1,1.8,0.1s1.2,0,1.7-0.1c0.6-0.1,1.3-0.2,1.9-0.4c0.6-0.2,1.3-0.4,1.9-0.6
			c0.6-0.3,1.3-0.5,1.7-0.9l3,5.6c-1.8,1.3-3.6,2.3-5.4,2.7C672.6,146.8,670.9,147,669.4,147z"/>
		<path class="st3" d="M680.4,149.1c0-1.3,0.3-2.3,0.7-3.5c0.5-1.1,1.1-2,1.8-2.8c0.8-0.8,1.6-1.4,2.7-1.8c1.1-0.5,2.2-0.7,3.5-0.7
			s2.3,0.3,3.5,0.7c1.1,0.5,2,1.1,2.8,1.8c0.8,0.8,1.4,1.7,1.8,2.8s0.7,2.2,0.7,3.5s-0.3,2.4-0.7,3.5c-0.5,1.1-1.1,1.9-1.8,2.7
			c-0.8,0.8-1.7,1.4-2.8,1.8c-1.1,0.5-2.2,0.7-3.5,0.7s-2.4-0.3-3.5-0.7c-1.1-0.5-1.9-1.1-2.7-1.8c-0.8-0.8-1.4-1.6-1.8-2.7
			C680.7,151.5,680.4,150.4,680.4,149.1z M685.7,149.1c0,0.5,0.1,1,0.3,1.3c0.2,0.5,0.5,0.8,0.7,1.2c0.4,0.4,0.7,0.5,1.2,0.7
			s0.9,0.3,1.3,0.3c0.5,0,1-0.1,1.3-0.3c0.5-0.2,0.8-0.5,1.2-0.7c0.4-0.4,0.5-0.7,0.8-1.2c0.2-0.5,0.3-0.9,0.3-1.3s-0.1-1-0.3-1.3
			c-0.2-0.5-0.5-0.8-0.8-1.2c-0.4-0.4-0.7-0.5-1.2-0.8c-0.5-0.2-0.9-0.3-1.3-0.3c-0.5,0-1,0.1-1.3,0.3c-0.5,0.2-0.8,0.5-1.2,0.8
			c-0.4,0.4-0.5,0.7-0.7,1.2S685.7,148.7,685.7,149.1z"/>
	</g>
</g>
<g>
	<g>
		<g>
			<path class="st4" d="M415,198.2H176.6c-7.9,0-14.4-6.4-14.4-14.4v-73.3c0-7.9,6.4-14.4,14.4-14.4H415c7.9,0,14.4,6.4,14.4,14.4
				v73.3C429.4,191.8,423,198.2,415,198.2z"/>
			<path class="st2" d="M415,199.7H176.6c-8.7,0-15.8-7.2-15.8-15.8v-73.3c0-8.7,7.2-15.8,15.8-15.8H415c8.7,0,15.9,7.2,15.9,15.8
				v73.3C430.8,192.7,423.9,199.7,415,199.7z M176.6,97.6c-7.2,0-13,5.8-13,13v73.3c0,7.2,5.8,13,13,13H415c7.2,0,13-5.7,13-13
				v-73.3c0-7.2-5.8-13-13-13C415,97.6,176.6,97.6,176.6,97.6z"/>
		</g>
		<g>
			<path class="st2" d="M212.2,160.2h-0.4c-3.3,0-6.1-1.4-8.8-4.1c-1.7,2.6-5.4,4.1-10.8,4.1h-10.3H181v-0.8v-5v-0.9h0.9H192
				c0.1,0,0.3,0,0.5,0c0.1,0,0.3,0,0.4,0c1.1,0,1.8-0.1,2.6-0.3c0.6-0.1,1.4-0.3,1.5-0.5c0.4-0.3,0.6-0.5,0.8-0.8
				c0.1-0.3,0.3-0.5,0.3-0.9c0-0.5-0.3-1.3-0.6-1.8c-0.3-0.4-0.5-0.8-0.8-1.4c-0.4-0.4-0.6-0.9-1.3-1.4l-7.4-8.7l-0.5-0.6l0.5-0.6
				l3.4-3.7l0.8-0.8l0.6,0.9l14.8,17.7c1.5,1.9,3.2,2.8,4.4,2.8h0.3c0.4,0,0.6,0.1,0.9,0.3c0.3,0.1,0.4,0.5,0.5,0.8
				c0.1,0.4,0.1,0.6,0.1,0.9c0,0.3,0,0.5,0,1.1c0,0.1,0,0.1,0,0.1v0.3c0,0.9,0,1.5-0.1,2c0,0.3-0.1,0.4-0.3,0.5
				c-0.1,0.1-0.3,0.3-0.4,0.5C212.7,160.1,212.5,160.2,212.2,160.2z"/>
			<path class="st2" d="M235.8,160.2h-0.6c-3.8,0-6.6-1.1-8.4-3.2c-2,2-5.4,3.2-9.8,3.2h-5c-0.8,0-1.4-0.3-1.8-0.9s-0.6-1.4-0.6-2.3
				v-0.2c0-0.9,0.1-1.7,0.5-2.2c0.4-0.6,1.1-1.1,1.9-1.1h5.1c1.4,0,2.6-0.1,3.6-0.5s1.5-0.8,1.9-1.4c0.4-0.6,0.6-1.4,0.6-2.4v-7.1
				v-1h0.9h4.8h0.9v0.9v7.1c0,1.5,0.4,2.6,1.3,3.4c0.8,0.6,2.2,1.1,4.1,1.1h0.6c0.4,0,0.6,0.1,0.9,0.3c0.3,0.1,0.4,0.5,0.5,0.8
				c0.1,0.4,0.1,0.6,0.1,0.9c0,0.3,0,0.5,0,1.1c0,0.1,0,0.1,0,0.1v0.3c0,0,0,0.1,0,0.3c0,0.3,0,0.4,0,0.5s0,0.3,0,0.5
				c0,0.3,0,0.4-0.1,0.6c0,0.1-0.1,0.4-0.1,0.5c-0.1,0.1-0.1,0.4-0.3,0.4c-0.1,0.1-0.3,0.3-0.4,0.3
				C236.3,160.2,235.9,160.2,235.8,160.2z M212.1,168.4l2.4-2.4c0.8-0.8,1.5-0.9,2.2-0.1l2.6,2.6c0.8,0.8,0.8,1.5,0,2.3l-2.4,2.4
				c-0.8,0.8-1.5,0.8-2.3,0l-2.6-2.6C211.3,169.8,211.3,169,212.1,168.4z M221.9,168.4l2.4-2.4c0.8-0.8,1.5-0.9,2.3-0.1l2.6,2.6
				c0.8,0.8,0.8,1.5,0,2.3l-2.4,2.4c-0.8,0.8-1.5,0.8-2.3,0l-2.7-2.6C221.1,169.8,221.1,169,221.9,168.4z"/>
			<path class="st2" d="M258.5,160.2H258c-3.8,0-6.6-1.1-8.4-3.2c-2.2,2-5.4,3.2-9.8,3.2h-4.2c-0.8,0-1.4-0.3-1.8-0.9
				s-0.6-1.4-0.6-2.3v-0.2c0-0.9,0.1-1.7,0.5-2.2c0.4-0.6,1.1-1.1,1.9-1.1h4.3c2.2,0,3.7-0.4,4.6-1.1c0.9-0.6,1.4-1.8,1.4-3.3V142
				v-0.9h0.9h4.8h0.9v0.9v7.1c0,1.5,0.4,2.6,1.3,3.4c0.8,0.6,2.2,1.1,4.1,1.1h0.6c0.4,0,0.6,0.1,0.9,0.3c0.3,0.1,0.4,0.5,0.5,0.8
				c0.1,0.4,0.1,0.6,0.1,0.9c0,0.3,0,0.5,0,1.1c0,0.1,0,0.1,0,0.1v0.3c0,0,0,0.1,0,0.3c0,0.1,0,0.3,0,0.4c0,0.1,0,0.3,0,0.4
				s0,0.4,0,0.5s0,0.3-0.1,0.4c0,0.1-0.1,0.3-0.1,0.4c0,0.1-0.1,0.3-0.1,0.4c-0.1,0.1-0.1,0.3-0.3,0.3c-0.1,0.1-0.3,0.1-0.4,0.1
				C258.7,160.2,258.6,160.2,258.5,160.2z M243,129.6l2.4-2.4c0.9-0.9,1.7-0.9,2.4-0.1l2.7,2.6c0.8,0.8,0.8,1.7-0.1,2.4l-2.4,2.4
				c-0.8,0.8-1.7,0.8-2.4,0l-2.6-2.7C242.3,131.2,242.3,130.4,243,129.6z"/>
			<path class="st2" d="M258.2,160.2c-0.8,0-1.4-0.3-1.8-0.9c-0.4-0.6-0.6-1.4-0.6-2.3v-0.2c0-0.9,0.1-1.7,0.5-2.2
				c0.4-0.6,1.1-1.1,1.9-1.1h9c2,0,3.7-0.3,4.5-0.6c0.9-0.5,1.4-1.3,1.4-1.9c0-0.1,0-0.3-0.1-0.5c-0.1-0.3-0.3-0.5-0.5-0.9
				c-0.3-0.4-0.5-0.8-0.9-1.4c-0.4-0.5-0.8-1.1-1.4-1.5l-8.9-10.1c-1.1-1.3-1.5-2.6-1.5-4.4c0-0.6,0.1-1.3,0.3-1.8
				c0.1-0.5,0.4-1.1,0.8-1.4c0.4-0.4,0.8-0.8,1.3-1.3c0.5-0.4,1.1-0.6,1.5-0.8l17.1-5.6l1.4-0.4v1.4v5v0.6l-0.6,0.3l-14.2,4.6
				l7.5,8.8c3.2,3.7,4.8,7,4.8,9.7c0,3.2-1.1,5.5-3.2,7.1c-2,1.5-5.2,2.3-9.3,2.3h-9v-0.3h-0.1L258.2,160.2L258.2,160.2z"/>
			<path class="st2" d="M323.1,160.2h-19.9c-4.2,0-7.4-1.3-9.6-3.4c-2.2-2.2-3.3-5.5-3.3-9.8v-5.5v-0.9h0.9h4.8h0.9v0.9v5.5
				c0,2,0.5,3.7,1.5,4.6c0.5,0.5,1.3,0.9,1.8,1.3c0.8,0.3,1.7,0.4,2.7,0.4h19.8c2,0,3.7-0.3,4.5-0.8s1.4-1.3,1.4-2
				c0-0.3-0.3-0.8-0.6-1.5c-0.5-0.8-1.3-1.7-2-2.7l-8.9-10.1c-0.5-0.5-0.9-1.4-1.3-1.9c-0.3-0.8-0.4-1.5-0.4-2.3
				c0-0.9,0.1-1.7,0.5-2.3c0.3-0.6,0.8-1.4,1.4-1.8c0.6-0.5,1.4-0.9,2-1.3l17.1-5.6l1.4-0.4v1.4v5v0.6l-0.6,0.1l-14.4,4.6l14.8,17
				c2.2,2.6,4.2,3.9,5.7,3.9h0.6c0.4,0,0.6,0.1,0.9,0.3c0.3,0.1,0.4,0.5,0.5,0.9s0.1,0.6,0.1,0.9s0,0.5,0,0.9c0,0.1,0,0.1,0,0.1v0.3
				c0,0,0,0.1,0,0.3c0,0.3,0,0.5,0,0.6s0,0.4,0,0.6c0,0.3,0,0.5-0.1,0.6s-0.1,0.4-0.3,0.5c-0.1,0.1-0.3,0.3-0.4,0.4
				c-0.1,0.1-0.4,0.1-0.6,0.1h-0.4c-3.7,0-6.9-1.5-9.4-4.6c-0.3,0.5-0.5,0.9-0.9,1.4c-0.4,0.4-0.8,0.8-1.3,1.1
				c-0.4,0.3-0.9,0.6-1.4,0.9c-0.6,0.3-1.1,0.5-1.5,0.6c-0.5,0.1-1.3,0.4-1.8,0.5c-0.6,0.1-1.4,0.3-2,0.3
				C324.6,160.2,323.9,160.2,323.1,160.2z"/>
			<path class="st2" d="M367.7,160.2h-0.5c-3.8,0-6.6-1.1-8.4-3.2c-2,2-5.4,3.2-9.8,3.2h-5c-0.8,0-1.4-0.3-1.8-0.9
				c-0.4-0.6-0.6-1.4-0.6-2.3v-0.2c0-0.9,0.1-1.7,0.5-2.2c0.4-0.6,1.1-1.1,1.9-1.1h5.1c1.4,0,2.6-0.1,3.6-0.5
				c0.9-0.4,1.5-0.8,1.9-1.4c0.4-0.6,0.6-1.4,0.6-2.4v-7.1v-1h0.9h4.8h0.9v0.9v7.1c0,1.5,0.4,2.6,1.3,3.4c0.8,0.6,2.2,1.1,4.1,1.1
				h0.6c0.4,0,0.6,0.1,0.9,0.3c0.3,0.1,0.4,0.5,0.5,0.8c0.1,0.4,0.1,0.6,0.1,0.9c0,0.3,0,0.5,0,1.1c0,0.1,0,0.1,0,0.1v0.3
				c0,0,0,0.1,0,0.3c0,0.3,0,0.4,0,0.5s0,0.3,0,0.5c0,0.3,0,0.4-0.1,0.6c0,0.1-0.1,0.4-0.1,0.5c-0.1,0.1-0.1,0.4-0.3,0.4
				c-0.1,0.1-0.3,0.3-0.4,0.3C368.1,160.2,367.9,160.2,367.7,160.2z M344,168.4l2.4-2.4c0.8-0.8,1.5-0.9,2.2-0.1l2.6,2.6
				c0.8,0.8,0.8,1.5,0,2.3l-2.4,2.4c-0.8,0.8-1.5,0.8-2.3,0l-2.6-2.6C343.2,169.8,343.2,169,344,168.4z M353.7,168.4l2.4-2.4
				c0.8-0.8,1.5-0.9,2.3-0.1l2.6,2.6c0.8,0.8,0.8,1.5,0,2.3l-2.4,2.4c-0.8,0.8-1.5,0.8-2.3,0l-2.7-2.6
				C352.9,169.8,352.9,169,353.7,168.4z"/>
			<path class="st2" d="M386.9,160.2h-1.4c-3.2,0-5.7-1.1-7.8-3.2c-1.9,2-4.5,3.2-7.7,3.2h-2.7c-0.8,0-1.4-0.3-1.8-0.9
				c-0.4-0.6-0.5-1.4-0.5-2.3v-0.2c0-0.9,0.1-1.7,0.5-2.2c0.4-0.6,1.1-1.1,1.9-1.1h2.6c0.8,0,1.5-0.1,2-0.3c0.5-0.1,1.1-0.4,1.4-0.8
				s0.6-0.8,0.8-1.4c0.1-0.5,0.3-1.3,0.3-1.8v-24.5v-1h0.9h4.5h0.9v0.9v24.6c0,1.4,0.4,2.4,1.3,3.2c0.8,0.6,1.9,1.1,3.8,1.1h1.1
				c0.4,0,0.6,0.1,0.9,0.3c0.3,0.3,0.4,0.5,0.5,0.9s0.1,0.6,0.1,0.9c0,0.3,0,0.5,0,1.1c0,0.1,0,0.1,0,0.1v0.3v0.1c0,0.3,0,0.5,0,0.6
				s0,0.4,0,0.6c0,0.3,0,0.5-0.1,0.6s-0.1,0.4-0.3,0.5c-0.1,0.1-0.3,0.3-0.5,0.4C387.4,160.2,387.2,160.2,386.9,160.2z"/>
			<path class="st2" d="M386.5,160.2c-0.8,0-1.4-0.3-1.8-0.9c-0.4-0.6-0.6-1.4-0.6-2.3v-0.2c0-0.9,0.1-1.7,0.5-2.2
				c0.4-0.6,1.1-1.1,1.9-1.1h9c2,0,3.7-0.3,4.5-0.6c0.9-0.5,1.4-1.3,1.4-1.9c0-0.1,0-0.3-0.1-0.5c-0.1-0.3-0.3-0.5-0.5-0.9
				c-0.3-0.4-0.5-0.8-0.9-1.4c-0.4-0.5-0.8-1.1-1.4-1.5l-8.9-10.1c-1.1-1.3-1.5-2.6-1.5-4.4c0-0.6,0.1-1.3,0.3-1.8
				c0.1-0.5,0.4-1.1,0.8-1.4c0.4-0.4,0.8-0.8,1.3-1.3c0.5-0.4,1.1-0.6,1.5-0.8l17.1-5.6l1.4-0.4v1.4v5v0.6l-0.6,0.3l-14.2,4.6
				l7.5,8.8c3.2,3.7,4.8,7,4.8,9.7c0,3.2-1.1,5.5-3.2,7.1c-2,1.5-5.2,2.3-9.3,2.3h-8.9v-0.3h-0.2v-0.2L386.5,160.2L386.5,160.2z"/>
		</g>
	</g>
	<g>
		<path class="st5" d="M136.1,197.5H48.2c-7.3,0-13.2-5.9-13.2-13.2v-74.6c0-7.3,5.9-13.2,13.2-13.2h87.9c7.3,0,13.2,5.9,13.2,13.2
			v74.6C149.3,191.6,143.4,197.5,136.1,197.5z"/>
		<path class="st2" d="M136.1,199.1H48.2c-8.1,0-14.7-7-14.7-15.7v-72.9c0-8.6,6.6-15.7,14.7-15.7h87.9c8.1,0,14.7,7,14.7,15.7v72.9
			C150.8,192.1,144.2,199.1,136.1,199.1z M48.2,98.1c-6.5,0-11.7,5.6-11.7,12.5v72.8c0,6.9,5.3,12.5,11.7,12.5h87.9
			c6.5,0,11.7-5.6,11.7-12.5v-72.9c0-6.9-5.3-12.5-11.7-12.5L48.2,98.1L48.2,98.1z"/>
	</g>
	<g>
		<g>
			<path class="st2" d="M70.8,172.8c0.6,1,1.1,1.9,1.5,3c0.3,0.6,0.5,1.8,1.9,1.8c0.4,0,1-0.1,1.6-0.4c0.6-0.3,1.1-0.8,1.3-1.5
				l0.6-1.9l1.4-0.7l0.1,0.1c-0.2,0.7-0.2,1.4-0.2,2c0,1.6,1.4,2.2,2.5,2.2c0.6,0,1.2-0.3,1.2-0.9c0-0.8-0.3-2.1-0.7-3.2
				c0.6-0.6,1.3-1.3,2-1.8v-0.1c0.3,1.4,0.5,2.7,0.5,3.6c0,0.9-0.4,1.9-0.7,2.5c-0.7,1.3-1.9,2.3-3.3,2.3c-1.1,0-2.3-0.6-3.1-1.6
				l0,0c-0.8,1-2,1.8-3.9,1.8h-0.6c-0.1,1.3-0.4,2.2-0.8,3c-1.2,2.3-4.6,3.9-7.8,3.9c-4.5,0-6.7-2.6-6.7-6c0-2.1,0.7-4.1,1.8-5.5
				l0.9,0.4c-0.7,1.3-1.1,2.5-1.1,3.7c0,3.2,2.6,4.8,5.6,4.8c2.8,0,6.3-1.8,6.9-3.9c-0.2-2.3-1.1-3.3-2.4-5.4
				c0.4-0.7,0.9-1.4,1.5-2.1l0,0V172.8z"/>
			<path class="st2" d="M87.5,170.4l1.6,2.7c0.6,1,1.2,2,1.2,3.7v2.2c0,1.8-1.1,3.6-2.9,5.5c-1.4,1.3-2.7,1.8-3.8,1.8
				c-1.7,0-3.7-0.5-6-1.5l0.3-0.7c0.7,0.2,1.6,0.4,2.6,0.4c3.3,0,6.6-2.4,8.1-5.3c0.2-0.3,0.3-0.6,0.3-0.9c0-0.3-0.2-0.7-0.3-1
				c-0.8-1.6-1.8-3-2.8-4.3c0.5-0.8,1.1-1.7,1.6-2.5L87.5,170.4z"/>
			<path class="st2" d="M92.3,175.2c0.1,1.7,0.9,3,3.8,3c1.8,0,3.3-0.5,5-1.3c0.3-0.1,0.5-0.3,0.5-0.5c0-1.1-0.8-2.5-2.2-3.7
				c-1.3-1.2-3.1-2.3-4.7-3c-0.6-0.2-0.7-0.5-0.7-0.7c0-0.5,0.6-1.5,1.2-2.2h0.2c1.9,1,4,2.4,5.5,4.1c1.4,1.5,2.3,3,2.3,4.7
				c0,1.2-0.4,2.4-1,3.4c-2.1,1-4.3,1.8-6.4,1.8c-2.6,0-4.4-1.2-4.4-4.2c0-0.3,0-0.8,0.1-1.4L92.3,175.2L92.3,175.2z"/>
			<path class="st2" d="M106.1,180.9c0.2-1.2,0.3-2.6,0.3-3.9v-1.9c0-3.6-0.5-8.8-0.8-12.2c0.6-0.7,1.6-1.5,2.3-2.1l0.2,0.1
				c0.5,4.3,0.6,9.3,0.6,13.9c0,1.2,0,2.4-0.2,3.2c-0.1,1.1-0.7,1.9-2,3.2L106.1,180.9z"/>
			<path class="st2" d="M112,173.8c1.3,2.7,2.5,4.3,5.2,4.3h0.4v2.5h-0.5c-1,0-1.8-0.2-2.3-0.6h-0.1c0,0.2,0,0.5,0,0.7
				c0,0.9-0.3,2.1-0.9,3.1c-1.8,2.7-3.8,3.9-5.5,3.9s-3.9-0.7-5.8-1.5l0.3-0.7c0.6,0.3,1.5,0.4,2.7,0.4c3.1,0,7.2-3,7.7-5.9
				c-0.1-0.2-0.3-0.6-0.6-0.9c-0.9-1.1-1.5-2-2-2.9c0.5-0.9,0.9-1.6,1.3-2.3L112,173.8z"/>
			<path class="st2" d="M122.5,160.6c0.9,0.6,1.9,1.3,2.8,2.1c-0.5,0.7-1.1,1.4-1.9,1.9c-0.9-0.7-1.8-1.4-2.7-2
				C121.3,161.9,121.9,161.3,122.5,160.6z M123,169.5c-1.5,0-2.8,1-2.8,1.8c0,1.6,3.1,2.1,6.7,2.1
				C126.5,171.4,124.9,169.5,123,169.5z M119.6,178c2,0,3.7-0.1,5-0.4c1.5-0.4,2.7-1.1,2.7-1.6c0-0.1,0-0.3,0-0.4
				c-0.8,0.1-1.8,0.1-2.6,0.1c-2.7,0-4.7-0.6-5.6-2.1c-0.2-0.4-0.3-0.9-0.3-1.4c0-1.5,0.6-2.9,1.7-3.9c0.9-0.8,1.9-1.3,3-1.3
				c1.9,0,3.4,1.5,4.4,3.9c0.6,1.3,1,2.8,1,4.7c0,1.3-0.3,2.3-1.1,3.1c-1.5,1.4-4.1,1.9-8.3,1.9h-1.9c-1.3,0-1.6-0.8-1.6-1.3
				s0.4-1.2,1.6-1.2h2C119.6,178.1,119.6,178,119.6,178z"/>
		</g>
		<g>
			<path class="st2" d="M92.7,147.3c0-0.5-0.5-1.2-1.2-1.7c-1.3-0.9-2.6-1.7-3.9-2.5c-0.7-0.4-1.2-0.3-1.3,0.1
				c-0.1,0.9-0.1,1.8-0.2,2.7c0,0.5,0.5,1.2,1.2,1.6c1.4,0.8,2.7,1.6,4,2.5c0.7,0.5,1.2,0.5,1.2,0C92.7,149.2,92.7,148.3,92.7,147.3
				z"/>
			<path class="st2" d="M85.1,147.8c0-0.5-0.5-1.2-1.2-1.5c-1.4-0.7-2.8-1.4-4.2-2c-0.7-0.3-1.4-0.2-1.4,0.3
				c-0.1,0.9-0.2,1.8-0.3,2.7c-0.1,0.5,0.5,1.1,1.3,1.4c1.5,0.6,2.9,1.3,4.4,2.1c0.7,0.4,1.4,0.3,1.4-0.2
				C85,149.6,85.1,148.7,85.1,147.8z"/>
			<path class="st2" d="M92.6,152.4c0-0.5-0.5-1.2-1.2-1.7c-1.3-0.9-2.7-1.7-4-2.5c-0.7-0.4-1.3-0.3-1.3,0.1
				c-0.1,0.9-0.1,1.8-0.2,2.7c0,0.5,0.5,1.2,1.3,1.6c1.4,0.8,2.8,1.6,4.2,2.5c0.7,0.5,1.3,0.5,1.3,0
				C92.6,154.2,92.6,153.3,92.6,152.4z"/>
			<path class="st2" d="M100,143.2c0-0.5-0.6-0.5-1.3-0.1c-1.3,0.8-2.6,1.6-3.9,2.5c-0.6,0.5-1.2,1.2-1.2,1.7c0,0.9,0,1.8,0,2.7
				c0,0.5,0.5,0.5,1.2,0c1.3-0.9,2.7-1.7,4-2.5c0.7-0.4,1.2-1.1,1.2-1.6C100.1,145.1,100,144.2,100,143.2z"/>
			<path class="st2" d="M100.3,148.3c0-0.5-0.6-0.5-1.3-0.1c-1.4,0.8-2.7,1.6-4,2.5c-0.7,0.5-1.2,1.2-1.2,1.7c0,0.9,0,1.8,0,2.7
				c0,0.5,0.6,0.5,1.3,0c1.4-0.9,2.8-1.7,4.2-2.5c0.7-0.4,1.3-1.1,1.3-1.6C100.4,150.1,100.3,149.2,100.3,148.3z"/>
			<path class="st2" d="M108.1,144.5c-0.1-0.5-0.7-0.6-1.4-0.3c-1.4,0.6-2.8,1.3-4.2,2c-0.7,0.4-1.3,1.1-1.2,1.5
				c0.1,0.9,0.1,1.8,0.2,2.7c0,0.5,0.6,0.5,1.4,0.2c1.4-0.7,2.9-1.4,4.4-2.1c0.8-0.3,1.3-1,1.3-1.4
				C108.3,146.3,108.2,145.4,108.1,144.5z"/>
			<path class="st6" d="M129.1,128.4c-0.2-0.4-0.8-0.8-1.5-0.7c-1.3,0.1-2.7,0.3-4,0.5c-0.7,0.1-1.1,0.6-1,1
				c0.2,0.9,0.5,1.8,0.7,2.6c0.1,0.5,0.8,0.7,1.5,0.6c1.4-0.2,2.8-0.4,4.2-0.6c0.7-0.1,1.2-0.5,1-0.9
				C129.7,130.2,129.4,129.3,129.1,128.4z M86.8,122.5c0-0.5-0.4-1.2-1-1.5c-1.1-0.7-2.2-1.4-3.3-2c-0.6-0.3-1.1-0.2-1.1,0.3
				c-0.1,0.9-0.2,1.8-0.3,2.7c-0.1,0.5,0.4,1.1,1,1.4c1.2,0.6,2.3,1.3,3.5,2c0.6,0.4,1.1,0.3,1.1-0.2
				C86.6,124.3,86.7,123.4,86.8,122.5z M62.4,134.2c0.1-0.5-0.4-0.9-1.1-1.1c-1.4-0.2-2.8-0.4-4.2-0.6c-0.7-0.1-1.4,0.2-1.6,0.7
				c-0.3,0.9-0.6,1.7-0.9,2.6c-0.2,0.4,0.3,0.9,1.1,0.9c1.4,0.2,2.9,0.4,4.3,0.6c0.7,0.1,1.4-0.1,1.6-0.6
				C61.9,136,62.2,135.1,62.4,134.2z M63.8,129.3c0.1-0.5-0.3-0.9-1-1c-1.3-0.2-2.7-0.4-4-0.5c-0.7-0.1-1.4,0.3-1.5,0.7
				c-0.3,0.9-0.6,1.7-0.9,2.6c-0.2,0.4,0.3,0.8,1,0.9c1.4,0.1,2.8,0.3,4.2,0.6c0.7,0.1,1.4-0.1,1.5-0.6
				C63.3,131.1,63.5,130.2,63.8,129.3z M65.1,124.4c0.1-0.5-0.3-0.9-0.9-1c-1.3-0.2-2.5-0.4-3.8-0.5c-0.6-0.1-1.3,0.3-1.5,0.7
				c-0.3,0.9-0.6,1.7-0.9,2.6c-0.2,0.4,0.3,0.8,0.9,0.9c1.3,0.1,2.7,0.3,4,0.5c0.7,0.1,1.3-0.1,1.5-0.6
				C64.7,126.2,64.9,125.3,65.1,124.4z M66.5,119.5c0.1-0.4-0.3-0.9-0.9-1c-1.2-0.2-2.4-0.3-3.6-0.4c-0.6,0-1.2,0.3-1.4,0.7
				c-0.3,0.9-0.6,1.7-0.9,2.6c-0.2,0.4,0.2,0.8,0.9,0.9c1.3,0.1,2.5,0.3,3.8,0.5c0.6,0.1,1.3-0.2,1.4-0.6
				C66,121.3,66.3,120.4,66.5,119.5z M67.9,114.6c0.1-0.5-0.2-0.9-0.8-1c-1.2-0.2-2.3-0.3-3.5-0.4c-0.6,0-1.2,0.3-1.3,0.7
				c-0.3,0.9-0.6,1.7-0.9,2.6c-0.2,0.4,0.2,0.8,0.8,0.9c1.2,0.1,2.4,0.2,3.6,0.4c0.6,0.1,1.2-0.2,1.3-0.6
				C67.4,116.4,67.6,115.5,67.9,114.6z M74.3,116.3c0.1-0.5-0.3-1-0.9-1.2c-1.1-0.4-2.3-0.7-3.4-0.9c-0.6-0.1-1.2,0.1-1.3,0.6
				c-0.2,0.9-0.5,1.8-0.7,2.6c-0.1,0.5,0.3,0.9,0.9,1.1c1.2,0.3,2.4,0.6,3.6,1c0.6,0.2,1.2,0,1.3-0.5
				C73.9,118.1,74.1,117.2,74.3,116.3z M72.2,126.2c0.1-0.5-0.4-1-1-1.2c-1.3-0.4-2.5-0.7-3.8-1c-0.6-0.1-1.3,0.1-1.4,0.6
				c-0.2,0.9-0.5,1.8-0.7,2.6c-0.1,0.5,0.3,0.9,1,1.1c1.3,0.3,2.6,0.7,4,1c0.7,0.2,1.3,0,1.4-0.5C71.9,128,72.1,127.1,72.2,126.2z
				 M79.2,129c0.1-0.5-0.4-1.1-1-1.4c-1.2-0.5-2.5-1-3.8-1.5c-0.6-0.2-1.2,0-1.3,0.4c-0.2,0.9-0.3,1.8-0.5,2.7
				c-0.1,0.5,0.4,1,1.1,1.2c1.3,0.5,2.6,1,3.9,1.5c0.7,0.3,1.3,0.1,1.3-0.3C79,130.8,79.1,129.9,79.2,129z M80.6,118.9
				c0.1-0.5-0.4-1.1-0.9-1.3c-1.1-0.5-2.3-1-3.4-1.4c-0.6-0.2-1.1,0-1.2,0.4c-0.2,0.9-0.3,1.8-0.5,2.7c-0.1,0.5,0.3,1,0.9,1.2
				c1.2,0.4,2.4,0.9,3.5,1.5c0.6,0.3,1.1,0.1,1.2-0.3C80.3,120.7,80.5,119.8,80.6,118.9z M107.5,139.4c-0.1-0.5-0.7-0.6-1.4-0.3
				c-1.4,0.6-2.7,1.3-4,2c-0.7,0.4-1.2,1.1-1.2,1.5c0.1,0.9,0.1,1.8,0.2,2.7c0,0.5,0.6,0.5,1.3,0.2c1.4-0.7,2.8-1.4,4.2-2
				c0.7-0.3,1.3-1,1.2-1.4C107.7,141.2,107.6,140.3,107.5,139.4z M106.9,134.4c-0.1-0.5-0.6-0.6-1.3-0.3c-1.3,0.6-2.6,1.3-3.9,2
				c-0.7,0.4-1.2,1.1-1.1,1.5c0.1,0.9,0.1,1.8,0.2,2.7c0,0.5,0.6,0.5,1.3,0.2c1.3-0.7,2.7-1.4,4-2c0.7-0.3,1.2-0.9,1.1-1.4
				C107.1,136.2,107,135.3,106.9,134.4z M106.2,129.4c-0.1-0.5-0.6-0.6-1.2-0.3c-1.2,0.6-2.5,1.3-3.7,2c-0.6,0.4-1.1,1-1.1,1.5
				c0.1,0.9,0.1,1.8,0.2,2.7c0,0.5,0.6,0.5,1.2,0.2c1.3-0.7,2.6-1.4,3.8-2c0.7-0.3,1.1-0.9,1.1-1.4
				C106.5,131.2,106.4,130.3,106.2,129.4z M105.6,124.3c-0.1-0.5-0.6-0.6-1.2-0.3c-1.2,0.6-2.3,1.3-3.5,2c-0.6,0.4-1,1-1,1.5
				c0.1,0.9,0.1,1.8,0.2,2.7c0,0.5,0.6,0.5,1.2,0.2c1.2-0.7,2.4-1.4,3.7-2c0.6-0.3,1.1-0.9,1-1.4
				C105.8,126.1,105.7,125.2,105.6,124.3z M105,119.3c-0.1-0.5-0.6-0.6-1.1-0.3c-1.1,0.6-2.2,1.3-3.3,2c-0.6,0.4-1,1-1,1.5
				c0.1,0.9,0.1,1.8,0.2,2.7c0,0.5,0.5,0.5,1.1,0.2c1.2-0.7,2.3-1.4,3.5-2c0.6-0.3,1-0.9,1-1.4C105.2,121.1,105.1,120.2,105,119.3z
				 M111.3,116.6c-0.1-0.5-0.6-0.7-1.2-0.4c-1.1,0.4-2.3,0.9-3.4,1.4c-0.6,0.3-1,0.9-0.9,1.3c0.1,0.9,0.2,1.8,0.4,2.7
				c0.1,0.5,0.6,0.6,1.2,0.3c1.2-0.5,2.4-1,3.5-1.5c0.6-0.2,1-0.8,0.9-1.2C111.6,118.3,111.5,117.4,111.3,116.6z M115.2,136.5
				c-0.1-0.5-0.7-0.6-1.4-0.4c-1.4,0.5-2.8,1-4.1,1.6c-0.7,0.3-1.2,0.9-1.2,1.4c0.1,0.9,0.2,1.8,0.4,2.7c0.1,0.5,0.7,0.6,1.4,0.3
				c1.4-0.6,2.9-1.1,4.3-1.6c0.7-0.2,1.3-0.8,1.2-1.3C115.5,138.3,115.4,137.4,115.2,136.5z M123,134.4c-0.1-0.5-0.8-0.7-1.5-0.5
				c-1.4,0.3-2.8,0.7-4.2,1.1c-0.7,0.2-1.2,0.8-1.1,1.2c0.2,0.9,0.4,1.8,0.5,2.7c0.1,0.5,0.8,0.6,1.5,0.4c1.4-0.4,2.9-0.8,4.3-1.1
				c0.7-0.2,1.2-0.7,1.1-1.1C123.4,136.2,123.2,135.3,123,134.4z M117.7,114.8c-0.1-0.5-0.7-0.7-1.3-0.6c-1.1,0.3-2.3,0.6-3.4,0.9
				c-0.6,0.2-1,0.7-0.9,1.2c0.2,0.9,0.4,1.8,0.5,2.7c0.1,0.5,0.7,0.7,1.3,0.5c1.2-0.4,2.4-0.7,3.6-1c0.6-0.1,1-0.6,0.9-1.1
				C118.1,116.6,117.9,115.7,117.7,114.8z M125.8,118.8c-0.2-0.4-0.8-0.8-1.4-0.7c-1.2,0.1-2.4,0.2-3.6,0.4c-0.6,0.1-1,0.6-0.9,1
				c0.2,0.9,0.5,1.8,0.7,2.6c0.1,0.5,0.8,0.7,1.4,0.6c1.3-0.2,2.5-0.4,3.8-0.5c0.6-0.1,1-0.4,0.9-0.9
				C126.4,120.5,126.1,119.7,125.8,118.8z M127.4,123.6c-0.2-0.4-0.8-0.8-1.5-0.7c-1.3,0.1-2.5,0.3-3.8,0.5c-0.6,0.1-1.1,0.6-0.9,1
				c0.2,0.9,0.5,1.8,0.7,2.6c0.1,0.5,0.8,0.7,1.5,0.6c1.3-0.2,2.7-0.4,4-0.5c0.7-0.1,1.1-0.5,0.9-0.9
				C128,125.4,127.7,124.5,127.4,123.6z"/>
			<path class="st2" d="M62.2,111.8c-0.2,0.4-0.8,0.8-1.3,0.8c-1.2,0-2.3,0.1-3.5,0.2c-0.6,0.1-0.9-0.2-0.7-0.6
				c0.3-0.8,0.7-1.7,1-2.5c0.2-0.4,0.8-0.9,1.4-0.9c1.1-0.1,2.2-0.2,3.3-0.3c0.6,0,0.9,0.3,0.7,0.8
				C62.8,110.1,62.5,110.9,62.2,111.8z"/>
			<path class="st2" d="M69.2,109.7c0.1-0.5-0.2-0.9-0.8-1c-1.1-0.2-2.2-0.3-3.3-0.3c-0.6,0-1.1,0.3-1.3,0.8
				c-0.3,0.9-0.6,1.7-0.9,2.6c-0.2,0.4,0.2,0.8,0.8,0.9c1.2,0.1,2.3,0.2,3.4,0.4c0.6,0.1,1.2-0.2,1.3-0.6
				C68.8,111.5,69,110.6,69.2,109.7z"/>
			<path class="st2" d="M75.3,111.3c0.1-0.5-0.3-1-0.8-1.2c-1.1-0.3-2.2-0.6-3.2-0.9c-0.6-0.1-1.1,0.2-1.2,0.6
				c-0.2,0.9-0.5,1.8-0.7,2.6c-0.1,0.5,0.3,0.9,0.8,1c1.1,0.3,2.3,0.6,3.4,0.9c0.6,0.2,1.1,0,1.2-0.5
				C74.9,113.1,75.1,112.2,75.3,111.3z"/>
			<path class="st2" d="M81.2,113.8c0.1-0.5-0.3-1.1-0.9-1.3c-1.1-0.5-2.1-1-3.2-1.4c-0.5-0.2-1.1,0-1.2,0.5
				c-0.2,0.9-0.3,1.8-0.5,2.7c-0.1,0.5,0.3,1,0.9,1.2c1.1,0.4,2.2,0.9,3.4,1.4c0.6,0.3,1.1,0.1,1.1-0.3
				C81,115.7,81.1,114.8,81.2,113.8z"/>
			<path class="st2" d="M87.1,117.4c0-0.5-0.4-1.1-0.9-1.5c-1-0.7-2.1-1.3-3.1-1.9c-0.5-0.3-1-0.2-1.1,0.3c-0.1,0.9-0.2,1.8-0.3,2.7
				c-0.1,0.5,0.4,1.1,0.9,1.4c1.1,0.6,2.2,1.3,3.3,2c0.6,0.4,1,0.3,1.1-0.2C87,119.2,87,118.3,87.1,117.4z"/>
			<path class="st2" d="M92.8,122c0-0.5-0.4-1.2-0.9-1.7c-1-0.9-2-1.7-3-2.5c-0.5-0.4-1-0.3-1,0.1c-0.1,0.9-0.1,1.8-0.2,2.7
				c0,0.5,0.4,1.2,0.9,1.6c1.1,0.8,2.1,1.6,3.2,2.5c0.5,0.5,1,0.5,1,0C92.8,123.8,92.8,122.9,92.8,122z"/>
			<path class="st2" d="M61.4,114c0.2-0.4-0.2-0.8-0.8-0.8c-1.2,0-2.3,0.1-3.5,0.2c-0.6,0.1-1.2,0.5-1.4,0.9c-0.3,0.8-0.7,1.7-1,2.5
				c-0.2,0.4,0.2,0.7,0.8,0.7c1.2-0.1,2.4-0.2,3.6-0.2c0.6,0,1.2-0.3,1.4-0.8C60.8,115.7,61.1,114.9,61.4,114z"/>
			<path class="st2" d="M92.8,127c0-0.5-0.4-1.2-1-1.7c-1.1-0.9-2.1-1.7-3.2-2.5c-0.6-0.4-1-0.3-1,0.1c-0.1,0.9-0.1,1.8-0.2,2.7
				c0,0.5,0.4,1.2,1,1.6c1.1,0.8,2.3,1.6,3.4,2.5c0.6,0.5,1,0.5,1,0C92.7,128.9,92.7,127.9,92.8,127z"/>
			<path class="st2" d="M59.7,118.8c0.2-0.4-0.2-0.8-0.8-0.8c-1.2,0-2.4,0-3.7,0.1c-0.6,0.1-1.3,0.5-1.4,0.9c-0.3,0.8-0.7,1.7-1,2.5
				c-0.2,0.4,0.2,0.7,0.8,0.7c1.3-0.1,2.5-0.1,3.8-0.1c0.6,0,1.3-0.3,1.5-0.8C59.1,120.5,59.4,119.6,59.7,118.8z"/>
			<path class="st2" d="M73.3,121.3c0.1-0.5-0.3-1-0.9-1.2c-1.2-0.4-2.4-0.7-3.6-1c-0.6-0.1-1.2,0.1-1.3,0.6
				c-0.2,0.9-0.5,1.8-0.7,2.6c-0.1,0.5,0.3,0.9,0.9,1.1c1.3,0.3,2.5,0.6,3.8,1c0.6,0.2,1.2,0,1.3-0.5
				C72.9,123,73.1,122.1,73.3,121.3z"/>
			<path class="st2" d="M79.9,123.9c0.1-0.5-0.4-1.1-1-1.3c-1.2-0.5-2.4-1-3.6-1.5c-0.6-0.2-1.2,0-1.3,0.4c-0.2,0.9-0.3,1.8-0.5,2.7
				c-0.1,0.5,0.4,1,1,1.2c1.3,0.5,2.5,1,3.7,1.5c0.6,0.3,1.2,0.1,1.3-0.3C79.7,125.7,79.8,124.8,79.9,123.9z"/>
			<path class="st2" d="M86.4,127.5c0-0.5-0.4-1.2-1-1.5c-1.2-0.7-2.3-1.4-3.5-2c-0.6-0.3-1.1-0.2-1.2,0.3c-0.1,0.9-0.2,1.8-0.3,2.7
				c-0.1,0.5,0.4,1.1,1,1.4c1.2,0.6,2.5,1.3,3.7,2c0.6,0.4,1.1,0.3,1.2-0.2C86.3,129.3,86.4,128.4,86.4,127.5z"/>
			<path class="st2" d="M92.7,132.1c0-0.5-0.5-1.2-1-1.7c-1.1-0.9-2.2-1.7-3.4-2.5c-0.6-0.4-1.1-0.3-1.1,0.1
				c-0.1,0.9-0.1,1.8-0.2,2.7c0,0.5,0.4,1.2,1.1,1.6c1.2,0.8,2.4,1.6,3.5,2.5c0.6,0.5,1.1,0.5,1.1,0C92.7,133.9,92.7,133,92.7,132.1
				z"/>
			<path class="st2" d="M58,123.6c0.2-0.4-0.2-0.8-0.9-0.8c-1.3,0-2.5,0-3.8,0.1c-0.6,0-1.3,0.4-1.5,0.9c-0.3,0.8-0.7,1.7-1,2.5
				c-0.2,0.4,0.2,0.7,0.9,0.7c1.3-0.1,2.6-0.1,3.9,0c0.7,0,1.3-0.3,1.5-0.7C57.4,125.3,57.7,124.4,58,123.6z"/>
			<path class="st2" d="M86.1,132.6c0-0.5-0.4-1.2-1.1-1.5c-1.2-0.7-2.4-1.4-3.7-2c-0.6-0.3-1.2-0.2-1.2,0.3
				c-0.1,0.9-0.2,1.8-0.3,2.7c-0.1,0.5,0.4,1.1,1.1,1.4c1.3,0.6,2.6,1.3,3.8,2c0.6,0.4,1.2,0.3,1.2-0.2
				C86,134.4,86,133.5,86.1,132.6z"/>
			<path class="st2" d="M92.7,137.2c0-0.5-0.5-1.2-1.1-1.7c-1.2-0.9-2.3-1.7-3.5-2.5c-0.6-0.4-1.1-0.3-1.2,0.1
				c-0.1,0.9-0.1,1.8-0.2,2.7c0,0.5,0.5,1.2,1.1,1.6c1.2,0.8,2.5,1.6,3.7,2.5c0.6,0.5,1.1,0.5,1.1,0C92.7,139,92.7,138.1,92.7,137.2
				z"/>
			<path class="st2" d="M56.3,128.4c0.2-0.4-0.3-0.8-0.9-0.9c-1.3,0-2.7,0-4,0c-0.7,0-1.4,0.4-1.5,0.9c-0.3,0.8-0.7,1.7-1,2.5
				c-0.2,0.4,0.2,0.7,0.9,0.7c1.4,0,2.7,0,4.1,0c0.7,0,1.4-0.3,1.6-0.7C55.7,130.1,56,129.2,56.3,128.4z"/>
			<path class="st2" d="M71.2,131.2c0.1-0.5-0.4-1-1.1-1.2c-1.3-0.4-2.7-0.7-4-1c-0.7-0.2-1.3,0.1-1.5,0.5c-0.2,0.9-0.5,1.8-0.7,2.6
				c-0.1,0.5,0.4,0.9,1.1,1.1c1.4,0.3,2.8,0.7,4.2,1.1c0.7,0.2,1.4,0,1.4-0.4C70.9,133,71,132.1,71.2,131.2z"/>
			<path class="st2" d="M78.6,134c0.1-0.5-0.4-1.1-1.1-1.4c-1.3-0.6-2.6-1.1-4-1.5c-0.7-0.2-1.3,0-1.4,0.4c-0.2,0.9-0.3,1.8-0.5,2.7
				c-0.1,0.5,0.4,1,1.1,1.3c1.4,0.5,2.8,1,4.1,1.6c0.7,0.3,1.3,0.2,1.4-0.3C78.3,135.8,78.5,134.9,78.6,134z"/>
			<path class="st2" d="M85.8,137.7c0-0.5-0.5-1.2-1.1-1.5c-1.3-0.7-2.6-1.4-3.9-2c-0.7-0.3-1.2-0.2-1.3,0.3
				c-0.1,0.9-0.2,1.8-0.3,2.7c-0.1,0.5,0.5,1.1,1.1,1.4c1.4,0.6,2.7,1.3,4,2c0.7,0.4,1.2,0.3,1.3-0.2
				C85.7,139.5,85.7,138.6,85.8,137.7z"/>
			<path class="st2" d="M92.7,142.3c0-0.5-0.5-1.2-1.1-1.7c-1.2-0.9-2.5-1.7-3.7-2.5c-0.6-0.4-1.2-0.3-1.2,0.1
				c-0.1,0.9-0.1,1.8-0.2,2.7c0,0.5,0.5,1.2,1.2,1.6c1.3,0.8,2.6,1.6,3.9,2.5c0.6,0.5,1.2,0.5,1.2,0
				C92.7,144.1,92.7,143.2,92.7,142.3z"/>
			<path class="st2" d="M54.7,133.2c0.2-0.4-0.3-0.8-1-0.9c-1.4-0.1-2.8-0.1-4.1,0c-0.7,0-1.4,0.4-1.6,0.8c-0.3,0.8-0.7,1.7-1,2.5
				c-0.2,0.4,0.3,0.8,1,0.7c1.4,0,2.8,0,4.3,0.1c0.7,0,1.4-0.3,1.6-0.7C54.1,134.9,54.4,134,54.7,133.2z"/>
			<path class="st2" d="M70.2,136.2c0.1-0.5-0.4-1-1.1-1.2c-1.4-0.4-2.8-0.8-4.2-1.1c-0.7-0.2-1.4,0.1-1.5,0.5
				c-0.2,0.9-0.5,1.8-0.7,2.6c-0.1,0.5,0.4,0.9,1.1,1.1c1.4,0.3,2.9,0.7,4.3,1.1c0.7,0.2,1.4,0,1.5-0.4
				C69.8,138,70,137.1,70.2,136.2z"/>
			<path class="st2" d="M77.9,139c0.1-0.5-0.5-1.1-1.2-1.4c-1.4-0.6-2.8-1.1-4.1-1.6c-0.7-0.2-1.4-0.1-1.4,0.4
				c-0.2,0.9-0.3,1.8-0.5,2.7c-0.1,0.5,0.4,1,1.2,1.3c1.4,0.5,2.9,1,4.3,1.6c0.7,0.3,1.4,0.2,1.4-0.3
				C77.7,140.8,77.8,139.9,77.9,139z"/>
			<path class="st2" d="M85.4,142.7c0-0.5-0.5-1.2-1.2-1.5c-1.3-0.7-2.7-1.4-4-2c-0.7-0.3-1.3-0.2-1.4,0.3c-0.1,0.9-0.2,1.8-0.3,2.7
				c-0.1,0.5,0.5,1.1,1.2,1.4c1.4,0.6,2.8,1.3,4.2,2c0.7,0.4,1.3,0.3,1.3-0.2C85.3,144.5,85.4,143.6,85.4,142.7z"/>
			<path class="st2" d="M53,137.9c0.2-0.4-0.3-0.8-1-0.9c-1.4-0.1-2.9-0.1-4.3-0.1c-0.7,0-1.4,0.4-1.6,0.8c-0.3,0.8-0.7,1.7-1,2.5
				c-0.2,0.4,0.3,0.8,1,0.8c1.5,0,2.9,0,4.4,0.1c0.8,0.1,1.5-0.2,1.7-0.7C52.4,139.7,52.7,138.8,53,137.9z"/>
			<path class="st2" d="M61.1,139.1c0.1-0.5-0.4-0.9-1.1-1.1c-1.5-0.3-2.9-0.5-4.4-0.6c-0.7-0.1-1.5,0.2-1.6,0.7
				c-0.3,0.9-0.6,1.7-0.9,2.6c-0.2,0.4,0.3,0.9,1.1,1c1.5,0.2,3,0.4,4.5,0.7c0.8,0.1,1.5-0.1,1.6-0.5
				C60.6,140.9,60.8,140,61.1,139.1z"/>
			<path class="st2" d="M69.2,141.2c0.1-0.5-0.4-1-1.2-1.2c-1.5-0.4-2.9-0.8-4.4-1.1c-0.7-0.2-1.4,0.1-1.6,0.5
				c-0.2,0.9-0.5,1.8-0.7,2.6c-0.1,0.5,0.4,0.9,1.2,1.1c1.5,0.3,3,0.7,4.5,1.2c0.8,0.2,1.5,0,1.6-0.4C68.8,142.9,69,142,69.2,141.2z
				"/>
			<path class="st2" d="M77.2,144.1c0.1-0.5-0.5-1.1-1.2-1.4c-1.4-0.6-2.9-1.1-4.3-1.6c-0.7-0.2-1.4-0.1-1.5,0.4
				c-0.2,0.9-0.3,1.8-0.5,2.7c-0.1,0.5,0.5,1,1.2,1.3c1.5,0.5,3,1,4.5,1.6c0.8,0.3,1.4,0.2,1.5-0.3C77,145.9,77.1,145,77.2,144.1z"
				/>
			<path class="st2" d="M98.7,120.6c0,0.5-0.4,1.2-0.9,1.6c-1.1,0.8-2.1,1.6-3.2,2.5c-0.5,0.5-1,0.5-1,0c0-0.9,0-1.8,0-2.7
				c0-0.5,0.4-1.2,0.9-1.7c1-0.9,2-1.7,3-2.5c0.5-0.4,1-0.3,1,0.1C98.6,118.8,98.6,119.7,98.7,120.6z"/>
			<path class="st2" d="M104.4,114.2c-0.1-0.5-0.5-0.6-1.1-0.3c-1.1,0.6-2.1,1.2-3.1,1.9c-0.5,0.4-0.9,1-0.9,1.5
				c0.1,0.9,0.1,1.8,0.2,2.7c0,0.5,0.5,0.5,1.1,0.2c1.1-0.7,2.2-1.4,3.3-2c0.6-0.3,1-0.9,0.9-1.4C104.6,116,104.5,115.1,104.4,114.2
				z"/>
			<path class="st2" d="M110.3,111.6c-0.1-0.5-0.6-0.7-1.2-0.5c-1.1,0.4-2.1,0.9-3.2,1.4c-0.5,0.3-0.9,0.9-0.9,1.3
				c0.1,0.9,0.2,1.8,0.4,2.7c0.1,0.5,0.6,0.6,1.1,0.3c1.1-0.5,2.2-1,3.4-1.4c0.6-0.2,1-0.8,0.9-1.2
				C110.7,113.4,110.5,112.5,110.3,111.6z"/>
			<path class="st2" d="M116.4,109.9c-0.1-0.5-0.7-0.7-1.2-0.6c-1.1,0.2-2.2,0.5-3.2,0.9c-0.5,0.2-0.9,0.7-0.8,1.2
				c0.2,0.9,0.4,1.8,0.5,2.7c0.1,0.5,0.6,0.7,1.2,0.5c1.1-0.4,2.3-0.7,3.4-0.9c0.6-0.1,1-0.6,0.8-1
				C116.8,111.6,116.6,110.8,116.4,109.9z"/>
			<path class="st2" d="M122.5,109.2c-0.2-0.4-0.7-0.8-1.3-0.8c-1.1,0.1-2.2,0.2-3.3,0.3c-0.6,0.1-0.9,0.5-0.8,1
				c0.2,0.9,0.5,1.8,0.7,2.6c0.1,0.5,0.7,0.7,1.3,0.6c1.1-0.2,2.3-0.3,3.4-0.4c0.6,0,0.9-0.4,0.8-0.9
				C123.1,110.9,122.8,110.1,122.5,109.2z"/>
			<path class="st2" d="M128.7,109.6c-0.2-0.4-0.8-0.9-1.4-0.9c-1.1-0.1-2.2-0.2-3.3-0.3c-0.6,0-0.9,0.3-0.7,0.8
				c0.3,0.9,0.6,1.7,0.9,2.6c0.2,0.4,0.8,0.8,1.3,0.8c1.2,0,2.3,0.1,3.5,0.2c0.6,0.1,0.9-0.2,0.7-0.6
				C129.4,111.3,129,110.5,128.7,109.6z"/>
			<path class="st2" d="M98.8,123c0-0.5-0.5-0.5-1-0.1c-1.1,0.8-2.2,1.6-3.2,2.5c-0.5,0.5-1,1.2-1,1.7c0,0.9,0,1.8,0,2.7
				c0,0.5,0.5,0.5,1,0c1.1-0.9,2.2-1.7,3.4-2.5c0.6-0.4,1-1.1,1-1.6C98.9,124.8,98.9,123.9,98.8,123z"/>
			<path class="st2" d="M124.1,114c-0.2-0.4-0.8-0.8-1.3-0.7c-1.2,0.1-2.3,0.2-3.5,0.4c-0.6,0.1-1,0.5-0.8,1
				c0.2,0.9,0.5,1.8,0.7,2.6c0.1,0.5,0.7,0.7,1.3,0.6c1.2-0.2,2.4-0.3,3.6-0.4c0.6,0,1-0.4,0.8-0.9
				C124.7,115.7,124.4,114.9,124.1,114z"/>
			<path class="st2" d="M130.6,114.3c-0.2-0.4-0.8-0.9-1.4-0.9c-1.2-0.1-2.3-0.2-3.5-0.2c-0.6,0-0.9,0.4-0.8,0.8
				c0.3,0.9,0.6,1.7,0.9,2.6c0.2,0.4,0.8,0.8,1.4,0.8c1.2,0,2.4,0,3.6,0.2c0.6,0.1,1-0.2,0.8-0.7C131.3,116,131,115.2,130.6,114.3z"
				/>
			<path class="st2" d="M99.1,128c0-0.5-0.5-0.5-1.1-0.1c-1.1,0.8-2.3,1.6-3.4,2.5c-0.6,0.5-1,1.2-1,1.7c0,0.9,0,1.8,0,2.7
				c0,0.5,0.5,0.5,1.1,0c1.2-0.9,2.3-1.7,3.5-2.5c0.6-0.4,1.1-1.1,1.1-1.6C99.2,129.9,99.2,128.9,99.1,128z"/>
			<path class="st2" d="M112.3,121.5c-0.1-0.5-0.7-0.7-1.3-0.4c-1.2,0.4-2.4,0.9-3.6,1.5c-0.6,0.3-1,0.9-1,1.3
				c0.1,0.9,0.2,1.8,0.4,2.7c0.1,0.5,0.6,0.6,1.3,0.3c1.2-0.5,2.5-1,3.7-1.5c0.6-0.2,1.1-0.8,1-1.2
				C112.6,123.3,112.4,122.4,112.3,121.5z"/>
			<path class="st2" d="M119,119.7c-0.1-0.5-0.7-0.7-1.3-0.6c-1.2,0.3-2.4,0.6-3.6,1c-0.6,0.2-1,0.7-0.9,1.2
				c0.2,0.9,0.4,1.8,0.5,2.7c0.1,0.5,0.7,0.7,1.3,0.5c1.3-0.4,2.5-0.7,3.8-1c0.6-0.1,1.1-0.6,0.9-1.1
				C119.5,121.5,119.2,120.6,119,119.7z"/>
			<path class="st2" d="M132.6,119c-0.2-0.4-0.8-0.8-1.4-0.9c-1.2-0.1-2.4-0.2-3.7-0.1c-0.6,0-1,0.4-0.8,0.8
				c0.3,0.9,0.6,1.7,0.9,2.6c0.2,0.4,0.8,0.8,1.5,0.8c1.3,0,2.5,0,3.8,0.1c0.6,0,1-0.3,0.8-0.7C133.3,120.7,132.9,119.9,132.6,119z"
				/>
			<path class="st2" d="M99.4,133.1c0-0.5-0.5-0.5-1.2-0.1c-1.2,0.8-2.4,1.6-3.5,2.5c-0.6,0.5-1.1,1.2-1.1,1.7c0,0.9,0,1.8,0,2.7
				c0,0.5,0.5,0.5,1.1,0c1.2-0.9,2.4-1.7,3.7-2.5c0.6-0.4,1.1-1.1,1.1-1.6C99.5,134.9,99.5,134,99.4,133.1z"/>
			<path class="st2" d="M113.2,126.5c-0.1-0.5-0.7-0.7-1.3-0.4c-1.3,0.5-2.5,1-3.8,1.5c-0.6,0.3-1.1,0.9-1,1.4
				c0.1,0.9,0.2,1.8,0.4,2.7c0.1,0.5,0.6,0.6,1.3,0.3c1.3-0.6,2.6-1.1,3.9-1.5c0.7-0.2,1.1-0.8,1.1-1.2
				C113.6,128.3,113.4,127.4,113.2,126.5z"/>
			<path class="st2" d="M120.3,124.6c-0.1-0.5-0.7-0.7-1.4-0.6c-1.3,0.3-2.5,0.6-3.8,1c-0.6,0.2-1.1,0.7-1,1.2
				c0.2,0.9,0.4,1.8,0.5,2.7c0.1,0.5,0.7,0.7,1.4,0.5c1.3-0.4,2.6-0.7,4-1c0.7-0.2,1.1-0.6,1-1.1
				C120.8,126.4,120.6,125.5,120.3,124.6z"/>
			<path class="st2" d="M134.5,123.7c-0.2-0.4-0.8-0.8-1.5-0.9c-1.3-0.1-2.5-0.1-3.8-0.1c-0.6,0-1,0.4-0.9,0.8
				c0.3,0.9,0.6,1.7,0.9,2.6c0.2,0.4,0.8,0.8,1.5,0.7c1.3,0,2.6,0,3.9,0c0.7,0,1.1-0.3,0.9-0.7C135.2,125.4,134.9,124.5,134.5,123.7
				z"/>
			<path class="st2" d="M99.7,138.2c0-0.5-0.6-0.5-1.2-0.1c-1.3,0.8-2.5,1.6-3.7,2.5c-0.6,0.5-1.1,1.2-1.1,1.7c0,0.9,0,1.8,0,2.7
				c0,0.5,0.5,0.5,1.2,0c1.3-0.9,2.5-1.7,3.9-2.5c0.7-0.4,1.2-1.1,1.2-1.6C99.8,140,99.7,139.1,99.7,138.2z"/>
			<path class="st2" d="M114.2,131.5c-0.1-0.5-0.7-0.6-1.4-0.4c-1.3,0.5-2.6,1-4,1.5c-0.7,0.3-1.2,0.9-1.1,1.4
				c0.1,0.9,0.2,1.8,0.4,2.7c0.1,0.5,0.7,0.6,1.4,0.3c1.4-0.6,2.7-1.1,4.1-1.6c0.7-0.2,1.2-0.8,1.1-1.3
				C114.6,133.3,114.4,132.4,114.2,131.5z"/>
			<path class="st2" d="M121.6,129.5c-0.1-0.5-0.8-0.7-1.5-0.5c-1.3,0.3-2.7,0.7-4,1c-0.7,0.2-1.1,0.7-1.1,1.2
				c0.2,0.9,0.4,1.8,0.5,2.7c0.1,0.5,0.7,0.6,1.4,0.4c1.4-0.4,2.8-0.8,4.2-1.1c0.7-0.2,1.2-0.6,1.1-1.1
				C122.1,131.3,121.9,130.4,121.6,129.5z"/>
			<path class="st2" d="M136.5,128.4c-0.2-0.4-0.9-0.8-1.5-0.9c-1.3-0.1-2.6-0.1-4,0c-0.7,0-1.1,0.4-0.9,0.9
				c0.3,0.9,0.6,1.7,0.9,2.6c0.2,0.4,0.9,0.8,1.6,0.7c1.4-0.1,2.7-0.1,4.1,0c0.7,0,1.1-0.3,0.9-0.7
				C137.2,130.1,136.8,129.2,136.5,128.4z"/>
			<path class="st2" d="M130.7,133.2c-0.2-0.4-0.8-0.8-1.6-0.7c-1.4,0.2-2.8,0.3-4.2,0.6c-0.7,0.1-1.2,0.6-1.1,1.1
				c0.2,0.9,0.5,1.8,0.7,2.6c0.1,0.5,0.8,0.7,1.6,0.6c1.4-0.3,2.9-0.5,4.3-0.6c0.7-0.1,1.2-0.5,1.1-0.9
				C131.3,135,131,134.1,130.7,133.2z"/>
			<path class="st2" d="M138.4,133.1c-0.2-0.4-0.9-0.8-1.6-0.8c-1.4,0-2.7,0-4.1,0c-0.7,0-1.2,0.4-1,0.9c0.3,0.9,0.6,1.7,0.9,2.6
				c0.2,0.4,0.9,0.7,1.6,0.7c1.4-0.1,2.9-0.1,4.3-0.1c0.7,0,1.2-0.3,1-0.7C139.1,134.8,138.7,133.9,138.4,133.1z"/>
			<path class="st2" d="M116.2,141.5c-0.1-0.5-0.8-0.6-1.5-0.4c-1.4,0.5-2.9,1-4.3,1.6c-0.7,0.3-1.3,0.9-1.2,1.4
				c0.1,0.9,0.2,1.8,0.4,2.7c0.1,0.5,0.7,0.6,1.5,0.3c1.5-0.6,3-1.1,4.5-1.6c0.8-0.3,1.3-0.8,1.2-1.3
				C116.5,143.3,116.3,142.4,116.2,141.5z"/>
			<path class="st2" d="M124.3,139.3c-0.1-0.5-0.8-0.7-1.6-0.5c-1.5,0.3-2.9,0.7-4.4,1.1c-0.7,0.2-1.3,0.8-1.2,1.2
				c0.2,0.9,0.4,1.8,0.5,2.7c0.1,0.5,0.8,0.6,1.6,0.4c1.5-0.4,3-0.8,4.5-1.2c0.8-0.2,1.3-0.7,1.2-1.1
				C124.8,141.1,124.5,140.2,124.3,139.3z"/>
			<path class="st2" d="M132.4,138c-0.2-0.4-0.9-0.7-1.6-0.7c-1.4,0.2-2.9,0.4-4.4,0.6c-0.7,0.1-1.2,0.6-1.1,1.1
				c0.2,0.9,0.5,1.8,0.7,2.6c0.1,0.5,0.9,0.7,1.6,0.5c1.5-0.3,3-0.5,4.5-0.7c0.8-0.1,1.3-0.5,1.1-1C133,139.8,132.7,138.9,132.4,138
				z"/>
			<path class="st2" d="M140.3,137.8c-0.2-0.4-0.9-0.8-1.6-0.8c-1.4,0-2.8,0-4.3,0.1c-0.7,0-1.2,0.5-1,0.9c0.3,0.9,0.6,1.7,0.9,2.6
				c0.2,0.4,0.9,0.7,1.7,0.7c1.5-0.1,3-0.2,4.4-0.1c0.7,0,1.2-0.3,1-0.8C141,139.5,140.7,138.6,140.3,137.8z"/>
		</g>
	</g>
</g>
<g>
	<g class="st7">
		<g>
			<path d="M121.7,33.6c0.3,0.6,0.7,1.4,1,2.2s0.8,1.8,1.2,2.9c0.4,1.1,0.8,2.2,1.2,3.4c0.4,1.2,0.6,2.4,0.9,3.6s0.3,2.4,0.3,3.6
				c0,1.9-0.3,3.8-0.9,5.4c-0.6,1.7-1.4,3.2-2.5,4.4s-2.4,2.2-4,3c-1.6,0.7-3.4,1.1-5.5,1.1c-1.8,0-3.3-0.3-4.4-0.9
				c-1.1-0.6-2.1-1.4-2.8-2.5c-0.4,0.5-0.9,1-1.3,1.4c-0.5,0.4-1,0.8-1.7,1.1c-0.6,0.3-1.4,0.5-2.2,0.7c-0.9,0.2-1.9,0.2-3,0.2
				c-0.8,0-1.6-0.1-2.3-0.2c-0.7-0.1-1.3-0.3-1.9-0.4c0,2.3-0.4,4.4-1,6.3c-0.7,1.9-1.6,3.6-2.8,5.1c-1.2,1.5-2.5,2.8-4.1,3.9
				s-3.3,2-5.1,2.7c-1.8,0.7-3.7,1.3-5.7,1.6c-2,0.4-3.9,0.5-5.9,0.5c-3,0-5.8-0.5-8.3-1.5c-2.6-1-4.8-2.4-6.6-4.2
				c-1.9-1.8-3.3-4-4.3-6.5s-1.6-5.3-1.6-8.3c0.1-1.8,0.3-3.6,0.7-5.4c0.4-1.8,1-3.6,1.6-5.4c0.7-1.8,1.4-3.4,2.2-5s1.6-3,2.5-4.3
				l6.4,4.9c-0.7,1.2-1.4,2.4-2.1,3.7c-0.7,1.3-1.3,2.6-1.8,3.9c-0.5,1.3-0.9,2.7-1.2,4s-0.5,2.6-0.5,3.9c-0.1,1.5,0.2,2.9,0.9,4.2
				s1.6,2.5,2.7,3.5c1.2,1,2.5,1.8,4.1,2.3c1.6,0.6,3.3,0.9,5,0.9c2,0,3.9-0.2,5.6-0.6s3.2-0.9,4.6-1.5c1.3-0.7,2.4-1.5,3.3-2.4
				s1.5-2,1.9-3.1l0,0c0.5-1.6,0.7-3.2,0.7-5c0-1.3-0.2-2.6-0.6-4s-0.9-2.7-1.4-4.1c-0.6-1.4-1.2-2.8-2-4.2s-1.4-2.8-2.1-4.2
				l8.1-4.5c0.5,1.2,1,2.3,1.5,3.5s1,2.3,1.5,3.4c0.5,1.1,1.1,2.1,1.6,3s1.1,1.7,1.7,2.4s1.2,1.2,1.8,1.5c0.6,0.3,1.3,0.5,2,0.4
				c0.8-0.1,1.5-0.4,2-0.9s0.9-1,1.2-1.7c0.3-0.7,0.4-1.5,0.5-2.3c0.1-0.9,0.1-1.7,0-2.6c0-0.9-0.1-1.8-0.2-2.6
				c-0.1-0.9-0.2-1.7-0.2-2.4l8.1-1.1c0.1,0.6,0.3,1.3,0.4,2.2s0.2,1.8,0.3,2.7c0.1,0.9,0.3,1.9,0.5,2.9s0.5,1.9,0.8,2.7
				s0.7,1.5,1.2,2.1s1.1,1,1.9,1.3c0.6,0,1.2-0.1,1.7-0.3s1-0.6,1.4-1s0.7-1,0.9-1.6c0.2-0.6,0.3-1.4,0.3-2.2c0-0.7-0.1-1.5-0.4-2.5
				c-0.3-0.9-0.6-1.9-1.1-3s-1-2.2-1.6-3.4s-1.2-2.4-1.9-3.6l7.5-4.2C121.1,32.5,121.4,32.9,121.7,33.6z"/>
			<path d="M145,45.7c0.5,1.4,0.9,2.9,1.3,4.4c0.4,1.5,0.7,3,1,4.5s0.4,2.9,0.4,4.2c0,1.8-0.3,3.6-0.8,5.4s-1.2,3.5-2.1,5.1
				c-0.9,1.6-2,3.2-3.3,4.7s-2.6,2.9-4.2,4.3c-1.5,1.3-3.2,2.6-4.9,3.7s-3.6,2.2-5.4,3.1l-5.4-7.4c1.4-0.7,2.8-1.5,4.3-2.4
				c1.4-0.9,2.8-1.9,4.1-2.9s2.6-2.1,3.7-3.2c1.1-1.1,2.1-2.3,3-3.4c0.9-1.2,1.5-2.3,2-3.5s0.7-2.3,0.7-3.5c0-0.8-0.1-1.7-0.3-2.7
				s-0.5-2-0.9-3.1s-0.8-2.3-1.4-3.5c-0.5-1.2-1.1-2.6-1.7-4l8.5-3.9C144.1,43,144.5,44.3,145,45.7z"/>
			<path d="M156.3,51.2c1.1,0.5,2.2,1,3.4,1.5c1.2,0.4,2.3,0.8,3.4,1.1c1.1,0.3,2.1,0.4,2.9,0.4c0.5,0,1.1,0,1.9-0.1
				c0.8-0.1,1.6-0.2,2.4-0.5c0.8-0.2,1.5-0.5,2-1c0.6-0.4,0.9-1,0.9-1.6c0-0.8-0.2-1.6-0.7-2.6s-1.1-2-1.9-3c-0.8-1-1.8-2.1-2.8-3.2
				c-1.1-1.1-2.2-2.1-3.3-3.1s-2.3-1.9-3.4-2.8c-1.1-0.9-2.2-1.6-3.1-2.2l5.2-7.7c1.9,1.3,3.8,2.8,5.7,4.5s3.6,3.4,5.2,5.3
				c1.6,1.8,3,3.8,4.1,5.7c1.2,2,2,4,2.5,6c0.2,0.6,0.3,1.1,0.3,1.7c0.1,0.6,0.1,1.1,0.1,1.7c0,1.8-0.4,3.5-1.1,5
				c-0.7,1.5-1.7,2.8-3,3.9c-1.3,1.1-2.8,2-4.5,2.6c-1.8,0.6-3.7,0.9-5.8,0.9c-0.2,0-0.3,0-0.5,0s-0.3,0-0.5,0
				c-1.4,0-2.7-0.1-4.2-0.4c-1.4-0.3-2.8-0.7-4.2-1.1c-1.4-0.5-2.7-1-4-1.6s-2.5-1.3-3.6-2l3.9-8.9
				C154.2,50.1,155.2,50.7,156.3,51.2z"/>
			<path d="M186.5,58.4c0.1-1.7,0.2-3.4,0.3-5.1c0.1-1.7,0.1-3.3,0.1-4.9s0-3.1-0.1-4.4c-0.1-2.8-0.2-5.2-0.3-7.3s-0.2-4-0.3-5.6
				s-0.2-3.1-0.3-4.3s-0.2-2.3-0.3-3.4c-0.1-1-0.2-2-0.4-2.9c-0.1-0.9-0.3-1.8-0.4-2.8l9.1-3c0.4,2.6,0.8,5.3,1,7.9
				c0.3,2.7,0.5,5.2,0.6,7.7s0.2,4.7,0.3,6.8c0,2.1,0.1,3.9,0.1,5.4c0,1.4,0,2.8,0,4.4c0,1.6,0,3.2-0.1,4.9s-0.1,3.4-0.1,5.1
				c-0.1,1.7-0.1,3.4-0.3,5.1l-9.1,1.4C186.3,61.8,186.4,60.1,186.5,58.4z"/>
			<path d="M221.7,63.3c-0.4,0-1,0-1.7-0.1s-1.5-0.3-2.4-0.6c-0.4,2.4-1.2,4.7-2.4,6.9s-2.7,4.2-4.4,6.2c-1.7,1.9-3.7,3.7-6,5.3
				c-2.2,1.6-4.6,3.1-7.2,4.3l-5.4-7.4c1.4-0.7,2.8-1.5,4.2-2.3s2.8-1.7,4-2.6c1.3-0.9,2.5-1.9,3.6-2.9s2.1-2.1,2.9-3.1
				c0.8-1.1,1.5-2.2,1.9-3.3c0.5-1.1,0.7-2.3,0.7-3.4c0-0.8-0.1-1.7-0.4-2.9c-0.3-1.2-0.7-2.4-1.1-3.8c-0.5-1.4-1-2.7-1.5-4.1
				s-1.1-2.6-1.6-3.8l8.5-3.7c0.8,2.4,1.5,4.3,2.3,5.9s1.4,2.8,2.1,3.8c0.7,0.9,1.3,1.6,1.9,2s1.2,0.6,1.8,0.6h0.7v9.3h-0.5
				L221.7,63.3L221.7,63.3z"/>
			<path d="M249,54v9.3h-27.9V54H249z"/>
			<path d="M248.9,54c0.7,0,1.6,0,2.6,0s2.1,0,3.3-0.1s2.4-0.1,3.6-0.2c1.2-0.1,2.4-0.2,3.5-0.4s2.1-0.4,3-0.7s1.7-0.7,2.3-1.1
				c-2.6,0.3-4.9,0.3-7.1,0.2c-2.1-0.1-4-0.5-5.6-1.2s-2.8-1.8-3.6-3.2c-0.9-1.4-1.3-3.3-1.3-5.6c0-1.1,0.1-2.2,0.3-3.3
				s0.5-2.3,1-3.4c0.4-1.1,1-2.2,1.6-3.1c0.6-1,1.4-1.9,2.3-2.6c0.9-0.7,1.8-1.3,2.9-1.8c1-0.4,2.2-0.7,3.4-0.7c1.6,0,3,0.3,4.3,0.9
				s2.4,1.4,3.5,2.4c1,1,1.9,2.2,2.7,3.5c0.8,1.3,1.4,2.7,1.9,4.2s0.9,3,1.1,4.5c0.3,1.5,0.4,3,0.4,4.4c0,2.4-0.3,4.4-1,6.2
				c-0.7,1.7-1.6,3.2-2.8,4.5s-2.6,2.3-4.2,3c-1.6,0.8-3.4,1.4-5.3,1.9s-4,0.8-6.1,0.9c-2.2,0.2-4.4,0.3-6.6,0.3h-1.1V54H248.9z
				 M260.8,23.7l-6.5-6.5l6.5-6.5l6.5,6.5L260.8,23.7z M261,36.1c-0.5,0-0.9,0.1-1.4,0.4c-0.5,0.3-0.9,0.7-1.3,1.1
				c-0.4,0.5-0.7,1-1,1.6s-0.4,1.2-0.4,1.9c0,0.6,0.2,1.1,0.5,1.4c0.4,0.4,0.8,0.7,1.4,0.9s1.2,0.4,1.9,0.5c0.7,0.1,1.4,0.1,2.1,0.1
				s1.3,0,2,0s1.1-0.1,1.5-0.1c-0.2-0.9-0.4-1.8-0.7-2.7c-0.3-0.9-0.6-1.7-1.1-2.5c-0.4-0.7-0.9-1.4-1.5-1.9
				C262.4,36.4,261.7,36.1,261,36.1z"/>
			<path d="M311,63.3c-1.6,0-3.2-0.3-4.8-0.8c-1.6-0.5-3.1-1.3-4.4-2.4c-1.3-1-2.4-2.3-3.2-3.8s-1.3-3.2-1.3-5c0-3.9,1.7-8,5.2-12.2
				c0.3-0.3,0.5-0.6,0.7-0.8s0.4-0.4,0.5-0.6c0.2-0.2,0.3-0.3,0.4-0.5l0.5-0.5l-1.8-1.5l5.9-7.2c1,0.7,2.2,1.8,3.6,3s3,2.9,4.8,4.8
				c5.1,5.8,7.6,10.9,7.6,15.5c0,2-0.4,3.7-1.2,5.2c-0.8,1.5-1.9,2.7-3.1,3.8c-1.3,1-2.8,1.8-4.4,2.3
				C314.3,63.1,312.6,63.3,311,63.3z M316.7,51.4c0-0.6-0.2-1.3-0.6-2.1s-0.9-1.6-1.5-2.4s-1.3-1.7-2.1-2.5
				c-0.8-0.9-1.6-1.7-2.4-2.5c-0.5,0.6-1.1,1.3-1.7,2s-1.1,1.5-1.6,2.3s-0.9,1.7-1.2,2.5c-0.3,0.9-0.5,1.7-0.4,2.6
				c0,0.5,0.2,0.9,0.7,1.2c0.4,0.4,0.9,0.6,1.5,0.9c0.6,0.2,1.2,0.4,1.9,0.5s1.2,0.2,1.7,0.2c0.6,0,1.2,0,1.9-0.1
				c0.7-0.1,1.3-0.2,1.9-0.5s1-0.5,1.4-0.9C316.5,52.3,316.7,51.9,316.7,51.4z"/>
			<path d="M343.8,45.7c0.5,1.4,0.9,2.9,1.3,4.4s0.7,3,1,4.5s0.4,2.9,0.4,4.2c0,1.8-0.3,3.6-0.8,5.4s-1.2,3.5-2.1,5.1
				s-2,3.2-3.3,4.7s-2.6,2.9-4.2,4.3c-1.5,1.3-3.2,2.6-4.9,3.7c-1.7,1.1-3.6,2.2-5.4,3.1l-5.4-7.4c1.4-0.7,2.8-1.5,4.3-2.4
				c1.4-0.9,2.8-1.9,4.1-2.9c1.3-1,2.6-2.1,3.7-3.2s2.1-2.3,3-3.4c0.9-1.2,1.5-2.3,2-3.5s0.7-2.3,0.7-3.5c0-0.8-0.1-1.7-0.3-2.7
				c-0.2-1-0.5-2-0.9-3.1s-0.8-2.3-1.4-3.5c-0.5-1.2-1.1-2.6-1.7-4l8.5-3.9C342.9,43,343.3,44.3,343.8,45.7z"/>
			<path d="M365.7,63.3c-2.5,0-4.5-0.3-6.2-1s-3.1-1.6-4.2-2.7s-1.9-2.5-2.3-4.1c-0.5-1.6-0.7-3.3-0.7-5.1c0-0.9,0-2.1,0.1-3.5
				c0-1.4,0.1-3,0.1-4.9c0-1.8,0-3.9,0-6.1c0-2.2-0.1-4.4-0.2-6.6s-0.2-4.3-0.4-6.4c-0.2-2-0.4-3.8-0.7-5.3l8.8-2.7
				c0.3,1.3,0.5,2.8,0.6,4.6c0.2,1.8,0.3,3.6,0.4,5.5s0.2,3.9,0.2,5.8s0.1,3.7,0.1,5.4c0,1.5,0,3-0.1,4.6s-0.1,3.2-0.2,4.7
				c0,1.5,0,2.8,0,4c0.1,1.2,0.3,2.1,0.5,2.7c0.2,0.5,0.4,0.8,0.7,1c0.3,0.2,0.6,0.4,0.9,0.5s0.7,0.2,1.2,0.2c0.4,0,0.9,0,1.4,0h0.8
				v9.3L365.7,63.3L365.7,63.3z"/>
			<path d="M393.2,54v9.3h-27.9V54H393.2z"/>
			<path d="M392,54h2.1c0.1-1.3,0.3-2.7,0.6-4.2c0.3-1.5,0.8-3.1,1.4-4.6s1.3-3,2.1-4.5c0.8-1.4,1.7-2.7,2.7-3.9
				c1-1.1,2-2.1,3.2-2.8c1.1-0.7,2.3-1.1,3.6-1.2c1.3,0,2.5,0.4,3.6,1.1c1.1,0.7,2.1,1.7,2.9,2.8c0.8,1.2,1.4,2.5,1.9,3.9
				c0.5,1.5,0.7,3,0.7,4.5c0,1.8-0.4,3.5-1.1,5.2s-1.8,3.3-3,4.7c-1.2,1.5-2.6,2.8-4.2,3.9c-1.6,1.2-3.2,2.1-4.8,2.9
				c0.1,0.5,0.4,1,0.9,1.7c0.4,0.7,0.9,1.3,1.5,2s1.1,1.3,1.7,1.9s1,1.1,1.4,1.4c0-1.1,0.1-2.3,0.5-3.5s0.8-2.3,1.5-3.4
				c0.6-1.1,1.4-2.1,2.3-3.1s1.8-1.8,2.8-2.5s2-1.3,3.1-1.7s2.1-0.6,3.1-0.6h1.5v9.3h-1.6c-0.9,0-1.7,0.2-2.5,0.7
				c-0.8,0.5-1.5,1-2.1,1.8c-0.6,0.7-1.1,1.5-1.5,2.4s-0.6,1.8-0.6,2.7c0,0.4,0,0.8,0.1,1.1c0.1,0.3,0.2,0.7,0.3,1
				c0.2,0.4,0.4,0.7,0.6,1.1c0.3,0.4,0.6,0.8,1,1.3l-5.4,6.6c-2.4-1.4-4.4-2.9-6.2-4.4c-1.8-1.5-3.3-3-4.6-4.6
				c-1.3-1.6-2.4-3.1-3.3-4.8s-1.6-3.2-2.2-4.9h-4V54z M409.4,46.5c0-0.5,0-1.1,0-1.8c0-0.6-0.1-1.2-0.3-1.8
				c-0.1-0.6-0.3-1.1-0.6-1.6c-0.3-0.5-0.6-0.8-0.9-1.1c-0.4,0.2-0.8,0.6-1.2,1.1c-0.4,0.6-0.9,1.2-1.3,2c-0.5,0.8-0.9,1.6-1.3,2.6
				c-0.4,0.9-0.8,1.9-1.1,2.8c-0.3,1-0.6,1.9-0.8,2.8c-0.2,0.9-0.3,1.7-0.3,2.5c0.8-0.2,1.7-0.5,2.6-1s1.8-1.1,2.5-1.8
				c0.8-0.7,1.4-1.5,2-2.3C409,48.3,409.3,47.4,409.4,46.5z"/>
			<path d="M422.5,54h4c0.8,0,1.7-0.1,2.7-0.2c1-0.1,1.9-0.4,2.8-0.7s1.6-0.7,2.1-1.2c0.6-0.5,0.9-1.2,0.9-1.9
				c0-0.5-0.1-1.2-0.4-2.1c-0.3-0.9-0.6-2-1.1-3.1s-1-2.3-1.5-3.6c-0.6-1.3-1.1-2.5-1.7-3.6l8.4-4.2c0.5,1.2,1.1,2.6,1.6,3.9
				c0.5,1.4,1,2.8,1.5,4.2c0.4,1.4,0.8,2.9,1,4.3c0.3,1.4,0.4,2.8,0.4,4.1c0,2.4-0.4,4.4-1.2,6.1c-0.8,1.7-1.9,3.1-3.3,4.2
				c-1.4,1.1-3.1,1.9-5.1,2.4s-4.1,0.8-6.5,0.8h-4.7V54H422.5z M432,79.5l-6.5-6.5l6.5-6.5l6.5,6.5L432,79.5z"/>
			<path d="M493,63.3c-1.7,0-3.6-0.1-5.7-0.2c-2-0.1-4.1-0.4-6.1-0.9c-2-0.4-4-1-5.9-1.8c-1.9-0.7-3.6-1.7-5-2.9
				c-1.5-1.2-2.7-2.6-3.6-4.4c-0.9-1.7-1.5-3.7-1.6-6.1c0-1.2,0.1-2.3,0.4-3.4c0.3-1.1,0.6-2.2,1-3.2s0.9-2.1,1.4-3.1s1.1-2,1.7-3
				l6.9,5.8c-0.3,0.4-0.6,0.9-1,1.6c-0.4,0.7-0.8,1.3-1.1,2.1c-0.4,0.7-0.7,1.5-0.9,2.2c-0.2,0.7-0.4,1.4-0.4,1.9
				c0,0.7,0.3,1.4,0.8,2s1.2,1.1,2.2,1.5c0.9,0.4,2,0.8,3.3,1.1s2.6,0.6,4.1,0.8s3,0.3,4.7,0.4c1.6,0.1,3.3,0.1,5,0.1
				c0.8,0,1.6,0,2.5,0s1.7,0,2.5,0s1.5,0,2.1-0.1c0.6,0,1,0,1.2-0.1c-0.7-0.8-1.3-1.8-1.9-2.9c-0.6-1.2-0.9-2.5-1-3.9
				c0-1.2,0.1-2.3,0.4-3.5s0.7-2.3,1.3-3.5c0.5-1.1,1.2-2.2,2-3.1c0.8-1,1.7-1.8,2.6-2.5c1-0.7,2-1.3,3.1-1.6
				c1.1-0.4,2.3-0.6,3.5-0.5c1.7,0.1,3.3,0.5,4.8,1.3s2.7,1.8,3.8,3.1s1.9,2.7,2.5,4.3s0.9,3.3,0.9,5c0,1.4-0.2,2.7-0.7,4
				s-1,2.5-1.7,3.7c0.9,0.1,1.9,0.2,2.8,0.3s1.7,0.1,2.5,0.1h1v9.3h-0.8c-1.2,0-2.5,0-3.8-0.1c-1.3,0-2.6-0.1-3.8-0.3
				c-1.3-0.2-2.5-0.4-3.8-0.7s-2.5-0.7-3.7-1.3c-0.5,0.3-1.1,0.5-1.9,0.8c-0.8,0.2-1.8,0.4-2.8,0.6s-2.2,0.3-3.4,0.5
				c-1.2,0.1-2.4,0.2-3.6,0.3s-2.4,0.2-3.5,0.2C495,63.3,493.9,63.3,493,63.3z M512.5,27.5L506,21l6.5-6.5L519,21L512.5,27.5z
				 M515.5,46.6c0-0.6-0.2-1.2-0.5-1.8s-0.7-1.1-1.1-1.5c-0.4-0.5-0.9-0.8-1.4-1.1s-1-0.5-1.4-0.6c-0.5,0.1-1,0.3-1.5,0.5
				c-0.6,0.3-1.1,0.6-1.6,1.1s-1,1-1.3,1.7c-0.4,0.7-0.5,1.4-0.5,2.3c0,0.3,0.2,0.7,0.5,1.2s0.7,1,1.2,1.6c0.5,0.5,1,1,1.6,1.5
				s1.3,0.8,1.9,1c0.5-0.3,1-0.7,1.5-1.1c0.5-0.5,1-1,1.4-1.5s0.7-1.1,1-1.6C515.4,47.6,515.5,47.1,515.5,46.6z"/>
			<path d="M553.9,54v9.3H526V54H553.9z"/>
			<path d="M579,54v9.3h-0.7c-0.9,0-1.9-0.1-2.8-0.2c-0.9-0.2-1.8-0.4-2.6-0.7s-1.5-0.6-2.2-1s-1.3-0.8-1.8-1.3
				c-0.9,0.7-2,1.3-3.2,1.7s-2.4,0.7-3.8,1c-1.3,0.2-2.7,0.4-4.1,0.4c-1.4,0.1-2.8,0.1-4.1,0.1h-1.1V54h1.1c1.4,0,2.7,0,3.8-0.1
				s2.1-0.2,2.9-0.4s1.5-0.5,2.1-0.8s1-0.7,1.4-1.2c0.5-0.6,0.7-1.3,0.8-2.1s0.1-1.6,0-2.4c-0.1-0.8-0.2-1.6-0.5-2.4
				c-0.2-0.8-0.4-1.6-0.6-2.3l8.6-2.4c0.2,0.9,0.4,1.7,0.6,2.4s0.3,1.4,0.4,2.1c0.1,0.7,0.2,1.4,0.3,2.1c0.1,0.7,0.2,1.5,0.3,2.3
				c0.1,0.5,0.2,1.1,0.3,1.7c0.1,0.6,0.3,1.2,0.6,1.7s0.7,1,1.2,1.3c0.5,0.4,1.2,0.5,2,0.5C577.9,54,579,54,579,54z M564.2,72
				l-5.5,5.5l-5.7-5.7l5.7-5.7l5.6,5.6l5.5-5.5l5.7,5.7l-5.7,5.7L564.2,72z"/>
			<path d="M577.8,54h2.1c0.5,0,0.9,0,1.4,0s0.9-0.1,1.3-0.1c0.4,0,0.7-0.1,0.9-0.2c-0.4-0.4-0.7-0.8-1-1.3s-0.6-1-0.9-1.5
				c-0.3-0.5-0.5-1.1-0.7-1.8s-0.3-1.3-0.3-2.1c0-1.2,0.1-2.3,0.4-3.5c0.3-1.2,0.7-2.3,1.3-3.5c0.5-1.1,1.2-2.2,2-3.1
				c0.8-1,1.7-1.8,2.6-2.5c1-0.7,2-1.3,3.1-1.6c1.1-0.4,2.3-0.6,3.5-0.5c1.7,0.1,3.3,0.5,4.8,1.3s2.7,1.8,3.8,3.1s1.9,2.7,2.5,4.3
				s0.9,3.3,0.9,5c0,1.4-0.2,2.7-0.7,4s-1,2.5-1.7,3.7c0.5,0.1,1.1,0.2,1.9,0.3c0.7,0.1,1.7,0.1,2.9,0.1h0.6v9.3h-1.1
				c-1.3,0-2.5,0-3.6-0.1s-2.3-0.2-3.4-0.4c-1.1-0.2-2.2-0.4-3.3-0.7s-2.3-0.7-3.5-1.2c-0.7,0.4-1.6,0.8-2.7,1.1s-2.3,0.5-3.6,0.7
				s-2.6,0.3-4.1,0.4c-1.4,0.1-2.8,0.1-4.2,0.1h-1.1V54H577.8z M592.9,28.1l-6.5-6.5l6.5-6.5l6.5,6.5L592.9,28.1z M597.7,46.6
				c0-0.6-0.2-1.2-0.5-1.8s-0.7-1.1-1.1-1.5c-0.4-0.5-0.9-0.8-1.4-1.1s-1-0.5-1.4-0.6c-0.5,0.1-1,0.3-1.5,0.5
				c-0.6,0.3-1.1,0.6-1.6,1.1s-1,1-1.3,1.7c-0.4,0.7-0.5,1.4-0.5,2.3c0,0.3,0.2,0.7,0.5,1.2s0.7,1,1.2,1.6c0.5,0.5,1,1,1.6,1.5
				s1.3,0.8,1.9,1c0.5-0.3,1-0.7,1.5-1.1c0.5-0.5,1-1,1.4-1.5s0.7-1.1,1-1.6C597.6,47.6,597.7,47.1,597.7,46.6z"/>
			<path d="M607.3,54h6c1.4,0,2.9-0.1,4.5-0.3s3.2-0.5,4.9-0.8s3.3-0.7,5-1.2s3.3-1,4.9-1.5c1.6-0.5,3.1-1.1,4.6-1.7s2.8-1.2,4-1.8
				c-1.2-0.3-2.6-0.7-4.1-1.2s-3-1-4.5-1.6s-3-0.9-4.5-1.3c-1.4-0.4-2.7-0.5-3.9-0.5c-0.7,0-1.4,0.2-2.1,0.5
				c-0.7,0.3-1.3,0.6-1.9,1.1s-1.1,0.9-1.6,1.4s-0.9,0.9-1.2,1.4c-0.3,0.4-0.6,0.8-0.8,1.1l-0.3,0.4l-7-4c0.8-1.5,1.7-2.9,2.8-4.2
				s2.3-2.5,3.6-3.6s2.7-1.8,4.1-2.5c1.4-0.6,2.8-0.9,4.3-0.9c1.1,0,2.1,0.1,3.2,0.4s2.1,0.5,3.2,0.9c1.1,0.4,2.1,0.8,3.2,1.3
				c1.1,0.5,2.2,1,3.3,1.5s2.4,1.1,3.7,1.6c1.4,0.5,2.8,1,4.3,1.4s3,0.7,4.5,1s3,0.4,4.5,0.4l-1.5,8.7c-0.5,0.2-1,0.4-1.5,0.7
				c-0.6,0.3-1.1,0.5-1.5,0.7l-0.8,0.4c0.5,0.5,1,1,1.7,1.3s1.4,0.5,2.1,0.7c0.7,0.1,1.4,0.2,2.1,0.3c0.7,0,1.2,0.1,1.6,0.1h1v9.3
				h-1c-1.9,0-3.7-0.2-5.3-0.5c-1.7-0.3-3.2-0.8-4.5-1.5c-1.4-0.6-2.6-1.4-3.6-2.3s-1.9-1.9-2.6-3.1c-1.9,0.9-4,1.9-6.1,2.7
				c-2.1,0.9-4.3,1.7-6.5,2.4c-2.3,0.7-4.6,1.3-7,1.7s-4.9,0.6-7.5,0.6h-6V54H607.3z M623.9,29.9l-6.5-6.5l6.5-6.5l6.5,6.5
				L623.9,29.9z"/>
			<path d="M656.3,54h7.1c0.8,0,1.8,0,2.8-0.1s2-0.3,2.9-0.5c0.9-0.3,1.6-0.7,2.2-1.2s0.9-1.3,0.9-2.1c0-0.5-0.1-1.2-0.4-2.1
				c-0.3-0.9-0.7-2-1.1-3.1s-1-2.3-1.6-3.6s-1.2-2.5-1.7-3.6l8.4-4.2c0.5,1.2,1.1,2.6,1.6,3.9c0.5,1.4,1,2.8,1.5,4.2s0.8,2.9,1,4.3
				c0.3,1.4,0.4,2.8,0.4,4.1c0,2.4-0.4,4.5-1.3,6.2c-0.9,1.7-2.1,3.1-3.6,4.1c-1.5,1.1-3.3,1.8-5.4,2.3c-2.1,0.5-4.3,0.7-6.6,0.7h-7
				V54H656.3z M670,23.7l-5.5,5.5l-5.7-5.7l5.7-5.7l5.6,5.6l5.5-5.5l5.7,5.7l-5.7,5.7L670,23.7z"/>
			<path d="M716.5,63.3c-1.6,0-3.2-0.3-4.8-0.8s-3.1-1.3-4.4-2.4c-1.3-1-2.4-2.3-3.2-3.8s-1.3-3.2-1.3-5c0-3.9,1.7-8,5.2-12.2
				c0.3-0.3,0.5-0.6,0.7-0.8s0.4-0.4,0.5-0.6s0.3-0.3,0.4-0.5l0.5-0.5l-1.8-1.5l5.9-7.2c1,0.7,2.2,1.8,3.6,3c1.4,1.3,3,2.9,4.8,4.8
				c5.1,5.8,7.6,10.9,7.6,15.5c0,2-0.4,3.7-1.2,5.2s-1.9,2.7-3.1,3.8c-1.3,1-2.8,1.8-4.4,2.3C719.8,63.1,718.2,63.3,716.5,63.3z
				 M722.2,51.4c0-0.6-0.2-1.3-0.6-2.1c-0.4-0.8-0.9-1.6-1.5-2.4c-0.6-0.8-1.3-1.7-2.1-2.5c-0.8-0.9-1.6-1.7-2.4-2.5
				c-0.5,0.6-1.1,1.3-1.7,2c-0.6,0.7-1.1,1.5-1.6,2.3s-0.9,1.7-1.2,2.5c-0.3,0.9-0.5,1.7-0.4,2.6c0,0.5,0.2,0.9,0.7,1.2
				s0.9,0.6,1.5,0.9c0.6,0.2,1.2,0.4,1.9,0.5s1.2,0.2,1.7,0.2c0.6,0,1.2,0,1.9-0.1s1.3-0.2,1.9-0.5c0.6-0.2,1-0.5,1.4-0.9
				C722,52.3,722.2,51.9,722.2,51.4z"/>
			<path d="M749.3,45.7c0.5,1.4,0.9,2.9,1.3,4.4c0.4,1.5,0.7,3,1,4.5s0.4,2.9,0.4,4.2c0,1.8-0.3,3.6-0.8,5.4s-1.2,3.5-2.1,5.1
				c-0.9,1.6-2,3.2-3.3,4.7s-2.6,2.9-4.2,4.3c-1.5,1.3-3.2,2.6-4.9,3.7s-3.6,2.2-5.4,3.1l-5.4-7.4c1.4-0.7,2.8-1.5,4.3-2.4
				c1.4-0.9,2.8-1.9,4.2-2.9c1.3-1,2.6-2.1,3.7-3.2c1.1-1.1,2.1-2.3,3-3.4c0.9-1.2,1.5-2.3,2-3.5s0.7-2.3,0.7-3.5
				c0-0.8-0.1-1.7-0.3-2.7s-0.5-2-0.9-3.1s-0.8-2.3-1.4-3.5c-0.5-1.2-1.1-2.6-1.7-4l8.5-3.9C748.4,43,748.8,44.3,749.3,45.7z"/>
			<path d="M757.6,58.4c0.1-1.7,0.2-3.4,0.3-5.1c0.1-1.7,0.1-3.3,0.1-4.9s0-3.1-0.1-4.4c-0.1-2.8-0.2-5.2-0.3-7.3s-0.2-4-0.3-5.6
				s-0.2-3.1-0.3-4.3s-0.2-2.3-0.3-3.4c-0.1-1-0.2-2-0.4-2.9c-0.1-0.9-0.3-1.8-0.4-2.8l9.1-3c0.4,2.6,0.8,5.3,1,7.9
				c0.3,2.7,0.5,5.2,0.6,7.7c0.1,2.4,0.2,4.7,0.3,6.8s0.1,3.9,0.1,5.4c0,1.4,0,2.8,0,4.4c0,1.6,0,3.2-0.1,4.9s-0.1,3.4-0.1,5.1
				c-0.1,1.7-0.1,3.4-0.3,5.1l-9.1,1.4C757.4,61.8,757.5,60.1,757.6,58.4z"/>
			<path d="M769.7,75c2.8-0.5,5.3-1.2,7.6-2.1c2.3-0.8,4.3-1.8,6-2.8s3.1-2.1,4.3-3.3c1.1-1.2,1.9-2.3,2.4-3.5c-0.8,0-1.7,0-2.7,0
				c-0.9,0-1.7-0.1-2.3-0.1c-1.9-0.2-3.7-0.5-5.3-1.1s-3-1.4-4.1-2.4s-2-2.2-2.7-3.7c-0.6-1.5-0.9-3.1-0.9-5c0-1.2,0.1-2.4,0.4-3.7
				c0.3-1.3,0.6-2.5,1.1-3.7s1.1-2.3,1.8-3.4c0.7-1.1,1.5-2,2.4-2.8s1.9-1.4,3-1.9s2.3-0.7,3.5-0.7c1.5,0,2.9,0.3,4.1,0.8
				c1.3,0.5,2.4,1.3,3.5,2.2c1,0.9,2,2,2.8,3.3c0.8,1.2,1.5,2.6,2.1,4s1.1,2.9,1.5,4.4s0.7,3,0.8,4.5h1.3v9.3h-1.9
				c-0.8,2.9-2,5.5-3.7,7.8s-3.7,4.4-6,6.1s-4.9,3.2-7.8,4.3c-2.9,1.1-5.8,1.9-8.9,2.4L769.7,75z M784.1,44.2
				c-0.4-0.1-0.9,0.1-1.4,0.4c-0.5,0.4-1,0.9-1.5,1.5s-0.8,1.3-1.1,2s-0.5,1.5-0.4,2.1c0,0.7,0.2,1.2,0.6,1.6s0.9,0.8,1.6,1.1
				c0.6,0.3,1.4,0.5,2.2,0.6s1.6,0.2,2.4,0.3c0.8,0.1,1.6,0.1,2.3,0.1h1.8c-0.3-1.2-0.6-2.4-1-3.5s-0.9-2.1-1.4-3s-1.1-1.6-1.8-2.2
				S784.9,44.4,784.1,44.2z"/>
			<path d="M826.9,54v9.3H799V54H826.9z"/>
			<path d="M847.6,54v9.3H847c-1.9,0-3.5-0.3-4.8-0.8s-2.5-1.3-3.4-2.2c-1.4,1-3.1,1.8-5,2.3s-4.2,0.7-6.9,0.7h-1.1V54h1.1
				c2.7,0,4.7-0.4,6.1-1.3c1.4-0.9,2.1-2.2,2.1-4c0-0.6-0.1-1.4-0.2-2.5c-0.2-1.1-0.5-2.5-1-4.2l8.3-2c0.3,1.1,0.6,2,0.8,2.9
				s0.4,1.6,0.5,2.3s0.2,1.3,0.3,1.9c0.1,0.6,0.1,1.1,0.1,1.7c0,0.5,0.1,1.1,0.2,1.8c0.1,0.6,0.2,1.2,0.5,1.7s0.5,1,0.9,1.3
				s0.9,0.5,1.6,0.5h0.5L847.6,54L847.6,54z M835,35.3l-6.5-6.5l6.5-6.5l6.5,6.5L835,35.3z"/>
			<path d="M847,54c1,0,2-0.2,2.9-0.5s1.8-1,2.6-2s1.6-2.4,2.3-4.2s1.4-4.1,2-7l7.8,1.1c0,0.1,0,0.2-0.1,0.4
				c-0.1,0.5-0.3,1.2-0.4,2.1c-0.2,0.9-0.3,1.9-0.5,3c-0.1,1.1-0.2,2.2-0.2,3.2s0.1,1.9,0.4,2.6s0.6,1.2,1.2,1.3
				c0.6,0.2,1.2,0,1.8-0.4s1.1-1,1.6-1.7c0.5-0.8,1-1.6,1.4-2.6s0.8-2,1.2-3.1s0.7-2.1,0.9-3.1c0.3-1,0.5-1.9,0.6-2.7l7.8,1.1
				c0,0.5-0.1,1.1-0.2,2c-0.1,0.8-0.2,1.7-0.2,2.6s-0.1,1.8-0.1,2.8c0,0.9,0.1,1.8,0.3,2.5c0.2,0.8,0.5,1.4,0.9,1.9s1,0.7,1.7,0.7
				c0.6,0,1.2-0.2,1.7-0.6c0.5-0.4,0.9-1,1.2-1.7s0.6-1.5,0.8-2.4s0.3-1.8,0.4-2.7c0.1-0.9,0.1-1.8,0.1-2.7s0-1.6-0.1-2.3l7.9-1.1
				l1,8.3c0.1,0.9,0.4,1.7,0.8,2.4c0.4,0.7,0.9,1.2,1.4,1.7c0.5,0.4,1.1,0.8,1.7,1c0.6,0.2,1.1,0.3,1.7,0.3h0.9v9.3h-0.9
				c-1.9,0-3.7-0.3-5.4-1s-3.1-1.8-4.4-3.4c-0.1,0.2-0.2,0.3-0.4,0.4c-0.1,0.1-0.2,0.2-0.3,0.4l0,0c-1.1,1.1-2.3,2-3.7,2.7
				s-2.9,1-4.5,1c-1.8,0-3.4-0.4-4.9-1.1s-2.8-1.8-3.8-3.1c-1.2,1.3-2.5,2.3-4,3.1s-3.1,1.2-4.9,1.2c-1.7,0-3.2-0.4-4.7-1.1
				s-2.6-1.8-3.6-3.1c-1.1,1.5-2.4,2.5-3.9,3.1c-1.6,0.6-3.5,0.9-5.8,0.9h-0.6V54H847z M864.6,41.5L864.6,41.5
				C864.6,41.3,864.6,41.3,864.6,41.5z M876.4,29l-5.5,5.5l-5.7-5.7l5.7-5.7l5.6,5.6l5.5-5.5l5.7,5.7l-5.7,5.7L876.4,29z
				 M881.7,20.4l-5.2,5.2l-5.3-5.3l5.2-5.2L881.7,20.4z"/>
			<path d="M900.9,54h6.2c3.2,0,6.1-0.2,8.8-0.6s5.1-0.9,7.5-1.5c2.3-0.6,4.5-1.4,6.6-2.3c2.1-0.9,4.1-1.7,6.1-2.7
				c-1.3-0.4-2.7-0.8-4-1.4c-1.3-0.5-2.7-1.1-4-1.6s-2.7-0.9-4-1.3c-1.3-0.4-2.7-0.5-4-0.5c-0.9,0-1.8,0.2-2.7,0.7s-1.7,1-2.4,1.7
				c-0.7,0.6-1.3,1.2-1.8,1.8s-0.8,1-0.9,1.2l-6.8-4.4c0.7-1.3,1.6-2.6,2.6-3.9c1-1.3,2.1-2.4,3.4-3.3c1.2-1,2.5-1.8,4-2.3
				s2.9-0.9,4.5-0.9c1.2,0,2.3,0.1,3.5,0.4c1.2,0.2,2.3,0.6,3.5,1c1.1,0.4,2.3,0.8,3.4,1.3c1.1,0.5,2.2,1,3.3,1.5
				c1,0.5,2.1,1,3.1,1.5c1.1,0.5,2.1,0.9,3.3,1.3c1.1,0.4,2.3,0.7,3.5,1s2.5,0.4,3.8,0.4l-0.7,9l-4.2,2c-1.7,0.8-3.4,1.7-5.1,2.5
				s-3.4,1.7-5.2,2.5c-1.7,0.8-3.6,1.6-5.4,2.3c-1.9,0.7-3.8,1.4-5.9,1.9c-2,0.5-4.2,1-6.5,1.3s-4.7,0.5-7.3,0.5h-6.2L900.9,54
				L900.9,54z M925.2,79.4l-6.5-6.5l6.5-6.5l6.5,6.5L925.2,79.4z"/>
		</g>
	</g>
	<g>
		<g>
			<path class="st2" d="M119.7,30.6c0.3,0.6,0.7,1.4,1,2.2s0.8,1.8,1.2,2.9c0.4,1.1,0.8,2.2,1.2,3.4c0.4,1.2,0.6,2.4,0.9,3.6
				s0.3,2.4,0.3,3.6c0,1.9-0.3,3.8-0.9,5.4c-0.6,1.7-1.4,3.2-2.5,4.4s-2.4,2.2-4,3c-1.6,0.7-3.4,1.1-5.5,1.1c-1.8,0-3.3-0.3-4.4-0.9
				c-1.1-0.6-2.1-1.4-2.8-2.5c-0.4,0.5-0.9,1-1.3,1.4c-0.5,0.4-1,0.8-1.7,1.1c-0.6,0.3-1.4,0.5-2.2,0.7c-0.9,0.2-1.9,0.2-3,0.2
				c-0.8,0-1.6-0.1-2.3-0.2c-0.7-0.1-1.3-0.3-1.9-0.4c0,2.3-0.4,4.4-1,6.3c-0.7,1.9-1.6,3.6-2.8,5.1c-1.2,1.5-2.5,2.8-4.1,3.9
				s-3.3,2-5.1,2.7c-1.8,0.7-3.7,1.3-5.7,1.6c-2,0.4-3.9,0.5-5.9,0.5c-3,0-5.8-0.5-8.3-1.5c-2.6-1-4.8-2.4-6.6-4.2
				c-1.9-1.8-3.3-4-4.3-6.5s-1.6-5.3-1.6-8.3c0.1-1.8,0.3-3.6,0.7-5.4c0.4-1.8,1-3.6,1.6-5.4c0.7-1.8,1.4-3.4,2.2-5s1.6-3,2.5-4.3
				l6.4,4.9c-0.7,1.2-1.4,2.4-2.1,3.7c-0.7,1.3-1.3,2.6-1.8,3.9c-0.5,1.3-0.9,2.7-1.2,4s-0.5,2.6-0.5,3.9c-0.1,1.5,0.2,2.9,0.9,4.2
				c0.7,1.3,1.6,2.5,2.7,3.5c1.2,1,2.5,1.8,4.1,2.3c1.6,0.6,3.3,0.9,5,0.9c2,0,3.9-0.2,5.6-0.6s3.2-0.9,4.6-1.5
				c1.3-0.7,2.4-1.5,3.3-2.4s1.5-2,1.9-3.1l0,0c0.5-1.6,0.7-3.2,0.7-5c0-1.3-0.2-2.6-0.6-4s-0.9-2.7-1.4-4.1c-0.6-1.4-1.2-2.8-2-4.2
				s-1.4-2.8-2.1-4.2l8.1-4.5c0.5,1.2,1,2.3,1.5,3.5s1,2.3,1.5,3.4c0.5,1.1,1.1,2.1,1.6,3s1.1,1.7,1.7,2.4s1.2,1.2,1.8,1.5
				c0.6,0.3,1.3,0.5,2,0.4c0.8-0.1,1.5-0.4,2-0.9s0.9-1,1.2-1.7c0.3-0.7,0.4-1.5,0.5-2.3c0.1-0.9,0.1-1.7,0-2.6
				c0-0.9-0.1-1.8-0.2-2.6c-0.1-0.9-0.2-1.7-0.2-2.4l8.1-1.1c0.1,0.6,0.3,1.3,0.4,2.2s0.2,1.8,0.3,2.7c0.1,0.9,0.3,1.9,0.5,2.9
				s0.5,1.9,0.8,2.7s0.7,1.5,1.2,2.1s1.1,1,1.9,1.3c0.6,0,1.2-0.1,1.7-0.3s1-0.6,1.4-1s0.7-1,0.9-1.6c0.2-0.6,0.3-1.4,0.3-2.2
				c0-0.7-0.1-1.5-0.4-2.5c-0.3-0.9-0.6-1.9-1.1-3s-1-2.2-1.6-3.4s-1.2-2.4-1.9-3.6l7.5-4.2C119.1,29.5,119.4,29.9,119.7,30.6z"/>
			<path class="st2" d="M143,42.7c0.5,1.4,0.9,2.9,1.3,4.4c0.4,1.5,0.7,3,1,4.5s0.4,2.9,0.4,4.2c0,1.8-0.3,3.6-0.8,5.4
				c-0.5,1.8-1.2,3.5-2.1,5.1c-0.9,1.6-2,3.2-3.3,4.7s-2.6,2.9-4.2,4.3c-1.5,1.3-3.2,2.6-4.9,3.7s-3.6,2.2-5.4,3.1l-5.4-7.4
				c1.4-0.7,2.8-1.5,4.3-2.4c1.4-0.9,2.8-1.9,4.1-2.9s2.6-2.1,3.7-3.2s2.1-2.3,3-3.4c0.9-1.2,1.5-2.3,2-3.5s0.7-2.3,0.7-3.5
				c0-0.8-0.1-1.7-0.3-2.7s-0.5-2-0.9-3.1s-0.8-2.3-1.4-3.5c-0.5-1.2-1.1-2.6-1.7-4l8.5-3.9C142.1,40,142.5,41.3,143,42.7z"/>
			<path class="st2" d="M154.3,48.2c1.1,0.5,2.2,1,3.4,1.5c1.2,0.4,2.3,0.8,3.4,1.1c1.1,0.3,2.1,0.4,2.9,0.4c0.5,0,1.1,0,1.9-0.1
				c0.8-0.1,1.6-0.2,2.4-0.5c0.8-0.2,1.5-0.5,2-1c0.6-0.4,0.9-1,0.9-1.6c0-0.8-0.2-1.6-0.7-2.6s-1.1-2-1.9-3c-0.8-1-1.8-2.1-2.8-3.2
				c-1.1-1.1-2.2-2.1-3.3-3.1s-2.3-1.9-3.4-2.8c-1.1-0.9-2.2-1.6-3.1-2.2l5.2-7.7c1.9,1.3,3.8,2.8,5.7,4.5s3.6,3.4,5.2,5.3
				c1.6,1.8,3,3.8,4.1,5.7c1.2,2,2,4,2.5,6c0.2,0.6,0.3,1.1,0.3,1.7c0.1,0.6,0.1,1.1,0.1,1.7c0,1.8-0.4,3.5-1.1,5
				c-0.7,1.5-1.7,2.8-3,3.9c-1.3,1.1-2.8,2-4.5,2.6c-1.8,0.6-3.7,0.9-5.8,0.9c-0.2,0-0.3,0-0.5,0s-0.3,0-0.5,0
				c-1.4,0-2.7-0.1-4.2-0.4c-1.4-0.3-2.8-0.7-4.2-1.1c-1.4-0.5-2.7-1-4-1.6s-2.5-1.3-3.6-2l3.9-8.9
				C152.2,47.1,153.2,47.7,154.3,48.2z"/>
			<path class="st2" d="M184.5,55.4c0.1-1.7,0.2-3.4,0.3-5.1c0.1-1.7,0.1-3.3,0.1-4.9s0-3.1-0.1-4.4c-0.1-2.8-0.2-5.2-0.3-7.3
				s-0.2-4-0.3-5.6s-0.2-3.1-0.3-4.3s-0.2-2.3-0.3-3.4c-0.1-1-0.2-2-0.4-2.9c-0.1-0.9-0.3-1.8-0.4-2.8l9.1-3c0.4,2.6,0.8,5.3,1,7.9
				c0.3,2.7,0.5,5.2,0.6,7.7s0.2,4.7,0.3,6.8c0,2.1,0.1,3.9,0.1,5.4c0,1.4,0,2.8,0,4.4c0,1.6,0,3.2-0.1,4.9s-0.1,3.4-0.1,5.1
				c-0.1,1.7-0.1,3.4-0.3,5.1l-9.1,1.4C184.3,58.8,184.4,57.1,184.5,55.4z"/>
			<path class="st2" d="M219.7,60.3c-0.4,0-1,0-1.7-0.1s-1.5-0.3-2.4-0.6c-0.4,2.4-1.2,4.7-2.4,6.9s-2.7,4.2-4.4,6.2
				c-1.7,1.9-3.7,3.7-6,5.3c-2.2,1.6-4.6,3.1-7.2,4.3l-5.4-7.4c1.4-0.7,2.8-1.5,4.2-2.3s2.8-1.7,4-2.6c1.3-0.9,2.5-1.9,3.6-2.9
				s2.1-2.1,2.9-3.1c0.8-1.1,1.5-2.2,1.9-3.3c0.5-1.1,0.7-2.3,0.7-3.4c0-0.8-0.1-1.7-0.4-2.9c-0.3-1.2-0.7-2.4-1.1-3.8
				c-0.5-1.4-1-2.7-1.5-4.1s-1.1-2.6-1.6-3.8l8.5-3.7c0.8,2.4,1.5,4.3,2.3,5.9s1.4,2.8,2.1,3.8c0.7,0.9,1.3,1.6,1.9,2
				s1.2,0.6,1.8,0.6h0.7v9.3h-0.5L219.7,60.3L219.7,60.3z"/>
			<path class="st2" d="M247,51v9.3h-27.9V51H247z"/>
			<path class="st2" d="M246.9,51c0.7,0,1.6,0,2.6,0s2.1,0,3.3-0.1s2.4-0.1,3.6-0.2c1.2-0.1,2.4-0.2,3.5-0.4s2.1-0.4,3-0.7
				s1.7-0.7,2.3-1.1c-2.6,0.3-4.9,0.3-7.1,0.2c-2.1-0.1-4-0.5-5.6-1.2s-2.8-1.8-3.6-3.2c-0.9-1.4-1.3-3.3-1.3-5.6
				c0-1.1,0.1-2.2,0.3-3.3s0.5-2.3,1-3.4c0.4-1.1,1-2.2,1.6-3.1c0.6-1,1.4-1.9,2.3-2.6c0.9-0.7,1.8-1.3,2.9-1.8
				c1-0.4,2.2-0.7,3.4-0.7c1.6,0,3,0.3,4.3,0.9s2.4,1.4,3.5,2.4c1,1,1.9,2.2,2.7,3.5c0.8,1.3,1.4,2.7,1.9,4.2s0.9,3,1.1,4.5
				c0.3,1.5,0.4,3,0.4,4.4c0,2.4-0.3,4.4-1,6.2c-0.7,1.7-1.6,3.2-2.8,4.5s-2.6,2.3-4.2,3c-1.6,0.8-3.4,1.4-5.3,1.9s-4,0.8-6.1,0.9
				c-2.2,0.2-4.4,0.3-6.6,0.3h-1.1V51H246.9z M258.8,20.7l-6.5-6.5l6.5-6.5l6.5,6.5L258.8,20.7z M259,33.1c-0.5,0-0.9,0.1-1.4,0.4
				c-0.5,0.3-0.9,0.7-1.3,1.1c-0.4,0.5-0.7,1-1,1.6s-0.4,1.2-0.4,1.9c0,0.6,0.2,1.1,0.5,1.4c0.4,0.4,0.8,0.7,1.4,0.9
				s1.2,0.4,1.9,0.5c0.7,0.1,1.4,0.1,2.1,0.1s1.3,0,2,0s1.1-0.1,1.5-0.1c-0.2-0.9-0.4-1.8-0.7-2.7c-0.3-0.9-0.6-1.7-1.1-2.5
				c-0.4-0.7-0.9-1.4-1.5-1.9C260.4,33.4,259.7,33.1,259,33.1z"/>
			<path class="st2" d="M309,60.3c-1.6,0-3.2-0.3-4.8-0.8c-1.6-0.5-3.1-1.3-4.4-2.4c-1.3-1-2.4-2.3-3.2-3.8s-1.3-3.2-1.3-5
				c0-3.9,1.7-8,5.2-12.2c0.3-0.3,0.5-0.6,0.7-0.8s0.4-0.4,0.5-0.6c0.2-0.2,0.3-0.3,0.4-0.5l0.5-0.5l-1.8-1.5l5.9-7.2
				c1,0.7,2.2,1.8,3.6,3s3,2.9,4.8,4.8c5.1,5.8,7.6,10.9,7.6,15.5c0,2-0.4,3.7-1.2,5.2c-0.8,1.5-1.9,2.7-3.1,3.8
				c-1.3,1-2.8,1.8-4.4,2.3C312.3,60.1,310.6,60.3,309,60.3z M314.7,48.4c0-0.6-0.2-1.3-0.6-2.1s-0.9-1.6-1.5-2.4s-1.3-1.7-2.1-2.5
				c-0.8-0.9-1.6-1.7-2.4-2.5c-0.5,0.6-1.1,1.3-1.7,2s-1.1,1.5-1.6,2.3s-0.9,1.7-1.2,2.5c-0.3,0.9-0.5,1.7-0.4,2.6
				c0,0.5,0.2,0.9,0.7,1.2c0.4,0.4,0.9,0.6,1.5,0.9c0.6,0.2,1.2,0.4,1.9,0.5s1.2,0.2,1.7,0.2c0.6,0,1.2,0,1.9-0.1
				c0.7-0.1,1.3-0.2,1.9-0.5s1-0.5,1.4-0.9C314.5,49.3,314.7,48.9,314.7,48.4z"/>
			<path class="st2" d="M341.8,42.7c0.5,1.4,0.9,2.9,1.3,4.4s0.7,3,1,4.5s0.4,2.9,0.4,4.2c0,1.8-0.3,3.6-0.8,5.4
				c-0.5,1.8-1.2,3.5-2.1,5.1s-2,3.2-3.3,4.7s-2.6,2.9-4.2,4.3c-1.5,1.3-3.2,2.6-4.9,3.7c-1.7,1.1-3.6,2.2-5.4,3.1l-5.4-7.4
				c1.4-0.7,2.8-1.5,4.3-2.4c1.4-0.9,2.8-1.9,4.1-2.9c1.3-1,2.6-2.1,3.7-3.2s2.1-2.3,3-3.4c0.9-1.2,1.5-2.3,2-3.5s0.7-2.3,0.7-3.5
				c0-0.8-0.1-1.7-0.3-2.7c-0.2-1-0.5-2-0.9-3.1s-0.8-2.3-1.4-3.5c-0.5-1.2-1.1-2.6-1.7-4l8.5-3.9C340.9,40,341.3,41.3,341.8,42.7z"
				/>
			<path class="st2" d="M363.7,60.3c-2.5,0-4.5-0.3-6.2-1s-3.1-1.6-4.2-2.7s-1.9-2.5-2.3-4.1c-0.5-1.6-0.7-3.3-0.7-5.1
				c0-0.9,0-2.1,0.1-3.5c0-1.4,0.1-3,0.1-4.9c0-1.8,0-3.9,0-6.1c0-2.2-0.1-4.4-0.2-6.6s-0.2-4.3-0.4-6.4c-0.2-2-0.4-3.8-0.7-5.3
				l8.8-2.7c0.3,1.3,0.5,2.8,0.6,4.6c0.2,1.8,0.3,3.6,0.4,5.5s0.2,3.9,0.2,5.8c0,1.9,0.1,3.7,0.1,5.4c0,1.5,0,3-0.1,4.6
				s-0.1,3.2-0.2,4.7c0,1.5,0,2.8,0,4c0.1,1.2,0.3,2.1,0.5,2.7c0.2,0.5,0.4,0.8,0.7,1c0.3,0.2,0.6,0.4,0.9,0.5s0.7,0.2,1.2,0.2
				c0.4,0,0.9,0,1.4,0h0.8v9.3L363.7,60.3L363.7,60.3z"/>
			<path class="st2" d="M391.2,51v9.3h-27.9V51H391.2z"/>
			<path class="st2" d="M390,51h2.1c0.1-1.3,0.3-2.7,0.6-4.2c0.3-1.5,0.8-3.1,1.4-4.6s1.3-3,2.1-4.5c0.8-1.4,1.7-2.7,2.7-3.9
				c1-1.1,2-2.1,3.2-2.8c1.1-0.7,2.3-1.1,3.6-1.2c1.3,0,2.5,0.4,3.6,1.1s2.1,1.7,2.9,2.8c0.8,1.2,1.4,2.5,1.9,3.9
				c0.5,1.5,0.7,3,0.7,4.5c0,1.8-0.4,3.5-1.1,5.2s-1.8,3.3-3,4.7c-1.2,1.5-2.6,2.8-4.2,3.9c-1.6,1.2-3.2,2.1-4.8,2.9
				c0.1,0.5,0.4,1,0.9,1.7c0.4,0.7,0.9,1.3,1.5,2s1.1,1.3,1.7,1.9c0.6,0.6,1,1.1,1.4,1.4c0-1.1,0.1-2.3,0.5-3.5s0.8-2.3,1.5-3.4
				c0.6-1.1,1.4-2.1,2.3-3.1s1.8-1.8,2.8-2.5s2-1.3,3.1-1.7s2.1-0.6,3.1-0.6h1.5v9.3h-1.6c-0.9,0-1.7,0.2-2.5,0.7s-1.5,1-2.1,1.8
				c-0.6,0.7-1.1,1.5-1.5,2.4s-0.6,1.8-0.6,2.7c0,0.4,0,0.8,0.1,1.1c0.1,0.3,0.2,0.7,0.3,1c0.2,0.4,0.4,0.7,0.6,1.1
				c0.3,0.4,0.6,0.8,1,1.3l-5.4,6.6c-2.4-1.4-4.4-2.9-6.2-4.4c-1.8-1.5-3.3-3-4.6-4.6c-1.3-1.6-2.4-3.1-3.3-4.8s-1.6-3.2-2.2-4.9h-4
				V51z M407.4,43.5c0-0.5,0-1.1,0-1.8c0-0.6-0.1-1.2-0.3-1.8c-0.1-0.6-0.3-1.1-0.6-1.6c-0.3-0.5-0.6-0.8-0.9-1.1
				c-0.4,0.2-0.8,0.6-1.2,1.1c-0.4,0.6-0.9,1.2-1.3,2c-0.5,0.8-0.9,1.6-1.3,2.6c-0.4,0.9-0.8,1.9-1.1,2.8c-0.3,1-0.6,1.9-0.8,2.8
				c-0.2,0.9-0.3,1.7-0.3,2.5c0.8-0.2,1.7-0.5,2.6-1s1.8-1.1,2.5-1.8c0.8-0.7,1.4-1.5,2-2.3C407,45.3,407.3,44.4,407.4,43.5z"/>
			<path class="st2" d="M420.5,51h4c0.8,0,1.7-0.1,2.7-0.2c1-0.1,1.9-0.4,2.8-0.7s1.6-0.7,2.1-1.2c0.6-0.5,0.9-1.2,0.9-1.9
				c0-0.5-0.1-1.2-0.4-2.1c-0.3-0.9-0.6-2-1.1-3.1s-1-2.3-1.5-3.6c-0.6-1.3-1.1-2.5-1.7-3.6l8.4-4.2c0.5,1.2,1.1,2.6,1.6,3.9
				c0.5,1.4,1,2.8,1.5,4.2c0.4,1.4,0.8,2.9,1,4.3c0.3,1.4,0.4,2.8,0.4,4.1c0,2.4-0.4,4.4-1.2,6.1c-0.8,1.7-1.9,3.1-3.3,4.2
				c-1.4,1.1-3.1,1.9-5.1,2.4s-4.1,0.8-6.5,0.8h-4.7V51H420.5z M430,76.5l-6.5-6.5l6.5-6.5l6.5,6.5L430,76.5z"/>
			<path class="st2" d="M491,60.3c-1.7,0-3.6-0.1-5.7-0.2c-2-0.1-4.1-0.4-6.1-0.9c-2-0.4-4-1-5.9-1.8c-1.9-0.7-3.6-1.7-5-2.9
				c-1.5-1.2-2.7-2.6-3.6-4.4c-0.9-1.7-1.5-3.7-1.6-6.1c0-1.2,0.1-2.3,0.4-3.4c0.3-1.1,0.6-2.2,1-3.2s0.9-2.1,1.4-3.1s1.1-2,1.7-3
				l6.9,5.8c-0.3,0.4-0.6,0.9-1,1.6c-0.4,0.7-0.8,1.3-1.1,2.1c-0.4,0.7-0.7,1.5-0.9,2.2c-0.2,0.7-0.4,1.4-0.4,1.9
				c0,0.7,0.3,1.4,0.8,2s1.2,1.1,2.2,1.5c0.9,0.4,2,0.8,3.3,1.1s2.6,0.6,4.1,0.8s3,0.3,4.7,0.4c1.6,0.1,3.3,0.1,5,0.1
				c0.8,0,1.6,0,2.5,0s1.7,0,2.5,0s1.5,0,2.1-0.1c0.6,0,1,0,1.2-0.1c-0.7-0.8-1.3-1.8-1.9-2.9c-0.6-1.2-0.9-2.5-1-3.9
				c0-1.2,0.1-2.3,0.4-3.5s0.7-2.3,1.3-3.5c0.5-1.1,1.2-2.2,2-3.1c0.8-1,1.7-1.8,2.6-2.5c1-0.7,2-1.3,3.1-1.6
				c1.1-0.4,2.3-0.6,3.5-0.5c1.7,0.1,3.3,0.5,4.8,1.3s2.7,1.8,3.8,3.1s1.9,2.7,2.5,4.3s0.9,3.3,0.9,5c0,1.4-0.2,2.7-0.7,4
				s-1,2.5-1.7,3.7c0.9,0.1,1.9,0.2,2.8,0.3s1.7,0.1,2.5,0.1h1v9.3h-0.8c-1.2,0-2.5,0-3.8-0.1c-1.3,0-2.6-0.1-3.8-0.3
				c-1.3-0.2-2.5-0.4-3.8-0.7s-2.5-0.7-3.7-1.3c-0.5,0.3-1.1,0.5-1.9,0.8c-0.8,0.2-1.8,0.4-2.8,0.6s-2.2,0.3-3.4,0.5
				c-1.2,0.1-2.4,0.2-3.6,0.3s-2.4,0.2-3.5,0.2C493,60.3,491.9,60.3,491,60.3z M510.5,24.5L504,18l6.5-6.5L517,18L510.5,24.5z
				 M513.5,43.6c0-0.6-0.2-1.2-0.5-1.8s-0.7-1.1-1.1-1.5c-0.4-0.5-0.9-0.8-1.4-1.1s-1-0.5-1.4-0.6c-0.5,0.1-1,0.3-1.5,0.5
				c-0.6,0.3-1.1,0.6-1.6,1.1s-1,1-1.3,1.7c-0.4,0.7-0.5,1.4-0.5,2.3c0,0.3,0.2,0.7,0.5,1.2s0.7,1,1.2,1.6c0.5,0.5,1,1,1.6,1.5
				s1.3,0.8,1.9,1c0.5-0.3,1-0.7,1.5-1.1c0.5-0.5,1-1,1.4-1.5s0.7-1.1,1-1.6C513.4,44.6,513.5,44.1,513.5,43.6z"/>
			<path class="st2" d="M551.9,51v9.3H524V51H551.9z"/>
			<path class="st2" d="M577,51v9.3h-0.7c-0.9,0-1.9-0.1-2.8-0.2c-0.9-0.2-1.8-0.4-2.6-0.7s-1.5-0.6-2.2-1s-1.3-0.8-1.8-1.3
				c-0.9,0.7-2,1.3-3.2,1.7s-2.4,0.7-3.8,1c-1.3,0.2-2.7,0.4-4.1,0.4c-1.4,0.1-2.8,0.1-4.1,0.1h-1.1V51h1.1c1.4,0,2.7,0,3.8-0.1
				s2.1-0.2,2.9-0.4s1.5-0.5,2.1-0.8s1-0.7,1.4-1.2c0.5-0.6,0.7-1.3,0.8-2.1s0.1-1.6,0-2.4c-0.1-0.8-0.2-1.6-0.5-2.4
				c-0.2-0.8-0.4-1.6-0.6-2.3l8.6-2.4c0.2,0.9,0.4,1.7,0.6,2.4s0.3,1.4,0.4,2.1c0.1,0.7,0.2,1.4,0.3,2.1c0.1,0.7,0.2,1.5,0.3,2.3
				c0.1,0.5,0.2,1.1,0.3,1.7c0.1,0.6,0.3,1.2,0.6,1.7s0.7,1,1.2,1.3c0.5,0.4,1.2,0.5,2,0.5C575.9,51,577,51,577,51z M562.2,69
				l-5.5,5.5l-5.7-5.7l5.7-5.7l5.6,5.6l5.5-5.5l5.7,5.7l-5.7,5.7L562.2,69z"/>
			<path class="st2" d="M575.8,51h2.1c0.5,0,0.9,0,1.4,0s0.9-0.1,1.3-0.1c0.4,0,0.7-0.1,0.9-0.2c-0.4-0.4-0.7-0.8-1-1.3
				s-0.6-1-0.9-1.5c-0.3-0.5-0.5-1.1-0.7-1.8s-0.3-1.3-0.3-2.1c0-1.2,0.1-2.3,0.4-3.5c0.3-1.2,0.7-2.3,1.3-3.5
				c0.5-1.1,1.2-2.2,2-3.1c0.8-1,1.7-1.8,2.6-2.5c1-0.7,2-1.3,3.1-1.6c1.1-0.4,2.3-0.6,3.5-0.5c1.7,0.1,3.3,0.5,4.8,1.3
				s2.7,1.8,3.8,3.1s1.9,2.7,2.5,4.3s0.9,3.3,0.9,5c0,1.4-0.2,2.7-0.7,4s-1,2.5-1.7,3.7c0.5,0.1,1.1,0.2,1.9,0.3
				c0.7,0.1,1.7,0.1,2.9,0.1h0.6v9.3h-1.1c-1.3,0-2.5,0-3.6-0.1s-2.3-0.2-3.4-0.4c-1.1-0.2-2.2-0.4-3.3-0.7s-2.3-0.7-3.5-1.2
				c-0.7,0.4-1.6,0.8-2.7,1.1s-2.3,0.5-3.6,0.7s-2.6,0.3-4.1,0.4c-1.4,0.1-2.8,0.1-4.2,0.1h-1.1V51H575.8z M590.9,25.1l-6.5-6.5
				l6.5-6.5l6.5,6.5L590.9,25.1z M595.7,43.6c0-0.6-0.2-1.2-0.5-1.8s-0.7-1.1-1.1-1.5c-0.4-0.5-0.9-0.8-1.4-1.1s-1-0.5-1.4-0.6
				c-0.5,0.1-1,0.3-1.5,0.5c-0.6,0.3-1.1,0.6-1.6,1.1s-1,1-1.3,1.7c-0.4,0.7-0.5,1.4-0.5,2.3c0,0.3,0.2,0.7,0.5,1.2s0.7,1,1.2,1.6
				c0.5,0.5,1,1,1.6,1.5s1.3,0.8,1.9,1c0.5-0.3,1-0.7,1.5-1.1c0.5-0.5,1-1,1.4-1.5s0.7-1.1,1-1.6C595.6,44.6,595.7,44.1,595.7,43.6z
				"/>
			<path class="st2" d="M605.3,51h6c1.4,0,2.9-0.1,4.5-0.3s3.2-0.5,4.9-0.8s3.3-0.7,5-1.2s3.3-1,4.9-1.5c1.6-0.5,3.1-1.1,4.6-1.7
				s2.8-1.2,4-1.8c-1.2-0.3-2.6-0.7-4.1-1.2s-3-1-4.5-1.6s-3-0.9-4.5-1.3c-1.4-0.4-2.7-0.5-3.9-0.5c-0.7,0-1.4,0.2-2.1,0.5
				c-0.7,0.3-1.3,0.6-1.9,1.1s-1.1,0.9-1.6,1.4s-0.9,0.9-1.2,1.4c-0.3,0.4-0.6,0.8-0.8,1.1l-0.3,0.4l-7-4c0.8-1.5,1.7-2.9,2.8-4.2
				s2.3-2.5,3.6-3.6s2.7-1.8,4.1-2.5c1.4-0.6,2.8-0.9,4.3-0.9c1.1,0,2.1,0.1,3.2,0.4s2.1,0.5,3.2,0.9c1.1,0.4,2.1,0.8,3.2,1.3
				c1.1,0.5,2.2,1,3.3,1.5s2.4,1.1,3.7,1.6c1.4,0.5,2.8,1,4.3,1.4s3,0.7,4.5,1s3,0.4,4.5,0.4l-1.5,8.7c-0.5,0.2-1,0.4-1.5,0.7
				c-0.6,0.3-1.1,0.5-1.5,0.7l-0.8,0.4c0.5,0.5,1,1,1.7,1.3s1.4,0.5,2.1,0.7c0.7,0.1,1.4,0.2,2.1,0.3c0.7,0,1.2,0.1,1.6,0.1h1v9.3
				h-1c-1.9,0-3.7-0.2-5.3-0.5c-1.7-0.3-3.2-0.8-4.5-1.5c-1.4-0.6-2.6-1.4-3.6-2.3s-1.9-1.9-2.6-3.1c-1.9,0.9-4,1.9-6.1,2.7
				c-2.1,0.9-4.3,1.7-6.5,2.4c-2.3,0.7-4.6,1.3-7,1.7s-4.9,0.6-7.5,0.6h-6V51H605.3z M621.9,26.9l-6.5-6.5l6.5-6.5l6.5,6.5
				L621.9,26.9z"/>
			<path class="st2" d="M654.3,51h7.1c0.8,0,1.8,0,2.8-0.1s2-0.3,2.9-0.5c0.9-0.3,1.6-0.7,2.2-1.2s0.9-1.3,0.9-2.1
				c0-0.5-0.1-1.2-0.4-2.1c-0.3-0.9-0.7-2-1.1-3.1s-1-2.3-1.6-3.6s-1.2-2.5-1.7-3.6l8.4-4.2c0.5,1.2,1.1,2.6,1.6,3.9
				c0.5,1.4,1,2.8,1.5,4.2s0.8,2.9,1,4.3c0.3,1.4,0.4,2.8,0.4,4.1c0,2.4-0.4,4.5-1.3,6.2c-0.9,1.7-2.1,3.1-3.6,4.1
				c-1.5,1.1-3.3,1.8-5.4,2.3c-2.1,0.5-4.3,0.7-6.6,0.7h-7V51H654.3z M668,20.7l-5.5,5.5l-5.7-5.7l5.7-5.7l5.6,5.6l5.5-5.5l5.7,5.7
				l-5.7,5.7L668,20.7z"/>
			<path class="st2" d="M714.5,60.3c-1.6,0-3.2-0.3-4.8-0.8s-3.1-1.3-4.4-2.4c-1.3-1-2.4-2.3-3.2-3.8s-1.3-3.2-1.3-5
				c0-3.9,1.7-8,5.2-12.2c0.3-0.3,0.5-0.6,0.7-0.8s0.4-0.4,0.5-0.6s0.3-0.3,0.4-0.5l0.5-0.5l-1.8-1.5l5.9-7.2c1,0.7,2.2,1.8,3.6,3
				c1.4,1.3,3,2.9,4.8,4.8c5.1,5.8,7.6,10.9,7.6,15.5c0,2-0.4,3.7-1.2,5.2s-1.9,2.7-3.1,3.8c-1.3,1-2.8,1.8-4.4,2.3
				C717.8,60.1,716.2,60.3,714.5,60.3z M720.2,48.4c0-0.6-0.2-1.3-0.6-2.1c-0.4-0.8-0.9-1.6-1.5-2.4c-0.6-0.8-1.3-1.7-2.1-2.5
				c-0.8-0.9-1.6-1.7-2.4-2.5c-0.5,0.6-1.1,1.3-1.7,2c-0.6,0.7-1.1,1.5-1.6,2.3s-0.9,1.7-1.2,2.5c-0.3,0.9-0.5,1.7-0.4,2.6
				c0,0.5,0.2,0.9,0.7,1.2s0.9,0.6,1.5,0.9c0.6,0.2,1.2,0.4,1.9,0.5s1.2,0.2,1.7,0.2c0.6,0,1.2,0,1.9-0.1s1.3-0.2,1.9-0.5
				c0.6-0.2,1-0.5,1.4-0.9C720,49.3,720.2,48.9,720.2,48.4z"/>
			<path class="st2" d="M747.3,42.7c0.5,1.4,0.9,2.9,1.3,4.4c0.4,1.5,0.7,3,1,4.5s0.4,2.9,0.4,4.2c0,1.8-0.3,3.6-0.8,5.4
				c-0.5,1.8-1.2,3.5-2.1,5.1c-0.9,1.6-2,3.2-3.3,4.7s-2.6,2.9-4.2,4.3c-1.5,1.3-3.2,2.6-4.9,3.7s-3.6,2.2-5.4,3.1l-5.4-7.4
				c1.4-0.7,2.8-1.5,4.3-2.4c1.4-0.9,2.8-1.9,4.2-2.9c1.3-1,2.6-2.1,3.7-3.2c1.1-1.1,2.1-2.3,3-3.4c0.9-1.2,1.5-2.3,2-3.5
				s0.7-2.3,0.7-3.5c0-0.8-0.1-1.7-0.3-2.7s-0.5-2-0.9-3.1s-0.8-2.3-1.4-3.5c-0.5-1.2-1.1-2.6-1.7-4l8.5-3.9
				C746.4,40,746.8,41.3,747.3,42.7z"/>
			<path class="st2" d="M755.6,55.4c0.1-1.7,0.2-3.4,0.3-5.1c0.1-1.7,0.1-3.3,0.1-4.9s0-3.1-0.1-4.4c-0.1-2.8-0.2-5.2-0.3-7.3
				s-0.2-4-0.3-5.6s-0.2-3.1-0.3-4.3s-0.2-2.3-0.3-3.4c-0.1-1-0.2-2-0.4-2.9c-0.1-0.9-0.3-1.8-0.4-2.8l9.1-3c0.4,2.6,0.8,5.3,1,7.9
				c0.3,2.7,0.5,5.2,0.6,7.7c0.1,2.4,0.2,4.7,0.3,6.8s0.1,3.9,0.1,5.4c0,1.4,0,2.8,0,4.4c0,1.6,0,3.2-0.1,4.9s-0.1,3.4-0.1,5.1
				c-0.1,1.7-0.1,3.4-0.3,5.1l-9.1,1.4C755.4,58.8,755.5,57.1,755.6,55.4z"/>
			<path class="st2" d="M767.7,72c2.8-0.5,5.3-1.2,7.6-2.1c2.3-0.8,4.3-1.8,6-2.8s3.1-2.1,4.3-3.3c1.1-1.2,1.9-2.3,2.4-3.5
				c-0.8,0-1.7,0-2.7,0c-0.9,0-1.7-0.1-2.3-0.1c-1.9-0.2-3.7-0.5-5.3-1.1s-3-1.4-4.1-2.4s-2-2.2-2.7-3.7c-0.6-1.5-0.9-3.1-0.9-5
				c0-1.2,0.1-2.4,0.4-3.7c0.3-1.3,0.6-2.5,1.1-3.7s1.1-2.3,1.8-3.4c0.7-1.1,1.5-2,2.4-2.8s1.9-1.4,3-1.9s2.3-0.7,3.5-0.7
				c1.5,0,2.9,0.3,4.1,0.8c1.3,0.5,2.4,1.3,3.5,2.2c1,0.9,2,2,2.8,3.3c0.8,1.2,1.5,2.6,2.1,4s1.1,2.9,1.5,4.4s0.7,3,0.8,4.5h1.3v9.3
				h-1.9c-0.8,2.9-2,5.5-3.7,7.8s-3.7,4.4-6,6.1s-4.9,3.2-7.8,4.3c-2.9,1.1-5.8,1.9-8.9,2.4L767.7,72z M782.1,41.2
				c-0.4-0.1-0.9,0.1-1.4,0.4c-0.5,0.4-1,0.9-1.5,1.5s-0.8,1.3-1.1,2s-0.5,1.5-0.4,2.1c0,0.7,0.2,1.2,0.6,1.6s0.9,0.8,1.6,1.1
				c0.6,0.3,1.4,0.5,2.2,0.6s1.6,0.2,2.4,0.3c0.8,0.1,1.6,0.1,2.3,0.1h1.8c-0.3-1.2-0.6-2.4-1-3.5s-0.9-2.1-1.4-3s-1.1-1.6-1.8-2.2
				S782.9,41.4,782.1,41.2z"/>
			<path class="st2" d="M824.9,51v9.3H797V51H824.9z"/>
			<path class="st2" d="M845.6,51v9.3H845c-1.9,0-3.5-0.3-4.8-0.8s-2.5-1.3-3.4-2.2c-1.4,1-3.1,1.8-5,2.3s-4.2,0.7-6.9,0.7h-1.1V51
				h1.1c2.7,0,4.7-0.4,6.1-1.3c1.4-0.9,2.1-2.2,2.1-4c0-0.6-0.1-1.4-0.2-2.5c-0.2-1.1-0.5-2.5-1-4.2l8.3-2c0.3,1.1,0.6,2,0.8,2.9
				s0.4,1.6,0.5,2.3s0.2,1.3,0.3,1.9c0.1,0.6,0.1,1.1,0.1,1.7c0,0.5,0.1,1.1,0.2,1.8c0.1,0.6,0.2,1.2,0.5,1.7s0.5,1,0.9,1.3
				s0.9,0.5,1.6,0.5h0.5L845.6,51L845.6,51z M833,32.3l-6.5-6.5l6.5-6.5l6.5,6.5L833,32.3z"/>
			<path class="st2" d="M845,51c1,0,2-0.2,2.9-0.5s1.8-1,2.6-2s1.6-2.4,2.3-4.2s1.4-4.1,2-7l7.8,1.1c0,0.1,0,0.2-0.1,0.4
				c-0.1,0.5-0.3,1.2-0.4,2.1c-0.2,0.9-0.3,1.9-0.5,3c-0.1,1.1-0.2,2.2-0.2,3.2s0.1,1.9,0.4,2.6s0.6,1.2,1.2,1.3
				c0.6,0.2,1.2,0,1.8-0.4s1.1-1,1.6-1.7c0.5-0.8,1-1.6,1.4-2.6s0.8-2,1.2-3.1s0.7-2.1,0.9-3.1c0.3-1,0.5-1.9,0.6-2.7l7.8,1.1
				c0,0.5-0.1,1.1-0.2,2c-0.1,0.8-0.2,1.7-0.2,2.6s-0.1,1.8-0.1,2.8c0,0.9,0.1,1.8,0.3,2.5c0.2,0.8,0.5,1.4,0.9,1.9s1,0.7,1.7,0.7
				c0.6,0,1.2-0.2,1.7-0.6c0.5-0.4,0.9-1,1.2-1.7s0.6-1.5,0.8-2.4s0.3-1.8,0.4-2.7c0.1-0.9,0.1-1.8,0.1-2.7s0-1.6-0.1-2.3l7.9-1.1
				l1,8.3c0.1,0.9,0.4,1.7,0.8,2.4c0.4,0.7,0.9,1.2,1.4,1.7c0.5,0.4,1.1,0.8,1.7,1c0.6,0.2,1.1,0.3,1.7,0.3h0.9v9.3h-0.9
				c-1.9,0-3.7-0.3-5.4-1s-3.1-1.8-4.4-3.4c-0.1,0.2-0.2,0.3-0.4,0.4c-0.1,0.1-0.2,0.2-0.3,0.4l0,0c-1.1,1.1-2.3,2-3.7,2.7
				s-2.9,1-4.5,1c-1.8,0-3.4-0.4-4.9-1.1s-2.8-1.8-3.8-3.1c-1.2,1.3-2.5,2.3-4,3.1s-3.1,1.2-4.9,1.2c-1.7,0-3.2-0.4-4.7-1.1
				s-2.6-1.8-3.6-3.1c-1.1,1.5-2.4,2.5-3.9,3.1c-1.6,0.6-3.5,0.9-5.8,0.9h-0.6V51H845z M862.6,38.5L862.6,38.5
				C862.6,38.3,862.6,38.3,862.6,38.5z M874.4,26l-5.5,5.5l-5.7-5.7l5.7-5.7l5.6,5.6l5.5-5.5l5.7,5.7l-5.7,5.7L874.4,26z
				 M879.7,17.4l-5.2,5.2l-5.3-5.3l5.2-5.2L879.7,17.4z"/>
			<path class="st2" d="M898.9,51h6.2c3.2,0,6.1-0.2,8.8-0.6s5.1-0.9,7.5-1.5c2.3-0.6,4.5-1.4,6.6-2.3c2.1-0.9,4.1-1.7,6.1-2.7
				c-1.3-0.4-2.7-0.8-4-1.4c-1.3-0.5-2.7-1.1-4-1.6s-2.7-0.9-4-1.3c-1.3-0.4-2.7-0.5-4-0.5c-0.9,0-1.8,0.2-2.7,0.7s-1.7,1-2.4,1.7
				c-0.7,0.6-1.3,1.2-1.8,1.8s-0.8,1-0.9,1.2l-6.8-4.4c0.7-1.3,1.6-2.6,2.6-3.9c1-1.3,2.1-2.4,3.4-3.3c1.2-1,2.5-1.8,4-2.3
				s2.9-0.9,4.5-0.9c1.2,0,2.3,0.1,3.5,0.4c1.2,0.2,2.3,0.6,3.5,1c1.1,0.4,2.3,0.8,3.4,1.3c1.1,0.5,2.2,1,3.3,1.5
				c1,0.5,2.1,1,3.1,1.5c1.1,0.5,2.1,0.9,3.3,1.3c1.1,0.4,2.3,0.7,3.5,1s2.5,0.4,3.8,0.4l-0.7,9l-4.2,2c-1.7,0.8-3.4,1.7-5.1,2.5
				s-3.4,1.7-5.2,2.5c-1.7,0.8-3.6,1.6-5.4,2.3c-1.9,0.7-3.8,1.4-5.9,1.9c-2,0.5-4.2,1-6.5,1.3s-4.7,0.5-7.3,0.5h-6.2L898.9,51
				L898.9,51z M923.2,76.4l-6.5-6.5l6.5-6.5l6.5,6.5L923.2,76.4z"/>
		</g>
	</g>
</g>
<g>
	<path class="st2" d="M747.9,128.9h21.3c1.9,0,3.3-0.4,4.1-1.3c0.9-0.8,1.3-2.2,1.3-4.1v-4.7v-1h1h4.5h1v1v4.6c0,3.8-1,6.7-3.1,8.7
		c-2,2-5.1,3-9,3h-21c-4,0-7-1-9.2-3c-2.1-2-3.2-4.8-3.2-8.6v-4.8v-1h1h4.5h1v1v4.8c0,1.9,0.5,3.2,1.4,4.1
		C744.5,128.5,745.9,128.9,747.9,128.9z M749.4,113.8l4.4-4l4.3,4l-4.3,4L749.4,113.8z M758.8,113.8l4.3-4l4.4,4
		c-0.1,0.1-0.2,0.2-0.3,0.3c-0.2,0.2-0.8,0.8-1.8,1.7c-1,0.9-1.7,1.6-2.2,2.1L758.8,113.8z"/>
	<path class="st2" d="M798.3,135.2h-1.2c-3.1,0-5.4-0.9-7-2.6c-1.6-1.7-2.4-4.2-2.4-7.4v-21v-1h1h4.3h1v1v21.1
		c0,1.3,0.3,2.3,0.8,2.9c0.5,0.6,1.3,0.8,2.4,0.8h1.1c0.2,0,0.3,0.3,0.5,1c0.1,0.7,0.2,1.3,0.2,1.9v0.3c0,0.7-0.1,1.3-0.2,2
		C798.7,134.8,798.5,135.2,798.3,135.2z"/>
	<path class="st2" d="M804.7,128.9c0.2,0,0.4,0.3,0.5,1s0.2,1.3,0.2,1.9v0.3c0,0.7-0.1,1.3-0.2,2c-0.1,0.7-0.3,1-0.5,1H798
		c-0.2,0-0.4-0.3-0.5-1s-0.2-1.3-0.2-2v-0.3c0-0.6,0.1-1.3,0.2-1.9c0.1-0.7,0.3-1,0.5-1H804.7z"/>
	<path class="st2" d="M811.2,128.9c0.2,0,0.4,0.3,0.5,1s0.2,1.3,0.2,1.9v0.3c0,0.7-0.1,1.3-0.2,2c-0.1,0.7-0.3,1-0.5,1h-6.7
		c-0.2,0-0.4-0.3-0.5-1s-0.2-1.3-0.2-2v-0.3c0-0.6,0.1-1.3,0.2-1.9c0.1-0.7,0.3-1,0.5-1H811.2z"/>
	<path class="st2" d="M817.6,128.9c0.2,0,0.4,0.3,0.5,1s0.2,1.3,0.2,1.9v0.3c0,0.7-0.1,1.3-0.2,2c-0.1,0.7-0.3,1-0.5,1h-6.7
		c-0.2,0-0.4-0.3-0.5-1s-0.2-1.3-0.2-2v-0.3c0-0.6,0.1-1.3,0.2-1.9c0.1-0.7,0.3-1,0.5-1H817.6z"/>
	<path class="st2" d="M824.1,128.9c0.2,0,0.4,0.3,0.5,1s0.2,1.3,0.2,1.9v0.3c0,0.7-0.1,1.3-0.2,2c-0.1,0.7-0.3,1-0.5,1h-6.7
		c-0.2,0-0.4-0.3-0.5-1s-0.2-1.3-0.2-2v-0.3c0-0.6,0.1-1.3,0.2-1.9c0.1-0.7,0.3-1,0.5-1H824.1z"/>
	<path class="st2" d="M823.8,128.9h5.6c-1.4-1.7-2.1-3.5-2.1-5.5c0-3,1.1-5.5,3.2-7.5c2.1-2,4.8-3,8.1-3c3.7,0,6.7,1.3,9,3.9
		l0.4,0.5l-0.3,0.6l-1.9,3.2l-0.6,1.1l-1-0.9c-1.6-1.4-3.4-2.1-5.4-2.1c-1.4,0-2.5,0.4-3.4,1.1c-0.9,0.8-1.4,1.7-1.4,2.9
		c0,1.2,0.7,2.3,2.1,3.4c1.3,1,2.2,1.5,2.9,1.5c0.5,0,1.6-0.2,3.2-0.5l5.5-1.2l1.3-0.3v1.2v4.3v0.7l-0.7,0.2
		c-6.1,1.7-11.5,2.5-16.2,2.5h-8c-0.2,0-0.4-0.3-0.5-1s-0.2-1.3-0.2-2v-0.3c0-0.6,0.1-1.3,0.2-1.9
		C823.5,129.3,823.7,128.9,823.8,128.9z"/>
	<path class="st2" d="M865.8,135.2h-1.2c-3.1,0-5.4-0.9-7-2.6c-1.6-1.7-2.4-4.2-2.4-7.4v-21v-1h1h4.3h1v1v21.1
		c0,1.3,0.3,2.3,0.8,2.9c0.5,0.6,1.3,0.8,2.4,0.8h1.1c0.2,0,0.3,0.3,0.5,1c0.1,0.7,0.2,1.3,0.2,1.9v0.3c0,0.7-0.1,1.3-0.2,2
		C866.2,134.8,866,135.2,865.8,135.2z"/>
	<path class="st2" d="M872.3,128.9c0.2,0,0.4,0.3,0.5,1s0.2,1.3,0.2,1.9v0.3c0,0.7-0.1,1.3-0.2,2c-0.1,0.7-0.3,1-0.5,1h-6.7
		c-0.2,0-0.4-0.3-0.5-1s-0.2-1.3-0.2-2v-0.3c0-0.6,0.1-1.3,0.2-1.9c0.1-0.7,0.3-1,0.5-1H872.3z"/>
	<path class="st2" d="M878.7,128.9c0.2,0,0.4,0.3,0.5,1s0.2,1.3,0.2,1.9v0.3c0,0.7-0.1,1.3-0.2,2c-0.1,0.7-0.3,1-0.5,1H872
		c-0.2,0-0.4-0.3-0.5-1s-0.2-1.3-0.2-2v-0.3c0-0.6,0.1-1.3,0.2-1.9c0.1-0.7,0.3-1,0.5-1H878.7z"/>
	<path class="st2" d="M885.2,128.9c0.2,0,0.4,0.3,0.5,1s0.2,1.3,0.2,1.9v0.3c0,0.7-0.1,1.3-0.2,2c-0.1,0.7-0.3,1-0.5,1h-6.7
		c-0.2,0-0.4-0.3-0.5-1s-0.2-1.3-0.2-2v-0.3c0-0.6,0.1-1.3,0.2-1.9c0.1-0.7,0.3-1,0.5-1H885.2z"/>
	<path class="st2" d="M884.9,128.9h2.5c1.8,0,3.1-0.3,3.9-0.9c0.8-0.6,1.2-1.5,1.2-2.8V119v-1h1h4.4h1v1v6.3c0,1.3,0.3,2.2,0.9,2.8
		c0.6,0.6,1.5,0.8,2.9,0.8c1.3,0,2.2-0.3,2.7-0.9c0.6-0.6,0.9-1.5,0.9-2.8v-6.3v-1h1h4.4h1v1v6.2c0,1.3,0.3,2.3,0.9,2.9
		c0.6,0.6,1.5,0.8,2.8,0.8c1,0,1.7-0.3,2.1-0.8c0.4-0.5,0.6-1.5,0.6-2.8v-7.1v-1h1h4.5h1v1v7.3c0,3-0.8,5.3-2.4,7.1
		c-1.6,1.7-3.9,2.6-6.7,2.6c-3,0-5.3-0.9-6.9-2.7c-1.6,1.8-4,2.7-7.1,2.7c-2.9,0-5.2-0.9-6.9-2.8c-1.8,1.8-4.7,2.8-8.4,2.8h-2.4
		c-0.2,0-0.4-0.3-0.5-1s-0.2-1.3-0.2-2v-0.3c0-0.6,0.1-1.3,0.2-1.9C884.6,129.3,884.7,128.9,884.9,128.9z"/>
	<path class="st2" d="M770.6,175.9h-0.4v0.9c0,3.2-1.3,5.6-4,7.3c-2.6,1.7-6.4,2.5-11.2,2.5h-2.5c-5.3,0-9.3-1.2-12.1-3.6
		c-2.7-2.4-4.1-5.9-4.1-10.5v-8.2v-1h1h4.5h1v1v8.1c0,2.7,0.8,4.7,2.3,6s4,1.9,7.3,1.9h2.5c1.3,0,2.5-0.1,3.5-0.2
		c1-0.1,1.9-0.3,2.7-0.6s1.4-0.7,1.9-1.2c0.4-0.5,0.6-1.1,0.6-1.8v-0.8h-5.5c-0.8,0-1.4-0.2-1.8-0.6c-0.4-0.4-0.8-1.2-1.1-2.2
		c-0.4-1.3-0.5-2.2-0.4-2.7s0.6-0.7,1.5-0.7h14.2c0.2,0,0.3,0.3,0.5,1c0.1,0.7,0.2,1.3,0.2,1.9v0.3c0,0.7-0.1,1.3-0.2,2
		C770.9,175.6,770.8,175.9,770.6,175.9z M773.8,169.7c0.1,0,0.2,0.3,0.3,1s0.1,1.3,0.1,1.9v0.3c0,0.7,0,1.3-0.1,2s-0.2,1-0.3,1H770
		c-0.1,0-0.2-0.3-0.3-1s-0.1-1.3-0.1-2v-0.3c0-0.6,0-1.3,0.1-1.9c0.1-0.7,0.2-1,0.3-1H773.8z"/>
	<path class="st2" d="M780,169.7c0.2,0,0.4,0.3,0.5,1s0.2,1.3,0.2,1.9v0.3c0,0.7-0.1,1.3-0.2,2c-0.1,0.7-0.3,1-0.5,1h-6.7
		c-0.2,0-0.4-0.3-0.5-1s-0.2-1.3-0.2-2v-0.3c0-0.6,0.1-1.3,0.2-1.9c0.1-0.7,0.3-1,0.5-1H780z"/>
	<path class="st2" d="M786.4,169.7c0.2,0,0.4,0.3,0.5,1s0.2,1.3,0.2,1.9v0.3c0,0.7-0.1,1.3-0.2,2c-0.1,0.7-0.3,1-0.5,1h-6.7
		c-0.2,0-0.4-0.3-0.5-1s-0.2-1.3-0.2-2v-0.3c0-0.6,0.1-1.3,0.2-1.9c0.1-0.7,0.3-1,0.5-1H786.4z"/>
	<path class="st2" d="M792.9,169.7c0.2,0,0.4,0.3,0.5,1s0.2,1.3,0.2,1.9v0.3c0,0.7-0.1,1.3-0.2,2c-0.1,0.7-0.3,1-0.5,1h-6.7
		c-0.2,0-0.4-0.3-0.5-1s-0.2-1.3-0.2-2v-0.3c0-0.6,0.1-1.3,0.2-1.9c0.1-0.7,0.3-1,0.5-1H792.9z"/>
	<path class="st2" d="M799.3,169.7c0.2,0,0.4,0.3,0.5,1s0.2,1.3,0.2,1.9v0.3c0,0.7-0.1,1.3-0.2,2c-0.1,0.7-0.3,1-0.5,1h-6.7
		c-0.2,0-0.4-0.3-0.5-1s-0.2-1.3-0.2-2v-0.3c0-0.6,0.1-1.3,0.2-1.9c0.1-0.7,0.3-1,0.5-1H799.3z"/>
	<path class="st2" d="M805.8,169.7c0.2,0,0.4,0.3,0.5,1s0.2,1.3,0.2,1.9v0.3c0,0.7-0.1,1.3-0.2,2c-0.1,0.7-0.3,1-0.5,1h-6.7
		c-0.2,0-0.4-0.3-0.5-1s-0.2-1.3-0.2-2v-0.3c0-0.6,0.1-1.3,0.2-1.9c0.1-0.7,0.3-1,0.5-1H805.8z"/>
	<path class="st2" d="M812.3,169.7c0.2,0,0.4,0.3,0.5,1s0.2,1.3,0.2,1.9v0.3c0,0.7-0.1,1.3-0.2,2c-0.1,0.7-0.3,1-0.5,1h-6.7
		c-0.2,0-0.4-0.3-0.5-1s-0.2-1.3-0.2-2v-0.3c0-0.6,0.1-1.3,0.2-1.9c0.1-0.7,0.3-1,0.5-1H812.3z"/>
	<path class="st2" d="M812,169.7h5.2c1.6,0,2.7-0.2,3.3-0.7s0.9-1.5,0.9-2.9v-7v-1h1h4.5h1v1v7.1c0,3.2-0.9,5.6-2.8,7.3
		s-4.5,2.5-8,2.5H812c-0.2,0-0.4-0.3-0.5-1s-0.2-1.3-0.2-2v-0.3c0-0.6,0.1-1.3,0.2-1.9C811.6,170,811.8,169.7,812,169.7z
		 M818.6,150.4l4.4-4.1l4.4,4.1l-4.4,4.1L818.6,150.4z"/>
	<path class="st2" d="M845.9,175.9h-1.2c-3.1,0-5.4-0.9-7-2.6c-1.6-1.7-2.4-4.2-2.4-7.4v-21v-1h1h4.3h1v1V166c0,1.3,0.3,2.3,0.8,2.9
		c0.5,0.6,1.3,0.8,2.4,0.8h1.1c0.2,0,0.3,0.3,0.5,1c0.1,0.7,0.2,1.3,0.2,1.9v0.3c0,0.7-0.1,1.3-0.2,2
		C846.2,175.6,846.1,175.9,845.9,175.9z"/>
	<path class="st2" d="M852.3,169.7c0.2,0,0.4,0.3,0.5,1s0.2,1.3,0.2,1.9v0.3c0,0.7-0.1,1.3-0.2,2c-0.1,0.7-0.3,1-0.5,1h-6.7
		c-0.2,0-0.4-0.3-0.5-1s-0.2-1.3-0.2-2v-0.3c0-0.6,0.1-1.3,0.2-1.9c0.1-0.7,0.3-1,0.5-1H852.3z"/>
	<path class="st2" d="M858.7,169.7c0.2,0,0.4,0.3,0.5,1s0.2,1.3,0.2,1.9v0.3c0,0.7-0.1,1.3-0.2,2c-0.1,0.7-0.3,1-0.5,1H852
		c-0.2,0-0.4-0.3-0.5-1s-0.2-1.3-0.2-2v-0.3c0-0.6,0.1-1.3,0.2-1.9c0.1-0.7,0.3-1,0.5-1H858.7z"/>
	<path class="st2" d="M856.6,183.8l4.4-4l4.3,4l-4.3,4L856.6,183.8z M858.5,169.7h7.3c1.6,0,2.7-0.2,3.3-0.7s0.9-1.5,0.9-2.9v-7v-1
		h1h4.5h1v1v7.1c0,3.2-0.9,5.6-2.7,7.3s-4.5,2.5-8,2.5h-7.3c-0.2,0-0.4-0.3-0.5-1s-0.2-1.3-0.2-2v-0.3c0-0.6,0.1-1.3,0.2-1.9
		C858.2,170,858.3,169.7,858.5,169.7z M865.9,183.8l4.3-4l4.4,4c-0.1,0.1-0.2,0.2-0.3,0.3c-0.2,0.2-0.8,0.8-1.8,1.7
		s-1.7,1.6-2.2,2.1L865.9,183.8z"/>
	<path class="st2" d="M894.4,175.9h-1.2c-3.1,0-5.4-0.9-7-2.6c-1.6-1.7-2.4-4.2-2.4-7.4v-21v-1h1h4.3h1v1V166c0,1.3,0.3,2.3,0.8,2.9
		c0.5,0.6,1.3,0.8,2.4,0.8h1.1c0.2,0,0.3,0.3,0.5,1c0.1,0.7,0.2,1.3,0.2,1.9v0.3c0,0.7-0.1,1.3-0.2,2
		C894.8,175.6,894.6,175.9,894.4,175.9z"/>
	<path class="st2" d="M900.9,169.7c0.2,0,0.4,0.3,0.5,1s0.2,1.3,0.2,1.9v0.3c0,0.7-0.1,1.3-0.2,2c-0.1,0.7-0.3,1-0.5,1h-6.7
		c-0.2,0-0.4-0.3-0.5-1s-0.2-1.3-0.2-2v-0.3c0-0.6,0.1-1.3,0.2-1.9c0.1-0.7,0.3-1,0.5-1H900.9z"/>
	<path class="st2" d="M907.3,169.7c0.2,0,0.4,0.3,0.5,1s0.2,1.3,0.2,1.9v0.3c0,0.7-0.1,1.3-0.2,2c-0.1,0.7-0.3,1-0.5,1h-6.7
		c-0.2,0-0.4-0.3-0.5-1s-0.2-1.3-0.2-2v-0.3c0-0.6,0.1-1.3,0.2-1.9c0.1-0.7,0.3-1,0.5-1H907.3z"/>
	<path class="st2" d="M905.4,182.9l4.2-3.8l4.1,3.8l-4.1,3.9L905.4,182.9z M907.1,169.7h7.3c1.6,0,2.7-0.2,3.3-0.7s0.9-1.5,0.9-2.9
		v-7v-1h1h4.5h1v1v7.1c0,3.2-0.9,5.6-2.7,7.3s-4.5,2.5-8,2.5h-7.3c-0.2,0-0.4-0.3-0.5-1s-0.2-1.3-0.2-2v-0.3c0-0.6,0.1-1.3,0.2-1.9
		C906.7,170,906.9,169.7,907.1,169.7z M910.1,188.9l4.2-3.9l4.1,3.9l-4.1,3.8L910.1,188.9z M914.8,182.9l4.1-3.8l4.2,3.8l-4.2,3.9
		L914.8,182.9z"/>
</g>
</svg>
