<?xml version="1.0" encoding="utf-8"?>
<!-- Generator: Adobe Illustrator 23.0.1, SVG Export Plug-In . SVG Version: 6.00 Build 0)  -->
<svg version="1.1" id="Layer_1" xmlns="http://www.w3.org/2000/svg" xmlns:xlink="http://www.w3.org/1999/xlink" x="0px" y="0px"
	 viewBox="0 0 992 400" style="enable-background:new 0 0 992 400;" width="992" height="400"  xml:space="preserve">
<style type="text/css">
	.st0{fill:#061133;stroke:#FFFFFF;stroke-width:3;stroke-miterlimit:10;}
	.st1{fill:#FFC200;}
	.st2{fill:#FFFFFF;}
	.st3{fill:#032D44;}
	.st4{fill:#E50000;}
	.st5{fill:#004F49;}
	.st6{opacity:0.35;fill:#FFFFFF;enable-background:new    ;}
	.st7{opacity:0.48;}
</style>
<path class="st0" d="M946.3,200.6H452.5c-5.9,0-10.6-4.7-10.6-10.6v-80.4c0-5.9,4.7-10.6,10.6-10.6h493.9c5.9,0,10.6,4.7,10.6,10.6
	v80.5C956.9,195.9,952.2,200.6,946.3,200.6z"/>
<g>
	<g>
		<g>
			<g>
				<path class="st1" d="M705.9,180.8H484.6c-3.9,0-7.5-3.4-7.5-7.5v-48.1c0-3.9,3.4-7.5,7.5-7.5H706c3.9,0,7.5,3.4,7.5,7.5v48.1
					C713.6,177.4,710.2,180.8,705.9,180.8z"/>
				<path class="st2" d="M705.9,182.3H484.6c-5,0-9.4-4.2-9.4-9.4v-47.8c0-5,4.2-9.4,9.4-9.4H706c5,0,9.4,4.2,9.4,9.4v48.1
					C715.2,178.4,711.2,182.3,705.9,182.3z M484.6,119.4c-3.2,0-5.8,2.6-5.8,5.8v48.1c0,3.2,2.6,5.8,5.8,5.8H706
					c3.2,0,5.8-2.6,5.8-5.8v-48.1c0-3.2-2.6-5.8-5.8-5.8H484.6z"/>
			</g>
		</g>
	</g>
	<g>
		<path class="st3" d="M519.9,161.6c-0.5,0.3-1.3,0.5-1.8,0.8c-0.8,0.3-1.8,0.3-2.9,0.5c-0.8,0-2.1,0.3-3.2,0.3h-14.5
			c-3.4,0-5.8-0.8-7.5-2.6c-1.8-1.8-2.6-4.4-2.6-7.9v-4.4v-0.8h0.8h3.9h0.8v0.8v4.4c0,1.8,0.3,2.9,1.3,3.7c0.8,0.8,2.1,1.3,3.7,1.3
			h15.6c-0.8-1.3-1.3-2.9-1.3-4.7c0-1.3,0.3-2.4,0.5-3.4c0.3-0.8,0.8-1.8,1.8-2.9c1.8-1.5,3.7-2.4,6.1-2.4s4.4,0.8,6.1,2.4
			c0.8,0.8,1.3,1.8,1.8,2.9c0.3,0.8,0.5,2.4,0.5,3.4c0,1.8-0.3,3.4-1.3,4.7h3.4c0.3,0,0.3,0,0.5,0c0.3,0,0.3,0.3,0.3,0.3
			c0,0.3,0.3,0.3,0.3,0.3s0,0.3,0,0.5c0,0.3,0,0.3,0,0.3v0.3c0,0,0,0,0,0.3v0.3c0,0,0,0,0,0.3s0,0.3,0,0.5c0,0,0,0.3,0,0.5
			c0,0.3,0,0.3,0,0.5c0,0,0,0.3-0.3,0.3c0,0.3-0.3,0.3-0.3,0.3c-0.3,0-0.3,0-0.5,0H528C524.7,163.2,522.3,162.5,519.9,161.6z
			 M516.6,136.5l1.8-1.8c0.5-0.5,1.3-0.8,1.8,0l2.4,2.1c0.5,0.5,0.5,1.3,0,1.8l-1.8,1.8c-0.5,0.5-1.3,0.5-1.8,0l-2.1-2.4
			C515.7,137.8,515.7,137.1,516.6,136.5z M516.6,153c0,0.8,0.3,1.5,0.8,2.4c0.5,0.5,1.3,0.8,2.4,0.8c1.3,0,1.8-0.3,2.4-0.8
			c0.5-0.5,0.8-1.3,0.8-2.4s-0.3-1.5-0.8-2.4c-0.3-0.3-0.5-0.5-0.8-0.8s-0.8-0.3-1.3-0.3c-0.3,0-0.8,0-1.3,0.3
			c-0.3,0.3-0.8,0.3-0.8,0.8c-0.3,0.3-0.5,0.5-0.8,0.8c0,0.3,0,0.3-0.3,0.5C516.6,152.5,516.6,152.5,516.6,153z"/>
		<path class="st3" d="M549.6,163.2h-0.3c-2.9,0-5.2-0.8-6.8-2.4c-1.8,1.8-4.4,2.4-7.9,2.4h-3.9c-0.5,0-1.1-0.3-1.3-0.8
			c-0.3-0.3-0.3-1.1-0.3-1.8v-0.3c0-0.8,0-1.3,0.3-1.8c0.3-0.8,0.8-0.8,1.5-0.8h3.9c1.1,0,2.1,0,2.9-0.3c0.8-0.3,1.3-0.5,1.5-1.1
			c0.3-0.3,0.3-1.1,0.3-1.8v-5.7v-0.5h0.8h3.9h0.8v0.8v5.8c0,1.3,0.3,2.1,0.8,2.6s1.8,0.8,3.2,0.8h0.3c0.3,0,0.5,0,0.8,0.3
			s0.3,0.3,0.3,0.5c0.3,0.3,0,0.5,0,0.8s0,0.3,0,0.8c0,0,0,0,0,0.3v0.3c0,0,0,0,0,0.3s0,0.3,0,0.3v0.3v0.3c0,0,0,0.3-0.3,0.3
			c0,0.3-0.3,0.3-0.3,0.3L549.6,163.2C550,163.2,549.7,163.2,549.6,163.2z M530.7,169.5l1.8-1.8c0.5-0.5,1.3-0.5,1.8,0l2.1,2.1
			c0.5,0.5,0.5,1.3,0,1.8l-1.8,1.8c-0.5,0.5-1.3,0.5-1.8,0l-2.1-2.1C529.9,170.7,529.9,170.4,530.7,169.5z M538.5,169.5l1.8-1.8
			c0.5-0.5,1.3-0.5,1.8,0l2.1,2.1c0.5,0.5,0.5,1.3,0,1.8l-1.8,1.8c-0.5,0.5-1.3,0.5-1.8,0l-2.4-2.1
			C537.7,170.7,538.1,170.4,538.5,169.5z"/>
		<path class="st3" d="M572.2,163.2h-2.9c-1.3,0-2.9-0.3-3.9-0.3c-1.1,0-2.4-0.5-3.7-1.3c-2.4,1.1-5.2,1.8-7.9,1.8h-3.9
			c-0.5,0-1.1-0.3-1.3-0.8c-0.3-0.3-0.3-1.1-0.3-1.8v-0.3c0-0.8,0.3-1.3,0.3-1.8c0.3-0.3,0.8-0.8,1.3-0.8h5
			c-0.8-1.3-1.3-2.9-1.3-4.7c0-2.4,0.8-4.4,2.4-6.1c1.8-1.5,3.7-2.4,6.1-2.4c2.4,0,4.4,0.8,6.1,2.4c0.3,0.3,0.8,0.8,0.8,1.3
			c0.3,0.5,0.5,0.8,0.8,1.3c0.3,0.3,0.3,0.8,0.3,1.5s0.3,1.1,0.3,1.8c0,0.8,0,1.8-0.3,2.4c-0.3,0.8-0.5,1.5-0.8,2.4h3.4
			c0.3,0,0.3,0,0.5,0s0.3,0.3,0.3,0.3c0,0.3,0.3,0.3,0.3,0.3s0,0.3,0,0.5c0,0.3,0,0.3,0,0.3v0.3c0,0,0,0,0,0.3v0.3c0,0,0,0,0,0.3
			s0,0.3,0,0.3v0.3c0,0.3,0,0.3,0,0.3v0.3c0,0.3,0,0.3-0.3,0.3l-0.3,0.3l-0.3,0.3C572.5,163.2,572.2,163.2,572.2,163.2z
			 M558.1,136.5l1.8-1.8c0.5-0.5,1.3-0.8,1.8,0l2.4,2.1c0.5,0.5,0.5,1.3,0,1.8l-1.8,1.8c-0.5,0.5-1.3,0.5-1.8,0l-2.1-2.4
			C557.7,137.8,557.7,137.1,558.1,136.5z M558.1,153c0,0.8,0.3,1.5,0.8,2.4c0.8,0.8,1.3,0.8,2.4,0.8c1.1,0,1.8-0.3,2.4-0.8
			c0.5-0.5,0.8-1.3,0.8-2.4s-0.3-1.5-0.8-2.4c-0.3-0.3-0.5-0.5-0.8-0.8s-0.8-0.3-1.3-0.3c-0.3,0-0.8,0-1.3,0.3
			c-0.3,0.3-0.8,0.3-0.8,0.8l-0.3,0.3l-0.3,0.3c0,0,0,0.3-0.3,0.3v0.3v0.3C558.1,152.5,558.1,152.5,558.1,153z"/>
		<path class="st3" d="M591.6,159.3l-1.8,0.8c-3.4,1.8-6.8,2.6-10.7,2.6h-6.7c-0.5,0-1.1-0.3-1.3-0.8c-0.3-0.5-0.3-1.1-0.3-1.8v-0.3
			c0-0.8,0-1.3,0.3-1.8c0.3-0.8,0.8-0.8,1.5-0.8h6.5c1.5,0,2.9-0.3,4.4-0.3c1.3-0.3,2.6-0.8,3.9-1.3l5-2.4l-2.9-1.8
			c-1.8-0.8-3.4-1.5-5.2-1.5c-1.5,0-2.9,0.5-4.7,1.8L578,153l-0.5,0.3l-0.3-0.5l-2.4-2.9l-0.5-0.5l0.5-0.3l1.3-1.1
			c2.4-1.8,5-3.2,7.5-3.4c2.4-0.3,5.2,0.3,7.9,1.8l3.9,2.4c0.3,0.3,0.8,0.3,1.3,0.8c0.3,0.3,0.8,0.3,1.3,0.3c0.3,0,0.8,0.3,1.1,0.3
			h0.5v0.5v3.9v0.3l-0.3,0.3l-2.4,1.3c0.8,0.3,1.8,0.8,2.9,0.8h2.6c0.3,0,0.5,0,0.8,0.3s0.3,0.3,0.3,0.5c0,0.4,0,0.5,0,0.8
			s0,0.3,0,0.8c0,0,0,0,0,0.3v0.3c0,0.5,0,1.3-0.3,1.5c-0.3,0.5-0.5,0.8-1.1,0.8h-2.4c-1.5,0-2.9-0.3-4.4-0.8
			C593.4,161.6,592.1,160.5,591.6,159.3z M581.4,136.1l1.8-1.8c0.5-0.5,1.3-0.8,1.8,0l2.4,2.1c0.5,0.5,0.5,1.3,0,1.8l-1.8,1.8
			c-0.5,0.5-1.3,0.5-1.8,0l-2.1-2.4C580.6,137.1,580.6,136.5,581.4,136.1z"/>
		<path class="st3" d="M601.5,163.2c-0.5,0-1.1-0.3-1.3-0.8c-0.3-0.3-0.3-1.1-0.3-1.8v-0.3c0-0.8,0.3-1.3,0.3-1.8
			c0.3-0.3,0.8-0.8,1.3-0.8h5.2c1.3,0,2.4-0.3,2.9-0.8s0.8-1.3,0.8-2.6V148v-0.8h0.8h3.7h0.8v0.8v6.3c0,2.9-0.8,5.2-2.4,6.5
			s-3.7,2.4-6.5,2.4H601.5L601.5,163.2L601.5,163.2z M602.3,138.5l1.8-1.8c0.5-0.5,1.3-0.5,1.8,0l2.1,2.1c0.5,0.5,0.5,1.3,0,1.8
			l-1.8,1.8c-0.5,0.5-1.3,0.5-1.8,0l-2.1-2.1C601.8,139.6,601.8,139.2,602.3,138.5z M610.1,138.5l1.8-1.8c0.5-0.5,1.3-0.5,1.8,0
			l2.1,2.1c0.5,0.5,0.5,1.3,0,1.8l-1.8,1.8c-0.5,0.5-1.3,0.5-1.8,0l-2.4-2.1C609.7,139.6,609.7,139.2,610.1,138.5z"/>
		<path class="st3" d="M625.7,136.5c0-1.3,0.3-2.4,1.5-3.2c0.8-0.8,2.1-1.3,3.4-1.3c1.3,0,2.4,0.3,3.4,1.3c0.3,0.3,0.3,0.3,0.5,0.5
			c0.4,0.4,0.3,0.5,0.3,0.8c0.3,0.3,0.3,0.5,0.3,0.8c0.3,0.3,0.3,0.5,0.3,0.8s0,0.8-0.3,1.1c0,0.3-0.3,0.3-0.3,0.3
			c0,0.3-0.3,0.3-0.3,0.3c-0.3,0.3-0.3,0.3-0.3,0.3c-0.3,0.3-0.3,0.5-0.8,0.8c-0.8,0.8-2.1,1.3-3.4,1.3c-1.3,0-2.4-0.3-3.4-1.3
			c-0.3-0.3-0.8-0.8-1.1-1.5C625.7,137.8,625.7,137.4,625.7,136.5z M644.5,130.9l3.9,2.1l0.8,0.3l-17.7,31.1l-0.8-0.3L627,162
			l-0.8-0.3l17.7-30.8C643.7,130.9,644.5,130.9,644.5,130.9z M640.8,156.7L640.8,156.7L640.8,156.7v-0.3v-0.3v-0.3v-0.3
			c0-0.3,0-0.3,0.3-0.3c0-0.3,0-0.3,0-0.3v-0.3c0-0.3,0.3-0.3,0.3-0.3l0.3-0.3c0-0.3,0-0.3,0.3-0.3c0.3-0.3,0.3-0.3,0.3-0.3l0.3-0.3
			l0.3-0.3l0.3-0.3l0.3-0.3c0.3-0.3,0.3-0.3,0.3-0.3c0.8-0.8,2.1-1.3,3.4-1.3c0.3,0,0.8,0.3,1.1,0.3s0.3,0.3,0.5,0.3
			c0.3,0,0.3,0.3,0.3,0.3s0.3,0,0.3,0.3c0.3,0,0.3,0.3,0.3,0.3c0.3,0.3,0.5,0.3,0.8,0.8c0.8,0.8,1.5,2.1,1.5,3.2
			c0,1.1-0.3,2.4-1.5,3.2c-0.3,0.3-0.8,0.8-1.5,0.8c-0.5,0.3-1.1,0.3-1.8,0.3c-1.3,0-2.4-0.3-3.4-1.3
			C641.6,159.1,640.8,157.7,640.8,156.7z"/>
	</g>
	<g>
		<path class="st3" d="M674.4,148.6c-1.2,0-2.2-0.1-3.3-0.4c-1.1-0.2-2.1-0.5-3.1-1.1c0.2,1.6,0.4,3.3,0.5,4.8s0.2,3.1,0.3,4.5
			c0.1,1.5,0.1,2.9,0.1,4.3s0,2.7,0,4.1h-7.1c0-3.2-0.1-6.3-0.2-9.3c-0.1-3.1-0.4-6-0.8-8.8c-0.5-2.8-1-5.5-1.7-8
			c-0.8-2.5-1.7-4.7-3.1-6.6l6.1-3.8c0.5,0.9,1,1.5,1.4,2.4c0.5,0.7,0.8,1.5,1.2,2.2c0.5-0.9,1.3-1.5,2-2.2c0.8-0.6,1.5-1.2,2.5-1.5
			c0.9-0.5,1.7-0.7,2.7-0.9s1.9-0.3,2.9-0.3c0.7,0,1.3,0.1,2,0.2s1.3,0.3,2,0.5c0.7,0.3,1.3,0.5,2,1c0.7,0.4,1.3,0.9,2,1.5l-3.7,5.9
			c0,0-0.2-0.1-0.5-0.3s-0.6-0.4-1.2-0.6c-0.5-0.2-1.1-0.5-1.7-0.6c-0.7-0.2-1.4-0.3-2.2-0.3c-0.7,0-1.3,0.1-2,0.4
			c-0.7,0.3-1.3,0.5-1.8,1c-0.5,0.4-1,0.8-1.3,1.3s-0.5,0.9-0.4,1.3l0,0c0.1,0.5,0.4,0.9,0.8,1.3c0.5,0.4,1,0.5,1.6,0.7
			c0.7,0.2,1.3,0.4,1.9,0.4c0.7,0.1,1.3,0.1,1.8,0.1s1.2,0,1.7-0.1c0.6-0.1,1.3-0.2,1.9-0.4c0.6-0.2,1.3-0.4,1.9-0.6
			s1.3-0.5,1.7-0.9l3,5.6c-1.8,1.3-3.6,2.3-5.4,2.7C677.6,148.4,675.9,148.6,674.4,148.6z"/>
		<path class="st3" d="M685.4,150.7c0-1.3,0.3-2.3,0.7-3.5c0.5-1.1,1.1-2,1.8-2.8c0.8-0.8,1.6-1.4,2.7-1.8c1.1-0.5,2.2-0.7,3.5-0.7
			s2.3,0.3,3.5,0.7c1.1,0.5,2,1.1,2.8,1.8c0.8,0.8,1.4,1.7,1.8,2.8c0.5,1.1,0.7,2.2,0.7,3.5s-0.3,2.4-0.7,3.5
			c-0.5,1.1-1.1,1.9-1.8,2.7c-0.8,0.8-1.7,1.4-2.8,1.8s-2.2,0.7-3.5,0.7s-2.4-0.3-3.5-0.7c-1.1-0.5-1.9-1.1-2.7-1.8
			c-0.8-0.8-1.4-1.6-1.8-2.7C685.7,153.1,685.4,152,685.4,150.7z M690.7,150.7c0,0.5,0.1,1,0.3,1.3c0.2,0.5,0.5,0.8,0.7,1.2
			c0.4,0.4,0.7,0.5,1.2,0.7s0.9,0.3,1.3,0.3c0.5,0,1-0.1,1.3-0.3c0.5-0.2,0.8-0.5,1.2-0.7c0.4-0.4,0.5-0.7,0.8-1.2
			c0.2-0.5,0.3-0.9,0.3-1.3s-0.1-1-0.3-1.3c-0.2-0.5-0.5-0.8-0.8-1.2c-0.4-0.4-0.7-0.5-1.2-0.8c-0.5-0.2-0.9-0.3-1.3-0.3
			c-0.5,0-1,0.1-1.3,0.3c-0.5,0.2-0.8,0.5-1.2,0.8c-0.4,0.4-0.5,0.7-0.7,1.2S690.7,150.3,690.7,150.7z"/>
	</g>
</g>
<g>
	<g>
		<g>
			<path class="st4" d="M415,200.8H176.6c-7.9,0-14.4-6.4-14.4-14.4v-73.3c0-7.9,6.4-14.4,14.4-14.4H415c7.9,0,14.4,6.4,14.4,14.4
				v73.3C429.4,194.4,423,200.8,415,200.8z"/>
			<path class="st2" d="M415,202.3H176.6c-8.7,0-15.8-7.2-15.8-15.8v-73.3c0-8.7,7.2-15.8,15.8-15.8H415c8.7,0,15.9,7.2,15.9,15.8
				v73.3C430.8,195.3,423.9,202.3,415,202.3z M176.6,100.2c-7.2,0-13,5.8-13,13v73.3c0,7.2,5.8,13,13,13H415c7.2,0,13-5.7,13-13
				v-73.3c0-7.2-5.8-13-13-13H176.6z"/>
		</g>
		<g>
			<path class="st2" d="M212.2,162.8h-0.4c-3.3,0-6.1-1.4-8.8-4.1c-1.7,2.6-5.4,4.1-10.8,4.1h-10.3H181V162v-5v-0.9h0.9H192
				c0.1,0,0.3,0,0.5,0c0.1,0,0.3,0,0.4,0c1.1,0,1.8-0.1,2.6-0.3c0.6-0.1,1.4-0.3,1.5-0.5c0.4-0.3,0.6-0.5,0.8-0.8
				c0.1-0.3,0.3-0.5,0.3-0.9c0-0.5-0.3-1.3-0.6-1.8c-0.3-0.4-0.5-0.8-0.8-1.4c-0.4-0.4-0.6-0.9-1.3-1.4l-7.4-8.7l-0.5-0.6l0.5-0.6
				l3.4-3.7l0.8-0.8l0.6,0.9l14.8,17.7c1.5,1.9,3.2,2.8,4.4,2.8h0.3c0.4,0,0.6,0.1,0.9,0.3c0.3,0.1,0.4,0.5,0.5,0.8
				c0.1,0.4,0.1,0.6,0.1,0.9c0,0.3,0,0.5,0,1.1c0,0.1,0,0.1,0,0.1v0.3c0,0.9,0,1.5-0.1,2c0,0.3-0.1,0.4-0.3,0.5
				c-0.1,0.1-0.3,0.3-0.4,0.5C212.7,162.7,212.5,162.8,212.2,162.8z"/>
			<path class="st2" d="M235.8,162.8h-0.6c-3.8,0-6.6-1.1-8.4-3.2c-2,2-5.4,3.2-9.8,3.2h-5c-0.8,0-1.4-0.3-1.8-0.9s-0.6-1.4-0.6-2.3
				v-0.2c0-0.9,0.1-1.7,0.5-2.2c0.4-0.6,1.1-1.1,1.9-1.1h5.1c1.4,0,2.6-0.1,3.6-0.5s1.5-0.8,1.9-1.4c0.4-0.6,0.6-1.4,0.6-2.4v-7.1
				v-1h0.9h4.8h0.9v0.9v7.1c0,1.5,0.4,2.6,1.3,3.4c0.8,0.6,2.2,1.1,4.1,1.1h0.6c0.4,0,0.6,0.1,0.9,0.3c0.3,0.1,0.4,0.5,0.5,0.8
				c0.1,0.4,0.1,0.6,0.1,0.9c0,0.3,0,0.5,0,1.1c0,0.1,0,0.1,0,0.1v0.3c0,0,0,0.1,0,0.3c0,0.3,0,0.4,0,0.5s0,0.3,0,0.5
				c0,0.3,0,0.4-0.1,0.6c0,0.1-0.1,0.4-0.1,0.5c-0.1,0.1-0.1,0.4-0.3,0.4c-0.1,0.1-0.3,0.3-0.4,0.3
				C236.3,162.8,235.9,162.8,235.8,162.8z M212.1,171l2.4-2.4c0.8-0.8,1.5-0.9,2.2-0.1l2.6,2.6c0.8,0.8,0.8,1.5,0,2.3l-2.4,2.4
				c-0.8,0.8-1.5,0.8-2.3,0l-2.6-2.6C211.3,172.4,211.3,171.6,212.1,171z M221.9,171l2.4-2.4c0.8-0.8,1.5-0.9,2.3-0.1l2.6,2.6
				c0.8,0.8,0.8,1.5,0,2.3l-2.4,2.4c-0.8,0.8-1.5,0.8-2.3,0l-2.7-2.6C221.1,172.4,221.1,171.6,221.9,171z"/>
			<path class="st2" d="M258.5,162.8H258c-3.8,0-6.6-1.1-8.4-3.2c-2.2,2-5.4,3.2-9.8,3.2h-4.2c-0.8,0-1.4-0.3-1.8-0.9
				s-0.6-1.4-0.6-2.3v-0.2c0-0.9,0.1-1.7,0.5-2.2c0.4-0.6,1.1-1.1,1.9-1.1h4.3c2.2,0,3.7-0.4,4.6-1.1c0.9-0.6,1.4-1.8,1.4-3.3v-7.1
				v-0.9h0.9h4.8h0.9v0.9v7.1c0,1.5,0.4,2.6,1.3,3.4c0.8,0.6,2.2,1.1,4.1,1.1h0.6c0.4,0,0.6,0.1,0.9,0.3c0.3,0.1,0.4,0.5,0.5,0.8
				c0.1,0.4,0.1,0.6,0.1,0.9c0,0.3,0,0.5,0,1.1c0,0.1,0,0.1,0,0.1v0.3c0,0,0,0.1,0,0.3c0,0.1,0,0.3,0,0.4c0,0.1,0,0.3,0,0.4
				s0,0.4,0,0.5s0,0.3-0.1,0.4c0,0.1-0.1,0.3-0.1,0.4c0,0.1-0.1,0.3-0.1,0.4c-0.1,0.1-0.1,0.3-0.3,0.3c-0.1,0.1-0.3,0.1-0.4,0.1
				C258.7,162.8,258.6,162.8,258.5,162.8z M243,132.2l2.4-2.4c0.9-0.9,1.7-0.9,2.4-0.1l2.7,2.6c0.8,0.8,0.8,1.7-0.1,2.4l-2.4,2.4
				c-0.8,0.8-1.7,0.8-2.4,0l-2.6-2.7C242.3,133.8,242.3,133,243,132.2z"/>
			<path class="st2" d="M258.2,162.8c-0.8,0-1.4-0.3-1.8-0.9c-0.4-0.6-0.6-1.4-0.6-2.3v-0.2c0-0.9,0.1-1.7,0.5-2.2
				c0.4-0.6,1.1-1.1,1.9-1.1h9c2,0,3.7-0.3,4.5-0.6c0.9-0.5,1.4-1.3,1.4-1.9c0-0.1,0-0.3-0.1-0.5c-0.1-0.3-0.3-0.5-0.5-0.9
				c-0.3-0.4-0.5-0.8-0.9-1.4c-0.4-0.5-0.8-1.1-1.4-1.5l-8.9-10.1c-1.1-1.3-1.5-2.6-1.5-4.4c0-0.6,0.1-1.3,0.3-1.8
				c0.1-0.5,0.4-1.1,0.8-1.4c0.4-0.4,0.8-0.8,1.3-1.3c0.5-0.4,1.1-0.6,1.5-0.8l17.1-5.6l1.4-0.4v1.4v5v0.6l-0.6,0.3l-14.2,4.6
				l7.5,8.8c3.2,3.7,4.8,7,4.8,9.7c0,3.2-1.1,5.5-3.2,7.1c-2,1.5-5.2,2.3-9.3,2.3h-9V163h-0.1L258.2,162.8L258.2,162.8z"/>
			<path class="st2" d="M323.1,162.8h-19.9c-4.2,0-7.4-1.3-9.6-3.4c-2.2-2.2-3.3-5.5-3.3-9.8v-5.5v-0.9h0.9h4.8h0.9v0.9v5.5
				c0,2,0.5,3.7,1.5,4.6c0.5,0.5,1.3,0.9,1.8,1.3c0.8,0.3,1.7,0.4,2.7,0.4h19.8c2,0,3.7-0.3,4.5-0.8s1.4-1.3,1.4-2
				c0-0.3-0.3-0.8-0.6-1.5c-0.5-0.8-1.3-1.7-2-2.7l-8.9-10.1c-0.5-0.5-0.9-1.4-1.3-1.9c-0.3-0.8-0.4-1.5-0.4-2.3
				c0-0.9,0.1-1.7,0.5-2.3c0.3-0.6,0.8-1.4,1.4-1.8c0.6-0.5,1.4-0.9,2-1.3l17.1-5.6l1.4-0.4v1.4v5v0.6l-0.6,0.1l-14.4,4.6l14.8,17
				c2.2,2.6,4.2,3.9,5.7,3.9h0.6c0.4,0,0.6,0.1,0.9,0.3c0.3,0.1,0.4,0.5,0.5,0.9s0.1,0.6,0.1,0.9s0,0.5,0,0.9c0,0.1,0,0.1,0,0.1v0.3
				c0,0,0,0.1,0,0.3c0,0.3,0,0.5,0,0.6s0,0.4,0,0.6c0,0.3,0,0.5-0.1,0.6s-0.1,0.4-0.3,0.5c-0.1,0.1-0.3,0.3-0.4,0.4
				c-0.1,0.1-0.4,0.1-0.6,0.1h-0.4c-3.7,0-6.9-1.5-9.4-4.6c-0.3,0.5-0.5,0.9-0.9,1.4c-0.4,0.4-0.8,0.8-1.3,1.1
				c-0.4,0.3-0.9,0.6-1.4,0.9c-0.6,0.3-1.1,0.5-1.5,0.6c-0.5,0.1-1.3,0.4-1.8,0.5c-0.6,0.1-1.4,0.3-2,0.3
				C324.6,162.8,323.9,162.8,323.1,162.8z"/>
			<path class="st2" d="M367.7,162.8h-0.5c-3.8,0-6.6-1.1-8.4-3.2c-2,2-5.4,3.2-9.8,3.2h-5c-0.8,0-1.4-0.3-1.8-0.9
				c-0.4-0.6-0.6-1.4-0.6-2.3v-0.2c0-0.9,0.1-1.7,0.5-2.2c0.4-0.6,1.1-1.1,1.9-1.1h5.1c1.4,0,2.6-0.1,3.6-0.5
				c0.9-0.4,1.5-0.8,1.9-1.4c0.4-0.6,0.6-1.4,0.6-2.4v-7.1v-1h0.9h4.8h0.9v0.9v7.1c0,1.5,0.4,2.6,1.3,3.4c0.8,0.6,2.2,1.1,4.1,1.1
				h0.6c0.4,0,0.6,0.1,0.9,0.3c0.3,0.1,0.4,0.5,0.5,0.8c0.1,0.4,0.1,0.6,0.1,0.9c0,0.3,0,0.5,0,1.1c0,0.1,0,0.1,0,0.1v0.3
				c0,0,0,0.1,0,0.3c0,0.3,0,0.4,0,0.5s0,0.3,0,0.5c0,0.3,0,0.4-0.1,0.6c0,0.1-0.1,0.4-0.1,0.5c-0.1,0.1-0.1,0.4-0.3,0.4
				c-0.1,0.1-0.3,0.3-0.4,0.3C368.1,162.8,367.9,162.8,367.7,162.8z M344,171l2.4-2.4c0.8-0.8,1.5-0.9,2.2-0.1l2.6,2.6
				c0.8,0.8,0.8,1.5,0,2.3l-2.4,2.4c-0.8,0.8-1.5,0.8-2.3,0l-2.6-2.6C343.2,172.4,343.2,171.6,344,171z M353.7,171l2.4-2.4
				c0.8-0.8,1.5-0.9,2.3-0.1l2.6,2.6c0.8,0.8,0.8,1.5,0,2.3l-2.4,2.4c-0.8,0.8-1.5,0.8-2.3,0l-2.7-2.6
				C352.9,172.4,352.9,171.6,353.7,171z"/>
			<path class="st2" d="M386.9,162.8h-1.4c-3.2,0-5.7-1.1-7.8-3.2c-1.9,2-4.5,3.2-7.7,3.2h-2.7c-0.8,0-1.4-0.3-1.8-0.9
				c-0.4-0.6-0.5-1.4-0.5-2.3v-0.2c0-0.9,0.1-1.7,0.5-2.2c0.4-0.6,1.1-1.1,1.9-1.1h2.6c0.8,0,1.5-0.1,2-0.3c0.5-0.1,1.1-0.4,1.4-0.8
				s0.6-0.8,0.8-1.4c0.1-0.5,0.3-1.3,0.3-1.8v-24.5v-1h0.9h4.5h0.9v0.9v24.6c0,1.4,0.4,2.4,1.3,3.2c0.8,0.6,1.9,1.1,3.8,1.1h1.1
				c0.4,0,0.6,0.1,0.9,0.3c0.3,0.3,0.4,0.5,0.5,0.9s0.1,0.6,0.1,0.9c0,0.3,0,0.5,0,1.1c0,0.1,0,0.1,0,0.1v0.3v0.1c0,0.3,0,0.5,0,0.6
				s0,0.4,0,0.6c0,0.3,0,0.5-0.1,0.6s-0.1,0.4-0.3,0.5c-0.1,0.1-0.3,0.3-0.5,0.4C387.4,162.8,387.2,162.8,386.9,162.8z"/>
			<path class="st2" d="M386.5,162.8c-0.8,0-1.4-0.3-1.8-0.9c-0.4-0.6-0.6-1.4-0.6-2.3v-0.2c0-0.9,0.1-1.7,0.5-2.2
				c0.4-0.6,1.1-1.1,1.9-1.1h9c2,0,3.7-0.3,4.5-0.6c0.9-0.5,1.4-1.3,1.4-1.9c0-0.1,0-0.3-0.1-0.5c-0.1-0.3-0.3-0.5-0.5-0.9
				c-0.3-0.4-0.5-0.8-0.9-1.4c-0.4-0.5-0.8-1.1-1.4-1.5l-8.9-10.1c-1.1-1.3-1.5-2.6-1.5-4.4c0-0.6,0.1-1.3,0.3-1.8
				c0.1-0.5,0.4-1.1,0.8-1.4c0.4-0.4,0.8-0.8,1.3-1.3c0.5-0.4,1.1-0.6,1.5-0.8l17.1-5.6l1.4-0.4v1.4v5v0.6l-0.6,0.3l-14.2,4.6
				l7.5,8.8c3.2,3.7,4.8,7,4.8,9.7c0,3.2-1.1,5.5-3.2,7.1c-2,1.5-5.2,2.3-9.3,2.3h-8.9V163h-0.2v-0.2H386.5z"/>
		</g>
	</g>
	<g>
		<path class="st5" d="M136.1,200.1H48.2c-7.3,0-13.2-5.9-13.2-13.2v-74.6c0-7.3,5.9-13.2,13.2-13.2h87.9c7.3,0,13.2,5.9,13.2,13.2
			v74.6C149.3,194.2,143.4,200.1,136.1,200.1z"/>
		<path class="st2" d="M136.1,201.7H48.2c-8.1,0-14.7-7-14.7-15.7v-72.9c0-8.6,6.6-15.7,14.7-15.7h87.9c8.1,0,14.7,7,14.7,15.7V186
			C150.8,194.7,144.2,201.7,136.1,201.7z M48.2,100.7c-6.5,0-11.7,5.6-11.7,12.5V186c0,6.9,5.3,12.5,11.7,12.5h87.9
			c6.5,0,11.7-5.6,11.7-12.5v-72.9c0-6.9-5.3-12.5-11.7-12.5L48.2,100.7L48.2,100.7z"/>
	</g>
	<g>
		<g>
			<path class="st2" d="M70.8,175.4c0.6,1,1.1,1.9,1.5,3c0.3,0.6,0.5,1.8,1.9,1.8c0.4,0,1-0.1,1.6-0.4c0.6-0.3,1.1-0.8,1.3-1.5
				l0.6-1.9l1.4-0.7l0.1,0.1c-0.2,0.7-0.2,1.4-0.2,2c0,1.6,1.4,2.2,2.5,2.2c0.6,0,1.2-0.3,1.2-0.9c0-0.8-0.3-2.1-0.7-3.2
				c0.6-0.6,1.3-1.3,2-1.8V174c0.3,1.4,0.5,2.7,0.5,3.6c0,0.9-0.4,1.9-0.7,2.5c-0.7,1.3-1.9,2.3-3.3,2.3c-1.1,0-2.3-0.6-3.1-1.6l0,0
				c-0.8,1-2,1.8-3.9,1.8h-0.6c-0.1,1.3-0.4,2.2-0.8,3c-1.2,2.3-4.6,3.9-7.8,3.9c-4.5,0-6.7-2.6-6.7-6c0-2.1,0.7-4.1,1.8-5.5
				l0.9,0.4c-0.7,1.3-1.1,2.5-1.1,3.7c0,3.2,2.6,4.8,5.6,4.8c2.8,0,6.3-1.8,6.9-3.9c-0.2-2.3-1.1-3.3-2.4-5.4
				c0.4-0.7,0.9-1.4,1.5-2.1l0,0V175.4z"/>
			<path class="st2" d="M87.5,173l1.6,2.7c0.6,1,1.2,2,1.2,3.7v2.2c0,1.8-1.1,3.6-2.9,5.5c-1.4,1.3-2.7,1.8-3.8,1.8
				c-1.7,0-3.7-0.5-6-1.5l0.3-0.7c0.7,0.2,1.6,0.4,2.6,0.4c3.3,0,6.6-2.4,8.1-5.3c0.2-0.3,0.3-0.6,0.3-0.9c0-0.3-0.2-0.7-0.3-1
				c-0.8-1.6-1.8-3-2.8-4.3c0.5-0.8,1.1-1.7,1.6-2.5L87.5,173z"/>
			<path class="st2" d="M92.3,177.8c0.1,1.7,0.9,3,3.8,3c1.8,0,3.3-0.5,5-1.3c0.3-0.1,0.5-0.3,0.5-0.5c0-1.1-0.8-2.5-2.2-3.7
				c-1.3-1.2-3.1-2.3-4.7-3c-0.6-0.2-0.7-0.5-0.7-0.7c0-0.5,0.6-1.5,1.2-2.2h0.2c1.9,1,4,2.4,5.5,4.1c1.4,1.5,2.3,3,2.3,4.7
				c0,1.2-0.4,2.4-1,3.4c-2.1,1-4.3,1.8-6.4,1.8c-2.6,0-4.4-1.2-4.4-4.2c0-0.3,0-0.8,0.1-1.4L92.3,177.8L92.3,177.8z"/>
			<path class="st2" d="M106.1,183.5c0.2-1.2,0.3-2.6,0.3-3.9v-1.9c0-3.6-0.5-8.8-0.8-12.2c0.6-0.7,1.6-1.5,2.3-2.1l0.2,0.1
				c0.5,4.3,0.6,9.3,0.6,13.9c0,1.2,0,2.4-0.2,3.2c-0.1,1.1-0.7,1.9-2,3.2L106.1,183.5z"/>
			<path class="st2" d="M112,176.4c1.3,2.7,2.5,4.3,5.2,4.3h0.4v2.5h-0.5c-1,0-1.8-0.2-2.3-0.6h-0.1c0,0.2,0,0.5,0,0.7
				c0,0.9-0.3,2.1-0.9,3.1c-1.8,2.7-3.8,3.9-5.5,3.9s-3.9-0.7-5.8-1.5l0.3-0.7c0.6,0.3,1.5,0.4,2.7,0.4c3.1,0,7.2-3,7.7-5.9
				c-0.1-0.2-0.3-0.6-0.6-0.9c-0.9-1.1-1.5-2-2-2.9c0.5-0.9,0.9-1.6,1.3-2.3L112,176.4z"/>
			<path class="st2" d="M122.5,163.2c0.9,0.6,1.9,1.3,2.8,2.1c-0.5,0.7-1.1,1.4-1.9,1.9c-0.9-0.7-1.8-1.4-2.7-2
				C121.3,164.5,121.9,163.9,122.5,163.2z M123,172.1c-1.5,0-2.8,1-2.8,1.8c0,1.6,3.1,2.1,6.7,2.1C126.5,174,124.9,172.1,123,172.1z
				 M119.6,180.6c2,0,3.7-0.1,5-0.4c1.5-0.4,2.7-1.1,2.7-1.6c0-0.1,0-0.3,0-0.4c-0.8,0.1-1.8,0.1-2.6,0.1c-2.7,0-4.7-0.6-5.6-2.1
				c-0.2-0.4-0.3-0.9-0.3-1.4c0-1.5,0.6-2.9,1.7-3.9c0.9-0.8,1.9-1.3,3-1.3c1.9,0,3.4,1.5,4.4,3.9c0.6,1.3,1,2.8,1,4.7
				c0,1.3-0.3,2.3-1.1,3.1c-1.5,1.4-4.1,1.9-8.3,1.9h-1.9c-1.3,0-1.6-0.8-1.6-1.3s0.4-1.2,1.6-1.2h2
				C119.6,180.7,119.6,180.6,119.6,180.6z"/>
		</g>
		<g>
			<path class="st2" d="M92.7,149.9c0-0.5-0.5-1.2-1.2-1.7c-1.3-0.9-2.6-1.7-3.9-2.5c-0.7-0.4-1.2-0.3-1.3,0.1
				c-0.1,0.9-0.1,1.8-0.2,2.7c0,0.5,0.5,1.2,1.2,1.6c1.4,0.8,2.7,1.6,4,2.5c0.7,0.5,1.2,0.5,1.2,0C92.7,151.8,92.7,150.9,92.7,149.9
				z"/>
			<path class="st2" d="M85.1,150.4c0-0.5-0.5-1.2-1.2-1.5c-1.4-0.7-2.8-1.4-4.2-2c-0.7-0.3-1.4-0.2-1.4,0.3
				c-0.1,0.9-0.2,1.8-0.3,2.7c-0.1,0.5,0.5,1.1,1.3,1.4c1.5,0.6,2.9,1.3,4.4,2.1c0.7,0.4,1.4,0.3,1.4-0.2
				C85,152.2,85.1,151.3,85.1,150.4z"/>
			<path class="st2" d="M92.6,155c0-0.5-0.5-1.2-1.2-1.7c-1.3-0.9-2.7-1.7-4-2.5c-0.7-0.4-1.3-0.3-1.3,0.1c-0.1,0.9-0.1,1.8-0.2,2.7
				c0,0.5,0.5,1.2,1.3,1.6c1.4,0.8,2.8,1.6,4.2,2.5c0.7,0.5,1.3,0.5,1.3,0C92.6,156.8,92.6,155.9,92.6,155z"/>
			<path class="st2" d="M100,145.8c0-0.5-0.6-0.5-1.3-0.1c-1.3,0.8-2.6,1.6-3.9,2.5c-0.6,0.5-1.2,1.2-1.2,1.7c0,0.9,0,1.8,0,2.7
				c0,0.5,0.5,0.5,1.2,0c1.3-0.9,2.7-1.7,4-2.5c0.7-0.4,1.2-1.1,1.2-1.6C100.1,147.7,100,146.8,100,145.8z"/>
			<path class="st2" d="M100.3,150.9c0-0.5-0.6-0.5-1.3-0.1c-1.4,0.8-2.7,1.6-4,2.5c-0.7,0.5-1.2,1.2-1.2,1.7c0,0.9,0,1.8,0,2.7
				c0,0.5,0.6,0.5,1.3,0c1.4-0.9,2.8-1.7,4.2-2.5c0.7-0.4,1.3-1.1,1.3-1.6C100.4,152.7,100.3,151.8,100.3,150.9z"/>
			<path class="st2" d="M108.1,147.1c-0.1-0.5-0.7-0.6-1.4-0.3c-1.4,0.6-2.8,1.3-4.2,2c-0.7,0.4-1.3,1.1-1.2,1.5
				c0.1,0.9,0.1,1.8,0.2,2.7c0,0.5,0.6,0.5,1.4,0.2c1.4-0.7,2.9-1.4,4.4-2.1c0.8-0.3,1.3-1,1.3-1.4
				C108.3,148.9,108.2,148,108.1,147.1z"/>
			<path class="st6" d="M129.1,131c-0.2-0.4-0.8-0.8-1.5-0.7c-1.3,0.1-2.7,0.3-4,0.5c-0.7,0.1-1.1,0.6-1,1c0.2,0.9,0.5,1.8,0.7,2.6
				c0.1,0.5,0.8,0.7,1.5,0.6c1.4-0.2,2.8-0.4,4.2-0.6c0.7-0.1,1.2-0.5,1-0.9C129.7,132.8,129.4,131.9,129.1,131z M86.8,125.1
				c0-0.5-0.4-1.2-1-1.5c-1.1-0.7-2.2-1.4-3.3-2c-0.6-0.3-1.1-0.2-1.1,0.3c-0.1,0.9-0.2,1.8-0.3,2.7c-0.1,0.5,0.4,1.1,1,1.4
				c1.2,0.6,2.3,1.3,3.5,2c0.6,0.4,1.1,0.3,1.1-0.2C86.6,126.9,86.7,126,86.8,125.1z M62.4,136.8c0.1-0.5-0.4-0.9-1.1-1.1
				c-1.4-0.2-2.8-0.4-4.2-0.6c-0.7-0.1-1.4,0.2-1.6,0.7c-0.3,0.9-0.6,1.7-0.9,2.6c-0.2,0.4,0.3,0.9,1.1,0.9c1.4,0.2,2.9,0.4,4.3,0.6
				c0.7,0.1,1.4-0.1,1.6-0.6C61.9,138.6,62.2,137.7,62.4,136.8z M63.8,131.9c0.1-0.5-0.3-0.9-1-1c-1.3-0.2-2.7-0.4-4-0.5
				c-0.7-0.1-1.4,0.3-1.5,0.7c-0.3,0.9-0.6,1.7-0.9,2.6c-0.2,0.4,0.3,0.8,1,0.9c1.4,0.1,2.8,0.3,4.2,0.6c0.7,0.1,1.4-0.1,1.5-0.6
				C63.3,133.7,63.5,132.8,63.8,131.9z M65.1,127c0.1-0.5-0.3-0.9-0.9-1c-1.3-0.2-2.5-0.4-3.8-0.5c-0.6-0.1-1.3,0.3-1.5,0.7
				c-0.3,0.9-0.6,1.7-0.9,2.6c-0.2,0.4,0.3,0.8,0.9,0.9c1.3,0.1,2.7,0.3,4,0.5c0.7,0.1,1.3-0.1,1.5-0.6
				C64.7,128.8,64.9,127.9,65.1,127z M66.5,122.1c0.1-0.4-0.3-0.9-0.9-1c-1.2-0.2-2.4-0.3-3.6-0.4c-0.6,0-1.2,0.3-1.4,0.7
				c-0.3,0.9-0.6,1.7-0.9,2.6c-0.2,0.4,0.2,0.8,0.9,0.9c1.3,0.1,2.5,0.3,3.8,0.5c0.6,0.1,1.3-0.2,1.4-0.6
				C66,123.9,66.3,123,66.5,122.1z M67.9,117.2c0.1-0.5-0.2-0.9-0.8-1c-1.2-0.2-2.3-0.3-3.5-0.4c-0.6,0-1.2,0.3-1.3,0.7
				c-0.3,0.9-0.6,1.7-0.9,2.6c-0.2,0.4,0.2,0.8,0.8,0.9c1.2,0.1,2.4,0.2,3.6,0.4c0.6,0.1,1.2-0.2,1.3-0.6
				C67.4,119,67.6,118.1,67.9,117.2z M74.3,118.9c0.1-0.5-0.3-1-0.9-1.2c-1.1-0.4-2.3-0.7-3.4-0.9c-0.6-0.1-1.2,0.1-1.3,0.6
				c-0.2,0.9-0.5,1.8-0.7,2.6c-0.1,0.5,0.3,0.9,0.9,1.1c1.2,0.3,2.4,0.6,3.6,1c0.6,0.2,1.2,0,1.3-0.5
				C73.9,120.7,74.1,119.8,74.3,118.9z M72.2,128.8c0.1-0.5-0.4-1-1-1.2c-1.3-0.4-2.5-0.7-3.8-1c-0.6-0.1-1.3,0.1-1.4,0.6
				c-0.2,0.9-0.5,1.8-0.7,2.6c-0.1,0.5,0.3,0.9,1,1.1c1.3,0.3,2.6,0.7,4,1c0.7,0.2,1.3,0,1.4-0.5C71.9,130.6,72.1,129.7,72.2,128.8z
				 M79.2,131.6c0.1-0.5-0.4-1.1-1-1.4c-1.2-0.5-2.5-1-3.8-1.5c-0.6-0.2-1.2,0-1.3,0.4c-0.2,0.9-0.3,1.8-0.5,2.7
				c-0.1,0.5,0.4,1,1.1,1.2c1.3,0.5,2.6,1,3.9,1.5c0.7,0.3,1.3,0.1,1.3-0.3C79,133.4,79.1,132.5,79.2,131.6z M80.6,121.5
				c0.1-0.5-0.4-1.1-0.9-1.3c-1.1-0.5-2.3-1-3.4-1.4c-0.6-0.2-1.1,0-1.2,0.4c-0.2,0.9-0.3,1.8-0.5,2.7c-0.1,0.5,0.3,1,0.9,1.2
				c1.2,0.4,2.4,0.9,3.5,1.5c0.6,0.3,1.1,0.1,1.2-0.3C80.3,123.3,80.5,122.4,80.6,121.5z M107.5,142c-0.1-0.5-0.7-0.6-1.4-0.3
				c-1.4,0.6-2.7,1.3-4,2c-0.7,0.4-1.2,1.1-1.2,1.5c0.1,0.9,0.1,1.8,0.2,2.7c0,0.5,0.6,0.5,1.3,0.2c1.4-0.7,2.8-1.4,4.2-2
				c0.7-0.3,1.3-1,1.2-1.4C107.7,143.8,107.6,142.9,107.5,142z M106.9,137c-0.1-0.5-0.6-0.6-1.3-0.3c-1.3,0.6-2.6,1.3-3.9,2
				c-0.7,0.4-1.2,1.1-1.1,1.5c0.1,0.9,0.1,1.8,0.2,2.7c0,0.5,0.6,0.5,1.3,0.2c1.3-0.7,2.7-1.4,4-2c0.7-0.3,1.2-0.9,1.1-1.4
				C107.1,138.8,107,137.9,106.9,137z M106.2,132c-0.1-0.5-0.6-0.6-1.2-0.3c-1.2,0.6-2.5,1.3-3.7,2c-0.6,0.4-1.1,1-1.1,1.5
				c0.1,0.9,0.1,1.8,0.2,2.7c0,0.5,0.6,0.5,1.2,0.2c1.3-0.7,2.6-1.4,3.8-2c0.7-0.3,1.1-0.9,1.1-1.4
				C106.5,133.8,106.4,132.9,106.2,132z M105.6,126.9c-0.1-0.5-0.6-0.6-1.2-0.3c-1.2,0.6-2.3,1.3-3.5,2c-0.6,0.4-1,1-1,1.5
				c0.1,0.9,0.1,1.8,0.2,2.7c0,0.5,0.6,0.5,1.2,0.2c1.2-0.7,2.4-1.4,3.7-2c0.6-0.3,1.1-0.9,1-1.4
				C105.8,128.7,105.7,127.8,105.6,126.9z M105,121.9c-0.1-0.5-0.6-0.6-1.1-0.3c-1.1,0.6-2.2,1.3-3.3,2c-0.6,0.4-1,1-1,1.5
				c0.1,0.9,0.1,1.8,0.2,2.7c0,0.5,0.5,0.5,1.1,0.2c1.2-0.7,2.3-1.4,3.5-2c0.6-0.3,1-0.9,1-1.4C105.2,123.7,105.1,122.8,105,121.9z
				 M111.3,119.2c-0.1-0.5-0.6-0.7-1.2-0.4c-1.1,0.4-2.3,0.9-3.4,1.4c-0.6,0.3-1,0.9-0.9,1.3c0.1,0.9,0.2,1.8,0.4,2.7
				c0.1,0.5,0.6,0.6,1.2,0.3c1.2-0.5,2.4-1,3.5-1.5c0.6-0.2,1-0.8,0.9-1.2C111.6,120.9,111.5,120,111.3,119.2z M115.2,139.1
				c-0.1-0.5-0.7-0.6-1.4-0.4c-1.4,0.5-2.8,1-4.1,1.6c-0.7,0.3-1.2,0.9-1.2,1.4c0.1,0.9,0.2,1.8,0.4,2.7c0.1,0.5,0.7,0.6,1.4,0.3
				c1.4-0.6,2.9-1.1,4.3-1.6c0.7-0.2,1.3-0.8,1.2-1.3C115.5,140.9,115.4,140,115.2,139.1z M123,137c-0.1-0.5-0.8-0.7-1.5-0.5
				c-1.4,0.3-2.8,0.7-4.2,1.1c-0.7,0.2-1.2,0.8-1.1,1.2c0.2,0.9,0.4,1.8,0.5,2.7c0.1,0.5,0.8,0.6,1.5,0.4c1.4-0.4,2.9-0.8,4.3-1.1
				c0.7-0.2,1.2-0.7,1.1-1.1C123.4,138.8,123.2,137.9,123,137z M117.7,117.4c-0.1-0.5-0.7-0.7-1.3-0.6c-1.1,0.3-2.3,0.6-3.4,0.9
				c-0.6,0.2-1,0.7-0.9,1.2c0.2,0.9,0.4,1.8,0.5,2.7c0.1,0.5,0.7,0.7,1.3,0.5c1.2-0.4,2.4-0.7,3.6-1c0.6-0.1,1-0.6,0.9-1.1
				C118.1,119.2,117.9,118.3,117.7,117.4z M125.8,121.4c-0.2-0.4-0.8-0.8-1.4-0.7c-1.2,0.1-2.4,0.2-3.6,0.4c-0.6,0.1-1,0.6-0.9,1
				c0.2,0.9,0.5,1.8,0.7,2.6c0.1,0.5,0.8,0.7,1.4,0.6c1.3-0.2,2.5-0.4,3.8-0.5c0.6-0.1,1-0.4,0.9-0.9
				C126.4,123.1,126.1,122.3,125.8,121.4z M127.4,126.2c-0.2-0.4-0.8-0.8-1.5-0.7c-1.3,0.1-2.5,0.3-3.8,0.5c-0.6,0.1-1.1,0.6-0.9,1
				c0.2,0.9,0.5,1.8,0.7,2.6c0.1,0.5,0.8,0.7,1.5,0.6c1.3-0.2,2.7-0.4,4-0.5c0.7-0.1,1.1-0.5,0.9-0.9
				C128,128,127.7,127.1,127.4,126.2z"/>
			<path class="st2" d="M62.2,114.4c-0.2,0.4-0.8,0.8-1.3,0.8c-1.2,0-2.3,0.1-3.5,0.2c-0.6,0.1-0.9-0.2-0.7-0.6
				c0.3-0.8,0.7-1.7,1-2.5c0.2-0.4,0.8-0.9,1.4-0.9c1.1-0.1,2.2-0.2,3.3-0.3c0.6,0,0.9,0.3,0.7,0.8
				C62.8,112.7,62.5,113.5,62.2,114.4z"/>
			<path class="st2" d="M69.2,112.3c0.1-0.5-0.2-0.9-0.8-1c-1.1-0.2-2.2-0.3-3.3-0.3c-0.6,0-1.1,0.3-1.3,0.8
				c-0.3,0.9-0.6,1.7-0.9,2.6c-0.2,0.4,0.2,0.8,0.8,0.9c1.2,0.1,2.3,0.2,3.4,0.4c0.6,0.1,1.2-0.2,1.3-0.6
				C68.8,114.1,69,113.2,69.2,112.3z"/>
			<path class="st2" d="M75.3,113.9c0.1-0.5-0.3-1-0.8-1.2c-1.1-0.3-2.2-0.6-3.2-0.9c-0.6-0.1-1.1,0.2-1.2,0.6
				c-0.2,0.9-0.5,1.8-0.7,2.6c-0.1,0.5,0.3,0.9,0.8,1c1.1,0.3,2.3,0.6,3.4,0.9c0.6,0.2,1.1,0,1.2-0.5
				C74.9,115.7,75.1,114.8,75.3,113.9z"/>
			<path class="st2" d="M81.2,116.4c0.1-0.5-0.3-1.1-0.9-1.3c-1.1-0.5-2.1-1-3.2-1.4c-0.5-0.2-1.1,0-1.2,0.5
				c-0.2,0.9-0.3,1.8-0.5,2.7c-0.1,0.5,0.3,1,0.9,1.2c1.1,0.4,2.2,0.9,3.4,1.4c0.6,0.3,1.1,0.1,1.1-0.3
				C81,118.3,81.1,117.4,81.2,116.4z"/>
			<path class="st2" d="M87.1,120c0-0.5-0.4-1.1-0.9-1.5c-1-0.7-2.1-1.3-3.1-1.9c-0.5-0.3-1-0.2-1.1,0.3c-0.1,0.9-0.2,1.8-0.3,2.7
				c-0.1,0.5,0.4,1.1,0.9,1.4c1.1,0.6,2.2,1.3,3.3,2c0.6,0.4,1,0.3,1.1-0.2C87,121.8,87,120.9,87.1,120z"/>
			<path class="st2" d="M92.8,124.6c0-0.5-0.4-1.2-0.9-1.7c-1-0.9-2-1.7-3-2.5c-0.5-0.4-1-0.3-1,0.1c-0.1,0.9-0.1,1.8-0.2,2.7
				c0,0.5,0.4,1.2,0.9,1.6c1.1,0.8,2.1,1.6,3.2,2.5c0.5,0.5,1,0.5,1,0C92.8,126.4,92.8,125.5,92.8,124.6z"/>
			<path class="st2" d="M61.4,116.6c0.2-0.4-0.2-0.8-0.8-0.8c-1.2,0-2.3,0.1-3.5,0.2c-0.6,0.1-1.2,0.5-1.4,0.9
				c-0.3,0.8-0.7,1.7-1,2.5c-0.2,0.4,0.2,0.7,0.8,0.7c1.2-0.1,2.4-0.2,3.6-0.2c0.6,0,1.2-0.3,1.4-0.8
				C60.8,118.3,61.1,117.5,61.4,116.6z"/>
			<path class="st2" d="M92.8,129.6c0-0.5-0.4-1.2-1-1.7c-1.1-0.9-2.1-1.7-3.2-2.5c-0.6-0.4-1-0.3-1,0.1c-0.1,0.9-0.1,1.8-0.2,2.7
				c0,0.5,0.4,1.2,1,1.6c1.1,0.8,2.3,1.6,3.4,2.5c0.6,0.5,1,0.5,1,0C92.7,131.5,92.7,130.5,92.8,129.6z"/>
			<path class="st2" d="M59.7,121.4c0.2-0.4-0.2-0.8-0.8-0.8c-1.2,0-2.4,0-3.7,0.1c-0.6,0.1-1.3,0.5-1.4,0.9c-0.3,0.8-0.7,1.7-1,2.5
				c-0.2,0.4,0.2,0.7,0.8,0.7c1.3-0.1,2.5-0.1,3.8-0.1c0.6,0,1.3-0.3,1.5-0.8C59.1,123.1,59.4,122.2,59.7,121.4z"/>
			<path class="st2" d="M73.3,123.9c0.1-0.5-0.3-1-0.9-1.2c-1.2-0.4-2.4-0.7-3.6-1c-0.6-0.1-1.2,0.1-1.3,0.6
				c-0.2,0.9-0.5,1.8-0.7,2.6c-0.1,0.5,0.3,0.9,0.9,1.1c1.3,0.3,2.5,0.6,3.8,1c0.6,0.2,1.2,0,1.3-0.5
				C72.9,125.6,73.1,124.7,73.3,123.9z"/>
			<path class="st2" d="M79.9,126.5c0.1-0.5-0.4-1.1-1-1.3c-1.2-0.5-2.4-1-3.6-1.5c-0.6-0.2-1.2,0-1.3,0.4c-0.2,0.9-0.3,1.8-0.5,2.7
				c-0.1,0.5,0.4,1,1,1.2c1.3,0.5,2.5,1,3.7,1.5c0.6,0.3,1.2,0.1,1.3-0.3C79.7,128.3,79.8,127.4,79.9,126.5z"/>
			<path class="st2" d="M86.4,130.1c0-0.5-0.4-1.2-1-1.5c-1.2-0.7-2.3-1.4-3.5-2c-0.6-0.3-1.1-0.2-1.2,0.3c-0.1,0.9-0.2,1.8-0.3,2.7
				c-0.1,0.5,0.4,1.1,1,1.4c1.2,0.6,2.5,1.3,3.7,2c0.6,0.4,1.1,0.3,1.2-0.2C86.3,131.9,86.4,131,86.4,130.1z"/>
			<path class="st2" d="M92.7,134.7c0-0.5-0.5-1.2-1-1.7c-1.1-0.9-2.2-1.7-3.4-2.5c-0.6-0.4-1.1-0.3-1.1,0.1
				c-0.1,0.9-0.1,1.8-0.2,2.7c0,0.5,0.4,1.2,1.1,1.6c1.2,0.8,2.4,1.6,3.5,2.5c0.6,0.5,1.1,0.5,1.1,0
				C92.7,136.5,92.7,135.6,92.7,134.7z"/>
			<path class="st2" d="M58,126.2c0.2-0.4-0.2-0.8-0.9-0.8c-1.3,0-2.5,0-3.8,0.1c-0.6,0-1.3,0.4-1.5,0.9c-0.3,0.8-0.7,1.7-1,2.5
				c-0.2,0.4,0.2,0.7,0.9,0.7c1.3-0.1,2.6-0.1,3.9,0c0.7,0,1.3-0.3,1.5-0.7C57.4,127.9,57.7,127,58,126.2z"/>
			<path class="st2" d="M86.1,135.2c0-0.5-0.4-1.2-1.1-1.5c-1.2-0.7-2.4-1.4-3.7-2c-0.6-0.3-1.2-0.2-1.2,0.3
				c-0.1,0.9-0.2,1.8-0.3,2.7c-0.1,0.5,0.4,1.1,1.1,1.4c1.3,0.6,2.6,1.3,3.8,2c0.6,0.4,1.2,0.3,1.2-0.2C86,137,86,136.1,86.1,135.2z
				"/>
			<path class="st2" d="M92.7,139.8c0-0.5-0.5-1.2-1.1-1.7c-1.2-0.9-2.3-1.7-3.5-2.5c-0.6-0.4-1.1-0.3-1.2,0.1
				c-0.1,0.9-0.1,1.8-0.2,2.7c0,0.5,0.5,1.2,1.1,1.6c1.2,0.8,2.5,1.6,3.7,2.5c0.6,0.5,1.1,0.5,1.1,0
				C92.7,141.6,92.7,140.7,92.7,139.8z"/>
			<path class="st2" d="M56.3,131c0.2-0.4-0.3-0.8-0.9-0.9c-1.3,0-2.7,0-4,0c-0.7,0-1.4,0.4-1.5,0.9c-0.3,0.8-0.7,1.7-1,2.5
				c-0.2,0.4,0.2,0.7,0.9,0.7c1.4,0,2.7,0,4.1,0c0.7,0,1.4-0.3,1.6-0.7C55.7,132.7,56,131.8,56.3,131z"/>
			<path class="st2" d="M71.2,133.8c0.1-0.5-0.4-1-1.1-1.2c-1.3-0.4-2.7-0.7-4-1c-0.7-0.2-1.3,0.1-1.5,0.5c-0.2,0.9-0.5,1.8-0.7,2.6
				c-0.1,0.5,0.4,0.9,1.1,1.1c1.4,0.3,2.8,0.7,4.2,1.1c0.7,0.2,1.4,0,1.4-0.4C70.9,135.6,71,134.7,71.2,133.8z"/>
			<path class="st2" d="M78.6,136.6c0.1-0.5-0.4-1.1-1.1-1.4c-1.3-0.6-2.6-1.1-4-1.5c-0.7-0.2-1.3,0-1.4,0.4
				c-0.2,0.9-0.3,1.8-0.5,2.7c-0.1,0.5,0.4,1,1.1,1.3c1.4,0.5,2.8,1,4.1,1.6c0.7,0.3,1.3,0.2,1.4-0.3
				C78.3,138.4,78.5,137.5,78.6,136.6z"/>
			<path class="st2" d="M85.8,140.3c0-0.5-0.5-1.2-1.1-1.5c-1.3-0.7-2.6-1.4-3.9-2c-0.7-0.3-1.2-0.2-1.3,0.3
				c-0.1,0.9-0.2,1.8-0.3,2.7c-0.1,0.5,0.5,1.1,1.1,1.4c1.4,0.6,2.7,1.3,4,2c0.7,0.4,1.2,0.3,1.3-0.2
				C85.7,142.1,85.7,141.2,85.8,140.3z"/>
			<path class="st2" d="M92.7,144.9c0-0.5-0.5-1.2-1.1-1.7c-1.2-0.9-2.5-1.7-3.7-2.5c-0.6-0.4-1.2-0.3-1.2,0.1
				c-0.1,0.9-0.1,1.8-0.2,2.7c0,0.5,0.5,1.2,1.2,1.6c1.3,0.8,2.6,1.6,3.9,2.5c0.6,0.5,1.2,0.5,1.2,0
				C92.7,146.7,92.7,145.8,92.7,144.9z"/>
			<path class="st2" d="M54.7,135.8c0.2-0.4-0.3-0.8-1-0.9c-1.4-0.1-2.8-0.1-4.1,0c-0.7,0-1.4,0.4-1.6,0.8c-0.3,0.8-0.7,1.7-1,2.5
				c-0.2,0.4,0.3,0.8,1,0.7c1.4,0,2.8,0,4.3,0.1c0.7,0,1.4-0.3,1.6-0.7C54.1,137.5,54.4,136.6,54.7,135.8z"/>
			<path class="st2" d="M70.2,138.8c0.1-0.5-0.4-1-1.1-1.2c-1.4-0.4-2.8-0.8-4.2-1.1c-0.7-0.2-1.4,0.1-1.5,0.5
				c-0.2,0.9-0.5,1.8-0.7,2.6c-0.1,0.5,0.4,0.9,1.1,1.1c1.4,0.3,2.9,0.7,4.3,1.1c0.7,0.2,1.4,0,1.5-0.4
				C69.8,140.6,70,139.7,70.2,138.8z"/>
			<path class="st2" d="M77.9,141.6c0.1-0.5-0.5-1.1-1.2-1.4c-1.4-0.6-2.8-1.1-4.1-1.6c-0.7-0.2-1.4-0.1-1.4,0.4
				c-0.2,0.9-0.3,1.8-0.5,2.7c-0.1,0.5,0.4,1,1.2,1.3c1.4,0.5,2.9,1,4.3,1.6c0.7,0.3,1.4,0.2,1.4-0.3
				C77.7,143.4,77.8,142.5,77.9,141.6z"/>
			<path class="st2" d="M85.4,145.3c0-0.5-0.5-1.2-1.2-1.5c-1.3-0.7-2.7-1.4-4-2c-0.7-0.3-1.3-0.2-1.4,0.3c-0.1,0.9-0.2,1.8-0.3,2.7
				c-0.1,0.5,0.5,1.1,1.2,1.4c1.4,0.6,2.8,1.3,4.2,2c0.7,0.4,1.3,0.3,1.3-0.2C85.3,147.1,85.4,146.2,85.4,145.3z"/>
			<path class="st2" d="M53,140.5c0.2-0.4-0.3-0.8-1-0.9c-1.4-0.1-2.9-0.1-4.3-0.1c-0.7,0-1.4,0.4-1.6,0.8c-0.3,0.8-0.7,1.7-1,2.5
				c-0.2,0.4,0.3,0.8,1,0.8c1.5,0,2.9,0,4.4,0.1c0.8,0.1,1.5-0.2,1.7-0.7C52.4,142.3,52.7,141.4,53,140.5z"/>
			<path class="st2" d="M61.1,141.7c0.1-0.5-0.4-0.9-1.1-1.1c-1.5-0.3-2.9-0.5-4.4-0.6c-0.7-0.1-1.5,0.2-1.6,0.7
				c-0.3,0.9-0.6,1.7-0.9,2.6c-0.2,0.4,0.3,0.9,1.1,1c1.5,0.2,3,0.4,4.5,0.7c0.8,0.1,1.5-0.1,1.6-0.5
				C60.6,143.5,60.8,142.6,61.1,141.7z"/>
			<path class="st2" d="M69.2,143.8c0.1-0.5-0.4-1-1.2-1.2c-1.5-0.4-2.9-0.8-4.4-1.1c-0.7-0.2-1.4,0.1-1.6,0.5
				c-0.2,0.9-0.5,1.8-0.7,2.6c-0.1,0.5,0.4,0.9,1.2,1.1c1.5,0.3,3,0.7,4.5,1.2c0.8,0.2,1.5,0,1.6-0.4
				C68.8,145.5,69,144.6,69.2,143.8z"/>
			<path class="st2" d="M77.2,146.7c0.1-0.5-0.5-1.1-1.2-1.4c-1.4-0.6-2.9-1.1-4.3-1.6c-0.7-0.2-1.4-0.1-1.5,0.4
				c-0.2,0.9-0.3,1.8-0.5,2.7c-0.1,0.5,0.5,1,1.2,1.3c1.5,0.5,3,1,4.5,1.6c0.8,0.3,1.4,0.2,1.5-0.3C77,148.5,77.1,147.6,77.2,146.7z
				"/>
			<path class="st2" d="M98.7,123.2c0,0.5-0.4,1.2-0.9,1.6c-1.1,0.8-2.1,1.6-3.2,2.5c-0.5,0.5-1,0.5-1,0c0-0.9,0-1.8,0-2.7
				c0-0.5,0.4-1.2,0.9-1.7c1-0.9,2-1.7,3-2.5c0.5-0.4,1-0.3,1,0.1C98.6,121.4,98.6,122.3,98.7,123.2z"/>
			<path class="st2" d="M104.4,116.8c-0.1-0.5-0.5-0.6-1.1-0.3c-1.1,0.6-2.1,1.2-3.1,1.9c-0.5,0.4-0.9,1-0.9,1.5
				c0.1,0.9,0.1,1.8,0.2,2.7c0,0.5,0.5,0.5,1.1,0.2c1.1-0.7,2.2-1.4,3.3-2c0.6-0.3,1-0.9,0.9-1.4
				C104.6,118.6,104.5,117.7,104.4,116.8z"/>
			<path class="st2" d="M110.3,114.2c-0.1-0.5-0.6-0.7-1.2-0.5c-1.1,0.4-2.1,0.9-3.2,1.4c-0.5,0.3-0.9,0.9-0.9,1.3
				c0.1,0.9,0.2,1.8,0.4,2.7c0.1,0.5,0.6,0.6,1.1,0.3c1.1-0.5,2.2-1,3.4-1.4c0.6-0.2,1-0.8,0.9-1.2
				C110.7,116,110.5,115.1,110.3,114.2z"/>
			<path class="st2" d="M116.4,112.5c-0.1-0.5-0.7-0.7-1.2-0.6c-1.1,0.2-2.2,0.5-3.2,0.9c-0.5,0.2-0.9,0.7-0.8,1.2
				c0.2,0.9,0.4,1.8,0.5,2.7c0.1,0.5,0.6,0.7,1.2,0.5c1.1-0.4,2.3-0.7,3.4-0.9c0.6-0.1,1-0.6,0.8-1
				C116.8,114.2,116.6,113.4,116.4,112.5z"/>
			<path class="st2" d="M122.5,111.8c-0.2-0.4-0.7-0.8-1.3-0.8c-1.1,0.1-2.2,0.2-3.3,0.3c-0.6,0.1-0.9,0.5-0.8,1
				c0.2,0.9,0.5,1.8,0.7,2.6c0.1,0.5,0.7,0.7,1.3,0.6c1.1-0.2,2.3-0.3,3.4-0.4c0.6,0,0.9-0.4,0.8-0.9
				C123.1,113.5,122.8,112.7,122.5,111.8z"/>
			<path class="st2" d="M128.7,112.2c-0.2-0.4-0.8-0.9-1.4-0.9c-1.1-0.1-2.2-0.2-3.3-0.3c-0.6,0-0.9,0.3-0.7,0.8
				c0.3,0.9,0.6,1.7,0.9,2.6c0.2,0.4,0.8,0.8,1.3,0.8c1.2,0,2.3,0.1,3.5,0.2c0.6,0.1,0.9-0.2,0.7-0.6
				C129.4,113.9,129,113.1,128.7,112.2z"/>
			<path class="st2" d="M98.8,125.6c0-0.5-0.5-0.5-1-0.1c-1.1,0.8-2.2,1.6-3.2,2.5c-0.5,0.5-1,1.2-1,1.7c0,0.9,0,1.8,0,2.7
				c0,0.5,0.5,0.5,1,0c1.1-0.9,2.2-1.7,3.4-2.5c0.6-0.4,1-1.1,1-1.6C98.9,127.4,98.9,126.5,98.8,125.6z"/>
			<path class="st2" d="M124.1,116.6c-0.2-0.4-0.8-0.8-1.3-0.7c-1.2,0.1-2.3,0.2-3.5,0.4c-0.6,0.1-1,0.5-0.8,1
				c0.2,0.9,0.5,1.8,0.7,2.6c0.1,0.5,0.7,0.7,1.3,0.6c1.2-0.2,2.4-0.3,3.6-0.4c0.6,0,1-0.4,0.8-0.9
				C124.7,118.3,124.4,117.5,124.1,116.6z"/>
			<path class="st2" d="M130.6,116.9c-0.2-0.4-0.8-0.9-1.4-0.9c-1.2-0.1-2.3-0.2-3.5-0.2c-0.6,0-0.9,0.4-0.8,0.8
				c0.3,0.9,0.6,1.7,0.9,2.6c0.2,0.4,0.8,0.8,1.4,0.8c1.2,0,2.4,0,3.6,0.2c0.6,0.1,1-0.2,0.8-0.7C131.3,118.6,131,117.8,130.6,116.9
				z"/>
			<path class="st2" d="M99.1,130.6c0-0.5-0.5-0.5-1.1-0.1c-1.1,0.8-2.3,1.6-3.4,2.5c-0.6,0.5-1,1.2-1,1.7c0,0.9,0,1.8,0,2.7
				c0,0.5,0.5,0.5,1.1,0c1.2-0.9,2.3-1.7,3.5-2.5c0.6-0.4,1.1-1.1,1.1-1.6C99.2,132.5,99.2,131.5,99.1,130.6z"/>
			<path class="st2" d="M112.3,124.1c-0.1-0.5-0.7-0.7-1.3-0.4c-1.2,0.4-2.4,0.9-3.6,1.5c-0.6,0.3-1,0.9-1,1.3
				c0.1,0.9,0.2,1.8,0.4,2.7c0.1,0.5,0.6,0.6,1.3,0.3c1.2-0.5,2.5-1,3.7-1.5c0.6-0.2,1.1-0.8,1-1.2
				C112.6,125.9,112.4,125,112.3,124.1z"/>
			<path class="st2" d="M119,122.3c-0.1-0.5-0.7-0.7-1.3-0.6c-1.2,0.3-2.4,0.6-3.6,1c-0.6,0.2-1,0.7-0.9,1.2
				c0.2,0.9,0.4,1.8,0.5,2.7c0.1,0.5,0.7,0.7,1.3,0.5c1.3-0.4,2.5-0.7,3.8-1c0.6-0.1,1.1-0.6,0.9-1.1
				C119.5,124.1,119.2,123.2,119,122.3z"/>
			<path class="st2" d="M132.6,121.6c-0.2-0.4-0.8-0.8-1.4-0.9c-1.2-0.1-2.4-0.2-3.7-0.1c-0.6,0-1,0.4-0.8,0.8
				c0.3,0.9,0.6,1.7,0.9,2.6c0.2,0.4,0.8,0.8,1.5,0.8c1.3,0,2.5,0,3.8,0.1c0.6,0,1-0.3,0.8-0.7C133.3,123.3,132.9,122.5,132.6,121.6
				z"/>
			<path class="st2" d="M99.4,135.7c0-0.5-0.5-0.5-1.2-0.1c-1.2,0.8-2.4,1.6-3.5,2.5c-0.6,0.5-1.1,1.2-1.1,1.7c0,0.9,0,1.8,0,2.7
				c0,0.5,0.5,0.5,1.1,0c1.2-0.9,2.4-1.7,3.7-2.5c0.6-0.4,1.1-1.1,1.1-1.6C99.5,137.5,99.5,136.6,99.4,135.7z"/>
			<path class="st2" d="M113.2,129.1c-0.1-0.5-0.7-0.7-1.3-0.4c-1.3,0.5-2.5,1-3.8,1.5c-0.6,0.3-1.1,0.9-1,1.4
				c0.1,0.9,0.2,1.8,0.4,2.7c0.1,0.5,0.6,0.6,1.3,0.3c1.3-0.6,2.6-1.1,3.9-1.5c0.7-0.2,1.1-0.8,1.1-1.2
				C113.6,130.9,113.4,130,113.2,129.1z"/>
			<path class="st2" d="M120.3,127.2c-0.1-0.5-0.7-0.7-1.4-0.6c-1.3,0.3-2.5,0.6-3.8,1c-0.6,0.2-1.1,0.7-1,1.2
				c0.2,0.9,0.4,1.8,0.5,2.7c0.1,0.5,0.7,0.7,1.4,0.5c1.3-0.4,2.6-0.7,4-1c0.7-0.2,1.1-0.6,1-1.1C120.8,129,120.6,128.1,120.3,127.2
				z"/>
			<path class="st2" d="M134.5,126.3c-0.2-0.4-0.8-0.8-1.5-0.9c-1.3-0.1-2.5-0.1-3.8-0.1c-0.6,0-1,0.4-0.9,0.8
				c0.3,0.9,0.6,1.7,0.9,2.6c0.2,0.4,0.8,0.8,1.5,0.7c1.3,0,2.6,0,3.9,0c0.7,0,1.1-0.3,0.9-0.7C135.2,128,134.9,127.1,134.5,126.3z"
				/>
			<path class="st2" d="M99.7,140.8c0-0.5-0.6-0.5-1.2-0.1c-1.3,0.8-2.5,1.6-3.7,2.5c-0.6,0.5-1.1,1.2-1.1,1.7c0,0.9,0,1.8,0,2.7
				c0,0.5,0.5,0.5,1.2,0c1.3-0.9,2.5-1.7,3.9-2.5c0.7-0.4,1.2-1.1,1.2-1.6C99.8,142.6,99.7,141.7,99.7,140.8z"/>
			<path class="st2" d="M114.2,134.1c-0.1-0.5-0.7-0.6-1.4-0.4c-1.3,0.5-2.6,1-4,1.5c-0.7,0.3-1.2,0.9-1.1,1.4
				c0.1,0.9,0.2,1.8,0.4,2.7c0.1,0.5,0.7,0.6,1.4,0.3c1.4-0.6,2.7-1.1,4.1-1.6c0.7-0.2,1.2-0.8,1.1-1.3
				C114.6,135.9,114.4,135,114.2,134.1z"/>
			<path class="st2" d="M121.6,132.1c-0.1-0.5-0.8-0.7-1.5-0.5c-1.3,0.3-2.7,0.7-4,1c-0.7,0.2-1.1,0.7-1.1,1.2
				c0.2,0.9,0.4,1.8,0.5,2.7c0.1,0.5,0.7,0.6,1.4,0.4c1.4-0.4,2.8-0.8,4.2-1.1c0.7-0.2,1.2-0.6,1.1-1.1
				C122.1,133.9,121.9,133,121.6,132.1z"/>
			<path class="st2" d="M136.5,131c-0.2-0.4-0.9-0.8-1.5-0.9c-1.3-0.1-2.6-0.1-4,0c-0.7,0-1.1,0.4-0.9,0.9c0.3,0.9,0.6,1.7,0.9,2.6
				c0.2,0.4,0.9,0.8,1.6,0.7c1.4-0.1,2.7-0.1,4.1,0c0.7,0,1.1-0.3,0.9-0.7C137.2,132.7,136.8,131.8,136.5,131z"/>
			<path class="st2" d="M130.7,135.8c-0.2-0.4-0.8-0.8-1.6-0.7c-1.4,0.2-2.8,0.3-4.2,0.6c-0.7,0.1-1.2,0.6-1.1,1.1
				c0.2,0.9,0.5,1.8,0.7,2.6c0.1,0.5,0.8,0.7,1.6,0.6c1.4-0.3,2.9-0.5,4.3-0.6c0.7-0.1,1.2-0.5,1.1-0.9
				C131.3,137.6,131,136.7,130.7,135.8z"/>
			<path class="st2" d="M138.4,135.7c-0.2-0.4-0.9-0.8-1.6-0.8c-1.4,0-2.7,0-4.1,0c-0.7,0-1.2,0.4-1,0.9c0.3,0.9,0.6,1.7,0.9,2.6
				c0.2,0.4,0.9,0.7,1.6,0.7c1.4-0.1,2.9-0.1,4.3-0.1c0.7,0,1.2-0.3,1-0.7C139.1,137.4,138.7,136.5,138.4,135.7z"/>
			<path class="st2" d="M116.2,144.1c-0.1-0.5-0.8-0.6-1.5-0.4c-1.4,0.5-2.9,1-4.3,1.6c-0.7,0.3-1.3,0.9-1.2,1.4
				c0.1,0.9,0.2,1.8,0.4,2.7c0.1,0.5,0.7,0.6,1.5,0.3c1.5-0.6,3-1.1,4.5-1.6c0.8-0.3,1.3-0.8,1.2-1.3
				C116.5,145.9,116.3,145,116.2,144.1z"/>
			<path class="st2" d="M124.3,141.9c-0.1-0.5-0.8-0.7-1.6-0.5c-1.5,0.3-2.9,0.7-4.4,1.1c-0.7,0.2-1.3,0.8-1.2,1.2
				c0.2,0.9,0.4,1.8,0.5,2.7c0.1,0.5,0.8,0.6,1.6,0.4c1.5-0.4,3-0.8,4.5-1.2c0.8-0.2,1.3-0.7,1.2-1.1
				C124.8,143.7,124.5,142.8,124.3,141.9z"/>
			<path class="st2" d="M132.4,140.6c-0.2-0.4-0.9-0.7-1.6-0.7c-1.4,0.2-2.9,0.4-4.4,0.6c-0.7,0.1-1.2,0.6-1.1,1.1
				c0.2,0.9,0.5,1.8,0.7,2.6c0.1,0.5,0.9,0.7,1.6,0.5c1.5-0.3,3-0.5,4.5-0.7c0.8-0.1,1.3-0.5,1.1-1
				C133,142.4,132.7,141.5,132.4,140.6z"/>
			<path class="st2" d="M140.3,140.4c-0.2-0.4-0.9-0.8-1.6-0.8c-1.4,0-2.8,0-4.3,0.1c-0.7,0-1.2,0.5-1,0.9c0.3,0.9,0.6,1.7,0.9,2.6
				c0.2,0.4,0.9,0.7,1.7,0.7c1.5-0.1,3-0.2,4.4-0.1c0.7,0,1.2-0.3,1-0.8C141,142.1,140.7,141.2,140.3,140.4z"/>
		</g>
	</g>
</g>
<g>
	<g class="st7">
		<g>
			<path d="M121.7,36.2c0.3,0.6,0.7,1.4,1,2.2s0.8,1.8,1.2,2.9c0.4,1.1,0.8,2.2,1.2,3.4c0.4,1.2,0.6,2.4,0.9,3.6s0.3,2.4,0.3,3.6
				c0,1.9-0.3,3.8-0.9,5.4c-0.6,1.7-1.4,3.2-2.5,4.4s-2.4,2.2-4,3c-1.6,0.7-3.4,1.1-5.5,1.1c-1.8,0-3.3-0.3-4.4-0.9
				s-2.1-1.4-2.8-2.5c-0.4,0.5-0.9,1-1.3,1.4s-1,0.8-1.7,1.1s-1.4,0.5-2.2,0.7c-0.9,0.2-1.9,0.2-3,0.2c-0.8,0-1.6-0.1-2.3-0.2
				c-0.7-0.1-1.3-0.3-1.9-0.4c0,2.3-0.4,4.4-1,6.3c-0.7,1.9-1.6,3.6-2.8,5.1c-1.2,1.5-2.5,2.8-4.1,3.9s-3.3,2-5.1,2.7
				c-1.8,0.7-3.7,1.3-5.7,1.6c-2,0.4-3.9,0.5-5.9,0.5c-3,0-5.8-0.5-8.3-1.5c-2.6-1-4.8-2.4-6.6-4.2c-1.9-1.8-3.3-4-4.3-6.5
				s-1.6-5.3-1.6-8.3c0.1-1.8,0.3-3.6,0.7-5.4c0.4-1.8,1-3.6,1.6-5.4c0.7-1.8,1.4-3.4,2.2-5s1.6-3,2.5-4.3l6.4,4.9
				c-0.7,1.2-1.4,2.4-2.1,3.7c-0.7,1.3-1.3,2.6-1.8,3.9c-0.5,1.3-0.9,2.7-1.2,4s-0.5,2.6-0.5,3.9c-0.1,1.5,0.2,2.9,0.9,4.2
				c0.7,1.3,1.6,2.5,2.7,3.5c1.2,1,2.5,1.8,4.1,2.3c1.6,0.6,3.3,0.9,5,0.9c2,0,3.9-0.2,5.6-0.6s3.2-0.9,4.6-1.5
				c1.3-0.7,2.4-1.5,3.3-2.4s1.5-2,1.9-3.1l0,0c0.5-1.6,0.7-3.2,0.7-5c0-1.3-0.2-2.6-0.6-4s-0.9-2.7-1.4-4.1c-0.6-1.4-1.2-2.8-2-4.2
				c-0.7-1.4-1.4-2.8-2.1-4.2l8.1-4.5c0.5,1.2,1,2.3,1.5,3.5s1,2.3,1.5,3.4s1.1,2.1,1.6,3s1.1,1.7,1.7,2.4s1.2,1.2,1.8,1.5
				c0.6,0.3,1.3,0.5,2,0.4c0.8-0.1,1.5-0.4,2-0.9s0.9-1,1.2-1.7c0.3-0.7,0.4-1.5,0.5-2.3c0.1-0.9,0.1-1.7,0-2.6
				c0-0.9-0.1-1.8-0.2-2.6c-0.1-0.9-0.2-1.7-0.2-2.4l8.1-1.1c0.1,0.6,0.3,1.3,0.4,2.2s0.2,1.8,0.3,2.7c0.1,0.9,0.3,1.9,0.5,2.9
				s0.5,1.9,0.8,2.7s0.7,1.5,1.2,2.1s1.1,1,1.9,1.3c0.6,0,1.2-0.1,1.7-0.3s1-0.6,1.4-1s0.7-1,0.9-1.6c0.2-0.6,0.3-1.4,0.3-2.2
				c0-0.7-0.1-1.5-0.4-2.5c-0.3-0.9-0.6-1.9-1.1-3s-1-2.2-1.6-3.4s-1.2-2.4-1.9-3.6l7.5-4.2C121.1,35.1,121.4,35.5,121.7,36.2z"/>
			<path d="M145,48.3c0.5,1.4,0.9,2.9,1.3,4.4c0.4,1.5,0.7,3,1,4.5s0.4,2.9,0.4,4.2c0,1.8-0.3,3.6-0.8,5.4s-1.2,3.5-2.1,5.1
				c-0.9,1.6-2,3.2-3.3,4.7s-2.6,2.9-4.2,4.3c-1.5,1.3-3.2,2.6-4.9,3.7s-3.6,2.2-5.4,3.1l-5.4-7.4c1.4-0.7,2.8-1.5,4.3-2.4
				c1.4-0.9,2.8-1.9,4.1-2.9s2.6-2.1,3.7-3.2s2.1-2.3,3-3.4c0.9-1.2,1.5-2.3,2-3.5c0.5-1.2,0.7-2.3,0.7-3.5c0-0.8-0.1-1.7-0.3-2.7
				s-0.5-2-0.9-3.1s-0.8-2.3-1.4-3.5c-0.5-1.2-1.1-2.6-1.7-4l8.5-3.9C144.1,45.6,144.5,46.9,145,48.3z"/>
			<path d="M156.3,53.8c1.1,0.5,2.2,1,3.4,1.5c1.2,0.4,2.3,0.8,3.4,1.1c1.1,0.3,2.1,0.4,2.9,0.4c0.5,0,1.1,0,1.9-0.1
				c0.8-0.1,1.6-0.2,2.4-0.5c0.8-0.2,1.5-0.5,2-1s0.9-1,0.9-1.6c0-0.8-0.2-1.6-0.7-2.6s-1.1-2-1.9-3c-0.8-1-1.8-2.1-2.8-3.2
				c-1.1-1.1-2.2-2.1-3.3-3.1s-2.3-1.9-3.4-2.8c-1.1-0.9-2.2-1.6-3.1-2.2l5-7.7c1.9,1.3,3.8,2.8,5.7,4.5s3.6,3.4,5.2,5.3
				c1.6,1.8,3,3.8,4.1,5.7c1.2,2,2,4,2.5,6c0.2,0.6,0.3,1.1,0.3,1.7c0.1,0.6,0.1,1.1,0.1,1.7c0,1.8-0.4,3.5-1.1,5
				c-0.7,1.5-1.7,2.8-3,3.9c-1.3,1.1-2.8,2-4.5,2.6c-1.8,0.6-3.7,0.9-5.8,0.9c-0.2,0-0.3,0-0.5,0s-0.3,0-0.5,0
				c-1.4,0-2.7-0.1-4.2-0.4s-2.8-0.7-4.2-1.1c-1.4-0.5-2.7-1-4-1.6s-2.5-1.3-3.6-2l3.9-8.9C154.2,52.7,155.2,53.2,156.3,53.8z"/>
			<path d="M186.5,61c0.1-1.7,0.2-3.4,0.3-5.1s0.1-3.3,0.1-4.9s0-3.1-0.1-4.4c-0.1-2.8-0.2-5.2-0.3-7.3s-0.2-4-0.3-5.6
				s-0.2-3.1-0.3-4.3c-0.1-1.2-0.2-2.3-0.3-3.4c-0.1-1-0.2-2-0.4-2.9c-0.1-0.9-0.3-1.8-0.4-2.8l9.1-3c0.4,2.6,0.8,5.3,1,7.9
				c0.3,2.7,0.5,5.2,0.6,7.7c0.1,2.4,0.2,4.7,0.3,6.8c0,2.1,0.1,3.9,0.1,5.4c0,1.4,0,2.8,0,4.4c0,1.6,0,3.2-0.1,4.9
				s-0.1,3.4-0.1,5.1c-0.1,1.7-0.1,3.4-0.3,5.1l-9.1,1.4C186.3,64.4,186.4,62.7,186.5,61z"/>
			<path d="M221.7,65.9c-0.4,0-1,0-1.7-0.1s-1.5-0.3-2.4-0.6c-0.4,2.4-1.2,4.7-2.4,6.9c-1.2,2.2-2.7,4.2-4.4,6.2
				c-1.7,1.9-3.7,3.7-6,5.3c-2.2,1.6-4.6,3.1-7.2,4.3l-5.4-7.4c1.4-0.7,2.8-1.5,4.2-2.3s2.8-1.7,4-2.6s2.5-1.9,3.6-2.9
				s2.1-2.1,2.9-3.1c0.8-1.1,1.5-2.2,1.9-3.3c0.5-1.1,0.7-2.3,0.7-3.4c0-0.8-0.1-1.7-0.4-2.9c-0.3-1.2-0.7-2.4-1.1-3.8
				c-0.5-1.4-1-2.7-1.5-4.1c-0.5-1.4-1.1-2.6-1.6-3.8l8.5-3.7c0.8,2.4,1.5,4.3,2.3,5.9c0.7,1.6,1.4,2.8,2.1,3.8s1.3,1.6,1.9,2
				s1.2,0.6,1.8,0.6h0.7v9.3h-0.5L221.7,65.9L221.7,65.9z"/>
			<path d="M249,56.6v9.3h-27.9v-9.3C221.1,56.6,249,56.6,249,56.6z"/>
			<path d="M248.9,56.6c0.7,0,1.6,0,2.6,0s2.1,0,3.3-0.1c1.2,0,2.4-0.1,3.6-0.2c1.2-0.1,2.4-0.2,3.5-0.4s2.1-0.4,3-0.7
				s1.7-0.7,2.3-1.1c-2.6,0.3-4.9,0.3-7.1,0.2c-2.1-0.1-4-0.5-5.6-1.2s-2.8-1.8-3.6-3.2c-0.9-1.4-1.3-3.3-1.3-5.6
				c0-1.1,0.1-2.2,0.3-3.3s0.5-2.3,1-3.4c0.4-1.1,1-2.2,1.6-3.1c0.6-1,1.4-1.9,2.3-2.6c0.9-0.7,1.8-1.3,2.9-1.8
				c1-0.4,2.2-0.7,3.4-0.7c1.5,0,3,0.3,4.3,0.9s2.4,1.4,3.5,2.4c1,1,1.9,2.2,2.7,3.5s1.4,2.7,1.9,4.2s0.9,3,1.1,4.5
				c0.3,1.5,0.4,3,0.4,4.4c0,2.4-0.3,4.4-1,6.2s-1.6,3.2-2.8,4.5c-1.2,1.2-2.6,2.3-4.2,3c-1.6,0.8-3.4,1.4-5.3,1.9s-4,0.8-6.1,0.9
				c-2.2,0.2-4.4,0.3-6.6,0.3h-1.1v-9.3h1L248.9,56.6L248.9,56.6z M260.8,26.3l-6.5-6.5l6.5-6.5l6.5,6.5L260.8,26.3z M261,38.6
				c-0.5,0-0.9,0.1-1.4,0.4c-0.5,0.3-0.9,0.7-1.3,1.1c-0.4,0.5-0.7,1-1,1.6s-0.4,1.2-0.4,1.9c0,0.6,0.2,1.1,0.5,1.4
				c0.4,0.4,0.8,0.7,1.4,0.9s1.2,0.4,1.9,0.5c0.7,0.1,1.4,0.1,2.1,0.1s1.3,0,2,0s1.1-0.1,1.5-0.1c-0.2-0.9-0.4-1.8-0.7-2.7
				c-0.3-0.9-0.6-1.7-1.1-2.5c-0.4-0.7-0.9-1.4-1.5-1.9C262.4,39,261.7,38.7,261,38.6z"/>
			<path d="M311,65.9c-1.6,0-3.2-0.3-4.8-0.8c-1.6-0.5-3.1-1.3-4.4-2.4c-1.3-1-2.4-2.3-3.2-3.8s-1.3-3.2-1.3-5c0-3.9,1.7-8,5.2-12.2
				c0.3-0.3,0.5-0.6,0.7-0.8s0.4-0.4,0.5-0.6s0.3-0.3,0.4-0.5l0.5-0.5l-1.8-1.5l5.9-7.2c1,0.7,2.2,1.8,3.6,3c1.4,1.3,3,2.9,4.8,4.8
				c5.1,5.8,7.6,10.9,7.6,15.5c0,2-0.4,3.7-1.2,5.2c-0.8,1.5-1.9,2.7-3.1,3.8c-1.3,1-2.8,1.8-4.4,2.3
				C314.3,65.7,312.6,65.9,311,65.9z M316.7,54c0-0.6-0.2-1.3-0.6-2.1s-0.9-1.6-1.5-2.4s-1.3-1.7-2.1-2.5c-0.8-0.9-1.6-1.7-2.4-2.5
				c-0.5,0.6-1.1,1.3-1.7,2s-1.1,1.5-1.6,2.3s-0.9,1.7-1.2,2.5s-0.5,1.7-0.4,2.6c0,0.5,0.2,0.9,0.7,1.2c0.4,0.4,0.9,0.6,1.5,0.9
				c0.6,0.2,1.2,0.4,1.9,0.5s1.2,0.2,1.7,0.2c0.6,0,1.2,0,1.9-0.1s1.3-0.2,1.9-0.5c0.6-0.2,1-0.5,1.4-0.9
				C316.5,54.9,316.7,54.5,316.7,54z"/>
			<path d="M343.8,48.3c0.5,1.4,0.9,2.9,1.3,4.4s0.7,3,1,4.5s0.4,2.9,0.4,4.2c0,1.8-0.3,3.6-0.8,5.4s-1.2,3.5-2.1,5.1
				s-2,3.2-3.3,4.7s-2.6,2.9-4.2,4.3c-1.5,1.3-3.2,2.6-4.9,3.7c-1.7,1.1-3.6,2.2-5.4,3.1l-5.4-7.4c1.4-0.7,2.8-1.5,4.3-2.4
				c1.4-0.9,2.8-1.9,4.1-2.9c1.3-1,2.6-2.1,3.7-3.2s2.1-2.3,3-3.4c0.9-1.2,1.5-2.3,2-3.5c0.5-1.2,0.7-2.3,0.7-3.5
				c0-0.8-0.1-1.7-0.3-2.7c-0.2-1-0.5-2-0.9-3.1s-0.8-2.3-1.4-3.5c-0.5-1.2-1.1-2.6-1.7-4l8.5-3.9C342.9,45.6,343.3,46.9,343.8,48.3
				z"/>
			<path d="M365.7,65.9c-2.5,0-4.5-0.3-6.2-1s-3.1-1.6-4.2-2.7s-1.9-2.5-2.3-4.1s-0.7-3.3-0.7-5.1c0-0.9,0-2.1,0.1-3.5
				s0.1-3,0.1-4.9c0-1.8,0-3.9,0-6.1s-0.1-4.4-0.2-6.6s-0.2-4.3-0.4-6.4c-0.2-2-0.4-3.8-0.7-5.3l8.8-2.7c0.3,1.3,0.5,2.8,0.6,4.6
				c0.2,1.8,0.3,3.6,0.4,5.5s0.2,3.9,0.2,5.8s0.1,3.7,0.1,5.4c0,1.5,0,3-0.1,4.6s-0.1,3.2-0.2,4.7c0,1.5,0,2.8,0,4
				c0.1,1.2,0.3,2.1,0.5,2.7c0.2,0.5,0.4,0.8,0.7,1c0.3,0.2,0.6,0.4,0.9,0.5c0.4,0.1,0.7,0.2,1.2,0.2c0.4,0,0.9,0,1.4,0h0.8v9.3
				L365.7,65.9L365.7,65.9z"/>
			<path d="M393.2,56.6v9.3h-27.9v-9.3C365.3,56.6,393.2,56.6,393.2,56.6z"/>
			<path d="M392,56.6h2.1c0.1-1.3,0.3-2.7,0.6-4.2c0.3-1.5,0.8-3.1,1.4-4.6s1.3-3,2.1-4.5c0.8-1.4,1.7-2.7,2.7-3.9
				c1-1.1,2-2.1,3.2-2.8c1.1-0.7,2.3-1.1,3.6-1.2c1.3,0,2.5,0.4,3.6,1.1s2.1,1.7,2.9,2.8c0.8,1.2,1.4,2.5,1.9,3.9
				c0.5,1.5,0.7,3,0.7,4.5c0,1.8-0.4,3.5-1.1,5.2c-0.8,1.7-1.8,3.3-3,4.7c-1.2,1.5-2.6,2.8-4.2,3.9c-1.6,1.2-3.2,2.1-4.8,2.9
				c0.1,0.5,0.4,1,0.9,1.7c0.4,0.7,0.9,1.3,1.5,2s1.1,1.3,1.7,1.9s1,1.1,1.4,1.4c0-1.1,0.1-2.3,0.5-3.5s0.8-2.3,1.5-3.4
				c0.6-1.1,1.4-2.1,2.3-3.1s1.8-1.8,2.8-2.5s2-1.3,3.1-1.7s2.1-0.6,3.1-0.6h1.5v9.3h-1.6c-0.9,0-1.7,0.2-2.5,0.7s-1.5,1-2.1,1.8
				c-0.6,0.7-1.1,1.5-1.5,2.4s-0.6,1.8-0.6,2.7c0,0.4,0,0.8,0.1,1.1c0.1,0.3,0.2,0.7,0.3,1c0.2,0.4,0.4,0.7,0.6,1.1
				c0.3,0.4,0.6,0.8,1,1.3l-5.4,6.6c-2.4-1.4-4.4-2.9-6.2-4.4c-1.8-1.5-3.3-3-4.6-4.6c-1.3-1.6-2.4-3.1-3.3-4.8
				c-0.9-1.6-1.6-3.2-2.2-4.9h-4V56.6z M409.4,49.1c0-0.5,0-1.1,0-1.8s-0.1-1.2-0.3-1.8c-0.1-0.6-0.3-1.1-0.6-1.6
				c-0.3-0.5-0.6-0.8-0.9-1.1c-0.4,0.2-0.8,0.6-1.2,1.1c-0.4,0.6-0.9,1.2-1.3,2c-0.5,0.8-0.9,1.6-1.3,2.6c-0.4,0.9-0.8,1.9-1.1,2.8
				c-0.3,1-0.6,1.9-0.8,2.8c-0.2,0.9-0.3,1.7-0.3,2.5c0.8-0.2,1.7-0.5,2.6-1s1.8-1.1,2.5-1.8c0.8-0.7,1.4-1.5,2-2.3
				C409,50.9,409.3,50,409.4,49.1z"/>
			<path d="M422.5,56.6h4c0.8,0,1.7-0.1,2.7-0.2s1.9-0.4,2.8-0.7s1.6-0.7,2.1-1.2c0.6-0.5,0.9-1.2,0.9-1.9c0-0.5-0.1-1.2-0.4-2.1
				c-0.3-0.9-0.6-2-1.1-3.1s-1-2.3-1.5-3.6s-1.1-2.5-1.7-3.6l8.4-4.2c0.5,1.2,1.1,2.6,1.6,3.9c0.5,1.4,1,2.8,1.5,4.2
				c0.4,1.4,0.8,2.9,1,4.3c0.3,1.4,0.4,2.8,0.4,4.1c0,2.4-0.4,4.4-1.2,6.1c-0.8,1.7-1.9,3.1-3.3,4.2c-1.4,1.1-3.1,1.9-5.1,2.4
				s-4.1,0.8-6.5,0.8h-4.7v-9.4H422.5z M432,82.1l-6.5-6.5L432,69l6.5,6.5L432,82.1z"/>
			<path d="M493,65.9c-1.7,0-3.6-0.1-5.7-0.2c-2-0.1-4.1-0.4-6.1-0.9c-2-0.4-4-1-5.9-1.8c-1.9-0.7-3.6-1.7-5-2.9
				c-1.5-1.2-2.7-2.6-3.6-4.4s-1.5-3.7-1.6-6.1c0-1.2,0.1-2.3,0.4-3.4c0.3-1.1,0.6-2.2,1-3.2s0.9-2.1,1.4-3.1s1.1-2,1.7-3l6.9,5.8
				c-0.3,0.4-0.6,0.9-1,1.6c-0.4,0.7-0.8,1.3-1.1,2.1c-0.4,0.7-0.7,1.5-0.9,2.2s-0.4,1.4-0.4,1.9c0,0.7,0.3,1.4,0.8,2
				s1.2,1.1,2.2,1.5s2,0.8,3.3,1.1s2.6,0.6,4.1,0.8s3,0.3,4.7,0.4c1.6,0.1,3.3,0.1,5,0.1c0.8,0,1.6,0,2.5,0s1.7,0,2.5,0
				s1.5,0,2.1-0.1c0.6,0,1,0,1.2-0.1c-0.7-0.8-1.3-1.8-1.9-2.9c-0.6-1.2-0.9-2.5-1-3.9c0-1.2,0.1-2.3,0.4-3.5s0.7-2.3,1.3-3.5
				c0.5-1.1,1.2-2.2,2-3.1c0.8-1,1.7-1.8,2.6-2.5c1-0.7,2-1.3,3.1-1.6c1.1-0.4,2.3-0.6,3.5-0.5c1.7,0.1,3.3,0.5,4.8,1.3
				s2.7,1.8,3.8,3.1s1.9,2.7,2.5,4.3s0.9,3.3,0.9,5c0,1.4-0.2,2.7-0.7,4s-1,2.5-1.7,3.7c0.9,0.1,1.9,0.2,2.8,0.3s1.7,0.1,2.5,0.1h1
				v9.3h-0.8c-1.2,0-2.5,0-3.8-0.1c-1.3,0-2.6-0.1-3.8-0.3c-1.3-0.2-2.5-0.4-3.8-0.7c-1.3-0.3-2.5-0.7-3.7-1.3
				c-0.5,0.3-1.1,0.5-1.9,0.8c-0.8,0.2-1.8,0.4-2.8,0.6s-2.2,0.3-3.4,0.5c-1.2,0.1-2.4,0.2-3.6,0.3c-1.2,0.1-2.4,0.2-3.5,0.2
				C495,65.9,493.9,65.9,493,65.9z M512.5,30.1l-6.5-6.5l6.5-6.5l6.5,6.5L512.5,30.1z M515.5,49.2c0-0.6-0.2-1.2-0.5-1.8
				s-0.7-1.1-1.1-1.5c-0.4-0.5-0.9-0.8-1.4-1.1s-1-0.5-1.4-0.6c-0.5,0.1-1,0.3-1.5,0.5c-0.6,0.3-1.1,0.6-1.6,1.1s-1,1-1.3,1.7
				c-0.4,0.7-0.5,1.4-0.5,2.3c0,0.3,0.2,0.7,0.5,1.2s0.7,1,1.2,1.6c0.5,0.5,1,1,1.6,1.5s1.3,0.8,1.9,1c0.5-0.3,1-0.7,1.5-1.1
				c0.5-0.5,1-1,1.4-1.5s0.7-1.1,1-1.6C515.4,50.2,515.5,49.7,515.5,49.2z"/>
			<path d="M553.9,56.6v9.3H526v-9.3C526,56.6,553.9,56.6,553.9,56.6z"/>
			<path d="M579,56.6v9.3h-0.7c-0.9,0-1.9-0.1-2.8-0.2c-0.9-0.2-1.8-0.4-2.6-0.7c-0.8-0.3-1.5-0.6-2.2-1s-1.3-0.8-1.8-1.3
				c-0.9,0.7-2,1.3-3.2,1.7s-2.4,0.7-3.8,1c-1.3,0.2-2.7,0.4-4.1,0.4c-1.4,0.1-2.8,0.1-4.1,0.1h-1.1v-9.3h1.1c1.4,0,2.7,0,3.8-0.1
				s2.1-0.2,2.9-0.4s1.5-0.5,2.1-0.8s1-0.7,1.4-1.2c0.5-0.6,0.7-1.3,0.8-2.1s0.1-1.6,0-2.4c-0.1-0.8-0.2-1.6-0.5-2.4
				c-0.2-0.8-0.4-1.6-0.6-2.3l8.6-2.4c0.2,0.9,0.4,1.7,0.6,2.4s0.3,1.4,0.4,2.1c0.1,0.7,0.2,1.4,0.3,2.1c0.1,0.7,0.2,1.5,0.3,2.3
				c0.1,0.5,0.2,1.1,0.3,1.7c0.1,0.6,0.3,1.2,0.6,1.7s0.7,1,1.2,1.3c0.5,0.4,1.2,0.5,2,0.5C577.9,56.6,579,56.6,579,56.6z
				 M564.2,74.6l-5.5,5.5l-5.7-5.7l5.7-5.7l5.6,5.6l5.5-5.5l5.7,5.7l-5.7,5.7L564.2,74.6z"/>
			<path d="M577.8,56.6h2.1c0.5,0,0.9,0,1.4,0s0.9-0.1,1.3-0.1c0.4,0,0.7-0.1,0.9-0.2c-0.4-0.4-0.7-0.8-1-1.3s-0.6-1-0.9-1.5
				c-0.3-0.5-0.5-1.1-0.7-1.8s-0.3-1.3-0.3-2.1c0-1.2,0.1-2.3,0.4-3.5c0.3-1.2,0.7-2.3,1.3-3.5c0.5-1.1,1.2-2.2,2-3.1
				c0.8-1,1.7-1.8,2.6-2.5c1-0.7,2-1.3,3.1-1.6c1.1-0.4,2.3-0.6,3.5-0.5c1.7,0.1,3.3,0.5,4.8,1.3s2.7,1.8,3.8,3.1s1.9,2.7,2.5,4.3
				s0.9,3.3,0.9,5c0,1.4-0.2,2.7-0.7,4s-1,2.5-1.7,3.7c0.5,0.1,1.1,0.2,1.9,0.3c0.7,0.1,1.7,0.1,2.9,0.1h0.6V66h-1.1
				c-1.3,0-2.5,0-3.6-0.1s-2.3-0.2-3.4-0.4c-1.1-0.2-2.2-0.4-3.3-0.7s-2.3-0.7-3.5-1.2c-0.7,0.4-1.6,0.8-2.7,1.1s-2.3,0.5-3.6,0.7
				s-2.6,0.3-4.1,0.4c-1.4,0.1-2.8,0.1-4.2,0.1h-1.1v-9.3C577.9,56.6,577.8,56.6,577.8,56.6z M592.9,30.7l-6.5-6.5l6.5-6.5l6.5,6.5
				L592.9,30.7z M597.7,49.2c0-0.6-0.2-1.2-0.5-1.8s-0.7-1.1-1.1-1.5c-0.4-0.5-0.9-0.8-1.4-1.1s-1-0.5-1.4-0.6
				c-0.5,0.1-1,0.3-1.5,0.5c-0.6,0.3-1.1,0.6-1.6,1.1s-1,1-1.3,1.7c-0.4,0.7-0.5,1.4-0.5,2.3c0,0.3,0.2,0.7,0.5,1.2s0.7,1,1.2,1.6
				c0.5,0.5,1,1,1.6,1.5s1.3,0.8,1.9,1c0.5-0.3,1-0.7,1.5-1.1c0.5-0.5,1-1,1.4-1.5s0.7-1.1,1-1.6C597.6,50.2,597.7,49.7,597.7,49.2z
				"/>
			<path d="M607.3,56.6h6c1.4,0,2.9-0.1,4.5-0.3s3.2-0.5,4.9-0.8s3.3-0.7,5-1.2s3.3-1,4.9-1.5c1.6-0.5,3.1-1.1,4.6-1.7
				s2.8-1.2,4-1.8c-1.2-0.3-2.6-0.7-4.1-1.2s-3-1-4.5-1.6s-3-0.9-4.5-1.3c-1.4-0.4-2.7-0.5-3.9-0.5c-0.7,0-1.4,0.2-2.1,0.5
				c-0.7,0.3-1.3,0.6-1.9,1.1s-1.1,0.9-1.6,1.4s-0.9,0.9-1.2,1.4c-0.3,0.4-0.6,0.8-0.8,1.1l-0.3,0.4l-7-4c0.8-1.5,1.7-2.9,2.8-4.2
				s2.3-2.5,3.6-3.6s2.7-1.8,4.1-2.5c1.4-0.6,2.8-0.9,4.3-0.9c1.1,0,2.1,0.1,3.2,0.4s2.1,0.5,3.2,0.9c1.1,0.4,2.1,0.8,3.2,1.3
				c1.1,0.5,2.2,1,3.3,1.5s2.4,1.1,3.7,1.6c1.4,0.5,2.8,1,4.3,1.4s3,0.7,4.5,1s3,0.4,4.5,0.4l-1.5,8.7c-0.5,0.2-1,0.4-1.5,0.7
				c-0.6,0.3-1.1,0.5-1.5,0.7l-0.8,0.4c0.5,0.5,1,1,1.7,1.3s1.4,0.5,2.1,0.7c0.7,0.1,1.4,0.2,2.1,0.3c0.7,0,1.2,0.1,1.6,0.1h1v9.3
				h-1c-1.9,0-3.7-0.2-5.3-0.5c-1.7-0.3-3.2-0.8-4.5-1.5c-1.4-0.6-2.6-1.4-3.6-2.3s-1.9-1.9-2.6-3.1c-1.9,0.9-4,1.9-6.1,2.7
				c-2.1,0.9-4.3,1.7-6.5,2.4c-2.3,0.7-4.6,1.3-7,1.7c-2.4,0.4-4.9,0.6-7.5,0.6h-6v-9.5C607.1,56.6,607.3,56.6,607.3,56.6z
				 M623.9,32.5l-6.5-6.5l6.5-6.5l6.5,6.5L623.9,32.5z"/>
			<path d="M656.3,56.6h7.1c0.8,0,1.8,0,2.8-0.1s2-0.3,2.9-0.5c0.9-0.3,1.6-0.7,2.2-1.2s0.9-1.3,0.9-2.1c0-0.5-0.1-1.2-0.4-2.1
				c-0.3-0.9-0.7-2-1.1-3.1s-1-2.3-1.6-3.6s-1.2-2.5-1.7-3.6l8.4-4.2c0.5,1.2,1.1,2.6,1.6,3.9c0.5,1.4,1,2.8,1.5,4.2s0.8,2.9,1,4.3
				c0.3,1.4,0.4,2.8,0.4,4.1c0,2.4-0.4,4.5-1.3,6.2c-0.9,1.7-2.1,3.1-3.6,4.1c-1.5,1.1-3.3,1.8-5.4,2.3c-2.1,0.5-4.3,0.7-6.6,0.7h-7
				v-9.3C656.4,56.6,656.3,56.6,656.3,56.6z M670,26.3l-5.5,5.5l-5.7-5.7l5.7-5.7l5.6,5.6l5.5-5.5l5.7,5.7l-5.7,5.7L670,26.3z"/>
			<path d="M716.5,65.9c-1.6,0-3.2-0.3-4.8-0.8s-3.1-1.3-4.4-2.4c-1.3-1-2.4-2.3-3.2-3.8s-1.3-3.2-1.3-5c0-3.9,1.7-8,5.2-12.2
				c0.3-0.3,0.5-0.6,0.7-0.8s0.4-0.4,0.5-0.6s0.3-0.3,0.4-0.5l0.5-0.5l-1.8-1.5l5.9-7.2c1,0.7,2.2,1.8,3.6,3c1.4,1.3,3,2.9,4.8,4.8
				c5.1,5.8,7.6,10.9,7.6,15.5c0,2-0.4,3.7-1.2,5.2s-1.9,2.7-3.1,3.8c-1.3,1-2.8,1.8-4.4,2.3C719.8,65.7,718.2,65.9,716.5,65.9z
				 M722.2,54c0-0.6-0.2-1.3-0.6-2.1c-0.4-0.8-0.9-1.6-1.5-2.4c-0.6-0.8-1.3-1.7-2.1-2.5c-0.8-0.9-1.6-1.7-2.4-2.5
				c-0.5,0.6-1.1,1.3-1.7,2c-0.6,0.7-1.1,1.5-1.6,2.3s-0.9,1.7-1.2,2.5c-0.3,0.9-0.5,1.7-0.4,2.6c0,0.5,0.2,0.9,0.7,1.2
				s0.9,0.6,1.5,0.9c0.6,0.2,1.2,0.4,1.9,0.5s1.2,0.2,1.7,0.2c0.6,0,1.2,0,1.9-0.1s1.3-0.2,1.9-0.5c0.6-0.2,1-0.5,1.4-0.9
				C722,54.9,722.2,54.5,722.2,54z"/>
			<path d="M749.3,48.3c0.5,1.4,0.9,2.9,1.3,4.4c0.4,1.5,0.7,3,1,4.5s0.4,2.9,0.4,4.2c0,1.8-0.3,3.6-0.8,5.4s-1.2,3.5-2.1,5.1
				c-0.9,1.6-2,3.2-3.3,4.7s-2.6,2.9-4.2,4.3c-1.5,1.3-3.2,2.6-4.9,3.7s-3.6,2.2-5.4,3.1l-5.4-7.4c1.4-0.7,2.8-1.5,4.3-2.4
				c1.4-0.9,2.8-1.9,4.2-2.9c1.3-1,2.6-2.1,3.7-3.2c1.1-1.1,2.1-2.3,3-3.4c0.9-1.2,1.5-2.3,2-3.5c0.5-1.2,0.7-2.3,0.7-3.5
				c0-0.8-0.1-1.7-0.3-2.7s-0.5-2-0.9-3.1s-0.8-2.3-1.4-3.5c-0.5-1.2-1.1-2.6-1.7-4l8.5-3.9C748.4,45.6,748.8,46.9,749.3,48.3z"/>
			<path d="M757.6,61c0.1-1.7,0.2-3.4,0.3-5.1c0.1-1.7,0.1-3.3,0.1-4.9s0-3.1-0.1-4.4c-0.1-2.8-0.2-5.2-0.3-7.3s-0.2-4-0.3-5.6
				s-0.2-3.1-0.3-4.3c-0.1-1.2-0.2-2.3-0.3-3.4c-0.1-1-0.2-2-0.4-2.9c-0.1-0.9-0.3-1.8-0.4-2.8l9.1-3c0.4,2.6,0.8,5.3,1,7.9
				c0.3,2.7,0.5,5.2,0.6,7.7c0.1,2.4,0.2,4.7,0.3,6.8s0.1,3.9,0.1,5.4c0,1.4,0,2.8,0,4.4c0,1.6,0,3.2-0.1,4.9s-0.1,3.4-0.1,5.1
				c-0.1,1.7-0.1,3.4-0.3,5.1l-9.1,1.4C757.4,64.4,757.5,62.7,757.6,61z"/>
			<path d="M769.7,77.6c2.8-0.5,5.3-1.2,7.6-2.1c2.3-0.8,4.3-1.8,6-2.8s3.1-2.1,4.3-3.3c1.1-1.2,1.9-2.3,2.4-3.5c-0.8,0-1.7,0-2.7,0
				c-0.9,0-1.7-0.1-2.3-0.1c-1.9-0.2-3.7-0.5-5.3-1.1s-3-1.4-4.1-2.4s-2-2.2-2.7-3.7c-0.6-1.5-0.9-3.1-0.9-5c0-1.2,0.1-2.4,0.4-3.7
				c0.3-1.3,0.6-2.5,1.1-3.7s1.1-2.3,1.8-3.4c0.7-1.1,1.5-2,2.4-2.8s1.9-1.4,3-1.9s2.3-0.7,3.5-0.7c1.5,0,2.9,0.3,4.1,0.8
				c1.3,0.5,2.4,1.3,3.5,2.2c1,0.9,2,2,2.8,3.3c0.8,1.2,1.5,2.6,2.1,4s1.1,2.9,1.5,4.4s0.7,3,0.8,4.5h1.3v9.3h-1.9
				c-0.8,2.9-2,5.5-3.7,7.8s-3.7,4.4-6,6.1s-4.9,3.2-7.8,4.3c-2.9,1.1-5.8,1.9-8.9,2.4L769.7,77.6z M784.1,46.8
				c-0.4-0.1-0.9,0.1-1.4,0.4c-0.5,0.4-1,0.9-1.5,1.5s-0.8,1.3-1.1,2s-0.5,1.5-0.4,2.1c0,0.7,0.2,1.2,0.6,1.6s0.9,0.8,1.6,1.1
				c0.6,0.3,1.4,0.5,2.2,0.6s1.6,0.2,2.4,0.3c0.8,0.1,1.6,0.1,2.3,0.1h1.8c-0.3-1.2-0.6-2.4-1-3.5s-0.9-2.1-1.4-3s-1.1-1.6-1.8-2.2
				S784.9,47,784.1,46.8z"/>
			<path d="M826.9,56.6v9.3H799v-9.3C799,56.6,826.9,56.6,826.9,56.6z"/>
			<path d="M847.6,56.6v9.3H847c-1.9,0-3.5-0.3-4.8-0.8s-2.5-1.3-3.4-2.2c-1.4,1-3.1,1.8-5,2.3s-4.2,0.7-6.9,0.7h-1.1v-9.3h1.1
				c2.7,0,4.7-0.4,6.1-1.3c1.4-0.9,2.1-2.2,2.1-4c0-0.6-0.1-1.4-0.2-2.5c-0.2-1.1-0.5-2.5-1-4.2l8.3-2c0.3,1.1,0.6,2,0.8,2.9
				s0.4,1.6,0.5,2.3s0.2,1.3,0.3,1.9c0.1,0.6,0.1,1.1,0.1,1.7c0,0.5,0.1,1.1,0.2,1.8c0.1,0.6,0.2,1.2,0.5,1.7s0.5,1,0.9,1.3
				s0.9,0.5,1.6,0.5L847.6,56.6L847.6,56.6z M835,37.9l-6.5-6.5l6.5-6.5l6.5,6.5L835,37.9z"/>
			<path d="M847,56.6c1,0,2-0.2,2.9-0.5s1.8-1,2.6-2s1.6-2.4,2.3-4.2s1.4-4.1,2-7l7.8,1.1c0,0.1,0,0.2-0.1,0.4
				c-0.1,0.5-0.3,1.2-0.4,2.1c-0.2,0.9-0.3,1.9-0.5,3c-0.1,1.1-0.2,2.2-0.2,3.2s0.1,1.9,0.4,2.6s0.6,1.2,1.2,1.3
				c0.6,0.2,1.2,0,1.8-0.4s1.1-1,1.6-1.7c0.5-0.8,1-1.6,1.4-2.6s0.8-2,1.2-3.1s0.7-2.1,0.9-3.1c0.3-1,0.5-1.9,0.6-2.7l7.8,1.1
				c0,0.5-0.1,1.1-0.2,2c-0.1,0.8-0.2,1.7-0.2,2.6s-0.1,1.8-0.1,2.8c0,0.9,0.1,1.8,0.3,2.5c0.2,0.8,0.5,1.4,0.9,1.9s1,0.7,1.7,0.7
				c0.6,0,1.2-0.2,1.7-0.6c0.5-0.4,0.9-1,1.2-1.7s0.6-1.5,0.8-2.4s0.3-1.8,0.4-2.7c0.1-0.9,0.1-1.8,0.1-2.7s0-1.6-0.1-2.3l7.9-1.1
				l1,8.3c0.1,0.9,0.4,1.7,0.8,2.4c0.4,0.7,0.9,1.2,1.4,1.7c0.5,0.4,1.1,0.8,1.7,1c0.6,0.2,1.1,0.3,1.7,0.3h0.9v9.3h-0.9
				c-1.9,0-3.7-0.3-5.4-1s-3.1-1.8-4.4-3.4c-0.1,0.2-0.2,0.3-0.4,0.4c-0.1,0.1-0.2,0.2-0.3,0.4l0,0c-1.1,1.1-2.3,2-3.7,2.7
				s-2.9,1-4.5,1c-1.8,0-3.4-0.4-4.9-1.1s-2.8-1.8-3.8-3.1c-1.2,1.3-2.5,2.3-4,3.1S866.8,66,865,66c-1.7,0-3.2-0.4-4.7-1.1
				s-2.6-1.8-3.6-3.1c-1.1,1.5-2.4,2.5-3.9,3.1c-1.6,0.6-3.5,0.9-5.8,0.9h-0.6v-9.3L847,56.6L847,56.6z M864.6,44.1L864.6,44.1
				C864.6,43.9,864.6,43.9,864.6,44.1z M876.4,31.6l-5.5,5.5l-5.7-5.7l5.7-5.7l5.6,5.6l5.5-5.5l5.7,5.7l-5.7,5.7L876.4,31.6z
				 M881.7,23l-5.2,5.2l-5.3-5.3l5.2-5.2L881.7,23z"/>
			<path d="M900.9,56.6h6.2c3.2,0,6.1-0.2,8.8-0.6s5.1-0.9,7.5-1.5c2.3-0.6,4.5-1.4,6.6-2.3c2.1-0.9,4.1-1.7,6.1-2.7
				c-1.3-0.4-2.7-0.8-4-1.4c-1.3-0.5-2.7-1.1-4-1.6s-2.7-0.9-4-1.3c-1.3-0.4-2.7-0.5-4-0.5c-0.9,0-1.8,0.2-2.7,0.7s-1.7,1-2.4,1.7
				c-0.7,0.6-1.3,1.2-1.8,1.8s-0.8,1-0.9,1.2l-6.8-4.4c0.7-1.3,1.6-2.6,2.6-3.9c1-1.3,2.1-2.4,3.4-3.3c1.2-1,2.5-1.8,4-2.3
				s2.9-0.9,4.5-0.9c1.2,0,2.3,0.1,3.5,0.4c1.2,0.2,2.3,0.6,3.5,1c1.1,0.4,2.3,0.8,3.4,1.3c1.1,0.5,2.2,1,3.3,1.5
				c1,0.5,2.1,1,3.1,1.5c1.1,0.5,2.1,0.9,3.3,1.3c1.1,0.4,2.3,0.7,3.5,1s2.5,0.4,3.8,0.4l-0.7,9l-4.2,2c-1.7,0.8-3.4,1.7-5.1,2.5
				s-3.4,1.7-5.2,2.5c-1.7,0.8-3.6,1.6-5.4,2.3c-1.9,0.7-3.8,1.4-5.9,1.9c-2,0.5-4.2,1-6.5,1.3s-4.7,0.5-7.3,0.5h-6.2L900.9,56.6
				L900.9,56.6z M925.2,82l-6.5-6.5l6.5-6.5l6.5,6.5L925.2,82z"/>
		</g>
	</g>
	<g>
		<g>
			<path class="st2" d="M119.7,33.2c0.3,0.6,0.7,1.4,1,2.2s0.8,1.8,1.2,2.9c0.4,1.1,0.8,2.2,1.2,3.4c0.4,1.2,0.6,2.4,0.9,3.6
				s0.3,2.4,0.3,3.6c0,1.9-0.3,3.8-0.9,5.4c-0.6,1.7-1.4,3.2-2.5,4.4s-2.4,2.2-4,3c-1.6,0.7-3.4,1.1-5.5,1.1c-1.8,0-3.3-0.3-4.4-0.9
				c-1.1-0.6-2.1-1.4-2.8-2.5c-0.4,0.5-0.9,1-1.3,1.4s-1,0.8-1.7,1.1s-1.4,0.5-2.2,0.7c-0.9,0.2-1.9,0.2-3,0.2
				c-0.8,0-1.6-0.1-2.3-0.2c-0.7-0.1-1.3-0.3-1.9-0.4c0,2.3-0.4,4.4-1,6.3c-0.7,1.9-1.6,3.6-2.8,5.1c-1.2,1.5-2.5,2.8-4.1,3.9
				s-3.3,2-5.1,2.7c-1.8,0.7-3.7,1.3-5.7,1.6c-2,0.4-3.9,0.5-5.9,0.5c-3,0-5.8-0.5-8.3-1.5c-2.6-1-4.8-2.4-6.6-4.2
				c-1.9-1.8-3.3-4-4.3-6.5s-1.6-5.3-1.6-8.3c0.1-1.8,0.3-3.6,0.7-5.4c0.4-1.8,1-3.6,1.6-5.4c0.7-1.8,1.4-3.4,2.2-5s1.6-3,2.5-4.3
				l6.4,4.9c-0.7,1.2-1.4,2.4-2.1,3.7c-0.7,1.3-1.3,2.6-1.8,3.9c-0.5,1.3-0.9,2.7-1.2,4s-0.5,2.6-0.5,3.9c-0.1,1.5,0.2,2.9,0.9,4.2
				s1.6,2.5,2.7,3.5c1.2,1,2.5,1.8,4.1,2.3c1.6,0.6,3.3,0.9,5,0.9c2,0,3.9-0.2,5.6-0.6s3.2-0.9,4.6-1.5c1.3-0.7,2.4-1.5,3.3-2.4
				s1.5-2,1.9-3.1l0,0c0.5-1.6,0.7-3.2,0.7-5c0-1.3-0.2-2.6-0.6-4s-0.9-2.7-1.4-4.1c-0.6-1.4-1.2-2.8-2-4.2
				c-0.7-1.4-1.4-2.8-2.1-4.2l8.1-4.5c0.5,1.2,1,2.3,1.5,3.5s1,2.3,1.5,3.4s1.1,2.1,1.6,3s1.1,1.7,1.7,2.4s1.2,1.2,1.8,1.5
				c0.6,0.3,1.3,0.5,2,0.4c0.8-0.1,1.5-0.4,2-0.9s0.9-1,1.2-1.7c0.3-0.7,0.4-1.5,0.5-2.3c0.1-0.9,0.1-1.7,0-2.6
				c0-0.9-0.1-1.8-0.2-2.6c-0.1-0.9-0.2-1.7-0.2-2.4l8.1-1.1c0.1,0.6,0.3,1.3,0.4,2.2s0.2,1.8,0.3,2.7c0.1,0.9,0.3,1.9,0.5,2.9
				s0.5,1.9,0.8,2.7s0.7,1.5,1.2,2.1s1.1,1,1.9,1.3c0.6,0,1.2-0.1,1.7-0.3s1-0.6,1.4-1s0.7-1,0.9-1.6c0.2-0.6,0.3-1.4,0.3-2.2
				c0-0.7-0.1-1.5-0.4-2.5c-0.3-0.9-0.6-1.9-1.1-3s-1-2.2-1.6-3.4s-1.2-2.4-1.9-3.6l7.5-4.2C119.1,32.1,119.4,32.5,119.7,33.2z"/>
			<path class="st2" d="M143,45.3c0.5,1.4,0.9,2.9,1.3,4.4c0.4,1.5,0.7,3,1,4.5s0.4,2.9,0.4,4.2c0,1.8-0.3,3.6-0.8,5.4
				s-1.2,3.5-2.1,5.1c-0.9,1.6-2,3.2-3.3,4.7s-2.6,2.9-4.2,4.3c-1.5,1.3-3.2,2.6-4.9,3.7s-3.6,2.2-5.4,3.1l-5.4-7.4
				c1.4-0.7,2.8-1.5,4.3-2.4c1.4-0.9,2.8-1.9,4.1-2.9s2.6-2.1,3.7-3.2s2.1-2.3,3-3.4c0.9-1.2,1.5-2.3,2-3.5s0.7-2.3,0.7-3.5
				c0-0.8-0.1-1.7-0.3-2.7s-0.5-2-0.9-3.1s-0.8-2.3-1.4-3.5c-0.5-1.2-1.1-2.6-1.7-4l8.5-3.9C142.1,42.6,142.5,43.9,143,45.3z"/>
			<path class="st2" d="M154.3,50.8c1.1,0.5,2.2,1,3.4,1.5c1.2,0.4,2.3,0.8,3.4,1.1c1.1,0.3,2.1,0.4,2.9,0.4c0.5,0,1.1,0,1.9-0.1
				c0.8-0.1,1.6-0.2,2.4-0.5c0.8-0.2,1.5-0.5,2-1s0.9-1,0.9-1.6c0-0.8-0.2-1.6-0.7-2.6s-1.1-2-1.9-3c-0.8-1-1.8-2.1-2.8-3.2
				c-1.1-1.1-2.2-2.1-3.3-3.1s-2.3-1.9-3.4-2.8c-1.1-0.9-2.2-1.6-3.1-2.2l5-7.7c1.9,1.3,3.8,2.8,5.7,4.5s3.6,3.4,5.2,5.3
				c1.6,1.8,3,3.8,4.1,5.7c1.2,2,2,4,2.5,6c0.2,0.6,0.3,1.1,0.3,1.7c0.1,0.6,0.1,1.1,0.1,1.7c0,1.8-0.4,3.5-1.1,5
				c-0.7,1.5-1.7,2.8-3,3.9c-1.3,1.1-2.8,2-4.5,2.6c-1.8,0.6-3.7,0.9-5.8,0.9c-0.2,0-0.3,0-0.5,0s-0.3,0-0.5,0
				c-1.4,0-2.7-0.1-4.2-0.4s-2.8-0.7-4.2-1.1c-1.4-0.5-2.7-1-4-1.6s-2.5-1.3-3.6-2l3.9-8.9C152.2,49.7,153.2,50.2,154.3,50.8z"/>
			<path class="st2" d="M184.5,58c0.1-1.7,0.2-3.4,0.3-5.1s0.1-3.3,0.1-4.9s0-3.1-0.1-4.4c-0.1-2.8-0.2-5.2-0.3-7.3s-0.2-4-0.3-5.6
				s-0.2-3.1-0.3-4.3s-0.2-2.3-0.3-3.4c-0.1-1-0.2-2-0.4-2.9c-0.1-0.9-0.3-1.8-0.4-2.8l9.1-3c0.4,2.6,0.8,5.3,1,7.9
				c0.3,2.7,0.5,5.2,0.6,7.7c0.1,2.4,0.2,4.7,0.3,6.8c0,2.1,0.1,3.9,0.1,5.4c0,1.4,0,2.8,0,4.4c0,1.6,0,3.2-0.1,4.9
				s-0.1,3.4-0.1,5.1c-0.1,1.7-0.1,3.4-0.3,5.1l-9.1,1.4C184.3,61.4,184.4,59.7,184.5,58z"/>
			<path class="st2" d="M219.7,62.9c-0.4,0-1,0-1.7-0.1s-1.5-0.3-2.4-0.6c-0.4,2.4-1.2,4.7-2.4,6.9c-1.2,2.2-2.7,4.2-4.4,6.2
				c-1.7,1.9-3.7,3.7-6,5.3c-2.2,1.6-4.6,3.1-7.2,4.3l-5.4-7.4c1.4-0.7,2.8-1.5,4.2-2.3s2.8-1.7,4-2.6s2.5-1.9,3.6-2.9
				s2.1-2.1,2.9-3.1c0.8-1.1,1.5-2.2,1.9-3.3c0.5-1.1,0.7-2.3,0.7-3.4c0-0.8-0.1-1.7-0.4-2.9c-0.3-1.2-0.7-2.4-1.1-3.8
				c-0.5-1.4-1-2.7-1.5-4.1c-0.5-1.4-1.1-2.6-1.6-3.8l8.5-3.7c0.8,2.4,1.5,4.3,2.3,5.9c0.7,1.6,1.4,2.8,2.1,3.8s1.3,1.6,1.9,2
				s1.2,0.6,1.8,0.6h0.7v9.3h-0.5L219.7,62.9L219.7,62.9z"/>
			<path class="st2" d="M247,53.6v9.3h-27.9v-9.3H247z"/>
			<path class="st2" d="M246.9,53.6c0.7,0,1.6,0,2.6,0s2.1,0,3.3-0.1c1.2,0,2.4-0.1,3.6-0.2c1.2-0.1,2.4-0.2,3.5-0.4s2.1-0.4,3-0.7
				s1.7-0.7,2.3-1.1c-2.6,0.3-4.9,0.3-7.1,0.2c-2.1-0.1-4-0.5-5.6-1.2s-2.8-1.8-3.6-3.2c-0.9-1.4-1.3-3.3-1.3-5.6
				c0-1.1,0.1-2.2,0.3-3.3s0.5-2.3,1-3.4c0.4-1.1,1-2.2,1.6-3.1c0.6-1,1.4-1.9,2.3-2.6c0.9-0.7,1.8-1.3,2.9-1.8
				c1-0.4,2.2-0.7,3.4-0.7c1.5,0,3,0.3,4.3,0.9s2.4,1.4,3.5,2.4c1,1,1.9,2.2,2.7,3.5s1.4,2.7,1.9,4.2s0.9,3,1.1,4.5
				c0.3,1.5,0.4,3,0.4,4.4c0,2.4-0.3,4.4-1,6.2s-1.6,3.2-2.8,4.5c-1.2,1.2-2.6,2.3-4.2,3c-1.6,0.8-3.4,1.4-5.3,1.9s-4,0.8-6.1,0.9
				c-2.2,0.2-4.4,0.3-6.6,0.3h-1.1v-9.3h1L246.9,53.6L246.9,53.6z M258.8,23.3l-6.5-6.5l6.5-6.5l6.5,6.5L258.8,23.3z M259,35.6
				c-0.5,0-0.9,0.1-1.4,0.4c-0.5,0.3-0.9,0.7-1.3,1.1c-0.4,0.5-0.7,1-1,1.6s-0.4,1.2-0.4,1.9c0,0.6,0.2,1.1,0.5,1.4
				c0.4,0.4,0.8,0.7,1.4,0.9s1.2,0.4,1.9,0.5c0.7,0.1,1.4,0.1,2.1,0.1s1.3,0,2,0s1.1-0.1,1.5-0.1c-0.2-0.9-0.4-1.8-0.7-2.7
				c-0.3-0.9-0.6-1.7-1.1-2.5c-0.4-0.7-0.9-1.4-1.5-1.9C260.4,36,259.7,35.7,259,35.6z"/>
			<path class="st2" d="M309,62.9c-1.6,0-3.2-0.3-4.8-0.8c-1.6-0.5-3.1-1.3-4.4-2.4c-1.3-1-2.4-2.3-3.2-3.8s-1.3-3.2-1.3-5
				c0-3.9,1.7-8,5.2-12.2c0.3-0.3,0.5-0.6,0.7-0.8s0.4-0.4,0.5-0.6s0.3-0.3,0.4-0.5l0.5-0.5l-1.8-1.5l5.9-7.2c1,0.7,2.2,1.8,3.6,3
				c1.4,1.3,3,2.9,4.8,4.8c5.1,5.8,7.6,10.9,7.6,15.5c0,2-0.4,3.7-1.2,5.2c-0.8,1.5-1.9,2.7-3.1,3.8c-1.3,1-2.8,1.8-4.4,2.3
				C312.3,62.7,310.6,62.9,309,62.9z M314.7,51c0-0.6-0.2-1.3-0.6-2.1s-0.9-1.6-1.5-2.4s-1.3-1.7-2.1-2.5c-0.8-0.9-1.6-1.7-2.4-2.5
				c-0.5,0.6-1.1,1.3-1.7,2s-1.1,1.5-1.6,2.3s-0.9,1.7-1.2,2.5s-0.5,1.7-0.4,2.6c0,0.5,0.2,0.9,0.7,1.2c0.4,0.4,0.9,0.6,1.5,0.9
				c0.6,0.2,1.2,0.4,1.9,0.5s1.2,0.2,1.7,0.2c0.6,0,1.2,0,1.9-0.1s1.3-0.2,1.9-0.5c0.6-0.2,1-0.5,1.4-0.9
				C314.5,51.9,314.7,51.5,314.7,51z"/>
			<path class="st2" d="M341.8,45.3c0.5,1.4,0.9,2.9,1.3,4.4s0.7,3,1,4.5s0.4,2.9,0.4,4.2c0,1.8-0.3,3.6-0.8,5.4s-1.2,3.5-2.1,5.1
				s-2,3.2-3.3,4.7s-2.6,2.9-4.2,4.3c-1.5,1.3-3.2,2.6-4.9,3.7c-1.7,1.1-3.6,2.2-5.4,3.1l-5.4-7.4c1.4-0.7,2.8-1.5,4.3-2.4
				c1.4-0.9,2.8-1.9,4.1-2.9c1.3-1,2.6-2.1,3.7-3.2s2.1-2.3,3-3.4c0.9-1.2,1.5-2.3,2-3.5s0.7-2.3,0.7-3.5c0-0.8-0.1-1.7-0.3-2.7
				c-0.2-1-0.5-2-0.9-3.1s-0.8-2.3-1.4-3.5c-0.5-1.2-1.1-2.6-1.7-4l8.5-3.9C340.9,42.6,341.3,43.9,341.8,45.3z"/>
			<path class="st2" d="M363.7,62.9c-2.5,0-4.5-0.3-6.2-1s-3.1-1.6-4.2-2.7s-1.9-2.5-2.3-4.1s-0.7-3.3-0.7-5.1c0-0.9,0-2.1,0.1-3.5
				s0.1-3,0.1-4.9c0-1.8,0-3.9,0-6.1s-0.1-4.4-0.2-6.6s-0.2-4.3-0.4-6.4c-0.2-2-0.4-3.8-0.7-5.3l8.8-2.7c0.3,1.3,0.5,2.8,0.6,4.6
				c0.2,1.8,0.3,3.6,0.4,5.5s0.2,3.9,0.2,5.8s0.1,3.7,0.1,5.4c0,1.5,0,3-0.1,4.6s-0.1,3.2-0.2,4.7c0,1.5,0,2.8,0,4
				c0.1,1.2,0.3,2.1,0.5,2.7c0.2,0.5,0.4,0.8,0.7,1c0.3,0.2,0.6,0.4,0.9,0.5c0.4,0.1,0.7,0.2,1.2,0.2c0.4,0,0.9,0,1.4,0h0.8v9.3
				L363.7,62.9L363.7,62.9z"/>
			<path class="st2" d="M391.2,53.6v9.3h-27.9v-9.3H391.2z"/>
			<path class="st2" d="M390,53.6h2.1c0.1-1.3,0.3-2.7,0.6-4.2c0.3-1.5,0.8-3.1,1.4-4.6s1.3-3,2.1-4.5c0.8-1.4,1.7-2.7,2.7-3.9
				c1-1.1,2-2.1,3.2-2.8c1.1-0.7,2.3-1.1,3.6-1.2c1.3,0,2.5,0.4,3.6,1.1s2.1,1.7,2.9,2.8c0.8,1.2,1.4,2.5,1.9,3.9
				c0.5,1.5,0.7,3,0.7,4.5c0,1.8-0.4,3.5-1.1,5.2c-0.8,1.7-1.8,3.3-3,4.7c-1.2,1.5-2.6,2.8-4.2,3.9c-1.6,1.2-3.2,2.1-4.8,2.9
				c0.1,0.5,0.4,1,0.9,1.7c0.4,0.7,0.9,1.3,1.5,2c0.6,0.7,1.1,1.3,1.7,1.9s1,1.1,1.4,1.4c0-1.1,0.1-2.3,0.5-3.5
				c0.4-1.2,0.8-2.3,1.5-3.4c0.6-1.1,1.4-2.1,2.3-3.1s1.8-1.8,2.8-2.5s2-1.3,3.1-1.7s2.1-0.6,3.1-0.6h1.5v9.3h-1.6
				c-0.9,0-1.7,0.2-2.5,0.7c-0.8,0.5-1.5,1-2.1,1.8c-0.6,0.7-1.1,1.5-1.5,2.4s-0.6,1.8-0.6,2.7c0,0.4,0,0.8,0.1,1.1
				c0.1,0.3,0.2,0.7,0.3,1c0.2,0.4,0.4,0.7,0.6,1.1c0.3,0.4,0.6,0.8,1,1.3l-5.4,6.6c-2.4-1.4-4.4-2.9-6.2-4.4
				c-1.8-1.5-3.3-3-4.6-4.6c-1.3-1.6-2.4-3.1-3.3-4.8c-0.9-1.6-1.6-3.2-2.2-4.9h-4V53.6z M407.4,46.1c0-0.5,0-1.1,0-1.8
				s-0.1-1.2-0.3-1.8c-0.1-0.6-0.3-1.1-0.6-1.6c-0.3-0.5-0.6-0.8-0.9-1.1c-0.4,0.2-0.8,0.6-1.2,1.1c-0.4,0.6-0.9,1.2-1.3,2
				c-0.5,0.8-0.9,1.6-1.3,2.6c-0.4,0.9-0.8,1.9-1.1,2.8c-0.3,1-0.6,1.9-0.8,2.8c-0.2,0.9-0.3,1.7-0.3,2.5c0.8-0.2,1.7-0.5,2.6-1
				s1.8-1.1,2.5-1.8c0.8-0.7,1.4-1.5,2-2.3C407,47.9,407.3,47,407.4,46.1z"/>
			<path class="st2" d="M420.5,53.6h4c0.8,0,1.7-0.1,2.7-0.2s1.9-0.4,2.8-0.7s1.6-0.7,2.1-1.2c0.6-0.5,0.9-1.2,0.9-1.9
				c0-0.5-0.1-1.2-0.4-2.1c-0.3-0.9-0.6-2-1.1-3.1s-1-2.3-1.5-3.6s-1.1-2.5-1.7-3.6l8.4-4.2c0.5,1.2,1.1,2.6,1.6,3.9
				c0.5,1.4,1,2.8,1.5,4.2c0.4,1.4,0.8,2.9,1,4.3c0.3,1.4,0.4,2.8,0.4,4.1c0,2.4-0.4,4.4-1.2,6.1c-0.8,1.7-1.9,3.1-3.3,4.2
				c-1.4,1.1-3.1,1.9-5.1,2.4s-4.1,0.8-6.5,0.8h-4.7v-9.4H420.5z M430,79.1l-6.5-6.5L430,66l6.5,6.5L430,79.1z"/>
			<path class="st2" d="M491,62.9c-1.7,0-3.6-0.1-5.7-0.2c-2-0.1-4.1-0.4-6.1-0.9c-2-0.4-4-1-5.9-1.8c-1.9-0.7-3.6-1.7-5-2.9
				c-1.5-1.2-2.7-2.6-3.6-4.4s-1.5-3.7-1.6-6.1c0-1.2,0.1-2.3,0.4-3.4c0.3-1.1,0.6-2.2,1-3.2s0.9-2.1,1.4-3.1s1.1-2,1.7-3l6.9,5.8
				c-0.3,0.4-0.6,0.9-1,1.6c-0.4,0.7-0.8,1.3-1.1,2.1c-0.4,0.7-0.7,1.5-0.9,2.2s-0.4,1.4-0.4,1.9c0,0.7,0.3,1.4,0.8,2
				s1.2,1.1,2.2,1.5s2,0.8,3.3,1.1s2.6,0.6,4.1,0.8s3,0.3,4.7,0.4c1.6,0.1,3.3,0.1,5,0.1c0.8,0,1.6,0,2.5,0s1.7,0,2.5,0
				s1.5,0,2.1-0.1c0.6,0,1,0,1.2-0.1c-0.7-0.8-1.3-1.8-1.9-2.9c-0.6-1.2-0.9-2.5-1-3.9c0-1.2,0.1-2.3,0.4-3.5s0.7-2.3,1.3-3.5
				c0.5-1.1,1.2-2.2,2-3.1c0.8-1,1.7-1.8,2.6-2.5c1-0.7,2-1.3,3.1-1.6c1.1-0.4,2.3-0.6,3.5-0.5c1.7,0.1,3.3,0.5,4.8,1.3
				s2.7,1.8,3.8,3.1s1.9,2.7,2.5,4.3s0.9,3.3,0.9,5c0,1.4-0.2,2.7-0.7,4s-1,2.5-1.7,3.7c0.9,0.1,1.9,0.2,2.8,0.3s1.7,0.1,2.5,0.1h1
				v9.3h-0.8c-1.2,0-2.5,0-3.8-0.1c-1.3,0-2.6-0.1-3.8-0.3c-1.3-0.2-2.5-0.4-3.8-0.7s-2.5-0.7-3.7-1.3c-0.5,0.3-1.1,0.5-1.9,0.8
				c-0.8,0.2-1.8,0.4-2.8,0.6s-2.2,0.3-3.4,0.5c-1.2,0.1-2.4,0.2-3.6,0.3s-2.4,0.2-3.5,0.2C493,62.9,491.9,62.9,491,62.9z
				 M510.5,27.1l-6.5-6.5l6.5-6.5l6.5,6.5L510.5,27.1z M513.5,46.2c0-0.6-0.2-1.2-0.5-1.8s-0.7-1.1-1.1-1.5
				c-0.4-0.5-0.9-0.8-1.4-1.1s-1-0.5-1.4-0.6c-0.5,0.1-1,0.3-1.5,0.5c-0.6,0.3-1.1,0.6-1.6,1.1s-1,1-1.3,1.7
				c-0.4,0.7-0.5,1.4-0.5,2.3c0,0.3,0.2,0.7,0.5,1.2s0.7,1,1.2,1.6c0.5,0.5,1,1,1.6,1.5s1.3,0.8,1.9,1c0.5-0.3,1-0.7,1.5-1.1
				c0.5-0.5,1-1,1.4-1.5s0.7-1.1,1-1.6C513.4,47.2,513.5,46.7,513.5,46.2z"/>
			<path class="st2" d="M551.9,53.6v9.3H524v-9.3H551.9z"/>
			<path class="st2" d="M577,53.6v9.3h-0.7c-0.9,0-1.9-0.1-2.8-0.2c-0.9-0.2-1.8-0.4-2.6-0.7s-1.5-0.6-2.2-1s-1.3-0.8-1.8-1.3
				c-0.9,0.7-2,1.3-3.2,1.7s-2.4,0.7-3.8,1c-1.3,0.2-2.7,0.4-4.1,0.4c-1.4,0.1-2.8,0.1-4.1,0.1h-1.1v-9.3h1.1c1.4,0,2.7,0,3.8-0.1
				s2.1-0.2,2.9-0.4s1.5-0.5,2.1-0.8s1-0.7,1.4-1.2c0.5-0.6,0.7-1.3,0.8-2.1s0.1-1.6,0-2.4c-0.1-0.8-0.2-1.6-0.5-2.4
				c-0.2-0.8-0.4-1.6-0.6-2.3l8.6-2.4c0.2,0.9,0.4,1.7,0.6,2.4s0.3,1.4,0.4,2.1c0.1,0.7,0.2,1.4,0.3,2.1c0.1,0.7,0.2,1.5,0.3,2.3
				c0.1,0.5,0.2,1.1,0.3,1.7c0.1,0.6,0.3,1.2,0.6,1.7s0.7,1,1.2,1.3c0.5,0.4,1.2,0.5,2,0.5C575.9,53.6,577,53.6,577,53.6z
				 M562.2,71.6l-5.5,5.5l-5.7-5.7l5.7-5.7l5.6,5.6l5.5-5.5l5.7,5.7l-5.7,5.7L562.2,71.6z"/>
			<path class="st2" d="M575.8,53.6h2.1c0.5,0,0.9,0,1.4,0s0.9-0.1,1.3-0.1c0.4,0,0.7-0.1,0.9-0.2c-0.4-0.4-0.7-0.8-1-1.3
				s-0.6-1-0.9-1.5c-0.3-0.5-0.5-1.1-0.7-1.8s-0.3-1.3-0.3-2.1c0-1.2,0.1-2.3,0.4-3.5c0.3-1.2,0.7-2.3,1.3-3.5
				c0.5-1.1,1.2-2.2,2-3.1c0.8-1,1.7-1.8,2.6-2.5c1-0.7,2-1.3,3.1-1.6c1.1-0.4,2.3-0.6,3.5-0.5c1.7,0.1,3.3,0.5,4.8,1.3
				s2.7,1.8,3.8,3.1s1.9,2.7,2.5,4.3s0.9,3.3,0.9,5c0,1.4-0.2,2.7-0.7,4s-1,2.5-1.7,3.7c0.5,0.1,1.1,0.2,1.9,0.3
				c0.7,0.1,1.7,0.1,2.9,0.1h0.6V63h-1.1c-1.3,0-2.5,0-3.6-0.1s-2.3-0.2-3.4-0.4c-1.1-0.2-2.2-0.4-3.3-0.7s-2.3-0.7-3.5-1.2
				c-0.7,0.4-1.6,0.8-2.7,1.1s-2.3,0.5-3.6,0.7s-2.6,0.3-4.1,0.4c-1.4,0.1-2.8,0.1-4.2,0.1h-1.1v-9.3H575.8z M590.9,27.7l-6.5-6.5
				l6.5-6.5l6.5,6.5L590.9,27.7z M595.7,46.2c0-0.6-0.2-1.2-0.5-1.8s-0.7-1.1-1.1-1.5c-0.4-0.5-0.9-0.8-1.4-1.1s-1-0.5-1.4-0.6
				c-0.5,0.1-1,0.3-1.5,0.5c-0.6,0.3-1.1,0.6-1.6,1.1s-1,1-1.3,1.7c-0.4,0.7-0.5,1.4-0.5,2.3c0,0.3,0.2,0.7,0.5,1.2s0.7,1,1.2,1.6
				c0.5,0.5,1,1,1.6,1.5s1.3,0.8,1.9,1c0.5-0.3,1-0.7,1.5-1.1c0.5-0.5,1-1,1.4-1.5s0.7-1.1,1-1.6C595.6,47.2,595.7,46.7,595.7,46.2z
				"/>
			<path class="st2" d="M605.3,53.6h6c1.4,0,2.9-0.1,4.5-0.3s3.2-0.5,4.9-0.8s3.3-0.7,5-1.2s3.3-1,4.9-1.5c1.6-0.5,3.1-1.1,4.6-1.7
				s2.8-1.2,4-1.8c-1.2-0.3-2.6-0.7-4.1-1.2s-3-1-4.5-1.6s-3-0.9-4.5-1.3c-1.4-0.4-2.7-0.5-3.9-0.5c-0.7,0-1.4,0.2-2.1,0.5
				c-0.7,0.3-1.3,0.6-1.9,1.1s-1.1,0.9-1.6,1.4s-0.9,0.9-1.2,1.4c-0.3,0.4-0.6,0.8-0.8,1.1l-0.3,0.4l-7-4c0.8-1.5,1.7-2.9,2.8-4.2
				s2.3-2.5,3.6-3.6s2.7-1.8,4.1-2.5c1.4-0.6,2.8-0.9,4.3-0.9c1.1,0,2.1,0.1,3.2,0.4s2.1,0.5,3.2,0.9c1.1,0.4,2.1,0.8,3.2,1.3
				c1.1,0.5,2.2,1,3.3,1.5s2.4,1.1,3.7,1.6c1.4,0.5,2.8,1,4.3,1.4s3,0.7,4.5,1s3,0.4,4.5,0.4l-1.5,8.7c-0.5,0.2-1,0.4-1.5,0.7
				c-0.6,0.3-1.1,0.5-1.5,0.7l-0.8,0.4c0.5,0.5,1,1,1.7,1.3s1.4,0.5,2.1,0.7c0.7,0.1,1.4,0.2,2.1,0.3c0.7,0,1.2,0.1,1.6,0.1h1v9.3
				h-1c-1.9,0-3.7-0.2-5.3-0.5c-1.7-0.3-3.2-0.8-4.5-1.5c-1.4-0.6-2.6-1.4-3.6-2.3s-1.9-1.9-2.6-3.1c-1.9,0.9-4,1.9-6.1,2.7
				c-2.1,0.9-4.3,1.7-6.5,2.4c-2.3,0.7-4.6,1.3-7,1.7s-4.9,0.6-7.5,0.6h-6v-9.5L605.3,53.6L605.3,53.6z M621.9,29.5l-6.5-6.5
				l6.5-6.5l6.5,6.5L621.9,29.5z"/>
			<path class="st2" d="M654.3,53.6h7.1c0.8,0,1.8,0,2.8-0.1s2-0.3,2.9-0.5c0.9-0.3,1.6-0.7,2.2-1.2s0.9-1.3,0.9-2.1
				c0-0.5-0.1-1.2-0.4-2.1c-0.3-0.9-0.7-2-1.1-3.1s-1-2.3-1.6-3.6s-1.2-2.5-1.7-3.6l8.4-4.2c0.5,1.2,1.1,2.6,1.6,3.9
				c0.5,1.4,1,2.8,1.5,4.2s0.8,2.9,1,4.3c0.3,1.4,0.4,2.8,0.4,4.1c0,2.4-0.4,4.5-1.3,6.2c-0.9,1.7-2.1,3.1-3.6,4.1
				c-1.5,1.1-3.3,1.8-5.4,2.3c-2.1,0.5-4.3,0.7-6.6,0.7h-7v-9.3C654.4,53.6,654.3,53.6,654.3,53.6z M668,23.3l-5.5,5.5l-5.7-5.7
				l5.7-5.7l5.6,5.6l5.5-5.5l5.7,5.7l-5.7,5.7L668,23.3z"/>
			<path class="st2" d="M714.5,62.9c-1.6,0-3.2-0.3-4.8-0.8s-3.1-1.3-4.4-2.4c-1.3-1-2.4-2.3-3.2-3.8s-1.3-3.2-1.3-5
				c0-3.9,1.7-8,5.2-12.2c0.3-0.3,0.5-0.6,0.7-0.8s0.4-0.4,0.5-0.6s0.3-0.3,0.4-0.5l0.5-0.5l-1.8-1.5l5.9-7.2c1,0.7,2.2,1.8,3.6,3
				c1.4,1.3,3,2.9,4.8,4.8c5.1,5.8,7.6,10.9,7.6,15.5c0,2-0.4,3.7-1.2,5.2s-1.9,2.7-3.1,3.8c-1.3,1-2.8,1.8-4.4,2.3
				C717.8,62.7,716.2,62.9,714.5,62.9z M720.2,51c0-0.6-0.2-1.3-0.6-2.1c-0.4-0.8-0.9-1.6-1.5-2.4c-0.6-0.8-1.3-1.7-2.1-2.5
				c-0.8-0.9-1.6-1.7-2.4-2.5c-0.5,0.6-1.1,1.3-1.7,2c-0.6,0.7-1.1,1.5-1.6,2.3s-0.9,1.7-1.2,2.5c-0.3,0.9-0.5,1.7-0.4,2.6
				c0,0.5,0.2,0.9,0.7,1.2s0.9,0.6,1.5,0.9c0.6,0.2,1.2,0.4,1.9,0.5s1.2,0.2,1.7,0.2c0.6,0,1.2,0,1.9-0.1s1.3-0.2,1.9-0.5
				c0.6-0.2,1-0.5,1.4-0.9C720,51.9,720.2,51.5,720.2,51z"/>
			<path class="st2" d="M747.3,45.3c0.5,1.4,0.9,2.9,1.3,4.4c0.4,1.5,0.7,3,1,4.5s0.4,2.9,0.4,4.2c0,1.8-0.3,3.6-0.8,5.4
				s-1.2,3.5-2.1,5.1c-0.9,1.6-2,3.2-3.3,4.7s-2.6,2.9-4.2,4.3c-1.5,1.3-3.2,2.6-4.9,3.7s-3.6,2.2-5.4,3.1l-5.4-7.4
				c1.4-0.7,2.8-1.5,4.3-2.4c1.4-0.9,2.8-1.9,4.2-2.9c1.3-1,2.6-2.1,3.7-3.2c1.1-1.1,2.1-2.3,3-3.4c0.9-1.2,1.5-2.3,2-3.5
				s0.7-2.3,0.7-3.5c0-0.8-0.1-1.7-0.3-2.7s-0.5-2-0.9-3.1s-0.8-2.3-1.4-3.5c-0.5-1.2-1.1-2.6-1.7-4l8.5-3.9
				C746.4,42.6,746.8,43.9,747.3,45.3z"/>
			<path class="st2" d="M755.6,58c0.1-1.7,0.2-3.4,0.3-5.1c0.1-1.7,0.1-3.3,0.1-4.9s0-3.1-0.1-4.4c-0.1-2.8-0.2-5.2-0.3-7.3
				s-0.2-4-0.3-5.6s-0.2-3.1-0.3-4.3s-0.2-2.3-0.3-3.4c-0.1-1-0.2-2-0.4-2.9c-0.1-0.9-0.3-1.8-0.4-2.8l9.1-3c0.4,2.6,0.8,5.3,1,7.9
				c0.3,2.7,0.5,5.2,0.6,7.7c0.1,2.4,0.2,4.7,0.3,6.8s0.1,3.9,0.1,5.4c0,1.4,0,2.8,0,4.4c0,1.6,0,3.2-0.1,4.9s-0.1,3.4-0.1,5.1
				c-0.1,1.7-0.1,3.4-0.3,5.1l-9.1,1.4C755.4,61.4,755.5,59.7,755.6,58z"/>
			<path class="st2" d="M767.7,74.6c2.8-0.5,5.3-1.2,7.6-2.1c2.3-0.8,4.3-1.8,6-2.8s3.1-2.1,4.3-3.3c1.1-1.2,1.9-2.3,2.4-3.5
				c-0.8,0-1.7,0-2.7,0c-0.9,0-1.7-0.1-2.3-0.1c-1.9-0.2-3.7-0.5-5.3-1.1s-3-1.4-4.1-2.4s-2-2.2-2.7-3.7c-0.6-1.5-0.9-3.1-0.9-5
				c0-1.2,0.1-2.4,0.4-3.7c0.3-1.3,0.6-2.5,1.1-3.7s1.1-2.3,1.8-3.4c0.7-1.1,1.5-2,2.4-2.8s1.9-1.4,3-1.9s2.3-0.7,3.5-0.7
				c1.5,0,2.9,0.3,4.1,0.8c1.3,0.5,2.4,1.3,3.5,2.2c1,0.9,2,2,2.8,3.3c0.8,1.2,1.5,2.6,2.1,4s1.1,2.9,1.5,4.4s0.7,3,0.8,4.5h1.3v9.3
				h-1.9c-0.8,2.9-2,5.5-3.7,7.8s-3.7,4.4-6,6.1s-4.9,3.2-7.8,4.3c-2.9,1.1-5.8,1.9-8.9,2.4L767.7,74.6z M782.1,43.8
				c-0.4-0.1-0.9,0.1-1.4,0.4c-0.5,0.4-1,0.9-1.5,1.5s-0.8,1.3-1.1,2s-0.5,1.5-0.4,2.1c0,0.7,0.2,1.2,0.6,1.6s0.9,0.8,1.6,1.1
				c0.6,0.3,1.4,0.5,2.2,0.6s1.6,0.2,2.4,0.3c0.8,0.1,1.6,0.1,2.3,0.1h1.8c-0.3-1.2-0.6-2.4-1-3.5s-0.9-2.1-1.4-3s-1.1-1.6-1.8-2.2
				S782.9,44,782.1,43.8z"/>
			<path class="st2" d="M824.9,53.6v9.3H797v-9.3H824.9z"/>
			<path class="st2" d="M845.6,53.6v9.3H845c-1.9,0-3.5-0.3-4.8-0.8s-2.5-1.3-3.4-2.2c-1.4,1-3.1,1.8-5,2.3s-4.2,0.7-6.9,0.7h-1.1
				v-9.3h1.1c2.7,0,4.7-0.4,6.1-1.3c1.4-0.9,2.1-2.2,2.1-4c0-0.6-0.1-1.4-0.2-2.5c-0.2-1.1-0.5-2.5-1-4.2l8.3-2
				c0.3,1.1,0.6,2,0.8,2.9s0.4,1.6,0.5,2.3s0.2,1.3,0.3,1.9c0.1,0.6,0.1,1.1,0.1,1.7c0,0.5,0.1,1.1,0.2,1.8c0.1,0.6,0.2,1.2,0.5,1.7
				s0.5,1,0.9,1.3s0.9,0.5,1.6,0.5h0.5L845.6,53.6L845.6,53.6z M833,34.9l-6.5-6.5l6.5-6.5l6.5,6.5L833,34.9z"/>
			<path class="st2" d="M845,53.6c1,0,2-0.2,2.9-0.5s1.8-1,2.6-2s1.6-2.4,2.3-4.2s1.4-4.1,2-7l7.8,1.1c0,0.1,0,0.2-0.1,0.4
				c-0.1,0.5-0.3,1.2-0.4,2.1c-0.2,0.9-0.3,1.9-0.5,3c-0.1,1.1-0.2,2.2-0.2,3.2s0.1,1.9,0.4,2.6s0.6,1.2,1.2,1.3
				c0.6,0.2,1.2,0,1.8-0.4s1.1-1,1.6-1.7c0.5-0.8,1-1.6,1.4-2.6s0.8-2,1.2-3.1s0.7-2.1,0.9-3.1c0.3-1,0.5-1.9,0.6-2.7l7.8,1.1
				c0,0.5-0.1,1.1-0.2,2c-0.1,0.8-0.2,1.7-0.2,2.6s-0.1,1.8-0.1,2.8c0,0.9,0.1,1.8,0.3,2.5c0.2,0.8,0.5,1.4,0.9,1.9s1,0.7,1.7,0.7
				c0.6,0,1.2-0.2,1.7-0.6c0.5-0.4,0.9-1,1.2-1.7s0.6-1.5,0.8-2.4s0.3-1.8,0.4-2.7c0.1-0.9,0.1-1.8,0.1-2.7s0-1.6-0.1-2.3l7.9-1.1
				l1,8.3c0.1,0.9,0.4,1.7,0.8,2.4c0.4,0.7,0.9,1.2,1.4,1.7c0.5,0.4,1.1,0.8,1.7,1c0.6,0.2,1.1,0.3,1.7,0.3h0.9v9.3h-0.9
				c-1.9,0-3.7-0.3-5.4-1s-3.1-1.8-4.4-3.4c-0.1,0.2-0.2,0.3-0.4,0.4c-0.1,0.1-0.2,0.2-0.3,0.4l0,0c-1.1,1.1-2.3,2-3.7,2.7
				s-2.9,1-4.5,1c-1.8,0-3.4-0.4-4.9-1.1s-2.8-1.8-3.8-3.1c-1.2,1.3-2.5,2.3-4,3.1S864.8,63,863,63c-1.7,0-3.2-0.4-4.7-1.1
				s-2.6-1.8-3.6-3.1c-1.1,1.5-2.4,2.5-3.9,3.1c-1.6,0.6-3.5,0.9-5.8,0.9h-0.6v-9.3L845,53.6L845,53.6z M862.6,41.1L862.6,41.1
				C862.6,40.9,862.6,40.9,862.6,41.1z M874.4,28.6l-5.5,5.5l-5.7-5.7l5.7-5.7l5.6,5.6l5.5-5.5l5.7,5.7l-5.7,5.7L874.4,28.6z
				 M879.7,20l-5.2,5.2l-5.3-5.3l5.2-5.2L879.7,20z"/>
			<path class="st2" d="M898.9,53.6h6.2c3.2,0,6.1-0.2,8.8-0.6s5.1-0.9,7.5-1.5c2.3-0.6,4.5-1.4,6.6-2.3c2.1-0.9,4.1-1.7,6.1-2.7
				c-1.3-0.4-2.7-0.8-4-1.4c-1.3-0.5-2.7-1.1-4-1.6s-2.7-0.9-4-1.3c-1.3-0.4-2.7-0.5-4-0.5c-0.9,0-1.8,0.2-2.7,0.7s-1.7,1-2.4,1.7
				c-0.7,0.6-1.3,1.2-1.8,1.8s-0.8,1-0.9,1.2l-6.8-4.4c0.7-1.3,1.6-2.6,2.6-3.9c1-1.3,2.1-2.4,3.4-3.3c1.2-1,2.5-1.8,4-2.3
				s2.9-0.9,4.5-0.9c1.2,0,2.3,0.1,3.5,0.4c1.2,0.2,2.3,0.6,3.5,1c1.1,0.4,2.3,0.8,3.4,1.3c1.1,0.5,2.2,1,3.3,1.5
				c1,0.5,2.1,1,3.1,1.5c1.1,0.5,2.1,0.9,3.3,1.3c1.1,0.4,2.3,0.7,3.5,1s2.5,0.4,3.8,0.4l-0.7,9l-4.2,2c-1.7,0.8-3.4,1.7-5.1,2.5
				s-3.4,1.7-5.2,2.5c-1.7,0.8-3.6,1.6-5.4,2.3c-1.9,0.7-3.8,1.4-5.9,1.9c-2,0.5-4.2,1-6.5,1.3s-4.7,0.5-7.3,0.5h-6.2L898.9,53.6
				L898.9,53.6z M923.2,79l-6.5-6.5l6.5-6.5l6.5,6.5L923.2,79z"/>
		</g>
	</g>
</g>
<g>
	<path class="st2" d="M752.7,132.4h20.5c1.8,0,3.2-0.4,4-1.2s1.3-2.1,1.3-3.9v-4.6v-0.9h1h4.3h1v0.9v4.5c0,3.6-1,6.4-3,8.4
		c-2,1.9-4.9,2.9-8.7,2.9h-20.4c-3.8,0-6.8-1-8.8-2.9c-2.1-1.9-3.1-4.7-3.1-8.3v-4.6v-0.9h1h4.3h1v0.9v4.6c0,1.8,0.4,3.1,1.3,3.9
		C749.4,132,750.8,132.4,752.7,132.4z M754.1,117.8l4.2-3.9l4.2,3.9l-4.2,3.9L754.1,117.8z M763.1,117.8l4.2-3.9l4.2,3.9
		c-0.1,0.1-0.2,0.2-0.3,0.3c-0.2,0.2-0.8,0.7-1.7,1.6s-1.7,1.5-2.2,2L763.1,117.8z"/>
	<path class="st2" d="M801.3,138.4h-1.1c-3,0-5.2-0.8-6.8-2.5s-2.3-4-2.3-7.1v-20.3v-0.9h1h4.1h1v0.9v20.3c0,1.3,0.2,2.2,0.7,2.7
		s1.3,0.8,2.3,0.8h1.1c0.2,0,0.3,0.3,0.4,1c0.1,0.6,0.2,1.3,0.2,1.9v0.3c0,0.6-0.1,1.3-0.2,1.9C801.6,138.1,801.5,138.4,801.3,138.4
		z"/>
	<path class="st2" d="M807.5,132.4c0.2,0,0.4,0.3,0.5,1c0.1,0.6,0.2,1.3,0.2,1.9v0.3c0,0.6-0.1,1.3-0.2,1.9c-0.1,0.7-0.3,1-0.5,1
		H801c-0.2,0-0.4-0.3-0.5-1s-0.2-1.3-0.2-1.9v-0.3c0-0.6,0.1-1.2,0.2-1.9c0.1-0.6,0.3-1,0.5-1H807.5z"/>
	<path class="st2" d="M813.7,132.4c0.2,0,0.4,0.3,0.5,1c0.1,0.6,0.2,1.3,0.2,1.9v0.3c0,0.6-0.1,1.3-0.2,1.9c-0.1,0.7-0.3,1-0.5,1
		h-6.5c-0.2,0-0.4-0.3-0.5-1s-0.2-1.3-0.2-1.9v-0.3c0-0.6,0.1-1.2,0.2-1.9c0.1-0.6,0.3-1,0.5-1H813.7z"/>
	<path class="st2" d="M819.9,132.4c0.2,0,0.4,0.3,0.5,1c0.1,0.6,0.2,1.3,0.2,1.9v0.3c0,0.6-0.1,1.3-0.2,1.9c-0.1,0.7-0.3,1-0.5,1
		h-6.5c-0.2,0-0.4-0.3-0.5-1s-0.2-1.3-0.2-1.9v-0.3c0-0.6,0.1-1.2,0.2-1.9c0.1-0.6,0.3-1,0.5-1H819.9z"/>
	<path class="st2" d="M826.1,132.4c0.2,0,0.4,0.3,0.5,1c0.1,0.6,0.2,1.3,0.2,1.9v0.3c0,0.6-0.1,1.3-0.2,1.9c-0.1,0.7-0.3,1-0.5,1
		h-6.5c-0.2,0-0.4-0.3-0.5-1s-0.2-1.3-0.2-1.9v-0.3c0-0.6,0.1-1.2,0.2-1.9c0.1-0.6,0.3-1,0.5-1H826.1z"/>
	<path class="st2" d="M825.9,132.4h5.4c-1.4-1.6-2-3.4-2-5.3c0-2.9,1-5.3,3.1-7.2c2-1.9,4.6-2.9,7.8-2.9c3.6,0,6.4,1.3,8.7,3.8
		l0.4,0.5l-0.3,0.5l-1.8,3.1l-0.6,1.1l-0.9-0.8c-1.5-1.3-3.3-2-5.3-2c-1.3,0-2.4,0.4-3.3,1.1c-0.9,0.7-1.3,1.7-1.3,2.8
		c0,1.2,0.7,2.2,2,3.2c1.2,0.9,2.2,1.4,2.8,1.4c0.5,0,1.5-0.2,3.1-0.5l5.3-1.2l1.2-0.3v1.2v4.2v0.7l-0.7,0.2
		c-5.9,1.6-11.1,2.4-15.6,2.4h-7.7c-0.2,0-0.4-0.3-0.5-1s-0.2-1.3-0.2-1.9v-0.3c0-0.6,0.1-1.2,0.2-1.9
		C825.6,132.7,825.7,132.4,825.9,132.4z"/>
	<path class="st2" d="M866.4,138.4h-1.1c-3,0-5.2-0.8-6.8-2.5s-2.3-4-2.3-7.1v-20.3v-0.9h1h4.1h1v0.9v20.3c0,1.3,0.2,2.2,0.7,2.7
		s1.3,0.8,2.3,0.8h1.1c0.2,0,0.3,0.3,0.4,1c0.1,0.6,0.2,1.3,0.2,1.9v0.3c0,0.6-0.1,1.3-0.2,1.9C866.7,138.1,866.6,138.4,866.4,138.4
		z"/>
	<path class="st2" d="M872.6,132.4c0.2,0,0.4,0.3,0.5,1c0.1,0.6,0.2,1.3,0.2,1.9v0.3c0,0.6-0.1,1.3-0.2,1.9c-0.1,0.7-0.3,1-0.5,1
		h-6.5c-0.2,0-0.4-0.3-0.5-1s-0.2-1.3-0.2-1.9v-0.3c0-0.6,0.1-1.2,0.2-1.9c0.1-0.6,0.3-1,0.5-1H872.6z"/>
	<path class="st2" d="M878.8,132.4c0.2,0,0.4,0.3,0.5,1c0.1,0.6,0.2,1.3,0.2,1.9v0.3c0,0.6-0.1,1.3-0.2,1.9c-0.1,0.7-0.3,1-0.5,1
		h-6.5c-0.2,0-0.4-0.3-0.5-1s-0.2-1.3-0.2-1.9v-0.3c0-0.6,0.1-1.2,0.2-1.9c0.1-0.6,0.3-1,0.5-1H878.8z"/>
	<path class="st2" d="M885,132.4c0.2,0,0.4,0.3,0.5,1c0.1,0.6,0.2,1.3,0.2,1.9v0.3c0,0.6-0.1,1.3-0.2,1.9c-0.1,0.7-0.3,1-0.5,1h-6.5
		c-0.2,0-0.4-0.3-0.5-1s-0.2-1.3-0.2-1.9v-0.3c0-0.6,0.1-1.2,0.2-1.9c0.1-0.6,0.3-1,0.5-1H885z"/>
	<path class="st2" d="M884.8,132.4h2.4c1.7,0,3-0.3,3.8-0.9c0.8-0.6,1.1-1.5,1.1-2.7v-6v-0.9h1h4.3h1v0.9v6.1c0,1.3,0.3,2.2,0.9,2.7
		c0.6,0.5,1.5,0.8,2.8,0.8c1.2,0,2.1-0.3,2.7-0.8c0.6-0.5,0.8-1.5,0.8-2.7v-6V122h1h4.2h1v0.9v6c0,1.3,0.3,2.2,0.8,2.8
		c0.5,0.5,1.4,0.8,2.7,0.8c0.9,0,1.6-0.3,2-0.8s0.6-1.4,0.6-2.7v-6.8v-0.9h1h4.4h1v0.9v7c0,2.9-0.8,5.2-2.3,6.8
		c-1.6,1.7-3.7,2.5-6.5,2.5c-2.9,0-5.1-0.9-6.6-2.6c-1.6,1.7-3.9,2.6-6.9,2.6c-2.8,0-5-0.9-6.6-2.7c-1.8,1.8-4.5,2.7-8.1,2.7H885
		c-0.2,0-0.4-0.3-0.5-1s-0.2-1.3-0.2-1.9v-0.3c0-0.6,0.1-1.2,0.2-1.9C884.5,132.7,884.6,132.4,884.8,132.4z"/>
	<path class="st2" d="M774.5,177.6h-0.3v0.9c0,3.1-1.3,5.4-3.8,7.1s-6.2,2.4-10.8,2.4h-2.4c-5.1,0-9-1.2-11.6-3.5s-4-5.7-4-10.2
		v-7.9v-0.9h1h4.4h1v0.9v7.8c0,2.6,0.7,4.5,2.2,5.8c1.5,1.2,3.8,1.9,7,1.9h2.4c1.3,0,2.4-0.1,3.3-0.2c1-0.1,1.8-0.3,2.6-0.6
		s1.4-0.7,1.8-1.1c0.4-0.5,0.6-1.1,0.6-1.8v-0.7h-5.3c-0.8,0-1.4-0.2-1.8-0.6c-0.4-0.4-0.8-1.1-1-2.1c-0.4-1.3-0.5-2.1-0.4-2.6
		s0.6-0.7,1.5-0.7h13.7c0.2,0,0.3,0.3,0.4,1c0.1,0.6,0.2,1.3,0.2,1.9v0.3c0,0.6-0.1,1.3-0.2,1.9
		C774.9,177.3,774.7,177.6,774.5,177.6z M777.6,171.6c0.1,0,0.2,0.3,0.3,1c0.1,0.6,0.1,1.3,0.1,1.9v0.3c0,0.6,0,1.3-0.1,1.9
		c-0.1,0.7-0.1,1-0.3,1h-3.7c-0.1,0-0.2-0.3-0.3-1s-0.1-1.3-0.1-1.9v-0.3c0-0.6,0-1.2,0.1-1.9c0.1-0.6,0.1-1,0.3-1H777.6z"/>
	<path class="st2" d="M783.6,171.6c0.2,0,0.4,0.3,0.5,1c0.1,0.6,0.2,1.3,0.2,1.9v0.3c0,0.6-0.1,1.3-0.2,1.9c-0.1,0.7-0.3,1-0.5,1
		h-6.5c-0.2,0-0.4-0.3-0.5-1s-0.2-1.3-0.2-1.9v-0.3c0-0.6,0.1-1.2,0.2-1.9c0.1-0.6,0.3-1,0.5-1H783.6z"/>
	<path class="st2" d="M789.8,171.6c0.2,0,0.4,0.3,0.5,1c0.1,0.6,0.2,1.3,0.2,1.9v0.3c0,0.6-0.1,1.3-0.2,1.9c-0.1,0.7-0.3,1-0.5,1
		h-6.5c-0.2,0-0.4-0.3-0.5-1s-0.2-1.3-0.2-1.9v-0.3c0-0.6,0.1-1.2,0.2-1.9c0.1-0.6,0.3-1,0.5-1H789.8z"/>
	<path class="st2" d="M796,171.6c0.2,0,0.4,0.3,0.5,1c0.1,0.6,0.2,1.3,0.2,1.9v0.3c0,0.6-0.1,1.3-0.2,1.9c-0.1,0.7-0.3,1-0.5,1h-6.5
		c-0.2,0-0.4-0.3-0.5-1s-0.2-1.3-0.2-1.9v-0.3c0-0.6,0.1-1.2,0.2-1.9c0.1-0.6,0.3-1,0.5-1H796z"/>
	<path class="st2" d="M802.3,171.6c0.2,0,0.4,0.3,0.5,1c0.1,0.6,0.2,1.3,0.2,1.9v0.3c0,0.6-0.1,1.3-0.2,1.9c-0.1,0.7-0.3,1-0.5,1
		h-6.5c-0.2,0-0.4-0.3-0.5-1s-0.2-1.3-0.2-1.9v-0.3c0-0.6,0.1-1.2,0.2-1.9c0.1-0.6,0.3-1,0.5-1H802.3z"/>
	<path class="st2" d="M808.5,171.6c0.2,0,0.4,0.3,0.5,1c0.1,0.6,0.2,1.3,0.2,1.9v0.3c0,0.6-0.1,1.3-0.2,1.9c-0.1,0.7-0.3,1-0.5,1
		H802c-0.2,0-0.4-0.3-0.5-1s-0.2-1.3-0.2-1.9v-0.3c0-0.6,0.1-1.2,0.2-1.9c0.1-0.6,0.3-1,0.5-1H808.5z"/>
	<path class="st2" d="M814.7,171.6c0.2,0,0.4,0.3,0.5,1c0.1,0.6,0.2,1.3,0.2,1.9v0.3c0,0.6-0.1,1.3-0.2,1.9c-0.1,0.7-0.3,1-0.5,1
		h-6.5c-0.2,0-0.4-0.3-0.5-1s-0.2-1.3-0.2-1.9v-0.3c0-0.6,0.1-1.2,0.2-1.9c0.1-0.6,0.3-1,0.5-1H814.7z"/>
	<path class="st2" d="M814.5,171.6h5.1c1.6,0,2.6-0.2,3.2-0.7c0.6-0.5,0.8-1.4,0.8-2.8v-6.8v-0.9h1h4.3h1v0.9v6.8
		c0,3.1-0.9,5.4-2.7,7.1c-1.8,1.6-4.3,2.4-7.7,2.4h-5c-0.2,0-0.4-0.3-0.5-1s-0.2-1.3-0.2-1.9v-0.3c0-0.6,0.1-1.2,0.2-1.9
		C814.1,172,814.3,171.6,814.5,171.6z M820.9,153l4.3-4l4.3,4l-4.3,4L820.9,153z"/>
	<path class="st2" d="M847.1,177.6H846c-3,0-5.2-0.8-6.8-2.5s-2.3-4-2.3-7.1v-20.3v-0.9h1h4.1h1v0.9V168c0,1.3,0.2,2.2,0.7,2.7
		s1.3,0.8,2.3,0.8h1.1c0.2,0,0.3,0.3,0.4,1c0.1,0.6,0.2,1.3,0.2,1.9v0.3c0,0.6-0.1,1.3-0.2,1.9C847.5,177.3,847.3,177.6,847.1,177.6
		z"/>
	<path class="st2" d="M853.3,171.6c0.2,0,0.4,0.3,0.5,1c0.1,0.6,0.2,1.3,0.2,1.9v0.3c0,0.6-0.1,1.3-0.2,1.9c-0.1,0.7-0.3,1-0.5,1
		h-6.5c-0.2,0-0.4-0.3-0.5-1s-0.2-1.3-0.2-1.9v-0.3c0-0.6,0.1-1.2,0.2-1.9c0.1-0.6,0.3-1,0.5-1H853.3z"/>
	<path class="st2" d="M859.6,171.6c0.2,0,0.4,0.3,0.5,1c0.1,0.6,0.2,1.3,0.2,1.9v0.3c0,0.6-0.1,1.3-0.2,1.9c-0.1,0.7-0.3,1-0.5,1
		h-6.5c-0.2,0-0.4-0.3-0.5-1s-0.2-1.3-0.2-1.9v-0.3c0-0.6,0.1-1.2,0.2-1.9c0.1-0.6,0.3-1,0.5-1H859.6z"/>
	<path class="st2" d="M857.4,185.3l4.2-3.9l4.2,3.9l-4.2,3.9L857.4,185.3z M859.3,171.6h7c1.6,0,2.6-0.2,3.2-0.7
		c0.6-0.5,0.8-1.4,0.8-2.8v-6.8v-0.9h1h4.3h1v0.9v6.8c0,3.1-0.9,5.4-2.7,7.1c-1.8,1.6-4.3,2.4-7.7,2.4h-7.1c-0.2,0-0.4-0.3-0.5-1
		s-0.2-1.3-0.2-1.9v-0.3c0-0.6,0.1-1.2,0.2-1.9C859,172,859.1,171.6,859.3,171.6z M866.4,185.3l4.2-3.9l4.2,3.9
		c-0.1,0.1-0.2,0.2-0.3,0.3c-0.2,0.2-0.8,0.7-1.7,1.6c-0.9,0.9-1.7,1.5-2.2,2L866.4,185.3z"/>
	<path class="st2" d="M894,177.6h-1.1c-3,0-5.2-0.8-6.8-2.5s-2.3-4-2.3-7.1v-20.3v-0.9h1h4.1h1v0.9V168c0,1.3,0.2,2.2,0.7,2.7
		s1.3,0.8,2.3,0.8h1.1c0.2,0,0.3,0.3,0.4,1c0.1,0.6,0.2,1.3,0.2,1.9v0.3c0,0.6-0.1,1.3-0.2,1.9C894.3,177.3,894.2,177.6,894,177.6z"
		/>
	<path class="st2" d="M900.2,171.6c0.2,0,0.4,0.3,0.5,1c0.1,0.6,0.2,1.3,0.2,1.9v0.3c0,0.6-0.1,1.3-0.2,1.9c-0.1,0.7-0.3,1-0.5,1
		h-6.5c-0.2,0-0.4-0.3-0.5-1s-0.2-1.3-0.2-1.9v-0.3c0-0.6,0.1-1.2,0.2-1.9c0.1-0.6,0.3-1,0.5-1H900.2z"/>
	<path class="st2" d="M906.4,171.6c0.2,0,0.4,0.3,0.5,1c0.1,0.6,0.2,1.3,0.2,1.9v0.3c0,0.6-0.1,1.3-0.2,1.9c-0.1,0.7-0.3,1-0.5,1
		h-6.5c-0.2,0-0.4-0.3-0.5-1s-0.2-1.3-0.2-1.9v-0.3c0-0.6,0.1-1.2,0.2-1.9c0.1-0.6,0.3-1,0.5-1H906.4z"/>
	<path class="st2" d="M904.5,184.4l4-3.7l4,3.7l-4,3.7L904.5,184.4z M906.2,171.6h7c1.6,0,2.6-0.2,3.2-0.7c0.6-0.5,0.8-1.4,0.8-2.8
		v-6.8v-0.9h1h4.3h1v0.9v6.8c0,3.1-0.9,5.4-2.7,7.1c-1.8,1.6-4.3,2.4-7.7,2.4H906c-0.2,0-0.4-0.3-0.5-1s-0.2-1.3-0.2-1.9v-0.3
		c0-0.6,0.1-1.2,0.2-1.9C905.8,172,906,171.6,906.2,171.6z M909,190.1l4-3.7l4,3.7l-4,3.7L909,190.1z M913.6,184.4l4-3.7l4,3.7
		l-4,3.7L913.6,184.4z"/>
</g>
</svg>
