<?xml version="1.0" encoding="utf-8"?>
<!-- Generator: Adobe Illustrator 23.0.1, SVG Export Plug-In . SVG Version: 6.00 Build 0)  -->
<svg version="1.1" id="Layer_1" xmlns="http://www.w3.org/2000/svg" xmlns:xlink="http://www.w3.org/1999/xlink" x="0px" y="0px"
	 viewBox="0 0 375 250" style="enable-background:new 0 0 375 250;" width="375" height="250" xml:space="preserve">
<style type="text/css">
	.st0{fill:#E50000;}
	.st1{fill:#FFFFFF;}
	.st2{fill:#004F49;}
	.st3{opacity:0.35;fill:#FFFFFF;enable-background:new    ;}
	.st4{fill:#061133;stroke:#FFFFFF;stroke-width:3;stroke-miterlimit:10;}
	.st5{fill:#FFC200;}
	.st6{fill:#032D44;}
	.st7{opacity:0.48;}
</style>
<g>
	<g>
		<g>
			<path class="st0" d="M358.7,202.1H181.4c-5.8,0-10.7-4.9-10.7-11v-56.5c0-6,4.8-11,10.7-11h177.4c5.8,0,10.7,4.9,10.7,11v56.5
				C369.6,197.2,364.8,202.1,358.7,202.1z"/>
			<path class="st1" d="M358.7,203.2H181.4c-6.5,0-11.8-5.5-11.8-12.3v-56.5c0-6.7,5.3-12.3,11.8-12.3h177.4
				c6.5,0,11.8,5.5,11.8,12.3V191C370.6,197.9,365.5,203.2,358.7,203.2z M181.4,124.6c-5.3,0-9.6,4.5-9.6,10v56.5
				c0,5.5,4.3,10,9.6,10h177.4c5.4,0,9.6-4.4,9.6-10v-56.5c0-5.5-4.3-10-9.6-10L181.4,124.6L181.4,124.6z"/>
		</g>
		<g>
			<path class="st1" d="M203.6,172.8h-0.3c-2.5,0-4.7-1.1-6.7-3.2c-1.3,2-4.2,3.2-8.4,3.2h-8h-0.7v-0.7v-3.8v-0.7h0.7h7.8
				c0.1,0,0.2,0,0.3,0s0.2,0,0.3,0c0.8,0,1.4-0.1,2-0.2c0.4-0.1,1.1-0.2,1.2-0.3c0.3-0.2,0.4-0.3,0.6-0.6c0.1-0.2,0.2-0.3,0.2-0.7
				s-0.2-1-0.4-1.4c-0.2-0.3-0.3-0.6-0.6-1.1c-0.3-0.3-0.4-0.7-1-1.1l-5.7-6.6l-0.3-0.4l0.3-0.4l2.6-2.9l0.6-0.6l0.4,0.7l11.4,13.7
				c1.2,1.5,2.4,2.1,3.5,2.1h0.2c0.3,0,0.4,0.1,0.7,0.2c0.2,0.1,0.3,0.3,0.3,0.6c0.1,0.3,0.1,0.4,0.1,0.7s0,0.3,0,0.8
				c0,0.1,0,0.1,0,0.1v0.2c0,0.7,0,1.2-0.1,1.5c0,0.2-0.1,0.3-0.2,0.3c-0.1,0.1-0.2,0.2-0.3,0.3
				C203.9,172.7,203.8,172.8,203.6,172.8z"/>
			<path class="st1" d="M221.8,172.8h-0.4c-2.9,0-5.1-0.8-6.5-2.4c-1.5,1.5-4.2,2.4-7.5,2.4h-3.8c-0.6,0-1.1-0.2-1.4-0.7
				c-0.3-0.4-0.4-1.1-0.4-1.7v-0.1c0-0.7,0.1-1.3,0.3-1.7c0.3-0.4,0.8-0.8,1.5-0.8h3.9c1.1,0,2-0.1,2.8-0.3c0.7-0.3,1.2-0.6,1.5-1.1
				c0.3-0.4,0.4-1.1,0.4-1.8v-5.4v-0.7h0.7h3.8h0.7v0.7v5.4c0,1.2,0.3,2,1,2.6c0.6,0.4,1.7,0.8,3.2,0.8h0.4c0.3,0,0.4,0.1,0.7,0.2
				c0.2,0.1,0.3,0.3,0.3,0.6c0.1,0.3,0.1,0.4,0.1,0.7c0,0.2,0,0.3,0,0.8c0,0.1,0,0.1,0,0.1v0.2c0,0,0,0.1,0,0.2c0,0.2,0,0.3,0,0.3
				c0,0.1,0,0.2,0,0.3c0,0.2,0,0.3-0.1,0.4c0,0.1-0.1,0.3-0.1,0.3c-0.1,0.1-0.1,0.3-0.2,0.3c-0.1,0.1-0.2,0.2-0.3,0.2
				C222.1,172.8,221.9,172.8,221.8,172.8z M203.5,179.1l1.8-1.8c0.6-0.6,1.2-0.7,1.7-0.1l2,2c0.6,0.6,0.6,1.2,0,1.7l-1.8,1.8
				c-0.6,0.6-1.2,0.6-1.7,0l-2-2C202.9,180.2,202.9,179.6,203.5,179.1z M211,179.1l1.8-1.8c0.6-0.6,1.2-0.7,1.7-0.1l2,2
				c0.6,0.6,0.6,1.2,0,1.7l-1.8,1.8c-0.6,0.6-1.2,0.6-1.7,0l-2.1-2C210.5,180.2,210.5,179.7,211,179.1z"/>
			<path class="st1" d="M239.2,172.8h-0.3c-2.9,0-5.1-0.8-6.5-2.4c-1.7,1.5-4.2,2.4-7.5,2.4h-3.2c-0.6,0-1.1-0.2-1.4-0.7
				c-0.3-0.4-0.4-1.1-0.4-1.7v-0.1c0-0.7,0.1-1.3,0.3-1.7c0.3-0.4,0.8-0.8,1.5-0.8h3.3c1.7,0,2.9-0.3,3.6-0.8
				c0.7-0.4,1.1-1.4,1.1-2.5V159v-0.7h0.7h3.8h0.7v0.7v5.4c0,1.2,0.3,2,1,2.6c0.6,0.4,1.7,0.8,3.2,0.8h0.4c0.3,0,0.4,0.1,0.7,0.2
				c0.2,0.1,0.3,0.3,0.3,0.6c0.1,0.3,0.1,0.4,0.1,0.7s0,0.3,0,0.8c0,0.1,0,0.1,0,0.1v0.2c0,0,0,0.1,0,0.2c0,0.1,0,0.2,0,0.3
				s0,0.2,0,0.3s0,0.3,0,0.3c0,0.1,0,0.2-0.1,0.3c0,0.1-0.1,0.2-0.1,0.3s-0.1,0.2-0.1,0.3c-0.1,0.1-0.1,0.2-0.2,0.2
				c-0.1,0.1-0.2,0.1-0.3,0.1C239.5,172.8,239.3,172.8,239.2,172.8z M227.3,149.2l1.8-1.8c0.7-0.7,1.3-0.7,1.8-0.1l2.1,2
				c0.6,0.6,0.6,1.3-0.1,1.8l-1.8,1.8c-0.6,0.6-1.3,0.6-1.8,0l-2-2.1C226.8,150.4,226.8,149.9,227.3,149.2z"/>
			<path class="st1" d="M239,172.8c-0.6,0-1.1-0.2-1.4-0.7c-0.3-0.4-0.4-1.1-0.4-1.7v-0.1c0-0.7,0.1-1.3,0.3-1.7
				c0.3-0.4,0.8-0.8,1.5-0.8h6.9c1.5,0,2.9-0.2,3.5-0.4c0.7-0.3,1.1-1,1.1-1.5c0-0.1,0-0.2-0.1-0.3c-0.1-0.2-0.2-0.3-0.3-0.7
				c-0.2-0.3-0.3-0.6-0.7-1.1c-0.3-0.3-0.6-0.8-1.1-1.2l-6.8-7.8c-0.8-1-1.2-2-1.2-3.5c0-0.4,0.1-1,0.2-1.4c0.1-0.3,0.3-0.8,0.6-1.1
				c0.2-0.2,0.6-0.6,1-1c0.3-0.3,0.8-0.4,1.2-0.6l13.2-4.3l1.1-0.3v1.1v3.8v0.4l-0.4,0.2l-10.9,3.6l5.8,6.7c2.4,2.9,3.8,5.3,3.8,7.4
				c0,2.4-0.8,4.3-2.4,5.4c-1.5,1.2-4,1.7-7.1,1.7h-6.9v-0.1h-0.1v-0.1L239,172.8L239,172.8z"/>
			<path class="st1" d="M289.1,172.8h-15.3c-3.2,0-5.7-1-7.4-2.6c-1.7-1.7-2.5-4.3-2.5-7.5v-4.3v-0.7h0.7h3.8h0.7v0.7v4.3
				c0,1.5,0.3,2.9,1.2,3.6c0.3,0.3,1,0.7,1.4,1c0.6,0.2,1.3,0.3,2.1,0.3H289c1.5,0,2.9-0.2,3.5-0.6s1.1-1,1.1-1.5
				c0-0.2-0.2-0.6-0.4-1.2c-0.3-0.6-1-1.3-1.5-2.1l-6.8-7.8c-0.3-0.3-0.7-1.1-1-1.5c-0.2-0.6-0.3-1.2-0.3-1.7c0-0.7,0.1-1.3,0.3-1.7
				c0.2-0.4,0.6-1.1,1.1-1.4c0.4-0.3,1.1-0.7,1.5-1l13-4.3l1.1-0.3v1.1v3.8v0.4l-0.4,0.1l-11,3.6l11.4,13.1c1.7,2,3.2,3,4.4,3h0.4
				c0.3,0,0.4,0.1,0.7,0.2c0.2,0.1,0.3,0.3,0.3,0.7c0,0.3,0.1,0.4,0.1,0.7c0,0.2,0,0.3,0,0.7c0,0.1,0,0.1,0,0.1v0.2c0,0,0,0.1,0,0.2
				c0,0.2,0,0.3,0,0.4c0,0.1,0,0.3,0,0.4c0,0.2,0,0.3-0.1,0.4c-0.1,0.1-0.1,0.3-0.2,0.3c-0.1,0.1-0.2,0.2-0.3,0.3
				c-0.1,0.1-0.3,0.1-0.4,0.1h-0.3c-2.9,0-5.2-1.2-7.3-3.6c-0.2,0.3-0.3,0.7-0.7,1.1c-0.3,0.3-0.6,0.6-1,0.8
				c-0.3,0.2-0.7,0.4-1.1,0.7c-0.4,0.2-0.8,0.3-1.2,0.4c-0.4,0.1-1,0.3-1.4,0.3c-0.4,0.1-1.1,0.2-1.5,0.2
				C290.2,172.8,289.6,172.8,289.1,172.8z"/>
			<path class="st1" d="M323.5,172.8h-0.3c-2.9,0-5.1-0.8-6.5-2.4c-1.5,1.5-4.2,2.4-7.5,2.4h-3.8c-0.6,0-1.1-0.2-1.4-0.7
				s-0.4-1.1-0.4-1.7v-0.1c0-0.7,0.1-1.3,0.3-1.7c0.3-0.4,0.8-0.8,1.5-0.8h3.9c1.1,0,2-0.1,2.8-0.3c0.7-0.3,1.2-0.6,1.5-1.1
				c0.3-0.4,0.4-1.1,0.4-1.8v-5.4v-0.7h0.7h3.8h0.7v0.7v5.4c0,1.2,0.3,2,1,2.6c0.6,0.4,1.7,0.8,3.2,0.8h0.4c0.3,0,0.4,0.1,0.7,0.2
				c0.2,0.1,0.3,0.3,0.3,0.6c0.1,0.3,0.1,0.4,0.1,0.7c0,0.2,0,0.3,0,0.8c0,0.1,0,0.1,0,0.1v0.2c0,0,0,0.1,0,0.2c0,0.2,0,0.3,0,0.3
				c0,0.1,0,0.2,0,0.3c0,0.2,0,0.3-0.1,0.4c0,0.1-0.1,0.3-0.1,0.3c-0.1,0.1-0.1,0.3-0.2,0.3c-0.1,0.1-0.2,0.2-0.3,0.2
				C323.7,172.8,323.7,172.8,323.5,172.8z M305.1,179.1l1.8-1.8c0.6-0.6,1.2-0.7,1.7-0.1l2,2c0.6,0.6,0.6,1.2,0,1.7l-1.8,1.8
				c-0.6,0.6-1.2,0.6-1.7,0l-2-2C304.5,180.2,304.5,179.6,305.1,179.1z M312.7,179.1l1.8-1.8c0.6-0.6,1.2-0.7,1.7-0.1l2,2
				c0.6,0.6,0.6,1.2,0,1.7l-1.8,1.8c-0.6,0.6-1.2,0.6-1.7,0l-2.1-2C312.1,180.2,312.1,179.7,312.7,179.1z"/>
			<path class="st1" d="M338.2,172.8h-1.1c-2.4,0-4.4-0.8-6-2.4c-1.5,1.5-3.5,2.4-5.9,2.4h-2c-0.6,0-1.1-0.2-1.4-0.7
				c-0.3-0.4-0.3-1.1-0.3-1.7v-0.1c0-0.7,0.1-1.3,0.3-1.7c0.3-0.4,0.8-0.8,1.5-0.8h2c0.6,0,1.2-0.1,1.5-0.2c0.3-0.1,0.8-0.3,1.1-0.6
				c0.3-0.3,0.4-0.6,0.6-1.1c0.1-0.3,0.2-1,0.2-1.4v-18.8V145h0.7h3.5h0.7v0.7v19c0,1.1,0.3,1.8,1,2.4c0.6,0.4,1.5,0.8,2.9,0.8h0.8
				c0.3,0,0.4,0.1,0.7,0.2c0.2,0.2,0.3,0.3,0.3,0.7c0,0.3,0.1,0.4,0.1,0.7c0,0.2,0,0.3,0,0.8c0,0.1,0,0.1,0,0.1v0.2v0.1
				c0,0.2,0,0.3,0,0.4s0,0.3,0,0.4c0,0.2,0,0.3-0.1,0.4c-0.1,0.1-0.1,0.3-0.2,0.3c-0.1,0.1-0.2,0.2-0.3,0.3
				C338.6,172.8,338.4,172.8,338.2,172.8z"/>
			<path class="st1" d="M337.9,172.8c-0.6,0-1.1-0.2-1.4-0.7s-0.4-1.1-0.4-1.7v-0.1c0-0.7,0.1-1.3,0.3-1.7c0.3-0.4,0.8-0.8,1.5-0.8
				h6.9c1.5,0,2.9-0.2,3.5-0.4c0.7-0.3,1.1-1,1.1-1.5c0-0.1,0-0.2-0.1-0.3c-0.1-0.2-0.2-0.3-0.3-0.7c-0.2-0.3-0.3-0.6-0.7-1.1
				c-0.3-0.3-0.6-0.8-1.1-1.2l-6.8-7.8c-0.8-1-1.2-2-1.2-3.5c0-0.4,0.1-1,0.2-1.4c0.1-0.3,0.3-0.8,0.6-1.1c0.3-0.3,0.6-0.6,1-1
				c0.3-0.3,0.8-0.4,1.2-0.6l13.2-4.3l1.1-0.3v1.1v3.8v0.4l-0.4,0.2l-10.9,3.6l5.8,6.7c2.4,2.9,3.8,5.3,3.8,7.4
				c0,2.4-0.8,4.3-2.4,5.4s-4,1.7-7.1,1.7h-6.9v-0.1H338v-0.1h0.1v0.1L337.9,172.8L337.9,172.8z"/>
		</g>
	</g>
</g>
<g>
	<g>
		<path class="st1" d="M53.3,84c-0.4,0.2-1,0.4-1.4,0.6c-0.6,0.2-1.4,0.2-2.2,0.4c-0.6,0-1.6,0.2-2.5,0.2H35.6
			c-2.6,0-4.6-0.6-5.9-2.1c-1.4-1.4-2.1-3.5-2.1-6.2v-3.5V73h0.6h3.2H32v0.6V77c0,1.4,0.2,2.2,1,2.9c0.6,0.6,1.6,1,2.9,1h12.3
			c-0.6-1-1-2.2-1-3.8c0-1,0.2-1.8,0.4-2.6c0.2-0.6,0.6-1.4,1.4-2.2c1.4-1.3,2.9-1.8,4.8-1.8s3.5,0.6,4.8,1.8c0.6,0.6,1,1.4,1.4,2.2
			c0.2,0.6,0.4,1.8,0.4,2.6c0,1.4-0.2,2.6-1,3.8H62c0.2,0,0.2,0,0.4,0s0.2,0.2,0.2,0.2c0,0.2,0.2,0.2,0.2,0.2s0,0.2,0,0.4
			c0,0.2,0,0.2,0,0.2v0.2c0,0,0,0,0,0.2v0.2c0,0,0,0,0,0.2s0,0.2,0,0.4c0,0,0,0.2,0,0.4c0,0.2,0,0.2,0,0.4c0,0,0,0.2-0.2,0.2
			c0,0.2-0.2,0.2-0.2,0.2c-0.2,0-0.2,0-0.4,0h-2.5C56.9,85.3,55.1,84.6,53.3,84z M50.6,64.4L52,63c0.4-0.4,1-0.6,1.4,0l1.8,1.6
			c0.4,0.4,0.4,1,0,1.4l-1.4,1.4c-0.4,0.4-1,0.4-1.4,0l-1.6-1.8C49.9,65.3,49.9,64.8,50.6,64.4z M50.6,77.3c0,0.6,0.2,1.3,0.6,1.8
			c0.4,0.4,1,0.6,1.8,0.6c1,0,1.4-0.2,1.8-0.6c0.4-0.4,0.6-1,0.6-1.8s-0.2-1.3-0.6-1.8c-0.2-0.2-0.4-0.4-0.6-0.6
			c-0.2-0.2-0.6-0.2-1-0.2c-0.2,0-0.6,0-1,0.2c-0.2,0.2-0.6,0.2-0.6,0.6c-0.2,0.2-0.4,0.4-0.6,0.6c0,0.2,0,0.2-0.2,0.4
			C50.6,76.9,50.6,76.9,50.6,77.3z"/>
		<path class="st1" d="M76.4,85.3h-0.2c-2.2,0-4-0.6-5.4-1.8c-1.4,1.4-3.5,1.8-6.2,1.8h-3.2c-0.4,0-0.8-0.2-1-0.6
			c-0.2-0.2-0.2-0.8-0.2-1.4V83c0-0.6,0-1,0.2-1.4C60.7,81,61,81,61.7,81h3.2c0.8,0,1.6,0,2.2-0.2s1-0.4,1.3-0.8
			c0.2-0.2,0.2-0.8,0.2-1.4V74v-0.4h0.6h3.2H73v0.6v4.6c0,1,0.2,1.6,0.6,2.1c0.4,0.4,1.4,0.6,2.5,0.6h0.2c0.2,0,0.4,0,0.6,0.2
			s0.2,0.2,0.2,0.4c0.2,0.2,0,0.4,0,0.6s0,0.2,0,0.6c0,0,0,0,0,0.2v0.2c0,0,0,0,0,0.2s0,0.2,0,0.2v0.2v0.2c0,0,0,0.2-0.2,0.2
			c0,0.2-0.2,0.2-0.2,0.2L76.4,85.3C76.9,85.3,76.6,85.3,76.4,85.3z M61.6,90.2l1.4-1.4c0.4-0.4,1-0.4,1.4,0l1.6,1.6
			c0.4,0.4,0.4,1,0,1.4l-1.4,1.4c-0.4,0.4-1,0.4-1.4,0l-1.6-1.6C61,91.2,61,90.8,61.6,90.2z M67.8,90.2l1.4-1.4c0.4-0.4,1-0.4,1.4,0
			l1.6,1.6c0.4,0.4,0.4,1,0,1.4l-1.4,1.4c-0.4,0.4-1,0.4-1.4,0l-1.8-1.6C67.2,91.2,67.5,90.8,67.8,90.2z"/>
		<path class="st1" d="M94.2,85.3H92c-1,0-2.2-0.2-3.2-0.2c-0.8,0-1.8-0.4-2.9-1c-1.8,0.8-4,1.4-6.2,1.4h-3.2c-0.4,0-0.8-0.2-1-0.6
			c-0.2-0.2-0.2-0.8-0.2-1.4v-0.2c0-0.6,0.2-1,0.2-1.4c0.2-0.2,0.6-0.6,1-0.6h4c-0.6-1-1-2.2-1-3.8c0-1.8,0.6-3.5,1.8-4.8
			c1.4-1.3,2.9-1.8,4.8-1.8c1.8,0,3.5,0.6,4.8,1.8c0.2,0.2,0.6,0.6,0.6,1c0.2,0.4,0.4,0.6,0.6,1c0.2,0.2,0.2,0.6,0.2,1.3
			c0,0.6,0.2,0.8,0.2,1.4s0,1.4-0.2,1.8c-0.2,0.6-0.4,1.3-0.6,1.8h2.6c0.2,0,0.2,0,0.4,0c0.2,0,0.2,0.2,0.2,0.2
			c0,0.2,0.2,0.2,0.2,0.2s0,0.2,0,0.4c0,0.2,0,0.2,0,0.2v0.2c0,0,0,0,0,0.2v0.2c0,0,0,0,0,0.2s0,0.2,0,0.2v0.2c0,0.2,0,0.2,0,0.2V84
			c0,0.2,0,0.2-0.2,0.2l-0.2,0.2l-0.2,0.2C94.4,85.3,94.2,85.3,94.2,85.3z M83.2,64.4l1.4-1.4c0.4-0.4,1-0.6,1.4,0l1.8,1.6
			c0.4,0.4,0.4,1,0,1.4l-1.4,1.4c-0.4,0.4-1,0.4-1.4,0l-1.6-1.8C82.8,65.3,82.8,64.8,83.2,64.4z M83.2,77.3c0,0.6,0.2,1.3,0.6,1.8
			c0.6,0.6,1,0.6,1.8,0.6s1.4-0.2,1.8-0.6s0.6-1,0.6-1.8s-0.2-1.3-0.6-1.8c-0.2-0.2-0.4-0.4-0.6-0.6s-0.6-0.2-1-0.2
			c-0.2,0-0.6,0-1,0.2c-0.2,0.2-0.6,0.2-0.6,0.6L84,75.7l-0.2,0.2c0,0,0,0.2-0.2,0.2v0.2v0.2C83.2,76.9,83.2,76.9,83.2,77.3z"/>
		<path class="st1" d="M109.4,82.2l-1.4,0.6c-2.6,1.4-5.4,2.1-8.5,2.1h-5.3c-0.4,0-0.8-0.2-1-0.6C93,83.8,93,83.4,93,82.8v-0.2
			c0-0.6,0-1,0.2-1.4c0.2-0.6,0.6-0.6,1.3-0.6h5.1c1.3,0,2.2-0.2,3.5-0.2c1-0.2,2.1-0.6,3.2-1l4-1.8l-2.2-1.4
			c-1.4-0.6-2.6-1.3-4-1.3c-1.3,0-2.2,0.4-3.8,1.4l-1.3,1l-0.4,0.2l-0.2-0.4l-1.8-2.2l-0.4-0.4l0.4-0.2l1-0.8c1.8-1.4,4-2.5,5.9-2.6
			c1.8-0.2,4,0.2,6.2,1.4l3.2,1.8c0.2,0.2,0.6,0.2,1,0.6c0.2,0.2,0.6,0.2,1,0.2c0.2,0,0.6,0.2,0.8,0.2h0.4v0.4v3.2v0.2l-0.2,0.2
			l-1.8,1c0.6,0.2,1.4,0.6,2.2,0.6h2.1c0.2,0,0.4,0,0.6,0.2s0.2,0.2,0.2,0.4c0,0.3,0,0.4,0,0.6s0,0.2,0,0.6c0,0,0,0,0,0.2V83
			c0,0.4,0,1-0.2,1.3c-0.2,0.4-0.4,0.6-0.8,0.6h-1.8c-1.3,0-2.2-0.2-3.5-0.6C110.9,84,109.8,83.2,109.4,82.2z M101.4,64l1.4-1.4
			c0.4-0.4,1-0.6,1.4,0l1.8,1.6c0.4,0.4,0.4,1,0,1.4l-1.4,1.4c-0.4,0.4-1,0.4-1.4,0l-1.6-1.8C100.8,64.8,100.8,64.4,101.4,64z"/>
		<path class="st1" d="M117.2,85.3c-0.4,0-0.8-0.2-1-0.6c-0.2-0.2-0.2-0.8-0.2-1.4V83c0-0.6,0.2-1,0.2-1.4c0.2-0.2,0.6-0.6,1-0.6h4
			c1,0,1.8-0.2,2.2-0.6c0.4-0.4,0.6-1,0.6-2.1v-4.9V73h0.6h2.9h0.6v0.6v4.9c0,2.2-0.6,4-1.8,5.1c-1.3,1-2.9,1.8-5.1,1.8L117.2,85.3
			L117.2,85.3L117.2,85.3z M117.8,65.9l1.4-1.4c0.4-0.4,1-0.4,1.4,0l1.6,1.6c0.4,0.4,0.4,1,0,1.4l-1.4,1.4c-0.4,0.4-1,0.4-1.4,0
			l-1.6-1.6C117.4,66.8,117.4,66.5,117.8,65.9z M123.9,65.9l1.4-1.4c0.4-0.4,1-0.4,1.4,0l1.6,1.6c0.4,0.4,0.4,1,0,1.4l-1.4,1.4
			c-0.4,0.4-1,0.4-1.4,0l-1.8-1.6C123.6,66.8,123.6,66.5,123.9,65.9z"/>
		<path class="st1" d="M136.1,64.4c0-1,0.2-1.8,1.3-2.5c0.6-0.6,1.6-1,2.6-1s1.8,0.2,2.6,1c0.2,0.2,0.2,0.2,0.4,0.4
			c0.3,0.3,0.2,0.4,0.2,0.6c0.2,0.2,0.2,0.4,0.2,0.6c0.2,0.2,0.2,0.4,0.2,0.6s0,0.6-0.2,0.8c0,0.2-0.2,0.2-0.2,0.2
			c0,0.2-0.2,0.2-0.2,0.2c-0.2,0.2-0.2,0.2-0.2,0.2c-0.2,0.2-0.2,0.4-0.6,0.6c-0.6,0.6-1.6,1-2.6,1s-1.8-0.2-2.6-1
			c-0.2-0.2-0.6-0.6-0.8-1.3C136.1,65.3,136.1,64.9,136.1,64.4z M150.9,59.9l3.2,1.6l0.6,0.2L140.8,86l-0.6-0.2l-2.9-1.6l-0.6-0.2
			l13.9-24.2C150.3,59.9,150.9,59.9,150.9,59.9z M148.1,80.1L148.1,80.1L148.1,80.1L148.1,80.1v-0.3v-0.2v-0.2c0-0.2,0-0.2,0.2-0.2
			c0-0.2,0-0.2,0-0.2v-0.2c0-0.2,0.2-0.2,0.2-0.2l0.2-0.2c0-0.2,0-0.2,0.2-0.2c0.2-0.2,0.2-0.2,0.2-0.2l0.2-0.2l0.2-0.2l0.2-0.2
			l0.2-0.2c0.2-0.2,0.2-0.2,0.2-0.2c0.6-0.6,1.6-1,2.6-1c0.2,0,0.6,0.2,0.8,0.2s0.2,0.2,0.4,0.2s0.2,0.2,0.2,0.2s0.2,0,0.2,0.2
			c0.2,0,0.2,0.2,0.2,0.2c0.2,0.2,0.4,0.2,0.6,0.6c0.6,0.6,1.3,1.6,1.3,2.5c0,0.8-0.2,1.8-1.3,2.5c-0.2,0.2-0.6,0.6-1.3,0.6
			c-0.4,0.2-0.8,0.2-1.4,0.2c-1,0-1.8-0.2-2.6-1C148.6,82,148.1,81,148.1,80.1z"/>
	</g>
	<g>
		<path class="st1" d="M174.3,73.8c-0.9,0-1.7-0.1-2.6-0.3c-0.8-0.1-1.6-0.4-2.4-0.8c0.1,1.3,0.3,2.6,0.4,3.8
			c0.1,1.3,0.1,2.4,0.2,3.5c0.1,1.2,0.1,2.2,0.1,3.4c0,1.2,0,2.1,0,3.2h-5.6c0-2.5-0.1-4.9-0.1-7.4c-0.1-2.4-0.3-4.7-0.6-6.8
			c-0.4-2.2-0.7-4.3-1.3-6.3c-0.6-1.9-1.3-3.8-2.4-5.2l4.8-3c0.4,0.7,0.7,1.3,1.1,1.8c0.4,0.5,0.6,1.2,0.9,1.7
			c0.4-0.7,1-1.3,1.5-1.7c0.6-0.4,1.3-0.9,1.9-1.2c0.7-0.4,1.3-0.5,2.1-0.7c0.7-0.1,1.5-0.2,2.2-0.2c0.5,0,1,0.1,1.5,0.1
			c0.5,0.1,1,0.2,1.5,0.4s1,0.4,1.5,0.7s1,0.7,1.5,1.2l-2.9,4.6c0,0-0.1-0.1-0.4-0.2c-0.2-0.1-0.4-0.3-0.9-0.4
			c-0.4-0.1-0.8-0.4-1.3-0.4c-0.5-0.1-1.1-0.2-1.7-0.2c-0.5,0-1,0.1-1.5,0.3s-1,0.4-1.4,0.7c-0.4,0.3-0.7,0.6-1,1s-0.4,0.7-0.3,1
			l0,0c0.1,0.4,0.3,0.7,0.6,1c0.4,0.3,0.7,0.4,1.3,0.5c0.5,0.1,1,0.3,1.5,0.3c0.5,0.1,1,0.1,1.4,0.1s0.9,0,1.3-0.1
			c0.4-0.1,1-0.1,1.5-0.3c0.4-0.1,1-0.3,1.5-0.4c0.4-0.1,1-0.4,1.3-0.7l2.3,4.4c-1.4,1-2.9,1.8-4.2,2.1
			C176.8,73.6,175.6,73.8,174.3,73.8z"/>
		<path class="st1" d="M183,75.5c0-1,0.2-1.8,0.5-2.7c0.4-0.8,0.8-1.5,1.4-2.2c0.6-0.6,1.3-1.1,2.1-1.4c0.8-0.4,1.7-0.5,2.7-0.5
			s1.8,0.2,2.7,0.5c0.8,0.4,1.5,0.8,2.2,1.4c0.6,0.6,1.1,1.3,1.4,2.2c0.3,0.9,0.5,1.7,0.5,2.7s-0.2,1.8-0.5,2.7
			c-0.4,0.8-0.8,1.5-1.4,2.1c-0.6,0.6-1.3,1.1-2.2,1.4c-0.8,0.4-1.7,0.5-2.7,0.5s-1.8-0.2-2.7-0.5c-0.8-0.4-1.5-0.8-2.1-1.4
			s-1.1-1.3-1.4-2.1C183.2,77.4,183,76.5,183,75.5z M187.1,75.5c0,0.4,0.1,0.7,0.2,1c0.1,0.4,0.4,0.6,0.5,0.9
			c0.3,0.3,0.5,0.4,0.9,0.5s0.7,0.2,1,0.2s0.7-0.1,1-0.2c0.4-0.1,0.6-0.4,0.9-0.5c0.3-0.3,0.4-0.5,0.6-0.9c0.1-0.4,0.2-0.7,0.2-1
			s-0.1-0.7-0.2-1c-0.1-0.4-0.4-0.6-0.6-0.9c-0.3-0.3-0.5-0.4-0.9-0.6c-0.4-0.1-0.7-0.2-1-0.2s-0.7,0.1-1,0.2
			c-0.4,0.1-0.6,0.4-0.9,0.6c-0.3,0.3-0.4,0.5-0.5,0.9C187.2,74.7,187.1,75.1,187.1,75.5z"/>
	</g>
</g>
<g>
	<path class="st2" d="M153.4,202H84.7c-5.7,0-10.3-4.6-10.3-10.3v-58.3c0-5.7,4.6-10.3,10.3-10.3h68.7c5.7,0,10.3,4.6,10.3,10.3
		v58.3C163.7,197.4,159.1,202,153.4,202z"/>
	<path class="st1" d="M153.4,203.2H84.7c-6.3,0-11.5-5.4-11.5-12.3v-57c0-6.7,5.1-12.3,11.5-12.3h68.7c6.3,0,11.5,5.4,11.5,12.3V191
		C164.9,197.8,159.7,203.2,153.4,203.2z M84.7,124.3c-5.1,0-9.1,4.4-9.1,9.8v57c0,5.4,4.1,9.8,9.1,9.8h68.7c5.1,0,9.1-4.4,9.1-9.8
		V134c0-5.4-4.1-9.8-9.1-9.8L84.7,124.3L84.7,124.3z"/>
</g>
<g>
	<g>
		<path class="st1" d="M101.5,181.9c0.4,0.8,0.9,1.5,1.2,2.4c0.2,0.4,0.4,1.4,1.5,1.4c0.3,0,0.8-0.1,1.3-0.3c0.4-0.2,0.9-0.7,1-1.2
			l0.4-1.5l1.1-0.5l0.1,0.1c-0.1,0.5-0.1,1.1-0.1,1.5c0,1.3,1.1,1.7,2,1.7c0.4,0,1-0.2,1-0.7c0-0.7-0.2-1.6-0.5-2.5
			c0.4-0.4,1-1,1.5-1.4l0.1,0.1c0.2,1.1,0.4,2.1,0.4,2.8s-0.3,1.5-0.5,2c-0.5,1-1.5,1.8-2.6,1.8c-0.9,0-1.8-0.4-2.4-1.3l0,0
			c-0.7,0.8-1.5,1.4-3,1.4h-0.4c-0.1,1-0.3,1.7-0.7,2.4c-1,1.8-3.6,3-6.1,3c-3.5,0-5.2-2.1-5.2-4.7c0-1.6,0.5-3.2,1.4-4.3l0.7,0.3
			c-0.5,1-0.9,2-0.9,2.9c0,2.5,2.1,3.8,4.4,3.8c2.2,0,4.9-1.4,5.4-3c-0.1-1.8-0.9-2.6-1.9-4.2c0.3-0.5,0.7-1.1,1.2-1.6h-0.1
			L101.5,181.9L101.5,181.9z"/>
		<path class="st1" d="M114.6,180l1.3,2.1c0.4,0.8,1,1.5,1,2.9v1.7c0,1.4-0.9,2.8-2.3,4.3c-1.1,1-2.1,1.4-2.9,1.4
			c-1.3,0-2.9-0.4-4.7-1.2l0.2-0.5c0.5,0.1,1.3,0.3,2.1,0.3c2.6,0,5.1-1.9,6.3-4.1c0.1-0.2,0.2-0.4,0.2-0.7c0-0.2-0.1-0.5-0.2-0.8
			c-0.7-1.3-1.4-2.4-2.2-3.4C113.7,181.3,114.2,180.6,114.6,180L114.6,180z"/>
		<path class="st1" d="M118.4,183.8c0.1,1.3,0.7,2.4,2.9,2.4c1.4,0,2.6-0.4,3.9-1c0.2-0.1,0.4-0.2,0.4-0.4c0-0.9-0.7-2-1.7-2.9
			c-1-1-2.4-1.8-3.7-2.4c-0.4-0.1-0.5-0.4-0.5-0.5c0-0.4,0.4-1.2,1-1.7h0.1c1.5,0.8,3.2,1.9,4.3,3.2c1.1,1.2,1.8,2.4,1.8,3.7
			c0,1-0.3,1.9-0.8,2.6c-1.6,0.8-3.4,1.4-5,1.4c-2.1,0-3.5-1-3.5-3.3c0-0.2,0-0.7,0.1-1.1H118.4L118.4,183.8z"/>
		<path class="st1" d="M129.2,188.2c0.1-1,0.2-2.1,0.2-3v-1.5c0-2.8-0.4-6.9-0.7-9.6c0.4-0.5,1.3-1.2,1.8-1.6l0.1,0.1
			c0.4,3.4,0.4,7.3,0.4,10.9c0,1,0,1.9-0.1,2.5c-0.1,0.9-0.5,1.5-1.5,2.5L129.2,188.2z"/>
		<path class="st1" d="M133.7,182.7c1,2.1,2,3.4,4,3.4h0.3v2h-0.4c-0.8,0-1.4-0.1-1.8-0.4h-0.1c0,0.1,0,0.4,0,0.5
			c0,0.7-0.2,1.6-0.7,2.4c-1.4,2.1-2.9,3-4.3,3c-1.3,0-3-0.5-4.6-1.2l0.2-0.5c0.4,0.2,1.2,0.3,2.1,0.3c2.4,0,5.7-2.4,6-4.6
			c-0.1-0.1-0.2-0.4-0.4-0.7c-0.7-0.9-1.2-1.5-1.5-2.3C133.1,183.8,133.5,183.2,133.7,182.7L133.7,182.7z"/>
		<path class="st1" d="M142,172.4c0.7,0.4,1.5,1,2.2,1.6c-0.4,0.5-0.9,1.1-1.5,1.5c-0.7-0.5-1.4-1.1-2.1-1.5
			C141,173.5,141.5,172.9,142,172.4z M142.4,179.3c-1.2,0-2.2,0.8-2.2,1.4c0,1.3,2.4,1.6,5.2,1.6C145,180.8,143.7,179.3,142.4,179.3
			z M139.6,186c1.5,0,2.9-0.1,3.9-0.3c1.2-0.3,2.1-0.9,2.1-1.3c0-0.1,0-0.2,0-0.3c-0.7,0.1-1.4,0.1-2.1,0.1c-2.1,0-3.7-0.4-4.4-1.6
			c-0.1-0.3-0.2-0.7-0.2-1.1c0-1.2,0.4-2.3,1.3-3c0.7-0.7,1.5-1,2.4-1c1.5,0,2.6,1.2,3.5,3c0.4,1,0.8,2.2,0.8,3.7
			c0,1-0.2,1.8-0.9,2.4c-1.2,1.1-3.2,1.5-6.5,1.5H138c-1,0-1.3-0.7-1.3-1c0-0.4,0.3-1,1.3-1L139.6,186L139.6,186z"/>
	</g>
	<g>
		<path class="st1" d="M118.6,162.1c0-0.4-0.4-1-1-1.3c-1-0.7-2.1-1.3-3-2c-0.5-0.3-1-0.2-1,0.1c-0.1,0.7-0.1,1.4-0.1,2.1
			c0,0.4,0.4,1,1,1.3c1.1,0.7,2.1,1.3,3.2,2c0.5,0.4,1,0.4,1,0C118.6,163.5,118.6,162.7,118.6,162.1z"/>
		<path class="st1" d="M112.7,162.4c0-0.4-0.4-1-1-1.2c-1.1-0.5-2.2-1.1-3.3-1.5c-0.5-0.2-1.1-0.1-1.1,0.2c-0.1,0.7-0.1,1.4-0.2,2.1
			c-0.1,0.4,0.4,0.9,1,1.1c1.2,0.4,2.3,1,3.5,1.6c0.5,0.3,1.1,0.2,1.1-0.1C112.6,163.8,112.6,163.1,112.7,162.4z"/>
		<path class="st1" d="M118.6,166c0-0.4-0.4-1-1-1.3c-1-0.7-2.1-1.3-3.2-2c-0.5-0.3-1-0.2-1,0.1c-0.1,0.7-0.1,1.4-0.1,2.1
			c0,0.4,0.4,1,1,1.3c1.1,0.7,2.2,1.3,3.3,2c0.5,0.4,1,0.4,1,0C118.6,167.4,118.6,166.7,118.6,166z"/>
		<path class="st1" d="M124.4,158.8c0-0.4-0.4-0.4-1-0.1c-1,0.7-2.1,1.3-3,2c-0.4,0.4-1,1-1,1.3c0,0.7,0,1.4,0,2.1
			c0,0.4,0.4,0.4,1,0c1-0.7,2.1-1.3,3.2-2c0.5-0.3,1-0.9,1-1.3C124.5,160.2,124.4,159.6,124.4,158.8z"/>
		<path class="st1" d="M124.6,162.7c0-0.4-0.4-0.4-1-0.1c-1.1,0.7-2.1,1.3-3.2,2c-0.5,0.4-1,1-1,1.3c0,0.7,0,1.4,0,2.1
			c0,0.4,0.4,0.4,1,0c1.1-0.7,2.2-1.3,3.3-2c0.5-0.3,1-0.9,1-1.3C124.6,164.2,124.6,163.5,124.6,162.7z"/>
		<path class="st1" d="M130.7,159.8c-0.1-0.4-0.5-0.4-1.1-0.2c-1.1,0.4-2.2,1-3.3,1.5c-0.5,0.3-1,0.9-1,1.2c0.1,0.7,0.1,1.4,0.1,2.1
			c0,0.4,0.4,0.4,1.1,0.1c1.1-0.5,2.3-1.1,3.5-1.6c0.7-0.2,1-0.8,1-1.1C130.9,161.2,130.8,160.5,130.7,159.8z"/>
		<path class="st3" d="M147.1,147.2c-0.1-0.3-0.7-0.7-1.2-0.5c-1,0.1-2.1,0.2-3.2,0.4c-0.5,0.1-0.9,0.4-0.8,0.8
			c0.1,0.7,0.4,1.4,0.5,2.1c0.1,0.4,0.7,0.5,1.2,0.4c1.1-0.1,2.2-0.3,3.3-0.4c0.5-0.1,1-0.4,0.8-0.7
			C147.5,148.6,147.3,147.9,147.1,147.2z M114,142.6c0-0.4-0.3-1-0.8-1.2c-0.9-0.5-1.7-1.1-2.6-1.5c-0.4-0.2-0.9-0.1-0.9,0.2
			c-0.1,0.7-0.1,1.4-0.2,2.1c-0.1,0.4,0.3,0.9,0.8,1.1c1,0.4,1.8,1,2.7,1.5c0.4,0.3,0.9,0.2,0.9-0.1C113.9,144,114,143.3,114,142.6z
			 M95,151.8c0.1-0.4-0.3-0.7-0.9-0.9c-1.1-0.1-2.2-0.3-3.3-0.4c-0.5-0.1-1.1,0.1-1.3,0.5c-0.2,0.7-0.4,1.3-0.7,2.1
			c-0.1,0.3,0.2,0.7,0.9,0.7c1.1,0.1,2.3,0.3,3.4,0.4c0.5,0.1,1.1-0.1,1.3-0.4C94.6,153.2,94.8,152.4,95,151.8z M96.1,147.9
			c0.1-0.4-0.2-0.7-0.8-0.8c-1-0.1-2.1-0.3-3.2-0.4c-0.5-0.1-1.1,0.2-1.2,0.5c-0.2,0.7-0.4,1.3-0.7,2.1c-0.1,0.3,0.2,0.7,0.8,0.7
			c1.1,0.1,2.2,0.2,3.3,0.4c0.5,0.1,1.1-0.1,1.2-0.4C95.7,149.3,95.9,148.6,96.1,147.9z M97.1,144.1c0.1-0.4-0.2-0.7-0.7-0.8
			c-1-0.1-2-0.3-2.9-0.4c-0.4-0.1-1,0.2-1.2,0.5c-0.2,0.7-0.4,1.3-0.7,2.1c-0.1,0.3,0.2,0.7,0.7,0.7c1,0.1,2.1,0.2,3.2,0.4
			c0.5,0.1,1-0.1,1.2-0.4C96.8,145.5,97,144.8,97.1,144.1z M98.2,140.2c0.1-0.3-0.2-0.7-0.7-0.8c-1-0.1-1.9-0.2-2.8-0.3
			c-0.4,0-1,0.2-1.1,0.5c-0.2,0.7-0.4,1.3-0.7,2.1c-0.1,0.3,0.1,0.7,0.7,0.7c1,0.1,2,0.2,2.9,0.4c0.4,0.1,1-0.1,1.1-0.4
			C97.8,141.7,98,141,98.2,140.2z M99.3,136.4c0.1-0.4-0.1-0.7-0.7-0.8c-1-0.1-1.8-0.2-2.7-0.3c-0.4,0-1,0.2-1,0.5
			c-0.2,0.7-0.4,1.3-0.7,2.1c-0.1,0.3,0.1,0.7,0.7,0.7c1,0.1,1.9,0.1,2.8,0.3c0.4,0.1,1-0.1,1-0.4C98.9,137.8,99,137.1,99.3,136.4z
			 M104.3,137.7c0.1-0.4-0.2-0.8-0.7-1c-0.9-0.3-1.8-0.5-2.6-0.7c-0.4-0.1-1,0.1-1,0.4c-0.1,0.7-0.4,1.4-0.5,2.1
			c-0.1,0.4,0.2,0.7,0.7,0.9c1,0.2,1.9,0.4,2.8,0.8c0.4,0.1,1,0,1-0.4C104,139.2,104.2,138.5,104.3,137.7z M102.6,145.5
			c0.1-0.4-0.3-0.8-0.8-1c-1-0.3-2-0.5-2.9-0.8c-0.4-0.1-1,0.1-1.1,0.4c-0.1,0.7-0.4,1.4-0.5,2.1c-0.1,0.4,0.2,0.7,0.8,0.9
			c1,0.2,2.1,0.5,3.2,0.8c0.5,0.1,1,0,1.1-0.4C102.3,146.9,102.5,146.2,102.6,145.5z M108.2,147.6c0.1-0.4-0.3-0.9-0.8-1.1
			c-1-0.4-2-0.8-2.9-1.2c-0.4-0.1-1,0-1,0.3c-0.1,0.7-0.2,1.4-0.4,2.1c-0.1,0.4,0.3,0.8,0.9,1c1,0.4,2.1,0.8,3,1.2
			c0.5,0.2,1,0.1,1-0.2C108,149.1,108.1,148.4,108.2,147.6z M109.3,139.8c0.1-0.4-0.3-0.9-0.7-1c-0.9-0.4-1.8-0.8-2.6-1.1
			c-0.4-0.1-0.9,0-1,0.3c-0.1,0.7-0.2,1.4-0.4,2.1c-0.1,0.4,0.2,0.8,0.7,1c1,0.3,1.9,0.7,2.7,1.2c0.4,0.2,0.9,0.1,1-0.2
			C109,141.2,109.1,140.5,109.3,139.8z M130.3,155.8c-0.1-0.4-0.5-0.4-1.1-0.2c-1.1,0.4-2.1,1-3.2,1.5c-0.5,0.3-1,0.9-1,1.2
			c0.1,0.7,0.1,1.4,0.1,2.1c0,0.4,0.4,0.4,1,0.1c1.1-0.5,2.2-1.1,3.3-1.5c0.5-0.2,1-0.8,1-1.1C130.4,157.2,130.4,156.5,130.3,155.8z
			 M129.7,151.9c-0.1-0.4-0.4-0.4-1-0.2c-1,0.4-2.1,1-3,1.5c-0.5,0.3-1,0.9-0.9,1.2c0.1,0.7,0.1,1.4,0.1,2.1c0,0.4,0.4,0.4,1,0.1
			c1-0.5,2.1-1.1,3.2-1.5c0.5-0.2,1-0.7,0.9-1.1C129.9,153.3,129.8,152.6,129.7,151.9z M129.3,148c-0.1-0.4-0.4-0.4-1-0.2
			c-1,0.4-2,1-2.9,1.5c-0.4,0.3-0.9,0.8-0.9,1.2c0.1,0.7,0.1,1.4,0.1,2.1c0,0.4,0.4,0.4,1,0.1c1-0.5,2.1-1.1,2.9-1.5
			c0.5-0.2,0.9-0.7,0.9-1.1C129.4,149.4,129.3,148.7,129.3,148z M128.7,144c-0.1-0.4-0.4-0.4-1-0.2c-1,0.4-1.8,1-2.7,1.5
			c-0.4,0.3-0.8,0.8-0.8,1.2c0.1,0.7,0.1,1.4,0.1,2.1c0,0.4,0.4,0.4,1,0.1c1-0.5,1.9-1.1,2.9-1.5c0.4-0.2,0.9-0.7,0.8-1.1
			C128.9,145.4,128.8,144.7,128.7,144z M128.3,140.1c-0.1-0.4-0.4-0.4-0.9-0.2c-0.9,0.4-1.7,1-2.6,1.5c-0.4,0.3-0.8,0.8-0.8,1.2
			c0.1,0.7,0.1,1.4,0.1,2.1c0,0.4,0.4,0.4,0.9,0.1c1-0.5,1.8-1.1,2.7-1.5c0.4-0.2,0.8-0.7,0.8-1.1
			C128.5,141.5,128.4,140.8,128.3,140.1z M133.2,138c-0.1-0.4-0.4-0.5-1-0.3c-0.9,0.3-1.8,0.7-2.6,1.1c-0.4,0.2-0.8,0.7-0.7,1
			c0.1,0.7,0.1,1.4,0.3,2.1c0.1,0.4,0.4,0.4,1,0.2c1-0.4,1.9-0.8,2.7-1.2c0.4-0.1,0.8-0.7,0.7-1C133.5,139.3,133.3,138.7,133.2,138z
			 M136.2,153.5c-0.1-0.4-0.5-0.4-1.1-0.3c-1.1,0.4-2.2,0.8-3.2,1.3c-0.5,0.2-1,0.7-1,1.1c0.1,0.7,0.1,1.4,0.3,2.1
			c0.1,0.4,0.5,0.4,1.1,0.2c1.1-0.4,2.3-0.9,3.4-1.3c0.5-0.1,1-0.7,1-1C136.5,154.9,136.3,154.3,136.2,153.5z M142.3,151.9
			c-0.1-0.4-0.7-0.5-1.2-0.4c-1.1,0.2-2.2,0.5-3.3,0.9c-0.5,0.1-1,0.7-0.9,1c0.1,0.7,0.3,1.4,0.4,2.1c0.1,0.4,0.7,0.4,1.2,0.3
			c1.1-0.3,2.3-0.7,3.4-0.9c0.5-0.1,1-0.5,0.9-0.9C142.6,153.3,142.5,152.6,142.3,151.9z M138.2,136.5c-0.1-0.4-0.5-0.5-1-0.4
			c-0.9,0.2-1.8,0.4-2.6,0.7c-0.4,0.1-0.8,0.5-0.7,1c0.1,0.7,0.3,1.4,0.4,2.1c0.1,0.4,0.5,0.5,1,0.4c1-0.3,1.9-0.5,2.8-0.8
			c0.4-0.1,0.8-0.4,0.7-0.9C138.5,138,138.4,137.3,138.2,136.5z M144.6,139.7c-0.1-0.3-0.7-0.7-1.1-0.5c-1,0.1-1.9,0.1-2.8,0.3
			c-0.4,0.1-0.8,0.4-0.7,0.8c0.1,0.7,0.4,1.4,0.5,2.1c0.1,0.4,0.5,0.5,1.1,0.4c1-0.1,2-0.3,2.9-0.4c0.4-0.1,0.8-0.3,0.7-0.7
			C144.9,141.1,144.7,140.4,144.6,139.7z M145.8,143.5c-0.1-0.3-0.7-0.7-1.2-0.5c-1,0.1-2,0.2-2.9,0.4c-0.4,0.1-0.9,0.4-0.7,0.8
			c0.1,0.7,0.4,1.4,0.5,2.1c0.1,0.4,0.7,0.5,1.2,0.4c1-0.1,2.1-0.3,3.2-0.4c0.5-0.1,0.9-0.4,0.7-0.7
			C146.3,144.9,146,144.2,145.8,143.5z"/>
		<path class="st1" d="M94.8,134.3c-0.1,0.3-0.7,0.7-1,0.7c-1,0-1.8,0.1-2.7,0.1c-0.4,0.1-0.7-0.1-0.5-0.4c0.2-0.7,0.5-1.3,0.8-2
			c0.1-0.3,0.7-0.7,1.1-0.7c0.9-0.1,1.7-0.1,2.6-0.2c0.4,0,0.7,0.2,0.5,0.7C95.3,132.9,95.1,133.5,94.8,134.3z"/>
		<path class="st1" d="M100.3,132.6c0.1-0.4-0.1-0.7-0.7-0.8c-0.9-0.1-1.7-0.2-2.6-0.2c-0.4,0-0.9,0.2-1,0.7
			c-0.2,0.7-0.4,1.3-0.7,2.1c-0.1,0.3,0.1,0.7,0.7,0.7c1,0.1,1.8,0.1,2.6,0.3c0.4,0.1,1-0.1,1-0.4C99.9,134,100.1,133.3,100.3,132.6
			z"/>
		<path class="st1" d="M105.1,133.8c0.1-0.4-0.2-0.8-0.7-1c-0.9-0.2-1.7-0.4-2.5-0.7c-0.4-0.1-0.9,0.1-1,0.4
			c-0.1,0.7-0.4,1.4-0.5,2.1c-0.1,0.4,0.2,0.7,0.7,0.8c0.9,0.2,1.8,0.4,2.6,0.7c0.4,0.1,0.9,0,1-0.4
			C104.8,135.2,104.9,134.6,105.1,133.8z"/>
		<path class="st1" d="M109.7,135.9c0.1-0.4-0.2-0.9-0.7-1c-0.9-0.4-1.6-0.8-2.5-1.1c-0.4-0.1-0.9,0-1,0.4c-0.1,0.7-0.2,1.4-0.4,2.1
			c-0.1,0.4,0.2,0.8,0.7,1c0.9,0.3,1.7,0.7,2.6,1.1c0.4,0.2,0.9,0.1,0.9-0.2C109.5,137.3,109.6,136.5,109.7,135.9z"/>
		<path class="st1" d="M114.3,138.6c0-0.4-0.3-0.9-0.7-1.2c-0.8-0.5-1.6-1-2.4-1.5c-0.4-0.2-0.8-0.1-0.9,0.2
			c-0.1,0.7-0.1,1.4-0.2,2.1c-0.1,0.4,0.3,0.9,0.7,1.1c0.9,0.4,1.7,1,2.6,1.5c0.4,0.3,0.8,0.2,0.9-0.1
			C114.3,140,114.3,139.3,114.3,138.6z"/>
		<path class="st1" d="M118.7,142.2c0-0.4-0.3-1-0.7-1.3c-0.8-0.7-1.5-1.3-2.4-2c-0.4-0.3-0.8-0.2-0.8,0.1c-0.1,0.7-0.1,1.4-0.1,2.1
			c0,0.4,0.3,1,0.7,1.3c0.9,0.7,1.6,1.3,2.5,2c0.4,0.4,0.8,0.4,0.8,0C118.7,143.6,118.7,142.9,118.7,142.2z"/>
		<path class="st1" d="M94.3,136c0.1-0.3-0.1-0.7-0.7-0.7c-1,0-1.8,0.1-2.7,0.1c-0.4,0.1-1,0.4-1.1,0.7c-0.2,0.7-0.5,1.3-0.8,2
			c-0.1,0.3,0.1,0.5,0.7,0.5c1-0.1,1.9-0.1,2.8-0.1c0.4,0,1-0.2,1.1-0.7C93.7,137.3,94,136.7,94.3,136z"/>
		<path class="st1" d="M118.7,146.1c0-0.4-0.3-1-0.8-1.3c-0.9-0.7-1.6-1.3-2.5-2c-0.4-0.3-0.8-0.2-0.8,0.1c-0.1,0.7-0.1,1.4-0.1,2.1
			c0,0.4,0.3,1,0.8,1.3c0.9,0.7,1.8,1.3,2.6,2c0.4,0.4,0.8,0.4,0.8,0C118.7,147.6,118.7,146.9,118.7,146.1z"/>
		<path class="st1" d="M92.9,139.7c0.1-0.3-0.1-0.7-0.7-0.7c-1,0-1.9,0-2.9,0.1c-0.4,0.1-1,0.4-1.1,0.7c-0.2,0.7-0.5,1.3-0.8,2
			c-0.1,0.3,0.1,0.5,0.7,0.5c1-0.1,2-0.1,2.9-0.1c0.4,0,1-0.2,1.2-0.7C92.4,141,92.6,140.4,92.9,139.7z"/>
		<path class="st1" d="M103.4,141.7c0.1-0.4-0.2-0.8-0.7-1c-1-0.3-1.9-0.5-2.8-0.8c-0.4-0.1-1,0.1-1,0.4c-0.1,0.7-0.4,1.4-0.5,2.1
			c-0.1,0.4,0.2,0.7,0.7,0.9c1,0.2,2,0.4,2.9,0.8c0.4,0.1,1,0,1-0.4C103.2,143,103.3,142.3,103.4,141.7z"/>
		<path class="st1" d="M108.7,143.7c0.1-0.4-0.3-0.9-0.8-1c-1-0.4-1.9-0.8-2.8-1.2c-0.4-0.1-1,0-1,0.3c-0.1,0.7-0.2,1.4-0.4,2.1
			c-0.1,0.4,0.3,0.8,0.8,1c1,0.4,2,0.8,2.9,1.2c0.4,0.2,1,0.1,1-0.2C108.4,145.1,108.6,144.4,108.7,143.7z"/>
		<path class="st1" d="M113.7,146.5c0-0.4-0.3-1-0.8-1.2c-1-0.5-1.8-1.1-2.7-1.5c-0.4-0.2-0.9-0.1-1,0.2c-0.1,0.7-0.1,1.4-0.2,2.1
			c-0.1,0.4,0.3,0.9,0.8,1.1c1,0.4,2,1,2.9,1.5c0.4,0.3,0.9,0.2,1-0.1C113.7,147.9,113.7,147.2,113.7,146.5z"/>
		<path class="st1" d="M118.7,150.1c0-0.4-0.4-1-0.8-1.3c-0.9-0.7-1.7-1.3-2.6-2c-0.4-0.3-0.9-0.2-0.9,0.1c-0.1,0.7-0.1,1.4-0.1,2.1
			c0,0.4,0.3,1,0.9,1.3c1,0.7,1.9,1.3,2.7,2c0.4,0.4,0.9,0.4,0.9,0C118.7,151.5,118.7,150.8,118.7,150.1z"/>
		<path class="st1" d="M91.5,143.5c0.1-0.3-0.1-0.7-0.7-0.7c-1,0-2,0-2.9,0.1c-0.4,0-1,0.3-1.2,0.7c-0.2,0.7-0.5,1.3-0.8,2
			c-0.1,0.3,0.1,0.5,0.7,0.5c1-0.1,2.1-0.1,3,0c0.5,0,1-0.2,1.2-0.5C91.1,144.8,91.3,144.1,91.5,143.5z"/>
		<path class="st1" d="M113.5,150.5c0-0.4-0.3-1-0.9-1.2c-1-0.5-1.9-1.1-2.9-1.5c-0.4-0.2-1-0.1-1,0.2c-0.1,0.7-0.1,1.4-0.2,2.1
			c-0.1,0.4,0.3,0.9,0.9,1.1c1,0.4,2.1,1,2.9,1.5c0.4,0.3,1,0.2,1-0.1C113.4,151.9,113.4,151.2,113.5,150.5z"/>
		<path class="st1" d="M118.7,154.1c0-0.4-0.4-1-0.9-1.3c-1-0.7-1.8-1.3-2.7-2c-0.4-0.3-0.9-0.2-1,0.1c-0.1,0.7-0.1,1.4-0.1,2.1
			c0,0.4,0.4,1,0.9,1.3c1,0.7,2,1.3,2.9,2c0.4,0.4,0.9,0.4,0.9,0C118.7,155.5,118.7,154.8,118.7,154.1z"/>
		<path class="st1" d="M90.2,147.2c0.1-0.3-0.2-0.7-0.7-0.7c-1,0-2.1,0-3.2,0c-0.5,0-1.1,0.3-1.2,0.7c-0.2,0.7-0.5,1.3-0.8,2
			c-0.1,0.3,0.1,0.5,0.7,0.5c1.1,0,2.1,0,3.2,0c0.5,0,1.1-0.2,1.3-0.5C89.8,148.5,90,147.9,90.2,147.2z"/>
		<path class="st1" d="M101.9,149.4c0.1-0.4-0.3-0.8-0.9-1c-1-0.3-2.1-0.5-3.2-0.8c-0.5-0.1-1,0.1-1.2,0.4c-0.1,0.7-0.4,1.4-0.5,2.1
			c-0.1,0.4,0.3,0.7,0.9,0.9c1.1,0.2,2.2,0.5,3.3,0.9c0.5,0.1,1.1,0,1.1-0.3C101.5,150.8,101.8,150.1,101.9,149.4z"/>
		<path class="st1" d="M107.6,151.6c0.1-0.4-0.3-0.9-0.9-1.1c-1-0.4-2.1-0.9-3.2-1.2c-0.5-0.1-1,0-1.1,0.3c-0.1,0.7-0.2,1.4-0.4,2.1
			c-0.1,0.4,0.3,0.8,0.9,1c1.1,0.4,2.2,0.8,3.2,1.3c0.5,0.2,1,0.1,1.1-0.2C107.4,153,107.5,152.3,107.6,151.6z"/>
		<path class="st1" d="M113.3,154.5c0-0.4-0.4-1-0.9-1.2c-1-0.5-2.1-1.1-3-1.5c-0.5-0.2-1-0.1-1,0.2c-0.1,0.7-0.1,1.4-0.2,2.1
			c-0.1,0.4,0.4,0.9,0.9,1.1c1.1,0.4,2.1,1,3.2,1.5c0.5,0.3,1,0.2,1-0.1C113.2,155.9,113.2,155.1,113.3,154.5z"/>
		<path class="st1" d="M118.7,158.1c0-0.4-0.4-1-0.9-1.3c-1-0.7-2-1.3-2.9-2c-0.4-0.3-1-0.2-1,0.1c-0.1,0.7-0.1,1.4-0.1,2.1
			c0,0.4,0.4,1,1,1.3c1,0.7,2.1,1.3,3,2c0.4,0.4,1,0.4,1,0C118.7,159.5,118.7,158.8,118.7,158.1z"/>
		<path class="st1" d="M88.9,151c0.1-0.3-0.2-0.7-0.8-0.7c-1.1-0.1-2.2-0.1-3.2,0c-0.5,0-1.1,0.3-1.3,0.7c-0.2,0.7-0.5,1.3-0.8,2
			c-0.1,0.3,0.2,0.7,0.8,0.5c1.1,0,2.2,0,3.4,0.1c0.5,0,1.1-0.2,1.3-0.5C88.4,152.3,88.7,151.6,88.9,151z"/>
		<path class="st1" d="M101.1,153.3c0.1-0.4-0.3-0.8-0.9-1c-1.1-0.3-2.2-0.7-3.3-0.9c-0.5-0.1-1.1,0.1-1.2,0.4
			c-0.1,0.7-0.4,1.4-0.5,2.1c-0.1,0.4,0.3,0.7,0.9,0.9c1.1,0.2,2.3,0.5,3.4,0.9c0.5,0.1,1.1,0,1.2-0.3
			C100.8,154.7,100.9,154,101.1,153.3z"/>
		<path class="st1" d="M107.1,155.5c0.1-0.4-0.4-0.9-1-1.1c-1.1-0.4-2.2-0.9-3.2-1.3c-0.5-0.1-1.1-0.1-1.1,0.3
			c-0.1,0.7-0.2,1.4-0.4,2.1c-0.1,0.4,0.3,0.8,1,1c1.1,0.4,2.3,0.8,3.4,1.3c0.5,0.2,1.1,0.1,1.1-0.2
			C106.9,156.9,107,156.2,107.1,155.5z"/>
		<path class="st1" d="M113,158.4c0-0.4-0.4-1-1-1.2c-1-0.5-2.1-1.1-3.2-1.5c-0.5-0.2-1-0.1-1.1,0.2c-0.1,0.7-0.1,1.4-0.2,2.1
			c-0.1,0.4,0.4,0.9,1,1.1c1.1,0.4,2.2,1,3.3,1.5c0.5,0.3,1,0.2,1-0.1C112.9,159.8,113,159.1,113,158.4z"/>
		<path class="st1" d="M87.6,154.7c0.1-0.3-0.2-0.7-0.8-0.7c-1.1-0.1-2.3-0.1-3.4-0.1c-0.5,0-1.1,0.3-1.3,0.7
			c-0.2,0.7-0.5,1.3-0.8,2c-0.1,0.3,0.2,0.7,0.8,0.7c1.2,0,2.3,0,3.5,0.1c0.7,0.1,1.2-0.1,1.3-0.5C87.1,156,87.3,155.4,87.6,154.7z"
			/>
		<path class="st1" d="M93.9,155.6c0.1-0.4-0.3-0.7-0.9-0.9c-1.2-0.2-2.3-0.4-3.5-0.4c-0.5-0.1-1.2,0.1-1.3,0.5
			c-0.2,0.7-0.4,1.3-0.7,2.1c-0.1,0.3,0.2,0.7,0.9,0.8c1.2,0.1,2.4,0.3,3.5,0.5c0.7,0.1,1.2-0.1,1.3-0.4
			C93.5,157,93.7,156.3,93.9,155.6z"/>
		<path class="st1" d="M100.3,157.2c0.1-0.4-0.3-0.8-1-1c-1.2-0.3-2.3-0.7-3.5-0.9c-0.5-0.1-1.1,0.1-1.3,0.4
			c-0.1,0.7-0.4,1.4-0.5,2.1c-0.1,0.4,0.3,0.7,1,0.9c1.2,0.2,2.4,0.5,3.5,1c0.7,0.1,1.2,0,1.3-0.3
			C100,158.5,100.1,157.9,100.3,157.2z"/>
		<path class="st1" d="M106.5,159.5c0.1-0.4-0.4-0.9-1-1.1c-1.1-0.4-2.3-0.9-3.4-1.3c-0.5-0.1-1.1-0.1-1.2,0.3
			c-0.1,0.7-0.2,1.4-0.4,2.1c-0.1,0.4,0.4,0.8,1,1c1.2,0.4,2.4,0.8,3.5,1.3c0.7,0.2,1.1,0.1,1.2-0.2
			C106.4,160.9,106.5,160.1,106.5,159.5z"/>
		<path class="st1" d="M123.4,141.1c0,0.4-0.3,1-0.7,1.3c-0.9,0.7-1.6,1.3-2.5,2c-0.4,0.4-0.8,0.4-0.8,0c0-0.7,0-1.4,0-2.1
			c0-0.4,0.3-1,0.7-1.3c0.8-0.7,1.5-1.3,2.4-2c0.4-0.3,0.8-0.2,0.8,0.1C123.3,139.7,123.3,140.4,123.4,141.1z"/>
		<path class="st1" d="M127.7,136.1c-0.1-0.4-0.4-0.4-0.9-0.2c-0.9,0.4-1.6,1-2.4,1.5c-0.4,0.3-0.7,0.8-0.7,1.2
			c0.1,0.7,0.1,1.4,0.1,2.1c0,0.4,0.4,0.4,0.9,0.1c0.9-0.5,1.7-1.1,2.6-1.5c0.4-0.2,0.8-0.7,0.7-1.1
			C128,137.6,127.9,136.8,127.7,136.1z"/>
		<path class="st1" d="M132.4,134c-0.1-0.4-0.4-0.5-1-0.4c-0.9,0.3-1.6,0.7-2.5,1.1c-0.4,0.2-0.7,0.7-0.7,1c0.1,0.7,0.1,1.4,0.3,2.1
			c0.1,0.4,0.4,0.4,0.9,0.2c0.9-0.4,1.7-0.8,2.6-1.1c0.4-0.1,0.8-0.7,0.7-1C132.6,135.5,132.6,134.8,132.4,134z"/>
		<path class="st1" d="M137.1,132.7c-0.1-0.4-0.5-0.5-1-0.4c-0.9,0.1-1.7,0.4-2.5,0.7c-0.4,0.1-0.7,0.5-0.7,1
			c0.1,0.7,0.3,1.4,0.4,2.1c0.1,0.4,0.4,0.5,1,0.4c0.9-0.3,1.8-0.5,2.6-0.7c0.4-0.1,0.8-0.4,0.7-0.8
			C137.5,134.2,137.4,133.5,137.1,132.7z"/>
		<path class="st1" d="M142,132.2c-0.1-0.3-0.5-0.7-1-0.7c-0.9,0.1-1.7,0.1-2.6,0.2c-0.4,0.1-0.7,0.4-0.7,0.8
			c0.1,0.7,0.4,1.4,0.5,2.1c0.1,0.4,0.5,0.5,1,0.4c0.9-0.1,1.8-0.2,2.6-0.3c0.4,0,0.7-0.3,0.7-0.7
			C142.4,133.6,142.1,132.9,142,132.2z"/>
		<path class="st1" d="M146.8,132.5c-0.1-0.3-0.7-0.7-1.1-0.7c-0.9-0.1-1.7-0.1-2.6-0.2c-0.4,0-0.7,0.2-0.5,0.7
			c0.2,0.7,0.4,1.3,0.7,2.1c0.1,0.3,0.7,0.7,1,0.7c1,0,1.8,0.1,2.7,0.1c0.4,0.1,0.7-0.1,0.5-0.4
			C147.4,133.8,147.1,133.2,146.8,132.5z"/>
		<path class="st1" d="M123.5,143c0-0.4-0.4-0.4-0.8-0.1c-0.9,0.7-1.7,1.3-2.5,2c-0.4,0.4-0.8,1-0.8,1.3c0,0.7,0,1.4,0,2.1
			c0,0.4,0.4,0.4,0.8,0c0.9-0.7,1.7-1.3,2.6-2c0.4-0.3,0.8-0.9,0.8-1.3C123.5,144.4,123.5,143.7,123.5,143z"/>
		<path class="st1" d="M143.2,136c-0.1-0.3-0.7-0.7-1-0.5c-1,0.1-1.8,0.1-2.7,0.3c-0.4,0.1-0.8,0.4-0.7,0.8c0.1,0.7,0.4,1.4,0.5,2.1
			c0.1,0.4,0.5,0.5,1,0.4c1-0.1,1.9-0.2,2.8-0.3c0.4,0,0.8-0.3,0.7-0.7C143.7,137.3,143.5,136.7,143.2,136z"/>
		<path class="st1" d="M148.3,136.2c-0.1-0.3-0.7-0.7-1.1-0.7c-1-0.1-1.8-0.1-2.7-0.1c-0.4,0-0.7,0.3-0.7,0.7
			c0.2,0.7,0.4,1.3,0.7,2.1c0.1,0.3,0.7,0.7,1.1,0.7c1,0,1.9,0,2.8,0.1c0.4,0.1,0.8-0.1,0.7-0.5
			C148.8,137.5,148.5,136.9,148.3,136.2z"/>
		<path class="st1" d="M123.7,146.9c0-0.4-0.4-0.4-0.9-0.1c-0.9,0.7-1.8,1.3-2.6,2c-0.4,0.4-0.8,1-0.8,1.3c0,0.7,0,1.4,0,2.1
			c0,0.4,0.4,0.4,0.9,0c1-0.7,1.8-1.3,2.7-2c0.4-0.3,0.9-0.9,0.9-1.3C123.7,148.4,123.7,147.6,123.7,146.9z"/>
		<path class="st1" d="M133.9,141.8c-0.1-0.4-0.5-0.5-1-0.3c-1,0.3-1.9,0.7-2.8,1.2c-0.4,0.2-0.8,0.7-0.8,1c0.1,0.7,0.1,1.4,0.3,2.1
			c0.1,0.4,0.4,0.4,1,0.2c1-0.4,2-0.8,2.9-1.2c0.4-0.1,0.9-0.7,0.8-1C134.3,143.2,134.1,142.5,133.9,141.8z"/>
		<path class="st1" d="M139.3,140.4c-0.1-0.4-0.5-0.5-1-0.4c-1,0.2-1.9,0.4-2.8,0.8c-0.4,0.1-0.8,0.5-0.7,1c0.1,0.7,0.3,1.4,0.4,2.1
			c0.1,0.4,0.5,0.5,1,0.4c1-0.3,2-0.5,2.9-0.8c0.4-0.1,0.9-0.4,0.7-0.9C139.6,141.8,139.4,141.1,139.3,140.4z"/>
		<path class="st1" d="M149.8,139.8c-0.1-0.3-0.7-0.7-1.1-0.7c-1-0.1-1.9-0.1-2.9-0.1c-0.4,0-0.8,0.3-0.7,0.7
			c0.2,0.7,0.4,1.3,0.7,2.1c0.1,0.3,0.7,0.7,1.2,0.7c1,0,2,0,2.9,0.1c0.4,0,0.8-0.2,0.7-0.5C150.4,141.2,150.1,140.6,149.8,139.8z"
			/>
		<path class="st1" d="M123.9,150.9c0-0.4-0.4-0.4-1-0.1c-1,0.7-1.9,1.3-2.7,2c-0.4,0.4-0.9,1-0.9,1.3c0,0.7,0,1.4,0,2.1
			c0,0.4,0.4,0.4,0.9,0c1-0.7,1.9-1.3,2.9-2c0.4-0.3,0.9-0.9,0.9-1.3C124,152.3,123.9,151.6,123.9,150.9z"/>
		<path class="st1" d="M134.7,145.7c-0.1-0.4-0.5-0.5-1-0.3c-1,0.4-2,0.8-2.9,1.2c-0.4,0.2-0.9,0.7-0.8,1.1c0.1,0.7,0.1,1.4,0.3,2.1
			c0.1,0.4,0.4,0.4,1,0.2c1-0.4,2.1-0.9,3-1.2c0.5-0.1,0.9-0.7,0.9-1C135,147.1,134.9,146.4,134.7,145.7z"/>
		<path class="st1" d="M140.3,144.3c-0.1-0.4-0.5-0.5-1.1-0.4c-1,0.2-2,0.4-2.9,0.8c-0.4,0.1-0.9,0.5-0.8,1c0.1,0.7,0.3,1.4,0.4,2.1
			c0.1,0.4,0.5,0.5,1.1,0.4c1-0.3,2.1-0.5,3.2-0.8c0.5-0.1,0.9-0.4,0.8-0.9C140.7,145.7,140.4,144.9,140.3,144.3z"/>
		<path class="st1" d="M151.3,143.5c-0.1-0.3-0.7-0.7-1.2-0.7c-1-0.1-2-0.1-2.9-0.1c-0.4,0-0.8,0.3-0.7,0.7c0.2,0.7,0.4,1.3,0.7,2.1
			c0.1,0.3,0.7,0.7,1.2,0.5c1,0,2.1,0,3,0c0.5,0,0.9-0.2,0.7-0.5C151.9,144.9,151.6,144.3,151.3,143.5z"/>
		<path class="st1" d="M124.2,154.9c0-0.4-0.4-0.4-1-0.1c-1,0.7-2,1.3-2.9,2c-0.4,0.4-0.9,1-0.9,1.3c0,0.7,0,1.4,0,2.1
			c0,0.4,0.4,0.4,1,0c1-0.7,2-1.3,3-2c0.5-0.3,1-0.9,1-1.3C124.3,156.3,124.2,155.6,124.2,154.9z"/>
		<path class="st1" d="M135.5,149.6c-0.1-0.4-0.5-0.4-1.1-0.3c-1,0.4-2.1,0.8-3.2,1.2c-0.5,0.2-1,0.7-0.9,1.1
			c0.1,0.7,0.1,1.4,0.3,2.1c0.1,0.4,0.5,0.4,1.1,0.2c1.1-0.4,2.1-0.9,3.2-1.3c0.5-0.1,1-0.7,0.9-1
			C135.7,151,135.7,150.4,135.5,149.6z"/>
		<path class="st1" d="M141.2,148.1c-0.1-0.4-0.7-0.5-1.2-0.4c-1,0.2-2.1,0.5-3.2,0.8c-0.5,0.1-0.9,0.5-0.9,1
			c0.1,0.7,0.3,1.4,0.4,2.1c0.1,0.4,0.5,0.4,1.1,0.3c1.1-0.3,2.2-0.7,3.3-0.9c0.5-0.1,1-0.4,0.9-0.9
			C141.7,149.5,141.4,148.7,141.2,148.1z"/>
		<path class="st1" d="M152.9,147.2c-0.1-0.3-0.7-0.7-1.2-0.7c-1-0.1-2.1-0.1-3.2,0c-0.5,0-0.9,0.3-0.7,0.7c0.2,0.7,0.4,1.3,0.7,2.1
			c0.1,0.3,0.7,0.7,1.3,0.5c1.1-0.1,2.1-0.1,3.2,0c0.5,0,0.9-0.2,0.7-0.5C153.4,148.5,153.2,147.9,152.9,147.2z"/>
		<path class="st1" d="M148.4,151c-0.1-0.3-0.7-0.7-1.3-0.5c-1.1,0.1-2.2,0.2-3.3,0.4c-0.5,0.1-1,0.4-0.9,0.9
			c0.1,0.7,0.4,1.4,0.5,2.1c0.1,0.4,0.7,0.5,1.3,0.4c1.1-0.2,2.3-0.4,3.4-0.4c0.5-0.1,1-0.4,0.9-0.7
			C148.8,152.4,148.6,151.7,148.4,151z"/>
		<path class="st1" d="M154.4,150.9c-0.1-0.3-0.7-0.7-1.3-0.7c-1.1,0-2.1,0-3.2,0c-0.5,0-1,0.3-0.8,0.7c0.2,0.7,0.4,1.3,0.7,2.1
			c0.1,0.3,0.7,0.5,1.3,0.5c1.1-0.1,2.3-0.1,3.4-0.1c0.5,0,1-0.2,0.8-0.5C154.9,152.2,154.6,151.5,154.4,150.9z"/>
		<path class="st1" d="M137,157.4c-0.1-0.4-0.7-0.4-1.2-0.3c-1.1,0.4-2.3,0.8-3.4,1.3c-0.5,0.2-1,0.7-1,1.1c0.1,0.7,0.1,1.4,0.3,2.1
			c0.1,0.4,0.5,0.4,1.2,0.2c1.2-0.4,2.4-0.9,3.5-1.3c0.7-0.2,1-0.7,1-1C137.3,158.8,137.1,158.2,137,157.4z"/>
		<path class="st1" d="M143.4,155.7c-0.1-0.4-0.7-0.5-1.3-0.4c-1.2,0.2-2.3,0.5-3.5,0.9c-0.5,0.1-1,0.7-1,1c0.1,0.7,0.3,1.4,0.4,2.1
			c0.1,0.4,0.7,0.4,1.3,0.3c1.2-0.3,2.4-0.7,3.5-1c0.7-0.1,1-0.5,1-0.9C143.7,157.1,143.5,156.4,143.4,155.7z"/>
		<path class="st1" d="M149.7,154.7c-0.1-0.3-0.7-0.5-1.3-0.5c-1.1,0.1-2.3,0.3-3.5,0.4c-0.5,0.1-1,0.4-0.9,0.9
			c0.1,0.7,0.4,1.4,0.5,2.1c0.1,0.4,0.7,0.5,1.3,0.4c1.2-0.2,2.4-0.4,3.5-0.5c0.7-0.1,1-0.4,0.9-0.8
			C150.1,156.1,149.9,155.4,149.7,154.7z"/>
		<path class="st1" d="M155.9,154.6c-0.1-0.3-0.7-0.7-1.3-0.7c-1.1,0-2.2,0-3.4,0.1c-0.5,0-1,0.4-0.8,0.7c0.2,0.7,0.4,1.3,0.7,2.1
			c0.1,0.3,0.7,0.5,1.3,0.5c1.2-0.1,2.4-0.1,3.5-0.1c0.5,0,1-0.2,0.8-0.7C156.5,155.9,156.2,155.1,155.9,154.6z"/>
	</g>
</g>
<path class="st4" d="M360.5,115.7H13c-4.2,0-7.5-3.3-7.5-7.5V51.6c0-4.2,3.3-7.5,7.5-7.5h347.6c4.2,0,7.5,3.3,7.5,7.5v56.7
	C368,112.4,364.7,115.7,360.5,115.7z"/>
<g>
	<g>
		<g>
			<g>
				<path class="st5" d="M194.1,101.5H38.3c-2.8,0-5.3-2.4-5.3-5.3V62.3c0-2.8,2.4-5.3,5.3-5.3h155.8c2.8,0,5.3,2.4,5.3,5.3v33.8
					C199.5,99,197.1,101.5,194.1,101.5z"/>
				<path class="st1" d="M194.1,102.5H38.3c-3.5,0-6.6-2.9-6.6-6.6V62.2c0-3.5,2.9-6.6,6.6-6.6h155.8c3.5,0,6.6,2.9,6.6,6.6V96
					C200.6,99.7,197.8,102.5,194.1,102.5z M38.3,58.2c-2.2,0-4.1,1.9-4.1,4.1v33.8c0,2.2,1.9,4.1,4.1,4.1h155.8
					c2.2,0,4.1-1.9,4.1-4.1V62.3c0-2.2-1.9-4.1-4.1-4.1H38.3z"/>
			</g>
		</g>
	</g>
	<g>
		<path class="st6" d="M63.2,88c-0.4,0.2-0.9,0.4-1.3,0.6c-0.6,0.2-1.3,0.2-2,0.4c-0.6,0-1.5,0.2-2.2,0.2H47.4
			c-2.4,0-4.1-0.6-5.3-1.9c-1.3-1.3-1.9-3.1-1.9-5.6v-3.1V78h0.6h2.8h0.6v0.6v3.1c0,1.3,0.2,2,0.9,2.6c0.6,0.6,1.5,0.9,2.6,0.9h11
			c-0.6-0.9-0.9-2-0.9-3.3c0-0.9,0.2-1.7,0.4-2.4c0.2-0.6,0.6-1.3,1.3-2c1.3-1.1,2.6-1.7,4.3-1.7c1.7,0,3.1,0.6,4.3,1.7
			c0.6,0.6,0.9,1.3,1.3,2c0.2,0.6,0.4,1.7,0.4,2.4c0,1.3-0.2,2.4-0.9,3.3h2.4c0.2,0,0.2,0,0.4,0c0.2,0,0.2,0.2,0.2,0.2
			c0,0.2,0.2,0.2,0.2,0.2s0,0.2,0,0.4s0,0.2,0,0.2v0.2c0,0,0,0,0,0.2v0.2c0,0,0,0,0,0.2s0,0.2,0,0.4c0,0,0,0.2,0,0.4
			c0,0.2,0,0.2,0,0.4c0,0,0,0.2-0.2,0.2c0,0.2-0.2,0.2-0.2,0.2c-0.2,0-0.2,0-0.4,0H69C66.6,89,64.9,88.5,63.2,88z M60.8,70.3
			l1.3-1.3c0.4-0.4,0.9-0.6,1.3,0l1.7,1.5c0.4,0.4,0.4,0.9,0,1.3L63.8,73c-0.4,0.4-0.9,0.4-1.3,0L61,71.4
			C60.3,71.2,60.3,70.7,60.8,70.3z M60.8,81.9c0,0.6,0.2,1.1,0.6,1.7c0.4,0.4,0.9,0.6,1.7,0.6c0.9,0,1.3-0.2,1.7-0.6
			c0.4-0.4,0.6-0.9,0.6-1.7c0-0.8-0.2-1.1-0.6-1.7c-0.2-0.2-0.4-0.4-0.6-0.6s-0.6-0.2-0.9-0.2c-0.2,0-0.6,0-0.9,0.2
			c-0.2,0.2-0.6,0.2-0.6,0.6c-0.2,0.2-0.4,0.4-0.6,0.6c0,0.2,0,0.2-0.2,0.4C60.8,81.6,60.8,81.6,60.8,81.9z"/>
		<path class="st6" d="M84.1,89h-0.2c-2,0-3.6-0.6-4.8-1.7C77.8,88.7,76,89,73.5,89h-2.8c-0.4,0-0.8-0.2-0.9-0.6
			c-0.2-0.2-0.2-0.8-0.2-1.3V87c0-0.6,0-0.9,0.2-1.3c0.2-0.6,0.6-0.6,1.1-0.6h2.8c0.8,0,1.5,0,2-0.2c0.6-0.2,0.9-0.4,1.1-0.8
			C77,84,77,83.4,77,82.9v-4v-0.4h0.6h2.8H81v0.6v4.1c0,0.9,0.2,1.5,0.6,1.9s1.3,0.6,2.2,0.6H84c0.2,0,0.4,0,0.6,0.2
			s0.2,0.2,0.2,0.4c0.2,0.2,0,0.4,0,0.6s0,0.2,0,0.6c0,0,0,0,0,0.2v0.2c0,0,0,0,0,0.2s0,0.2,0,0.2v0.2v0.2c0,0,0,0.2-0.2,0.2
			c0,0.2-0.2,0.2-0.2,0.2L84.1,89C84.4,89,84.2,89,84.1,89z M70.8,93.5l1.3-1.3c0.4-0.4,0.9-0.4,1.3,0l1.5,1.5
			c0.4,0.4,0.4,0.9,0,1.3l-1.3,1.3c-0.4,0.4-0.9,0.4-1.3,0l-1.5-1.5C70.2,94.4,70.2,94.1,70.8,93.5z M76.3,93.5l1.3-1.3
			c0.4-0.4,0.9-0.4,1.3,0l1.5,1.5c0.4,0.4,0.4,0.9,0,1.3L79,96.3c-0.4,0.4-0.9,0.4-1.3,0L76,94.8C75.7,94.4,76,94.1,76.3,93.5z"/>
		<path class="st6" d="M100,89h-2c-0.9,0-2-0.2-2.8-0.2s-1.7-0.4-2.6-0.9c-1.7,0.8-3.6,1.3-5.6,1.3h-2.8c-0.4,0-0.8-0.2-0.9-0.6
			c-0.2-0.2-0.2-0.8-0.2-1.3v-0.2c0-0.6,0.2-0.9,0.2-1.3c0.2-0.2,0.6-0.6,0.9-0.6h3.5c-0.6-0.9-0.9-2-0.9-3.3c0-1.7,0.6-3.1,1.7-4.3
			c1.3-1.1,2.6-1.7,4.3-1.7c1.7,0,3.1,0.6,4.3,1.7c0.2,0.2,0.6,0.6,0.6,0.9c0.2,0.4,0.4,0.6,0.6,0.9c0.2,0.2,0.2,0.6,0.2,1.1
			s0.2,0.8,0.2,1.3c0,0.6,0,1.3-0.2,1.7c-0.2,0.6-0.4,1.1-0.6,1.7h2.4c0.2,0,0.2,0,0.4,0c0.2,0,0.2,0.2,0.2,0.2
			c0,0.2,0.2,0.2,0.2,0.2s0,0.2,0,0.4s0,0.2,0,0.2v0.2c0,0,0,0,0,0.2v0.2c0,0,0,0,0,0.2s0,0.2,0,0.2v0.2c0,0.2,0,0.2,0,0.2v0.2
			c0,0.2,0,0.2-0.2,0.2l-0.2,0.2l-0.2,0.2C100.2,89,100,89,100,89z M90.1,70.3l1.3-1.3c0.4-0.4,0.9-0.6,1.3,0l1.7,1.5
			c0.4,0.4,0.4,0.9,0,1.3L93,73c-0.4,0.4-0.9,0.4-1.3,0l-1.5-1.7C89.8,71.2,89.8,70.7,90.1,70.3z M90.1,81.9c0,0.6,0.2,1.1,0.6,1.7
			c0.6,0.6,0.9,0.6,1.7,0.6s1.3-0.2,1.7-0.6c0.4-0.4,0.6-0.9,0.6-1.7c0-0.8-0.2-1.1-0.6-1.7c-0.2-0.2-0.4-0.4-0.6-0.6
			s-0.6-0.2-0.9-0.2c-0.2,0-0.6,0-0.9,0.2c-0.2,0.2-0.6,0.2-0.6,0.6l-0.2,0.2l-0.2,0.2c0,0,0,0.2-0.2,0.2V81v0.2
			C90.1,81.6,90.1,81.6,90.1,81.9z"/>
		<path class="st6" d="M113.6,86.3l-1.3,0.6c-2.4,1.3-4.8,1.9-7.6,1.9H100c-0.4,0-0.8-0.2-0.9-0.6S99,87.4,99,86.9v-0.2
			c0-0.6,0-0.9,0.2-1.3c0.2-0.6,0.6-0.6,1.1-0.6h4.6c1.1,0,2-0.2,3.1-0.2c0.9-0.2,1.9-0.6,2.8-0.9l3.5-1.7l-2-1.3
			c-1.3-0.6-2.4-1.1-3.6-1.1c-1.1,0-2,0.4-3.3,1.3l-1.1,0.9l-0.4,0.2l-0.2-0.4l-1.7-2l-0.4-0.4L102,79l0.9-0.8
			c1.7-1.3,3.5-2.2,5.3-2.4c1.7-0.2,3.6,0.2,5.6,1.3l2.8,1.7c0.2,0.2,0.6,0.2,0.9,0.6c0.2,0.2,0.6,0.2,0.9,0.2
			c0.2,0,0.6,0.2,0.8,0.2h0.4v0.4V83v0.2l-0.2,0.2l-1.7,0.9c0.6,0.2,1.3,0.6,2,0.6h1.9c0.2,0,0.4,0,0.6,0.2s0.2,0.2,0.2,0.4
			c0,0.3,0,0.4,0,0.6s0,0.2,0,0.6c0,0,0,0,0,0.2v0.2c0,0.4,0,0.9-0.2,1.1c-0.2,0.4-0.4,0.6-0.8,0.6h-1.7c-1.1,0-2-0.2-3.1-0.6
			C114.9,88,114,87.2,113.6,86.3z M106.5,70l1.3-1.3c0.4-0.4,0.9-0.6,1.3,0l1.7,1.5c0.4,0.4,0.4,0.9,0,1.3l-1.3,1.3
			c-0.4,0.4-0.9,0.4-1.3,0l-1.5-1.7C105.9,70.7,105.9,70.3,106.5,70z"/>
		<path class="st6" d="M120.6,89c-0.4,0-0.8-0.2-0.9-0.6c-0.2-0.2-0.2-0.8-0.2-1.3V87c0-0.6,0.2-0.9,0.2-1.3
			c0.2-0.2,0.6-0.6,0.9-0.6h3.6c0.9,0,1.7-0.2,2-0.6c0.4-0.4,0.6-0.9,0.6-1.9v-4.4v-0.6h0.6h2.6h0.6v0.6v4.4c0,2-0.6,3.6-1.7,4.6
			s-2.6,1.7-4.6,1.7L120.6,89L120.6,89L120.6,89z M121.2,71.6l1.3-1.3c0.4-0.4,0.9-0.4,1.3,0l1.5,1.5c0.4,0.4,0.4,0.9,0,1.3
			l-1.3,1.3c-0.4,0.4-0.9,0.4-1.3,0l-1.5-1.5C120.8,72.5,120.8,72.2,121.2,71.6z M126.7,71.6l1.3-1.3c0.4-0.4,0.9-0.4,1.3,0l1.5,1.5
			c0.4,0.4,0.4,0.9,0,1.3l-1.3,1.3c-0.4,0.4-0.9,0.4-1.3,0l-1.7-1.5C126.4,72.5,126.4,72.2,126.7,71.6z"/>
		<path class="st6" d="M137.6,70.3c0-0.9,0.2-1.7,1.1-2.2c0.6-0.6,1.5-0.9,2.4-0.9s1.7,0.2,2.4,0.9c0.2,0.2,0.2,0.2,0.4,0.4
			c0.3,0.3,0.2,0.4,0.2,0.6c0.2,0.2,0.2,0.4,0.2,0.6c0.2,0.2,0.2,0.4,0.2,0.6s0,0.6-0.2,0.8c0,0.2-0.2,0.2-0.2,0.2
			c0,0.2-0.2,0.2-0.2,0.2c-0.2,0.2-0.2,0.2-0.2,0.2c-0.2,0.2-0.2,0.4-0.6,0.6c-0.6,0.6-1.5,0.9-2.4,0.9s-1.7-0.2-2.4-0.9
			c-0.2-0.2-0.6-0.6-0.8-1.1C137.6,71.2,137.6,70.9,137.6,70.3z M150.9,66.3l2.8,1.5l0.6,0.2l-12.5,21.9l-0.6-0.2l-2.6-1.5L138,88
			l12.5-21.7C150.3,66.3,150.9,66.3,150.9,66.3z M148.3,84.5L148.3,84.5L148.3,84.5v-0.2v-0.2v-0.2v-0.2c0-0.2,0-0.2,0.2-0.2
			c0-0.2,0-0.2,0-0.2v-0.2c0-0.2,0.2-0.2,0.2-0.2l0.2-0.2c0-0.2,0-0.2,0.2-0.2c0.2-0.2,0.2-0.2,0.2-0.2l0.2-0.2l0.2-0.2l0.2-0.2
			l0.2-0.2c0.2-0.2,0.2-0.2,0.2-0.2c0.6-0.6,1.5-0.9,2.4-0.9c0.2,0,0.6,0.2,0.8,0.2s0.2,0.2,0.4,0.2s0.2,0.2,0.2,0.2s0.2,0,0.2,0.2
			c0.2,0,0.2,0.2,0.2,0.2c0.2,0.2,0.4,0.2,0.6,0.6c0.6,0.6,1.1,1.5,1.1,2.2s-0.2,1.7-1.1,2.2c-0.2,0.2-0.6,0.6-1.1,0.6
			c-0.4,0.2-0.8,0.2-1.3,0.2c-0.9,0-1.7-0.2-2.4-0.9C148.8,86.2,148.3,85.2,148.3,84.5z"/>
	</g>
	<g>
		<path class="st6" d="M171.9,78.8c-0.8,0-1.5-0.1-2.3-0.3c-0.8-0.1-1.5-0.4-2.2-0.8c0.1,1.2,0.3,2.3,0.3,3.4s0.1,2.2,0.2,3.1
			c0.1,1,0.1,2,0.1,3s0,1.9,0,2.9h-5c0-2.2-0.1-4.4-0.1-6.5c-0.1-2.2-0.3-4.2-0.6-6.2s-0.7-3.8-1.2-5.6c-0.6-1.7-1.2-3.3-2.2-4.7
			l4.3-2.7c0.4,0.6,0.7,1.1,1,1.7c0.3,0.5,0.6,1,0.8,1.5c0.4-0.6,0.9-1.1,1.4-1.5c0.6-0.4,1.1-0.8,1.7-1c0.6-0.3,1.2-0.5,1.9-0.6
			s1.3-0.2,2-0.2c0.5,0,0.9,0.1,1.4,0.1c0.5,0.1,0.9,0.2,1.4,0.4c0.5,0.2,0.9,0.4,1.4,0.7c0.5,0.3,0.9,0.6,1.4,1l-2.6,4.2
			c0,0-0.1-0.1-0.3-0.2s-0.4-0.3-0.8-0.4c-0.4-0.1-0.8-0.3-1.2-0.4c-0.5-0.1-1-0.2-1.5-0.2s-0.9,0.1-1.4,0.3
			c-0.5,0.2-0.9,0.4-1.3,0.7c-0.4,0.3-0.7,0.6-0.9,0.9s-0.3,0.6-0.3,0.9l0,0c0.1,0.4,0.3,0.6,0.6,0.9s0.7,0.4,1.2,0.5
			s0.9,0.3,1.3,0.3c0.5,0.1,0.9,0.1,1.3,0.1c0.4,0,0.8,0,1.2-0.1s0.9-0.1,1.3-0.3c0.4-0.1,0.9-0.3,1.3-0.4c0.4-0.2,0.9-0.4,1.2-0.6
			l2.1,4c-1.3,0.9-2.6,1.6-3.8,1.9C174.2,78.6,173,78.8,171.9,78.8z"/>
		<path class="st6" d="M179.7,80.3c0-0.9,0.2-1.6,0.5-2.4s0.8-1.4,1.3-2c0.6-0.6,1.2-1,1.9-1.3s1.5-0.5,2.4-0.5s1.6,0.2,2.4,0.5
			c0.8,0.3,1.4,0.8,2,1.3c0.6,0.6,1,1.2,1.3,2s0.5,1.5,0.5,2.4s-0.2,1.7-0.5,2.4s-0.8,1.3-1.3,1.9c-0.6,0.6-1.2,1-2,1.3
			s-1.5,0.5-2.4,0.5s-1.7-0.2-2.4-0.5s-1.3-0.8-1.9-1.3c-0.6-0.6-1-1.2-1.3-1.9S179.7,81.2,179.7,80.3z M183.4,80.3
			c0,0.3,0.1,0.7,0.2,0.9c0.1,0.3,0.3,0.6,0.5,0.8c0.3,0.3,0.5,0.4,0.8,0.5s0.6,0.2,0.9,0.2c0.3,0,0.7-0.1,0.9-0.2
			c0.3-0.1,0.6-0.3,0.8-0.5c0.3-0.3,0.4-0.5,0.6-0.8c0.1-0.3,0.2-0.6,0.2-0.9s-0.1-0.7-0.2-0.9c-0.1-0.3-0.3-0.6-0.6-0.8
			c-0.3-0.3-0.5-0.4-0.8-0.6c-0.3-0.1-0.6-0.2-0.9-0.2c-0.3,0-0.7,0.1-0.9,0.2c-0.3,0.1-0.6,0.3-0.8,0.6c-0.3,0.3-0.4,0.5-0.5,0.8
			S183.4,80,183.4,80.3z"/>
	</g>
</g>
<g>
	<g class="st7">
		<g>
			<path d="M35.1,15.4c0.1,0.3,0.3,0.6,0.4,0.9c0.2,0.4,0.3,0.8,0.5,1.2c0.2,0.4,0.3,0.9,0.5,1.4c0.1,0.5,0.3,1,0.4,1.5
				c0.1,0.5,0.1,1,0.1,1.5c0,0.8-0.1,1.5-0.4,2.2c-0.2,0.7-0.6,1.3-1,1.8s-1,0.9-1.6,1.2c-0.6,0.3-1.4,0.4-2.2,0.4
				c-0.7,0-1.3-0.1-1.8-0.4c-0.5-0.2-0.9-0.6-1.2-1c-0.2,0.2-0.3,0.4-0.5,0.6s-0.4,0.3-0.7,0.4c-0.3,0.1-0.6,0.2-0.9,0.3
				c-0.3,0.1-0.8,0.1-1.2,0.1c-0.3,0-0.6,0-0.9-0.1c-0.3,0-0.5-0.1-0.8-0.2c0,0.9-0.1,1.8-0.4,2.6c-0.3,0.8-0.7,1.5-1.1,2.1
				c-0.5,0.6-1,1.1-1.7,1.6c-0.6,0.4-1.3,0.8-2.1,1.1c-0.7,0.3-1.5,0.5-2.3,0.7c-0.8,0.1-1.6,0.2-2.4,0.2c-1.2,0-2.4-0.2-3.4-0.6
				c-1-0.4-1.9-1-2.7-1.7s-1.3-1.6-1.8-2.6c-0.4-1-0.6-2.2-0.6-3.4c0-0.7,0.1-1.5,0.3-2.2c0.2-0.8,0.4-1.5,0.7-2.2
				c0.3-0.7,0.6-1.4,0.9-2.1s0.7-1.2,1-1.8l2.6,2c-0.3,0.5-0.6,1-0.8,1.5c-0.3,0.5-0.5,1.1-0.7,1.6s-0.4,1.1-0.5,1.6
				s-0.2,1.1-0.2,1.6c0,0.6,0.1,1.2,0.4,1.7c0.3,0.5,0.6,1,1.1,1.4s1,0.7,1.7,1c0.6,0.2,1.3,0.3,2.1,0.3s1.6-0.1,2.3-0.2
				c0.7-0.2,1.3-0.4,1.9-0.6c0.5-0.3,1-0.6,1.4-1s0.6-0.8,0.8-1.3l0,0c0.2-0.6,0.3-1.3,0.3-2c0-0.5-0.1-1.1-0.2-1.6
				s-0.3-1.1-0.6-1.7c-0.2-0.6-0.5-1.1-0.8-1.7s-0.6-1.1-0.9-1.7l3.3-1.8c0.2,0.5,0.4,0.9,0.6,1.4s0.4,0.9,0.6,1.4
				c0.2,0.4,0.4,0.8,0.7,1.2c0.2,0.4,0.5,0.7,0.7,1s0.5,0.5,0.7,0.6c0.3,0.1,0.5,0.2,0.8,0.1c0.3,0,0.6-0.2,0.8-0.4
				c0.2-0.2,0.4-0.4,0.5-0.7c0.1-0.3,0.2-0.6,0.2-0.9s0-0.7,0-1.1s0-0.7-0.1-1.1c0-0.4-0.1-0.7-0.1-1l3.3-0.4
				c0.1,0.2,0.1,0.5,0.1,0.9c0,0.3,0.1,0.7,0.1,1.1c0.1,0.4,0.1,0.8,0.2,1.2c0.1,0.4,0.2,0.8,0.3,1.1c0.1,0.3,0.3,0.6,0.5,0.9
				c0.2,0.2,0.5,0.4,0.8,0.5c0.2,0,0.5,0,0.7-0.1s0.4-0.2,0.6-0.4c0.2-0.2,0.3-0.4,0.4-0.7c0.1-0.3,0.1-0.6,0.1-0.9s-0.1-0.6-0.2-1
				c-0.1-0.4-0.3-0.8-0.4-1.2c-0.2-0.4-0.4-0.9-0.6-1.4c-0.2-0.5-0.5-1-0.8-1.5l3.1-1.7C34.8,15,34.9,15.2,35.1,15.4z"/>
			<path d="M44.5,20.4c0.2,0.6,0.4,1.2,0.5,1.8c0.2,0.6,0.3,1.2,0.4,1.8c0.1,0.6,0.2,1.2,0.2,1.7c0,0.8-0.1,1.5-0.3,2.2
				s-0.5,1.4-0.9,2.1s-0.8,1.3-1.3,1.9s-1.1,1.2-1.7,1.7c-0.6,0.5-1.3,1.1-2,1.5c-0.7,0.5-1.4,0.9-2.2,1.3l-2.2-3
				c0.6-0.3,1.2-0.6,1.7-1s1.2-0.8,1.7-1.2c0.5-0.4,1-0.9,1.5-1.3c0.5-0.5,0.9-0.9,1.2-1.4s0.6-0.9,0.8-1.4s0.3-1,0.3-1.4
				c0-0.3,0-0.7-0.1-1.1s-0.2-0.8-0.4-1.3s-0.3-0.9-0.6-1.4c-0.2-0.5-0.4-1-0.7-1.6l3.5-1.6C44.2,19.2,44.4,19.8,44.5,20.4z"/>
			<path d="M49.2,22.6c0.5,0.2,0.9,0.4,1.4,0.6s0.9,0.3,1.4,0.4s0.8,0.2,1.2,0.2c0.2,0,0.4,0,0.8,0c0.3,0,0.6-0.1,1-0.2
				c0.3-0.1,0.6-0.2,0.8-0.4c0.2-0.2,0.4-0.4,0.4-0.7c0-0.3-0.1-0.7-0.3-1.1s-0.5-0.8-0.8-1.2c-0.3-0.4-0.7-0.9-1.2-1.3
				c-0.4-0.4-0.9-0.9-1.3-1.3c-0.5-0.4-0.9-0.8-1.4-1.1c-0.5-0.3-0.9-0.6-1.3-0.9l2.1-3.2c0.8,0.5,1.5,1.2,2.3,1.8
				c0.8,0.7,1.5,1.4,2.1,2.1c0.6,0.8,1.2,1.5,1.7,2.3s0.8,1.6,1,2.4c0.1,0.2,0.1,0.5,0.1,0.7s0,0.5,0,0.7c0,0.7-0.1,1.4-0.4,2
				c-0.3,0.6-0.7,1.2-1.2,1.6c-0.5,0.5-1.1,0.8-1.9,1c-0.7,0.2-1.5,0.4-2.4,0.4c-0.1,0-0.1,0-0.2,0c-0.1,0-0.1,0-0.2,0
				c-0.6,0-1.1-0.1-1.7-0.2c-0.6-0.1-1.2-0.3-1.7-0.5c-0.6-0.2-1.1-0.4-1.6-0.7c-0.5-0.3-1-0.5-1.5-0.8l1.6-3.6
				C48.3,22.2,48.7,22.4,49.2,22.6z"/>
			<path d="M61.4,25.5c0-0.7,0.1-1.4,0.1-2.1s0-1.4,0.1-2c0-0.6,0-1.2,0-1.8c0-1.1-0.1-2.1-0.1-3s-0.1-1.6-0.1-2.3s-0.1-1.2-0.1-1.7
				s-0.1-1-0.1-1.4S61.1,10.4,61,10s-0.1-0.7-0.2-1.1l3.7-1.2c0.2,1.1,0.3,2.1,0.4,3.2s0.2,2.1,0.2,3.1c0.1,1,0.1,1.9,0.1,2.8
				s0,1.6,0,2.2s0,1.1,0,1.8c0,0.6,0,1.3,0,2s0,1.4-0.1,2.1c0,0.7-0.1,1.4-0.1,2.1l-3.7,0.6C61.4,26.9,61.4,26.2,61.4,25.5z"/>
			<path d="M75.8,27.5c-0.2,0-0.4,0-0.7,0c-0.3,0-0.6-0.1-1-0.3c-0.2,1-0.5,1.9-1,2.8s-1.1,1.7-1.8,2.5c-0.7,0.8-1.5,1.5-2.4,2.2
				S67,36,66,36.5l-2.2-3c0.6-0.3,1.1-0.6,1.7-0.9c0.6-0.3,1.1-0.7,1.6-1.1s1-0.8,1.5-1.2c0.5-0.4,0.8-0.8,1.2-1.3
				c0.3-0.4,0.6-0.9,0.8-1.3c0.2-0.5,0.3-0.9,0.3-1.4c0-0.3-0.1-0.7-0.2-1.2s-0.3-1-0.5-1.5c-0.2-0.6-0.4-1.1-0.6-1.7
				s-0.4-1.1-0.6-1.5l3.5-1.5c0.3,1,0.6,1.8,0.9,2.4s0.6,1.2,0.8,1.5c0.3,0.4,0.5,0.7,0.8,0.8c0.3,0.2,0.5,0.2,0.7,0.2H76v3.8
				L75.8,27.5L75.8,27.5z"/>
			<path d="M86.9,23.7v3.8H75.6v-3.8H86.9z"/>
			<path d="M86.9,23.7c0.3,0,0.7,0,1.1,0s0.9,0,1.3,0c0.5,0,1,0,1.5-0.1c0.5,0,1-0.1,1.4-0.2c0.5-0.1,0.9-0.2,1.2-0.3
				c0.4-0.1,0.7-0.3,0.9-0.4c-1,0.1-2,0.1-2.9,0.1s-1.6-0.2-2.3-0.5C88.5,22,88,21.6,87.7,21c-0.4-0.6-0.5-1.3-0.5-2.3
				c0-0.4,0-0.9,0.1-1.4s0.2-0.9,0.4-1.4c0.2-0.5,0.4-0.9,0.7-1.3c0.3-0.4,0.6-0.8,0.9-1.1s0.7-0.5,1.2-0.7c0.4-0.2,0.9-0.3,1.4-0.3
				c0.6,0,1.2,0.1,1.7,0.4s1,0.6,1.4,1s0.8,0.9,1.1,1.4c0.3,0.5,0.6,1.1,0.8,1.7c0.2,0.6,0.4,1.2,0.5,1.8s0.2,1.2,0.2,1.8
				c0,1-0.1,1.8-0.4,2.5s-0.6,1.3-1.1,1.8s-1,0.9-1.7,1.2c-0.7,0.3-1.4,0.6-2.2,0.8c-0.8,0.2-1.6,0.3-2.5,0.4s-1.8,0.1-2.7,0.1h-0.4
				v-3.8h0.3V23.7z M91.7,11.4L89,8.7L91.7,6l2.7,2.7L91.7,11.4z M91.8,16.4c-0.2,0-0.4,0-0.6,0.2c-0.2,0.1-0.4,0.3-0.5,0.5
				s-0.3,0.4-0.4,0.7c-0.1,0.2-0.2,0.5-0.2,0.8c0,0.2,0.1,0.4,0.2,0.6s0.3,0.3,0.6,0.4c0.2,0.1,0.5,0.1,0.8,0.2
				c0.3,0,0.6,0.1,0.9,0.1s0.5,0,0.8,0c0.2,0,0.4,0,0.6,0c-0.1-0.4-0.2-0.7-0.3-1.1c-0.1-0.4-0.3-0.7-0.4-1
				c-0.2-0.3-0.4-0.6-0.6-0.8C92.4,16.5,92.1,16.4,91.8,16.4z"/>
			<path d="M112.1,27.5c-0.6,0-1.3-0.1-2-0.3c-0.7-0.2-1.3-0.5-1.8-1c-0.5-0.4-1-0.9-1.3-1.5s-0.5-1.3-0.5-2c0-1.6,0.7-3.3,2.1-5
				c0.1-0.1,0.2-0.2,0.3-0.3c0.1-0.1,0.1-0.2,0.2-0.2c0.1-0.1,0.1-0.1,0.2-0.2l0.2-0.2l-0.7-0.6l2.4-2.9c0.4,0.3,0.9,0.7,1.5,1.2
				s1.2,1.2,2,2c2.1,2.4,3.1,4.5,3.1,6.3c0,0.8-0.2,1.5-0.5,2.1s-0.8,1.1-1.3,1.5s-1.1,0.7-1.8,0.9
				C113.5,27.4,112.8,27.5,112.1,27.5z M114.5,22.7c0-0.2-0.1-0.5-0.2-0.8c-0.2-0.3-0.4-0.6-0.6-1c-0.3-0.3-0.5-0.7-0.9-1
				c-0.3-0.3-0.6-0.7-1-1c-0.2,0.2-0.4,0.5-0.7,0.8c-0.2,0.3-0.5,0.6-0.7,1c-0.2,0.3-0.4,0.7-0.5,1c-0.1,0.4-0.2,0.7-0.2,1
				c0,0.2,0.1,0.4,0.3,0.5c0.2,0.1,0.4,0.3,0.6,0.3c0.2,0.1,0.5,0.2,0.8,0.2s0.5,0.1,0.7,0.1s0.5,0,0.8-0.1c0.3,0,0.5-0.1,0.8-0.2
				c0.2-0.1,0.4-0.2,0.6-0.3C114.4,23,114.5,22.9,114.5,22.7z"/>
			<path d="M125.5,20.4c0.2,0.6,0.4,1.2,0.5,1.8c0.2,0.6,0.3,1.2,0.4,1.8c0.1,0.6,0.2,1.2,0.2,1.7c0,0.8-0.1,1.5-0.3,2.2
				c-0.2,0.7-0.5,1.4-0.9,2.1s-0.8,1.3-1.3,1.9s-1.1,1.2-1.7,1.7s-1.3,1.1-2,1.5c-0.7,0.5-1.4,0.9-2.2,1.3l-2.2-3
				c0.6-0.3,1.2-0.6,1.7-1s1.2-0.8,1.7-1.2c0.5-0.4,1-0.9,1.5-1.3c0.5-0.5,0.9-0.9,1.2-1.4c0.3-0.5,0.6-0.9,0.8-1.4
				c0.2-0.5,0.3-1,0.3-1.4c0-0.3,0-0.7-0.1-1.1s-0.2-0.8-0.4-1.3c-0.2-0.5-0.3-0.9-0.6-1.4c-0.2-0.5-0.4-1-0.7-1.6l3.5-1.6
				C125.1,19.2,125.3,19.8,125.5,20.4z"/>
			<path d="M134.4,27.5c-1,0-1.8-0.1-2.5-0.4s-1.3-0.6-1.7-1.1s-0.8-1-1-1.7c-0.2-0.6-0.3-1.3-0.3-2.1c0-0.4,0-0.9,0-1.4
				c0-0.6,0-1.2,0-2s0-1.6,0-2.5s0-1.8-0.1-2.7c0-0.9-0.1-1.8-0.2-2.6c-0.1-0.8-0.2-1.6-0.3-2.2l3.6-1.1c0.1,0.5,0.2,1.1,0.3,1.9
				c0.1,0.7,0.1,1.5,0.2,2.2c0,0.8,0.1,1.6,0.1,2.4s0,1.5,0,2.2c0,0.6,0,1.2,0,1.9c0,0.7,0,1.3-0.1,1.9c0,0.6,0,1.1,0,1.6
				s0.1,0.9,0.2,1.1c0.1,0.2,0.2,0.3,0.3,0.4s0.2,0.2,0.4,0.2c0.1,0,0.3,0.1,0.5,0.1s0.4,0,0.6,0h0.3v3.8L134.4,27.5L134.4,27.5z"/>
			<path d="M145.6,23.7v3.8h-11.3v-3.8H145.6z"/>
			<path d="M145.1,23.7h0.9c0-0.5,0.1-1.1,0.2-1.7c0.1-0.6,0.3-1.2,0.6-1.9c0.2-0.6,0.5-1.2,0.9-1.8s0.7-1.1,1.1-1.6
				c0.4-0.5,0.8-0.8,1.3-1.1s0.9-0.5,1.4-0.5s1,0.2,1.5,0.4c0.5,0.3,0.8,0.7,1.2,1.1c0.3,0.5,0.6,1,0.8,1.6s0.3,1.2,0.3,1.8
				c0,0.7-0.2,1.4-0.5,2.1s-0.7,1.3-1.2,1.9s-1.1,1.1-1.7,1.6c-0.6,0.5-1.3,0.9-2,1.2c0.1,0.2,0.2,0.4,0.4,0.7
				c0.2,0.3,0.4,0.5,0.6,0.8s0.5,0.5,0.7,0.8c0.2,0.2,0.4,0.4,0.6,0.6c0-0.5,0.1-0.9,0.2-1.4c0.1-0.5,0.3-0.9,0.6-1.4
				c0.3-0.4,0.6-0.9,0.9-1.3c0.4-0.4,0.7-0.7,1.1-1c0.4-0.3,0.8-0.5,1.3-0.7c0.4-0.2,0.9-0.3,1.3-0.3h0.6v3.8h-0.6
				c-0.4,0-0.7,0.1-1,0.3c-0.3,0.2-0.6,0.4-0.9,0.7c-0.3,0.3-0.5,0.6-0.6,1c-0.2,0.4-0.2,0.7-0.2,1.1c0,0.2,0,0.3,0,0.4
				s0.1,0.3,0.1,0.4c0.1,0.1,0.1,0.3,0.3,0.5c0.1,0.2,0.2,0.3,0.4,0.5l-2.2,2.7c-1-0.6-1.8-1.2-2.5-1.8s-1.4-1.2-1.9-1.9
				c-0.5-0.6-1-1.3-1.3-1.9c-0.4-0.7-0.7-1.3-0.9-2h-1.5v-3.7C145.4,23.7,145.1,23.7,145.1,23.7z M152.2,20.7c0-0.2,0-0.5,0-0.7
				c0-0.3-0.1-0.5-0.1-0.7c-0.1-0.2-0.1-0.4-0.2-0.6s-0.2-0.3-0.4-0.4c-0.2,0.1-0.3,0.2-0.5,0.5c-0.2,0.2-0.4,0.5-0.5,0.8
				c-0.2,0.3-0.4,0.7-0.5,1c-0.2,0.4-0.3,0.8-0.5,1.2c-0.1,0.4-0.2,0.8-0.3,1.1c-0.1,0.4-0.1,0.7-0.1,1c0.3-0.1,0.7-0.2,1.1-0.4
				c0.4-0.2,0.7-0.4,1-0.7s0.6-0.6,0.8-0.9C152.1,21.4,152.2,21,152.2,20.7z"/>
			<path d="M157.5,23.7h1.6c0.3,0,0.7,0,1.1-0.1c0.4-0.1,0.8-0.1,1.1-0.3c0.3-0.1,0.6-0.3,0.9-0.5c0.2-0.2,0.4-0.5,0.4-0.8
				c0-0.2-0.1-0.5-0.2-0.9c-0.1-0.4-0.3-0.8-0.4-1.3c-0.2-0.5-0.4-1-0.6-1.5c-0.2-0.5-0.5-1-0.7-1.5l3.4-1.7c0.2,0.5,0.4,1,0.7,1.6
				c0.2,0.6,0.4,1.1,0.6,1.7c0.2,0.6,0.3,1.2,0.4,1.7c0.1,0.6,0.2,1.1,0.2,1.7c0,1-0.2,1.8-0.5,2.5s-0.8,1.3-1.3,1.7
				c-0.6,0.4-1.3,0.8-2.1,1s-1.7,0.3-2.6,0.3h-1.9L157.5,23.7L157.5,23.7z M161.4,34.1l-2.7-2.7l2.7-2.7l2.7,2.7L161.4,34.1z"/>
			<path d="M186.2,27.5c-0.7,0-1.5,0-2.3-0.1s-1.7-0.2-2.5-0.3c-0.8-0.2-1.6-0.4-2.4-0.7c-0.8-0.3-1.5-0.7-2.1-1.2s-1.1-1.1-1.5-1.8
				c-0.4-0.7-0.6-1.5-0.6-2.5c0-0.5,0.1-0.9,0.2-1.4c0.1-0.4,0.2-0.9,0.4-1.3s0.4-0.8,0.6-1.3c0.2-0.4,0.4-0.8,0.7-1.2l2.8,2.4
				c-0.1,0.2-0.3,0.4-0.4,0.7c-0.2,0.3-0.3,0.5-0.5,0.8c-0.1,0.3-0.3,0.6-0.4,0.9c-0.1,0.3-0.1,0.6-0.1,0.8c0,0.3,0.1,0.6,0.3,0.8
				c0.2,0.2,0.5,0.4,0.9,0.6s0.8,0.3,1.3,0.5c0.5,0.1,1.1,0.2,1.7,0.3c0.6,0.1,1.2,0.1,1.9,0.2c0.7,0,1.3,0.1,2,0.1c0.3,0,0.6,0,1,0
				s0.7,0,1,0s0.6,0,0.8,0s0.4,0,0.5,0c-0.3-0.3-0.5-0.7-0.8-1.2c-0.2-0.5-0.4-1-0.4-1.6c0-0.5,0-0.9,0.2-1.4c0.1-0.5,0.3-1,0.5-1.4
				c0.2-0.5,0.5-0.9,0.8-1.3s0.7-0.7,1.1-1c0.4-0.3,0.8-0.5,1.3-0.7s0.9-0.2,1.4-0.2c0.7,0,1.3,0.2,1.9,0.5c0.6,0.3,1.1,0.8,1.6,1.3
				c0.4,0.5,0.8,1.1,1,1.8c0.3,0.7,0.4,1.3,0.4,2c0,0.6-0.1,1.1-0.3,1.6s-0.4,1-0.7,1.5c0.4,0,0.8,0.1,1.1,0.1c0.4,0,0.7,0,1,0h0.4
				v3.8h-0.3c-0.5,0-1,0-1.5,0s-1-0.1-1.6-0.1c-0.5-0.1-1-0.2-1.5-0.3c-0.5-0.1-1-0.3-1.5-0.5c-0.2,0.1-0.5,0.2-0.8,0.3
				c-0.3,0.1-0.7,0.2-1.1,0.2c-0.4,0.1-0.9,0.1-1.4,0.2s-1,0.1-1.5,0.1s-1,0.1-1.4,0.1C187,27.5,186.6,27.5,186.2,27.5z M194.2,12.9
				l-2.7-2.7l2.7-2.7l2.7,2.7L194.2,12.9z M195.4,20.7c0-0.3-0.1-0.5-0.2-0.7s-0.3-0.4-0.5-0.6s-0.4-0.3-0.6-0.5
				c-0.2-0.1-0.4-0.2-0.6-0.3c-0.2,0-0.4,0.1-0.6,0.2c-0.2,0.1-0.5,0.2-0.7,0.4c-0.2,0.2-0.4,0.4-0.5,0.7c-0.1,0.3-0.2,0.6-0.2,1
				c0,0.1,0.1,0.3,0.2,0.5s0.3,0.4,0.5,0.6s0.4,0.4,0.7,0.6s0.5,0.3,0.8,0.4c0.2-0.1,0.4-0.3,0.6-0.5c0.2-0.2,0.4-0.4,0.6-0.6
				c0.2-0.2,0.3-0.4,0.4-0.7S195.4,20.9,195.4,20.7z"/>
			<path d="M211,23.7v3.8h-11.3v-3.8H211z"/>
			<path d="M221.2,23.7v3.8H221c-0.4,0-0.8,0-1.1-0.1c-0.4-0.1-0.7-0.2-1-0.3c-0.3-0.1-0.6-0.3-0.9-0.4c-0.3-0.2-0.5-0.3-0.7-0.5
				c-0.4,0.3-0.8,0.5-1.3,0.7s-1,0.3-1.5,0.4s-1.1,0.2-1.7,0.2c-0.6,0-1.1,0-1.7,0h-0.4v-3.8h0.4c0.6,0,1.1,0,1.5,0
				c0.5,0,0.8-0.1,1.2-0.2c0.3-0.1,0.6-0.2,0.9-0.3c0.2-0.1,0.4-0.3,0.6-0.5c0.2-0.3,0.3-0.5,0.3-0.9c0-0.3,0-0.6,0-1
				c0-0.3-0.1-0.7-0.2-1c-0.1-0.3-0.2-0.6-0.2-1l3.5-1c0.1,0.4,0.2,0.7,0.2,1c0.1,0.3,0.1,0.6,0.2,0.9c0.1,0.3,0.1,0.6,0.1,0.9
				s0.1,0.6,0.1,0.9c0,0.2,0.1,0.4,0.1,0.7c0.1,0.3,0.1,0.5,0.3,0.7c0.1,0.2,0.3,0.4,0.5,0.5s0.5,0.2,0.8,0.2L221.2,23.7L221.2,23.7
				z M215.2,31l-2.3,2.3l-2.3-2.3l2.3-2.3L215.2,31l2.3-2.3l2.3,2.3l-2.3,2.3L215.2,31z"/>
			<path d="M220.8,23.7h0.9c0.2,0,0.4,0,0.6,0c0.2,0,0.4,0,0.5,0c0.2,0,0.3,0,0.4-0.1c-0.1-0.2-0.3-0.3-0.4-0.5
				c-0.1-0.2-0.3-0.4-0.4-0.6c-0.1-0.2-0.2-0.5-0.3-0.7c-0.1-0.3-0.1-0.5-0.1-0.8c0-0.5,0-0.9,0.1-1.4s0.3-1,0.5-1.4
				c0.2-0.5,0.5-0.9,0.8-1.3s0.7-0.7,1.1-1c0.4-0.3,0.8-0.5,1.3-0.7s0.9-0.2,1.4-0.2c0.7,0,1.3,0.2,1.9,0.5c0.6,0.3,1.1,0.8,1.6,1.3
				c0.4,0.5,0.8,1.1,1,1.8c0.3,0.7,0.4,1.3,0.4,2c0,0.6-0.1,1.1-0.3,1.6s-0.4,1-0.7,1.5c0.2,0,0.5,0.1,0.8,0.1s0.7,0,1.2,0h0.2v3.8
				h-0.5c-0.5,0-1,0-1.5,0s-0.9-0.1-1.4-0.1c-0.5-0.1-0.9-0.2-1.4-0.3c-0.5-0.1-0.9-0.3-1.4-0.5c-0.3,0.2-0.7,0.3-1.1,0.4
				c-0.4,0.1-0.9,0.2-1.5,0.3c-0.5,0.1-1.1,0.1-1.7,0.2c-0.6,0-1.1,0.1-1.7,0.1h-0.5v-4H220.8z M226.9,13.2l-2.7-2.7l2.7-2.7
				l2.7,2.7L226.9,13.2z M228.9,20.7c0-0.3-0.1-0.5-0.2-0.7s-0.3-0.4-0.5-0.6s-0.4-0.3-0.6-0.5c-0.2-0.1-0.4-0.2-0.6-0.3
				c-0.2,0-0.4,0.1-0.6,0.2c-0.2,0.1-0.5,0.2-0.7,0.4c-0.2,0.2-0.4,0.4-0.5,0.7c-0.1,0.3-0.2,0.6-0.2,1c0,0.1,0.1,0.3,0.2,0.5
				c0.1,0.2,0.3,0.4,0.5,0.6s0.4,0.4,0.7,0.6s0.5,0.3,0.8,0.4c0.2-0.1,0.4-0.3,0.6-0.5c0.2-0.2,0.4-0.4,0.6-0.6
				c0.2-0.2,0.3-0.4,0.4-0.7C228.8,21.1,228.9,20.9,228.9,20.7z"/>
			<path d="M232.8,23.7h2.4c0.6,0,1.2,0,1.9-0.1s1.3-0.2,2-0.3c0.7-0.1,1.4-0.3,2-0.5c0.7-0.2,1.4-0.4,2-0.6
				c0.7-0.2,1.3-0.4,1.9-0.7c0.6-0.2,1.1-0.5,1.6-0.7c-0.5-0.1-1-0.3-1.7-0.5c-0.6-0.2-1.2-0.4-1.8-0.6s-1.2-0.4-1.8-0.5
				s-1.1-0.2-1.6-0.2c-0.3,0-0.6,0.1-0.9,0.2c-0.3,0.1-0.5,0.3-0.8,0.4c-0.2,0.2-0.4,0.4-0.6,0.6c-0.2,0.2-0.3,0.4-0.5,0.6
				c-0.1,0.2-0.2,0.3-0.3,0.4l-0.1,0.2l-2.8-1.6c0.3-0.6,0.7-1.2,1.2-1.7c0.4-0.5,0.9-1,1.5-1.4c0.5-0.4,1.1-0.8,1.7-1
				c0.6-0.2,1.2-0.4,1.7-0.4c0.4,0,0.9,0.1,1.3,0.2s0.9,0.2,1.3,0.4c0.4,0.1,0.9,0.3,1.3,0.5c0.4,0.2,0.9,0.4,1.3,0.6
				c0.5,0.2,1,0.4,1.5,0.7c0.6,0.2,1.1,0.4,1.7,0.6c0.6,0.2,1.2,0.3,1.8,0.4s1.2,0.2,1.8,0.2l-0.6,3.5c-0.2,0.1-0.4,0.2-0.6,0.3
				c-0.2,0.1-0.4,0.2-0.6,0.3l-0.3,0.2c0.2,0.2,0.4,0.4,0.7,0.5s0.6,0.2,0.9,0.3s0.6,0.1,0.9,0.1c0.3,0,0.5,0,0.7,0h0.4v3.8h-0.4
				c-0.8,0-1.5-0.1-2.2-0.2s-1.3-0.3-1.8-0.6c-0.6-0.3-1-0.6-1.5-0.9c-0.4-0.4-0.8-0.8-1.1-1.3c-0.8,0.4-1.6,0.8-2.5,1.1
				c-0.9,0.4-1.7,0.7-2.7,1c-0.9,0.3-1.9,0.5-2.9,0.7s-2,0.3-3.1,0.3h-2.4v-4.3C232.7,23.7,232.8,23.7,232.8,23.7z M239.6,13.9
				l-2.7-2.7l2.7-2.7l2.7,2.7L239.6,13.9z"/>
			<path d="M252.7,23.7h2.9c0.3,0,0.7,0,1.1-0.1c0.4,0,0.8-0.1,1.2-0.2c0.4-0.1,0.7-0.3,0.9-0.5c0.2-0.2,0.4-0.5,0.4-0.9
				c0-0.2-0.1-0.5-0.2-0.9s-0.3-0.8-0.5-1.3s-0.4-1-0.6-1.5s-0.5-1-0.7-1.5l3.4-1.7c0.2,0.5,0.4,1,0.7,1.6c0.2,0.6,0.4,1.1,0.6,1.7
				s0.3,1.2,0.4,1.7c0.1,0.6,0.2,1.1,0.2,1.7c0,1-0.2,1.8-0.5,2.5c-0.4,0.7-0.9,1.3-1.5,1.7c-0.6,0.4-1.4,0.8-2.2,0.9
				c-0.8,0.2-1.7,0.3-2.7,0.3h-2.9L252.7,23.7L252.7,23.7z M258.3,11.4l-2.3,2.3l-2.3-2.3L256,9L258.3,11.4l2.3-2.3l2.3,2.3
				l-2.3,2.3L258.3,11.4z"/>
			<path d="M277.2,27.5c-0.6,0-1.3-0.1-2-0.3c-0.7-0.2-1.3-0.5-1.8-1c-0.5-0.4-1-0.9-1.3-1.5s-0.5-1.3-0.5-2c0-1.6,0.7-3.3,2.1-5
				c0.1-0.1,0.2-0.2,0.3-0.3c0.1-0.1,0.1-0.2,0.2-0.2s0.1-0.1,0.2-0.2l0.2-0.2l-0.7-0.6l2.4-2.9c0.4,0.3,0.9,0.7,1.5,1.2
				s1.2,1.2,2,2c2.1,2.4,3.1,4.5,3.1,6.3c0,0.8-0.2,1.5-0.5,2.1s-0.8,1.1-1.3,1.5s-1.1,0.7-1.8,0.9
				C278.6,27.4,277.9,27.5,277.2,27.5z M279.6,22.7c0-0.2-0.1-0.5-0.2-0.8c-0.2-0.3-0.4-0.6-0.6-1c-0.3-0.3-0.5-0.7-0.9-1
				c-0.3-0.3-0.6-0.7-1-1c-0.2,0.2-0.4,0.5-0.7,0.8c-0.2,0.3-0.5,0.6-0.7,1c-0.2,0.3-0.4,0.7-0.5,1c-0.1,0.4-0.2,0.7-0.2,1
				c0,0.2,0.1,0.4,0.3,0.5c0.2,0.1,0.4,0.3,0.6,0.3c0.2,0.1,0.5,0.2,0.8,0.2s0.5,0.1,0.7,0.1s0.5,0,0.8-0.1c0.3,0,0.5-0.1,0.8-0.2
				c0.2-0.1,0.4-0.2,0.6-0.3C279.5,23,279.6,22.9,279.6,22.7z"/>
			<path d="M290.6,20.4c0.2,0.6,0.4,1.2,0.5,1.8c0.2,0.6,0.3,1.2,0.4,1.8c0.1,0.6,0.2,1.2,0.2,1.7c0,0.8-0.1,1.5-0.3,2.2
				c-0.2,0.7-0.5,1.4-0.9,2.1s-0.8,1.3-1.3,1.9s-1.1,1.2-1.7,1.7s-1.3,1.1-2,1.5c-0.7,0.5-1.4,0.9-2.2,1.3l-2.2-3
				c0.6-0.3,1.2-0.6,1.7-1c0.6-0.4,1.2-0.8,1.7-1.2c0.5-0.4,1-0.9,1.5-1.3c0.5-0.5,0.9-0.9,1.2-1.4c0.3-0.5,0.6-0.9,0.8-1.4
				c0.2-0.5,0.3-1,0.3-1.4c0-0.3,0-0.7-0.1-1.1s-0.2-0.8-0.4-1.3c-0.2-0.5-0.3-0.9-0.6-1.4c-0.2-0.5-0.4-1-0.7-1.6l3.5-1.6
				C290.2,19.2,290.4,19.8,290.6,20.4z"/>
			<path d="M294,25.5c0-0.7,0.1-1.4,0.1-2.1s0-1.4,0.1-2c0-0.6,0-1.2,0-1.8c0-1.1-0.1-2.1-0.1-3S294,15,294,14.3s-0.1-1.2-0.1-1.7
				s-0.1-1-0.1-1.4s-0.1-0.8-0.2-1.2s-0.1-0.7-0.2-1.1l3.7-1.2c0.2,1.1,0.3,2.1,0.4,3.2s0.2,2.1,0.2,3.1c0.1,1,0.1,1.9,0.1,2.8
				s0,1.6,0,2.2s0,1.1,0,1.8c0,0.6,0,1.3,0,2s0,1.4-0.1,2.1c0,0.7-0.1,1.4-0.1,2.1l-3.7,0.6C293.9,26.9,293.9,26.2,294,25.5z"/>
			<path d="M298.9,32.3c1.1-0.2,2.2-0.5,3.1-0.8s1.7-0.7,2.4-1.1c0.7-0.4,1.3-0.9,1.7-1.3c0.5-0.5,0.8-1,1-1.4c-0.3,0-0.7,0-1.1,0
				s-0.7,0-0.9,0c-0.8-0.1-1.5-0.2-2.2-0.4c-0.6-0.2-1.2-0.6-1.7-1s-0.8-0.9-1.1-1.5c-0.3-0.6-0.4-1.3-0.4-2c0-0.5,0.1-1,0.2-1.5
				s0.3-1,0.4-1.5c0.2-0.5,0.4-0.9,0.7-1.4c0.3-0.4,0.6-0.8,1-1.1c0.4-0.3,0.8-0.6,1.2-0.8c0.4-0.2,0.9-0.3,1.4-0.3
				c0.6,0,1.2,0.1,1.7,0.3c0.5,0.2,1,0.5,1.4,0.9s0.8,0.8,1.1,1.3c0.3,0.5,0.6,1.1,0.9,1.6c0.2,0.6,0.4,1.2,0.6,1.8
				c0.2,0.6,0.3,1.2,0.3,1.8h0.5v3.8h-0.8c-0.3,1.2-0.8,2.2-1.5,3.2s-1.5,1.8-2.5,2.5s-2,1.3-3.2,1.8s-2.4,0.8-3.6,1L298.9,32.3z
				 M304.8,19.7c-0.2,0-0.4,0-0.6,0.2c-0.2,0.1-0.4,0.3-0.6,0.6s-0.3,0.5-0.5,0.8c-0.1,0.3-0.2,0.6-0.2,0.9s0.1,0.5,0.3,0.7
				c0.2,0.2,0.4,0.3,0.6,0.4c0.3,0.1,0.6,0.2,0.9,0.3c0.3,0.1,0.7,0.1,1,0.1s0.6,0,0.9,0h0.7c-0.1-0.5-0.3-1-0.4-1.4
				c-0.2-0.5-0.4-0.9-0.6-1.2s-0.5-0.7-0.7-0.9C305.4,20,305.1,19.8,304.8,19.7z"/>
			<path d="M322.2,23.7v3.8h-11.3v-3.8H322.2z"/>
			<path d="M330.6,23.7v3.8h-0.3c-0.8,0-1.4-0.1-2-0.3c-0.5-0.2-1-0.5-1.4-0.9c-0.6,0.4-1.3,0.7-2,0.9c-0.8,0.2-1.7,0.3-2.8,0.3
				h-0.4v-3.8h0.4c1.1,0,1.9-0.2,2.5-0.5c0.6-0.4,0.8-0.9,0.8-1.6c0-0.2,0-0.6-0.1-1s-0.2-1-0.4-1.7l3.4-0.8
				c0.1,0.4,0.2,0.8,0.3,1.2c0.1,0.3,0.2,0.6,0.2,0.9s0.1,0.5,0.1,0.8c0,0.2,0,0.5,0.1,0.7c0,0.2,0,0.5,0.1,0.7
				c0,0.3,0.1,0.5,0.2,0.7s0.2,0.4,0.4,0.5s0.4,0.2,0.7,0.2h0.2L330.6,23.7L330.6,23.7z M325.5,16.1l-2.7-2.7l2.7-2.7l2.7,2.7
				L325.5,16.1z"/>
			<path d="M330.4,23.7c0.4,0,0.8-0.1,1.2-0.2c0.4-0.1,0.7-0.4,1-0.8s0.6-1,0.9-1.7s0.6-1.7,0.8-2.9l3.2,0.5c0,0,0,0.1,0,0.2
				c0,0.2-0.1,0.5-0.2,0.8c-0.1,0.4-0.1,0.8-0.2,1.2c-0.1,0.5-0.1,0.9-0.1,1.3s0.1,0.8,0.1,1.1c0.1,0.3,0.3,0.5,0.5,0.5
				c0.2,0.1,0.5,0,0.7-0.1c0.2-0.2,0.5-0.4,0.7-0.7c0.2-0.3,0.4-0.7,0.6-1.1s0.3-0.8,0.5-1.3s0.3-0.9,0.4-1.3s0.2-0.8,0.2-1.1
				l3.2,0.5c0,0.2,0,0.5-0.1,0.8c0,0.3-0.1,0.7-0.1,1.1s0,0.8,0,1.1c0,0.4,0,0.7,0.1,1s0.2,0.6,0.4,0.8c0.2,0.2,0.4,0.3,0.7,0.3
				c0.3,0,0.5-0.1,0.7-0.3s0.4-0.4,0.5-0.7c0.1-0.3,0.2-0.6,0.3-1c0.1-0.4,0.1-0.7,0.2-1.1c0-0.4,0.1-0.7,0.1-1.1s0-0.7,0-0.9
				l3.2-0.5l0.4,3.4c0,0.4,0.2,0.7,0.3,1c0.2,0.3,0.3,0.5,0.6,0.7c0.2,0.2,0.4,0.3,0.7,0.4c0.2,0.1,0.5,0.1,0.7,0.1h0.4v3.8h-0.4
				c-0.8,0-1.5-0.1-2.2-0.4s-1.3-0.7-1.8-1.4c0,0.1-0.1,0.1-0.1,0.2l-0.1,0.1l0,0c-0.4,0.5-0.9,0.8-1.5,1.1
				c-0.6,0.3-1.2,0.4-1.8,0.4c-0.7,0-1.4-0.2-2-0.5s-1.1-0.7-1.5-1.3c-0.5,0.5-1,1-1.6,1.3s-1.3,0.5-2,0.5s-1.3-0.2-1.9-0.5
				s-1.1-0.7-1.5-1.2c-0.4,0.6-1,1-1.6,1.3s-1.4,0.4-2.4,0.4h-0.3L330.4,23.7C330.3,23.7,330.4,23.7,330.4,23.7z M337.5,18.6
				L337.5,18.6C337.5,18.6,337.6,18.6,337.5,18.6z M342.3,13.5l-2.3,2.3l-2.3-2.3l2.3-2.3L342.3,13.5l2.3-2.3l2.3,2.3l-2.3,2.3
				L342.3,13.5z M344.5,10l-2.1,2.1l-2.1-2.1l2.1-2.1L344.5,10z"/>
			<path d="M352.3,23.7h2.5c1.3,0,2.5-0.1,3.6-0.2s2.1-0.4,3-0.6c0.9-0.3,1.8-0.6,2.7-0.9c0.8-0.3,1.7-0.7,2.5-1.1
				c-0.5-0.2-1.1-0.3-1.6-0.6c-0.5-0.2-1.1-0.4-1.6-0.6s-1.1-0.4-1.6-0.5s-1.1-0.2-1.6-0.2c-0.4,0-0.7,0.1-1.1,0.3
				c-0.4,0.2-0.7,0.4-1,0.7c-0.3,0.3-0.5,0.5-0.7,0.7s-0.3,0.4-0.4,0.5l-2.8-1.8c0.3-0.5,0.7-1.1,1.1-1.6s0.9-1,1.4-1.4s1-0.7,1.6-1
				c0.6-0.2,1.2-0.4,1.8-0.4c0.5,0,0.9,0,1.4,0.1s0.9,0.2,1.4,0.4s0.9,0.3,1.4,0.5c0.5,0.2,0.9,0.4,1.4,0.6c0.4,0.2,0.9,0.4,1.3,0.6
				s0.9,0.4,1.3,0.5c0.5,0.2,0.9,0.3,1.4,0.4s1,0.2,1.5,0.2l-0.3,3.7l-1.7,0.8c-0.7,0.3-1.4,0.7-2.1,1c-0.7,0.4-1.4,0.7-2.1,1
				s-1.4,0.6-2.2,0.9c-0.8,0.3-1.6,0.6-2.4,0.8c-0.8,0.2-1.7,0.4-2.6,0.5s-1.9,0.2-3,0.2h-2.5L352.3,23.7L352.3,23.7z M362.2,34.1
				l-2.7-2.7l2.7-2.7l2.7,2.7L362.2,34.1z"/>
		</g>
	</g>
	<g>
		<g>
			<path class="st1" d="M33.6,13.2c0.1,0.3,0.3,0.6,0.4,0.9c0.2,0.4,0.3,0.8,0.5,1.2s0.3,0.9,0.5,1.4c0.1,0.5,0.3,1,0.4,1.5
				c0.1,0.5,0.1,1,0.1,1.5c0,0.8-0.1,1.5-0.4,2.2c-0.2,0.7-0.6,1.3-1,1.8s-1,0.9-1.6,1.2c-0.6,0.3-1.4,0.4-2.2,0.4
				c-0.7,0-1.3-0.1-1.8-0.4c-0.5-0.2-0.9-0.6-1.2-1c-0.2,0.2-0.3,0.4-0.5,0.6s-0.4,0.3-0.7,0.4c-0.3,0.1-0.6,0.2-0.9,0.3
				c-0.3,0.1-0.8,0.1-1.2,0.1c-0.3,0-0.6,0-0.9-0.1c-0.3,0-0.5-0.1-0.8-0.2c0,0.9-0.1,1.8-0.4,2.6c-0.3,0.8-0.7,1.5-1.1,2.1
				c-0.5,0.6-1,1.1-1.7,1.6c-0.6,0.4-1.3,0.8-2.1,1.1c-0.7,0.3-1.5,0.5-2.3,0.7c-0.8,0.1-1.6,0.2-2.4,0.2c-1.2,0-2.4-0.2-3.4-0.6
				c-1-0.4-1.9-1-2.7-1.7s-1.3-1.6-1.8-2.6c-0.4-1-0.6-2.2-0.6-3.4c0-0.7,0.1-1.5,0.3-2.2c0.2-0.8,0.4-1.5,0.7-2.2
				c0.3-0.7,0.6-1.4,0.9-2.1s0.7-1.2,1-1.8l2.6,2c-0.3,0.5-0.6,1-0.8,1.5c-0.3,0.5-0.5,1.1-0.7,1.6s-0.4,1.1-0.5,1.6
				C7.1,24,7,24.5,7,25c0,0.6,0.1,1.2,0.4,1.7s0.6,1,1.1,1.4s1,0.7,1.7,1c0.6,0.2,1.3,0.3,2.1,0.3c0.8,0,1.6-0.1,2.3-0.2
				c0.7-0.2,1.3-0.4,1.9-0.6c0.5-0.3,1-0.6,1.4-1s0.6-0.8,0.8-1.3l0,0c0.2-0.6,0.3-1.3,0.3-2c0-0.5-0.1-1.1-0.2-1.6S18.2,21.6,18,21
				s-0.5-1.1-0.8-1.7s-0.6-1.1-0.9-1.7l3.3-1.8c0.2,0.5,0.4,0.9,0.6,1.4s0.4,0.9,0.6,1.4c0.2,0.4,0.4,0.8,0.7,1.2
				c0.2,0.4,0.5,0.7,0.7,1s0.5,0.5,0.7,0.6c0.3,0.1,0.5,0.2,0.8,0.1c0.3,0,0.6-0.2,0.8-0.4c0.2-0.2,0.4-0.4,0.5-0.7
				c0.1-0.3,0.2-0.6,0.2-0.9s0-0.7,0-1.1s0-0.7-0.1-1.1c0-0.4-0.1-0.7-0.1-1l3.3-0.4c0.1,0.2,0.1,0.5,0.1,0.9c0,0.3,0.1,0.7,0.1,1.1
				c0.1,0.4,0.1,0.8,0.2,1.2c0.1,0.4,0.2,0.8,0.3,1.1c0.1,0.3,0.3,0.6,0.5,0.9c0.2,0.2,0.5,0.4,0.8,0.5c0.2,0,0.5,0,0.7-0.1
				s0.4-0.2,0.6-0.4c0.2-0.2,0.3-0.4,0.4-0.7c0.1-0.3,0.1-0.6,0.1-0.9s-0.1-0.6-0.2-1c-0.1-0.4-0.3-0.8-0.4-1.2
				c-0.2-0.4-0.4-0.9-0.6-1.4s-0.5-1-0.8-1.5l3.1-1.7C33.4,12.8,33.5,13,33.6,13.2z"/>
			<path class="st1" d="M43.1,18.2c0.2,0.6,0.4,1.2,0.5,1.8c0.2,0.6,0.3,1.2,0.4,1.8c0.1,0.6,0.2,1.2,0.2,1.7c0,0.8-0.1,1.5-0.3,2.2
				s-0.5,1.4-0.9,2.1s-0.8,1.3-1.3,1.9s-1.1,1.2-1.7,1.7c-0.6,0.5-1.3,1.1-2,1.5c-0.7,0.5-1.4,0.9-2.2,1.3l-2.2-3
				c0.6-0.3,1.2-0.6,1.7-1s1.2-0.8,1.7-1.2c0.5-0.4,1-0.9,1.5-1.3c0.5-0.5,0.9-0.9,1.2-1.4s0.6-0.9,0.8-1.4s0.3-1,0.3-1.4
				c0-0.3,0-0.7-0.1-1.1s-0.2-0.8-0.4-1.3s-0.3-0.9-0.6-1.4c-0.2-0.5-0.4-1-0.7-1.6l3.5-1.6C42.7,17,42.9,17.6,43.1,18.2z"/>
			<path class="st1" d="M47.7,20.4c0.5,0.2,0.9,0.4,1.4,0.6s0.9,0.3,1.4,0.4c0.4,0.1,0.8,0.2,1.2,0.2c0.2,0,0.4,0,0.8,0
				c0.3,0,0.6-0.1,1-0.2c0.3-0.1,0.6-0.2,0.8-0.4c0.2-0.2,0.4-0.4,0.4-0.7c0-0.3-0.1-0.7-0.3-1.1s-0.5-0.8-0.8-1.2
				c-0.3-0.4-0.7-0.9-1.2-1.3c-0.4-0.4-0.9-0.9-1.3-1.3c-0.5-0.4-0.9-0.8-1.4-1.1s-0.9-0.6-1.3-0.9l2.1-3.2c0.8,0.5,1.5,1.2,2.3,1.8
				c0.8,0.7,1.5,1.4,2.1,2.1c0.6,0.8,1.2,1.5,1.7,2.3s0.8,1.6,1,2.4c0.1,0.2,0.1,0.5,0.1,0.7s0,0.5,0,0.7c0,0.7-0.1,1.4-0.4,2
				c-0.3,0.6-0.7,1.2-1.2,1.6c-0.5,0.5-1.1,0.8-1.9,1c-0.7,0.2-1.5,0.4-2.4,0.4c-0.1,0-0.1,0-0.2,0c-0.1,0-0.1,0-0.2,0
				c-0.6,0-1.1-0.1-1.7-0.2c-0.6-0.1-1.2-0.3-1.7-0.5c-0.6-0.2-1.1-0.4-1.6-0.7c-0.5-0.3-1-0.5-1.5-0.8l1.6-3.6
				C46.8,19.9,47.2,20.2,47.7,20.4z"/>
			<path class="st1" d="M60,23.3c0-0.7,0.1-1.4,0.1-2.1s0-1.4,0.1-2s0-1.2,0-1.8c0-1.1-0.1-2.1-0.1-3S60,12.8,60,12.1
				s-0.1-1.2-0.1-1.7s-0.1-1-0.1-1.4s-0.1-0.8-0.2-1.2c-0.1-0.4-0.1-0.7-0.2-1.1l3.7-1.2c0.2,1.1,0.3,2.1,0.4,3.2
				c0.1,1.1,0.2,2.1,0.2,3.1c0.1,1,0.1,1.9,0.1,2.8c0,0.9,0,1.6,0,2.2s0,1.1,0,1.8c0,0.6,0,1.3,0,2s0,1.4-0.1,2.1
				c0,0.7-0.1,1.4-0.1,2.1l-3.7,0.6C59.9,24.7,59.9,24,60,23.3z"/>
			<path class="st1" d="M74.3,25.3c-0.2,0-0.4,0-0.7,0s-0.6-0.1-1-0.3c-0.2,1-0.5,1.9-1,2.8s-1.1,1.7-1.8,2.5s-1.5,1.5-2.4,2.2
				s-1.9,1.2-2.9,1.8l-2.2-3c0.6-0.3,1.1-0.6,1.7-0.9c0.6-0.3,1.1-0.7,1.6-1.1s1-0.8,1.5-1.2c0.5-0.4,0.8-0.8,1.2-1.3
				c0.3-0.4,0.6-0.9,0.8-1.3c0.2-0.5,0.3-0.9,0.3-1.4c0-0.3-0.1-0.7-0.2-1.2s-0.3-1-0.5-1.5c-0.2-0.6-0.4-1.1-0.6-1.7
				s-0.4-1.1-0.6-1.5l3.5-1.5c0.3,1,0.6,1.8,0.9,2.4s0.6,1.2,0.8,1.5c0.3,0.4,0.5,0.7,0.8,0.8c0.3,0.2,0.5,0.2,0.7,0.2h0.3v3.8
				L74.3,25.3L74.3,25.3z"/>
			<path class="st1" d="M85.4,21.5v3.8H74.1v-3.8H85.4z"/>
			<path class="st1" d="M85.4,21.5c0.3,0,0.7,0,1.1,0s0.9,0,1.3,0c0.5,0,1,0,1.5-0.1c0.5,0,1-0.1,1.4-0.2c0.5-0.1,0.9-0.2,1.2-0.3
				c0.4-0.1,0.7-0.3,0.9-0.4c-1,0.1-2,0.1-2.9,0.1s-1.6-0.2-2.3-0.5c-0.6-0.3-1.1-0.7-1.5-1.3c-0.4-0.6-0.5-1.3-0.5-2.3
				c0-0.4,0-0.9,0.1-1.4s0.2-0.9,0.4-1.4c0.2-0.5,0.4-0.9,0.7-1.3c0.3-0.4,0.6-0.8,0.9-1.1s0.7-0.5,1.2-0.7c0.4-0.2,0.9-0.3,1.4-0.3
				c0.6,0,1.2,0.1,1.7,0.4c0.5,0.2,1,0.6,1.4,1s0.8,0.9,1.1,1.4c0.3,0.5,0.6,1.1,0.8,1.7c0.2,0.6,0.4,1.2,0.5,1.8s0.2,1.2,0.2,1.8
				c0,1-0.1,1.8-0.4,2.5s-0.6,1.3-1.1,1.8s-1,0.9-1.7,1.2c-0.7,0.3-1.4,0.6-2.2,0.8c-0.8,0.2-1.6,0.3-2.5,0.4s-1.8,0.1-2.7,0.1H85
				v-3.8h0.4V21.5z M90.2,9.2l-2.7-2.7l2.7-2.7l2.7,2.7L90.2,9.2z M90.3,14.2c-0.2,0-0.4,0-0.6,0.2c-0.2,0.1-0.4,0.3-0.5,0.5
				c-0.2,0.2-0.3,0.4-0.4,0.7c-0.1,0.2-0.2,0.5-0.2,0.8c0,0.2,0.1,0.4,0.2,0.6s0.3,0.3,0.6,0.4c0.2,0.1,0.5,0.1,0.8,0.2
				c0.3,0,0.6,0.1,0.9,0.1s0.5,0,0.8,0c0.2,0,0.4,0,0.6,0c-0.1-0.4-0.2-0.7-0.3-1.1c-0.1-0.4-0.3-0.7-0.4-1
				c-0.2-0.3-0.4-0.6-0.6-0.8C90.9,14.3,90.6,14.2,90.3,14.2z"/>
			<path class="st1" d="M110.7,25.3c-0.6,0-1.3-0.1-2-0.3c-0.7-0.2-1.3-0.5-1.8-1c-0.5-0.4-1-0.9-1.3-1.5s-0.5-1.3-0.5-2
				c0-1.6,0.7-3.3,2.1-5c0.1-0.1,0.2-0.2,0.3-0.3c0.1-0.1,0.1-0.2,0.2-0.2c0.1-0.1,0.1-0.1,0.2-0.2l0.2-0.2l-0.7-0.6l2.4-2.9
				c0.4,0.3,0.9,0.7,1.5,1.2s1.2,1.2,2,2c2.1,2.4,3.1,4.5,3.1,6.3c0,0.8-0.2,1.5-0.5,2.1s-0.8,1.1-1.3,1.5s-1.1,0.7-1.8,0.9
				C112,25.2,111.3,25.3,110.7,25.3z M113,20.4c0-0.2-0.1-0.5-0.2-0.8c-0.2-0.3-0.4-0.6-0.6-1c-0.3-0.3-0.5-0.7-0.9-1
				c-0.3-0.3-0.6-0.7-1-1c-0.2,0.2-0.4,0.5-0.7,0.8c-0.2,0.3-0.5,0.6-0.7,1c-0.2,0.3-0.4,0.7-0.5,1c-0.1,0.4-0.2,0.7-0.2,1
				c0,0.2,0.1,0.4,0.3,0.5c0.2,0.1,0.4,0.3,0.6,0.3c0.2,0.1,0.5,0.2,0.8,0.2s0.5,0.1,0.7,0.1s0.5,0,0.8-0.1c0.3,0,0.5-0.1,0.8-0.2
				c0.2-0.1,0.4-0.2,0.6-0.3C112.9,20.8,113,20.7,113,20.4z"/>
			<path class="st1" d="M124,18.2c0.2,0.6,0.4,1.2,0.5,1.8c0.2,0.6,0.3,1.2,0.4,1.8c0.1,0.6,0.2,1.2,0.2,1.7c0,0.8-0.1,1.5-0.3,2.2
				c-0.2,0.7-0.5,1.4-0.9,2.1s-0.8,1.3-1.3,1.9s-1.1,1.2-1.7,1.7s-1.3,1.1-2,1.5c-0.7,0.5-1.4,0.9-2.2,1.3l-2.2-3
				c0.6-0.3,1.2-0.6,1.7-1s1.2-0.8,1.7-1.2c0.5-0.4,1-0.9,1.5-1.3c0.5-0.5,0.9-0.9,1.2-1.4c0.3-0.5,0.6-0.9,0.8-1.4
				c0.2-0.5,0.3-1,0.3-1.4c0-0.3,0-0.7-0.1-1.1s-0.2-0.8-0.4-1.3c-0.2-0.5-0.3-0.9-0.6-1.4c-0.2-0.5-0.4-1-0.7-1.6l3.5-1.6
				C123.6,17,123.8,17.6,124,18.2z"/>
			<path class="st1" d="M132.9,25.3c-1,0-1.8-0.1-2.5-0.4s-1.3-0.6-1.7-1.1s-0.8-1-1-1.7c-0.2-0.6-0.3-1.3-0.3-2.1
				c0-0.4,0-0.9,0-1.4c0-0.6,0-1.2,0-2c0-0.8,0-1.6,0-2.5s0-1.8-0.1-2.7c0-0.9-0.1-1.8-0.2-2.6c-0.1-0.8-0.2-1.6-0.3-2.2l3.6-1.1
				c0.1,0.5,0.2,1.1,0.3,1.9c0.1,0.7,0.1,1.5,0.2,2.2c0,0.8,0.1,1.6,0.1,2.4s0,1.5,0,2.2c0,0.6,0,1.2,0,1.9s0,1.3-0.1,1.9
				c0,0.6,0,1.1,0,1.6s0.1,0.9,0.2,1.1c0.1,0.2,0.2,0.3,0.3,0.4s0.2,0.2,0.4,0.2c0.1,0,0.3,0.1,0.5,0.1s0.4,0,0.6,0h0.3v3.8
				L132.9,25.3L132.9,25.3z"/>
			<path class="st1" d="M144.2,21.5v3.8h-11.3v-3.8H144.2z"/>
			<path class="st1" d="M143.7,21.5h0.9c0-0.5,0.1-1.1,0.2-1.7c0.1-0.6,0.3-1.2,0.6-1.9c0.2-0.6,0.5-1.2,0.9-1.8s0.7-1.1,1.1-1.6
				c0.4-0.5,0.8-0.8,1.3-1.1s0.9-0.5,1.4-0.5s1,0.2,1.5,0.4c0.5,0.3,0.8,0.7,1.2,1.1c0.3,0.5,0.6,1,0.8,1.6s0.3,1.2,0.3,1.8
				c0,0.7-0.2,1.4-0.5,2.1s-0.7,1.3-1.2,1.9s-1.1,1.1-1.7,1.6c-0.6,0.5-1.3,0.9-2,1.2c0.1,0.2,0.2,0.4,0.4,0.7
				c0.2,0.3,0.4,0.5,0.6,0.8c0.2,0.3,0.5,0.5,0.7,0.8c0.2,0.2,0.4,0.4,0.6,0.6c0-0.5,0.1-0.9,0.2-1.4c0.1-0.5,0.3-0.9,0.6-1.4
				c0.3-0.4,0.6-0.9,0.9-1.3c0.4-0.4,0.7-0.7,1.1-1c0.4-0.3,0.8-0.5,1.3-0.7c0.4-0.2,0.9-0.3,1.3-0.3h0.6v3.8h-0.6
				c-0.4,0-0.7,0.1-1,0.3c-0.3,0.2-0.6,0.4-0.9,0.7c-0.3,0.3-0.5,0.6-0.6,1c-0.2,0.4-0.2,0.7-0.2,1.1c0,0.2,0,0.3,0,0.4
				s0.1,0.3,0.1,0.4c0.1,0.1,0.1,0.3,0.3,0.5c0.1,0.2,0.2,0.3,0.4,0.5l-2.2,2.7c-1-0.6-1.8-1.2-2.5-1.8c-0.7-0.6-1.4-1.2-1.9-1.9
				c-0.5-0.6-1-1.3-1.3-1.9c-0.4-0.7-0.7-1.3-0.9-2H144v-3.7H143.7z M150.7,18.5c0-0.2,0-0.5,0-0.7c0-0.3-0.1-0.5-0.1-0.7
				s-0.1-0.4-0.2-0.6s-0.2-0.3-0.4-0.4c-0.2,0.1-0.3,0.2-0.5,0.5c-0.2,0.2-0.4,0.5-0.5,0.8c-0.2,0.3-0.4,0.7-0.5,1
				c-0.2,0.4-0.3,0.8-0.5,1.2c-0.1,0.4-0.2,0.8-0.3,1.1c-0.1,0.4-0.1,0.7-0.1,1c0.3-0.1,0.7-0.2,1.1-0.4c0.4-0.2,0.7-0.4,1-0.7
				c0.3-0.3,0.6-0.6,0.8-0.9C150.6,19.2,150.7,18.8,150.7,18.5z"/>
			<path class="st1" d="M156.1,21.5h1.6c0.3,0,0.7,0,1.1-0.1c0.4-0.1,0.8-0.1,1.1-0.3c0.3-0.1,0.6-0.3,0.9-0.5
				c0.2-0.2,0.4-0.5,0.4-0.8c0-0.2-0.1-0.5-0.2-0.9c-0.1-0.4-0.3-0.8-0.4-1.3c-0.2-0.5-0.4-1-0.6-1.5c-0.2-0.5-0.5-1-0.7-1.5
				l3.4-1.7c0.2,0.5,0.4,1,0.7,1.6c0.2,0.6,0.4,1.1,0.6,1.7c0.2,0.6,0.3,1.2,0.4,1.7c0.1,0.6,0.2,1.1,0.2,1.7c0,1-0.2,1.8-0.5,2.5
				s-0.8,1.3-1.3,1.7c-0.6,0.4-1.3,0.8-2.1,1s-1.7,0.3-2.6,0.3h-1.9L156.1,21.5L156.1,21.5z M159.9,31.9l-2.7-2.7l2.7-2.7l2.7,2.7
				L159.9,31.9z"/>
			<path class="st1" d="M184.8,25.3c-0.7,0-1.5,0-2.3-0.1s-1.7-0.2-2.5-0.3c-0.8-0.2-1.6-0.4-2.4-0.7c-0.8-0.3-1.5-0.7-2.1-1.2
				s-1.1-1.1-1.5-1.8c-0.4-0.7-0.6-1.5-0.6-2.5c0-0.5,0.1-0.9,0.2-1.4c0.1-0.4,0.2-0.9,0.4-1.3c0.2-0.4,0.4-0.8,0.6-1.3
				c0.2-0.4,0.4-0.8,0.7-1.2l2.8,2.4c-0.1,0.2-0.3,0.4-0.4,0.7c-0.2,0.3-0.3,0.5-0.5,0.8c-0.1,0.3-0.3,0.6-0.4,0.9
				c-0.1,0.3-0.1,0.6-0.1,0.8c0,0.3,0.1,0.6,0.3,0.8c0.2,0.2,0.5,0.4,0.9,0.6s0.8,0.3,1.3,0.5c0.5,0.1,1.1,0.2,1.7,0.3
				c0.6,0.1,1.2,0.1,1.9,0.2c0.7,0,1.3,0.1,2,0.1c0.3,0,0.6,0,1,0s0.7,0,1,0s0.6,0,0.8,0s0.4,0,0.5,0c-0.3-0.3-0.5-0.7-0.8-1.2
				c-0.2-0.5-0.4-1-0.4-1.6c0-0.5,0-0.9,0.2-1.4c0.1-0.5,0.3-1,0.5-1.4c0.2-0.5,0.5-0.9,0.8-1.3c0.3-0.4,0.7-0.7,1.1-1
				c0.4-0.3,0.8-0.5,1.3-0.7s0.9-0.2,1.4-0.2c0.7,0,1.3,0.2,1.9,0.5c0.6,0.3,1.1,0.8,1.6,1.3c0.4,0.5,0.8,1.1,1,1.8
				c0.3,0.7,0.4,1.3,0.4,2c0,0.6-0.1,1.1-0.3,1.6s-0.4,1-0.7,1.5c0.4,0,0.8,0.1,1.1,0.1c0.4,0,0.7,0,1,0h0.4v3.8h-0.3
				c-0.5,0-1,0-1.5,0s-1-0.1-1.6-0.1c-0.5-0.1-1-0.2-1.5-0.3s-1-0.3-1.5-0.5c-0.2,0.1-0.5,0.2-0.8,0.3c-0.3,0.1-0.7,0.2-1.1,0.2
				c-0.4,0.1-0.9,0.1-1.4,0.2s-1,0.1-1.5,0.1s-1,0.1-1.4,0.1C185.6,25.3,185.1,25.3,184.8,25.3z M192.7,10.7L190,8l2.7-2.7l2.7,2.7
				L192.7,10.7z M194,18.5c0-0.3-0.1-0.5-0.2-0.7c-0.1-0.2-0.3-0.4-0.5-0.6s-0.4-0.3-0.6-0.5c-0.2-0.1-0.4-0.2-0.6-0.3
				c-0.2,0-0.4,0.1-0.6,0.2c-0.2,0.1-0.5,0.2-0.7,0.4c-0.2,0.2-0.4,0.4-0.5,0.7c-0.1,0.3-0.2,0.6-0.2,1c0,0.1,0.1,0.3,0.2,0.5
				c0.1,0.2,0.3,0.4,0.5,0.6s0.4,0.4,0.7,0.6s0.5,0.3,0.8,0.4c0.2-0.1,0.4-0.3,0.6-0.5c0.2-0.2,0.4-0.4,0.6-0.6
				c0.2-0.2,0.3-0.4,0.4-0.7C193.9,18.9,194,18.7,194,18.5z"/>
			<path class="st1" d="M209.6,21.5v3.8h-11.3v-3.8H209.6z"/>
			<path class="st1" d="M219.8,21.5v3.8h-0.3c-0.4,0-0.8,0-1.1-0.1c-0.4-0.1-0.7-0.2-1-0.3c-0.3-0.1-0.6-0.3-0.9-0.4
				c-0.3-0.2-0.5-0.3-0.7-0.5c-0.4,0.3-0.8,0.5-1.3,0.7s-1,0.3-1.5,0.4s-1.1,0.2-1.7,0.2c-0.6,0-1.1,0-1.7,0h-0.4v-3.8h0.4
				c0.6,0,1.1,0,1.5,0c0.5,0,0.8-0.1,1.2-0.2c0.3-0.1,0.6-0.2,0.9-0.3s0.4-0.3,0.6-0.5c0.2-0.3,0.3-0.5,0.3-0.9c0-0.3,0-0.6,0-1
				c0-0.3-0.1-0.7-0.2-1c-0.1-0.3-0.2-0.6-0.2-1l3.5-1c0.1,0.4,0.2,0.7,0.2,1c0.1,0.3,0.1,0.6,0.2,0.9c0.1,0.3,0.1,0.6,0.1,0.9
				s0.1,0.6,0.1,0.9c0,0.2,0.1,0.4,0.1,0.7c0.1,0.3,0.1,0.5,0.3,0.7c0.1,0.2,0.3,0.4,0.5,0.5s0.5,0.2,0.8,0.2L219.8,21.5L219.8,21.5
				z M213.8,28.8l-2.3,2.3l-2.3-2.3l2.3-2.3L213.8,28.8l2.3-2.3l2.3,2.3l-2.3,2.3L213.8,28.8z"/>
			<path class="st1" d="M219.3,21.5h0.9c0.2,0,0.4,0,0.6,0c0.2,0,0.4,0,0.5,0c0.2,0,0.3,0,0.4-0.1c-0.1-0.2-0.3-0.3-0.4-0.5
				c-0.1-0.2-0.3-0.4-0.4-0.6c-0.1-0.2-0.2-0.5-0.3-0.7c-0.1-0.3-0.1-0.5-0.1-0.8c0-0.5,0-0.9,0.1-1.4s0.3-1,0.5-1.4
				c0.2-0.5,0.5-0.9,0.8-1.3c0.3-0.4,0.7-0.7,1.1-1c0.4-0.3,0.8-0.5,1.3-0.7s0.9-0.2,1.4-0.2c0.7,0,1.3,0.2,1.9,0.5
				c0.6,0.3,1.1,0.8,1.6,1.3c0.4,0.5,0.8,1.1,1,1.8c0.3,0.7,0.4,1.3,0.4,2c0,0.6-0.1,1.1-0.3,1.6s-0.4,1-0.7,1.5
				c0.2,0,0.5,0.1,0.8,0.1s0.7,0,1.2,0h0.2v3.8h-0.5c-0.5,0-1,0-1.5,0s-0.9-0.1-1.4-0.1c-0.5-0.1-0.9-0.2-1.4-0.3
				c-0.5-0.1-0.9-0.3-1.4-0.5c-0.3,0.2-0.7,0.3-1.1,0.4c-0.4,0.1-0.9,0.2-1.5,0.3c-0.5,0.1-1.1,0.1-1.7,0.2c-0.6,0-1.1,0.1-1.7,0.1
				h-0.5v-4H219.3z M225.4,11l-2.7-2.7l2.7-2.7l2.7,2.7L225.4,11z M227.4,18.5c0-0.3-0.1-0.5-0.2-0.7c-0.1-0.2-0.3-0.4-0.5-0.6
				s-0.4-0.3-0.6-0.5c-0.2-0.1-0.4-0.2-0.6-0.3c-0.2,0-0.4,0.1-0.6,0.2c-0.2,0.1-0.5,0.2-0.7,0.4c-0.2,0.2-0.4,0.4-0.5,0.7
				c-0.1,0.3-0.2,0.6-0.2,1c0,0.1,0.1,0.3,0.2,0.5c0.1,0.2,0.3,0.4,0.5,0.6s0.4,0.4,0.7,0.6s0.5,0.3,0.8,0.4
				c0.2-0.1,0.4-0.3,0.6-0.5c0.2-0.2,0.4-0.4,0.6-0.6c0.2-0.2,0.3-0.4,0.4-0.7C227.3,18.9,227.4,18.7,227.4,18.5z"/>
			<path class="st1" d="M231.3,21.5h2.4c0.6,0,1.2,0,1.9-0.1s1.3-0.2,2-0.3c0.7-0.1,1.4-0.3,2-0.5c0.7-0.2,1.4-0.4,2-0.6
				c0.7-0.2,1.3-0.4,1.9-0.7c0.6-0.2,1.1-0.5,1.6-0.7c-0.5-0.1-1-0.3-1.7-0.5c-0.6-0.2-1.2-0.4-1.8-0.6s-1.2-0.4-1.8-0.5
				s-1.1-0.2-1.6-0.2c-0.3,0-0.6,0.1-0.9,0.2c-0.3,0.1-0.5,0.3-0.8,0.4c-0.2,0.2-0.4,0.4-0.6,0.6c-0.2,0.2-0.3,0.4-0.5,0.6
				c-0.1,0.2-0.2,0.3-0.3,0.4l-0.1,0.2l-2.8-1.6c0.3-0.6,0.7-1.2,1.2-1.7c0.4-0.5,0.9-1,1.5-1.4c0.5-0.4,1.1-0.8,1.7-1
				c0.6-0.2,1.2-0.4,1.7-0.4c0.4,0,0.9,0.1,1.3,0.2s0.9,0.2,1.3,0.4c0.4,0.1,0.9,0.3,1.3,0.5c0.4,0.2,0.9,0.4,1.3,0.6
				c0.5,0.2,1,0.4,1.5,0.7c0.6,0.2,1.1,0.4,1.7,0.6c0.6,0.2,1.2,0.3,1.8,0.4s1.2,0.2,1.8,0.2l-0.6,3.5c-0.2,0.1-0.4,0.2-0.6,0.3
				c-0.2,0.1-0.4,0.2-0.6,0.3l-0.3,0.2c0.2,0.2,0.4,0.4,0.7,0.5s0.6,0.2,0.9,0.3c0.3,0.1,0.6,0.1,0.9,0.1c0.3,0,0.5,0,0.7,0h0.4v3.8
				h-0.4c-0.8,0-1.5-0.1-2.2-0.2s-1.3-0.3-1.8-0.6c-0.6-0.3-1-0.6-1.5-0.9c-0.4-0.4-0.8-0.8-1.1-1.3c-0.8,0.4-1.6,0.8-2.5,1.1
				c-0.9,0.4-1.7,0.7-2.7,1c-0.9,0.3-1.9,0.5-2.9,0.7s-2,0.3-3.1,0.3h-2.4v-4.3C231.2,21.5,231.3,21.5,231.3,21.5z M238.1,11.7
				L235.4,9l2.7-2.7l2.7,2.7L238.1,11.7z"/>
			<path class="st1" d="M251.3,21.5h2.9c0.3,0,0.7,0,1.1-0.1c0.4,0,0.8-0.1,1.2-0.2s0.7-0.3,0.9-0.5c0.2-0.2,0.4-0.5,0.4-0.9
				c0-0.2-0.1-0.5-0.2-0.9s-0.3-0.8-0.5-1.3s-0.4-1-0.6-1.5s-0.5-1-0.7-1.5l3.4-1.7c0.2,0.5,0.4,1,0.7,1.6c0.2,0.6,0.4,1.1,0.6,1.7
				c0.2,0.6,0.3,1.2,0.4,1.7c0.1,0.6,0.2,1.1,0.2,1.7c0,1-0.2,1.8-0.5,2.5c-0.4,0.7-0.9,1.3-1.5,1.7c-0.6,0.4-1.4,0.8-2.2,0.9
				c-0.8,0.2-1.7,0.3-2.7,0.3h-2.9V21.5z M256.9,9.2l-2.3,2.3l-2.3-2.3l2.3-2.3L256.9,9.2l2.3-2.3l2.3,2.3l-2.3,2.3L256.9,9.2z"/>
			<path class="st1" d="M275.8,25.3c-0.6,0-1.3-0.1-2-0.3c-0.7-0.2-1.3-0.5-1.8-1c-0.5-0.4-1-0.9-1.3-1.5s-0.5-1.3-0.5-2
				c0-1.6,0.7-3.3,2.1-5c0.1-0.1,0.2-0.2,0.3-0.3c0.1-0.1,0.1-0.2,0.2-0.2c0.1-0.1,0.1-0.1,0.2-0.2l0.2-0.2l-0.7-0.6l2.4-2.9
				c0.4,0.3,0.9,0.7,1.5,1.2s1.2,1.2,2,2c2.1,2.4,3.1,4.5,3.1,6.3c0,0.8-0.2,1.5-0.5,2.1s-0.8,1.1-1.3,1.5s-1.1,0.7-1.8,0.9
				C277.1,25.2,276.5,25.3,275.8,25.3z M278.1,20.4c0-0.2-0.1-0.5-0.2-0.8c-0.2-0.3-0.4-0.6-0.6-1c-0.3-0.3-0.5-0.7-0.9-1
				c-0.3-0.3-0.6-0.7-1-1c-0.2,0.2-0.4,0.5-0.7,0.8c-0.2,0.3-0.5,0.6-0.7,1c-0.2,0.3-0.4,0.7-0.5,1c-0.1,0.4-0.2,0.7-0.2,1
				c0,0.2,0.1,0.4,0.3,0.5c0.2,0.1,0.4,0.3,0.6,0.3c0.2,0.1,0.5,0.2,0.8,0.2s0.5,0.1,0.7,0.1s0.5,0,0.8-0.1s0.5-0.1,0.8-0.2
				c0.2-0.1,0.4-0.2,0.6-0.3C278,20.8,278.1,20.7,278.1,20.4z"/>
			<path class="st1" d="M289.1,18.2c0.2,0.6,0.4,1.2,0.5,1.8c0.2,0.6,0.3,1.2,0.4,1.8c0.1,0.6,0.2,1.2,0.2,1.7
				c0,0.8-0.1,1.5-0.3,2.2c-0.2,0.7-0.5,1.4-0.9,2.1s-0.8,1.3-1.3,1.9s-1.1,1.2-1.7,1.7s-1.3,1.1-2,1.5c-0.7,0.5-1.4,0.9-2.2,1.3
				l-2.2-3c0.6-0.3,1.2-0.6,1.7-1c0.6-0.4,1.2-0.8,1.7-1.2c0.5-0.4,1-0.9,1.5-1.3c0.5-0.5,0.9-0.9,1.2-1.4c0.3-0.5,0.6-0.9,0.8-1.4
				c0.2-0.5,0.3-1,0.3-1.4c0-0.3,0-0.7-0.1-1.1s-0.2-0.8-0.4-1.3c-0.2-0.5-0.3-0.9-0.6-1.4c-0.2-0.5-0.4-1-0.7-1.6l3.5-1.6
				C288.8,17,288.9,17.6,289.1,18.2z"/>
			<path class="st1" d="M292.5,23.3c0-0.7,0.1-1.4,0.1-2.1s0-1.4,0.1-2c0-0.6,0-1.2,0-1.8c0-1.1-0.1-2.1-0.1-3s-0.1-1.6-0.1-2.3
				s-0.1-1.2-0.1-1.7s-0.1-1-0.1-1.4s-0.1-0.8-0.2-1.2c-0.1-0.4-0.1-0.7-0.2-1.1l3.7-1.2c0.2,1.1,0.3,2.1,0.4,3.2s0.2,2.1,0.2,3.1
				c0.1,1,0.1,1.9,0.1,2.8c0,0.9,0,1.6,0,2.2s0,1.1,0,1.8c0,0.6,0,1.3,0,2s0,1.4-0.1,2.1c0,0.7-0.1,1.4-0.1,2.1l-3.7,0.6
				C292.4,24.7,292.5,24,292.5,23.3z"/>
			<path class="st1" d="M297.4,30.1c1.1-0.2,2.2-0.5,3.1-0.8s1.7-0.7,2.4-1.1c0.7-0.4,1.3-0.9,1.7-1.3c0.5-0.5,0.8-1,1-1.4
				c-0.3,0-0.7,0-1.1,0s-0.7,0-0.9,0c-0.8-0.1-1.5-0.2-2.2-0.4c-0.6-0.2-1.2-0.6-1.7-1s-0.8-0.9-1.1-1.5c-0.3-0.6-0.4-1.3-0.4-2
				c0-0.5,0.1-1,0.2-1.5s0.3-1,0.4-1.5c0.2-0.5,0.4-0.9,0.7-1.4c0.3-0.4,0.6-0.8,1-1.1s0.8-0.6,1.2-0.8c0.4-0.2,0.9-0.3,1.4-0.3
				c0.6,0,1.2,0.1,1.7,0.3s1,0.5,1.4,0.9s0.8,0.8,1.1,1.3c0.3,0.5,0.6,1.1,0.9,1.6c0.2,0.6,0.4,1.2,0.6,1.8c0.2,0.6,0.3,1.2,0.3,1.8
				h0.5v3.8h-0.8c-0.3,1.2-0.8,2.2-1.5,3.2s-1.5,1.8-2.5,2.5s-2,1.3-3.2,1.8s-2.4,0.8-3.6,1L297.4,30.1z M303.3,17.5
				c-0.2,0-0.4,0-0.6,0.2c-0.2,0.1-0.4,0.3-0.6,0.6c-0.2,0.3-0.3,0.5-0.5,0.8c-0.1,0.3-0.2,0.6-0.2,0.9s0.1,0.5,0.3,0.7
				c0.2,0.2,0.4,0.3,0.6,0.4c0.3,0.1,0.6,0.2,0.9,0.3c0.3,0.1,0.7,0.1,1,0.1s0.6,0,0.9,0h0.7c-0.1-0.5-0.3-1-0.4-1.4
				c-0.2-0.5-0.4-0.9-0.6-1.2s-0.5-0.7-0.7-0.9C303.9,17.8,303.6,17.6,303.3,17.5z"/>
			<path class="st1" d="M320.7,21.5v3.8h-11.3v-3.8H320.7z"/>
			<path class="st1" d="M329.1,21.5v3.8h-0.3c-0.8,0-1.4-0.1-2-0.3c-0.5-0.2-1-0.5-1.4-0.9c-0.6,0.4-1.3,0.7-2,0.9
				c-0.8,0.2-1.7,0.3-2.8,0.3h-0.4v-3.8h0.4c1.1,0,1.9-0.2,2.5-0.5c0.6-0.4,0.8-0.9,0.8-1.6c0-0.2,0-0.6-0.1-1s-0.2-1-0.4-1.7
				l3.4-0.8c0.1,0.4,0.2,0.8,0.3,1.2c0.1,0.3,0.2,0.6,0.2,0.9s0.1,0.5,0.1,0.8s0,0.5,0.1,0.7c0,0.2,0,0.5,0.1,0.7
				c0,0.3,0.1,0.5,0.2,0.7s0.2,0.4,0.4,0.5s0.4,0.2,0.7,0.2h0.2L329.1,21.5L329.1,21.5z M324,13.9l-2.7-2.7l2.7-2.7l2.7,2.7
				L324,13.9z"/>
			<path class="st1" d="M328.9,21.5c0.4,0,0.8-0.1,1.2-0.2c0.4-0.1,0.7-0.4,1-0.8s0.6-1,0.9-1.7s0.6-1.7,0.8-2.9l3.2,0.5
				c0,0,0,0.1,0,0.2c0,0.2-0.1,0.5-0.2,0.8c-0.1,0.4-0.1,0.8-0.2,1.2c-0.1,0.5-0.1,0.9-0.1,1.3s0.1,0.8,0.1,1.1
				c0.1,0.3,0.3,0.5,0.5,0.5c0.2,0.1,0.5,0,0.7-0.1c0.2-0.2,0.5-0.4,0.7-0.7c0.2-0.3,0.4-0.7,0.6-1.1s0.3-0.8,0.5-1.3
				c0.1-0.4,0.3-0.9,0.4-1.3s0.2-0.8,0.2-1.1l3.2,0.5c0,0.2,0,0.5-0.1,0.8c0,0.3-0.1,0.7-0.1,1.1s0,0.8,0,1.1c0,0.4,0,0.7,0.1,1
				s0.2,0.6,0.4,0.8c0.2,0.2,0.4,0.3,0.7,0.3c0.3,0,0.5-0.1,0.7-0.3s0.4-0.4,0.5-0.7c0.1-0.3,0.2-0.6,0.3-1c0.1-0.4,0.1-0.7,0.2-1.1
				c0-0.4,0.1-0.7,0.1-1.1s0-0.7,0-0.9l3.2-0.5l0.4,3.4c0,0.4,0.2,0.7,0.3,1c0.2,0.3,0.3,0.5,0.6,0.7c0.2,0.2,0.4,0.3,0.7,0.4
				c0.2,0.1,0.5,0.1,0.7,0.1h0.4v3.8h-0.4c-0.8,0-1.5-0.1-2.2-0.4s-1.3-0.7-1.8-1.4c0,0.1-0.1,0.1-0.1,0.2l-0.1,0.1l0,0
				c-0.4,0.5-0.9,0.8-1.5,1.1c-0.6,0.3-1.2,0.4-1.8,0.4c-0.7,0-1.4-0.2-2-0.5s-1.1-0.7-1.5-1.3c-0.5,0.5-1,1-1.6,1.3s-1.3,0.5-2,0.5
				s-1.3-0.2-1.9-0.5s-1.1-0.7-1.5-1.2c-0.4,0.6-1,1-1.6,1.3s-1.4,0.4-2.4,0.4h-0.3L328.9,21.5C328.8,21.5,328.9,21.5,328.9,21.5z
				 M336.1,16.4L336.1,16.4L336.1,16.4z M340.9,11.3l-2.3,2.3l-2.3-2.3l2.3-2.3L340.9,11.3l2.3-2.3l2.3,2.3l-2.3,2.3L340.9,11.3z
				 M343,7.8l-2.1,2.1l-2.1-2.1l2.1-2.1L343,7.8z"/>
			<path class="st1" d="M350.9,21.5h2.5c1.3,0,2.5-0.1,3.6-0.2c1.1-0.2,2.1-0.4,3-0.6c0.9-0.3,1.8-0.6,2.7-0.9
				c0.8-0.3,1.7-0.7,2.5-1.1c-0.5-0.2-1.1-0.3-1.6-0.6c-0.5-0.2-1.1-0.4-1.6-0.6s-1.1-0.4-1.6-0.5s-1.1-0.2-1.6-0.2
				c-0.4,0-0.7,0.1-1.1,0.3c-0.4,0.2-0.7,0.4-1,0.7c-0.3,0.3-0.5,0.5-0.7,0.7s-0.3,0.4-0.4,0.5l-2.8-1.8c0.3-0.5,0.7-1.1,1.1-1.6
				s0.9-1,1.4-1.4s1-0.7,1.6-1c0.6-0.2,1.2-0.4,1.8-0.4c0.5,0,0.9,0,1.4,0.1s0.9,0.2,1.4,0.4s0.9,0.3,1.4,0.5s0.9,0.4,1.4,0.6
				c0.4,0.2,0.9,0.4,1.3,0.6c0.4,0.2,0.9,0.4,1.3,0.5c0.5,0.2,0.9,0.3,1.4,0.4c0.5,0.1,1,0.2,1.5,0.2l-0.3,3.7l-1.7,0.8
				c-0.7,0.3-1.4,0.7-2.1,1c-0.7,0.4-1.4,0.7-2.1,1s-1.4,0.6-2.2,0.9c-0.8,0.3-1.6,0.6-2.4,0.8c-0.8,0.2-1.7,0.4-2.6,0.5
				s-1.9,0.2-3,0.2h-2.5L350.9,21.5L350.9,21.5z M360.7,31.9l-2.7-2.7l2.7-2.7l2.7,2.7L360.7,31.9z"/>
		</g>
	</g>
</g>
<g>
	<path class="st1" d="M230.1,69h13.8c1.2,0,2.1-0.3,2.7-0.8c0.6-0.5,0.8-1.4,0.8-2.6v-3.1v-0.6h0.7h2.9h0.7v0.6v3
		c0,2.4-0.7,4.3-2,5.6c-1.3,1.3-3.3,1.9-5.8,1.9h-13.7c-2.6,0-4.5-0.6-5.9-1.9s-2.1-3.1-2.1-5.6v-3.1v-0.6h0.7h2.9h0.7v0.6v3.1
		c0,1.2,0.3,2.1,0.9,2.6C227.8,68.8,228.8,69,230.1,69z M231,59.2l2.8-2.6l2.8,2.6l-2.8,2.6L231,59.2z M237.1,59.2l2.8-2.6l2.8,2.6
		c-0.1,0.1-0.1,0.1-0.2,0.2c-0.1,0.1-0.5,0.5-1.2,1.1c-0.6,0.6-1.1,1-1.5,1.3L237.1,59.2z"/>
	<path class="st1" d="M262.7,73.1h-0.8c-2,0-3.5-0.6-4.6-1.7c-1-1.1-1.6-2.7-1.6-4.8V53v-0.6h0.7h2.8h0.7V53v13.6
		c0,0.9,0.2,1.5,0.5,1.8c0.3,0.4,0.8,0.5,1.6,0.5h0.7c0.1,0,0.2,0.2,0.3,0.7c0.1,0.4,0.1,0.9,0.1,1.3v0.2c0,0.4,0,0.9-0.1,1.3
		C262.9,72.8,262.8,73.1,262.7,73.1z"/>
	<path class="st1" d="M266.8,69c0.1,0,0.2,0.2,0.3,0.7c0.1,0.4,0.1,0.9,0.1,1.3v0.2c0,0.4,0,0.9-0.1,1.3s-0.2,0.7-0.3,0.7h-4.3
		c-0.1,0-0.2-0.2-0.3-0.7c-0.1-0.4-0.1-0.9-0.1-1.3V71c0-0.4,0-0.8,0.1-1.3c0.1-0.4,0.2-0.7,0.3-0.7H266.8z"/>
	<path class="st1" d="M271,69c0.1,0,0.2,0.2,0.3,0.7c0.1,0.4,0.1,0.9,0.1,1.3v0.2c0,0.4,0,0.9-0.1,1.3s-0.2,0.7-0.3,0.7h-4.3
		c-0.1,0-0.2-0.2-0.3-0.7c-0.1-0.4-0.1-0.9-0.1-1.3V71c0-0.4,0-0.8,0.1-1.3c0.1-0.4,0.2-0.7,0.3-0.7H271z"/>
	<path class="st1" d="M275.2,69c0.1,0,0.2,0.2,0.3,0.7c0.1,0.4,0.1,0.9,0.1,1.3v0.2c0,0.4,0,0.9-0.1,1.3s-0.2,0.7-0.3,0.7h-4.3
		c-0.1,0-0.2-0.2-0.3-0.7c-0.1-0.4-0.1-0.9-0.1-1.3V71c0-0.4,0-0.8,0.1-1.3c0.1-0.4,0.2-0.7,0.3-0.7H275.2z"/>
	<path class="st1" d="M279.4,69c0.1,0,0.2,0.2,0.3,0.7c0.1,0.4,0.1,0.9,0.1,1.3v0.2c0,0.4,0,0.9-0.1,1.3s-0.2,0.7-0.3,0.7H275
		c-0.1,0-0.2-0.2-0.3-0.7c-0.1-0.4-0.1-0.9-0.1-1.3V71c0-0.4,0-0.8,0.1-1.3c0.1-0.4,0.2-0.7,0.3-0.7H279.4z"/>
	<path class="st1" d="M279.2,69h3.6c-0.9-1.1-1.4-2.3-1.4-3.6c0-1.9,0.7-3.6,2.1-4.8c1.4-1.3,3.1-1.9,5.2-1.9c2.4,0,4.3,0.8,5.8,2.5
		l0.3,0.3l-0.2,0.4l-1.2,2.1l-0.4,0.7l-0.6-0.6c-1-0.9-2.2-1.3-3.5-1.3c-0.9,0-1.6,0.2-2.2,0.7s-0.9,1.1-0.9,1.9s0.4,1.5,1.3,2.2
		c0.8,0.6,1.5,0.9,1.9,0.9c0.3,0,1-0.1,2.1-0.3l3.5-0.8l0.8-0.2V68v2.8v0.5l-0.5,0.1c-3.9,1.1-7.4,1.6-10.5,1.6h-5.2
		c-0.1,0-0.2-0.2-0.3-0.7c-0.1-0.4-0.1-0.9-0.1-1.3v-0.2c0-0.4,0-0.8,0.1-1.3C279,69.3,279.1,69,279.2,69z"/>
	<path class="st1" d="M306.4,73.1h-0.8c-2,0-3.5-0.6-4.6-1.7c-1-1.1-1.6-2.7-1.6-4.8V53v-0.6h0.7h2.8h0.7V53v13.6
		c0,0.9,0.2,1.5,0.5,1.8c0.3,0.4,0.8,0.5,1.6,0.5h0.7c0.1,0,0.2,0.2,0.3,0.7c0.1,0.4,0.1,0.9,0.1,1.3v0.2c0,0.4,0,0.9-0.1,1.3
		S306.5,73.1,306.4,73.1z"/>
	<path class="st1" d="M310.5,69c0.1,0,0.2,0.2,0.3,0.7c0.1,0.4,0.1,0.9,0.1,1.3v0.2c0,0.4,0,0.9-0.1,1.3s-0.2,0.7-0.3,0.7h-4.3
		c-0.1,0-0.2-0.2-0.3-0.7c-0.1-0.4-0.1-0.9-0.1-1.3V71c0-0.4,0-0.8,0.1-1.3c0.1-0.4,0.2-0.7,0.3-0.7H310.5z"/>
	<path class="st1" d="M314.7,69c0.1,0,0.2,0.2,0.3,0.7c0.1,0.4,0.1,0.9,0.1,1.3v0.2c0,0.4,0,0.9-0.1,1.3s-0.2,0.7-0.3,0.7h-4.3
		c-0.1,0-0.2-0.2-0.3-0.7c-0.1-0.4-0.1-0.9-0.1-1.3V71c0-0.4,0-0.8,0.1-1.3c0.1-0.4,0.2-0.7,0.3-0.7H314.7z"/>
	<path class="st1" d="M318.9,69c0.1,0,0.2,0.2,0.3,0.7c0.1,0.4,0.1,0.9,0.1,1.3v0.2c0,0.4,0,0.9-0.1,1.3s-0.2,0.7-0.3,0.7h-4.3
		c-0.1,0-0.2-0.2-0.3-0.7c-0.1-0.4-0.1-0.9-0.1-1.3V71c0-0.4,0-0.8,0.1-1.3c0.1-0.4,0.2-0.7,0.3-0.7H318.9z"/>
	<path class="st1" d="M318.7,69h1.6c1.2,0,2-0.2,2.5-0.6s0.8-1,0.8-1.8v-4V62h0.7h2.9h0.7v0.6v4.1c0,0.8,0.2,1.5,0.6,1.8
		c0.4,0.4,1,0.5,1.9,0.5c0.8,0,1.4-0.2,1.8-0.6s0.6-1,0.6-1.8v-4V62h0.7h2.8h0.7v0.6v4c0,0.9,0.2,1.5,0.6,1.8c0.4,0.4,1,0.5,1.8,0.5
		c0.6,0,1.1-0.2,1.4-0.5s0.4-0.9,0.4-1.8V62v-0.6h0.7h2.9h0.7V62v4.7c0,1.9-0.5,3.5-1.6,4.6c-1,1.1-2.5,1.7-4.4,1.7
		s-3.4-0.6-4.5-1.7c-1.1,1.2-2.6,1.7-4.6,1.7c-1.9,0-3.3-0.6-4.4-1.8c-1.2,1.2-3,1.8-5.5,1.8h-1.6c-0.1,0-0.2-0.2-0.3-0.7
		c-0.1-0.4-0.1-0.9-0.1-1.3v-0.2c0-0.4,0-0.8,0.1-1.3C318.5,69.3,318.6,69,318.7,69z"/>
	<path class="st1" d="M244.7,99.4h-0.2v0.6c0,2.1-0.9,3.6-2.6,4.7s-4.1,1.6-7.3,1.6H233c-3.4,0-6-0.8-7.8-2.3
		c-1.8-1.6-2.7-3.8-2.7-6.8V92v-0.6h0.7h2.9h0.7V92v5.3c0,1.8,0.5,3.1,1.5,3.9s2.6,1.2,4.7,1.2h1.6c0.8,0,1.6,0,2.2-0.1
		c0.6-0.1,1.2-0.2,1.8-0.4c0.5-0.2,0.9-0.4,1.2-0.8c0.3-0.3,0.4-0.7,0.4-1.2v-0.5h-3.6c-0.5,0-0.9-0.1-1.2-0.4s-0.5-0.7-0.7-1.4
		c-0.3-0.8-0.3-1.4-0.3-1.7c0.1-0.3,0.4-0.5,1-0.5h9.2c0.1,0,0.2,0.2,0.3,0.7c0.1,0.4,0.1,0.9,0.1,1.3v0.2c0,0.4,0,0.9-0.1,1.3
		C245,99.2,244.9,99.4,244.7,99.4z M246.8,95.4c0.1,0,0.1,0.2,0.2,0.7c0,0.4,0.1,0.9,0.1,1.3v0.2c0,0.4,0,0.9-0.1,1.3
		c0,0.4-0.1,0.7-0.2,0.7h-2.5c-0.1,0-0.1-0.2-0.2-0.7c0-0.4-0.1-0.9-0.1-1.3v-0.2c0-0.4,0-0.8,0.1-1.3c0-0.4,0.1-0.7,0.2-0.7H246.8z
		"/>
	<path class="st1" d="M250.8,95.4c0.1,0,0.2,0.2,0.3,0.7c0.1,0.4,0.1,0.9,0.1,1.3v0.2c0,0.4,0,0.9-0.1,1.3s-0.2,0.7-0.3,0.7h-4.3
		c-0.1,0-0.2-0.2-0.3-0.7c-0.1-0.4-0.1-0.9-0.1-1.3v-0.2c0-0.4,0-0.8,0.1-1.3c0.1-0.4,0.2-0.7,0.3-0.7H250.8z"/>
	<path class="st1" d="M255,95.4c0.1,0,0.2,0.2,0.3,0.7c0.1,0.4,0.1,0.9,0.1,1.3v0.2c0,0.4,0,0.9-0.1,1.3s-0.2,0.7-0.3,0.7h-4.3
		c-0.1,0-0.2-0.2-0.3-0.7c-0.1-0.4-0.1-0.9-0.1-1.3v-0.2c0-0.4,0-0.8,0.1-1.3c0.1-0.4,0.2-0.7,0.3-0.7H255z"/>
	<path class="st1" d="M259.2,95.4c0.1,0,0.2,0.2,0.3,0.7c0.1,0.4,0.1,0.9,0.1,1.3v0.2c0,0.4,0,0.9-0.1,1.3s-0.2,0.7-0.3,0.7h-4.3
		c-0.1,0-0.2-0.2-0.3-0.7c-0.1-0.4-0.1-0.9-0.1-1.3v-0.2c0-0.4,0-0.8,0.1-1.3c0.1-0.4,0.2-0.7,0.3-0.7H259.2z"/>
	<path class="st1" d="M263.3,95.4c0.1,0,0.2,0.2,0.3,0.7c0.1,0.4,0.1,0.9,0.1,1.3v0.2c0,0.4,0,0.9-0.1,1.3s-0.2,0.7-0.3,0.7H259
		c-0.1,0-0.2-0.2-0.3-0.7c-0.1-0.4-0.1-0.9-0.1-1.3v-0.2c0-0.4,0-0.8,0.1-1.3c0.1-0.4,0.2-0.7,0.3-0.7H263.3z"/>
	<path class="st1" d="M267.5,95.4c0.1,0,0.2,0.2,0.3,0.7c0.1,0.4,0.1,0.9,0.1,1.3v0.2c0,0.4,0,0.9-0.1,1.3s-0.2,0.7-0.3,0.7h-4.3
		c-0.1,0-0.2-0.2-0.3-0.7c-0.1-0.4-0.1-0.9-0.1-1.3v-0.2c0-0.4,0-0.8,0.1-1.3c0.1-0.4,0.2-0.7,0.3-0.7H267.5z"/>
	<path class="st1" d="M271.7,95.4c0.1,0,0.2,0.2,0.3,0.7c0.1,0.4,0.1,0.9,0.1,1.3v0.2c0,0.4,0,0.9-0.1,1.3s-0.2,0.7-0.3,0.7h-4.3
		c-0.1,0-0.2-0.2-0.3-0.7c-0.1-0.4-0.1-0.9-0.1-1.3v-0.2c0-0.4,0-0.8,0.1-1.3c0.1-0.4,0.2-0.7,0.3-0.7H271.7z"/>
	<path class="st1" d="M271.5,95.4h3.4c1,0,1.8-0.2,2.1-0.5c0.4-0.3,0.6-0.9,0.6-1.9v-4.6v-0.6h0.7h2.9h0.7v0.6V93
		c0,2.1-0.6,3.6-1.8,4.7c-1.2,1.1-2.9,1.6-5.2,1.6h-3.4c-0.1,0-0.2-0.2-0.3-0.7c-0.1-0.4-0.1-0.9-0.1-1.3v-0.2c0-0.4,0-0.8,0.1-1.3
		C271.3,95.6,271.4,95.4,271.5,95.4z M275.8,82.9l2.9-2.7l2.9,2.7l-2.9,2.7L275.8,82.9z"/>
	<path class="st1" d="M293.5,99.4h-0.8c-2,0-3.5-0.6-4.6-1.7c-1-1.1-1.6-2.7-1.6-4.8V79.4v-0.6h0.7h2.8h0.7v0.6V93
		c0,0.9,0.2,1.5,0.5,1.8c0.3,0.4,0.8,0.5,1.6,0.5h0.7c0.1,0,0.2,0.2,0.3,0.7c0.1,0.4,0.1,0.9,0.1,1.3v0.2c0,0.4,0,0.9-0.1,1.3
		C293.7,99.2,293.6,99.4,293.5,99.4z"/>
	<path class="st1" d="M297.6,95.4c0.1,0,0.2,0.2,0.3,0.7c0.1,0.4,0.1,0.9,0.1,1.3v0.2c0,0.4,0,0.9-0.1,1.3s-0.2,0.7-0.3,0.7h-4.3
		c-0.1,0-0.2-0.2-0.3-0.7c-0.1-0.4-0.1-0.9-0.1-1.3v-0.2c0-0.4,0-0.8,0.1-1.3c0.1-0.4,0.2-0.7,0.3-0.7H297.6z"/>
	<path class="st1" d="M301.8,95.4c0.1,0,0.2,0.2,0.3,0.7c0.1,0.4,0.1,0.9,0.1,1.3v0.2c0,0.4,0,0.9-0.1,1.3s-0.2,0.7-0.3,0.7h-4.3
		c-0.1,0-0.2-0.2-0.3-0.7c-0.1-0.4-0.1-0.9-0.1-1.3v-0.2c0-0.4,0-0.8,0.1-1.3c0.1-0.4,0.2-0.7,0.3-0.7H301.8z"/>
	<path class="st1" d="M300.4,104.5l2.8-2.6l2.8,2.6l-2.8,2.6L300.4,104.5z M301.6,95.4h4.7c1,0,1.8-0.2,2.1-0.5
		c0.4-0.3,0.6-0.9,0.6-1.9v-4.6v-0.6h0.7h2.9h0.7v0.6V93c0,2.1-0.6,3.6-1.8,4.7c-1.2,1.1-2.9,1.6-5.2,1.6h-4.7
		c-0.1,0-0.2-0.2-0.3-0.7c-0.1-0.4-0.1-0.9-0.1-1.3v-0.2c0-0.4,0-0.8,0.1-1.3C301.4,95.6,301.5,95.4,301.6,95.4z M306.4,104.5
		l2.8-2.6l2.8,2.6c-0.1,0.1-0.1,0.1-0.2,0.2s-0.5,0.5-1.2,1.1c-0.6,0.6-1.1,1-1.5,1.3L306.4,104.5z"/>
	<path class="st1" d="M324.9,99.4h-0.8c-2,0-3.5-0.6-4.6-1.7c-1-1.1-1.6-2.7-1.6-4.8V79.4v-0.6h0.7h2.8h0.7v0.6V93
		c0,0.9,0.2,1.5,0.5,1.8c0.3,0.4,0.8,0.5,1.6,0.5h0.7c0.1,0,0.2,0.2,0.3,0.7c0.1,0.4,0.1,0.9,0.1,1.3v0.2c0,0.4,0,0.9-0.1,1.3
		C325.1,99.2,325,99.4,324.9,99.4z"/>
	<path class="st1" d="M329,95.4c0.1,0,0.2,0.2,0.3,0.7c0.1,0.4,0.1,0.9,0.1,1.3v0.2c0,0.4,0,0.9-0.1,1.3s-0.2,0.7-0.3,0.7h-4.3
		c-0.1,0-0.2-0.2-0.3-0.7c-0.1-0.4-0.1-0.9-0.1-1.3v-0.2c0-0.4,0-0.8,0.1-1.3c0.1-0.4,0.2-0.7,0.3-0.7H329z"/>
	<path class="st1" d="M333.2,95.4c0.1,0,0.2,0.2,0.3,0.7c0.1,0.4,0.1,0.9,0.1,1.3v0.2c0,0.4,0,0.9-0.1,1.3s-0.2,0.7-0.3,0.7h-4.3
		c-0.1,0-0.2-0.2-0.3-0.7c-0.1-0.4-0.1-0.9-0.1-1.3v-0.2c0-0.4,0-0.8,0.1-1.3c0.1-0.4,0.2-0.7,0.3-0.7H333.2z"/>
	<path class="st1" d="M332,104l2.7-2.5l2.7,2.5l-2.7,2.5L332,104z M333.1,95.4h4.7c1,0,1.8-0.2,2.1-0.5c0.4-0.3,0.6-0.9,0.6-1.9
		v-4.6v-0.6h0.7h2.9h0.7v0.6V93c0,2.1-0.6,3.6-1.8,4.7c-1.2,1.1-2.9,1.6-5.2,1.6h-4.7c-0.1,0-0.2-0.2-0.3-0.7
		c-0.1-0.4-0.1-0.9-0.1-1.3v-0.2c0-0.4,0-0.8,0.1-1.3C332.9,95.6,333,95.4,333.1,95.4z M335,107.8l2.7-2.5l2.7,2.5l-2.7,2.5
		L335,107.8z M338.1,104l2.7-2.5l2.7,2.5l-2.7,2.5L338.1,104z"/>
</g>
</svg>
