<?xml version="1.0" encoding="utf-8"?>
<!-- Generator: Adobe Illustrator 23.0.1, SVG Export Plug-In . SVG Version: 6.00 Build 0)  -->
<svg version="1.1" id="Layer_1" xmlns="http://www.w3.org/2000/svg" xmlns:xlink="http://www.w3.org/1999/xlink" x="0px" y="0px"
	 viewBox="0 0 1200 400" style="enable-background:new 0 0 1200 400;" width="1200" height="400" xml:space="preserve">
<style type="text/css">
	.st0{fill:#061133;stroke:#FFFFFF;stroke-width:3;stroke-miterlimit:10;}
	.st1{fill:#FFC200;}
	.st2{fill:#FFFFFF;}
	.st3{fill:#032D44;}
	.st4{fill:#E50000;}
	.st5{fill:#004F49;}
	.st6{opacity:0.35;fill:#FFFFFF;enable-background:new    ;}
	.st7{opacity:0.48;}
</style>
<path class="st0" d="M1160.6,248.9H545.8c-7.3,0-13.2-5.9-13.2-13.2V135.6c0-7.3,5.9-13.2,13.2-13.2h614.8c7.3,0,13.2,5.9,13.2,13.2
	v100.2C1173.8,243,1167.9,248.9,1160.6,248.9z"/>
<g>
	<g>
		<g>
			<g>
				<path class="st1" d="M857.4,224.5H581.9c-4.9,0-9.3-4.2-9.3-9.3v-59.9c0-4.9,4.2-9.3,9.3-9.3h275.6c4.9,0,9.3,4.2,9.3,9.3v59.9
					C867,220.2,862.7,224.5,857.4,224.5z"/>
				<path class="st2" d="M857.4,226.3H581.9c-6.2,0-11.7-5.2-11.7-11.7v-59.5c0-6.2,5.2-11.7,11.7-11.7h275.6
					c6.2,0,11.7,5.2,11.7,11.7V215C869,221.5,864,226.3,857.4,226.3z M581.9,148c-4,0-7.2,3.2-7.2,7.2v59.9c0,4,3.2,7.2,7.2,7.2
					h275.6c4,0,7.2-3.2,7.2-7.2v-59.9c0-4-3.2-7.2-7.2-7.2C857.5,148,581.9,148,581.9,148z"/>
			</g>
		</g>
	</g>
	<g>
		<path class="st3" d="M625.8,200.6c-0.6,0.4-1.6,0.6-2.2,1c-1,0.4-2.2,0.4-3.6,0.6c-1,0-2.6,0.4-4,0.4h-18.1c-4.2,0-7.2-1-9.3-3.2
			c-2.2-2.2-3.2-5.5-3.2-9.8V184v-1h1h4.9h1v1v5.5c0,2.2,0.4,3.6,1.6,4.6c1,1,2.6,1.6,4.6,1.6h19.4c-1-1.6-1.6-3.6-1.6-5.9
			c0-1.6,0.4-3,0.6-4.2c0.4-1,1-2.2,2.2-3.6c2.2-1.9,4.6-3,7.6-3s5.5,1,7.6,3c1,1,1.6,2.2,2.2,3.6c0.4,1,0.6,3,0.6,4.2
			c0,2.2-0.4,4.2-1.6,5.9h4.2c0.4,0,0.4,0,0.6,0c0.4,0,0.4,0.4,0.4,0.4c0,0.4,0.4,0.4,0.4,0.4s0,0.4,0,0.6c0,0.4,0,0.4,0,0.4v0.4
			c0,0,0,0,0,0.4v0.4c0,0,0,0,0,0.4s0,0.4,0,0.6c0,0,0,0.4,0,0.6c0,0.4,0,0.4,0,0.6c0,0,0,0.4-0.4,0.4c0,0.4-0.4,0.4-0.4,0.4
			c-0.4,0-0.4,0-0.6,0h-3.9C631.8,202.6,628.8,201.7,625.8,200.6z M621.7,169.3l2.2-2.2c0.6-0.6,1.6-1,2.2,0l3,2.6
			c0.6,0.6,0.6,1.6,0,2.2l-2.2,2.2c-0.6,0.6-1.6,0.6-2.2,0l-2.6-3C620.6,171,620.6,170.1,621.7,169.3z M621.7,189.9c0,1,0.4,1.9,1,3
			c0.6,0.6,1.6,1,3,1c1.6,0,2.2-0.4,3-1c0.6-0.6,1-1.6,1-3s-0.4-1.9-1-3c-0.4-0.4-0.6-0.6-1-1s-1-0.4-1.6-0.4c-0.4,0-1,0-1.6,0.4
			c-0.4,0.4-1,0.4-1,1c-0.4,0.4-0.6,0.6-1,1c0,0.4,0,0.4-0.4,0.6C621.7,189.2,621.7,189.2,621.7,189.9z"/>
		<path class="st3" d="M662.8,202.6h-0.4c-3.6,0-6.5-1-8.5-3c-2.2,2.2-5.5,3-9.8,3h-4.9c-0.6,0-1.4-0.4-1.6-1
			c-0.4-0.4-0.4-1.4-0.4-2.2V199c0-1,0-1.6,0.4-2.2c0.4-1,1-1,1.9-1h4.9c1.4,0,2.6,0,3.6-0.4s1.6-0.6,1.9-1.4
			c0.4-0.4,0.4-1.4,0.4-2.2v-7.1V184h1h4.9h1v1v7.2c0,1.6,0.4,2.6,1,3.2c0.6,0.6,2.2,1,4,1h0.4c0.4,0,0.6,0,1,0.4s0.4,0.4,0.4,0.6
			c0.4,0.4,0,0.6,0,1s0,0.4,0,1c0,0,0,0,0,0.4v0.4c0,0,0,0,0,0.4s0,0.4,0,0.4v0.4v0.4c0,0,0,0.4-0.4,0.4c0,0.4-0.4,0.4-0.4,0.4
			L662.8,202.6C663.3,202.6,662.9,202.6,662.8,202.6z M639.3,210.4l2.2-2.2c0.6-0.6,1.6-0.6,2.2,0l2.6,2.6c0.6,0.6,0.6,1.6,0,2.2
			l-2.2,2.2c-0.6,0.6-1.6,0.6-2.2,0l-2.6-2.6C638.3,211.9,638.3,211.5,639.3,210.4z M649,210.4l2.2-2.2c0.6-0.6,1.6-0.6,2.2,0
			l2.6,2.6c0.6,0.6,0.6,1.6,0,2.2l-2.2,2.2c-0.6,0.6-1.6,0.6-2.2,0l-3-2.6C648,211.9,648.5,211.5,649,210.4z"/>
		<path class="st3" d="M690.9,202.6h-3.6c-1.6,0-3.6-0.4-4.9-0.4c-1.4,0-3-0.6-4.6-1.6c-3,1.4-6.5,2.2-9.8,2.2h-4.9
			c-0.6,0-1.4-0.4-1.6-1c-0.4-0.4-0.4-1.4-0.4-2.2v-0.4c0-1,0.4-1.6,0.4-2.2c0.4-0.4,1-1,1.6-1h6.2c-1-1.6-1.6-3.6-1.6-5.9
			c0-3,1-5.5,3-7.6c2.2-1.9,4.6-3,7.6-3s5.5,1,7.6,3c0.4,0.4,1,1,1,1.6c0.4,0.6,0.6,1,1,1.6c0.4,0.4,0.4,1,0.4,1.9s0.4,1.4,0.4,2.2
			c0,1,0,2.2-0.4,3c-0.4,1-0.6,1.9-1,3h4.2c0.4,0,0.4,0,0.6,0c0.2,0,0.4,0.4,0.4,0.4c0,0.4,0.4,0.4,0.4,0.4s0,0.4,0,0.6
			c0,0.4,0,0.4,0,0.4v0.4c0,0,0,0,0,0.4v0.4c0,0,0,0,0,0.4s0,0.4,0,0.4v0.4c0,0.4,0,0.4,0,0.4v0.4c0,0.4,0,0.4-0.4,0.4l-0.4,0.4
			l-0.4,0.4C691.3,202.6,690.9,202.6,690.9,202.6z M673.4,169.3l2.2-2.2c0.6-0.6,1.6-1,2.2,0l3,2.6c0.6,0.6,0.6,1.6,0,2.2l-2.2,2.2
			c-0.6,0.6-1.6,0.6-2.2,0l-2.6-3C672.9,171,672.9,170.1,673.4,169.3z M673.4,189.9c0,1,0.4,1.9,1,3c1,1,1.6,1,3,1s2.2-0.4,3-1
			c0.6-0.6,1-1.6,1-3s-0.4-1.9-1-3c-0.4-0.4-0.6-0.6-1-1s-1-0.4-1.6-0.4c-0.4,0-1,0-1.6,0.4c-0.4,0.4-1,0.4-1,1l-0.4,0.4l-0.4,0.4
			c0,0,0,0.4-0.4,0.4v0.4v0.4C673.4,189.2,673.4,189.2,673.4,189.9z"/>
		<path class="st3" d="M715.1,197.7l-2.2,1c-4.2,2.2-8.5,3.2-13.3,3.2h-8.3c-0.6,0-1.4-0.4-1.6-1c-0.4-0.6-0.4-1.4-0.4-2.2v-0.4
			c0-1,0-1.6,0.4-2.2c0.4-1,1-1,1.9-1h8.1c1.9,0,3.6-0.4,5.5-0.4c1.6-0.4,3.2-1,4.9-1.6l6.2-3l-3.6-2.2c-2.2-1-4.2-1.9-6.5-1.9
			c-1.9,0-3.6,0.6-5.9,2.2l-1.9,1.6l-0.6,0.4l-0.4-0.6l-3-3.6l-0.6-0.6l0.6-0.4l1.6-1.4c3-2.2,6.2-4,9.3-4.2c3-0.4,6.5,0.4,9.8,2.2
			l4.9,3c0.4,0.4,1,0.4,1.6,1c0.4,0.4,1,0.4,1.6,0.4c0.4,0,1,0.4,1.4,0.4h0.6v0.6v4.9v0.4l-0.4,0.4l-3,1.6c1,0.4,2.2,1,3.6,1h3.2
			c0.4,0,0.6,0,1,0.4s0.4,0.4,0.4,0.6c0,0.5,0,0.6,0,1s0,0.4,0,1c0,0,0,0,0,0.4v0.4c0,0.6,0,1.6-0.4,1.9c-0.4,0.6-0.6,1-1.4,1h-3
			c-1.9,0-3.6-0.4-5.5-1C717.3,200.6,715.7,199.2,715.1,197.7z M702.4,168.8l2.2-2.2c0.6-0.6,1.6-1,2.2,0l3,2.6
			c0.6,0.6,0.6,1.6,0,2.2l-2.2,2.2c-0.6,0.6-1.6,0.6-2.2,0l-2.6-3C701.4,170.1,701.4,169.3,702.4,168.8z"/>
		<path class="st3" d="M727.4,202.6c-0.6,0-1.4-0.4-1.6-1c-0.4-0.4-0.4-1.4-0.4-2.2V199c0-1,0.4-1.6,0.4-2.2c0.4-0.4,1-1,1.6-1h6.5
			c1.6,0,3-0.4,3.6-1s1-1.6,1-3.2v-7.8v-1h1h4.6h1v1v7.8c0,3.6-1,6.5-3,8.1c-1.9,1.7-4.6,3-8.1,3L727.4,202.6L727.4,202.6
			L727.4,202.6z M728.4,171.8l2.2-2.2c0.6-0.6,1.6-0.6,2.2,0l2.6,2.6c0.6,0.6,0.6,1.6,0,2.2l-2.2,2.2c-0.6,0.6-1.6,0.6-2.2,0
			l-2.6-2.6C727.8,173.2,727.8,172.7,728.4,171.8z M738.1,171.8l2.2-2.2c0.6-0.6,1.6-0.6,2.2,0l2.6,2.6c0.6,0.6,0.6,1.6,0,2.2
			l-2.2,2.2c-0.6,0.6-1.6,0.6-2.2,0l-3-2.6C737.6,173.2,737.6,172.7,738.1,171.8z"/>
		<path class="st3" d="M757.5,169.3c0-1.6,0.4-3,1.9-4c1-1,2.6-1.6,4.2-1.6c1.6,0,3,0.4,4.2,1.6c0.4,0.4,0.4,0.4,0.6,0.6
			c0.5,0.5,0.4,0.6,0.4,1c0.4,0.4,0.4,0.6,0.4,1c0.4,0.4,0.4,0.6,0.4,1s0,1-0.4,1.4c0,0.4-0.4,0.4-0.4,0.4c0,0.4-0.4,0.4-0.4,0.4
			c-0.4,0.4-0.4,0.4-0.4,0.4c-0.4,0.4-0.4,0.6-1,1c-1,1-2.6,1.6-4.2,1.6c-1.6,0-3-0.4-4.2-1.6c-0.4-0.4-1-1-1.4-1.9
			C757.5,171,757.5,170.5,757.5,169.3z M780.9,162.4l4.9,2.6l1,0.4l-22,38.7l-1-0.4l-4.6-2.6l-1-0.4l22-38.3
			C780,162.4,780.9,162.4,780.9,162.4z M776.3,194.5L776.3,194.5L776.3,194.5v-0.4v-0.4v-0.4v-0.2c0-0.4,0-0.4,0.4-0.4
			c0-0.4,0-0.4,0-0.4V192c0-0.4,0.4-0.4,0.4-0.4l0.4-0.4c0-0.4,0-0.4,0.4-0.4c0.4-0.4,0.4-0.4,0.4-0.4l0.4-0.4l0.4-0.4l0.4-0.4
			l0.4-0.4c0.4-0.4,0.4-0.4,0.4-0.4c1-1,2.6-1.6,4.2-1.6c0.4,0,1,0.4,1.4,0.4s0.4,0.4,0.6,0.4c0.4,0,0.4,0.4,0.4,0.4s0.4,0,0.4,0.4
			c0.4,0,0.4,0.4,0.4,0.4c0.4,0.4,0.6,0.4,1,1c1,1,1.9,2.6,1.9,4s-0.4,3-1.9,4c-0.4,0.4-1,1-1.9,1c-0.6,0.4-1.4,0.4-2.2,0.4
			c-1.6,0-3-0.4-4.2-1.6C777.3,197.5,776.3,195.7,776.3,194.5z"/>
	</g>
	<g>
		<path class="st3" d="M818.2,184.4c-1.5,0-2.7-0.1-4.1-0.5c-1.4-0.2-2.6-0.6-3.9-1.4c0.2,2,0.5,4.1,0.6,6s0.2,3.9,0.4,5.6
			c0.1,1.9,0.1,3.6,0.1,5.4c0,1.7,0,3.4,0,5.1h-8.8c0-4-0.1-7.8-0.2-11.6c-0.1-3.9-0.5-7.5-1-11c-0.6-3.5-1.2-6.8-2.1-10
			c-1-3.1-2.1-5.9-3.9-8.2l7.6-4.7c0.6,1.1,1.2,1.9,1.7,3c0.6,0.9,1,1.9,1.5,2.7c0.6-1.1,1.6-1.9,2.5-2.7c1-0.7,1.9-1.5,3.1-1.9
			c1.1-0.6,2.1-0.9,3.4-1.1c1.2-0.2,2.4-0.4,3.6-0.4c0.9,0,1.6,0.1,2.5,0.2c0.9,0.1,1.6,0.4,2.5,0.6c0.9,0.4,1.6,0.6,2.5,1.2
			c0.9,0.5,1.6,1.1,2.5,1.9l-4.6,7.3c0,0-0.2-0.1-0.6-0.4c-0.4-0.2-0.7-0.5-1.5-0.7c-0.6-0.2-1.4-0.6-2.1-0.7
			c-0.9-0.2-1.7-0.4-2.7-0.4c-0.9,0-1.6,0.1-2.5,0.5s-1.6,0.6-2.2,1.2c-0.6,0.5-1.2,1-1.6,1.6c-0.4,0.6-0.6,1.1-0.5,1.6l0,0
			c0.1,0.6,0.5,1.1,1,1.6c0.6,0.5,1.2,0.6,2,0.9c0.9,0.2,1.6,0.5,2.4,0.5c0.9,0.1,1.6,0.1,2.2,0.1s1.5,0,2.1-0.1
			c0.7-0.1,1.6-0.2,2.4-0.5s1.6-0.5,2.4-0.7c0.7-0.4,1.6-0.6,2.1-1.1l3.7,7c-2.2,1.6-4.5,2.9-6.7,3.4
			C822.2,184.1,820,184.4,818.2,184.4z"/>
		<path class="st3" d="M831.9,187c0-1.6,0.4-2.9,0.9-4.4c0.6-1.4,1.4-2.5,2.2-3.5c1-1,2-1.7,3.4-2.2c1.4-0.6,2.7-0.9,4.4-0.9
			s2.9,0.4,4.4,0.9c1.4,0.6,2.5,1.4,3.5,2.2c1,1,1.7,2.1,2.2,3.5s0.9,2.7,0.9,4.4s-0.4,3-0.9,4.4c-0.6,1.4-1.4,2.4-2.2,3.4
			c-1,1-2.1,1.7-3.5,2.2c-1.4,0.6-2.7,0.9-4.4,0.9s-3-0.4-4.4-0.9c-1.4-0.6-2.4-1.4-3.4-2.2c-1-1-1.7-2-2.2-3.4
			C832.2,190,831.9,188.6,831.9,187z M838.5,187c0,0.6,0.1,1.2,0.4,1.6c0.2,0.6,0.6,1,0.9,1.5c0.5,0.5,0.9,0.6,1.5,0.9
			c0.6,0.2,1.1,0.4,1.6,0.4c0.6,0,1.2-0.1,1.6-0.4c0.6-0.2,1-0.6,1.5-0.9c0.5-0.5,0.6-0.9,1-1.5c0.2-0.6,0.4-1.1,0.4-1.6
			s-0.1-1.2-0.4-1.6c-0.2-0.6-0.6-1-1-1.5c-0.5-0.5-0.9-0.6-1.5-1c-0.6-0.2-1.1-0.4-1.6-0.4c-0.6,0-1.2,0.1-1.6,0.4
			c-0.6,0.2-1,0.6-1.5,1c-0.5,0.5-0.6,0.9-0.9,1.5S838.5,186.5,838.5,187z"/>
	</g>
</g>
<g>
	<g>
		<g>
			<path class="st4" d="M499.2,249.1H202.4c-9.8,0-17.9-8-17.9-17.9V140c0-9.8,8-17.9,17.9-17.9h296.8c9.8,0,17.9,8,17.9,17.9v91.2
				C517.1,241.2,509.1,249.1,499.2,249.1z"/>
			<path class="st2" d="M499.2,251H202.4c-10.8,0-19.7-9-19.7-19.7v-91.2c0-10.8,9-19.7,19.7-19.7h296.8c10.8,0,19.8,9,19.8,19.7
				v91.2C518.8,242.3,510.2,251,499.2,251z M202.4,123.9c-9,0-16.2,7.2-16.2,16.2v91.2c0,9,7.2,16.2,16.2,16.2h296.8
				c9,0,16.2-7.1,16.2-16.2v-91.2c0-9-7.2-16.2-16.2-16.2C499.2,123.9,202.4,123.9,202.4,123.9z"/>
		</g>
		<g>
			<path class="st2" d="M246.7,201.8h-0.5c-4.1,0-7.6-1.7-11-5.1c-2.1,3.2-6.7,5.1-13.4,5.1H209h-1.1v-1v-6.2v-1.1h1.1h12.6
				c0.1,0,0.4,0,0.6,0c0.1,0,0.4,0,0.5,0c1.4,0,2.2-0.1,3.2-0.4c0.7-0.1,1.7-0.4,1.9-0.6c0.5-0.4,0.7-0.6,1-1
				c0.1-0.4,0.4-0.6,0.4-1.1c0-0.6-0.4-1.6-0.7-2.2c-0.4-0.5-0.6-1-1-1.7c-0.5-0.5-0.7-1.1-1.6-1.7l-9.2-10.8l-0.6-0.7l0.6-0.7
				l4.2-4.6l1-1l0.7,1.1l18.4,22c1.9,2.4,4,3.5,5.5,3.5h0.4c0.5,0,0.7,0.1,1.1,0.4c0.4,0.1,0.5,0.6,0.6,1c0.1,0.5,0.1,0.7,0.1,1.1
				c0,0.4,0,0.6,0,1.4c0,0.1,0,0.1,0,0.1v0.4c0,1.1,0,1.9-0.1,2.5c0,0.4-0.1,0.5-0.4,0.6c-0.1,0.1-0.4,0.4-0.5,0.6
				C247.3,201.7,247.1,201.8,246.7,201.8z"/>
			<path class="st2" d="M276.1,201.8h-0.7c-4.7,0-8.2-1.4-10.5-4c-2.5,2.5-6.7,4-12.2,4h-6.2c-1,0-1.7-0.4-2.2-1.1
				c-0.5-0.7-0.7-1.7-0.7-2.9v-0.2c0-1.1,0.1-2.1,0.6-2.7c0.5-0.7,1.4-1.4,2.4-1.4h6.3c1.7,0,3.2-0.1,4.5-0.6c1.2-0.5,1.9-1,2.4-1.7
				s0.7-1.7,0.7-3v-8.8v-1.2h1.1h6h1.1v1.1v8.8c0,1.9,0.5,3.2,1.6,4.2c1,0.7,2.7,1.4,5.1,1.4h0.7c0.5,0,0.7,0.1,1.1,0.4
				c0.4,0.1,0.5,0.6,0.6,1c0.1,0.5,0.1,0.7,0.1,1.1c0,0.4,0,0.6,0,1.4c0,0.1,0,0.1,0,0.1v0.4c0,0,0,0.1,0,0.4c0,0.4,0,0.5,0,0.6
				s0,0.4,0,0.6c0,0.4,0,0.5-0.1,0.7c0,0.1-0.1,0.5-0.1,0.6c-0.1,0.1-0.1,0.5-0.4,0.5c-0.1,0.1-0.4,0.4-0.5,0.4
				C276.7,201.8,276.2,201.8,276.1,201.8z M246.6,212l3-3c1-1,1.9-1.1,2.7-0.1l3.2,3.2c1,1,1,1.9,0,2.9l-3,3c-1,1-1.9,1-2.9,0
				l-3.2-3.2C245.6,213.8,245.6,212.8,246.6,212z M258.8,212l3-3c1-1,1.9-1.1,2.9-0.1l3.2,3.2c1,1,1,1.9,0,2.9l-3,3
				c-1,1-1.9,1-2.9,0l-3.4-3.2C257.8,213.8,257.8,212.8,258.8,212z"/>
			<path class="st2" d="M304.3,201.8h-0.6c-4.7,0-8.2-1.4-10.5-4c-2.7,2.5-6.7,4-12.2,4h-5.2c-1,0-1.7-0.4-2.2-1.1
				c-0.5-0.7-0.7-1.7-0.7-2.9v-0.2c0-1.1,0.1-2.1,0.6-2.7c0.5-0.7,1.4-1.4,2.4-1.4h5.4c2.7,0,4.6-0.5,5.7-1.4
				c1.1-0.7,1.7-2.2,1.7-4.1v-8.8v-1.1h1.1h6h1.1v1.1v8.8c0,1.9,0.5,3.2,1.6,4.2c1,0.7,2.7,1.4,5.1,1.4h0.7c0.5,0,0.7,0.1,1.1,0.4
				c0.4,0.1,0.5,0.6,0.6,1c0.1,0.5,0.1,0.7,0.1,1.1c0,0.4,0,0.6,0,1.4c0,0.1,0,0.1,0,0.1v0.4c0,0,0,0.1,0,0.4c0,0.1,0,0.4,0,0.5
				s0,0.4,0,0.5s0,0.5,0,0.6s0,0.4-0.1,0.5c0,0.1-0.1,0.4-0.1,0.5s-0.1,0.4-0.1,0.5c-0.1,0.1-0.1,0.4-0.4,0.4
				c-0.1,0.1-0.4,0.1-0.5,0.1C304.6,201.8,304.5,201.8,304.3,201.8z M285,163.7l3-3c1.1-1.1,2.1-1.1,3-0.1l3.4,3.2c1,1,1,2.1-0.1,3
				l-3,3c-1,1-2.1,1-3,0l-3.2-3.4C284.2,165.7,284.2,164.7,285,163.7z"/>
			<path class="st2" d="M304,201.8c-1,0-1.7-0.4-2.2-1.1c-0.5-0.7-0.7-1.7-0.7-2.9v-0.2c0-1.1,0.1-2.1,0.6-2.7
				c0.5-0.7,1.4-1.4,2.4-1.4h11.2c2.5,0,4.6-0.4,5.6-0.7c1.1-0.6,1.7-1.6,1.7-2.4c0-0.1,0-0.4-0.1-0.6c-0.1-0.4-0.4-0.6-0.6-1.1
				c-0.4-0.5-0.6-1-1.1-1.7c-0.5-0.6-1-1.4-1.7-1.9L308,172.5c-1.4-1.6-1.9-3.2-1.9-5.5c0-0.7,0.1-1.6,0.4-2.2
				c0.1-0.6,0.5-1.4,1-1.7c0.5-0.5,1-1,1.6-1.6c0.6-0.5,1.4-0.7,1.9-1l21.3-7l1.7-0.5v1.7v6.2v0.7l-0.7,0.4l-17.7,5.7l9.3,11
				c4,4.6,6,8.7,6,12.1c0,4-1.4,6.8-4,8.8c-2.5,1.9-6.5,2.9-11.6,2.9H304v-0.4h-0.1L304,201.8L304,201.8z"/>
			<path class="st2" d="M384.8,201.8H360c-5.2,0-9.2-1.6-12-4.2c-2.7-2.7-4.1-6.8-4.1-12.2v-6.8v-1.1h1.1h6h1.1v1.1v6.8
				c0,2.5,0.6,4.6,1.9,5.7c0.6,0.6,1.6,1.1,2.2,1.6c1,0.4,2.1,0.5,3.4,0.5h24.6c2.5,0,4.6-0.4,5.6-1s1.7-1.6,1.7-2.5
				c0-0.4-0.4-1-0.7-1.9c-0.6-1-1.6-2.1-2.5-3.4l-11-12.4c-0.6-0.6-1.1-1.7-1.6-2.4c-0.4-1-0.5-1.9-0.5-2.9c0-1.1,0.1-2.1,0.6-2.9
				c0.4-0.7,1-1.7,1.7-2.2c0.7-0.6,1.7-1.1,2.5-1.6l21.3-7l1.7-0.5v1.7v6.2v0.7l-0.7,0.1l-17.9,5.7l18.4,21.2
				c2.7,3.2,5.2,4.9,7.1,4.9h0.7c0.5,0,0.7,0.1,1.1,0.4c0.4,0.1,0.5,0.6,0.6,1.1s0.1,0.7,0.1,1.1c0,0.4,0,0.6,0,1.1
				c0,0.1,0,0.1,0,0.1v0.4c0,0,0,0.1,0,0.4c0,0.4,0,0.6,0,0.7s0,0.5,0,0.7c0,0.4,0,0.6-0.1,0.7c-0.1,0.1-0.1,0.5-0.4,0.6
				c-0.1,0.1-0.4,0.4-0.5,0.5s-0.5,0.1-0.7,0.1h-0.5c-4.6,0-8.6-1.9-11.7-5.7c-0.4,0.6-0.6,1.1-1.1,1.7c-0.5,0.5-1,1-1.6,1.4
				c-0.5,0.4-1.1,0.7-1.7,1.1c-0.7,0.4-1.4,0.6-1.9,0.7c-0.6,0.1-1.6,0.5-2.2,0.6c-0.7,0.1-1.7,0.4-2.5,0.4
				C386.6,201.8,385.8,201.8,384.8,201.8z"/>
			<path class="st2" d="M440.3,201.8h-0.6c-4.7,0-8.2-1.4-10.5-4c-2.5,2.5-6.7,4-12.2,4h-6.2c-1,0-1.7-0.4-2.2-1.1
				c-0.5-0.7-0.7-1.7-0.7-2.9v-0.2c0-1.1,0.1-2.1,0.6-2.7c0.5-0.7,1.4-1.4,2.4-1.4h6.3c1.7,0,3.2-0.1,4.5-0.6c1.1-0.5,1.9-1,2.4-1.7
				s0.7-1.7,0.7-3v-8.8v-1.2h1.1h6h1.1v1.1v8.8c0,1.9,0.5,3.2,1.6,4.2c1,0.7,2.7,1.4,5.1,1.4h0.7c0.5,0,0.7,0.1,1.1,0.4
				c0.4,0.1,0.5,0.6,0.6,1c0.1,0.5,0.1,0.7,0.1,1.1c0,0.4,0,0.6,0,1.4c0,0.1,0,0.1,0,0.1v0.4c0,0,0,0.1,0,0.4c0,0.4,0,0.5,0,0.6
				s0,0.4,0,0.6c0,0.4,0,0.5-0.1,0.7c0,0.1-0.1,0.5-0.1,0.6c-0.1,0.1-0.1,0.5-0.4,0.5c-0.1,0.1-0.4,0.4-0.5,0.4
				C440.8,201.8,440.5,201.8,440.3,201.8z M410.8,212l3-3c1-1,1.9-1.1,2.7-0.1l3.2,3.2c1,1,1,1.9,0,2.9l-3,3c-1,1-1.9,1-2.9,0
				l-3.2-3.2C409.8,213.8,409.8,212.8,410.8,212z M422.9,212l3-3c1-1,1.9-1.1,2.9-0.1l3.2,3.2c1,1,1,1.9,0,2.9l-3,3
				c-1,1-1.9,1-2.9,0l-3.4-3.2C421.9,213.8,421.9,212.8,422.9,212z"/>
			<path class="st2" d="M464.2,201.8h-1.7c-4,0-7.1-1.4-9.7-4c-2.4,2.5-5.6,4-9.6,4h-3.4c-1,0-1.7-0.4-2.2-1.1
				c-0.5-0.7-0.6-1.7-0.6-2.9v-0.2c0-1.1,0.1-2.1,0.6-2.7c0.5-0.7,1.4-1.4,2.4-1.4h3.2c1,0,1.9-0.1,2.5-0.4c0.6-0.1,1.4-0.5,1.7-1
				c0.4-0.5,0.7-1,1-1.7c0.1-0.6,0.4-1.6,0.4-2.2v-30.5v-1.2h1.1h5.6h1.1v1.1v30.6c0,1.7,0.5,3,1.6,4c1,0.7,2.4,1.4,4.7,1.4h1.4
				c0.5,0,0.7,0.1,1.1,0.4c0.4,0.4,0.5,0.6,0.6,1.1s0.1,0.7,0.1,1.1c0,0.4,0,0.6,0,1.4c0,0.1,0,0.1,0,0.1v0.4v0.1c0,0.4,0,0.6,0,0.7
				s0,0.5,0,0.7c0,0.4,0,0.6-0.1,0.7c-0.1,0.1-0.1,0.5-0.4,0.6c-0.1,0.1-0.4,0.4-0.6,0.5C464.8,201.8,464.6,201.8,464.2,201.8z"/>
			<path class="st2" d="M463.7,201.8c-1,0-1.7-0.4-2.2-1.1c-0.5-0.7-0.7-1.7-0.7-2.9v-0.2c0-1.1,0.1-2.1,0.6-2.7
				c0.5-0.7,1.4-1.4,2.4-1.4H475c2.5,0,4.6-0.4,5.6-0.7c1.1-0.6,1.7-1.6,1.7-2.4c0-0.1,0-0.4-0.1-0.6c-0.1-0.4-0.4-0.6-0.6-1.1
				c-0.4-0.5-0.6-1-1.1-1.7c-0.5-0.6-1-1.4-1.7-1.9l-11.1-12.6c-1.4-1.6-1.9-3.2-1.9-5.5c0-0.7,0.1-1.6,0.4-2.2
				c0.1-0.6,0.5-1.4,1-1.7c0.5-0.5,1-1,1.6-1.6c0.6-0.5,1.4-0.7,1.9-1l21.3-7l1.7-0.5v1.7v6.2v0.7L493,162l-17.7,5.7l9.3,11
				c4,4.6,6,8.7,6,12.1c0,4-1.4,6.8-4,8.8c-2.5,1.9-6.5,2.9-11.6,2.9h-11.1v-0.4h-0.2v-0.2L463.7,201.8L463.7,201.8z"/>
		</g>
	</g>
	<g>
		<path class="st5" d="M152,248.3H42.5c-9.1,0-16.4-7.3-16.4-16.4V139c0-9.1,7.3-16.4,16.4-16.4H152c9.1,0,16.4,7.3,16.4,16.4v92.9
			C168.4,240.9,161.1,248.3,152,248.3z"/>
		<path class="st2" d="M152,250.3H42.5c-10.1,0-18.3-8.7-18.3-19.5V140c0-10.7,8.2-19.5,18.3-19.5H152c10.1,0,18.3,8.7,18.3,19.5
			v90.8C170.3,241.5,162.1,250.3,152,250.3z M42.5,124.5c-8.1,0-14.6,7-14.6,15.6v90.6c0,8.6,6.6,15.6,14.6,15.6H152
			c8.1,0,14.6-7,14.6-15.6V140c0-8.6-6.6-15.6-14.6-15.6L42.5,124.5L42.5,124.5z"/>
	</g>
	<g>
		<g>
			<path class="st2" d="M70.7,217.5c0.7,1.2,1.4,2.4,1.9,3.7c0.4,0.7,0.6,2.2,2.4,2.2c0.5,0,1.2-0.1,2-0.5c0.7-0.4,1.4-1,1.6-1.9
				l0.7-2.4l1.7-0.9l0.1,0.1c-0.2,0.9-0.2,1.7-0.2,2.5c0,2,1.7,2.7,3.1,2.7c0.7,0,1.5-0.4,1.5-1.1c0-1-0.4-2.6-0.9-4
				c0.7-0.7,1.6-1.6,2.5-2.2v-0.1c0.4,1.7,0.6,3.4,0.6,4.5s-0.5,2.4-0.9,3.1c-0.9,1.6-2.4,2.9-4.1,2.9c-1.4,0-2.9-0.7-3.9-2l0,0
				c-1,1.2-2.5,2.2-4.9,2.2h-0.7c-0.1,1.6-0.5,2.7-1,3.7c-1.5,2.9-5.7,4.9-9.7,4.9c-5.6,0-8.3-3.2-8.3-7.5c0-2.6,0.9-5.1,2.2-6.8
				l1.1,0.5c-0.9,1.6-1.4,3.1-1.4,4.6c0,4,3.2,6,7,6c3.5,0,7.8-2.2,8.6-4.9c-0.2-2.9-1.4-4.1-3-6.7c0.5-0.9,1.1-1.7,1.9-2.6l0,0l0,0
				H70.7z"/>
			<path class="st2" d="M91.5,214.5l2,3.4c0.7,1.2,1.5,2.5,1.5,4.6v2.7c0,2.2-1.4,4.5-3.6,6.8c-1.7,1.6-3.4,2.2-4.7,2.2
				c-2.1,0-4.6-0.6-7.5-1.9l0.4-0.9c0.9,0.2,2,0.5,3.2,0.5c4.1,0,8.2-3,10.1-6.6c0.2-0.4,0.4-0.7,0.4-1.1c0-0.4-0.2-0.9-0.4-1.2
				c-1-2-2.2-3.7-3.5-5.4C90,216.6,90.8,215.5,91.5,214.5L91.5,214.5z"/>
			<path class="st2" d="M97.4,220.5c0.1,2.1,1.1,3.7,4.7,3.7c2.2,0,4.1-0.6,6.2-1.6c0.4-0.1,0.6-0.4,0.6-0.6c0-1.4-1-3.1-2.7-4.6
				c-1.6-1.5-3.9-2.9-5.9-3.7c-0.7-0.2-0.9-0.6-0.9-0.9c0-0.6,0.7-1.9,1.5-2.7h0.2c2.4,1.2,5,3,6.8,5.1c1.7,1.9,2.9,3.7,2.9,5.9
				c0,1.5-0.5,3-1.2,4.2c-2.6,1.2-5.4,2.2-8,2.2c-3.2,0-5.5-1.5-5.5-5.2c0-0.4,0-1,0.1-1.7L97.4,220.5L97.4,220.5z"/>
			<path class="st2" d="M114.6,227.6c0.2-1.5,0.4-3.2,0.4-4.9v-2.4c0-4.5-0.6-11-1-15.2c0.7-0.9,2-1.9,2.9-2.6l0.2,0.1
				c0.6,5.4,0.7,11.6,0.7,17.3c0,1.5,0,3-0.2,4c-0.1,1.4-0.9,2.4-2.5,4L114.6,227.6z"/>
			<path class="st2" d="M122,218.8c1.6,3.4,3.1,5.4,6.5,5.4h0.5v3.1h-0.6c-1.2,0-2.2-0.2-2.9-0.7h-0.1c0,0.2,0,0.6,0,0.9
				c0,1.1-0.4,2.6-1.1,3.9c-2.2,3.4-4.7,4.9-6.8,4.9s-4.9-0.9-7.2-1.9l0.4-0.9c0.7,0.4,1.9,0.5,3.4,0.5c3.9,0,9-3.7,9.6-7.3
				c-0.1-0.2-0.4-0.7-0.7-1.1c-1.1-1.4-1.9-2.5-2.5-3.6c0.6-1.1,1.1-2,1.6-2.9L122,218.8z"/>
			<path class="st2" d="M135,202.3c1.1,0.7,2.4,1.6,3.5,2.6c-0.6,0.9-1.4,1.7-2.4,2.4c-1.1-0.9-2.2-1.7-3.4-2.5
				C133.5,203.9,134.3,203.2,135,202.3z M135.7,213.4c-1.9,0-3.5,1.2-3.5,2.2c0,2,3.9,2.6,8.3,2.6C140,215.8,138,213.4,135.7,213.4z
				 M131.4,224c2.5,0,4.6-0.1,6.2-0.5c1.9-0.5,3.4-1.4,3.4-2c0-0.1,0-0.4,0-0.5c-1,0.1-2.2,0.1-3.2,0.1c-3.4,0-5.9-0.7-7-2.6
				c-0.2-0.5-0.4-1.1-0.4-1.7c0-1.9,0.7-3.6,2.1-4.9c1.1-1,2.4-1.6,3.7-1.6c2.4,0,4.2,1.9,5.5,4.9c0.7,1.6,1.2,3.5,1.2,5.9
				c0,1.6-0.4,2.9-1.4,3.9c-1.9,1.7-5.1,2.4-10.3,2.4h-2.4c-1.6,0-2-1-2-1.6s0.5-1.5,2-1.5h2.5C131.4,224.1,131.4,224,131.4,224z"/>
		</g>
		<g>
			<path class="st2" d="M97.9,185.8c0-0.6-0.6-1.5-1.5-2.1c-1.6-1.1-3.2-2.1-4.9-3.1c-0.9-0.5-1.5-0.4-1.6,0.1
				c-0.1,1.1-0.1,2.2-0.2,3.4c0,0.6,0.6,1.5,1.5,2c1.7,1,3.4,2,5,3.1c0.9,0.6,1.5,0.6,1.5,0C97.9,188.1,97.9,187,97.9,185.8z"/>
			<path class="st2" d="M88.5,186.4c0-0.6-0.6-1.5-1.5-1.9c-1.7-0.9-3.5-1.7-5.2-2.5c-0.9-0.4-1.7-0.2-1.7,0.4
				c-0.1,1.1-0.2,2.2-0.4,3.4c-0.1,0.6,0.6,1.4,1.6,1.7c1.9,0.7,3.6,1.6,5.5,2.6c0.9,0.5,1.7,0.4,1.7-0.2
				C88.4,188.6,88.5,187.5,88.5,186.4z"/>
			<path class="st2" d="M97.8,192.1c0-0.6-0.6-1.5-1.5-2.1c-1.6-1.1-3.4-2.1-5-3.1c-0.9-0.5-1.6-0.4-1.6,0.1
				c-0.1,1.1-0.1,2.2-0.2,3.4c0,0.6,0.6,1.5,1.6,2c1.7,1,3.5,2,5.2,3.1c0.9,0.6,1.6,0.6,1.6,0C97.8,194.4,97.8,193.2,97.8,192.1z"/>
			<path class="st2" d="M107,180.7c0-0.6-0.7-0.6-1.6-0.1c-1.6,1-3.2,2-4.9,3.1c-0.7,0.6-1.5,1.5-1.5,2.1c0,1.1,0,2.2,0,3.4
				c0,0.6,0.6,0.6,1.5,0c1.6-1.1,3.4-2.1,5-3.1c0.9-0.5,1.5-1.4,1.5-2C107.2,183,107,181.9,107,180.7z"/>
			<path class="st2" d="M107.4,187c0-0.6-0.7-0.6-1.6-0.1c-1.7,1-3.4,2-5,3.1c-0.9,0.6-1.5,1.5-1.5,2.1c0,1.1,0,2.2,0,3.4
				c0,0.6,0.7,0.6,1.6,0c1.7-1.1,3.5-2.1,5.2-3.1c0.9-0.5,1.6-1.4,1.6-2C107.5,189.3,107.4,188.1,107.4,187z"/>
			<path class="st2" d="M117.1,182.3c-0.1-0.6-0.9-0.7-1.7-0.4c-1.7,0.7-3.5,1.6-5.2,2.5c-0.9,0.5-1.6,1.4-1.5,1.9
				c0.1,1.1,0.1,2.2,0.2,3.4c0,0.6,0.7,0.6,1.7,0.2c1.7-0.9,3.6-1.7,5.5-2.6c1-0.4,1.6-1.2,1.6-1.7
				C117.4,184.5,117.2,183.4,117.1,182.3z"/>
			<path class="st6" d="M143.3,162.2c-0.2-0.5-1-1-1.9-0.9c-1.6,0.1-3.4,0.4-5,0.6c-0.9,0.1-1.4,0.7-1.2,1.2
				c0.2,1.1,0.6,2.2,0.9,3.2c0.1,0.6,1,0.9,1.9,0.7c1.7-0.2,3.5-0.5,5.2-0.7c0.9-0.1,1.5-0.6,1.2-1.1
				C144,164.5,143.6,163.4,143.3,162.2z M90.6,154.9c0-0.6-0.5-1.5-1.2-1.9c-1.4-0.9-2.7-1.7-4.1-2.5c-0.7-0.4-1.4-0.2-1.4,0.4
				c-0.1,1.1-0.2,2.2-0.4,3.4c-0.1,0.6,0.5,1.4,1.2,1.7c1.5,0.7,2.9,1.6,4.4,2.5c0.7,0.5,1.4,0.4,1.4-0.2
				C90.3,157.1,90.5,156,90.6,154.9z M60.2,169.5c0.1-0.6-0.5-1.1-1.4-1.4c-1.7-0.2-3.5-0.5-5.2-0.7c-0.9-0.1-1.7,0.2-2,0.9
				c-0.4,1.1-0.7,2.1-1.1,3.2c-0.2,0.5,0.4,1.1,1.4,1.1c1.7,0.2,3.6,0.5,5.4,0.7c0.9,0.1,1.7-0.1,2-0.7
				C59.6,171.7,60,170.6,60.2,169.5z M62,163.4c0.1-0.6-0.4-1.1-1.2-1.2c-1.6-0.2-3.4-0.5-5-0.6c-0.9-0.1-1.7,0.4-1.9,0.9
				c-0.4,1.1-0.7,2.1-1.1,3.2c-0.2,0.5,0.4,1,1.2,1.1c1.7,0.1,3.5,0.4,5.2,0.7c0.9,0.1,1.7-0.1,1.9-0.7
				C61.3,165.6,61.6,164.5,62,163.4z M63.6,157.3c0.1-0.6-0.4-1.1-1.1-1.2c-1.6-0.2-3.1-0.5-4.7-0.6c-0.7-0.1-1.6,0.4-1.9,0.9
				c-0.4,1.1-0.7,2.1-1.1,3.2c-0.2,0.5,0.4,1,1.1,1.1c1.6,0.1,3.4,0.4,5,0.6c0.9,0.1,1.6-0.1,1.9-0.7
				C63.1,159.5,63.3,158.4,63.6,157.3z M65.3,151.2c0.1-0.5-0.4-1.1-1.1-1.2c-1.5-0.2-3-0.4-4.5-0.5c-0.7,0-1.5,0.4-1.7,0.9
				c-0.4,1.1-0.7,2.1-1.1,3.2c-0.2,0.5,0.2,1,1.1,1.1c1.6,0.1,3.1,0.4,4.7,0.6c0.7,0.1,1.6-0.2,1.7-0.7
				C64.7,153.4,65.1,152.3,65.3,151.2z M67.1,145.1c0.1-0.6-0.2-1.1-1-1.2c-1.5-0.2-2.9-0.4-4.4-0.5c-0.7,0-1.5,0.4-1.6,0.9
				c-0.4,1.1-0.7,2.1-1.1,3.2c-0.2,0.5,0.2,1,1,1.1c1.5,0.1,3,0.2,4.5,0.5c0.7,0.1,1.5-0.2,1.6-0.7
				C66.4,147.3,66.7,146.2,67.1,145.1z M75,147.2c0.1-0.6-0.4-1.2-1.1-1.5c-1.4-0.5-2.9-0.9-4.2-1.1c-0.7-0.1-1.5,0.1-1.6,0.7
				c-0.2,1.1-0.6,2.2-0.9,3.2c-0.1,0.6,0.4,1.1,1.1,1.4c1.5,0.4,3,0.7,4.5,1.2c0.7,0.2,1.5,0,1.6-0.6
				C74.5,149.4,74.8,148.3,75,147.2z M72.4,159.5c0.1-0.6-0.5-1.2-1.2-1.5c-1.6-0.5-3.1-0.9-4.7-1.2c-0.7-0.1-1.6,0.1-1.7,0.7
				c-0.2,1.1-0.6,2.2-0.9,3.2c-0.1,0.6,0.4,1.1,1.2,1.4c1.6,0.4,3.2,0.9,5,1.2c0.9,0.2,1.6,0,1.7-0.6
				C72,161.7,72.3,160.6,72.4,159.5z M81.1,163c0.1-0.6-0.5-1.4-1.2-1.7c-1.5-0.6-3.1-1.2-4.7-1.9c-0.7-0.2-1.5,0-1.6,0.5
				c-0.2,1.1-0.4,2.2-0.6,3.4c-0.1,0.6,0.5,1.2,1.4,1.5c1.6,0.6,3.2,1.2,4.9,1.9c0.9,0.4,1.6,0.1,1.6-0.4
				C80.9,165.2,81,164.1,81.1,163z M82.9,150.4c0.1-0.6-0.5-1.4-1.1-1.6c-1.4-0.6-2.9-1.2-4.2-1.7c-0.7-0.2-1.4,0-1.5,0.5
				c-0.2,1.1-0.4,2.2-0.6,3.4c-0.1,0.6,0.4,1.2,1.1,1.5c1.5,0.5,3,1.1,4.4,1.9c0.7,0.4,1.4,0.1,1.5-0.4
				C82.5,152.7,82.8,151.5,82.9,150.4z M116.4,175.9c-0.1-0.6-0.9-0.7-1.7-0.4c-1.7,0.7-3.4,1.6-5,2.5c-0.9,0.5-1.5,1.4-1.5,1.9
				c0.1,1.1,0.1,2.2,0.2,3.4c0,0.6,0.7,0.6,1.6,0.2c1.7-0.9,3.5-1.7,5.2-2.5c0.9-0.4,1.6-1.2,1.5-1.7
				C116.6,178.2,116.5,177.1,116.4,175.9z M115.6,169.7c-0.1-0.6-0.7-0.7-1.6-0.4c-1.6,0.7-3.2,1.6-4.9,2.5
				c-0.9,0.5-1.5,1.4-1.4,1.9c0.1,1.1,0.1,2.2,0.2,3.4c0,0.6,0.7,0.6,1.6,0.2c1.6-0.9,3.4-1.7,5-2.5c0.9-0.4,1.5-1.1,1.4-1.7
				C115.9,172,115.7,170.8,115.6,169.7z M114.7,163.5c-0.1-0.6-0.7-0.7-1.5-0.4c-1.5,0.7-3.1,1.6-4.6,2.5c-0.7,0.5-1.4,1.2-1.4,1.9
				c0.1,1.1,0.1,2.2,0.2,3.4c0,0.6,0.7,0.6,1.5,0.2c1.6-0.9,3.2-1.7,4.7-2.5c0.9-0.4,1.4-1.1,1.4-1.7
				C115.1,165.7,115,164.6,114.7,163.5z M114,157.1c-0.1-0.6-0.7-0.7-1.5-0.4c-1.5,0.7-2.9,1.6-4.4,2.5c-0.7,0.5-1.2,1.2-1.2,1.9
				c0.1,1.1,0.1,2.2,0.2,3.4c0,0.6,0.7,0.6,1.5,0.2c1.5-0.9,3-1.7,4.6-2.5c0.7-0.4,1.4-1.1,1.2-1.7
				C114.2,159.4,114.1,158.3,114,157.1z M113.3,150.9c-0.1-0.6-0.7-0.7-1.4-0.4c-1.4,0.7-2.7,1.6-4.1,2.5c-0.7,0.5-1.2,1.2-1.2,1.9
				c0.1,1.1,0.1,2.2,0.2,3.4c0,0.6,0.6,0.6,1.4,0.2c1.5-0.9,2.9-1.7,4.4-2.5c0.7-0.4,1.2-1.1,1.2-1.7
				C113.5,153.2,113.4,152,113.3,150.9z M121.1,147.6c-0.1-0.6-0.7-0.9-1.5-0.5c-1.4,0.5-2.9,1.1-4.2,1.7c-0.7,0.4-1.2,1.1-1.1,1.6
				c0.1,1.1,0.2,2.2,0.5,3.4c0.1,0.6,0.7,0.7,1.5,0.4c1.5-0.6,3-1.2,4.4-1.9c0.7-0.2,1.2-1,1.1-1.5
				C121.5,149.7,121.3,148.5,121.1,147.6z M125.9,172.3c-0.1-0.6-0.9-0.7-1.7-0.5c-1.7,0.6-3.5,1.2-5.1,2c-0.9,0.4-1.5,1.1-1.5,1.7
				c0.1,1.1,0.2,2.2,0.5,3.4c0.1,0.6,0.9,0.7,1.7,0.4c1.7-0.7,3.6-1.4,5.4-2c0.9-0.2,1.6-1,1.5-1.6
				C126.3,174.6,126.2,173.4,125.9,172.3z M135.7,169.7c-0.1-0.6-1-0.9-1.9-0.6c-1.7,0.4-3.5,0.9-5.2,1.4c-0.9,0.2-1.5,1-1.4,1.5
				c0.2,1.1,0.5,2.2,0.6,3.4c0.1,0.6,1,0.7,1.9,0.5c1.7-0.5,3.6-1,5.4-1.4c0.9-0.2,1.5-0.9,1.4-1.4
				C136.2,172,135.9,170.8,135.7,169.7z M129.1,145.3c-0.1-0.6-0.9-0.9-1.6-0.7c-1.4,0.4-2.9,0.7-4.2,1.1c-0.7,0.2-1.2,0.9-1.1,1.5
				c0.2,1.1,0.5,2.2,0.6,3.4c0.1,0.6,0.9,0.9,1.6,0.6c1.5-0.5,3-0.9,4.5-1.2c0.7-0.1,1.2-0.7,1.1-1.4
				C129.6,147.6,129.3,146.4,129.1,145.3z M139.1,150.3c-0.2-0.5-1-1-1.7-0.9c-1.5,0.1-3,0.2-4.5,0.5c-0.7,0.1-1.2,0.7-1.1,1.2
				c0.2,1.1,0.6,2.2,0.9,3.2c0.1,0.6,1,0.9,1.7,0.7c1.6-0.2,3.1-0.5,4.7-0.6c0.7-0.1,1.2-0.5,1.1-1.1
				C139.9,152.4,139.5,151.4,139.1,150.3z M141.1,156.3c-0.2-0.5-1-1-1.9-0.9c-1.6,0.1-3.1,0.4-4.7,0.6c-0.7,0.1-1.4,0.7-1.1,1.2
				c0.2,1.1,0.6,2.2,0.9,3.2c0.1,0.6,1,0.9,1.9,0.7c1.6-0.2,3.4-0.5,5-0.6c0.9-0.1,1.4-0.6,1.1-1.1
				C141.9,158.5,141.5,157.4,141.1,156.3z"/>
			<path class="st2" d="M60,141.6c-0.2,0.5-1,1-1.6,1c-1.5,0-2.9,0.1-4.4,0.2c-0.7,0.1-1.1-0.2-0.9-0.7c0.4-1,0.9-2.1,1.2-3.1
				c0.2-0.5,1-1.1,1.7-1.1c1.4-0.1,2.7-0.2,4.1-0.4c0.7,0,1.1,0.4,0.9,1C60.7,139.5,60.3,140.5,60,141.6z"/>
			<path class="st2" d="M68.7,139c0.1-0.6-0.2-1.1-1-1.2c-1.4-0.2-2.7-0.4-4.1-0.4c-0.7,0-1.4,0.4-1.6,1c-0.4,1.1-0.7,2.1-1.1,3.2
				c-0.2,0.5,0.2,1,1,1.1c1.5,0.1,2.9,0.2,4.2,0.5c0.7,0.1,1.5-0.2,1.6-0.7C68.2,141.2,68.4,140.1,68.7,139z"/>
			<path class="st2" d="M76.3,141c0.1-0.6-0.4-1.2-1-1.5c-1.4-0.4-2.7-0.7-4-1.1c-0.7-0.1-1.4,0.2-1.5,0.7c-0.2,1.1-0.6,2.2-0.9,3.2
				c-0.1,0.6,0.4,1.1,1,1.2c1.4,0.4,2.9,0.7,4.2,1.1c0.7,0.2,1.4,0,1.5-0.6C75.8,143.2,76,142.1,76.3,141z"/>
			<path class="st2" d="M83.6,144.1c0.1-0.6-0.4-1.4-1.1-1.6c-1.4-0.6-2.6-1.2-4-1.7c-0.6-0.2-1.4,0-1.5,0.6
				c-0.2,1.1-0.4,2.2-0.6,3.4c-0.1,0.6,0.4,1.2,1.1,1.5c1.4,0.5,2.7,1.1,4.2,1.7c0.7,0.4,1.4,0.1,1.4-0.4
				C83.4,146.4,83.5,145.3,83.6,144.1z"/>
			<path class="st2" d="M91,148.5c0-0.6-0.5-1.4-1.1-1.9c-1.2-0.9-2.6-1.6-3.9-2.4c-0.6-0.4-1.2-0.2-1.4,0.4
				c-0.1,1.1-0.2,2.2-0.4,3.4c-0.1,0.6,0.5,1.4,1.1,1.7c1.4,0.7,2.7,1.6,4.1,2.5c0.7,0.5,1.2,0.4,1.4-0.2
				C90.8,150.8,90.8,149.7,91,148.5z"/>
			<path class="st2" d="M98.1,154.3c0-0.6-0.5-1.5-1.1-2.1c-1.2-1.1-2.5-2.1-3.7-3.1c-0.6-0.5-1.2-0.4-1.2,0.1
				c-0.1,1.1-0.1,2.2-0.2,3.4c0,0.6,0.5,1.5,1.1,2c1.4,1,2.6,2,4,3.1c0.6,0.6,1.2,0.6,1.2,0C98.1,156.5,98.1,155.4,98.1,154.3z"/>
			<path class="st2" d="M59,144.3c0.2-0.5-0.2-1-1-1c-1.5,0-2.9,0.1-4.4,0.2c-0.7,0.1-1.5,0.6-1.7,1.1c-0.4,1-0.9,2.1-1.2,3.1
				c-0.2,0.5,0.2,0.9,1,0.9c1.5-0.1,3-0.2,4.5-0.2c0.7,0,1.5-0.4,1.7-1C58.2,146.4,58.6,145.4,59,144.3z"/>
			<path class="st2" d="M98.1,160.5c0-0.6-0.5-1.5-1.2-2.1c-1.4-1.1-2.6-2.1-4-3.1c-0.7-0.5-1.2-0.4-1.2,0.1
				c-0.1,1.1-0.1,2.2-0.2,3.4c0,0.6,0.5,1.5,1.2,2c1.4,1,2.9,2,4.2,3.1c0.7,0.6,1.2,0.6,1.2,0C97.9,162.9,97.9,161.6,98.1,160.5z"/>
			<path class="st2" d="M56.9,150.3c0.2-0.5-0.2-1-1-1c-1.5,0-3,0-4.6,0.1c-0.7,0.1-1.6,0.6-1.7,1.1c-0.4,1-0.9,2.1-1.2,3.1
				c-0.2,0.5,0.2,0.9,1,0.9c1.6-0.1,3.1-0.1,4.7-0.1c0.7,0,1.6-0.4,1.9-1C56.1,152.4,56.5,151.3,56.9,150.3z"/>
			<path class="st2" d="M73.8,153.4c0.1-0.6-0.4-1.2-1.1-1.5c-1.5-0.5-3-0.9-4.5-1.2c-0.7-0.1-1.5,0.1-1.6,0.7
				c-0.2,1.1-0.6,2.2-0.9,3.2c-0.1,0.6,0.4,1.1,1.1,1.4c1.6,0.4,3.1,0.7,4.7,1.2c0.7,0.2,1.5,0,1.6-0.6
				C73.3,155.5,73.5,154.4,73.8,153.4z"/>
			<path class="st2" d="M82,156.6c0.1-0.6-0.5-1.4-1.2-1.6c-1.5-0.6-3-1.2-4.5-1.9c-0.7-0.2-1.5,0-1.6,0.5c-0.2,1.1-0.4,2.2-0.6,3.4
				c-0.1,0.6,0.5,1.2,1.2,1.5c1.6,0.6,3.1,1.2,4.6,1.9c0.7,0.4,1.5,0.1,1.6-0.4C81.8,158.9,81.9,157.8,82,156.6z"/>
			<path class="st2" d="M90.1,161.1c0-0.6-0.5-1.5-1.2-1.9c-1.5-0.9-2.9-1.7-4.4-2.5c-0.7-0.4-1.4-0.2-1.5,0.4
				c-0.1,1.1-0.2,2.2-0.4,3.4c-0.1,0.6,0.5,1.4,1.2,1.7c1.5,0.7,3.1,1.6,4.6,2.5c0.7,0.5,1.4,0.4,1.5-0.2
				C90,163.4,90.1,162.2,90.1,161.1z"/>
			<path class="st2" d="M97.9,166.8c0-0.6-0.6-1.5-1.2-2.1c-1.4-1.1-2.7-2.1-4.2-3.1c-0.7-0.5-1.4-0.4-1.4,0.1
				c-0.1,1.1-0.1,2.2-0.2,3.4c0,0.6,0.5,1.5,1.4,2c1.5,1,3,2,4.4,3.1c0.7,0.6,1.4,0.6,1.4,0C97.9,169.1,97.9,168,97.9,166.8z"/>
			<path class="st2" d="M54.7,156.3c0.2-0.5-0.2-1-1.1-1c-1.6,0-3.1,0-4.7,0.1c-0.7,0-1.6,0.5-1.9,1.1c-0.4,1-0.9,2.1-1.2,3.1
				c-0.2,0.5,0.2,0.9,1.1,0.9c1.6-0.1,3.2-0.1,4.9,0c0.9,0,1.6-0.4,1.9-0.9C54,158.4,54.4,157.3,54.7,156.3z"/>
			<path class="st2" d="M89.7,167.5c0-0.6-0.5-1.5-1.4-1.9c-1.5-0.9-3-1.7-4.6-2.5c-0.7-0.4-1.5-0.2-1.5,0.4
				c-0.1,1.1-0.2,2.2-0.4,3.4c-0.1,0.6,0.5,1.4,1.4,1.7c1.6,0.7,3.2,1.6,4.7,2.5c0.7,0.5,1.5,0.4,1.5-0.2
				C89.6,169.7,89.6,168.6,89.7,167.5z"/>
			<path class="st2" d="M97.9,173.2c0-0.6-0.6-1.5-1.4-2.1c-1.5-1.1-2.9-2.1-4.4-3.1c-0.7-0.5-1.4-0.4-1.5,0.1
				c-0.1,1.1-0.1,2.2-0.2,3.4c0,0.6,0.6,1.5,1.4,2c1.5,1,3.1,2,4.6,3.1c0.7,0.6,1.4,0.6,1.4,0C97.9,175.4,97.9,174.3,97.9,173.2z"/>
			<path class="st2" d="M52.6,162.2c0.2-0.5-0.4-1-1.1-1.1c-1.6,0-3.4,0-5,0c-0.9,0-1.7,0.5-1.9,1.1c-0.4,1-0.9,2.1-1.2,3.1
				c-0.2,0.5,0.2,0.9,1.1,0.9c1.7,0,3.4,0,5.1,0c0.9,0,1.7-0.4,2-0.9C51.9,164.4,52.3,163.2,52.6,162.2z"/>
			<path class="st2" d="M71.2,165.7c0.1-0.6-0.5-1.2-1.4-1.5c-1.6-0.5-3.4-0.9-5-1.2c-0.9-0.2-1.6,0.1-1.9,0.6
				c-0.2,1.1-0.6,2.2-0.9,3.2c-0.1,0.6,0.5,1.1,1.4,1.4c1.7,0.4,3.5,0.9,5.2,1.4c0.9,0.2,1.7,0,1.7-0.5
				C70.8,168,70.9,166.8,71.2,165.7z"/>
			<path class="st2" d="M80.4,169.2c0.1-0.6-0.5-1.4-1.4-1.7c-1.6-0.7-3.2-1.4-5-1.9c-0.9-0.2-1.6,0-1.7,0.5
				c-0.2,1.1-0.4,2.2-0.6,3.4c-0.1,0.6,0.5,1.2,1.4,1.6c1.7,0.6,3.5,1.2,5.1,2c0.9,0.4,1.6,0.2,1.7-0.4
				C80,171.5,80.3,170.3,80.4,169.2z"/>
			<path class="st2" d="M89.4,173.8c0-0.6-0.6-1.5-1.4-1.9c-1.6-0.9-3.2-1.7-4.9-2.5c-0.9-0.4-1.5-0.2-1.6,0.4
				c-0.1,1.1-0.2,2.2-0.4,3.4c-0.1,0.6,0.6,1.4,1.4,1.7c1.7,0.7,3.4,1.6,5,2.5c0.9,0.5,1.5,0.4,1.6-0.2
				C89.2,176.1,89.2,174.9,89.4,173.8z"/>
			<path class="st2" d="M97.9,179.5c0-0.6-0.6-1.5-1.4-2.1c-1.5-1.1-3.1-2.1-4.6-3.1c-0.7-0.5-1.5-0.4-1.5,0.1
				c-0.1,1.1-0.1,2.2-0.2,3.4c0,0.6,0.6,1.5,1.5,2c1.6,1,3.2,2,4.9,3.1c0.7,0.6,1.5,0.6,1.5,0C97.9,181.8,97.9,180.7,97.9,179.5z"/>
			<path class="st2" d="M50.6,168.2c0.2-0.5-0.4-1-1.2-1.1c-1.7-0.1-3.5-0.1-5.1,0c-0.9,0-1.7,0.5-2,1c-0.4,1-0.9,2.1-1.2,3.1
				c-0.2,0.5,0.4,1,1.2,0.9c1.7,0,3.5,0,5.4,0.1c0.9,0,1.7-0.4,2-0.9C49.9,170.3,50.3,169.2,50.6,168.2z"/>
			<path class="st2" d="M69.9,172c0.1-0.6-0.5-1.2-1.4-1.5c-1.7-0.5-3.5-1-5.2-1.4c-0.9-0.2-1.7,0.1-1.9,0.6
				c-0.2,1.1-0.6,2.2-0.9,3.2c-0.1,0.6,0.5,1.1,1.4,1.4c1.7,0.4,3.6,0.9,5.4,1.4c0.9,0.2,1.7,0,1.9-0.5
				C69.4,174.2,69.7,173.1,69.9,172z"/>
			<path class="st2" d="M79.5,175.4c0.1-0.6-0.6-1.4-1.5-1.7c-1.7-0.7-3.5-1.4-5.1-2c-0.9-0.2-1.7-0.1-1.7,0.5
				c-0.2,1.1-0.4,2.2-0.6,3.4c-0.1,0.6,0.5,1.2,1.5,1.6c1.7,0.6,3.6,1.2,5.4,2c0.9,0.4,1.7,0.2,1.7-0.4
				C79.3,177.7,79.4,176.6,79.5,175.4z"/>
			<path class="st2" d="M88.9,180c0-0.6-0.6-1.5-1.5-1.9c-1.6-0.9-3.4-1.7-5-2.5c-0.9-0.4-1.6-0.2-1.7,0.4c-0.1,1.1-0.2,2.2-0.4,3.4
				c-0.1,0.6,0.6,1.4,1.5,1.7c1.7,0.7,3.5,1.6,5.2,2.5c0.9,0.5,1.6,0.4,1.6-0.2C88.7,182.3,88.9,181.2,88.9,180z"/>
			<path class="st2" d="M48.5,174.1c0.2-0.5-0.4-1-1.2-1.1c-1.7-0.1-3.6-0.1-5.4-0.1c-0.9,0-1.7,0.5-2,1c-0.4,1-0.9,2.1-1.2,3.1
				c-0.2,0.5,0.4,1,1.2,1c1.9,0,3.6,0,5.5,0.1c1,0.1,1.9-0.2,2.1-0.9C47.8,176.3,48.1,175.2,48.5,174.1z"/>
			<path class="st2" d="M58.6,175.6c0.1-0.6-0.5-1.1-1.4-1.4c-1.9-0.4-3.6-0.6-5.5-0.7c-0.9-0.1-1.9,0.2-2,0.9
				c-0.4,1.1-0.7,2.1-1.1,3.2c-0.2,0.5,0.4,1.1,1.4,1.2c1.9,0.2,3.7,0.5,5.6,0.9c1,0.1,1.9-0.1,2-0.6
				C58,177.8,58.2,176.7,58.6,175.6z"/>
			<path class="st2" d="M68.7,178.2c0.1-0.6-0.5-1.2-1.5-1.5c-1.9-0.5-3.6-1-5.5-1.4c-0.9-0.2-1.7,0.1-2,0.6
				c-0.2,1.1-0.6,2.2-0.9,3.2c-0.1,0.6,0.5,1.1,1.5,1.4c1.9,0.4,3.7,0.9,5.6,1.5c1,0.2,1.9,0,2-0.5
				C68.2,180.3,68.4,179.2,68.7,178.2z"/>
			<path class="st2" d="M78.6,181.8c0.1-0.6-0.6-1.4-1.5-1.7c-1.7-0.7-3.6-1.4-5.4-2c-0.9-0.2-1.7-0.1-1.9,0.5
				c-0.2,1.1-0.4,2.2-0.6,3.4c-0.1,0.6,0.6,1.2,1.5,1.6c1.9,0.6,3.7,1.2,5.6,2c1,0.4,1.7,0.2,1.9-0.4
				C78.4,184,78.5,182.9,78.6,181.8z"/>
			<path class="st2" d="M105.4,152.5c0,0.6-0.5,1.5-1.1,2c-1.4,1-2.6,2-4,3.1c-0.6,0.6-1.2,0.6-1.2,0c0-1.1,0-2.2,0-3.4
				c0-0.6,0.5-1.5,1.1-2.1c1.2-1.1,2.5-2.1,3.7-3.1c0.6-0.5,1.2-0.4,1.2,0.1C105.3,150.3,105.3,151.4,105.4,152.5z"/>
			<path class="st2" d="M112.5,144.6c-0.1-0.6-0.6-0.7-1.4-0.4c-1.4,0.7-2.6,1.5-3.9,2.4c-0.6,0.5-1.1,1.2-1.1,1.9
				c0.1,1.1,0.1,2.2,0.2,3.4c0,0.6,0.6,0.6,1.4,0.2c1.4-0.9,2.7-1.7,4.1-2.5c0.7-0.4,1.2-1.1,1.1-1.7
				C112.8,146.8,112.6,145.7,112.5,144.6z"/>
			<path class="st2" d="M119.8,141.3c-0.1-0.6-0.7-0.9-1.5-0.6c-1.4,0.5-2.6,1.1-4,1.7c-0.6,0.4-1.1,1.1-1.1,1.6
				c0.1,1.1,0.2,2.2,0.5,3.4c0.1,0.6,0.7,0.7,1.4,0.4c1.4-0.6,2.7-1.2,4.2-1.7c0.7-0.2,1.2-1,1.1-1.5
				C120.3,143.6,120.1,142.4,119.8,141.3z"/>
			<path class="st2" d="M127.4,139.2c-0.1-0.6-0.9-0.9-1.5-0.7c-1.4,0.2-2.7,0.6-4,1.1c-0.6,0.2-1.1,0.9-1,1.5
				c0.2,1.1,0.5,2.2,0.6,3.4c0.1,0.6,0.7,0.9,1.5,0.6c1.4-0.5,2.9-0.9,4.2-1.1c0.7-0.1,1.2-0.7,1-1.2
				C127.9,141.3,127.7,140.3,127.4,139.2z"/>
			<path class="st2" d="M135,138.3c-0.2-0.5-0.9-1-1.6-1c-1.4,0.1-2.7,0.2-4.1,0.4c-0.7,0.1-1.1,0.6-1,1.2c0.2,1.1,0.6,2.2,0.9,3.2
				c0.1,0.6,0.9,0.9,1.6,0.7c1.4-0.2,2.9-0.4,4.2-0.5c0.7,0,1.1-0.5,1-1.1C135.8,140.5,135.4,139.5,135,138.3z"/>
			<path class="st2" d="M142.8,138.8c-0.2-0.5-1-1.1-1.7-1.1c-1.4-0.1-2.7-0.2-4.1-0.4c-0.7,0-1.1,0.4-0.9,1
				c0.4,1.1,0.7,2.1,1.1,3.2c0.2,0.5,1,1,1.6,1c1.5,0,2.9,0.1,4.4,0.2c0.7,0.1,1.1-0.2,0.9-0.7C143.6,141,143.1,140,142.8,138.8z"/>
			<path class="st2" d="M105.5,155.5c0-0.6-0.6-0.6-1.2-0.1c-1.4,1-2.7,2-4,3.1c-0.6,0.6-1.2,1.5-1.2,2.1c0,1.1,0,2.2,0,3.4
				c0,0.6,0.6,0.6,1.2,0c1.4-1.1,2.7-2.1,4.2-3.1c0.7-0.5,1.2-1.4,1.2-2C105.7,157.8,105.7,156.6,105.5,155.5z"/>
			<path class="st2" d="M137,144.3c-0.2-0.5-1-1-1.6-0.9c-1.5,0.1-2.9,0.2-4.4,0.5c-0.7,0.1-1.2,0.6-1,1.2c0.2,1.1,0.6,2.2,0.9,3.2
				c0.1,0.6,0.9,0.9,1.6,0.7c1.5-0.2,3-0.4,4.5-0.5c0.7,0,1.2-0.5,1-1.1C137.8,146.4,137.4,145.4,137,144.3z"/>
			<path class="st2" d="M145.1,144.7c-0.2-0.5-1-1.1-1.7-1.1c-1.5-0.1-2.9-0.2-4.4-0.2c-0.7,0-1.1,0.5-1,1c0.4,1.1,0.7,2.1,1.1,3.2
				c0.2,0.5,1,1,1.7,1c1.5,0,3,0,4.5,0.2c0.7,0.1,1.2-0.2,1-0.9C146,146.8,145.6,145.8,145.1,144.7z"/>
			<path class="st2" d="M105.9,161.7c0-0.6-0.6-0.6-1.4-0.1c-1.4,1-2.9,2-4.2,3.1c-0.7,0.6-1.2,1.5-1.2,2.1c0,1.1,0,2.2,0,3.4
				c0,0.6,0.6,0.6,1.4,0c1.5-1.1,2.9-2.1,4.4-3.1c0.7-0.5,1.4-1.4,1.4-2C106,164.1,106,162.9,105.9,161.7z"/>
			<path class="st2" d="M122.3,153.7c-0.1-0.6-0.9-0.9-1.6-0.5c-1.5,0.5-3,1.1-4.5,1.9c-0.7,0.4-1.2,1.1-1.2,1.6
				c0.1,1.1,0.2,2.2,0.5,3.4c0.1,0.6,0.7,0.7,1.6,0.4c1.5-0.6,3.1-1.2,4.6-1.9c0.7-0.2,1.4-1,1.2-1.5
				C122.7,155.9,122.5,154.8,122.3,153.7z"/>
			<path class="st2" d="M130.7,151.4c-0.1-0.6-0.9-0.9-1.6-0.7c-1.5,0.4-3,0.7-4.5,1.2c-0.7,0.2-1.2,0.9-1.1,1.5
				c0.2,1.1,0.5,2.2,0.6,3.4c0.1,0.6,0.9,0.9,1.6,0.6c1.6-0.5,3.1-0.9,4.7-1.2c0.7-0.1,1.4-0.7,1.1-1.4
				C131.3,153.7,130.9,152.5,130.7,151.4z"/>
			<path class="st2" d="M147.6,150.5c-0.2-0.5-1-1-1.7-1.1c-1.5-0.1-3-0.2-4.6-0.1c-0.7,0-1.2,0.5-1,1c0.4,1.1,0.7,2.1,1.1,3.2
				c0.2,0.5,1,1,1.9,1c1.6,0,3.1,0,4.7,0.1c0.7,0,1.2-0.4,1-0.9C148.5,152.7,148,151.7,147.6,150.5z"/>
			<path class="st2" d="M106.3,168.1c0-0.6-0.6-0.6-1.5-0.1c-1.5,1-3,2-4.4,3.1c-0.7,0.6-1.4,1.5-1.4,2.1c0,1.1,0,2.2,0,3.4
				c0,0.6,0.6,0.6,1.4,0c1.5-1.1,3-2.1,4.6-3.1c0.7-0.5,1.4-1.4,1.4-2C106.4,170.3,106.4,169.2,106.3,168.1z"/>
			<path class="st2" d="M123.5,159.9c-0.1-0.6-0.9-0.9-1.6-0.5c-1.6,0.6-3.1,1.2-4.7,1.9c-0.7,0.4-1.4,1.1-1.2,1.7
				c0.1,1.1,0.2,2.2,0.5,3.4c0.1,0.6,0.7,0.7,1.6,0.4c1.6-0.7,3.2-1.4,4.9-1.9c0.9-0.2,1.4-1,1.4-1.5
				C124,162.1,123.7,161,123.5,159.9z"/>
			<path class="st2" d="M132.3,157.5c-0.1-0.6-0.9-0.9-1.7-0.7c-1.6,0.4-3.1,0.7-4.7,1.2c-0.7,0.2-1.4,0.9-1.2,1.5
				c0.2,1.1,0.5,2.2,0.6,3.4c0.1,0.6,0.9,0.9,1.7,0.6c1.6-0.5,3.2-0.9,5-1.2c0.9-0.2,1.4-0.7,1.2-1.4
				C132.9,159.8,132.7,158.6,132.3,157.5z"/>
			<path class="st2" d="M150,156.4c-0.2-0.5-1-1-1.9-1.1c-1.6-0.1-3.1-0.1-4.7-0.1c-0.7,0-1.2,0.5-1.1,1c0.4,1.1,0.7,2.1,1.1,3.2
				c0.2,0.5,1,1,1.9,0.9c1.6,0,3.2,0,4.9,0c0.9,0,1.4-0.4,1.1-0.9C150.8,158.5,150.5,157.4,150,156.4z"/>
			<path class="st2" d="M106.7,174.4c0-0.6-0.7-0.6-1.5-0.1c-1.6,1-3.1,2-4.6,3.1c-0.7,0.6-1.4,1.5-1.4,2.1c0,1.1,0,2.2,0,3.4
				c0,0.6,0.6,0.6,1.5,0c1.6-1.1,3.1-2.1,4.9-3.1c0.9-0.5,1.5-1.4,1.5-2C106.8,176.7,106.7,175.6,106.7,174.4z"/>
			<path class="st2" d="M124.7,166.1c-0.1-0.6-0.9-0.7-1.7-0.5c-1.6,0.6-3.2,1.2-5,1.9c-0.9,0.4-1.5,1.1-1.4,1.7
				c0.1,1.1,0.2,2.2,0.5,3.4c0.1,0.6,0.9,0.7,1.7,0.4c1.7-0.7,3.4-1.4,5.1-2c0.9-0.2,1.5-1,1.4-1.6
				C125.2,168.3,125,167.2,124.7,166.1z"/>
			<path class="st2" d="M133.9,163.6c-0.1-0.6-1-0.9-1.9-0.6c-1.6,0.4-3.4,0.9-5,1.2c-0.9,0.2-1.4,0.9-1.4,1.5
				c0.2,1.1,0.5,2.2,0.6,3.4c0.1,0.6,0.9,0.7,1.7,0.5c1.7-0.5,3.5-1,5.2-1.4c0.9-0.2,1.5-0.7,1.4-1.4
				C134.5,165.9,134.3,164.7,133.9,163.6z"/>
			<path class="st2" d="M152.5,162.2c-0.2-0.5-1.1-1-1.9-1.1c-1.6-0.1-3.2-0.1-5,0c-0.9,0-1.4,0.5-1.1,1.1c0.4,1.1,0.7,2.1,1.1,3.2
				c0.2,0.5,1.1,1,2,0.9c1.7-0.1,3.4-0.1,5.1,0c0.9,0,1.4-0.4,1.1-0.9C153.3,164.4,152.8,163.2,152.5,162.2z"/>
			<path class="st2" d="M145.2,168.2c-0.2-0.5-1-1-2-0.9c-1.7,0.2-3.5,0.4-5.2,0.7c-0.9,0.1-1.5,0.7-1.4,1.4
				c0.2,1.1,0.6,2.2,0.9,3.2c0.1,0.6,1,0.9,2,0.7c1.7-0.4,3.6-0.6,5.4-0.7c0.9-0.1,1.5-0.6,1.4-1.1
				C146,170.5,145.6,169.3,145.2,168.2z"/>
			<path class="st2" d="M154.8,168.1c-0.2-0.5-1.1-1-2-1c-1.7,0-3.4,0-5.1,0c-0.9,0-1.5,0.5-1.2,1.1c0.4,1.1,0.7,2.1,1.1,3.2
				c0.2,0.5,1.1,0.9,2,0.9c1.7-0.1,3.6-0.1,5.4-0.1c0.9,0,1.5-0.4,1.2-0.9C155.7,170.2,155.2,169.1,154.8,168.1z"/>
			<path class="st2" d="M127.2,178.5c-0.1-0.6-1-0.7-1.9-0.5c-1.7,0.6-3.6,1.2-5.4,2c-0.9,0.4-1.6,1.1-1.5,1.7
				c0.1,1.1,0.2,2.2,0.5,3.4c0.1,0.6,0.9,0.7,1.9,0.4c1.9-0.7,3.7-1.4,5.6-2c1-0.4,1.6-1,1.5-1.6
				C127.6,180.8,127.3,179.7,127.2,178.5z"/>
			<path class="st2" d="M137.3,175.8c-0.1-0.6-1-0.9-2-0.6c-1.9,0.4-3.6,0.9-5.5,1.4c-0.9,0.2-1.6,1-1.5,1.5
				c0.2,1.1,0.5,2.2,0.6,3.4c0.1,0.6,1,0.7,2,0.5c1.9-0.5,3.7-1,5.6-1.5c1-0.2,1.6-0.9,1.5-1.4C137.9,178.1,137.5,176.9,137.3,175.8
				z"/>
			<path class="st2" d="M147.4,174.2c-0.2-0.5-1.1-0.9-2-0.9c-1.7,0.2-3.6,0.5-5.5,0.7c-0.9,0.1-1.5,0.7-1.4,1.4
				c0.2,1.1,0.6,2.2,0.9,3.2c0.1,0.6,1.1,0.9,2,0.6c1.9-0.4,3.7-0.6,5.6-0.9c1-0.1,1.6-0.6,1.4-1.2
				C148.1,176.4,147.7,175.3,147.4,174.2z"/>
			<path class="st2" d="M157.2,173.9c-0.2-0.5-1.1-1-2-1c-1.7,0-3.5,0-5.4,0.1c-0.9,0-1.5,0.6-1.2,1.1c0.4,1.1,0.7,2.1,1.1,3.2
				c0.2,0.5,1.1,0.9,2.1,0.9c1.9-0.1,3.7-0.2,5.5-0.1c0.9,0,1.5-0.4,1.2-1C158.1,176.1,157.7,174.9,157.2,173.9z"/>
		</g>
	</g>
</g>
<g>
	<g class="st7">
		<g>
			<path d="M134,44.2c0.4,0.7,0.9,1.7,1.2,2.7c0.4,1,1,2.2,1.5,3.6c0.5,1.4,1,2.7,1.5,4.2s0.7,3,1.1,4.5c0.4,1.5,0.4,3,0.4,4.5
				c0,2.4-0.4,4.7-1.1,6.7c-0.7,2.1-1.7,4-3.1,5.5c-1.4,1.5-3,2.7-5,3.7c-2,0.9-4.2,1.4-6.8,1.4c-2.2,0-4.1-0.4-5.5-1.1
				s-2.6-1.7-3.5-3.1c-0.5,0.6-1.1,1.2-1.6,1.7c-0.6,0.5-1.2,1-2.1,1.4c-0.7,0.4-1.7,0.6-2.7,0.9c-1.1,0.2-2.4,0.2-3.7,0.2
				c-1,0-2-0.1-2.9-0.2s-1.6-0.4-2.4-0.5c0,2.9-0.5,5.5-1.2,7.8c-0.9,2.4-2,4.5-3.5,6.3c-1.5,1.9-3.1,3.5-5.1,4.9s-4.1,2.5-6.3,3.4
				c-2.2,0.9-4.6,1.6-7.1,2c-2.5,0.5-4.9,0.6-7.3,0.6c-3.7,0-7.2-0.6-10.3-1.9c-3.2-1.2-6-3-8.2-5.2c-2.4-2.2-4.1-5-5.4-8.1
				c-1.2-3.1-2-6.6-2-10.3c0.1-2.2,0.4-4.5,0.9-6.7s1.2-4.5,2-6.7c0.9-2.2,1.7-4.2,2.7-6.2s2-3.7,3.1-5.4l8,6.1
				c-0.9,1.5-1.7,3-2.6,4.6c-0.9,1.6-1.6,3.2-2.2,4.9s-1.1,3.4-1.5,5s-0.6,3.2-0.6,4.9c-0.1,1.9,0.2,3.6,1.1,5.2
				c0.9,1.6,2,3.1,3.4,4.4c1.5,1.2,3.1,2.2,5.1,2.9c2,0.7,4.1,1.1,6.2,1.1c2.5,0,4.9-0.2,7-0.7s4-1.1,5.7-1.9c1.6-0.9,3-1.9,4.1-3
				s1.9-2.5,2.4-3.9l0,0c0.6-2,0.9-4,0.9-6.2c0-1.6-0.2-3.2-0.7-5c-0.5-1.7-1.1-3.4-1.7-5.1c-0.7-1.7-1.5-3.5-2.5-5.2
				s-1.7-3.5-2.6-5.2l10.1-5.6c0.6,1.5,1.2,2.9,1.9,4.4c0.6,1.5,1.2,2.9,1.9,4.2c0.6,1.4,1.4,2.6,2,3.7c0.6,1.1,1.4,2.1,2.1,3
				s1.5,1.5,2.2,1.9s1.6,0.6,2.5,0.5c1-0.1,1.9-0.5,2.5-1.1s1.1-1.2,1.5-2.1s0.5-1.9,0.6-2.9c0.1-1.1,0.1-2.1,0-3.2
				c0-1.1-0.1-2.2-0.2-3.2c-0.1-1.1-0.2-2.1-0.2-3l10.1-1.4c0.1,0.7,0.4,1.6,0.5,2.7c0.1,1.1,0.2,2.2,0.4,3.4
				c0.1,1.1,0.4,2.4,0.6,3.6c0.2,1.2,0.6,2.4,1,3.4s0.9,1.9,1.5,2.6s1.4,1.2,2.4,1.6c0.7,0,1.5-0.1,2.1-0.4c0.6-0.2,1.2-0.7,1.7-1.2
				s0.9-1.2,1.1-2c0.2-0.7,0.4-1.7,0.4-2.7c0-0.9-0.1-1.9-0.5-3.1c-0.4-1.1-0.7-2.4-1.4-3.7c-0.6-1.4-1.2-2.7-2-4.2
				c-0.7-1.5-1.5-3-2.4-4.5l9.3-5.2C133.3,42.9,133.7,43.4,134,44.2z"/>
			<path d="M163,59.3c0.6,1.7,1.1,3.6,1.6,5.5c0.5,1.9,0.9,3.7,1.2,5.6c0.4,1.9,0.5,3.6,0.5,5.2c0,2.2-0.4,4.5-1,6.7
				s-1.5,4.4-2.6,6.3c-1.1,2-2.5,4-4.1,5.9s-3.2,3.6-5.2,5.4c-1.9,1.6-4,3.2-6.1,4.6s-4.5,2.7-6.7,3.9l-6.7-9.2
				c1.7-0.9,3.5-1.9,5.4-3c1.7-1.1,3.5-2.4,5.1-3.6s3.2-2.6,4.6-4c1.4-1.4,2.6-2.9,3.7-4.2c1.1-1.5,1.9-2.9,2.5-4.4s0.9-2.9,0.9-4.4
				c0-1-0.1-2.1-0.4-3.4c-0.2-1.2-0.6-2.5-1.1-3.9s-1-2.9-1.7-4.4c-0.6-1.5-1.4-3.2-2.1-5l10.6-4.9C161.9,55.9,162.4,57.5,163,59.3z
				"/>
			<path d="M177.1,66.1c1.4,0.6,2.7,1.2,4.2,1.9c1.5,0.5,2.9,1,4.2,1.4c1.4,0.4,2.6,0.5,3.6,0.5c0.6,0,1.4,0,2.4-0.1s2-0.2,3-0.6
				c1-0.2,1.9-0.6,2.5-1.2c0.7-0.5,1.1-1.2,1.1-2c0-1-0.2-2-0.9-3.2c-0.6-1.2-1.4-2.5-2.4-3.7s-2.2-2.6-3.5-4
				c-1.4-1.4-2.7-2.6-4.1-3.9c-1.4-1.2-2.9-2.4-4.2-3.5s-2.7-2-3.9-2.7l6.5-9.6c2.4,1.6,4.7,3.5,7.1,5.6c2.4,2.1,4.5,4.2,6.5,6.6
				c2,2.2,3.7,4.7,5.1,7.1c1.5,2.5,2.5,5,3.1,7.5c0.2,0.7,0.4,1.4,0.4,2.1c0.1,0.7,0.1,1.4,0.1,2.1c0,2.2-0.5,4.4-1.4,6.2
				c-0.9,1.9-2.1,3.5-3.7,4.9s-3.5,2.5-5.6,3.2c-2.2,0.7-4.6,1.1-7.2,1.1c-0.2,0-0.4,0-0.6,0c-0.2,0-0.4,0-0.6,0
				c-1.7,0-3.4-0.1-5.2-0.5c-1.7-0.4-3.5-0.9-5.2-1.4c-1.7-0.6-3.4-1.2-5-2c-1.6-0.7-3.1-1.6-4.5-2.5l4.9-11.1
				C174.5,64.8,175.7,65.5,177.1,66.1z"/>
			<path d="M214.7,75.1c0.1-2.1,0.2-4.2,0.4-6.3s0.1-4.1,0.1-6.1s0-3.9-0.1-5.5c-0.1-3.5-0.2-6.5-0.4-9.1c-0.1-2.6-0.2-5-0.4-7
				c-0.1-2-0.2-3.9-0.4-5.4c-0.1-1.5-0.2-2.9-0.4-4.2c-0.1-1.2-0.2-2.5-0.5-3.6c-0.1-1.1-0.4-2.2-0.5-3.5l11.3-3.7
				c0.5,3.2,1,6.6,1.2,9.8c0.4,3.4,0.6,6.5,0.7,9.6s0.2,5.9,0.4,8.5c0,2.6,0.1,4.9,0.1,6.7c0,1.7,0,3.5,0,5.5s0,4-0.1,6.1
				s-0.1,4.2-0.1,6.3c-0.1,2.1-0.1,4.2-0.4,6.3l-11.3,1.7C214.5,79.3,214.6,77.2,214.7,75.1z"/>
			<path d="M258.5,81.2c-0.5,0-1.2,0-2.1-0.1s-1.9-0.4-3-0.7c-0.5,3-1.5,5.9-3,8.6s-3.4,5.2-5.5,7.7c-2.1,2.4-4.6,4.6-7.5,6.6
				c-2.7,2-5.7,3.9-9,5.4l-6.7-9.2c1.7-0.9,3.5-1.9,5.2-2.9s3.5-2.1,5-3.2c1.6-1.1,3.1-2.4,4.5-3.6s2.6-2.6,3.6-3.9
				c1-1.4,1.9-2.7,2.4-4.1c0.6-1.4,0.9-2.9,0.9-4.2c0-1-0.1-2.1-0.5-3.6s-0.9-3-1.4-4.7c-0.6-1.7-1.2-3.4-1.9-5.1
				c-0.6-1.7-1.4-3.2-2-4.7l10.6-4.6c1,3,1.9,5.4,2.9,7.3c1,2,1.7,3.5,2.6,4.7c0.9,1.1,1.6,2,2.4,2.5c0.7,0.5,1.5,0.7,2.2,0.7h0.9
				v11.6h-0.6V81.2z"/>
			<path d="M292.5,69.6v11.6h-34.7V69.6H292.5z"/>
			<path d="M292.4,69.6c0.9,0,2,0,3.2,0s2.6,0,4.1-0.1s3-0.1,4.5-0.2s3-0.2,4.4-0.5c1.4-0.2,2.6-0.5,3.7-0.9s2.1-0.9,2.9-1.4
				c-3.2,0.4-6.1,0.4-8.8,0.2c-2.6-0.1-5-0.6-7-1.5s-3.5-2.2-4.5-4c-1.1-1.7-1.6-4.1-1.6-7c0-1.4,0.1-2.7,0.4-4.1
				c0.2-1.4,0.6-2.9,1.2-4.2c0.5-1.4,1.2-2.7,2-3.9c0.7-1.2,1.7-2.4,2.9-3.2c1.1-0.9,2.2-1.6,3.6-2.2c1.2-0.5,2.7-0.9,4.2-0.9
				c2,0,3.7,0.4,5.4,1.1c1.6,0.7,3,1.7,4.4,3c1.2,1.2,2.4,2.7,3.4,4.4c1,1.6,1.7,3.4,2.4,5.2c0.6,1.9,1.1,3.7,1.4,5.6
				c0.4,1.9,0.5,3.7,0.5,5.5c0,3-0.4,5.5-1.2,7.7c-0.9,2.1-2,4-3.5,5.6s-3.2,2.9-5.2,3.7c-2,1-4.2,1.7-6.6,2.4c-2.4,0.6-5,1-7.6,1.1
				c-2.7,0.2-5.5,0.4-8.2,0.4h-1.4V69.6H292.4z M307.2,31.9l-8.1-8.1l8.1-8.1l8.1,8.1L307.2,31.9z M307.5,47.3
				c-0.6,0-1.1,0.1-1.7,0.5s-1.1,0.9-1.6,1.4c-0.5,0.6-0.9,1.2-1.2,2s-0.5,1.5-0.5,2.4c0,0.7,0.2,1.4,0.6,1.7c0.5,0.5,1,0.9,1.7,1.1
				c0.7,0.2,1.5,0.5,2.4,0.6s1.7,0.1,2.6,0.1s1.6,0,2.5,0s1.4-0.1,1.9-0.1c-0.2-1.1-0.5-2.2-0.9-3.4c-0.4-1.1-0.7-2.1-1.4-3.1
				c-0.5-0.9-1.1-1.7-1.9-2.4C309.2,47.7,308.3,47.3,307.5,47.3z"/>
			<path d="M369.7,81.2c-2,0-4-0.4-6-1s-3.9-1.6-5.5-3c-1.6-1.2-3-2.9-4-4.7c-1-1.9-1.6-4-1.6-6.2c0-4.9,2.1-10,6.5-15.2
				c0.4-0.4,0.6-0.7,0.9-1c0.2-0.2,0.5-0.5,0.6-0.7c0.2-0.2,0.4-0.4,0.5-0.6l0.6-0.6l-2.2-1.9l7.3-9c1.2,0.9,2.7,2.2,4.5,3.7
				c1.7,1.5,3.7,3.6,6,6c6.3,7.2,9.5,13.6,9.5,19.3c0,2.5-0.5,4.6-1.5,6.5s-2.4,3.4-3.9,4.7c-1.6,1.2-3.5,2.2-5.5,2.9
				C373.8,80.9,371.7,81.2,369.7,81.2z M376.8,66.4c0-0.7-0.2-1.6-0.7-2.6s-1.1-2-1.9-3c-0.7-1-1.6-2.1-2.6-3.1c-1-1.1-2-2.1-3-3.1
				c-0.6,0.7-1.4,1.6-2.1,2.5s-1.4,1.9-2,2.9s-1.2,2-1.5,3c-0.4,1.1-0.6,2.1-0.5,3.2c0,0.6,0.2,1.1,0.9,1.5c0.5,0.5,1.1,0.7,1.9,1.1
				c0.7,0.2,1.5,0.5,2.4,0.6s1.5,0.2,2.1,0.2c0.7,0,1.5,0,2.4-0.1s1.6-0.2,2.4-0.6c0.7-0.4,1.2-0.6,1.7-1.1
				C376.5,67.5,376.8,67,376.8,66.4z"/>
			<path d="M410.5,59.3c0.6,1.7,1.1,3.6,1.6,5.5c0.5,1.9,0.9,3.7,1.2,5.6c0.4,1.9,0.5,3.6,0.5,5.2c0,2.2-0.4,4.5-1,6.7
				s-1.5,4.4-2.6,6.3c-1.1,2-2.5,4-4.1,5.9s-3.2,3.6-5.2,5.4c-1.9,1.6-4,3.2-6.1,4.6s-4.5,2.7-6.7,3.9l-6.7-9.2
				c1.7-0.9,3.5-1.9,5.4-3c1.7-1.1,3.5-2.4,5.1-3.6s3.2-2.6,4.6-4s2.6-2.9,3.7-4.2c1.1-1.5,1.9-2.9,2.5-4.4s0.9-2.9,0.9-4.4
				c0-1-0.1-2.1-0.4-3.4c-0.2-1.2-0.6-2.5-1.1-3.9s-1-2.9-1.7-4.4c-0.6-1.5-1.4-3.2-2.1-5l10.6-4.9
				C409.4,55.9,409.9,57.5,410.5,59.3z"/>
			<path d="M437.8,81.2c-3.1,0-5.6-0.4-7.7-1.2c-2.1-0.9-3.9-2-5.2-3.4c-1.4-1.4-2.4-3.1-2.9-5.1c-0.6-2-0.9-4.1-0.9-6.3
				c0-1.1,0-2.6,0.1-4.4c0-1.7,0.1-3.7,0.1-6.1c0-2.2,0-4.9,0-7.6s-0.1-5.5-0.2-8.2s-0.2-5.4-0.5-8c-0.2-2.5-0.5-4.7-0.9-6.6l11-3.4
				c0.4,1.6,0.6,3.5,0.7,5.7c0.2,2.2,0.4,4.5,0.5,6.8c0.1,2.4,0.2,4.9,0.2,7.2s0.1,4.6,0.1,6.7c0,1.9,0,3.7-0.1,5.7s-0.1,4-0.2,5.9
				c0,1.9,0,3.5,0,5c0.1,1.5,0.4,2.6,0.6,3.4c0.2,0.6,0.5,1,0.9,1.2s0.7,0.5,1.1,0.6s0.9,0.2,1.5,0.2c0.5,0,1.1,0,1.7,0h1v11.6h-1
				L437.8,81.2L437.8,81.2z"/>
			<path d="M472,69.6v11.6h-34.7V69.6H472z"/>
			<path d="M470.5,69.6h2.6c0.1-1.6,0.4-3.4,0.7-5.2c0.4-1.9,1-3.9,1.7-5.7c0.7-1.9,1.6-3.7,2.6-5.6c1-1.7,2.1-3.4,3.4-4.9
				c1.2-1.4,2.5-2.6,4-3.5c1.4-0.9,2.9-1.4,4.5-1.5c1.6,0,3.1,0.5,4.5,1.4s2.6,2.1,3.6,3.5c1,1.5,1.7,3.1,2.4,4.9
				c0.6,1.9,0.9,3.7,0.9,5.6c0,2.2-0.5,4.4-1.4,6.5c-0.9,2.1-2.2,4.1-3.7,5.9c-1.5,1.9-3.2,3.5-5.2,4.9c-2,1.5-4,2.6-6,3.6
				c0.1,0.6,0.5,1.2,1.1,2.1c0.5,0.9,1.1,1.6,1.9,2.5c0.7,0.9,1.4,1.6,2.1,2.4c0.7,0.7,1.2,1.4,1.7,1.7c0-1.4,0.1-2.9,0.6-4.4
				s1-2.9,1.9-4.2c0.7-1.4,1.7-2.6,2.9-3.9c1.1-1.2,2.2-2.2,3.5-3.1c1.2-0.9,2.5-1.6,3.9-2.1s2.6-0.7,3.9-0.7h1.9v11.6h-2
				c-1.1,0-2.1,0.2-3.1,0.9c-1,0.6-1.9,1.2-2.6,2.2c-0.7,0.9-1.4,1.9-1.9,3s-0.7,2.2-0.7,3.4c0,0.5,0,1,0.1,1.4s0.2,0.9,0.4,1.2
				c0.2,0.5,0.5,0.9,0.7,1.4c0.4,0.5,0.7,1,1.2,1.6l-6.7,8.2c-3-1.7-5.5-3.6-7.7-5.5s-4.1-3.7-5.7-5.7s-3-3.9-4.1-6s-2-4-2.7-6.1h-5
				V69.6H470.5z M492.2,60.3c0-0.6,0-1.4,0-2.2c0-0.7-0.1-1.5-0.4-2.2c-0.1-0.7-0.4-1.4-0.7-2c-0.4-0.6-0.7-1-1.1-1.4
				c-0.5,0.2-1,0.7-1.5,1.4s-1.1,1.5-1.6,2.5c-0.6,1-1.1,2-1.6,3.2c-0.5,1.1-1,2.4-1.4,3.5c-0.4,1.2-0.7,2.4-1,3.5
				c-0.2,1.1-0.4,2.1-0.4,3.1c1-0.2,2.1-0.6,3.2-1.2s2.2-1.4,3.1-2.2c1-0.9,1.7-1.9,2.5-2.9C491.7,62.5,492.1,61.4,492.2,60.3z"/>
			<path d="M508.5,69.6h5c1,0,2.1-0.1,3.4-0.2s2.4-0.5,3.5-0.9s2-0.9,2.6-1.5c0.7-0.6,1.1-1.5,1.1-2.4c0-0.6-0.1-1.5-0.5-2.6
				s-0.7-2.5-1.4-3.9s-1.2-2.9-1.9-4.5s-1.4-3.1-2.1-4.5l10.5-5.2c0.6,1.5,1.4,3.2,2,4.9s1.2,3.5,1.9,5.2c0.5,1.7,1,3.6,1.2,5.4
				c0.4,1.7,0.5,3.5,0.5,5.1c0,3-0.5,5.5-1.5,7.6s-2.4,3.9-4.1,5.2c-1.7,1.4-3.9,2.4-6.3,3c-2.5,0.6-5.1,1-8.1,1h-5.9L508.5,69.6
				L508.5,69.6z M520.3,101.4l-8.1-8.1l8.1-8.1l8.1,8.1L520.3,101.4z"/>
			<path d="M596.3,81.2c-2.1,0-4.5-0.1-7.1-0.2c-2.5-0.1-5.1-0.5-7.6-1.1c-2.5-0.5-5-1.2-7.3-2.2c-2.4-0.9-4.5-2.1-6.2-3.6
				c-1.9-1.5-3.4-3.2-4.5-5.5c-1.1-2.1-1.9-4.6-2-7.6c0-1.5,0.1-2.9,0.5-4.2c0.4-1.4,0.7-2.7,1.2-4s1.1-2.6,1.7-3.9
				c0.6-1.2,1.4-2.5,2.1-3.7l8.6,7.2c-0.4,0.5-0.7,1.1-1.2,2s-1,1.6-1.4,2.6c-0.5,0.9-0.9,1.9-1.1,2.7c-0.2,0.9-0.5,1.7-0.5,2.4
				c0,0.9,0.4,1.7,1,2.5c0.6,0.8,1.5,1.4,2.7,1.9c1.1,0.5,2.5,1,4.1,1.4s3.2,0.7,5.1,1s3.7,0.4,5.9,0.5c2,0.1,4.1,0.1,6.2,0.1
				c1,0,2,0,3.1,0s2.1,0,3.1,0s1.9,0,2.6-0.1c0.7,0,1.2,0,1.5-0.1c-0.9-1-1.6-2.2-2.4-3.6c-0.7-1.5-1.1-3.1-1.2-4.9
				c0-1.5,0.1-2.9,0.5-4.4s0.9-2.9,1.6-4.4c0.6-1.4,1.5-2.7,2.5-3.9s2.1-2.2,3.2-3.1c1.2-0.9,2.5-1.6,3.9-2c1.4-0.5,2.9-0.7,4.4-0.6
				c2.1,0.1,4.1,0.6,6,1.6s3.4,2.2,4.7,3.9s2.4,3.4,3.1,5.4s1.1,4.1,1.1,6.2c0,1.7-0.2,3.4-0.9,5c-0.6,1.6-1.2,3.1-2.1,4.6
				c1.1,0.1,2.4,0.2,3.5,0.4c1.1,0.1,2.1,0.1,3.1,0.1h1.2v11.6h-1c-1.5,0-3.1,0-4.7-0.1c-1.6,0-3.2-0.1-4.7-0.4
				c-1.6-0.2-3.1-0.5-4.7-0.9c-1.6-0.4-3.1-0.9-4.6-1.6c-0.6,0.4-1.4,0.6-2.4,1c-1,0.2-2.2,0.5-3.5,0.7c-1.2,0.2-2.7,0.4-4.2,0.6
				c-1.5,0.1-3,0.2-4.5,0.4c-1.5,0.1-3,0.2-4.4,0.2C598.8,81.2,597.4,81.2,596.3,81.2z M620.5,36.6l-8.1-8.1l8.1-8.1l8.1,8.1
				L620.5,36.6z M624.3,60.4c0-0.7-0.2-1.5-0.6-2.2c-0.4-0.7-0.9-1.4-1.4-1.9c-0.5-0.6-1.1-1-1.7-1.4c-0.6-0.4-1.2-0.6-1.7-0.7
				c-0.6,0.1-1.2,0.4-1.9,0.6c-0.7,0.4-1.4,0.7-2,1.4s-1.2,1.2-1.6,2.1c-0.5,0.9-0.6,1.7-0.6,2.9c0,0.4,0.2,0.9,0.6,1.5
				c0.4,0.6,0.9,1.2,1.5,2c0.6,0.6,1.2,1.2,2,1.9c0.7,0.6,1.6,1,2.4,1.2c0.6-0.4,1.2-0.9,1.9-1.4c0.6-0.6,1.2-1.2,1.7-1.9
				c0.5-0.6,0.9-1.4,1.2-2C624.2,61.7,624.3,61,624.3,60.4z"/>
			<path d="M672.1,69.6v11.6h-34.7V69.6H672.1z"/>
			<path d="M703.3,69.6v11.6h-0.9c-1.1,0-2.4-0.1-3.5-0.2c-1.1-0.2-2.2-0.5-3.2-0.9s-1.9-0.7-2.7-1.2c-0.9-0.5-1.6-1-2.2-1.6
				c-1.1,0.9-2.5,1.6-4,2.1s-3,0.9-4.7,1.2c-1.6,0.2-3.4,0.5-5.1,0.5c-1.7,0.1-3.5,0.1-5.1,0.1h-1.4V69.6h1.4c1.7,0,3.4,0,4.7-0.1
				s2.6-0.2,3.6-0.5c1-0.2,1.9-0.6,2.6-1c0.7-0.4,1.2-0.9,1.7-1.5c0.6-0.7,0.9-1.6,1-2.6s0.1-2,0-3s-0.2-2-0.6-3
				c-0.2-1-0.5-2-0.7-2.9l10.7-3c0.2,1.1,0.5,2.1,0.7,3s0.4,1.7,0.5,2.6s0.2,1.7,0.4,2.6s0.2,1.9,0.4,2.9c0.1,0.6,0.2,1.4,0.4,2.1
				c0.1,0.7,0.4,1.5,0.7,2.1c0.4,0.6,0.9,1.2,1.5,1.6c0.6,0.5,1.5,0.6,2.5,0.6C702,69.6,703.3,69.6,703.3,69.6z M684.9,92l-6.8,6.8
				l-7.1-7.1l7.1-7.1l7,7l6.8-6.8l7.1,7.1l-7.1,7.1L684.9,92z"/>
			<path d="M701.8,69.6h2.6c0.6,0,1.1,0,1.7,0s1.1-0.1,1.6-0.1s0.9-0.1,1.1-0.2c-0.5-0.5-0.9-1-1.2-1.6c-0.4-0.6-0.7-1.2-1.1-1.9
				c-0.4-0.6-0.6-1.4-0.9-2.2c-0.2-0.9-0.4-1.6-0.4-2.6c0-1.5,0.1-2.9,0.5-4.4s0.9-2.9,1.6-4.4c0.6-1.4,1.5-2.7,2.5-3.9
				s2.1-2.2,3.2-3.1c1.2-0.9,2.5-1.6,3.9-2c1.4-0.5,2.9-0.7,4.4-0.6c2.1,0.1,4.1,0.6,6,1.6s3.4,2.2,4.7,3.9s2.4,3.4,3.1,5.4
				s1.1,4.1,1.1,6.2c0,1.7-0.2,3.4-0.9,5c-0.6,1.6-1.2,3.1-2.1,4.6c0.6,0.1,1.4,0.2,2.4,0.4c0.9,0.1,2.1,0.1,3.6,0.1h0.7v11.6h-1.4
				c-1.6,0-3.1,0-4.5-0.1s-2.9-0.2-4.2-0.5c-1.4-0.2-2.7-0.5-4.1-0.9c-1.4-0.4-2.9-0.9-4.4-1.5c-0.9,0.5-2,1-3.4,1.4
				s-2.9,0.6-4.5,0.9s-3.2,0.4-5.1,0.5c-1.7,0.1-3.5,0.1-5.2,0.1H702V69.6H701.8z M720.6,37.4l-8.1-8.1l8.1-8.1l8.1,8.1L720.6,37.4z
				 M726.6,60.4c0-0.7-0.2-1.5-0.6-2.2s-0.9-1.4-1.4-1.9c-0.5-0.6-1.1-1-1.7-1.4c-0.6-0.4-1.2-0.6-1.7-0.7c-0.6,0.1-1.2,0.4-1.9,0.6
				c-0.7,0.4-1.4,0.7-2,1.4s-1.2,1.2-1.6,2.1c-0.5,0.9-0.6,1.7-0.6,2.9c0,0.4,0.2,0.9,0.6,1.5c0.4,0.6,0.9,1.2,1.5,2
				c0.6,0.6,1.2,1.2,2,1.9c0.7,0.6,1.6,1,2.4,1.2c0.6-0.4,1.2-0.9,1.9-1.4c0.6-0.6,1.2-1.2,1.7-1.9c0.5-0.6,0.9-1.4,1.2-2
				C726.5,61.7,726.6,61,726.6,60.4z"/>
			<path d="M738.6,69.6h7.5c1.7,0,3.6-0.1,5.6-0.4c2-0.2,4-0.6,6.1-1s4.1-0.9,6.2-1.5c2.1-0.6,4.1-1.2,6.1-1.9
				c2-0.6,3.9-1.4,5.7-2.1c1.9-0.7,3.5-1.5,5-2.2c-1.5-0.4-3.2-0.9-5.1-1.5c-1.9-0.6-3.7-1.2-5.6-2s-3.7-1.1-5.6-1.6
				c-1.7-0.5-3.4-0.6-4.9-0.6c-0.9,0-1.7,0.2-2.6,0.6c-0.9,0.4-1.6,0.7-2.4,1.4c-0.7,0.6-1.4,1.1-2,1.7s-1.1,1.1-1.5,1.7
				c-0.4,0.5-0.7,1-1,1.4l-0.4,0.5l-8.7-5c1-1.9,2.1-3.6,3.5-5.2c1.4-1.6,2.9-3.1,4.5-4.5s3.4-2.2,5.1-3.1c1.7-0.7,3.5-1.1,5.4-1.1
				c1.4,0,2.6,0.1,4,0.5s2.6,0.6,4,1.1s2.6,1,4,1.6s2.7,1.2,4.1,1.9c1.4,0.6,3,1.4,4.6,2c1.7,0.6,3.5,1.2,5.4,1.7s3.7,0.9,5.6,1.2
				c1.9,0.4,3.7,0.5,5.6,0.5l-1.9,10.8c-0.6,0.2-1.2,0.5-1.9,0.9s-1.4,0.6-1.9,0.9l-1,0.5c0.6,0.6,1.2,1.2,2.1,1.6
				c0.9,0.4,1.7,0.6,2.6,0.9c0.9,0.1,1.7,0.2,2.6,0.4c0.9,0,1.5,0.1,2,0.1h1.2v11.6h-1.2c-2.4,0-4.6-0.2-6.6-0.6
				c-2.1-0.4-4-1-5.6-1.9c-1.7-0.7-3.2-1.7-4.5-2.9c-1.2-1.1-2.4-2.4-3.2-3.9c-2.4,1.1-5,2.4-7.6,3.4c-2.6,1.1-5.4,2.1-8.1,3
				c-2.9,0.9-5.7,1.6-8.7,2.1s-6.1,0.7-9.3,0.7h-7.5V69.6H738.6z M759.2,39.6l-8.1-8.1l8.1-8.1l8.1,8.1L759.2,39.6z"/>
			<path d="M799.6,69.6h8.8c1,0,2.2,0,3.5-0.1c1.2-0.1,2.5-0.4,3.6-0.6c1.1-0.4,2-0.9,2.7-1.5s1.1-1.6,1.1-2.6
				c0-0.6-0.1-1.5-0.5-2.6s-0.9-2.5-1.4-3.9s-1.2-2.9-2-4.5c-0.7-1.6-1.5-3.1-2.1-4.5l10.5-5.2c0.6,1.5,1.4,3.2,2,4.9
				s1.2,3.5,1.9,5.2c0.6,1.7,1,3.6,1.2,5.4c0.4,1.7,0.5,3.5,0.5,5.1c0,3-0.5,5.6-1.6,7.7s-2.6,3.9-4.5,5.1c-1.9,1.4-4.1,2.2-6.7,2.9
				c-2.6,0.6-5.4,0.9-8.2,0.9h-8.7L799.6,69.6L799.6,69.6z M816.6,31.9l-6.8,6.8l-7.1-7.1l7.1-7.1l7,7l6.8-6.8l7.1,7.1l-7.1,7.1
				L816.6,31.9z"/>
			<path d="M874.5,81.2c-2,0-4-0.4-6-1s-3.9-1.6-5.5-3c-1.6-1.2-3-2.9-4-4.7c-1-1.9-1.6-4-1.6-6.2c0-4.9,2.1-10,6.5-15.2
				c0.4-0.4,0.6-0.7,0.9-1c0.2-0.2,0.5-0.5,0.6-0.7s0.4-0.4,0.5-0.6l0.6-0.6l-2.2-1.9l7.3-9c1.2,0.9,2.7,2.2,4.5,3.7
				c1.7,1.6,3.7,3.6,6,6c6.3,7.2,9.5,13.6,9.5,19.3c0,2.5-0.5,4.6-1.5,6.5s-2.4,3.4-3.9,4.7c-1.6,1.2-3.5,2.2-5.5,2.9
				C878.6,80.9,876.6,81.2,874.5,81.2z M881.6,66.4c0-0.7-0.2-1.6-0.7-2.6s-1.1-2-1.9-3c-0.7-1-1.6-2.1-2.6-3.1c-1-1.1-2-2.1-3-3.1
				c-0.6,0.7-1.4,1.6-2.1,2.5s-1.4,1.9-2,2.9s-1.1,2.1-1.5,3.1c-0.4,1.1-0.6,2.1-0.5,3.2c0,0.6,0.2,1.1,0.9,1.5
				c0.6,0.4,1.1,0.7,1.9,1.1c0.7,0.2,1.5,0.5,2.4,0.6s1.5,0.2,2.1,0.2c0.7,0,1.5,0,2.4-0.1s1.6-0.2,2.4-0.6c0.7-0.2,1.2-0.6,1.7-1.1
				C881.3,67.5,881.6,67,881.6,66.4z"/>
			<path d="M915.3,59.3c0.6,1.7,1.1,3.6,1.6,5.5c0.5,1.9,0.9,3.7,1.2,5.6c0.4,1.9,0.5,3.6,0.5,5.2c0,2.2-0.4,4.5-1,6.7
				s-1.5,4.4-2.6,6.3c-1.1,2-2.5,4-4.1,5.9s-3.2,3.6-5.2,5.4c-1.9,1.6-4,3.2-6.1,4.6s-4.5,2.7-6.7,3.9l-6.7-9.2
				c1.7-0.9,3.5-1.9,5.4-3c1.7-1.1,3.5-2.4,5.2-3.6c1.6-1.2,3.2-2.6,4.6-4c1.4-1.4,2.6-2.9,3.7-4.2c1.1-1.5,1.9-2.9,2.5-4.4
				s0.9-2.9,0.9-4.4c0-1-0.1-2.1-0.4-3.4c-0.2-1.2-0.6-2.5-1.1-3.9s-1-2.9-1.7-4.4c-0.6-1.5-1.4-3.2-2.1-5l10.6-4.9
				C914.2,55.9,914.7,57.5,915.3,59.3z"/>
			<path d="M925.7,75.1c0.1-2.1,0.2-4.2,0.4-6.3s0.1-4.1,0.1-6.1s0-3.9-0.1-5.5c-0.1-3.5-0.2-6.5-0.4-9.1c-0.1-2.6-0.2-5-0.4-7
				c-0.1-2-0.2-3.9-0.4-5.4c-0.1-1.5-0.2-2.9-0.4-4.2c-0.1-1.2-0.2-2.5-0.5-3.6c-0.1-1.1-0.4-2.2-0.5-3.5l11.3-3.7
				c0.5,3.2,1,6.6,1.2,9.8c0.4,3.4,0.6,6.5,0.7,9.6c0.1,3,0.2,5.9,0.4,8.5s0.1,4.9,0.1,6.7c0,1.7,0,3.5,0,5.5s0,4-0.1,6.1
				s-0.1,4.2-0.1,6.3c-0.1,2.1-0.1,4.2-0.4,6.3l-11.3,1.7C925.4,79.3,925.5,77.2,925.7,75.1z"/>
			<path d="M940.7,95.8c3.5-0.6,6.6-1.5,9.5-2.6c2.9-1,5.4-2.2,7.5-3.5s3.9-2.6,5.4-4.1c1.4-1.5,2.4-2.9,3-4.4c-1,0-2.1,0-3.4,0
				c-1.1,0-2.1-0.1-2.9-0.1c-2.4-0.2-4.6-0.6-6.6-1.4c-2-0.7-3.7-1.7-5.1-3s-2.5-2.7-3.4-4.6c-0.7-1.9-1.1-3.9-1.1-6.2
				c0-1.5,0.1-3,0.5-4.6s0.7-3.1,1.4-4.6c0.6-1.5,1.4-2.9,2.2-4.2c0.9-1.4,1.9-2.5,3-3.5s2.4-1.7,3.7-2.4s2.9-0.9,4.4-0.9
				c1.9,0,3.6,0.4,5.1,1c1.6,0.6,3,1.6,4.4,2.7c1.2,1.1,2.5,2.5,3.5,4.1c1,1.5,1.9,3.2,2.6,5c0.7,1.7,1.4,3.6,1.9,5.5s0.9,3.7,1,5.6
				h1.6v11.6h-2.4c-1,3.6-2.5,6.8-4.6,9.7c-2.1,2.9-4.6,5.5-7.5,7.6s-6.1,4-9.7,5.4c-3.6,1.4-7.2,2.4-11.1,3L940.7,95.8z
				 M958.6,57.4c-0.5-0.1-1.1,0.1-1.7,0.5c-0.6,0.5-1.2,1.1-1.9,1.9c-0.6,0.7-1,1.6-1.4,2.5s-0.6,1.9-0.5,2.6c0,0.9,0.2,1.5,0.7,2
				s1.1,1,2,1.4c0.7,0.4,1.7,0.6,2.7,0.7s2,0.2,3,0.4c1,0.1,2,0.1,2.9,0.1h2.2c-0.4-1.5-0.7-3-1.2-4.4s-1.1-2.6-1.7-3.7
				c-0.6-1.1-1.4-2-2.2-2.7C960.6,57.9,959.6,57.7,958.6,57.4z"/>
			<path d="M1011.9,69.6v11.6h-34.7V69.6H1011.9z"/>
			<path d="M1037.7,69.6v11.6h-0.7c-2.4,0-4.4-0.4-6-1s-3.1-1.6-4.2-2.7c-1.7,1.2-3.9,2.2-6.2,2.9c-2.4,0.6-5.2,0.9-8.6,0.9h-1.4
				V69.6h1.4c3.4,0,5.9-0.5,7.6-1.6c1.7-1.1,2.6-2.7,2.6-5c0-0.7-0.1-1.7-0.2-3.1c-0.2-1.4-0.6-3.1-1.2-5.2l10.3-2.5
				c0.4,1.4,0.7,2.5,1,3.6c0.2,1.1,0.5,2,0.6,2.9s0.2,1.6,0.4,2.4c0.1,0.7,0.1,1.4,0.1,2.1c0,0.6,0.1,1.4,0.2,2.2
				c0.1,0.7,0.2,1.5,0.6,2.1s0.6,1.2,1.1,1.6s1.1,0.6,2,0.6L1037.7,69.6L1037.7,69.6L1037.7,69.6z M1022,46.3l-8.1-8.1l8.1-8.1
				l8.1,8.1L1022,46.3z"/>
			<path d="M1037,69.6c1.2,0,2.5-0.2,3.6-0.6s2.2-1.2,3.2-2.5c1-1.2,2-3,2.9-5.2s1.7-5.1,2.5-8.7l9.7,1.4c0,0.1,0,0.2-0.1,0.5
				c-0.1,0.6-0.4,1.5-0.5,2.6c-0.2,1.1-0.4,2.4-0.6,3.7c-0.1,1.4-0.2,2.7-0.2,4s0.1,2.4,0.5,3.2c0.4,0.9,0.7,1.5,1.5,1.6
				c0.7,0.2,1.5,0,2.2-0.5s1.4-1.2,2-2.1c0.6-1,1.2-2,1.7-3.2s1-2.5,1.5-3.9s0.9-2.6,1.1-3.9c0.4-1.2,0.6-2.4,0.7-3.4l9.7,1.4
				c0,0.6-0.1,1.4-0.2,2.5c-0.1,1-0.2,2.1-0.2,3.2s-0.1,2.2-0.1,3.5c0,1.1,0.1,2.2,0.4,3.1c0.2,1,0.6,1.7,1.1,2.4
				c0.5,0.6,1.2,0.9,2.1,0.9c0.7,0,1.5-0.2,2.1-0.7s1.1-1.2,1.5-2.1s0.7-1.9,1-3c0.2-1.1,0.4-2.2,0.5-3.4c0.1-1.1,0.1-2.2,0.1-3.4
				c0-1.1,0-2-0.1-2.9l9.8-1.4l1.2,10.3c0.1,1.1,0.5,2.1,1,3s1.1,1.5,1.7,2.1c0.6,0.5,1.4,1,2.1,1.2s1.4,0.4,2.1,0.4h1.1v11.6h-1.1
				c-2.4,0-4.6-0.4-6.7-1.2c-2.1-0.9-3.9-2.2-5.5-4.2c-0.1,0.2-0.2,0.4-0.5,0.5c-0.1,0.1-0.2,0.2-0.4,0.5l0,0
				c-1.4,1.4-2.9,2.5-4.6,3.4s-3.6,1.2-5.6,1.2c-2.2,0-4.2-0.5-6.1-1.4s-3.5-2.2-4.7-3.9c-1.5,1.6-3.1,2.9-5,3.9s-3.9,1.5-6.1,1.5
				c-2.1,0-4-0.5-5.9-1.4s-3.2-2.2-4.5-3.9c-1.4,1.9-3,3.1-4.9,3.9c-2,0.7-4.4,1.1-7.2,1.1h-0.7V69.6H1037z M1058.9,54.1
				L1058.9,54.1C1058.9,53.8,1058.9,53.8,1058.9,54.1z M1073.6,38.5l-6.8,6.8l-7.1-7.1l7.1-7.1l7,7l6.8-6.8l7.1,7.1l-7.1,7.1
				L1073.6,38.5z M1080.2,27.8l-6.5,6.5l-6.6-6.6l6.5-6.5L1080.2,27.8z"/>
			<path d="M1104.1,69.6h7.7c4,0,7.6-0.2,11-0.7s6.3-1.1,9.3-1.9c2.9-0.7,5.6-1.7,8.2-2.9c2.6-1.1,5.1-2.1,7.6-3.4
				c-1.6-0.5-3.4-1-5-1.7c-1.6-0.6-3.4-1.4-5-2s-3.4-1.1-5-1.6s-3.4-0.6-5-0.6c-1.1,0-2.2,0.2-3.4,0.9c-1.1,0.6-2.1,1.2-3,2.1
				c-0.9,0.7-1.6,1.5-2.2,2.2s-1,1.2-1.1,1.5l-8.5-5.5c0.9-1.6,2-3.2,3.2-4.9c1.2-1.6,2.6-3,4.2-4.1c1.5-1.2,3.1-2.2,5-2.9
				s3.6-1.1,5.6-1.1c1.5,0,2.9,0.1,4.4,0.5c1.5,0.2,2.9,0.7,4.4,1.2c1.4,0.5,2.9,1,4.2,1.6c1.4,0.6,2.7,1.2,4.1,1.9
				c1.2,0.6,2.6,1.2,3.9,1.9c1.4,0.6,2.6,1.1,4.1,1.6c1.4,0.5,2.9,0.9,4.4,1.2c1.5,0.4,3.1,0.5,4.7,0.5l-0.9,11.2l-5.2,2.5
				c-2.1,1-4.2,2.1-6.3,3.1s-4.2,2.1-6.5,3.1c-2.1,1-4.5,2-6.7,2.9c-2.4,0.9-4.7,1.7-7.3,2.4c-2.5,0.6-5.2,1.2-8.1,1.6
				s-5.9,0.6-9.1,0.6h-7.7L1104.1,69.6L1104.1,69.6z M1134.3,101.2l-8.1-8.1l8.1-8.1l8.1,8.1L1134.3,101.2z"/>
		</g>
	</g>
	<g>
		<g>
			<path class="st2" d="M131.6,40.5c0.4,0.7,0.9,1.7,1.2,2.7c0.4,1,1,2.2,1.5,3.6c0.5,1.4,1,2.7,1.5,4.2s0.7,3,1.1,4.5
				c0.4,1.5,0.4,3,0.4,4.5c0,2.4-0.4,4.7-1.1,6.7c-0.7,2.1-1.7,4-3.1,5.5s-3,2.7-5,3.7c-2,0.9-4.2,1.4-6.8,1.4
				c-2.2,0-4.1-0.4-5.5-1.1s-2.6-1.7-3.5-3.1c-0.5,0.6-1.1,1.2-1.6,1.7c-0.6,0.5-1.2,1-2.1,1.4c-0.7,0.4-1.7,0.6-2.7,0.9
				c-1.1,0.2-2.4,0.2-3.7,0.2c-1,0-2-0.1-2.9-0.2s-1.6-0.4-2.4-0.5c0,2.9-0.5,5.5-1.2,7.8c-0.9,2.4-2,4.5-3.5,6.3
				c-1.5,1.9-3.1,3.5-5.1,4.9S83,98.1,80.8,99s-4.6,1.6-7.1,2c-2.5,0.5-4.9,0.6-7.3,0.6c-3.7,0-7.2-0.6-10.3-1.9
				c-3.2-1.2-6-3-8.2-5.2c-2.4-2.2-4.1-5-5.4-8.1c-1.2-3.1-2-6.6-2-10.3c0.1-2.2,0.4-4.5,0.9-6.7s1.2-4.5,2-6.7
				c0.9-2.2,1.7-4.2,2.7-6.2s2-3.7,3.1-5.4l8,6.1c-0.9,1.5-1.7,3-2.6,4.6c-0.9,1.6-1.6,3.2-2.2,4.9c-0.6,1.6-1.1,3.4-1.5,5
				s-0.6,3.2-0.6,4.9c-0.1,1.9,0.2,3.6,1.1,5.2s2,3.1,3.4,4.4c1.5,1.2,3.1,2.2,5.1,2.9c2,0.7,4.1,1.1,6.2,1.1c2.5,0,4.9-0.2,7-0.7
				s4-1.1,5.7-1.9c1.6-0.9,3-1.9,4.1-3s1.9-2.5,2.4-3.9l0,0c0.6-2,0.9-4,0.9-6.2c0-1.6-0.2-3.2-0.7-5c-0.5-1.7-1.1-3.4-1.7-5.1
				c-0.7-1.7-1.5-3.5-2.5-5.2s-1.7-3.5-2.6-5.2l10.1-5.6c0.6,1.5,1.2,2.9,1.9,4.4c0.6,1.5,1.2,2.9,1.9,4.2c0.6,1.4,1.4,2.6,2,3.7
				c0.6,1.1,1.4,2.1,2.1,3s1.5,1.5,2.2,1.9s1.6,0.6,2.5,0.5c1-0.1,1.9-0.5,2.5-1.1s1.1-1.2,1.5-2.1c0.4-0.9,0.5-1.9,0.6-2.9
				c0.1-1.1,0.1-2.1,0-3.2c0-1.1-0.1-2.2-0.2-3.2c-0.1-1.1-0.2-2.1-0.2-3l10.1-1.4c0.1,0.7,0.4,1.6,0.5,2.7c0.1,1.1,0.2,2.2,0.4,3.4
				c0.1,1.1,0.4,2.4,0.6,3.6s0.6,2.4,1,3.4s0.9,1.9,1.5,2.6c0.6,0.7,1.4,1.2,2.4,1.6c0.7,0,1.5-0.1,2.1-0.4c0.6-0.2,1.2-0.7,1.7-1.2
				s0.9-1.2,1.1-2c0.2-0.7,0.4-1.7,0.4-2.7c0-0.9-0.1-1.9-0.5-3.1c-0.4-1.1-0.7-2.4-1.4-3.7c-0.6-1.4-1.2-2.7-2-4.2s-1.5-3-2.4-4.5
				l9.3-5.2C130.8,39.1,131.2,39.6,131.6,40.5z"/>
			<path class="st2" d="M160.6,55.6c0.6,1.7,1.1,3.6,1.6,5.5s0.9,3.7,1.2,5.6c0.4,1.9,0.5,3.6,0.5,5.2c0,2.2-0.4,4.5-1,6.7
				s-1.5,4.4-2.6,6.3c-1.1,2-2.5,4-4.1,5.9s-3.2,3.6-5.2,5.4c-1.9,1.6-4,3.2-6.1,4.6s-4.5,2.7-6.7,3.9l-6.7-9.2
				c1.7-0.9,3.5-1.9,5.4-3c1.7-1.1,3.5-2.4,5.1-3.6s3.2-2.6,4.6-4c1.4-1.4,2.6-2.9,3.7-4.2c1.1-1.5,1.9-2.9,2.5-4.4s0.9-2.9,0.9-4.4
				c0-1-0.1-2.1-0.4-3.4c-0.2-1.2-0.6-2.5-1.1-3.9s-1-2.9-1.7-4.4c-0.6-1.5-1.4-3.2-2.1-5l10.6-4.9
				C159.4,52.2,159.9,53.8,160.6,55.6z"/>
			<path class="st2" d="M174.6,62.4c1.4,0.6,2.7,1.2,4.2,1.9c1.5,0.5,2.9,1,4.2,1.4c1.4,0.4,2.6,0.5,3.6,0.5c0.6,0,1.4,0,2.4-0.1
				s2-0.2,3-0.6c1-0.2,1.9-0.6,2.5-1.2c0.7-0.5,1.1-1.2,1.1-2c0-1-0.2-2-0.9-3.2s-1.4-2.5-2.4-3.7s-2.2-2.6-3.5-4
				c-1.4-1.4-2.7-2.6-4.1-3.9c-1.4-1.2-2.9-2.4-4.2-3.5c-1.4-1.1-2.7-2-3.9-2.7l6.5-9.6c2.4,1.6,4.7,3.5,7.1,5.6
				c2.4,2.1,4.5,4.2,6.5,6.6c2,2.2,3.7,4.7,5.1,7.1c1.5,2.5,2.5,5,3.1,7.5c0.2,0.7,0.4,1.4,0.4,2.1c0.1,0.7,0.1,1.4,0.1,2.1
				c0,2.2-0.5,4.4-1.4,6.2c-0.9,1.9-2.1,3.5-3.7,4.9c-1.6,1.4-3.5,2.5-5.6,3.2c-2.2,0.7-4.6,1.1-7.2,1.1c-0.2,0-0.4,0-0.6,0
				c-0.2,0-0.4,0-0.6,0c-1.7,0-3.4-0.1-5.2-0.5c-1.7-0.4-3.5-0.9-5.2-1.4c-1.7-0.6-3.4-1.2-5-2s-3.1-1.6-4.5-2.5l4.9-11.1
				C172,61,173.3,61.8,174.6,62.4z"/>
			<path class="st2" d="M212.2,71.4c0.1-2.1,0.2-4.2,0.4-6.3s0.1-4.1,0.1-6.1s0-3.9-0.1-5.5c-0.1-3.5-0.2-6.5-0.4-9.1s-0.2-5-0.4-7
				c-0.1-2-0.2-3.9-0.4-5.4c-0.1-1.5-0.2-2.9-0.4-4.2c-0.1-1.2-0.2-2.5-0.5-3.6c-0.1-1.1-0.4-2.2-0.5-3.5l11.3-3.7
				c0.5,3.2,1,6.6,1.2,9.8c0.4,3.4,0.6,6.5,0.7,9.6c0.1,3.1,0.2,5.9,0.4,8.5c0,2.6,0.1,4.9,0.1,6.7c0,1.7,0,3.5,0,5.5s0,4-0.1,6.1
				c-0.1,2.1-0.1,4.2-0.1,6.3c-0.1,2.1-0.1,4.2-0.4,6.3L212,77.6C212,75.6,212.1,73.5,212.2,71.4z"/>
			<path class="st2" d="M256,77.5c-0.5,0-1.2,0-2.1-0.1s-1.9-0.4-3-0.7c-0.5,3-1.5,5.9-3,8.6s-3.4,5.2-5.5,7.7
				c-2.1,2.4-4.6,4.6-7.5,6.6c-2.7,2-5.7,3.9-9,5.4l-6.7-9.2c1.7-0.9,3.5-1.9,5.2-2.9s3.5-2.1,5-3.2c1.6-1.1,3.1-2.4,4.5-3.6
				s2.6-2.6,3.6-3.9c1-1.4,1.9-2.7,2.4-4.1c0.6-1.4,0.9-2.9,0.9-4.2c0-1-0.1-2.1-0.5-3.6s-0.9-3-1.4-4.7c-0.6-1.7-1.2-3.4-1.9-5.1
				s-1.4-3.2-2-4.7l10.6-4.6c1,3,1.9,5.4,2.9,7.3s1.7,3.5,2.6,4.7c0.9,1.1,1.6,2,2.4,2.5c0.7,0.5,1.5,0.7,2.2,0.7h0.9V78H256V77.5z"
				/>
			<path class="st2" d="M290,65.9v11.6h-34.7V65.9H290z"/>
			<path class="st2" d="M289.9,65.9c0.9,0,2,0,3.2,0s2.6,0,4.1-0.1s3-0.1,4.5-0.2s3-0.2,4.4-0.5s2.6-0.5,3.7-0.9s2.1-0.9,2.9-1.4
				c-3.2,0.4-6.1,0.4-8.8,0.2c-2.6-0.1-5-0.6-7-1.5s-3.5-2.2-4.5-4c-1.1-1.7-1.6-4.1-1.6-7c0-1.4,0.1-2.7,0.4-4.1
				c0.2-1.4,0.6-2.9,1.2-4.2c0.5-1.4,1.2-2.7,2-3.9c0.7-1.2,1.7-2.4,2.9-3.2c1.1-0.9,2.2-1.6,3.6-2.2c1.2-0.5,2.7-0.9,4.2-0.9
				c2,0,3.7,0.4,5.4,1.1c1.6,0.7,3,1.7,4.4,3c1.2,1.2,2.4,2.7,3.4,4.4c1,1.6,1.7,3.4,2.4,5.2s1.1,3.7,1.4,5.6
				c0.4,1.9,0.5,3.7,0.5,5.5c0,3-0.4,5.5-1.2,7.7c-0.9,2.1-2,4-3.5,5.6s-3.2,2.9-5.2,3.7c-2,1-4.2,1.7-6.6,2.4c-2.4,0.6-5,1-7.6,1.1
				c-2.7,0.2-5.5,0.4-8.2,0.4h-1.4V65.9H289.9z M304.7,28.2l-8.1-8.1l8.1-8.1l8.1,8.1L304.7,28.2z M305,43.6c-0.6,0-1.1,0.1-1.7,0.5
				s-1.1,0.9-1.6,1.4c-0.5,0.6-0.9,1.2-1.2,2c-0.4,0.7-0.5,1.5-0.5,2.4c0,0.7,0.2,1.4,0.6,1.7c0.5,0.5,1,0.9,1.7,1.1
				c0.7,0.2,1.5,0.5,2.4,0.6s1.7,0.1,2.6,0.1s1.6,0,2.5,0s1.4-0.1,1.9-0.1c-0.2-1.1-0.5-2.2-0.9-3.4c-0.4-1.1-0.7-2.1-1.4-3.1
				c-0.5-0.9-1.1-1.7-1.9-2.4C306.7,44,305.8,43.6,305,43.6z"/>
			<path class="st2" d="M367.2,77.5c-2,0-4-0.4-6-1s-3.9-1.6-5.5-3c-1.6-1.2-3-2.9-4-4.7c-1-1.9-1.6-4-1.6-6.2
				c0-4.9,2.1-10,6.5-15.2c0.4-0.4,0.6-0.7,0.9-1s0.5-0.5,0.6-0.7c0.2-0.2,0.4-0.4,0.5-0.6l0.6-0.6l-2.2-1.9l7.3-9
				c1.2,0.9,2.7,2.2,4.5,3.7c1.7,1.5,3.7,3.6,6,6c6.3,7.2,9.5,13.6,9.5,19.3c0,2.5-0.5,4.6-1.5,6.5s-2.4,3.4-3.9,4.7
				c-1.6,1.2-3.5,2.2-5.5,2.9C371.3,77.2,369.2,77.5,367.2,77.5z M374.3,62.6c0-0.7-0.2-1.6-0.7-2.6s-1.1-2-1.9-3
				c-0.7-1-1.6-2.1-2.6-3.1c-1-1.1-2-2.1-3-3.1c-0.6,0.7-1.4,1.6-2.1,2.5s-1.4,1.9-2,2.9s-1.1,2.1-1.5,3.1c-0.4,1.1-0.6,2.1-0.5,3.2
				c0,0.6,0.2,1.1,0.9,1.5c0.5,0.5,1.1,0.7,1.9,1.1c0.7,0.2,1.5,0.5,2.4,0.6s1.5,0.2,2.1,0.2c0.7,0,1.5,0,2.4-0.1s1.6-0.2,2.4-0.6
				c0.7-0.4,1.2-0.6,1.7-1.1C374.1,63.8,374.3,63.3,374.3,62.6z"/>
			<path class="st2" d="M408,55.6c0.6,1.7,1.1,3.6,1.6,5.5s0.9,3.7,1.2,5.6c0.4,1.9,0.5,3.6,0.5,5.2c0,2.2-0.4,4.5-1,6.7
				s-1.5,4.4-2.6,6.3s-2.5,4-4.1,5.9s-3.2,3.6-5.2,5.4c-1.9,1.6-4,3.2-6.1,4.6s-4.5,2.7-6.7,3.9l-6.7-9.2c1.7-0.9,3.5-1.9,5.4-3
				c1.7-1.1,3.5-2.4,5.1-3.6s3.2-2.6,4.6-4s2.6-2.9,3.7-4.2c1.1-1.5,1.9-2.9,2.5-4.4s0.9-2.9,0.9-4.4c0-1-0.1-2.1-0.4-3.4
				s-0.6-2.5-1.1-3.9s-1-2.9-1.7-4.4c-0.6-1.5-1.4-3.2-2.1-5l10.6-4.9C406.9,52.2,407.4,53.8,408,55.6z"/>
			<path class="st2" d="M435.3,77.5c-3.1,0-5.6-0.4-7.7-1.2c-2.1-0.9-3.9-2-5.2-3.4c-1.4-1.4-2.4-3.1-2.9-5.1
				c-0.6-2-0.9-4.1-0.9-6.3c0-1.1,0-2.6,0.1-4.4c0-1.7,0.1-3.7,0.1-6.1c0-2.2,0-4.9,0-7.6c0-2.7-0.1-5.5-0.2-8.2s-0.2-5.4-0.5-8
				c-0.2-2.5-0.5-4.7-0.9-6.6l11-3.4c0.4,1.6,0.6,3.5,0.7,5.7c0.2,2.2,0.4,4.5,0.5,6.8c0.1,2.4,0.2,4.9,0.2,7.2
				c0,2.4,0.1,4.6,0.1,6.7c0,1.9,0,3.7-0.1,5.7s-0.1,4-0.2,5.9c0,1.9,0,3.5,0,5c0.1,1.5,0.4,2.6,0.6,3.4c0.2,0.6,0.5,1,0.9,1.2
				c0.4,0.2,0.7,0.5,1.1,0.6s0.9,0.2,1.5,0.2c0.5,0,1.1,0,1.7,0h1v11.6h-1L435.3,77.5L435.3,77.5z"/>
			<path class="st2" d="M469.5,65.9v11.6h-34.7V65.9H469.5z"/>
			<path class="st2" d="M468,65.9h2.6c0.1-1.6,0.4-3.4,0.7-5.2s1-3.9,1.7-5.7c0.7-1.9,1.6-3.7,2.6-5.6c1-1.7,2.1-3.4,3.4-4.9
				c1.2-1.4,2.5-2.6,4-3.5c1.4-0.9,2.9-1.4,4.5-1.5c1.6,0,3.1,0.5,4.5,1.4s2.6,2.1,3.6,3.5c1,1.5,1.7,3.1,2.4,4.9
				c0.6,1.9,0.9,3.7,0.9,5.6c0,2.2-0.5,4.4-1.4,6.5s-2.2,4.1-3.7,5.9c-1.5,1.9-3.2,3.5-5.2,4.9c-2,1.5-4,2.6-6,3.6
				c0.1,0.6,0.5,1.2,1.1,2.1c0.5,0.9,1.1,1.6,1.9,2.5c0.7,0.9,1.4,1.6,2.1,2.4c0.7,0.7,1.2,1.4,1.7,1.7c0-1.4,0.1-2.9,0.6-4.4
				s1-2.9,1.9-4.2c0.7-1.4,1.7-2.6,2.9-3.9c1.1-1.2,2.2-2.2,3.5-3.1c1.2-0.9,2.5-1.6,3.9-2.1s2.6-0.7,3.9-0.7h1.9v11.6h-2
				c-1.1,0-2.1,0.2-3.1,0.9c-1,0.6-1.9,1.2-2.6,2.2c-0.7,0.9-1.4,1.9-1.9,3s-0.7,2.2-0.7,3.4c0,0.5,0,1,0.1,1.4s0.2,0.9,0.4,1.2
				c0.2,0.5,0.5,0.9,0.7,1.4c0.4,0.5,0.7,1,1.2,1.6l-6.7,8.2c-3-1.7-5.5-3.6-7.7-5.5s-4.1-3.7-5.7-5.7s-3-3.9-4.1-6s-2-4-2.7-6.1h-5
				V65.9H468z M489.7,56.5c0-0.6,0-1.4,0-2.2c0-0.7-0.1-1.5-0.4-2.2c-0.1-0.7-0.4-1.4-0.7-2c-0.4-0.6-0.7-1-1.1-1.4
				c-0.5,0.2-1,0.7-1.5,1.4s-1.1,1.5-1.6,2.5c-0.6,1-1.1,2-1.6,3.2c-0.5,1.1-1,2.4-1.4,3.5c-0.4,1.2-0.7,2.4-1,3.5
				c-0.2,1.1-0.4,2.1-0.4,3.1c1-0.2,2.1-0.6,3.2-1.2s2.2-1.4,3.1-2.2c1-0.9,1.7-1.9,2.5-2.9C489.2,58.8,489.6,57.7,489.7,56.5z"/>
			<path class="st2" d="M506,65.9h5c1,0,2.1-0.1,3.4-0.2s2.4-0.5,3.5-0.9s2-0.9,2.6-1.5c0.7-0.6,1.1-1.5,1.1-2.4
				c0-0.6-0.1-1.5-0.5-2.6s-0.7-2.5-1.4-3.9s-1.2-2.9-1.9-4.5s-1.4-3.1-2.1-4.5l10.5-5.2c0.6,1.5,1.4,3.2,2,4.9s1.2,3.5,1.9,5.2
				c0.5,1.7,1,3.6,1.2,5.4c0.4,1.7,0.5,3.5,0.5,5.1c0,3-0.5,5.5-1.5,7.6s-2.4,3.9-4.1,5.2c-1.7,1.4-3.9,2.4-6.3,3s-5.1,1-8.1,1h-5.9
				L506,65.9L506,65.9z M517.8,97.6l-8.1-8.1l8.1-8.1l8.1,8.1L517.8,97.6z"/>
			<path class="st2" d="M593.8,77.5c-2.1,0-4.5-0.1-7.1-0.2c-2.5-0.1-5.1-0.5-7.6-1.1c-2.5-0.5-5-1.2-7.3-2.2
				c-2.4-0.9-4.5-2.1-6.2-3.6c-1.9-1.5-3.4-3.2-4.5-5.5c-1.1-2.1-1.9-4.6-2-7.6c0-1.5,0.1-2.9,0.5-4.2c0.4-1.4,0.7-2.7,1.2-4
				c0.5-1.2,1.1-2.6,1.7-3.9s1.4-2.5,2.1-3.7l8.6,7.2c-0.4,0.5-0.7,1.1-1.2,2s-1,1.6-1.4,2.6c-0.5,0.9-0.9,1.9-1.1,2.7
				c-0.2,0.9-0.5,1.7-0.5,2.4c0,0.9,0.4,1.7,1,2.5s1.5,1.4,2.7,1.9c1.1,0.5,2.5,1,4.1,1.4s3.2,0.7,5.1,1s3.7,0.4,5.9,0.5
				c2,0.1,4.1,0.1,6.2,0.1c1,0,2,0,3.1,0s2.1,0,3.1,0s1.9,0,2.6-0.1c0.7,0,1.2,0,1.5-0.1c-0.9-1-1.6-2.2-2.4-3.6
				c-0.7-1.5-1.1-3.1-1.2-4.9c0-1.5,0.1-2.9,0.5-4.4s0.9-2.9,1.6-4.4c0.6-1.4,1.5-2.7,2.5-3.9s2.1-2.2,3.2-3.1
				c1.2-0.9,2.5-1.6,3.9-2c1.4-0.5,2.9-0.7,4.4-0.6c2.1,0.1,4.1,0.6,6,1.6s3.4,2.2,4.7,3.9c1.4,1.6,2.4,3.4,3.1,5.4s1.1,4.1,1.1,6.2
				c0,1.7-0.2,3.4-0.9,5c-0.6,1.6-1.2,3.1-2.1,4.6c1.1,0.1,2.4,0.2,3.5,0.4c1.1,0.1,2.1,0.1,3.1,0.1h1.2v11.6h-1
				c-1.5,0-3.1,0-4.7-0.1c-1.6,0-3.2-0.1-4.7-0.4c-1.6-0.2-3.1-0.5-4.7-0.9c-1.6-0.4-3.1-0.9-4.6-1.6c-0.6,0.4-1.4,0.6-2.4,1
				c-1,0.2-2.2,0.5-3.5,0.7c-1.2,0.2-2.7,0.4-4.2,0.6c-1.5,0.1-3,0.2-4.5,0.4c-1.5,0.1-3,0.2-4.4,0.2
				C596.3,77.5,594.9,77.5,593.8,77.5z M618.1,32.9l-8.1-8.1l8.1-8.1l8.1,8.1L618.1,32.9z M621.8,56.7c0-0.7-0.2-1.5-0.6-2.2
				s-0.9-1.4-1.4-1.9c-0.5-0.6-1.1-1-1.7-1.4s-1.2-0.6-1.7-0.7c-0.6,0.1-1.2,0.4-1.9,0.6c-0.7,0.4-1.4,0.7-2,1.4s-1.2,1.2-1.6,2.1
				c-0.5,0.9-0.6,1.7-0.6,2.9c0,0.4,0.2,0.9,0.6,1.5c0.4,0.6,0.9,1.2,1.5,2c0.6,0.6,1.2,1.2,2,1.9c0.7,0.6,1.6,1,2.4,1.2
				c0.6-0.4,1.2-0.9,1.9-1.4c0.6-0.6,1.2-1.2,1.7-1.9c0.5-0.6,0.9-1.4,1.2-2C621.7,57.9,621.8,57.3,621.8,56.7z"/>
			<path class="st2" d="M669.6,65.9v11.6h-34.7V65.9H669.6z"/>
			<path class="st2" d="M700.8,65.9v11.6H700c-1.1,0-2.4-0.1-3.5-0.2c-1.1-0.2-2.2-0.5-3.2-0.9s-1.9-0.7-2.7-1.2
				c-0.9-0.5-1.6-1-2.2-1.6c-1.1,0.9-2.5,1.6-4,2.1s-3,0.9-4.7,1.2c-1.6,0.2-3.4,0.5-5.1,0.5c-1.7,0.1-3.5,0.1-5.1,0.1H668V65.9h1.4
				c1.7,0,3.4,0,4.7-0.1c1.4-0.1,2.6-0.2,3.6-0.5c1-0.2,1.9-0.6,2.6-1c0.7-0.4,1.2-0.9,1.7-1.5c0.6-0.7,0.9-1.6,1-2.6s0.1-2,0-3
				s-0.2-2-0.6-3c-0.2-1-0.5-2-0.7-2.9l10.7-3c0.2,1.1,0.5,2.1,0.7,3s0.4,1.7,0.5,2.6c0.1,0.9,0.2,1.7,0.4,2.6
				c0.1,0.9,0.2,1.9,0.4,2.9c0.1,0.6,0.2,1.4,0.4,2.1s0.4,1.5,0.7,2.1c0.4,0.6,0.9,1.2,1.5,1.6c0.6,0.5,1.5,0.6,2.5,0.6
				C699.5,65.9,700.8,65.9,700.8,65.9z M682.4,88.3l-6.8,6.8l-7.1-7.1l7.1-7.1l7,7l6.8-6.8l7.1,7.1l-7.1,7.1L682.4,88.3z"/>
			<path class="st2" d="M699.3,65.9h2.6c0.6,0,1.1,0,1.7,0s1.1-0.1,1.6-0.1s0.9-0.1,1.1-0.2c-0.5-0.5-0.9-1-1.2-1.6
				c-0.4-0.6-0.7-1.2-1.1-1.9s-0.6-1.4-0.9-2.2c-0.2-0.9-0.4-1.6-0.4-2.6c0-1.5,0.1-2.9,0.5-4.4s0.9-2.9,1.6-4.4
				c0.6-1.4,1.5-2.7,2.5-3.9s2.1-2.2,3.2-3.1c1.2-0.9,2.5-1.6,3.9-2c1.4-0.5,2.9-0.7,4.4-0.6c2.1,0.1,4.1,0.6,6,1.6s3.4,2.2,4.7,3.9
				c1.4,1.6,2.4,3.4,3.1,5.4s1.1,4.1,1.1,6.2c0,1.7-0.2,3.4-0.9,5s-1.2,3.1-2.1,4.6c0.6,0.1,1.4,0.2,2.4,0.4
				c0.9,0.1,2.1,0.1,3.6,0.1h0.7v11.6H736c-1.6,0-3.1,0-4.5-0.1s-2.9-0.2-4.2-0.5c-1.4-0.2-2.7-0.5-4.1-0.9
				c-1.4-0.4-2.9-0.9-4.4-1.5c-0.9,0.5-2,1-3.4,1.4s-2.9,0.6-4.5,0.9c-1.6,0.2-3.2,0.4-5.1,0.5c-1.7,0.1-3.5,0.1-5.2,0.1h-1.4V65.9
				H699.3z M718.1,33.6l-8.1-8.1l8.1-8.1l8.1,8.1L718.1,33.6z M724.1,56.7c0-0.7-0.2-1.5-0.6-2.2c-0.4-0.7-0.9-1.4-1.4-1.9
				c-0.5-0.6-1.1-1-1.7-1.4s-1.2-0.6-1.7-0.7c-0.6,0.1-1.2,0.4-1.9,0.6c-0.7,0.4-1.4,0.7-2,1.4s-1.2,1.2-1.6,2.1
				c-0.5,0.9-0.6,1.7-0.6,2.9c0,0.4,0.2,0.9,0.6,1.5c0.4,0.6,0.9,1.2,1.5,2c0.6,0.6,1.2,1.2,2,1.9c0.7,0.6,1.6,1,2.4,1.2
				c0.6-0.4,1.2-0.9,1.9-1.4c0.6-0.6,1.2-1.2,1.7-1.9c0.5-0.6,0.9-1.4,1.2-2C724,57.9,724.1,57.3,724.1,56.7z"/>
			<path class="st2" d="M736.1,65.9h7.5c1.7,0,3.6-0.1,5.6-0.4c2-0.2,4-0.6,6.1-1s4.1-0.9,6.2-1.5c2.1-0.6,4.1-1.2,6.1-1.9
				c2-0.6,3.9-1.4,5.7-2.1s3.5-1.5,5-2.2c-1.5-0.4-3.2-0.9-5.1-1.5c-1.9-0.6-3.7-1.2-5.6-2c-1.9-0.7-3.7-1.1-5.6-1.6
				c-1.7-0.5-3.4-0.6-4.9-0.6c-0.9,0-1.7,0.2-2.6,0.6s-1.6,0.7-2.4,1.4c-0.7,0.6-1.4,1.1-2,1.7s-1.1,1.1-1.5,1.7
				c-0.4,0.5-0.7,1-1,1.4l-0.4,0.5l-8.7-5c1-1.9,2.1-3.6,3.5-5.2c1.4-1.6,2.9-3.1,4.5-4.5s3.4-2.2,5.1-3.1c1.7-0.7,3.5-1.1,5.4-1.1
				c1.4,0,2.6,0.1,4,0.5s2.6,0.6,4,1.1s2.6,1,4,1.6s2.7,1.2,4.1,1.9s3,1.4,4.6,2c1.7,0.6,3.5,1.2,5.4,1.7s3.7,0.9,5.6,1.2
				s3.7,0.5,5.6,0.5l-1.9,10.8c-0.6,0.2-1.2,0.5-1.9,0.9s-1.4,0.6-1.9,0.9l-1,0.5c0.6,0.6,1.2,1.2,2.1,1.6c0.9,0.4,1.7,0.6,2.6,0.9
				c0.9,0.1,1.7,0.2,2.6,0.4c0.9,0,1.5,0.1,2,0.1h1.2v11.6h-1.2c-2.4,0-4.6-0.2-6.6-0.6c-2.1-0.4-4-1-5.6-1.9
				c-1.7-0.7-3.2-1.7-4.5-2.9c-1.2-1.1-2.4-2.4-3.2-3.9c-2.4,1.1-5,2.4-7.6,3.4c-2.6,1.1-5.4,2.1-8.1,3c-2.9,0.9-5.7,1.6-8.7,2.1
				s-6.1,0.7-9.3,0.7h-7.5V65.9H736.1z M756.7,35.9l-8.1-8.1l8.1-8.1l8.1,8.1L756.7,35.9z"/>
			<path class="st2" d="M797.1,65.9h8.8c1,0,2.2,0,3.5-0.1c1.2-0.1,2.5-0.4,3.6-0.6c1.1-0.4,2-0.9,2.7-1.5s1.1-1.6,1.1-2.6
				c0-0.6-0.1-1.5-0.5-2.6s-0.9-2.5-1.4-3.9s-1.2-2.9-2-4.5s-1.5-3.1-2.1-4.5l10.5-5.2c0.6,1.5,1.4,3.2,2,4.9s1.2,3.5,1.9,5.2
				c0.6,1.7,1,3.6,1.2,5.4c0.4,1.7,0.5,3.5,0.5,5.1c0,3-0.5,5.6-1.6,7.7s-2.6,3.9-4.5,5.1c-1.9,1.4-4.1,2.2-6.7,2.9
				c-2.6,0.6-5.4,0.9-8.2,0.9h-8.7L797.1,65.9L797.1,65.9z M814.1,28.2l-6.8,6.8l-7.1-7.1l7.1-7.1l7,7l6.8-6.8l7.1,7.1l-7.1,7.1
				L814.1,28.2z"/>
			<path class="st2" d="M872,77.5c-2,0-4-0.4-6-1s-3.9-1.6-5.5-3c-1.6-1.2-3-2.9-4-4.7c-1-1.9-1.6-4-1.6-6.2c0-4.9,2.1-10,6.5-15.2
				c0.4-0.4,0.6-0.7,0.9-1c0.2-0.2,0.5-0.5,0.6-0.7s0.4-0.4,0.5-0.6l0.6-0.6l-2.2-1.9l7.3-9c1.2,0.9,2.7,2.2,4.5,3.7
				c1.7,1.6,3.7,3.6,6,6c6.3,7.2,9.5,13.6,9.5,19.3c0,2.5-0.5,4.6-1.5,6.5s-2.4,3.4-3.9,4.7c-1.6,1.2-3.5,2.2-5.5,2.9
				C876.1,77.2,874.1,77.5,872,77.5z M879.1,62.6c0-0.7-0.2-1.6-0.7-2.6s-1.1-2-1.9-3c-0.7-1-1.6-2.1-2.6-3.1c-1-1.1-2-2.1-3-3.1
				c-0.6,0.7-1.4,1.6-2.1,2.5c-0.7,0.9-1.4,1.9-2,2.9s-1.1,2.1-1.5,3.1c-0.4,1.1-0.6,2.1-0.5,3.2c0,0.6,0.2,1.1,0.9,1.5
				c0.6,0.4,1.1,0.7,1.9,1.1c0.7,0.2,1.5,0.5,2.4,0.6s1.5,0.2,2.1,0.2c0.7,0,1.5,0,2.4-0.1s1.6-0.2,2.4-0.6c0.7-0.2,1.2-0.6,1.7-1.1
				C878.9,63.8,879.1,63.3,879.1,62.6z"/>
			<path class="st2" d="M912.8,55.6c0.6,1.7,1.1,3.6,1.6,5.5s0.9,3.7,1.2,5.6c0.4,1.9,0.5,3.6,0.5,5.2c0,2.2-0.4,4.5-1,6.7
				s-1.5,4.4-2.6,6.3c-1.1,2-2.5,4-4.1,5.9s-3.2,3.6-5.2,5.4c-1.9,1.6-4,3.2-6.1,4.6s-4.5,2.7-6.7,3.9l-6.7-9.2
				c1.7-0.9,3.5-1.9,5.4-3c1.7-1.1,3.5-2.4,5.2-3.6c1.6-1.2,3.2-2.6,4.6-4c1.4-1.4,2.6-2.9,3.7-4.2c1.1-1.5,1.9-2.9,2.5-4.4
				s0.9-2.9,0.9-4.4c0-1-0.1-2.1-0.4-3.4c-0.2-1.2-0.6-2.5-1.1-3.9s-1-2.9-1.7-4.4c-0.6-1.5-1.4-3.2-2.1-5l10.6-4.9
				C911.7,52.2,912.2,53.8,912.8,55.6z"/>
			<path class="st2" d="M923.2,71.4c0.1-2.1,0.2-4.2,0.4-6.3s0.1-4.1,0.1-6.1s0-3.9-0.1-5.5c-0.1-3.5-0.2-6.5-0.4-9.1
				c-0.1-2.6-0.2-5-0.4-7c-0.1-2-0.2-3.9-0.4-5.4c-0.1-1.5-0.2-2.9-0.4-4.2c-0.1-1.2-0.2-2.5-0.5-3.6c-0.1-1.1-0.4-2.2-0.5-3.5
				l11.3-3.7c0.5,3.2,1,6.6,1.2,9.8c0.4,3.4,0.6,6.5,0.7,9.6c0.1,3,0.2,5.9,0.4,8.5c0.1,2.6,0.1,4.9,0.1,6.7c0,1.7,0,3.5,0,5.5
				s0,4-0.1,6.1c-0.1,2.1-0.1,4.2-0.1,6.3c-0.1,2.1-0.1,4.2-0.4,6.3l-11.3,1.7C922.9,75.6,923,73.5,923.2,71.4z"/>
			<path class="st2" d="M938.2,92c3.5-0.6,6.6-1.5,9.5-2.6c2.9-1,5.4-2.2,7.5-3.5s3.9-2.6,5.4-4.1c1.4-1.5,2.4-2.9,3-4.4
				c-1,0-2.1,0-3.4,0c-1.1,0-2.1-0.1-2.9-0.1c-2.4-0.2-4.6-0.6-6.6-1.4c-2-0.7-3.7-1.7-5.1-3s-2.5-2.7-3.4-4.6
				c-0.7-1.9-1.1-3.9-1.1-6.2c0-1.5,0.1-3,0.5-4.6s0.7-3.1,1.4-4.6c0.6-1.5,1.4-2.9,2.2-4.2c0.9-1.4,1.9-2.5,3-3.5s2.4-1.7,3.7-2.4
				c1.4-0.6,2.9-0.9,4.4-0.9c1.9,0,3.6,0.4,5.1,1c1.6,0.6,3,1.6,4.4,2.7c1.2,1.1,2.5,2.5,3.5,4.1c1,1.5,1.9,3.2,2.6,5
				c0.7,1.7,1.4,3.6,1.9,5.5s0.9,3.7,1,5.6h1.6v11.6H974c-1,3.6-2.5,6.8-4.6,9.7c-2.1,2.9-4.6,5.5-7.5,7.6s-6.1,4-9.7,5.4
				c-3.6,1.4-7.2,2.4-11.1,3L938.2,92z M956.2,53.7c-0.5-0.1-1.1,0.1-1.7,0.5c-0.6,0.5-1.2,1.1-1.9,1.9s-1,1.6-1.4,2.5
				s-0.6,1.9-0.5,2.6c0,0.9,0.2,1.5,0.7,2s1.1,1,2,1.4c0.7,0.4,1.7,0.6,2.7,0.7s2,0.2,3,0.4c1,0.1,2,0.1,2.9,0.1h2.2
				c-0.4-1.5-0.7-3-1.2-4.4s-1.1-2.6-1.7-3.7c-0.6-1.1-1.4-2-2.2-2.7C958.2,54.2,957.2,53.9,956.2,53.7z"/>
			<path class="st2" d="M1009.4,65.9v11.6h-34.7V65.9H1009.4z"/>
			<path class="st2" d="M1035.2,65.9v11.6h-0.7c-2.4,0-4.4-0.4-6-1s-3.1-1.6-4.2-2.7c-1.7,1.2-3.9,2.2-6.2,2.9
				c-2.4,0.6-5.2,0.9-8.6,0.9h-1.4V65.9h1.4c3.4,0,5.9-0.5,7.6-1.6c1.7-1.1,2.6-2.7,2.6-5c0-0.7-0.1-1.7-0.2-3.1
				c-0.2-1.4-0.6-3.1-1.2-5.2l10.3-2.5c0.4,1.4,0.7,2.5,1,3.6c0.2,1.1,0.5,2,0.6,2.9s0.2,1.6,0.4,2.4c0.1,0.7,0.1,1.4,0.1,2.1
				c0,0.6,0.1,1.4,0.2,2.2c0.1,0.7,0.2,1.5,0.6,2.1s0.6,1.2,1.1,1.6s1.1,0.6,2,0.6L1035.2,65.9L1035.2,65.9L1035.2,65.9z
				 M1019.5,42.6l-8.1-8.1l8.1-8.1l8.1,8.1L1019.5,42.6z"/>
			<path class="st2" d="M1034.5,65.9c1.2,0,2.5-0.2,3.6-0.6s2.2-1.2,3.2-2.5c1-1.2,2-3,2.9-5.2s1.7-5.1,2.5-8.7l9.7,1.4
				c0,0.1,0,0.2-0.1,0.5c-0.1,0.6-0.4,1.5-0.5,2.6c-0.2,1.1-0.4,2.4-0.6,3.7c-0.1,1.4-0.2,2.7-0.2,4s0.1,2.4,0.5,3.2
				c0.4,0.8,0.7,1.5,1.5,1.6c0.7,0.2,1.5,0,2.2-0.5s1.4-1.2,2-2.1c0.6-1,1.2-2,1.7-3.2s1-2.5,1.5-3.9s0.9-2.6,1.1-3.9
				c0.4-1.2,0.6-2.4,0.7-3.4l9.7,1.4c0,0.6-0.1,1.4-0.2,2.5c-0.1,1-0.2,2.1-0.2,3.2c0,1.1-0.1,2.2-0.1,3.5c0,1.1,0.1,2.2,0.4,3.1
				c0.2,1,0.6,1.7,1.1,2.4c0.5,0.6,1.2,0.9,2.1,0.9c0.7,0,1.5-0.2,2.1-0.7s1.1-1.2,1.5-2.1s0.7-1.9,1-3c0.2-1.1,0.4-2.2,0.5-3.4
				c0.1-1.1,0.1-2.2,0.1-3.4c0-1.1,0-2-0.1-2.9l9.8-1.4l1.2,10.3c0.1,1.1,0.5,2.1,1,3s1.1,1.5,1.7,2.1c0.6,0.5,1.4,1,2.1,1.2
				s1.4,0.4,2.1,0.4h1.1v11.6h-1.1c-2.4,0-4.6-0.4-6.7-1.2c-2.1-0.9-3.9-2.2-5.5-4.2c-0.1,0.2-0.2,0.4-0.5,0.5
				c-0.1,0.1-0.2,0.2-0.4,0.5l0,0c-1.4,1.4-2.9,2.5-4.6,3.4s-3.6,1.2-5.6,1.2c-2.2,0-4.2-0.5-6.1-1.4s-3.5-2.2-4.7-3.9
				c-1.5,1.6-3.1,2.9-5,3.9s-3.9,1.5-6.1,1.5c-2.1,0-4-0.5-5.9-1.4s-3.2-2.2-4.5-3.9c-1.4,1.9-3,3.1-4.9,3.9c-2,0.7-4.4,1.1-7.2,1.1
				h-0.7V65.9H1034.5z M1056.4,50.3L1056.4,50.3C1056.4,50.1,1056.4,50.1,1056.4,50.3z M1071.1,34.8l-6.8,6.8l-7.1-7.1l7.1-7.1l7,7
				l6.8-6.8l7.1,7.1l-7.1,7.1L1071.1,34.8z M1077.7,24.1l-6.5,6.5l-6.6-6.6l6.5-6.5L1077.7,24.1z"/>
			<path class="st2" d="M1101.6,65.9h7.7c4,0,7.6-0.2,11-0.7s6.3-1.1,9.3-1.9c2.9-0.7,5.6-1.7,8.2-2.9c2.6-1.1,5.1-2.1,7.6-3.4
				c-1.6-0.5-3.4-1-5-1.7c-1.6-0.6-3.4-1.4-5-2s-3.4-1.1-5-1.6s-3.4-0.6-5-0.6c-1.1,0-2.2,0.2-3.4,0.9c-1.1,0.6-2.1,1.2-3,2.1
				c-0.9,0.7-1.6,1.5-2.2,2.2s-1,1.2-1.1,1.5l-8.5-5.5c0.9-1.6,2-3.2,3.2-4.9c1.2-1.6,2.6-3,4.2-4.1c1.5-1.2,3.1-2.2,5-2.9
				s3.6-1.1,5.6-1.1c1.5,0,2.9,0.1,4.4,0.5c1.5,0.2,2.9,0.7,4.4,1.2c1.4,0.5,2.9,1,4.2,1.6s2.7,1.2,4.1,1.9c1.2,0.6,2.6,1.2,3.9,1.9
				c1.4,0.6,2.6,1.1,4.1,1.6c1.4,0.5,2.9,0.9,4.4,1.2s3.1,0.5,4.7,0.5l-0.9,11.2l-5.2,2.5c-2.1,1-4.2,2.1-6.3,3.1s-4.2,2.1-6.5,3.1
				c-2.1,1-4.5,2-6.7,2.9c-2.4,0.9-4.7,1.7-7.3,2.4c-2.5,0.6-5.2,1.2-8.1,1.6s-5.9,0.6-9.1,0.6h-7.7L1101.6,65.9L1101.6,65.9z
				 M1131.8,97.5l-8.1-8.1l8.1-8.1l8.1,8.1L1131.8,97.5z"/>
		</g>
	</g>
</g>
<g>
	<path class="st2" d="M923.2,164.9h25.5c2.3,0,3.9-0.5,5-1.5c1-1,1.6-2.6,1.6-4.9v-5.7v-1.1h1.2h5.4h1.2v1.1v5.6
		c0,4.5-1.2,8-3.7,10.4s-6.1,3.6-10.8,3.6h-25.3c-4.8,0-8.4-1.2-11-3.5c-2.5-2.4-3.8-5.8-3.8-10.3v-5.8v-1.1h1.2h5.4h1.2v1.1v5.7
		c0,2.2,0.5,3.9,1.6,4.9C919.1,164.4,920.9,164.9,923.2,164.9z M925,146.8l5.2-4.8l5.2,4.8l-5.2,4.8L925,146.8z M936.2,146.8
		l5.2-4.8l5.2,4.8c-0.1,0.1-0.2,0.2-0.4,0.4c-0.3,0.2-1,0.9-2.2,2s-2.1,1.9-2.7,2.5L936.2,146.8z"/>
	<path class="st2" d="M983.6,172.4h-1.4c-3.7,0-6.5-1-8.4-3.1s-2.9-5-2.9-8.8v-25.2v-1.1h1.2h5.1h1.2v1.1v25.2
		c0,1.6,0.3,2.7,0.9,3.4c0.6,0.7,1.6,1,2.9,1h1.3c0.2,0,0.4,0.4,0.6,1.2c0.1,0.8,0.2,1.6,0.2,2.3v0.3c0,0.8-0.1,1.6-0.2,2.4
		C984,172,983.8,172.4,983.6,172.4z"/>
	<path class="st2" d="M991.3,164.9c0.2,0,0.4,0.4,0.6,1.2c0.1,0.8,0.2,1.6,0.2,2.3v0.3c0,0.8-0.1,1.6-0.2,2.4
		c-0.1,0.8-0.3,1.2-0.6,1.2h-8c-0.2,0-0.4-0.4-0.6-1.2c-0.1-0.8-0.2-1.6-0.2-2.4v-0.3c0-0.7,0.1-1.5,0.2-2.3
		c0.1-0.8,0.3-1.2,0.6-1.2H991.3z"/>
	<path class="st2" d="M999,164.9c0.2,0,0.4,0.4,0.6,1.2c0.1,0.8,0.2,1.6,0.2,2.3v0.3c0,0.8-0.1,1.6-0.2,2.4
		c-0.1,0.8-0.3,1.2-0.6,1.2h-8c-0.2,0-0.4-0.4-0.6-1.2c-0.1-0.8-0.2-1.6-0.2-2.4v-0.3c0-0.7,0.1-1.5,0.2-2.3
		c0.1-0.8,0.3-1.2,0.6-1.2H999z"/>
	<path class="st2" d="M1006.8,164.9c0.2,0,0.4,0.4,0.6,1.2c0.1,0.8,0.2,1.6,0.2,2.3v0.3c0,0.8-0.1,1.6-0.2,2.4
		c-0.1,0.8-0.3,1.2-0.6,1.2h-8c-0.2,0-0.4-0.4-0.6-1.2c-0.1-0.8-0.2-1.6-0.2-2.4v-0.3c0-0.7,0.1-1.5,0.2-2.3
		c0.1-0.8,0.3-1.2,0.6-1.2H1006.8z"/>
	<path class="st2" d="M1014.5,164.9c0.2,0,0.4,0.4,0.6,1.2c0.1,0.8,0.2,1.6,0.2,2.3v0.3c0,0.8-0.1,1.6-0.2,2.4
		c-0.1,0.8-0.3,1.2-0.6,1.2h-8c-0.2,0-0.4-0.4-0.6-1.2c-0.1-0.8-0.2-1.6-0.2-2.4v-0.3c0-0.7,0.1-1.5,0.2-2.3
		c0.1-0.8,0.3-1.2,0.6-1.2H1014.5z"/>
	<path class="st2" d="M1014.2,164.9h6.7c-1.7-2-2.5-4.2-2.5-6.6c0-3.6,1.3-6.6,3.8-8.9c2.5-2.4,5.8-3.5,9.7-3.5
		c4.4,0,8,1.6,10.8,4.7l0.5,0.6l-0.4,0.7l-2.3,3.8l-0.8,1.3l-1.2-1c-1.9-1.7-4.1-2.5-6.5-2.5c-1.6,0-3,0.4-4.1,1.3
		c-1.1,0.9-1.7,2.1-1.7,3.5c0,1.5,0.8,2.8,2.5,4c1.5,1.2,2.7,1.8,3.4,1.8c0.6,0,1.9-0.2,3.9-0.6l6.6-1.5l1.5-0.3v1.5v5.2v0.9
		l-0.9,0.2c-7.3,2-13.7,3-19.4,3h-9.6c-0.2,0-0.4-0.4-0.6-1.2c-0.1-0.8-0.2-1.6-0.2-2.4v-0.3c0-0.7,0.1-1.5,0.2-2.3
		C1013.8,165.3,1014,164.9,1014.2,164.9z"/>
	<path class="st2" d="M1064.5,172.4h-1.4c-3.7,0-6.5-1-8.4-3.1s-2.9-5-2.9-8.8v-25.2v-1.1h1.2h5.1h1.2v1.1v25.2
		c0,1.6,0.3,2.7,0.9,3.4s1.6,1,2.9,1h1.3c0.2,0,0.4,0.4,0.6,1.2c0.1,0.8,0.2,1.6,0.2,2.3v0.3c0,0.8-0.1,1.6-0.2,2.4
		C1064.9,172,1064.7,172.4,1064.5,172.4z"/>
	<path class="st2" d="M1072.2,164.9c0.2,0,0.4,0.4,0.6,1.2c0.1,0.8,0.2,1.6,0.2,2.3v0.3c0,0.8-0.1,1.6-0.2,2.4
		c-0.1,0.8-0.3,1.2-0.6,1.2h-8c-0.2,0-0.4-0.4-0.6-1.2c-0.1-0.8-0.2-1.6-0.2-2.4v-0.3c0-0.7,0.1-1.5,0.2-2.3s0.3-1.2,0.6-1.2H1072.2
		z"/>
	<path class="st2" d="M1079.9,164.9c0.2,0,0.4,0.4,0.6,1.2c0.1,0.8,0.2,1.6,0.2,2.3v0.3c0,0.8-0.1,1.6-0.2,2.4
		c-0.1,0.8-0.3,1.2-0.6,1.2h-8c-0.2,0-0.4-0.4-0.6-1.2c-0.1-0.8-0.2-1.6-0.2-2.4v-0.3c0-0.7,0.1-1.5,0.2-2.3s0.3-1.2,0.6-1.2H1079.9
		z"/>
	<path class="st2" d="M1087.6,164.9c0.2,0,0.4,0.4,0.6,1.2c0.1,0.8,0.2,1.6,0.2,2.3v0.3c0,0.8-0.1,1.6-0.2,2.4
		c-0.1,0.8-0.3,1.2-0.6,1.2h-8c-0.2,0-0.4-0.4-0.6-1.2c-0.1-0.8-0.2-1.6-0.2-2.4v-0.3c0-0.7,0.1-1.5,0.2-2.3s0.3-1.2,0.6-1.2H1087.6
		z"/>
	<path class="st2" d="M1087.3,164.9h2.9c2.2,0,3.7-0.4,4.7-1.1c0.9-0.7,1.4-1.8,1.4-3.3V153v-1.1h1.2h5.3h1.2v1.1v7.5
		c0,1.6,0.4,2.7,1.1,3.4s1.9,1,3.5,1c1.5,0,2.6-0.3,3.3-1c0.7-0.7,1-1.8,1-3.4V153v-1.1h1.2h5.3h1.2v1.1v7.4c0,1.6,0.4,2.7,1.1,3.4
		s1.8,1,3.3,1c1.2,0,2-0.3,2.5-0.9c0.5-0.6,0.8-1.8,0.8-3.4V152v-1h1.2h5.4h1.2v1.1v8.7c0,3.6-1,6.4-2.9,8.5s-4.6,3.1-8.1,3.1
		c-3.6,0-6.3-1.1-8.3-3.2c-2,2.1-4.8,3.2-8.5,3.2c-3.4,0-6.2-1.1-8.2-3.3c-2.2,2.2-5.6,3.3-10.1,3.3h-2.9c-0.2,0-0.4-0.4-0.6-1.2
		c-0.1-0.8-0.2-1.6-0.2-2.4v-0.3c0-0.7,0.1-1.5,0.2-2.3C1086.9,165.3,1087.1,164.9,1087.3,164.9z"/>
	<path class="st2" d="M950.4,221.1H950v1.1c0,3.8-1.6,6.8-4.7,8.8c-3.2,2-7.7,3-13.5,3h-3c-6.4,0-11.2-1.4-14.5-4.3
		c-3.3-2.9-4.9-7.1-4.9-12.6v-9.8v-1.1h1.2h5.4h1.2v1.1v9.7c0,3.3,0.9,5.6,2.8,7.2c1.8,1.5,4.8,2.3,8.7,2.3h3c1.6,0,2.9-0.1,4.1-0.2
		c1.2-0.1,2.3-0.4,3.2-0.7c1-0.3,1.7-0.8,2.2-1.4c0.5-0.6,0.8-1.3,0.8-2.2v-0.9h-6.6c-0.9,0-1.7-0.3-2.2-0.8s-0.9-1.4-1.3-2.6
		c-0.5-1.6-0.6-2.6-0.5-3.2c0.2-0.6,0.8-0.9,1.8-0.9h17c0.2,0,0.4,0.4,0.6,1.2c0.1,0.8,0.2,1.6,0.2,2.3v0.3c0,0.8-0.1,1.6-0.2,2.4
		C950.8,220.7,950.6,221.1,950.4,221.1z M954.2,213.7c0.1,0,0.3,0.4,0.3,1.2c0.1,0.8,0.1,1.6,0.1,2.3v0.3c0,0.8,0,1.6-0.1,2.4
		c-0.1,0.8-0.2,1.2-0.3,1.2h-4.6c-0.1,0-0.3-0.4-0.3-1.2c-0.1-0.8-0.1-1.6-0.1-2.4v-0.3c0-0.7,0-1.5,0.1-2.3s0.2-1.2,0.3-1.2H954.2z
		"/>
	<path class="st2" d="M961.6,213.7c0.2,0,0.4,0.4,0.6,1.2c0.1,0.8,0.2,1.6,0.2,2.3v0.3c0,0.8-0.1,1.6-0.2,2.4
		c-0.1,0.8-0.3,1.2-0.6,1.2h-8c-0.2,0-0.4-0.4-0.6-1.2c-0.1-0.8-0.2-1.6-0.2-2.4v-0.3c0-0.7,0.1-1.5,0.2-2.3
		c0.1-0.8,0.3-1.2,0.6-1.2H961.6z"/>
	<path class="st2" d="M969.4,213.7c0.2,0,0.4,0.4,0.6,1.2c0.1,0.8,0.2,1.6,0.2,2.3v0.3c0,0.8-0.1,1.6-0.2,2.4
		c-0.1,0.8-0.3,1.2-0.6,1.2h-8c-0.2,0-0.4-0.4-0.6-1.2c-0.1-0.8-0.2-1.6-0.2-2.4v-0.3c0-0.7,0.1-1.5,0.2-2.3
		c0.1-0.8,0.3-1.2,0.6-1.2H969.4z"/>
	<path class="st2" d="M977.1,213.7c0.2,0,0.4,0.4,0.6,1.2c0.1,0.8,0.2,1.6,0.2,2.3v0.3c0,0.8-0.1,1.6-0.2,2.4
		c-0.1,0.8-0.3,1.2-0.6,1.2h-8c-0.2,0-0.4-0.4-0.6-1.2c-0.1-0.8-0.2-1.6-0.2-2.4v-0.3c0-0.7,0.1-1.5,0.2-2.3
		c0.1-0.8,0.3-1.2,0.6-1.2H977.1z"/>
	<path class="st2" d="M984.8,213.7c0.2,0,0.4,0.4,0.6,1.2c0.1,0.8,0.2,1.6,0.2,2.3v0.3c0,0.8-0.1,1.6-0.2,2.4
		c-0.1,0.8-0.3,1.2-0.6,1.2h-8c-0.2,0-0.4-0.4-0.6-1.2c-0.1-0.8-0.2-1.6-0.2-2.4v-0.3c0-0.7,0.1-1.5,0.2-2.3
		c0.1-0.8,0.3-1.2,0.6-1.2H984.8z"/>
	<path class="st2" d="M992.6,213.7c0.2,0,0.4,0.4,0.6,1.2c0.1,0.8,0.2,1.6,0.2,2.3v0.3c0,0.8-0.1,1.6-0.2,2.4
		c-0.1,0.8-0.3,1.2-0.6,1.2h-8c-0.2,0-0.4-0.4-0.6-1.2c-0.1-0.8-0.2-1.6-0.2-2.4v-0.3c0-0.7,0.1-1.5,0.2-2.3
		c0.1-0.8,0.3-1.2,0.6-1.2H992.6z"/>
	<path class="st2" d="M1000.3,213.7c0.2,0,0.4,0.4,0.6,1.2c0.1,0.8,0.2,1.6,0.2,2.3v0.3c0,0.8-0.1,1.6-0.2,2.4
		c-0.1,0.8-0.3,1.2-0.6,1.2h-8c-0.2,0-0.4-0.4-0.6-1.2c-0.1-0.8-0.2-1.6-0.2-2.4v-0.3c0-0.7,0.1-1.5,0.2-2.3
		c0.1-0.8,0.3-1.2,0.6-1.2H1000.3z"/>
	<path class="st2" d="M1000,213.7h6.3c1.9,0,3.3-0.3,4-0.9c0.7-0.6,1.1-1.7,1.1-3.5v-8.4v-1.1h1.2h5.4h1.2v1.1v8.5
		c0,3.8-1.1,6.8-3.3,8.8s-5.4,3-9.6,3h-6.2c-0.2,0-0.4-0.4-0.6-1.2c-0.1-0.8-0.2-1.6-0.2-2.4v-0.3c0-0.7,0.1-1.5,0.2-2.3
		C999.6,214.1,999.8,213.7,1000,213.7z M1007.9,190.6l5.3-4.9l5.3,4.9l-5.3,4.9L1007.9,190.6z"/>
	<path class="st2" d="M1040.6,221.1h-1.4c-3.7,0-6.5-1-8.4-3.1s-2.9-5-2.9-8.8V184v-1.1h1.2h5.1h1.2v1.1v25.2c0,1.6,0.3,2.7,0.9,3.4
		s1.6,1,2.9,1h1.3c0.2,0,0.4,0.4,0.6,1.2c0.1,0.8,0.2,1.6,0.2,2.3v0.3c0,0.8-0.1,1.6-0.2,2.4C1041,220.7,1040.8,221.1,1040.6,221.1z
		"/>
	<path class="st2" d="M1048.3,213.7c0.2,0,0.4,0.4,0.6,1.2c0.1,0.8,0.2,1.6,0.2,2.3v0.3c0,0.8-0.1,1.6-0.2,2.4
		c-0.1,0.8-0.3,1.2-0.6,1.2h-8c-0.2,0-0.4-0.4-0.6-1.2c-0.1-0.8-0.2-1.6-0.2-2.4v-0.3c0-0.7,0.1-1.5,0.2-2.3s0.3-1.2,0.6-1.2H1048.3
		z"/>
	<path class="st2" d="M1056,213.7c0.2,0,0.4,0.4,0.6,1.2c0.1,0.8,0.2,1.6,0.2,2.3v0.3c0,0.8-0.1,1.6-0.2,2.4
		c-0.1,0.8-0.3,1.2-0.6,1.2h-8c-0.2,0-0.4-0.4-0.6-1.2c-0.1-0.8-0.2-1.6-0.2-2.4v-0.3c0-0.7,0.1-1.5,0.2-2.3s0.3-1.2,0.6-1.2H1056z"
		/>
	<path class="st2" d="M1053.4,230.6l5.2-4.8l5.2,4.8l-5.2,4.8L1053.4,230.6z M1055.7,213.7h8.8c1.9,0,3.3-0.3,4-0.9
		c0.7-0.6,1.1-1.7,1.1-3.5v-8.4v-1.1h1.2h5.4h1.2v1.1v8.5c0,3.8-1.1,6.8-3.3,8.8c-2.2,2-5.4,3-9.5,3h-8.8c-0.2,0-0.4-0.4-0.6-1.2
		c-0.1-0.8-0.2-1.6-0.2-2.4v-0.3c0-0.7,0.1-1.5,0.2-2.3C1055.3,214.1,1055.5,213.7,1055.7,213.7z M1064.6,230.6l5.2-4.8l5.2,4.8
		c-0.1,0.1-0.2,0.2-0.4,0.4c-0.3,0.2-1,0.9-2.2,2s-2.1,1.9-2.7,2.5L1064.6,230.6z"/>
	<path class="st2" d="M1098.7,221.1h-1.4c-3.7,0-6.5-1-8.4-3.1s-2.9-5-2.9-8.8V184v-1.1h1.2h5.1h1.2v1.1v25.2c0,1.6,0.3,2.7,0.9,3.4
		s1.6,1,2.9,1h1.3c0.2,0,0.4,0.4,0.6,1.2c0.1,0.8,0.2,1.6,0.2,2.3v0.3c0,0.8-0.1,1.6-0.2,2.4C1099.2,220.7,1099,221.1,1098.7,221.1z
		"/>
	<path class="st2" d="M1106.4,213.7c0.2,0,0.4,0.4,0.6,1.2c0.1,0.8,0.2,1.6,0.2,2.3v0.3c0,0.8-0.1,1.6-0.2,2.4
		c-0.1,0.8-0.3,1.2-0.6,1.2h-8c-0.2,0-0.4-0.4-0.6-1.2c-0.1-0.8-0.2-1.6-0.2-2.4v-0.3c0-0.7,0.1-1.5,0.2-2.3s0.3-1.2,0.6-1.2H1106.4
		z"/>
	<path class="st2" d="M1114.2,213.7c0.2,0,0.4,0.4,0.6,1.2c0.1,0.8,0.2,1.6,0.2,2.3v0.3c0,0.8-0.1,1.6-0.2,2.4
		c-0.1,0.8-0.3,1.2-0.6,1.2h-8c-0.2,0-0.4-0.4-0.6-1.2c-0.1-0.8-0.2-1.6-0.2-2.4v-0.3c0-0.7,0.1-1.5,0.2-2.3s0.3-1.2,0.6-1.2H1114.2
		z"/>
	<path class="st2" d="M1111.8,229.6l5-4.6l4.9,4.6l-4.9,4.6L1111.8,229.6z M1113.9,213.7h8.8c1.9,0,3.3-0.3,4-0.9
		c0.7-0.6,1.1-1.7,1.1-3.5v-8.4v-1.1h1.2h5.4h1.2v1.1v8.5c0,3.8-1.1,6.8-3.3,8.8c-2.2,2-5.4,3-9.5,3h-8.8c-0.2,0-0.4-0.4-0.6-1.2
		c-0.1-0.8-0.2-1.6-0.2-2.4v-0.3c0-0.7,0.1-1.5,0.2-2.3C1113.5,214.1,1113.7,213.7,1113.9,213.7z M1117.5,236.7l5-4.6l4.9,4.6
		l-4.9,4.6L1117.5,236.7z M1123.1,229.6l4.9-4.6l5,4.6l-5,4.6L1123.1,229.6z"/>
</g>
</svg>
