<?xml version="1.0" encoding="utf-8"?>
<!-- Generator: Adobe Illustrator 23.0.1, SVG Export Plug-In . SVG Version: 6.00 Build 0)  -->
<svg version="1.1" id="Layer_1" xmlns="http://www.w3.org/2000/svg" xmlns:xlink="http://www.w3.org/1999/xlink" x="0px" y="0px"
	 viewBox="0 0 1200 250" style="enable-background:new 0 0 1200 250;" width="1200" height="250" xml:space="preserve">
<style type="text/css">
	.st0{fill:#061133;stroke:#FFFFFF;stroke-width:3;stroke-miterlimit:10;}
	.st1{fill:#FFC200;}
	.st2{fill:#FFFFFF;}
	.st3{fill:#032D44;}
	.st4{fill:#E50000;}
	.st5{fill:#004F49;}
	.st6{opacity:0.35;fill:#FFFFFF;enable-background:new    ;}
	.st7{opacity:0.48;}
</style>
<path class="st0" d="M1177.5,227.6H640.3c-6.4,0-11.5-5.1-11.5-11.5v-87.5c0-6.4,5.1-11.5,11.5-11.5h537.3c6.4,0,11.5,5.1,11.5,11.5
	v87.6C1189,222.5,1183.9,227.6,1177.5,227.6z"/>
<g>
	<g>
		<g>
			<g>
				<path class="st1" d="M912.6,207.1H671.8c-4.2,0-8.2-3.7-8.2-8.2v-52.3c0-4.2,3.7-8.2,8.2-8.2h240.9c4.2,0,8.2,3.7,8.2,8.2V199
					C920.9,203.4,917.2,207.1,912.6,207.1z"/>
				<path class="st2" d="M912.6,208.8H671.8c-5.4,0-10.2-4.6-10.2-10.2v-52c0-5.4,4.6-10.2,10.2-10.2h240.9
					c5.4,0,10.2,4.6,10.2,10.2v52.3C922.7,204.5,918.3,208.8,912.6,208.8z M671.8,140.3c-3.5,0-6.3,2.8-6.3,6.3V199
					c0,3.5,2.8,6.3,6.3,6.3h240.9c3.5,0,6.3-2.8,6.3-6.3v-52.3c0-3.5-2.8-6.3-6.3-6.3C912.7,140.3,671.8,140.3,671.8,140.3z"/>
			</g>
		</g>
	</g>
	<g>
		<path class="st3" d="M710.2,186.3c-0.5,0.3-1.4,0.5-2,0.9c-0.9,0.3-2,0.3-3.2,0.5c-0.9,0-2.3,0.3-3.5,0.3h-15.8
			c-3.7,0-6.3-0.9-8.2-2.8c-2-2-2.8-4.8-2.8-8.6v-4.8v-0.9h0.9h4.2h0.9v0.9v4.8c0,2,0.3,3.2,1.4,4c0.9,0.9,2.3,1.4,4,1.4h17
			c-0.9-1.4-1.4-3.2-1.4-5.1c0-1.4,0.3-2.6,0.5-3.7c0.3-0.9,0.9-2,2-3.2c2-1.6,4-2.6,6.6-2.6s4.8,0.9,6.6,2.6c0.9,0.9,1.4,2,2,3.2
			c0.3,0.9,0.5,2.6,0.5,3.7c0,2-0.3,3.7-1.4,5.1h3.7c0.3,0,0.3,0,0.5,0c0.3,0,0.3,0.3,0.3,0.3c0,0.3,0.3,0.3,0.3,0.3s0,0.3,0,0.5
			c0,0.3,0,0.3,0,0.3v0.3c0,0,0,0,0,0.3v0.3c0,0,0,0,0,0.3s0,0.3,0,0.5c0,0,0,0.3,0,0.5c0,0.3,0,0.3,0,0.5c0,0,0,0.3-0.3,0.3
			c0,0.3-0.3,0.3-0.3,0.3c-0.3,0-0.3,0-0.5,0H719C715.4,188,712.8,187.2,710.2,186.3z M706.6,158.9l2-2c0.5-0.5,1.4-0.9,2,0l2.6,2.3
			c0.5,0.5,0.5,1.4,0,2l-2,2c-0.5,0.5-1.4,0.5-2,0l-2.3-2.6C705.6,160.4,705.6,159.6,706.6,158.9z M706.6,176.9
			c0,0.9,0.3,1.6,0.9,2.6c0.5,0.5,1.4,0.9,2.6,0.9c1.4,0,2-0.3,2.6-0.9c0.5-0.5,0.9-1.4,0.9-2.6c0-1.2-0.3-1.6-0.9-2.6
			c-0.3-0.3-0.5-0.5-0.9-0.9s-0.9-0.3-1.4-0.3c-0.3,0-0.9,0-1.4,0.3c-0.3,0.3-0.9,0.3-0.9,0.9c-0.3,0.3-0.5,0.5-0.9,0.9
			c0,0.3,0,0.3-0.3,0.5C706.6,176.4,706.6,176.4,706.6,176.9z"/>
		<path class="st3" d="M742.5,188h-0.3c-3.2,0-5.7-0.9-7.4-2.6c-2,2-4.8,2.6-8.6,2.6H722c-0.5,0-1.2-0.3-1.4-0.9
			c-0.3-0.3-0.3-1.2-0.3-2v-0.3c0-0.9,0-1.4,0.3-2c0.3-0.9,0.9-0.9,1.6-0.9h4.2c1.2,0,2.3,0,3.2-0.3s1.4-0.5,1.6-1.2
			c0.3-0.3,0.3-1.2,0.3-2v-6.2v-0.5h0.9h4.2h0.9v0.9v6.3c0,1.4,0.3,2.3,0.9,2.8s2,0.9,3.5,0.9h0.3c0.3,0,0.5,0,0.9,0.3
			c0.3,0.3,0.3,0.3,0.3,0.5c0.3,0.3,0,0.5,0,0.9s0,0.3,0,0.9c0,0,0,0,0,0.3v0.3c0,0,0,0,0,0.3s0,0.3,0,0.3v0.3v0.3
			c0,0,0,0.3-0.3,0.3c0,0.3-0.3,0.3-0.3,0.3L742.5,188C743,188,742.6,188,742.5,188z M722,194.8l2-2c0.5-0.5,1.4-0.5,2,0l2.3,2.3
			c0.5,0.5,0.5,1.4,0,2l-2,2c-0.5,0.5-1.4,0.5-2,0l-2.3-2.3C721.1,196.2,721.1,195.8,722,194.8z M730.4,194.8l2-2
			c0.5-0.5,1.4-0.5,2,0l2.3,2.3c0.5,0.5,0.5,1.4,0,2l-2,2c-0.5,0.5-1.4,0.5-2,0l-2.6-2.3C729.6,196.2,730,195.8,730.4,194.8z"/>
		<path class="st3" d="M767.1,188H764c-1.4,0-3.2-0.3-4.2-0.3c-1.2,0-2.6-0.5-4-1.4c-2.6,1.2-5.7,2-8.6,2H743
			c-0.5,0-1.2-0.3-1.4-0.9c-0.3-0.3-0.3-1.2-0.3-2v-0.3c0-0.9,0.3-1.4,0.3-2c0.3-0.3,0.9-0.9,1.4-0.9h5.4c-0.9-1.4-1.4-3.2-1.4-5.1
			c0-2.6,0.9-4.8,2.6-6.6c2-1.6,4-2.6,6.6-2.6s4.8,0.9,6.6,2.6c0.3,0.3,0.9,0.9,0.9,1.4c0.3,0.5,0.5,0.9,0.9,1.4
			c0.3,0.3,0.3,0.9,0.3,1.6c0,0.8,0.3,1.2,0.3,2c0,0.9,0,2-0.3,2.6c-0.3,0.9-0.5,1.6-0.9,2.6h3.7c0.3,0,0.3,0,0.5,0s0.3,0.3,0.3,0.3
			c0,0.3,0.3,0.3,0.3,0.3s0,0.3,0,0.5c0,0.3,0,0.3,0,0.3v0.3c0,0,0,0,0,0.3v0.3c0,0,0,0,0,0.3s0,0.3,0,0.3v0.3c0,0.3,0,0.3,0,0.3
			v0.3c0,0.3,0,0.3-0.3,0.3l-0.3,0.3l-0.3,0.3C767.4,188,767.1,188,767.1,188z M751.8,158.9l2-2c0.5-0.5,1.4-0.9,2,0l2.6,2.3
			c0.5,0.5,0.5,1.4,0,2l-2,2c-0.5,0.5-1.4,0.5-2,0l-2.3-2.6C751.3,160.4,751.3,159.6,751.8,158.9z M751.8,176.9
			c0,0.9,0.3,1.6,0.9,2.6c0.9,0.9,1.4,0.9,2.6,0.9s2-0.3,2.6-0.9c0.5-0.5,0.9-1.4,0.9-2.6c0-1.2-0.3-1.6-0.9-2.6
			c-0.3-0.3-0.5-0.5-0.9-0.9s-0.9-0.3-1.4-0.3c-0.3,0-0.9,0-1.4,0.3c-0.3,0.3-0.9,0.3-0.9,0.9l-0.3,0.3l-0.3,0.3c0,0,0,0.3-0.3,0.3
			v0.3v0.3C751.8,176.4,751.8,176.4,751.8,176.9z"/>
		<path class="st3" d="M788.2,183.7l-2,0.9c-3.7,2-7.4,2.8-11.6,2.8h-7.3c-0.5,0-1.2-0.3-1.4-0.9c-0.3-0.5-0.3-1.2-0.3-2v-0.3
			c0-0.9,0-1.4,0.3-2c0.3-0.9,0.9-0.9,1.6-0.9h7.1c1.6,0,3.2-0.3,4.8-0.3c1.4-0.3,2.8-0.9,4.2-1.4l5.4-2.6l-3.2-2
			c-2-0.9-3.7-1.6-5.7-1.6c-1.6,0-3.2,0.5-5.1,2l-1.6,1.4l-0.5,0.3l-0.3-0.5l-2.6-3.2l-0.5-0.5l0.5-0.3l1.4-1.2
			c2.6-2,5.4-3.5,8.2-3.7c2.6-0.3,5.7,0.3,8.6,2l4.2,2.6c0.3,0.3,0.9,0.3,1.4,0.9c0.3,0.3,0.9,0.3,1.4,0.3c0.3,0,0.9,0.3,1.2,0.3
			h0.5v0.5v4.2v0.3l-0.3,0.3l-2.6,1.4c0.9,0.3,2,0.9,3.2,0.9h2.8c0.3,0,0.5,0,0.9,0.3c0.3,0.3,0.3,0.3,0.3,0.5c0,0.4,0,0.5,0,0.9
			s0,0.3,0,0.9c0,0,0,0,0,0.3v0.3c0,0.5,0,1.4-0.3,1.6c-0.3,0.5-0.5,0.9-1.2,0.9h-2.6c-1.6,0-3.2-0.3-4.8-0.9
			C790.2,186.3,788.8,185.1,788.2,183.7z M777.1,158.5l2-2c0.5-0.5,1.4-0.9,2,0l2.6,2.3c0.5,0.5,0.5,1.4,0,2l-2,2
			c-0.5,0.5-1.4,0.5-2,0l-2.3-2.6C776.2,159.6,776.2,158.9,777.1,158.5z"/>
		<path class="st3" d="M799,188c-0.5,0-1.2-0.3-1.4-0.9c-0.3-0.3-0.3-1.2-0.3-2v-0.3c0-0.9,0.3-1.4,0.3-2c0.3-0.3,0.9-0.9,1.4-0.9
			h5.7c1.4,0,2.6-0.3,3.2-0.9c0.5-0.5,0.9-1.4,0.9-2.8v-6.9v-0.9h0.9h4h0.9v0.9v6.9c0,3.2-0.9,5.7-2.6,7.1c-1.6,1.5-4,2.6-7.1,2.6
			L799,188L799,188L799,188z M799.9,161.1l2-2c0.5-0.5,1.4-0.5,2,0l2.3,2.3c0.5,0.5,0.5,1.4,0,2l-2,2c-0.5,0.5-1.4,0.5-2,0l-2.3-2.3
			C799.3,162.3,799.3,161.9,799.9,161.1z M808.3,161.1l2-2c0.5-0.5,1.4-0.5,2,0l2.3,2.3c0.5,0.5,0.5,1.4,0,2l-2,2
			c-0.5,0.5-1.4,0.5-2,0l-2.6-2.3C807.9,162.3,807.9,161.9,808.3,161.1z"/>
		<path class="st3" d="M825.3,158.9c0-1.4,0.3-2.6,1.6-3.5c0.9-0.9,2.3-1.4,3.7-1.4s2.6,0.3,3.7,1.4c0.3,0.3,0.3,0.3,0.5,0.5
			c0.4,0.4,0.3,0.5,0.3,0.9c0.3,0.3,0.3,0.5,0.3,0.9c0.3,0.3,0.3,0.5,0.3,0.9c0,0.3,0,0.9-0.3,1.2c0,0.3-0.3,0.3-0.3,0.3
			c0,0.3-0.3,0.3-0.3,0.3c-0.3,0.3-0.3,0.3-0.3,0.3c-0.3,0.3-0.3,0.5-0.9,0.9c-0.9,0.9-2.3,1.4-3.7,1.4s-2.6-0.3-3.7-1.4
			c-0.3-0.3-0.9-0.9-1.2-1.6C825.3,160.4,825.3,159.9,825.3,158.9z M845.8,152.9l4.2,2.3l0.9,0.3l-19.3,33.8l-0.9-0.3l-4-2.3
			l-0.9-0.3l19.3-33.5C844.9,152.9,845.8,152.9,845.8,152.9z M841.7,180.9L841.7,180.9L841.7,180.9v-0.3v-0.3V180v-0.2
			c0-0.3,0-0.3,0.3-0.3c0-0.3,0-0.3,0-0.3v-0.3c0-0.3,0.3-0.3,0.3-0.3l0.3-0.3c0-0.3,0-0.3,0.3-0.3c0.3-0.3,0.3-0.3,0.3-0.3l0.3-0.3
			l0.3-0.3l0.3-0.3l0.3-0.3c0.3-0.3,0.3-0.3,0.3-0.3c0.9-0.9,2.3-1.4,3.7-1.4c0.3,0,0.9,0.3,1.2,0.3s0.3,0.3,0.5,0.3
			c0.3,0,0.3,0.3,0.3,0.3s0.3,0,0.3,0.3c0.3,0,0.3,0.3,0.3,0.3c0.3,0.3,0.5,0.3,0.9,0.9c0.9,0.9,1.6,2.3,1.6,3.5s-0.3,2.6-1.6,3.5
			c-0.3,0.3-0.9,0.9-1.6,0.9c-0.5,0.3-1.2,0.3-2,0.3c-1.4,0-2.6-0.3-3.7-1.4C842.6,183.5,841.7,182,841.7,180.9z"/>
	</g>
	<g>
		<path class="st3" d="M878.3,172.1c-1.3,0-2.4-0.1-3.6-0.4c-1.2-0.2-2.3-0.5-3.4-1.2c0.2,1.7,0.4,3.6,0.5,5.2
			c0.1,1.6,0.2,3.4,0.3,4.9c0.1,1.6,0.1,3.2,0.1,4.7s0,2.9,0,4.5h-7.7c0-3.5-0.1-6.9-0.2-10.1c-0.1-3.4-0.4-6.5-0.9-9.6
			c-0.5-3-1.1-6-1.8-8.7c-0.9-2.7-1.8-5.1-3.4-7.2l6.6-4.1c0.5,1,1.1,1.6,1.5,2.6c0.5,0.8,0.9,1.6,1.3,2.4c0.5-1,1.4-1.6,2.2-2.4
			c0.9-0.7,1.6-1.3,2.7-1.6c1-0.5,1.8-0.8,2.9-1c1.1-0.2,2.1-0.3,3.2-0.3c0.8,0,1.4,0.1,2.2,0.2c0.8,0.1,1.4,0.3,2.2,0.5
			c0.8,0.3,1.4,0.5,2.2,1.1c0.8,0.4,1.4,1,2.2,1.6l-4,6.4c0,0-0.2-0.1-0.5-0.3s-0.7-0.4-1.3-0.7c-0.5-0.2-1.2-0.5-1.8-0.7
			c-0.8-0.2-1.5-0.3-2.4-0.3c-0.8,0-1.4,0.1-2.2,0.4c-0.8,0.3-1.4,0.5-2,1.1c-0.5,0.4-1.1,0.9-1.4,1.4s-0.5,1-0.4,1.4l0,0
			c0.1,0.5,0.4,1,0.9,1.4s1.1,0.5,1.7,0.8c0.8,0.2,1.4,0.4,2.1,0.4c0.8,0.1,1.4,0.1,2,0.1s1.3,0,1.8-0.1c0.7-0.1,1.4-0.2,2.1-0.4
			c0.7-0.2,1.4-0.4,2.1-0.7c0.7-0.3,1.4-0.5,1.8-1l3.3,6.1c-2,1.4-3.9,2.5-5.9,2.9C881.8,171.9,879.9,172.1,878.3,172.1z"/>
		<path class="st3" d="M890.3,174.4c0-1.4,0.3-2.5,0.8-3.8c0.5-1.2,1.2-2.2,2-3c0.9-0.9,1.7-1.5,2.9-2s2.4-0.8,3.8-0.8
			s2.5,0.3,3.8,0.8c1.2,0.5,2.2,1.2,3,2c0.9,0.9,1.5,1.8,2,3c0.4,1.2,0.8,2.4,0.8,3.8s-0.3,2.6-0.8,3.8s-1.2,2.1-2,2.9
			c-0.9,0.9-1.8,1.5-3,2s-2.4,0.8-3.8,0.8s-2.6-0.3-3.8-0.8s-2.1-1.2-2.9-2c-0.9-0.9-1.5-1.7-2-2.9S890.3,175.8,890.3,174.4z
			 M896,174.4c0,0.5,0.1,1.1,0.3,1.4c0.2,0.5,0.5,0.9,0.8,1.3c0.4,0.4,0.8,0.5,1.3,0.8c0.5,0.2,1,0.3,1.4,0.3c0.5,0,1.1-0.1,1.4-0.3
			c0.5-0.2,0.9-0.5,1.3-0.8c0.4-0.4,0.5-0.8,0.9-1.3c0.2-0.5,0.3-1,0.3-1.4s-0.1-1.1-0.3-1.4c-0.2-0.5-0.5-0.9-0.9-1.3
			c-0.4-0.4-0.8-0.5-1.3-0.9c-0.5-0.2-1-0.3-1.4-0.3c-0.5,0-1.1,0.1-1.4,0.3c-0.5,0.2-0.9,0.5-1.3,0.9c-0.4,0.4-0.5,0.8-0.8,1.3
			S896,174,896,174.4z"/>
	</g>
</g>
<g>
	<g>
		<g>
			<path class="st4" d="M599.5,227.8H340.1c-8.6,0-15.7-7-15.7-15.7v-79.7c0-8.6,7-15.7,15.7-15.7h259.4c8.6,0,15.7,7,15.7,15.7
				v79.7C615.2,220.8,608.2,227.8,599.5,227.8z"/>
			<path class="st2" d="M599.5,229.4H340.1c-9.5,0-17.2-7.8-17.2-17.2v-79.7c0-9.5,7.8-17.2,17.2-17.2h259.4
				c9.5,0,17.3,7.8,17.3,17.2v79.7C616.7,221.8,609.2,229.4,599.5,229.4z M340.1,118.4c-7.8,0-14.1,6.3-14.1,14.1v79.7
				c0,7.8,6.3,14.1,14.1,14.1h259.4c7.8,0,14.1-6.2,14.1-14.1v-79.7c0-7.8-6.3-14.1-14.1-14.1H340.1z"/>
		</g>
		<g>
			<path class="st2" d="M378.9,186.5h-0.4c-3.6,0-6.6-1.5-9.6-4.5c-1.8,2.8-5.9,4.5-11.7,4.5H346h-1v-0.9v-5.4v-1h1h11
				c0.1,0,0.3,0,0.5,0c0.1,0,0.3,0,0.4,0c1.2,0,2-0.1,2.8-0.3c0.7-0.1,1.5-0.3,1.6-0.5c0.4-0.3,0.7-0.5,0.9-0.9
				c0.1-0.3,0.3-0.5,0.3-1s-0.3-1.4-0.7-2c-0.3-0.4-0.5-0.9-0.9-1.5c-0.4-0.4-0.7-1-1.4-1.5l-8.1-9.5l-0.5-0.7l0.5-0.7l3.7-4
				l0.9-0.9l0.7,1l16.1,19.3c1.6,2.1,3.5,3,4.8,3h0.3c0.4,0,0.7,0.1,1,0.3c0.3,0.1,0.4,0.5,0.5,0.9s0.1,0.7,0.1,1s0,0.5,0,1.2
				c0,0.1,0,0.1,0,0.1v0.3c0,1,0,1.6-0.1,2.2c0,0.3-0.1,0.4-0.3,0.5c-0.1,0.1-0.3,0.3-0.4,0.5C379.4,186.4,379.2,186.5,378.9,186.5z
				"/>
			<path class="st2" d="M404.5,186.5h-0.7c-4.1,0-7.2-1.2-9.1-3.5c-2.2,2.2-5.9,3.5-10.7,3.5h-5.4c-0.9,0-1.5-0.3-2-1
				c-0.4-0.7-0.7-1.5-0.7-2.5v-0.2c0-1,0.1-1.8,0.5-2.4c0.4-0.7,1.2-1.2,2.1-1.2h5.5c1.5,0,2.8-0.1,3.9-0.5s1.6-0.9,2.1-1.5
				c0.4-0.7,0.7-1.5,0.7-2.6v-7.7v-1.1h1h5.2h1v1v7.7c0,1.6,0.4,2.8,1.4,3.7c0.9,0.7,2.4,1.2,4.5,1.2h0.7c0.4,0,0.7,0.1,1,0.3
				c0.3,0.1,0.4,0.5,0.5,0.9s0.1,0.7,0.1,1s0,0.5,0,1.2c0,0.1,0,0.1,0,0.1v0.3c0,0,0,0.1,0,0.3c0,0.3,0,0.4,0,0.5s0,0.3,0,0.5
				c0,0.3,0,0.4-0.1,0.7c0,0.1-0.1,0.4-0.1,0.5c-0.1,0.1-0.1,0.4-0.3,0.4c-0.1,0.1-0.3,0.3-0.4,0.3
				C405.1,186.5,404.6,186.5,404.5,186.5z M378.8,195.4l2.6-2.6c0.9-0.9,1.6-1,2.4-0.1l2.8,2.8c0.9,0.9,0.9,1.6,0,2.5l-2.6,2.6
				c-0.9,0.9-1.6,0.9-2.5,0l-2.8-2.8C377.9,196.9,377.9,196,378.8,195.4z M389.4,195.4l2.6-2.6c0.9-0.9,1.6-1,2.5-0.1l2.8,2.8
				c0.9,0.9,0.9,1.6,0,2.5l-2.6,2.6c-0.9,0.9-1.6,0.9-2.5,0l-2.9-2.8C388.5,196.9,388.5,196,389.4,195.4z"/>
			<path class="st2" d="M429.2,186.5h-0.5c-4.1,0-7.2-1.2-9.1-3.5c-2.4,2.2-5.9,3.5-10.7,3.5h-4.6c-0.9,0-1.5-0.3-2-1
				c-0.4-0.7-0.7-1.5-0.7-2.5v-0.2c0-1,0.1-1.8,0.5-2.4c0.4-0.7,1.2-1.2,2.1-1.2h4.7c2.4,0,4-0.4,5-1.2c1-0.7,1.5-2,1.5-3.6v-7.7v-1
				h1h5.2h1v1v7.7c0,1.6,0.4,2.8,1.4,3.7c0.9,0.7,2.4,1.2,4.5,1.2h0.7c0.4,0,0.7,0.1,1,0.3c0.3,0.1,0.4,0.5,0.5,0.9s0.1,0.7,0.1,1
				s0,0.5,0,1.2c0,0.1,0,0.1,0,0.1v0.3c0,0,0,0.1,0,0.3c0,0.1,0,0.3,0,0.4c0,0.1,0,0.3,0,0.4s0,0.4,0,0.5s0,0.3-0.1,0.4
				c0,0.1-0.1,0.3-0.1,0.4c0,0.1-0.1,0.3-0.1,0.4c-0.1,0.1-0.1,0.3-0.3,0.3c-0.1,0.1-0.3,0.1-0.4,0.1
				C429.5,186.5,429.3,186.5,429.2,186.5z M412.4,153.2l2.6-2.6c1-1,1.8-1,2.6-0.1l2.9,2.8c0.9,0.9,0.9,1.8-0.1,2.6l-2.6,2.6
				c-0.9,0.9-1.8,0.9-2.6,0l-2.8-2.9C411.6,154.9,411.6,154,412.4,153.2z"/>
			<path class="st2" d="M428.9,186.5c-0.9,0-1.5-0.3-2-1c-0.4-0.7-0.7-1.5-0.7-2.5v-0.2c0-1,0.1-1.8,0.5-2.4
				c0.4-0.7,1.2-1.2,2.1-1.2h9.8c2.2,0,4-0.3,4.9-0.7c1-0.5,1.5-1.4,1.5-2.1c0-0.1,0-0.3-0.1-0.5c-0.1-0.3-0.3-0.5-0.5-1
				c-0.3-0.4-0.5-0.9-1-1.5c-0.4-0.5-0.9-1.2-1.5-1.6l-9.7-11c-1.2-1.4-1.6-2.8-1.6-4.8c0-0.7,0.1-1.4,0.3-2
				c0.1-0.5,0.4-1.2,0.9-1.5c0.4-0.4,0.9-0.9,1.4-1.4c0.5-0.4,1.2-0.7,1.6-0.9l18.6-6.1l1.5-0.4v1.5v5.4v0.7l-0.7,0.3l-15.4,5
				l8.2,9.6c3.5,4,5.2,7.6,5.2,10.6c0,3.5-1.2,6-3.5,7.7c-2.2,1.6-5.7,2.5-10.1,2.5h-9.8v-0.3h-0.1L428.9,186.5L428.9,186.5z"/>
			<path class="st2" d="M499.5,186.5h-21.6c-4.6,0-8.1-1.4-10.4-3.7c-2.4-2.4-3.6-6-3.6-10.7v-6v-1h1h5.2h1v1v6c0,2.2,0.5,4,1.6,5
				c0.5,0.5,1.4,1,2,1.4c0.9,0.3,1.8,0.4,2.9,0.4h21.5c2.2,0,4-0.3,4.9-0.9c0.9-0.5,1.5-1.4,1.5-2.2c0-0.3-0.3-0.9-0.7-1.6
				c-0.5-0.9-1.4-1.8-2.2-2.9l-9.7-11c-0.5-0.5-1-1.5-1.4-2.1c-0.3-0.9-0.4-1.6-0.4-2.5c0-1,0.1-1.8,0.5-2.5c0.3-0.7,0.9-1.5,1.5-2
				c0.7-0.5,1.5-1,2.2-1.4l18.6-6.1l1.5-0.4v1.5v5.4v0.7l-0.7,0.1l-15.7,5l16.1,18.5c2.4,2.8,4.6,4.2,6.2,4.2h0.7
				c0.4,0,0.7,0.1,1,0.3c0.3,0.1,0.4,0.5,0.5,1c0.1,0.4,0.1,0.7,0.1,1s0,0.5,0,1c0,0.1,0,0.1,0,0.1v0.3c0,0,0,0.1,0,0.3
				c0,0.3,0,0.5,0,0.7c0,0.1,0,0.4,0,0.7s0,0.5-0.1,0.7c-0.1,0.1-0.1,0.4-0.3,0.5c-0.1,0.1-0.3,0.3-0.4,0.4
				c-0.1,0.1-0.4,0.1-0.7,0.1h-0.4c-4,0-7.5-1.6-10.2-5c-0.3,0.5-0.5,1-1,1.5c-0.4,0.4-0.9,0.9-1.4,1.2c-0.4,0.3-1,0.7-1.5,1
				c-0.7,0.3-1.2,0.5-1.6,0.7c-0.5,0.1-1.4,0.4-2,0.5c-0.7,0.1-1.5,0.3-2.2,0.3C501.1,186.5,500.4,186.5,499.5,186.5z"/>
			<path class="st2" d="M548,186.5h-0.5c-4.1,0-7.2-1.2-9.1-3.5c-2.2,2.2-5.9,3.5-10.7,3.5h-5.4c-0.9,0-1.5-0.3-2-1
				s-0.7-1.5-0.7-2.5v-0.2c0-1,0.1-1.8,0.5-2.4c0.4-0.7,1.2-1.2,2.1-1.2h5.5c1.5,0,2.8-0.1,3.9-0.5c1-0.4,1.6-0.9,2.1-1.5
				c0.4-0.7,0.7-1.5,0.7-2.6v-7.7v-1.1h1h5.2h1v1v7.7c0,1.6,0.4,2.8,1.4,3.7c0.9,0.7,2.4,1.2,4.5,1.2h0.7c0.4,0,0.7,0.1,1,0.3
				c0.3,0.1,0.4,0.5,0.5,0.9s0.1,0.7,0.1,1s0,0.5,0,1.2c0,0.1,0,0.1,0,0.1v0.3c0,0,0,0.1,0,0.3c0,0.3,0,0.4,0,0.5s0,0.3,0,0.5
				c0,0.3,0,0.4-0.1,0.7c0,0.1-0.1,0.4-0.1,0.5c-0.1,0.1-0.1,0.4-0.3,0.4c-0.1,0.1-0.3,0.3-0.4,0.3
				C548.5,186.5,548.3,186.5,548,186.5z M522.3,195.4l2.6-2.6c0.9-0.9,1.6-1,2.4-0.1l2.8,2.8c0.9,0.9,0.9,1.6,0,2.5l-2.6,2.6
				c-0.9,0.9-1.6,0.9-2.5,0l-2.8-2.8C521.4,196.9,521.4,196,522.3,195.4z M532.8,195.4l2.6-2.6c0.9-0.9,1.6-1,2.5-0.1l2.8,2.8
				c0.9,0.9,0.9,1.6,0,2.5l-2.6,2.6c-0.9,0.9-1.6,0.9-2.5,0l-2.9-2.8C531.9,196.9,531.9,196,532.8,195.4z"/>
			<path class="st2" d="M568.9,186.5h-1.5c-3.5,0-6.2-1.2-8.5-3.5c-2.1,2.2-4.9,3.5-8.4,3.5h-2.9c-0.9,0-1.5-0.3-2-1
				c-0.4-0.7-0.5-1.5-0.5-2.5v-0.2c0-1,0.1-1.8,0.5-2.4c0.4-0.7,1.2-1.2,2.1-1.2h2.8c0.9,0,1.6-0.1,2.2-0.3c0.5-0.1,1.2-0.4,1.5-0.9
				s0.7-0.9,0.9-1.5c0.1-0.5,0.3-1.4,0.3-2v-26.7v-1.1h1h4.9h1v1v26.8c0,1.5,0.4,2.6,1.4,3.5c0.9,0.7,2.1,1.2,4.1,1.2h1.2
				c0.4,0,0.7,0.1,1,0.3c0.3,0.3,0.4,0.5,0.5,1c0.1,0.4,0.1,0.7,0.1,1s0,0.5,0,1.2c0,0.1,0,0.1,0,0.1v0.3v0.1c0,0.3,0,0.5,0,0.7
				s0,0.4,0,0.7s0,0.5-0.1,0.7c-0.1,0.1-0.1,0.4-0.3,0.5c-0.1,0.1-0.3,0.3-0.5,0.4C569.5,186.5,569.2,186.5,568.9,186.5z"/>
			<path class="st2" d="M568.5,186.5c-0.9,0-1.5-0.3-2-1c-0.4-0.7-0.7-1.5-0.7-2.5v-0.2c0-1,0.1-1.8,0.5-2.4
				c0.4-0.7,1.2-1.2,2.1-1.2h9.8c2.2,0,4-0.3,4.9-0.7c1-0.5,1.5-1.4,1.5-2.1c0-0.1,0-0.3-0.1-0.5c-0.1-0.3-0.3-0.5-0.5-1
				c-0.3-0.4-0.5-0.9-1-1.5c-0.4-0.5-0.9-1.2-1.5-1.6l-9.7-11c-1.2-1.4-1.6-2.8-1.6-4.8c0-0.7,0.1-1.4,0.3-2
				c0.1-0.5,0.4-1.2,0.9-1.5c0.4-0.4,0.9-0.9,1.4-1.4c0.5-0.4,1.2-0.7,1.6-0.9l18.6-6.1l1.5-0.4v1.5v5.4v0.7l-0.7,0.3l-15.4,5
				l8.2,9.6c3.5,4,5.2,7.6,5.2,10.6c0,3.5-1.2,6-3.5,7.7c-2.2,1.6-5.7,2.5-10.1,2.5h-9.7v-0.3h-0.2v-0.2L568.5,186.5L568.5,186.5z"
				/>
		</g>
	</g>
	<g>
		<path class="st5" d="M296.1,227h-95.6c-7.9,0-14.4-6.4-14.4-14.4v-81.2c0-7.9,6.4-14.4,14.4-14.4h95.6c7.9,0,14.4,6.4,14.4,14.4
			v81.2C310.4,220.6,304,227,296.1,227z"/>
		<path class="st2" d="M296.1,228.8h-95.6c-8.8,0-16-7.6-16-17.1v-79.3c0-9.4,7.2-17.1,16-17.1h95.6c8.8,0,16,7.6,16,17.1v79.3
			C312.1,221.2,304.9,228.8,296.1,228.8z M200.4,118.9c-7.1,0-12.7,6.1-12.7,13.6v79.2c0,7.5,5.8,13.6,12.7,13.6H296
			c7.1,0,12.7-6.1,12.7-13.6v-79.3c0-7.5-5.8-13.6-12.7-13.6L200.4,118.9L200.4,118.9z"/>
	</g>
	<g>
		<g>
			<path class="st2" d="M225,200.2c0.7,1.1,1.2,2.1,1.6,3.3c0.3,0.7,0.5,2,2.1,2c0.4,0,1.1-0.1,1.7-0.4c0.7-0.3,1.2-0.9,1.4-1.6
				l0.7-2.1l1.5-0.8l0.1,0.1c-0.2,0.8-0.2,1.5-0.2,2.2c0,1.7,1.5,2.4,2.7,2.4c0.7,0,1.3-0.3,1.3-1c0-0.9-0.3-2.3-0.8-3.5
				c0.7-0.7,1.4-1.4,2.2-2v-0.1c0.3,1.5,0.5,2.9,0.5,3.9s-0.4,2.1-0.8,2.7c-0.8,1.4-2.1,2.5-3.6,2.5c-1.2,0-2.5-0.7-3.4-1.7l0,0
				c-0.9,1.1-2.2,2-4.2,2h-0.7c-0.1,1.4-0.4,2.4-0.9,3.3c-1.3,2.5-5,4.2-8.5,4.2c-4.9,0-7.3-2.8-7.3-6.5c0-2.3,0.8-4.5,2-6l1,0.4
				c-0.8,1.4-1.2,2.7-1.2,4c0,3.5,2.8,5.2,6.1,5.2c3,0,6.9-2,7.5-4.2c-0.2-2.5-1.2-3.6-2.6-5.9c0.4-0.8,1-1.5,1.6-2.3l0,0v-0.1
				L225,200.2L225,200.2z"/>
			<path class="st2" d="M243.2,197.6l1.7,2.9c0.7,1.1,1.3,2.2,1.3,4v2.4c0,2-1.2,3.9-3.2,6c-1.5,1.4-2.9,2-4.1,2
				c-1.8,0-4-0.5-6.5-1.6l0.3-0.8c0.8,0.2,1.7,0.4,2.8,0.4c3.6,0,7.2-2.6,8.8-5.8c0.2-0.3,0.3-0.7,0.3-1s-0.2-0.8-0.3-1.1
				c-0.9-1.7-2-3.3-3-4.7c0.5-0.9,1.2-1.8,1.7-2.7L243.2,197.6z"/>
			<path class="st2" d="M248.4,202.8c0.1,1.8,1,3.3,4.1,3.3c2,0,3.6-0.5,5.4-1.4c0.3-0.1,0.5-0.3,0.5-0.5c0-1.2-0.9-2.7-2.4-4
				c-1.4-1.3-3.4-2.5-5.1-3.3c-0.7-0.2-0.8-0.5-0.8-0.8c0-0.5,0.7-1.6,1.3-2.4h0.2c2.1,1.1,4.4,2.6,6,4.5c1.5,1.6,2.5,3.3,2.5,5.1
				c0,1.3-0.4,2.6-1.1,3.7c-2.3,1.1-4.7,2-7,2c-2.8,0-4.8-1.3-4.8-4.6c0-0.3,0-0.9,0.1-1.5L248.4,202.8L248.4,202.8z"/>
			<path class="st2" d="M263.4,209c0.2-1.3,0.3-2.8,0.3-4.2v-2.1c0-3.9-0.5-9.6-0.9-13.3c0.7-0.8,1.7-1.6,2.5-2.3l0.2,0.1
				c0.5,4.7,0.7,10.1,0.7,15.1c0,1.3,0,2.6-0.2,3.5c-0.1,1.2-0.8,2.1-2.2,3.5L263.4,209z"/>
			<path class="st2" d="M269.9,201.3c1.4,2.9,2.7,4.7,5.7,4.7h0.4v2.7h-0.5c-1.1,0-2-0.2-2.5-0.7h-0.1c0,0.2,0,0.5,0,0.8
				c0,1-0.3,2.3-1,3.4c-2,2.9-4.1,4.2-6,4.2s-4.2-0.8-6.3-1.6l0.3-0.8c0.7,0.3,1.6,0.4,2.9,0.4c3.4,0,7.8-3.3,8.4-6.4
				c-0.1-0.2-0.3-0.7-0.7-1c-1-1.2-1.6-2.2-2.2-3.2c0.5-1,1-1.7,1.4-2.5L269.9,201.3z"/>
			<path class="st2" d="M281.3,186.9c1,0.7,2.1,1.4,3,2.3c-0.5,0.8-1.2,1.5-2.1,2.1c-1-0.8-2-1.5-2.9-2.2
				C280,188.3,280.6,187.7,281.3,186.9z M281.8,196.6c-1.6,0-3,1.1-3,2c0,1.7,3.4,2.3,7.3,2.3C285.6,198.7,283.9,196.6,281.8,196.6z
				 M278.1,205.8c2.2,0,4-0.1,5.4-0.4c1.6-0.4,2.9-1.2,2.9-1.7c0-0.1,0-0.3,0-0.4c-0.9,0.1-2,0.1-2.8,0.1c-2.9,0-5.1-0.7-6.1-2.3
				c-0.2-0.4-0.3-1-0.3-1.5c0-1.6,0.7-3.2,1.8-4.2c1-0.9,2.1-1.4,3.3-1.4c2.1,0,3.7,1.6,4.8,4.2c0.7,1.4,1.1,3,1.1,5.1
				c0,1.4-0.3,2.5-1.2,3.4c-1.6,1.5-4.5,2.1-9,2.1h-2.1c-1.4,0-1.7-0.9-1.7-1.4s0.4-1.3,1.7-1.3h2.2
				C278.1,205.9,278.1,205.8,278.1,205.8z"/>
		</g>
		<g>
			<path class="st2" d="M248.9,172.4c0-0.5-0.5-1.3-1.3-1.8c-1.4-1-2.8-1.8-4.2-2.7c-0.8-0.4-1.3-0.3-1.4,0.1c-0.1,1-0.1,2-0.2,2.9
				c0,0.5,0.5,1.3,1.3,1.7c1.5,0.9,2.9,1.7,4.4,2.7c0.8,0.5,1.3,0.5,1.3,0C248.9,174.5,248.9,173.5,248.9,172.4z"/>
			<path class="st2" d="M240.6,173c0-0.5-0.5-1.3-1.3-1.6c-1.5-0.8-3-1.5-4.6-2.2c-0.8-0.3-1.5-0.2-1.5,0.3c-0.1,1-0.2,2-0.3,2.9
				c-0.1,0.5,0.5,1.2,1.4,1.5c1.6,0.7,3.2,1.4,4.8,2.3c0.8,0.4,1.5,0.3,1.5-0.2C240.5,174.9,240.6,174,240.6,173z"/>
			<path class="st2" d="M248.7,178c0-0.5-0.5-1.3-1.3-1.8c-1.4-1-2.9-1.8-4.4-2.7c-0.8-0.4-1.4-0.3-1.4,0.1c-0.1,1-0.1,2-0.2,2.9
				c0,0.5,0.5,1.3,1.4,1.7c1.5,0.9,3,1.7,4.6,2.7c0.8,0.5,1.4,0.5,1.4,0C248.7,179.9,248.7,179,248.7,178z"/>
			<path class="st2" d="M256.8,168c0-0.5-0.7-0.5-1.4-0.1c-1.4,0.9-2.8,1.7-4.2,2.7c-0.7,0.5-1.3,1.3-1.3,1.8c0,1,0,2,0,2.9
				c0,0.5,0.5,0.5,1.3,0c1.4-1,2.9-1.8,4.4-2.7c0.8-0.4,1.3-1.2,1.3-1.7C256.9,170,256.8,169.1,256.8,168z"/>
			<path class="st2" d="M257.1,173.5c0-0.5-0.7-0.5-1.4-0.1c-1.5,0.9-2.9,1.7-4.4,2.7c-0.8,0.5-1.3,1.3-1.3,1.8c0,1,0,2,0,2.9
				c0,0.5,0.7,0.5,1.4,0c1.5-1,3-1.8,4.6-2.7c0.8-0.4,1.4-1.2,1.4-1.7C257.2,175.5,257.1,174.5,257.1,173.5z"/>
			<path class="st2" d="M265.6,169.4c-0.1-0.5-0.8-0.7-1.5-0.3c-1.5,0.7-3,1.4-4.6,2.2c-0.8,0.4-1.4,1.2-1.3,1.6
				c0.1,1,0.1,2,0.2,2.9c0,0.5,0.7,0.5,1.5,0.2c1.5-0.8,3.2-1.5,4.8-2.3c0.9-0.3,1.4-1.1,1.4-1.5
				C265.8,171.3,265.7,170.4,265.6,169.4z"/>
			<path class="st6" d="M288.5,151.9c-0.2-0.4-0.9-0.9-1.6-0.8c-1.4,0.1-2.9,0.3-4.4,0.5c-0.8,0.1-1.2,0.7-1.1,1.1
				c0.2,1,0.5,2,0.8,2.8c0.1,0.5,0.9,0.8,1.6,0.7c1.5-0.2,3-0.4,4.6-0.7c0.8-0.1,1.3-0.5,1.1-1C289.1,153.8,288.8,152.9,288.5,151.9
				z M242.4,145.5c0-0.5-0.4-1.3-1.1-1.6c-1.2-0.8-2.4-1.5-3.6-2.2c-0.7-0.3-1.2-0.2-1.2,0.3c-0.1,1-0.2,2-0.3,2.9
				c-0.1,0.5,0.4,1.2,1.1,1.5c1.3,0.7,2.5,1.4,3.8,2.2c0.7,0.4,1.2,0.3,1.2-0.2C242.2,147.4,242.3,146.4,242.4,145.5z M215.9,158.2
				c0.1-0.5-0.4-1-1.2-1.2c-1.5-0.2-3-0.4-4.6-0.7c-0.8-0.1-1.5,0.2-1.7,0.8c-0.3,1-0.7,1.8-1,2.8c-0.2,0.4,0.3,1,1.2,1
				c1.5,0.2,3.2,0.4,4.7,0.7c0.8,0.1,1.5-0.1,1.7-0.7C215.3,160.1,215.7,159.2,215.9,158.2z M217.4,152.9c0.1-0.5-0.3-1-1.1-1.1
				c-1.4-0.2-2.9-0.4-4.4-0.5c-0.8-0.1-1.5,0.3-1.6,0.8c-0.3,1-0.7,1.8-1,2.8c-0.2,0.4,0.3,0.9,1.1,1c1.5,0.1,3,0.3,4.6,0.7
				c0.8,0.1,1.5-0.1,1.6-0.7C216.9,154.8,217.1,153.8,217.4,152.9z M218.8,147.5c0.1-0.5-0.3-1-1-1.1c-1.4-0.2-2.7-0.4-4.1-0.5
				c-0.7-0.1-1.4,0.3-1.6,0.8c-0.3,1-0.7,1.8-1,2.8c-0.2,0.4,0.3,0.9,1,1c1.4,0.1,2.9,0.3,4.4,0.5c0.8,0.1,1.4-0.1,1.6-0.7
				C218.4,149.5,218.6,148.5,218.8,147.5z M220.4,142.2c0.1-0.4-0.3-1-1-1.1c-1.3-0.2-2.6-0.3-3.9-0.4c-0.7,0-1.3,0.3-1.5,0.8
				c-0.3,1-0.7,1.8-1,2.8c-0.2,0.4,0.2,0.9,1,1c1.4,0.1,2.7,0.3,4.1,0.5c0.7,0.1,1.4-0.2,1.5-0.7
				C219.8,144.1,220.1,143.2,220.4,142.2z M221.9,136.9c0.1-0.5-0.2-1-0.9-1.1c-1.3-0.2-2.5-0.3-3.8-0.4c-0.7,0-1.3,0.3-1.4,0.8
				c-0.3,1-0.7,1.8-1,2.8c-0.2,0.4,0.2,0.9,0.9,1c1.3,0.1,2.6,0.2,3.9,0.4c0.7,0.1,1.3-0.2,1.4-0.7
				C221.3,138.8,221.5,137.8,221.9,136.9z M228.8,138.7c0.1-0.5-0.3-1.1-1-1.3c-1.2-0.4-2.5-0.8-3.7-1c-0.7-0.1-1.3,0.1-1.4,0.7
				c-0.2,1-0.5,2-0.8,2.8c-0.1,0.5,0.3,1,1,1.2c1.3,0.3,2.6,0.7,3.9,1.1c0.7,0.2,1.3,0,1.4-0.5C228.4,140.7,228.6,139.7,228.8,138.7
				z M226.6,149.5c0.1-0.5-0.4-1.1-1.1-1.3c-1.4-0.4-2.7-0.8-4.1-1.1c-0.7-0.1-1.4,0.1-1.5,0.7c-0.2,1-0.5,2-0.8,2.8
				c-0.1,0.5,0.3,1,1.1,1.2c1.4,0.3,2.8,0.8,4.4,1.1c0.8,0.2,1.4,0,1.5-0.5C226.2,151.4,226.4,150.5,226.6,149.5z M234.2,152.5
				c0.1-0.5-0.4-1.2-1.1-1.5c-1.3-0.5-2.7-1.1-4.1-1.6c-0.7-0.2-1.3,0-1.4,0.4c-0.2,1-0.3,2-0.5,2.9c-0.1,0.5,0.4,1.1,1.2,1.3
				c1.4,0.5,2.8,1.1,4.2,1.6c0.8,0.3,1.4,0.1,1.4-0.3C234,154.5,234.1,153.5,234.2,152.5z M235.7,141.5c0.1-0.5-0.4-1.2-1-1.4
				c-1.2-0.5-2.5-1.1-3.7-1.5c-0.7-0.2-1.2,0-1.3,0.4c-0.2,1-0.3,2-0.5,2.9c-0.1,0.5,0.3,1.1,1,1.3c1.3,0.4,2.6,1,3.8,1.6
				c0.7,0.3,1.2,0.1,1.3-0.3C235.4,143.5,235.6,142.5,235.7,141.5z M265,163.8c-0.1-0.5-0.8-0.7-1.5-0.3c-1.5,0.7-2.9,1.4-4.4,2.2
				c-0.8,0.4-1.3,1.2-1.3,1.6c0.1,1,0.1,2,0.2,2.9c0,0.5,0.7,0.5,1.4,0.2c1.5-0.8,3-1.5,4.6-2.2c0.8-0.3,1.4-1.1,1.3-1.5
				C265.2,165.8,265.1,164.8,265,163.8z M264.3,158.4c-0.1-0.5-0.7-0.7-1.4-0.3c-1.4,0.7-2.8,1.4-4.2,2.2c-0.8,0.4-1.3,1.2-1.2,1.6
				c0.1,1,0.1,2,0.2,2.9c0,0.5,0.7,0.5,1.4,0.2c1.4-0.8,2.9-1.5,4.4-2.2c0.8-0.3,1.3-1,1.2-1.5C264.5,160.4,264.4,159.4,264.3,158.4
				z M263.5,153c-0.1-0.5-0.7-0.7-1.3-0.3c-1.3,0.7-2.7,1.4-4,2.2c-0.7,0.4-1.2,1.1-1.2,1.6c0.1,1,0.1,2,0.2,2.9
				c0,0.5,0.7,0.5,1.3,0.2c1.4-0.8,2.8-1.5,4.1-2.2c0.8-0.3,1.2-1,1.2-1.5C263.9,154.9,263.8,153.9,263.5,153z M262.9,147.4
				c-0.1-0.5-0.7-0.7-1.3-0.3c-1.3,0.7-2.5,1.4-3.8,2.2c-0.7,0.4-1.1,1.1-1.1,1.6c0.1,1,0.1,2,0.2,2.9c0,0.5,0.7,0.5,1.3,0.2
				c1.3-0.8,2.6-1.5,4-2.2c0.7-0.3,1.2-1,1.1-1.5C263.1,149.4,263,148.4,262.9,147.4z M262.2,142c-0.1-0.5-0.7-0.7-1.2-0.3
				c-1.2,0.7-2.4,1.4-3.6,2.2c-0.7,0.4-1.1,1.1-1.1,1.6c0.1,1,0.1,2,0.2,2.9c0,0.5,0.5,0.5,1.2,0.2c1.3-0.8,2.5-1.5,3.8-2.2
				c0.7-0.3,1.1-1,1.1-1.5C262.5,143.9,262.3,143,262.2,142z M269.1,139c-0.1-0.5-0.7-0.8-1.3-0.4c-1.2,0.4-2.5,1-3.7,1.5
				c-0.7,0.3-1.1,1-1,1.4c0.1,1,0.2,2,0.4,2.9c0.1,0.5,0.7,0.7,1.3,0.3c1.3-0.5,2.6-1.1,3.8-1.6c0.7-0.2,1.1-0.9,1-1.3
				C269.4,140.9,269.3,139.9,269.1,139z M273.3,160.7c-0.1-0.5-0.8-0.7-1.5-0.4c-1.5,0.5-3,1.1-4.5,1.7c-0.8,0.3-1.3,1-1.3,1.5
				c0.1,1,0.2,2,0.4,2.9c0.1,0.5,0.8,0.7,1.5,0.3c1.5-0.7,3.2-1.2,4.7-1.7c0.8-0.2,1.4-0.9,1.3-1.4
				C273.7,162.6,273.6,161.7,273.3,160.7z M281.8,158.4c-0.1-0.5-0.9-0.8-1.6-0.5c-1.5,0.3-3,0.8-4.6,1.2c-0.8,0.2-1.3,0.9-1.2,1.3
				c0.2,1,0.4,2,0.5,2.9c0.1,0.5,0.9,0.7,1.6,0.4c1.5-0.4,3.2-0.9,4.7-1.2c0.8-0.2,1.3-0.8,1.2-1.2
				C282.3,160.4,282,159.4,281.8,158.4z M276.1,137.1c-0.1-0.5-0.8-0.8-1.4-0.7c-1.2,0.3-2.5,0.7-3.7,1c-0.7,0.2-1.1,0.8-1,1.3
				c0.2,1,0.4,2,0.5,2.9c0.1,0.5,0.8,0.8,1.4,0.5c1.3-0.4,2.6-0.8,3.9-1.1c0.7-0.1,1.1-0.7,1-1.2C276.5,139,276.3,138.1,276.1,137.1
				z M284.9,141.4c-0.2-0.4-0.9-0.9-1.5-0.8c-1.3,0.1-2.6,0.2-3.9,0.4c-0.7,0.1-1.1,0.7-1,1.1c0.2,1,0.5,2,0.8,2.8
				c0.1,0.5,0.9,0.8,1.5,0.7c1.4-0.2,2.7-0.4,4.1-0.5c0.7-0.1,1.1-0.4,1-1C285.5,143.3,285.2,142.4,284.9,141.4z M286.6,146.6
				c-0.2-0.4-0.9-0.9-1.6-0.8c-1.4,0.1-2.7,0.3-4.1,0.5c-0.7,0.1-1.2,0.7-1,1.1c0.2,1,0.5,2,0.8,2.8c0.1,0.5,0.9,0.8,1.6,0.7
				c1.4-0.2,2.9-0.4,4.4-0.5c0.8-0.1,1.2-0.5,1-1C287.3,148.6,286.9,147.6,286.6,146.6z"/>
			<path class="st2" d="M215.7,133.8c-0.2,0.4-0.9,0.9-1.4,0.9c-1.3,0-2.5,0.1-3.8,0.2c-0.7,0.1-1-0.2-0.8-0.7
				c0.3-0.9,0.8-1.8,1.1-2.7c0.2-0.4,0.9-1,1.5-1c1.2-0.1,2.4-0.2,3.6-0.3c0.7,0,1,0.3,0.8,0.9C216.3,132,216,132.8,215.7,133.8z"/>
			<path class="st2" d="M223.3,131.5c0.1-0.5-0.2-1-0.9-1.1c-1.2-0.2-2.4-0.3-3.6-0.3c-0.7,0-1.2,0.3-1.4,0.9c-0.3,1-0.7,1.8-1,2.8
				c-0.2,0.4,0.2,0.9,0.9,1c1.3,0.1,2.5,0.2,3.7,0.4c0.7,0.1,1.3-0.2,1.4-0.7C222.9,133.5,223.1,132.5,223.3,131.5z"/>
			<path class="st2" d="M229.9,133.3c0.1-0.5-0.3-1.1-0.9-1.3c-1.2-0.3-2.4-0.7-3.5-1c-0.7-0.1-1.2,0.2-1.3,0.7
				c-0.2,1-0.5,2-0.8,2.8c-0.1,0.5,0.3,1,0.9,1.1c1.2,0.3,2.5,0.7,3.7,1c0.7,0.2,1.2,0,1.3-0.5C229.5,135.2,229.7,134.2,229.9,133.3
				z"/>
			<path class="st2" d="M236.3,136c0.1-0.5-0.3-1.2-1-1.4c-1.2-0.5-2.3-1.1-3.5-1.5c-0.5-0.2-1.2,0-1.3,0.5c-0.2,1-0.3,2-0.5,2.9
				c-0.1,0.5,0.3,1.1,1,1.3c1.2,0.4,2.4,1,3.7,1.5c0.7,0.3,1.2,0.1,1.2-0.3C236.1,138.1,236.2,137.1,236.3,136z"/>
			<path class="st2" d="M242.8,139.9c0-0.5-0.4-1.2-1-1.6c-1.1-0.8-2.3-1.4-3.4-2.1c-0.5-0.3-1.1-0.2-1.2,0.3c-0.1,1-0.2,2-0.3,2.9
				c-0.1,0.5,0.4,1.2,1,1.5c1.2,0.7,2.4,1.4,3.6,2.2c0.7,0.4,1.1,0.3,1.2-0.2C242.7,141.9,242.7,140.9,242.8,139.9z"/>
			<path class="st2" d="M249,144.9c0-0.5-0.4-1.3-1-1.8c-1.1-1-2.2-1.8-3.3-2.7c-0.5-0.4-1.1-0.3-1.1,0.1c-0.1,1-0.1,2-0.2,2.9
				c0,0.5,0.4,1.3,1,1.7c1.2,0.9,2.3,1.7,3.5,2.7c0.5,0.5,1.1,0.5,1.1,0C249,146.9,249,145.9,249,144.9z"/>
			<path class="st2" d="M214.8,136.2c0.2-0.4-0.2-0.9-0.9-0.9c-1.3,0-2.5,0.1-3.8,0.2c-0.7,0.1-1.3,0.5-1.5,1
				c-0.3,0.9-0.8,1.8-1.1,2.7c-0.2,0.4,0.2,0.8,0.9,0.8c1.3-0.1,2.6-0.2,3.9-0.2c0.7,0,1.3-0.3,1.5-0.9
				C214.2,138.1,214.5,137.2,214.8,136.2z"/>
			<path class="st2" d="M249,150.3c0-0.5-0.4-1.3-1.1-1.8c-1.2-1-2.3-1.8-3.5-2.7c-0.7-0.4-1.1-0.3-1.1,0.1c-0.1,1-0.1,2-0.2,2.9
				c0,0.5,0.4,1.3,1.1,1.7c1.2,0.9,2.5,1.7,3.7,2.7c0.7,0.5,1.1,0.5,1.1,0C248.9,152.4,248.9,151.3,249,150.3z"/>
			<path class="st2" d="M213,141.4c0.2-0.4-0.2-0.9-0.9-0.9c-1.3,0-2.6,0-4,0.1c-0.7,0.1-1.4,0.5-1.5,1c-0.3,0.9-0.8,1.8-1.1,2.7
				c-0.2,0.4,0.2,0.8,0.9,0.8c1.4-0.1,2.7-0.1,4.1-0.1c0.7,0,1.4-0.3,1.6-0.9C212.3,143.3,212.6,142.3,213,141.4z"/>
			<path class="st2" d="M227.7,144.1c0.1-0.5-0.3-1.1-1-1.3c-1.3-0.4-2.6-0.8-3.9-1.1c-0.7-0.1-1.3,0.1-1.4,0.7
				c-0.2,1-0.5,2-0.8,2.8c-0.1,0.5,0.3,1,1,1.2c1.4,0.3,2.7,0.7,4.1,1.1c0.7,0.2,1.3,0,1.4-0.5C227.3,146,227.5,145,227.7,144.1z"/>
			<path class="st2" d="M234.9,147c0.1-0.5-0.4-1.2-1.1-1.4c-1.3-0.5-2.6-1.1-3.9-1.6c-0.7-0.2-1.3,0-1.4,0.4c-0.2,1-0.3,2-0.5,2.9
				c-0.1,0.5,0.4,1.1,1.1,1.3c1.4,0.5,2.7,1.1,4,1.6c0.7,0.3,1.3,0.1,1.4-0.3C234.7,148.9,234.8,148,234.9,147z"/>
			<path class="st2" d="M242,150.9c0-0.5-0.4-1.3-1.1-1.6c-1.3-0.8-2.5-1.5-3.8-2.2c-0.7-0.3-1.2-0.2-1.3,0.3c-0.1,1-0.2,2-0.3,2.9
				c-0.1,0.5,0.4,1.2,1.1,1.5c1.3,0.7,2.7,1.4,4,2.2c0.7,0.4,1.2,0.3,1.3-0.2C241.9,152.9,242,151.9,242,150.9z"/>
			<path class="st2" d="M248.9,155.9c0-0.5-0.5-1.3-1.1-1.8c-1.2-1-2.4-1.8-3.7-2.7c-0.7-0.4-1.2-0.3-1.2,0.1c-0.1,1-0.1,2-0.2,2.9
				c0,0.5,0.4,1.3,1.2,1.7c1.3,0.9,2.6,1.7,3.8,2.7c0.7,0.5,1.2,0.5,1.2,0C248.9,157.9,248.9,156.9,248.9,155.9z"/>
			<path class="st2" d="M211.1,146.6c0.2-0.4-0.2-0.9-1-0.9c-1.4,0-2.7,0-4.1,0.1c-0.7,0-1.4,0.4-1.6,1c-0.3,0.9-0.8,1.8-1.1,2.7
				c-0.2,0.4,0.2,0.8,1,0.8c1.4-0.1,2.8-0.1,4.2,0c0.8,0,1.4-0.3,1.6-0.8C210.5,148.5,210.8,147.5,211.1,146.6z"/>
			<path class="st2" d="M241.7,156.4c0-0.5-0.4-1.3-1.2-1.6c-1.3-0.8-2.6-1.5-4-2.2c-0.7-0.3-1.3-0.2-1.3,0.3c-0.1,1-0.2,2-0.3,2.9
				c-0.1,0.5,0.4,1.2,1.2,1.5c1.4,0.7,2.8,1.4,4.1,2.2c0.7,0.4,1.3,0.3,1.3-0.2C241.6,158.4,241.6,157.4,241.7,156.4z"/>
			<path class="st2" d="M248.9,161.4c0-0.5-0.5-1.3-1.2-1.8c-1.3-1-2.5-1.8-3.8-2.7c-0.7-0.4-1.2-0.3-1.3,0.1c-0.1,1-0.1,2-0.2,2.9
				c0,0.5,0.5,1.3,1.2,1.7c1.3,0.9,2.7,1.7,4,2.7c0.7,0.5,1.2,0.5,1.2,0C248.9,163.4,248.9,162.4,248.9,161.4z"/>
			<path class="st2" d="M209.3,151.9c0.2-0.4-0.3-0.9-1-1c-1.4,0-2.9,0-4.4,0c-0.8,0-1.5,0.4-1.6,1c-0.3,0.9-0.8,1.8-1.1,2.7
				c-0.2,0.4,0.2,0.8,1,0.8c1.5,0,2.9,0,4.5,0c0.8,0,1.5-0.3,1.7-0.8C208.6,153.7,208.9,152.7,209.3,151.9z"/>
			<path class="st2" d="M225.5,154.9c0.1-0.5-0.4-1.1-1.2-1.3c-1.4-0.4-2.9-0.8-4.4-1.1c-0.8-0.2-1.4,0.1-1.6,0.5
				c-0.2,1-0.5,2-0.8,2.8c-0.1,0.5,0.4,1,1.2,1.2c1.5,0.3,3,0.8,4.6,1.2c0.8,0.2,1.5,0,1.5-0.4C225.1,156.9,225.2,155.9,225.5,154.9
				z"/>
			<path class="st2" d="M233.5,158c0.1-0.5-0.4-1.2-1.2-1.5c-1.4-0.7-2.8-1.2-4.4-1.6c-0.8-0.2-1.4,0-1.5,0.4c-0.2,1-0.3,2-0.5,2.9
				c-0.1,0.5,0.4,1.1,1.2,1.4c1.5,0.5,3,1.1,4.5,1.7c0.8,0.3,1.4,0.2,1.5-0.3C233.2,159.9,233.4,158.9,233.5,158z"/>
			<path class="st2" d="M241.3,162c0-0.5-0.5-1.3-1.2-1.6c-1.4-0.8-2.8-1.5-4.2-2.2c-0.8-0.3-1.3-0.2-1.4,0.3c-0.1,1-0.2,2-0.3,2.9
				c-0.1,0.5,0.5,1.2,1.2,1.5c1.5,0.7,2.9,1.4,4.4,2.2c0.8,0.4,1.3,0.3,1.4-0.2C241.2,163.9,241.2,163,241.3,162z"/>
			<path class="st2" d="M248.9,167c0-0.5-0.5-1.3-1.2-1.8c-1.3-1-2.7-1.8-4-2.7c-0.7-0.4-1.3-0.3-1.3,0.1c-0.1,1-0.1,2-0.2,2.9
				c0,0.5,0.5,1.3,1.3,1.7c1.4,0.9,2.8,1.7,4.2,2.7c0.7,0.5,1.3,0.5,1.3,0C248.9,169,248.9,168,248.9,167z"/>
			<path class="st2" d="M207.5,157.1c0.2-0.4-0.3-0.9-1.1-1c-1.5-0.1-3-0.1-4.5,0c-0.8,0-1.5,0.4-1.7,0.9c-0.3,0.9-0.8,1.8-1.1,2.7
				c-0.2,0.4,0.3,0.9,1.1,0.8c1.5,0,3,0,4.7,0.1c0.8,0,1.5-0.3,1.7-0.8C206.9,158.9,207.2,158,207.5,157.1z"/>
			<path class="st2" d="M224.4,160.4c0.1-0.5-0.4-1.1-1.2-1.3c-1.5-0.4-3-0.9-4.6-1.2c-0.8-0.2-1.5,0.1-1.6,0.5
				c-0.2,1-0.5,2-0.8,2.8c-0.1,0.5,0.4,1,1.2,1.2c1.5,0.3,3.2,0.8,4.7,1.2c0.8,0.2,1.5,0,1.6-0.4
				C223.9,162.3,224.2,161.3,224.4,160.4z"/>
			<path class="st2" d="M232.8,163.4c0.1-0.5-0.5-1.2-1.3-1.5c-1.5-0.7-3-1.2-4.5-1.7c-0.8-0.2-1.5-0.1-1.5,0.4
				c-0.2,1-0.3,2-0.5,2.9c-0.1,0.5,0.4,1.1,1.3,1.4c1.5,0.5,3.2,1.1,4.7,1.7c0.8,0.3,1.5,0.2,1.5-0.3
				C232.5,165.4,232.6,164.4,232.8,163.4z"/>
			<path class="st2" d="M240.9,167.4c0-0.5-0.5-1.3-1.3-1.6c-1.4-0.8-2.9-1.5-4.4-2.2c-0.8-0.3-1.4-0.2-1.5,0.3
				c-0.1,1-0.2,2-0.3,2.9c-0.1,0.5,0.5,1.2,1.3,1.5c1.5,0.7,3,1.4,4.6,2.2c0.8,0.4,1.4,0.3,1.4-0.2
				C240.8,169.4,240.9,168.4,240.9,167.4z"/>
			<path class="st2" d="M205.7,162.2c0.2-0.4-0.3-0.9-1.1-1c-1.5-0.1-3.2-0.1-4.7-0.1c-0.8,0-1.5,0.4-1.7,0.9
				c-0.3,0.9-0.8,1.8-1.1,2.7c-0.2,0.4,0.3,0.9,1.1,0.9c1.6,0,3.2,0,4.8,0.1c0.9,0.1,1.6-0.2,1.8-0.8
				C205,164.2,205.3,163.2,205.7,162.2z"/>
			<path class="st2" d="M214.5,163.5c0.1-0.5-0.4-1-1.2-1.2c-1.6-0.3-3.2-0.5-4.8-0.7c-0.8-0.1-1.6,0.2-1.7,0.8
				c-0.3,1-0.7,1.8-1,2.8c-0.2,0.4,0.3,1,1.2,1.1c1.6,0.2,3.3,0.4,4.9,0.8c0.9,0.1,1.6-0.1,1.7-0.5
				C213.9,165.5,214.2,164.5,214.5,163.5z"/>
			<path class="st2" d="M223.3,165.8c0.1-0.5-0.4-1.1-1.3-1.3c-1.6-0.4-3.2-0.9-4.8-1.2c-0.8-0.2-1.5,0.1-1.7,0.5
				c-0.2,1-0.5,2-0.8,2.8c-0.1,0.5,0.4,1,1.3,1.2c1.6,0.3,3.3,0.8,4.9,1.3c0.9,0.2,1.6,0,1.7-0.4
				C222.9,167.6,223.1,166.7,223.3,165.8z"/>
			<path class="st2" d="M232,169c0.1-0.5-0.5-1.2-1.3-1.5c-1.5-0.7-3.2-1.2-4.7-1.7c-0.8-0.2-1.5-0.1-1.6,0.4c-0.2,1-0.3,2-0.5,2.9
				c-0.1,0.5,0.5,1.1,1.3,1.4c1.6,0.5,3.3,1.1,4.9,1.7c0.9,0.3,1.5,0.2,1.6-0.3C231.8,170.9,231.9,169.9,232,169z"/>
			<path class="st2" d="M255.4,143.4c0,0.5-0.4,1.3-1,1.7c-1.2,0.9-2.3,1.7-3.5,2.7c-0.5,0.5-1.1,0.5-1.1,0c0-1,0-2,0-2.9
				c0-0.5,0.4-1.3,1-1.8c1.1-1,2.2-1.8,3.3-2.7c0.5-0.4,1.1-0.3,1.1,0.1C255.3,141.4,255.3,142.4,255.4,143.4z"/>
			<path class="st2" d="M261.6,136.4c-0.1-0.5-0.5-0.7-1.2-0.3c-1.2,0.7-2.3,1.3-3.4,2.1c-0.5,0.4-1,1.1-1,1.6c0.1,1,0.1,2,0.2,2.9
				c0,0.5,0.5,0.5,1.2,0.2c1.2-0.8,2.4-1.5,3.6-2.2c0.7-0.3,1.1-1,1-1.5C261.8,138.4,261.7,137.4,261.6,136.4z"/>
			<path class="st2" d="M268,133.6c-0.1-0.5-0.7-0.8-1.3-0.5c-1.2,0.4-2.3,1-3.5,1.5c-0.5,0.3-1,1-1,1.4c0.1,1,0.2,2,0.4,2.9
				c0.1,0.5,0.7,0.7,1.2,0.3c1.2-0.5,2.4-1.1,3.7-1.5c0.7-0.2,1.1-0.9,1-1.3C268.4,135.6,268.2,134.6,268,133.6z"/>
			<path class="st2" d="M274.6,131.7c-0.1-0.5-0.8-0.8-1.3-0.7c-1.2,0.2-2.4,0.5-3.5,1c-0.5,0.2-1,0.8-0.9,1.3c0.2,1,0.4,2,0.5,2.9
				c0.1,0.5,0.7,0.8,1.3,0.5c1.2-0.4,2.5-0.8,3.7-1c0.7-0.1,1.1-0.7,0.9-1.1C275.1,133.6,274.9,132.7,274.6,131.7z"/>
			<path class="st2" d="M281.3,131c-0.2-0.4-0.8-0.9-1.4-0.9c-1.2,0.1-2.4,0.2-3.6,0.3c-0.7,0.1-1,0.5-0.9,1.1c0.2,1,0.5,2,0.8,2.8
				c0.1,0.5,0.8,0.8,1.4,0.7c1.2-0.2,2.5-0.3,3.7-0.4c0.7,0,1-0.4,0.9-1C281.9,132.8,281.6,132,281.3,131z"/>
			<path class="st2" d="M288,131.4c-0.2-0.4-0.9-1-1.5-1c-1.2-0.1-2.4-0.2-3.6-0.3c-0.7,0-1,0.3-0.8,0.9c0.3,1,0.7,1.8,1,2.8
				c0.2,0.4,0.9,0.9,1.4,0.9c1.3,0,2.5,0.1,3.8,0.2c0.7,0.1,1-0.2,0.8-0.7C288.8,133.3,288.3,132.4,288,131.4z"/>
			<path class="st2" d="M255.5,146c0-0.5-0.5-0.5-1.1-0.1c-1.2,0.9-2.4,1.7-3.5,2.7c-0.5,0.5-1.1,1.3-1.1,1.8c0,1,0,2,0,2.9
				c0,0.5,0.5,0.5,1.1,0c1.2-1,2.4-1.8,3.7-2.7c0.7-0.4,1.1-1.2,1.1-1.7C255.6,148,255.6,147,255.5,146z"/>
			<path class="st2" d="M283,136.2c-0.2-0.4-0.9-0.9-1.4-0.8c-1.3,0.1-2.5,0.2-3.8,0.4c-0.7,0.1-1.1,0.5-0.9,1.1
				c0.2,1,0.5,2,0.8,2.8c0.1,0.5,0.8,0.8,1.4,0.7c1.3-0.2,2.6-0.3,3.9-0.4c0.7,0,1.1-0.4,0.9-1C283.7,138.1,283.3,137.2,283,136.2z"
				/>
			<path class="st2" d="M290.1,136.5c-0.2-0.4-0.9-1-1.5-1c-1.3-0.1-2.5-0.2-3.8-0.2c-0.7,0-1,0.4-0.9,0.9c0.3,1,0.7,1.8,1,2.8
				c0.2,0.4,0.9,0.9,1.5,0.9c1.3,0,2.6,0,3.9,0.2c0.7,0.1,1.1-0.2,0.9-0.8C290.8,138.4,290.5,137.5,290.1,136.5z"/>
			<path class="st2" d="M255.8,151.4c0-0.5-0.5-0.5-1.2-0.1c-1.2,0.9-2.5,1.7-3.7,2.7c-0.7,0.5-1.1,1.3-1.1,1.8c0,1,0,2,0,2.9
				c0,0.5,0.5,0.5,1.2,0c1.3-1,2.5-1.8,3.8-2.7c0.7-0.4,1.2-1.2,1.2-1.7C255.9,153.5,255.9,152.4,255.8,151.4z"/>
			<path class="st2" d="M270.2,144.4c-0.1-0.5-0.8-0.8-1.4-0.4c-1.3,0.4-2.6,1-3.9,1.6c-0.7,0.3-1.1,1-1.1,1.4c0.1,1,0.2,2,0.4,2.9
				c0.1,0.5,0.7,0.7,1.4,0.3c1.3-0.5,2.7-1.1,4-1.6c0.7-0.2,1.2-0.9,1.1-1.3C270.5,146.3,270.3,145.3,270.2,144.4z"/>
			<path class="st2" d="M277.5,142.4c-0.1-0.5-0.8-0.8-1.4-0.7c-1.3,0.3-2.6,0.7-3.9,1.1c-0.7,0.2-1.1,0.8-1,1.3
				c0.2,1,0.4,2,0.5,2.9c0.1,0.5,0.8,0.8,1.4,0.5c1.4-0.4,2.7-0.8,4.1-1.1c0.7-0.1,1.2-0.7,1-1.2C278,144.4,277.7,143.4,277.5,142.4
				z"/>
			<path class="st2" d="M292.3,141.6c-0.2-0.4-0.9-0.9-1.5-1c-1.3-0.1-2.6-0.2-4-0.1c-0.7,0-1.1,0.4-0.9,0.9c0.3,1,0.7,1.8,1,2.8
				c0.2,0.4,0.9,0.9,1.6,0.9c1.4,0,2.7,0,4.1,0.1c0.7,0,1.1-0.3,0.9-0.8C293,143.5,292.6,142.6,292.3,141.6z"/>
			<path class="st2" d="M256.1,157c0-0.5-0.5-0.5-1.3-0.1c-1.3,0.9-2.6,1.7-3.8,2.7c-0.7,0.5-1.2,1.3-1.2,1.8c0,1,0,2,0,2.9
				c0,0.5,0.5,0.5,1.2,0c1.3-1,2.6-1.8,4-2.7c0.7-0.4,1.2-1.2,1.2-1.7C256.3,158.9,256.3,158,256.1,157z"/>
			<path class="st2" d="M271.2,149.8c-0.1-0.5-0.8-0.8-1.4-0.4c-1.4,0.5-2.7,1.1-4.1,1.6c-0.7,0.3-1.2,1-1.1,1.5
				c0.1,1,0.2,2,0.4,2.9c0.1,0.5,0.7,0.7,1.4,0.3c1.4-0.7,2.8-1.2,4.2-1.6c0.8-0.2,1.2-0.9,1.2-1.3
				C271.6,151.8,271.4,150.8,271.2,149.8z"/>
			<path class="st2" d="M278.9,147.7c-0.1-0.5-0.8-0.8-1.5-0.7c-1.4,0.3-2.7,0.7-4.1,1.1c-0.7,0.2-1.2,0.8-1.1,1.3
				c0.2,1,0.4,2,0.5,2.9c0.1,0.5,0.8,0.8,1.5,0.5c1.4-0.4,2.8-0.8,4.4-1.1c0.8-0.2,1.2-0.7,1.1-1.2
				C279.4,149.7,279.2,148.7,278.9,147.7z"/>
			<path class="st2" d="M294.3,146.8c-0.2-0.4-0.9-0.9-1.6-1c-1.4-0.1-2.7-0.1-4.1-0.1c-0.7,0-1.1,0.4-1,0.9c0.3,1,0.7,1.8,1,2.8
				c0.2,0.4,0.9,0.9,1.6,0.8c1.4,0,2.8,0,4.2,0c0.8,0,1.2-0.3,1-0.8C295.1,148.6,294.8,147.6,294.3,146.8z"/>
			<path class="st2" d="M256.5,162.5c0-0.5-0.7-0.5-1.3-0.1c-1.4,0.9-2.7,1.7-4,2.7c-0.7,0.5-1.2,1.3-1.2,1.8c0,1,0,2,0,2.9
				c0,0.5,0.5,0.5,1.3,0c1.4-1,2.7-1.8,4.2-2.7c0.8-0.4,1.3-1.2,1.3-1.7C256.6,164.5,256.5,163.5,256.5,162.5z"/>
			<path class="st2" d="M272.2,155.2c-0.1-0.5-0.8-0.7-1.5-0.4c-1.4,0.5-2.8,1.1-4.4,1.6c-0.8,0.3-1.3,1-1.2,1.5
				c0.1,1,0.2,2,0.4,2.9c0.1,0.5,0.8,0.7,1.5,0.3c1.5-0.7,2.9-1.2,4.5-1.7c0.8-0.2,1.3-0.9,1.2-1.4
				C272.7,157.2,272.5,156.2,272.2,155.2z"/>
			<path class="st2" d="M280.3,153.1c-0.1-0.5-0.9-0.8-1.6-0.5c-1.4,0.3-2.9,0.8-4.4,1.1c-0.8,0.2-1.2,0.8-1.2,1.3
				c0.2,1,0.4,2,0.5,2.9c0.1,0.5,0.8,0.7,1.5,0.4c1.5-0.4,3-0.9,4.6-1.2c0.8-0.2,1.3-0.7,1.2-1.2C280.8,155,280.6,154,280.3,153.1z"
				/>
			<path class="st2" d="M296.5,151.9c-0.2-0.4-1-0.9-1.6-1c-1.4-0.1-2.8-0.1-4.4,0c-0.8,0-1.2,0.4-1,1c0.3,1,0.7,1.8,1,2.8
				c0.2,0.4,1,0.9,1.7,0.8c1.5-0.1,2.9-0.1,4.5,0c0.8,0,1.2-0.3,1-0.8C297.3,153.7,296.8,152.7,296.5,151.9z"/>
			<path class="st2" d="M290.2,157.1c-0.2-0.4-0.9-0.9-1.7-0.8c-1.5,0.2-3,0.3-4.6,0.7c-0.8,0.1-1.3,0.7-1.2,1.2
				c0.2,1,0.5,2,0.8,2.8c0.1,0.5,0.9,0.8,1.7,0.7c1.5-0.3,3.2-0.5,4.7-0.7c0.8-0.1,1.3-0.5,1.2-1
				C290.8,159.1,290.5,158.1,290.2,157.1z"/>
			<path class="st2" d="M298.6,157c-0.2-0.4-1-0.9-1.7-0.9c-1.5,0-2.9,0-4.5,0c-0.8,0-1.3,0.4-1.1,1c0.3,1,0.7,1.8,1,2.8
				c0.2,0.4,1,0.8,1.7,0.8c1.5-0.1,3.2-0.1,4.7-0.1c0.8,0,1.3-0.3,1.1-0.8C299.3,158.8,298.9,157.9,298.6,157z"/>
			<path class="st2" d="M274.4,166.1c-0.1-0.5-0.9-0.7-1.6-0.4c-1.5,0.5-3.2,1.1-4.7,1.7c-0.8,0.3-1.4,1-1.3,1.5
				c0.1,1,0.2,2,0.4,2.9c0.1,0.5,0.8,0.7,1.6,0.3c1.6-0.7,3.3-1.2,4.9-1.7c0.9-0.3,1.4-0.9,1.3-1.4
				C274.7,168.1,274.5,167.1,274.4,166.1z"/>
			<path class="st2" d="M283.2,163.7c-0.1-0.5-0.9-0.8-1.7-0.5c-1.6,0.3-3.2,0.8-4.8,1.2c-0.8,0.2-1.4,0.9-1.3,1.3
				c0.2,1,0.4,2,0.5,2.9c0.1,0.5,0.9,0.7,1.7,0.4c1.6-0.4,3.3-0.9,4.9-1.3c0.9-0.2,1.4-0.8,1.3-1.2
				C283.8,165.7,283.5,164.7,283.2,163.7z"/>
			<path class="st2" d="M292,162.3c-0.2-0.4-1-0.8-1.7-0.8c-1.5,0.2-3.2,0.4-4.8,0.7c-0.8,0.1-1.3,0.7-1.2,1.2c0.2,1,0.5,2,0.8,2.8
				c0.1,0.5,1,0.8,1.7,0.5c1.6-0.3,3.3-0.5,4.9-0.8c0.9-0.1,1.4-0.5,1.2-1.1C292.7,164.3,292.4,163.3,292,162.3z"/>
			<path class="st2" d="M300.6,162.1c-0.2-0.4-1-0.9-1.7-0.9c-1.5,0-3,0-4.7,0.1c-0.8,0-1.3,0.5-1.1,1c0.3,1,0.7,1.8,1,2.8
				c0.2,0.4,1,0.8,1.8,0.8c1.6-0.1,3.3-0.2,4.8-0.1c0.8,0,1.3-0.3,1.1-0.9C301.4,163.9,301.1,163,300.6,162.1z"/>
		</g>
	</g>
</g>
<g>
	<g class="st7">
		<g>
			<path d="M280.4,48.7c0.3,0.7,0.8,1.5,1.1,2.4s0.9,2,1.3,3.2s0.9,2.4,1.3,3.7s0.7,2.6,1,3.9s0.3,2.6,0.3,3.9c0,2.1-0.3,4.1-1,5.9
				s-1.5,3.5-2.7,4.8s-2.6,2.4-4.4,3.3c-1.7,0.8-3.7,1.2-6,1.2c-2,0-3.6-0.3-4.8-1c-1.2-0.7-2.3-1.5-3-2.7c-0.4,0.5-1,1.1-1.4,1.5
				c-0.5,0.4-1.1,0.9-1.8,1.2c-0.7,0.3-1.5,0.5-2.4,0.8c-1,0.2-2.1,0.2-3.3,0.2c-0.9,0-1.7-0.1-2.5-0.2s-1.4-0.3-2.1-0.4
				c0,2.5-0.4,4.8-1.1,6.9c-0.8,2.1-1.7,3.9-3,5.5s-2.7,3-4.5,4.2s-3.6,2.2-5.5,2.9s-4,1.4-6.2,1.7c-2.2,0.4-4.2,0.5-6.4,0.5
				c-3.3,0-6.3-0.5-9-1.6c-2.8-1.1-5.2-2.6-7.2-4.6c-2.1-2-3.6-4.4-4.7-7.1c-1.1-2.7-1.7-5.8-1.7-9c0.1-2,0.3-3.9,0.8-5.9
				c0.4-2,1.1-3.9,1.7-5.9c0.8-2,1.5-3.7,2.4-5.4c0.9-1.7,1.7-3.3,2.7-4.7l7,5.3c-0.8,1.3-1.5,2.6-2.3,4s-1.4,2.8-2,4.2
				c-0.5,1.4-1,2.9-1.3,4.4c-0.3,1.4-0.5,2.8-0.5,4.2c-0.1,1.6,0.2,3.2,1,4.6s1.7,2.7,2.9,3.8c1.3,1.1,2.7,2,4.5,2.5
				c1.7,0.7,3.6,1,5.4,1c2.2,0,4.2-0.2,6.1-0.7s3.5-1,5-1.6c1.4-0.8,2.6-1.6,3.6-2.6s1.6-2.2,2.1-3.4l0,0c0.5-1.7,0.8-3.5,0.8-5.4
				c0-1.4-0.2-2.8-0.7-4.4s-1-2.9-1.5-4.5c-0.7-1.5-1.3-3-2.2-4.6s-1.5-3-2.3-4.6l8.8-4.9c0.5,1.3,1.1,2.5,1.6,3.8s1.1,2.5,1.6,3.7
				s1.2,2.3,1.7,3.3s1.2,1.8,1.8,2.6c0.7,0.8,1.3,1.3,2,1.6s1.4,0.5,2.2,0.4c0.9-0.1,1.6-0.4,2.2-1c0.5-0.5,1-1.1,1.3-1.8
				s0.4-1.6,0.5-2.5c0.1-1,0.1-1.8,0-2.8c0-1-0.1-2-0.2-2.8c-0.1-1-0.2-1.8-0.2-2.6l8.8-1.2c0.1,0.7,0.3,1.4,0.4,2.4s0.2,2,0.3,2.9
				s0.3,2.1,0.5,3.2c0.2,1.1,0.5,2.1,0.9,2.9s0.8,1.6,1.3,2.3c0.5,0.7,1.2,1.1,2.1,1.4c0.7,0,1.3-0.1,1.8-0.3
				c0.5-0.2,1.1-0.7,1.5-1.1s0.8-1.1,1-1.7c0.2-0.7,0.3-1.5,0.3-2.4c0-0.8-0.1-1.6-0.4-2.7c-0.3-1-0.7-2.1-1.2-3.3s-1.1-2.4-1.7-3.7
				c-0.7-1.3-1.3-2.6-2.1-3.9l8.2-4.6C279.8,47.5,280.1,48,280.4,48.7z"/>
			<path d="M305.8,61.9c0.5,1.5,1,3.2,1.4,4.8c0.4,1.6,0.8,3.3,1.1,4.9c0.3,1.6,0.4,3.2,0.4,4.6c0,2-0.3,3.9-0.9,5.9
				c-0.5,2-1.3,3.8-2.3,5.5s-2.2,3.5-3.6,5.1s-2.8,3.2-4.6,4.7c-1.6,1.4-3.5,2.8-5.3,4s-3.9,2.4-5.9,3.4l-5.9-8.1
				c1.5-0.8,3-1.6,4.7-2.6c1.5-1,3-2.1,4.5-3.2s2.8-2.3,4-3.5s2.3-2.5,3.3-3.7c1-1.3,1.6-2.5,2.2-3.8c0.5-1.3,0.8-2.5,0.8-3.8
				c0-0.9-0.1-1.8-0.3-2.9c-0.2-1.1-0.5-2.2-1-3.4c-0.4-1.2-0.9-2.5-1.5-3.8c-0.5-1.3-1.2-2.8-1.8-4.4l9.2-4.2
				C304.8,59,305.2,60.4,305.8,61.9z"/>
			<path d="M318,67.9c1.2,0.5,2.4,1.1,3.7,1.6c1.3,0.4,2.5,0.9,3.7,1.2c1.2,0.3,2.3,0.4,3.2,0.4c0.5,0,1.2,0,2.1-0.1
				s1.7-0.2,2.6-0.5c0.9-0.2,1.6-0.5,2.2-1.1c0.7-0.4,1-1.1,1-1.7c0-0.9-0.2-1.7-0.8-2.8c-0.5-1.1-1.2-2.2-2.1-3.3s-2-2.3-3-3.5
				c-1.2-1.2-2.4-2.3-3.6-3.4c-1.2-1.1-2.5-2.1-3.7-3c-1.2-1-2.4-1.7-3.4-2.4l5.7-8.4c2.1,1.4,4.1,3,6.2,4.9s3.9,3.7,5.7,5.8
				c1.7,2,3.3,4.1,4.5,6.2c1.3,2.2,2.2,4.4,2.7,6.5c0.2,0.7,0.3,1.2,0.3,1.8c0.1,0.7,0.1,1.2,0.1,1.8c0,2-0.4,3.8-1.2,5.4
				c-0.8,1.6-1.8,3-3.3,4.2s-3,2.2-4.9,2.8c-2,0.7-4,1-6.3,1c-0.2,0-0.3,0-0.5,0s-0.3,0-0.5,0c-1.5,0-2.9-0.1-4.6-0.4
				c-1.5-0.3-3-0.8-4.6-1.2c-1.5-0.5-2.9-1.1-4.4-1.7c-1.4-0.7-2.7-1.4-3.9-2.2l4.2-9.7C315.8,66.7,316.9,67.3,318,67.9z"/>
			<path d="M350.9,75.7c0.1-1.8,0.2-3.7,0.3-5.5c0.1-1.8,0.1-3.6,0.1-5.3c0-1.7,0-3.4-0.1-4.8c-0.1-3-0.2-5.7-0.3-7.9
				c-0.1-2.3-0.2-4.4-0.3-6.1c-0.1-1.7-0.2-3.4-0.3-4.7c-0.1-1.3-0.2-2.5-0.3-3.7c-0.1-1.1-0.2-2.2-0.4-3.2c-0.1-1-0.3-2-0.4-3
				l9.9-3.3c0.4,2.8,0.9,5.8,1.1,8.6c0.3,2.9,0.5,5.7,0.7,8.4c0.1,2.7,0.2,5.1,0.3,7.4c0,2.3,0.1,4.2,0.1,5.9c0,1.5,0,3,0,4.8
				s0,3.5-0.1,5.3s-0.1,3.7-0.1,5.5c-0.1,1.8-0.1,3.7-0.3,5.5l-9.9,1.5C350.7,79.4,350.8,77.6,350.9,75.7z"/>
			<path d="M389.2,81c-0.4,0-1.1,0-1.8-0.1c-0.8-0.1-1.6-0.3-2.6-0.7c-0.4,2.6-1.3,5.1-2.6,7.5c-1.3,2.4-2.9,4.6-4.8,6.7
				c-1.8,2.1-4,4-6.5,5.8c-2.4,1.7-5,3.4-7.8,4.7l-5.9-8.1c1.5-0.8,3-1.6,4.6-2.5c1.5-0.9,3-1.8,4.4-2.8s2.7-2.1,3.9-3.2
				s2.3-2.3,3.2-3.4c0.9-1.2,1.6-2.4,2.1-3.6s0.8-2.5,0.8-3.7c0-0.9-0.1-1.8-0.4-3.2s-0.8-2.6-1.2-4.1c-0.5-1.5-1.1-2.9-1.6-4.5
				c-0.5-1.5-1.2-2.8-1.7-4.1l9.2-4c0.9,2.6,1.6,4.7,2.5,6.4c0.9,1.7,1.5,3,2.3,4.1c0.8,1,1.4,1.7,2.1,2.2s1.3,0.7,2,0.7h0.8v10.1
				h-0.5V81H389.2z"/>
			<path d="M418.9,70.9V81h-30.4V70.9H418.9z"/>
			<path d="M418.8,70.9c0.8,0,1.7,0,2.8,0s2.3,0,3.6-0.1c1.3-0.1,2.6-0.1,3.9-0.2s2.6-0.2,3.8-0.4c1.2-0.2,2.3-0.4,3.3-0.8
				c1-0.3,1.8-0.8,2.5-1.2c-2.8,0.3-5.3,0.3-7.7,0.2c-2.3-0.1-4.4-0.5-6.1-1.3s-3-2-3.9-3.5c-1-1.5-1.4-3.6-1.4-6.1
				c0-1.2,0.1-2.4,0.3-3.6c0.2-1.2,0.5-2.5,1.1-3.7c0.4-1.2,1.1-2.4,1.7-3.4c0.7-1.1,1.5-2.1,2.5-2.8s2-1.4,3.2-2
				c1.1-0.4,2.4-0.8,3.7-0.8c1.7,0,3.3,0.3,4.7,1s2.6,1.5,3.8,2.6c1.1,1.1,2.1,2.4,2.9,3.8c0.9,1.4,1.5,2.9,2.1,4.6
				c0.5,1.6,1,3.3,1.2,4.9c0.3,1.6,0.4,3.3,0.4,4.8c0,2.6-0.3,4.8-1.1,6.7c-0.8,1.8-1.7,3.5-3,4.9s-2.8,2.5-4.6,3.3
				c-1.7,0.9-3.7,1.5-5.8,2.1s-4.4,0.9-6.6,1c-2.4,0.2-4.8,0.3-7.2,0.3h-1.2V70.9H418.8z M431.7,38l-7.1-7.1l7.1-7.1l7.1,7.1
				L431.7,38z M432,51.5c-0.5,0-1,0.1-1.5,0.4c-0.5,0.3-1,0.8-1.4,1.2c-0.4,0.5-0.8,1.1-1.1,1.7c-0.3,0.7-0.4,1.3-0.4,2.1
				c0,0.7,0.2,1.2,0.5,1.5c0.4,0.4,0.9,0.8,1.5,1s1.3,0.4,2.1,0.5c0.8,0.1,1.5,0.1,2.3,0.1s1.4,0,2.2,0c0.8,0,1.2-0.1,1.6-0.1
				c-0.2-1-0.4-2-0.8-2.9c-0.3-1-0.7-1.8-1.2-2.7c-0.4-0.8-1-1.5-1.6-2.1C433.5,51.8,432.7,51.5,432,51.5z"/>
			<path d="M486.3,81c-1.7,0-3.5-0.3-5.2-0.9c-1.7-0.5-3.4-1.4-4.8-2.6c-1.4-1.1-2.6-2.5-3.5-4.1s-1.4-3.5-1.4-5.4
				c0-4.2,1.8-8.7,5.7-13.3c0.3-0.3,0.5-0.7,0.8-0.9c0.2-0.2,0.4-0.4,0.5-0.7c0.2-0.2,0.3-0.3,0.4-0.5l0.5-0.5l-2-1.6l6.4-7.8
				c1.1,0.8,2.4,2,3.9,3.3s3.3,3.2,5.2,5.2c5.5,6.3,8.3,11.9,8.3,16.9c0,2.2-0.4,4-1.3,5.7c-0.9,1.6-2.1,2.9-3.4,4.1
				c-1.4,1.1-3,2-4.8,2.5C489.9,80.8,488.1,81,486.3,81z M492.6,68.1c0-0.7-0.2-1.4-0.7-2.3c-0.4-0.9-1-1.7-1.6-2.6
				s-1.4-1.8-2.3-2.7c-0.9-1-1.7-1.8-2.6-2.7c-0.5,0.7-1.2,1.4-1.8,2.2s-1.2,1.6-1.7,2.5s-1,1.8-1.3,2.7c-0.3,1-0.5,1.8-0.4,2.8
				c0,0.5,0.2,1,0.8,1.3c0.4,0.4,1,0.7,1.6,1c0.7,0.2,1.3,0.4,2.1,0.5c0.8,0.1,1.3,0.2,1.8,0.2c0.7,0,1.3,0,2.1-0.1
				c0.8-0.1,1.4-0.2,2.1-0.5s1.1-0.5,1.5-1C492.3,69.1,492.6,68.6,492.6,68.1z"/>
			<path d="M522,61.9c0.5,1.5,1,3.2,1.4,4.8c0.4,1.6,0.8,3.3,1.1,4.9s0.4,3.2,0.4,4.6c0,2-0.3,3.9-0.9,5.9s-1.3,3.8-2.3,5.5
				s-2.2,3.5-3.6,5.1c-1.4,1.6-2.8,3.2-4.6,4.7c-1.6,1.4-3.5,2.8-5.3,4s-3.9,2.4-5.9,3.4l-5.9-8.1c1.5-0.8,3-1.6,4.7-2.6
				c1.5-1,3-2.1,4.5-3.2s2.8-2.3,4-3.5s2.3-2.5,3.3-3.7c1-1.3,1.6-2.5,2.2-3.8s0.8-2.5,0.8-3.8c0-0.9-0.1-1.8-0.3-2.9
				s-0.5-2.2-1-3.4c-0.4-1.2-0.9-2.5-1.5-3.8c-0.5-1.3-1.2-2.8-1.8-4.4l9.2-4.2C521.1,59,521.5,60.4,522,61.9z"/>
			<path d="M545.9,81c-2.7,0-4.9-0.3-6.7-1.1c-1.8-0.8-3.4-1.7-4.6-2.9s-2.1-2.7-2.5-4.5c-0.5-1.7-0.8-3.6-0.8-5.5
				c0-1,0-2.3,0.1-3.8c0-1.5,0.1-3.3,0.1-5.3s0-4.2,0-6.6s-0.1-4.8-0.2-7.2s-0.2-4.7-0.4-7c-0.2-2.2-0.4-4.1-0.8-5.8l9.6-2.9
				c0.3,1.4,0.5,3,0.7,5s0.3,3.9,0.4,6c0.1,2.1,0.2,4.2,0.2,6.3s0.1,4,0.1,5.9c0,1.6,0,3.3-0.1,5s-0.1,3.5-0.2,5.1c0,1.6,0,3,0,4.4
				c0.1,1.3,0.3,2.3,0.5,2.9c0.2,0.5,0.4,0.9,0.8,1.1c0.3,0.2,0.7,0.4,1,0.5s0.8,0.2,1.3,0.2c0.4,0,1,0,1.5,0h0.9v10.1h-0.9
				L545.9,81L545.9,81z"/>
			<path d="M575.8,70.9V81h-30.4V70.9H575.8z"/>
			<path d="M574.5,70.9h2.3c0.1-1.4,0.3-2.9,0.7-4.6c0.3-1.6,0.9-3.4,1.5-5c0.7-1.6,1.4-3.3,2.3-4.9c0.9-1.5,1.8-2.9,2.9-4.2
				c1.1-1.2,2.2-2.3,3.5-3c1.2-0.8,2.5-1.2,3.9-1.3c1.4,0,2.7,0.4,3.9,1.2s2.3,1.8,3.2,3c0.9,1.3,1.5,2.7,2.1,4.2
				c0.5,1.6,0.8,3.3,0.8,4.9c0,2-0.4,3.8-1.2,5.7c-0.8,1.8-2,3.6-3.3,5.1c-1.3,1.6-2.8,3-4.6,4.2c-1.7,1.3-3.5,2.3-5.2,3.2
				c0.1,0.5,0.4,1.1,1,1.8c0.4,0.8,1,1.4,1.6,2.2c0.7,0.8,1.2,1.4,1.8,2.1c0.7,0.7,1.1,1.2,1.5,1.5c0-1.2,0.1-2.5,0.5-3.8
				s0.9-2.5,1.6-3.7c0.7-1.2,1.5-2.3,2.5-3.4s2-2,3-2.7c1.1-0.8,2.2-1.4,3.4-1.8s2.3-0.7,3.4-0.7h1.6V81h-1.7c-1,0-1.8,0.2-2.7,0.8
				c-0.9,0.5-1.6,1.1-2.3,2c-0.7,0.8-1.2,1.6-1.6,2.6c-0.4,1-0.7,2-0.7,2.9c0,0.4,0,0.9,0.1,1.2c0.1,0.3,0.2,0.8,0.3,1.1
				c0.2,0.4,0.4,0.8,0.7,1.2c0.3,0.4,0.7,0.9,1.1,1.4l-5.9,7.2c-2.6-1.5-4.8-3.2-6.7-4.8c-2-1.6-3.6-3.3-5-5s-2.6-3.4-3.6-5.2
				c-1-1.8-1.7-3.5-2.4-5.3h-4.4V70.9H574.5z M593.4,62.8c0-0.5,0-1.2,0-2c0-0.7-0.1-1.3-0.3-2c-0.1-0.7-0.3-1.2-0.7-1.7
				c-0.3-0.5-0.7-0.9-1-1.2c-0.4,0.2-0.9,0.7-1.3,1.2c-0.4,0.7-1,1.3-1.4,2.2c-0.5,0.9-1,1.7-1.4,2.8c-0.4,1-0.9,2.1-1.2,3
				c-0.3,1.1-0.7,2.1-0.9,3s-0.3,1.8-0.3,2.7c0.9-0.2,1.8-0.5,2.8-1.1c1-0.5,2-1.2,2.7-2c0.9-0.8,1.5-1.6,2.2-2.5
				C593,64.7,593.3,63.7,593.4,62.8z"/>
			<path d="M607.7,70.9h4.4c0.9,0,1.8-0.1,2.9-0.2c1.1-0.1,2.1-0.4,3-0.8s1.7-0.8,2.3-1.3c0.7-0.5,1-1.3,1-2.1
				c0-0.5-0.1-1.3-0.4-2.3c-0.3-1-0.7-2.2-1.2-3.4s-1.1-2.5-1.6-3.9c-0.7-1.4-1.2-2.7-1.8-3.9l9.1-4.6c0.5,1.3,1.2,2.8,1.7,4.2
				c0.5,1.5,1.1,3,1.6,4.6c0.4,1.5,0.9,3.2,1.1,4.7c0.3,1.5,0.4,3,0.4,4.5c0,2.6-0.4,4.8-1.3,6.6c-0.9,1.8-2.1,3.4-3.6,4.6
				s-3.4,2.1-5.5,2.6s-4.5,0.9-7.1,0.9h-5.1L607.7,70.9L607.7,70.9z M618,98.7l-7.1-7.1l7.1-7.1l7.1,7.1L618,98.7z"/>
			<path d="M684.4,81c-1.8,0-3.9-0.1-6.2-0.2c-2.2-0.1-4.5-0.4-6.6-1c-2.2-0.4-4.4-1.1-6.4-2c-2.1-0.8-3.9-1.8-5.4-3.2
				c-1.6-1.3-2.9-2.8-3.9-4.8c-1-1.8-1.6-4-1.7-6.6c0-1.3,0.1-2.5,0.4-3.7c0.3-1.2,0.7-2.4,1.1-3.5c0.4-1.1,1-2.3,1.5-3.4
				c0.5-1.1,1.2-2.2,1.8-3.3l7.5,6.3c-0.3,0.4-0.7,1-1.1,1.7c-0.4,0.8-0.9,1.4-1.2,2.3c-0.4,0.8-0.8,1.6-1,2.4
				c-0.2,0.8-0.4,1.5-0.4,2.1c0,0.8,0.3,1.5,0.9,2.2c0.5,0.7,1.3,1.2,2.4,1.6c1,0.4,2.2,0.9,3.6,1.2c1.4,0.3,2.8,0.7,4.5,0.9
				s3.3,0.3,5.1,0.4c1.7,0.1,3.6,0.1,5.4,0.1c0.9,0,1.7,0,2.7,0s1.8,0,2.7,0s1.6,0,2.3-0.1c0.7,0,1.1,0,1.3-0.1
				c-0.8-0.9-1.4-2-2.1-3.2c-0.7-1.3-1-2.7-1.1-4.2c0-1.3,0.1-2.5,0.4-3.8c0.3-1.3,0.8-2.5,1.4-3.8c0.5-1.2,1.3-2.4,2.2-3.4
				c0.9-1.1,1.8-2,2.8-2.7c1.1-0.8,2.2-1.4,3.4-1.7c1.2-0.4,2.5-0.7,3.8-0.5c1.8,0.1,3.6,0.5,5.2,1.4c1.6,0.9,2.9,2,4.1,3.4
				c1.2,1.4,2.1,2.9,2.7,4.7s1,3.6,1,5.4c0,1.5-0.2,2.9-0.8,4.4s-1.1,2.7-1.8,4c1,0.1,2.1,0.2,3,0.3c1,0.1,1.8,0.1,2.7,0.1h1.1v10.1
				h-0.9c-1.3,0-2.7,0-4.1-0.1c-1.4,0-2.8-0.1-4.1-0.3c-1.4-0.2-2.7-0.4-4.1-0.8s-2.7-0.8-4-1.4c-0.5,0.3-1.2,0.5-2.1,0.9
				c-0.9,0.2-2,0.4-3,0.7c-1.1,0.2-2.4,0.3-3.7,0.5c-1.3,0.1-2.6,0.2-3.9,0.3c-1.3,0.1-2.6,0.2-3.8,0.2C686.5,81,685.3,81,684.4,81z
				 M705.6,42.1l-7.1-7.1l7.1-7.1l7.1,7.1L705.6,42.1z M708.8,62.9c0-0.7-0.2-1.3-0.5-2s-0.8-1.2-1.2-1.6c-0.4-0.5-1-0.9-1.5-1.2
				s-1.1-0.5-1.5-0.7c-0.5,0.1-1.1,0.3-1.6,0.5c-0.7,0.3-1.2,0.7-1.7,1.2s-1.1,1.1-1.4,1.8c-0.4,0.8-0.5,1.5-0.5,2.5
				c0,0.3,0.2,0.8,0.5,1.3s0.8,1.1,1.3,1.7c0.5,0.5,1.1,1.1,1.7,1.6c0.7,0.5,1.4,0.9,2.1,1.1c0.5-0.3,1.1-0.8,1.6-1.2
				c0.5-0.5,1.1-1.1,1.5-1.6s0.8-1.2,1.1-1.7C708.7,64,708.8,63.4,708.8,62.9z"/>
			<path d="M750.6,70.9V81h-30.4V70.9H750.6z"/>
			<path d="M777.9,70.9V81h-0.8c-1,0-2.1-0.1-3-0.2c-1-0.2-2-0.4-2.8-0.8c-0.9-0.3-1.6-0.7-2.4-1.1c-0.8-0.4-1.4-0.9-2-1.4
				c-1,0.8-2.2,1.4-3.5,1.8s-2.6,0.8-4.1,1.1c-1.4,0.2-2.9,0.4-4.5,0.4c-1.5,0.1-3,0.1-4.5,0.1h-1.2v-10h1.2c1.5,0,2.9,0,4.1-0.1
				c1.2-0.1,2.3-0.2,3.2-0.4c0.9-0.2,1.6-0.5,2.3-0.9c0.7-0.3,1.1-0.8,1.5-1.3c0.5-0.7,0.8-1.4,0.9-2.3s0.1-1.7,0-2.6
				s-0.2-1.7-0.5-2.6c-0.2-0.9-0.4-1.7-0.7-2.5l9.4-2.6c0.2,1,0.4,1.8,0.7,2.6c0.2,0.8,0.3,1.5,0.4,2.3c0.1,0.8,0.2,1.5,0.3,2.3
				s0.2,1.6,0.3,2.5c0.1,0.5,0.2,1.2,0.3,1.8c0.1,0.7,0.3,1.3,0.7,1.8c0.3,0.5,0.8,1.1,1.3,1.4c0.5,0.4,1.3,0.5,2.2,0.5
				C776.7,70.9,777.9,70.9,777.9,70.9z M761.8,90.5l-6,6l-6.2-6.2l6.2-6.2l6.1,6.1l6-6l6.2,6.2l-6.2,6.2L761.8,90.5z"/>
			<path d="M776.6,70.9h2.3c0.5,0,1,0,1.5,0s1-0.1,1.4-0.1s0.8-0.1,1-0.2c-0.4-0.4-0.8-0.9-1.1-1.4s-0.7-1.1-1-1.6s-0.5-1.2-0.8-2
				c-0.2-0.8-0.3-1.4-0.3-2.3c0-1.3,0.1-2.5,0.4-3.8c0.3-1.3,0.8-2.5,1.4-3.8c0.5-1.2,1.3-2.4,2.2-3.4c0.9-1.1,1.8-2,2.8-2.7
				c1.1-0.8,2.2-1.4,3.4-1.7c1.2-0.4,2.5-0.7,3.8-0.5c1.8,0.1,3.6,0.5,5.2,1.4s2.9,2,4.1,3.4c1.2,1.4,2.1,2.9,2.7,4.7
				c0.7,1.7,1,3.6,1,5.4c0,1.5-0.2,2.9-0.8,4.4c-0.5,1.4-1.1,2.7-1.8,4c0.5,0.1,1.2,0.2,2.1,0.3c0.9,0,1.9,0,3.3,0h0.7v10.1h-1.2
				c-1.4,0-2.7,0-3.9-0.1s-2.5-0.2-3.7-0.4c-1.2-0.2-2.4-0.4-3.6-0.8c-1.2-0.3-2.5-0.8-3.8-1.3c-0.8,0.4-1.7,0.9-2.9,1.2
				c-1.2,0.3-2.5,0.5-3.9,0.8c-1.4,0.2-2.8,0.3-4.5,0.4c-1.5,0.1-3,0.1-4.6,0.1h-1.2V70.9H776.6z M793,42.8l-7.1-7.1l7.1-7.1
				l7.1,7.1L793,42.8z M798.3,62.9c0-0.7-0.2-1.3-0.5-2s-0.8-1.2-1.2-1.6c-0.4-0.5-1-0.9-1.5-1.2s-1.1-0.5-1.5-0.7
				c-0.5,0.1-1.1,0.3-1.6,0.5c-0.7,0.3-1.2,0.7-1.7,1.2s-1.1,1.1-1.4,1.8c-0.4,0.8-0.5,1.5-0.5,2.5c0,0.3,0.2,0.8,0.5,1.3
				s0.8,1.1,1.3,1.7c0.5,0.5,1.1,1.1,1.7,1.6c0.7,0.5,1.4,0.9,2.1,1.1c0.5-0.3,1.1-0.8,1.6-1.2c0.5-0.5,1.1-1.1,1.5-1.6
				s0.8-1.2,1.1-1.7C798.1,64,798.3,63.4,798.3,62.9z"/>
			<path d="M808.7,70.9h6.5c1.5,0,3.2-0.1,4.9-0.3s3.5-0.5,5.3-0.9s3.6-0.8,5.4-1.3s3.6-1.1,5.3-1.6s3.4-1.2,5-1.8
				c1.6-0.7,3-1.3,4.4-2c-1.3-0.3-2.8-0.8-4.5-1.3c-1.6-0.5-3.3-1.1-4.9-1.7s-3.3-1-4.9-1.4c-1.5-0.4-2.9-0.5-4.2-0.5
				c-0.8,0-1.5,0.2-2.3,0.5s-1.4,0.7-2.1,1.2c-0.7,0.5-1.2,1-1.7,1.5s-1,1-1.3,1.5c-0.3,0.4-0.7,0.9-0.9,1.2l-0.3,0.4l-7.6-4.4
				c0.9-1.6,1.8-3.2,3-4.6c1.2-1.4,2.5-2.7,3.9-3.9s2.9-2,4.5-2.7c1.5-0.7,3-1,4.7-1c1.2,0,2.3,0.1,3.5,0.4s2.3,0.5,3.5,1
				c1.2,0.4,2.3,0.9,3.5,1.4s2.4,1.1,3.6,1.6c1.2,0.5,2.6,1.2,4,1.7c1.5,0.5,3,1.1,4.7,1.5c1.6,0.4,3.3,0.8,4.9,1.1
				c1.6,0.3,3.3,0.4,4.9,0.4l-1.6,9.5c-0.5,0.2-1.1,0.4-1.6,0.8c-0.7,0.3-1.2,0.5-1.6,0.8l-0.9,0.4c0.5,0.5,1.1,1.1,1.8,1.4
				c0.8,0.3,1.5,0.5,2.3,0.8c0.8,0.1,1.5,0.2,2.3,0.3c0.8,0,1.3,0.1,1.7,0.1h1.1v10.1h-1.1c-2.1,0-4-0.2-5.8-0.5s-3.5-0.9-4.9-1.6
				c-1.5-0.7-2.8-1.5-3.9-2.5c-1.1-1-2.1-2.1-2.8-3.4c-2.1,1-4.4,2.1-6.6,2.9c-2.3,1-4.7,1.8-7.1,2.6c-2.5,0.8-5,1.4-7.6,1.8
				s-5.3,0.7-8.2,0.7h-6.5V70.9H808.7z M826.8,44.7l-7.1-7.1l7.1-7.1l7.1,7.1L826.8,44.7z"/>
			<path d="M862,70.9h7.7c0.9,0,2,0,3-0.1c1.1-0.1,2.2-0.3,3.2-0.5c1-0.3,1.7-0.8,2.4-1.3s1-1.4,1-2.3c0-0.5-0.1-1.3-0.4-2.3
				c-0.3-1-0.8-2.2-1.2-3.4s-1.1-2.5-1.7-3.9c-0.7-1.4-1.3-2.7-1.8-3.9l9.1-4.6c0.5,1.3,1.2,2.8,1.7,4.2c0.5,1.5,1.1,3,1.6,4.6
				c0.5,1.5,0.9,3.2,1.1,4.7c0.3,1.5,0.4,3,0.4,4.5c0,2.6-0.4,4.9-1.4,6.7s-2.3,3.4-3.9,4.5c-1.6,1.2-3.6,2-5.9,2.5
				c-2.3,0.5-4.7,0.8-7.2,0.8h-7.6L862,70.9L862,70.9z M876.9,38l-6,6l-6.2-6.2l6.2-6.2l6.1,6.1l6-6l6.2,6.2l-6.2,6.2L876.9,38z"/>
			<path d="M927.5,81c-1.7,0-3.5-0.3-5.2-0.9s-3.4-1.4-4.8-2.6c-1.4-1.1-2.6-2.5-3.5-4.1s-1.4-3.5-1.4-5.4c0-4.2,1.8-8.7,5.7-13.3
				c0.3-0.3,0.5-0.7,0.8-0.9c0.2-0.2,0.4-0.4,0.5-0.7s0.3-0.3,0.4-0.5l0.5-0.5l-2-1.6l6.4-7.8c1.1,0.8,2.4,2,3.9,3.3
				c1.5,1.4,3.3,3.2,5.2,5.2c5.5,6.3,8.3,11.9,8.3,16.9c0,2.2-0.4,4-1.3,5.7c-0.9,1.6-2.1,2.9-3.4,4.1c-1.4,1.1-3,2-4.8,2.5
				C931.1,80.8,929.4,81,927.5,81z M933.7,68.1c0-0.7-0.2-1.4-0.7-2.3c-0.4-0.9-1-1.7-1.6-2.6c-0.7-0.9-1.4-1.8-2.3-2.7
				c-0.9-1-1.7-1.8-2.6-2.7c-0.5,0.7-1.2,1.4-1.8,2.2c-0.7,0.8-1.2,1.6-1.7,2.5s-1,1.8-1.3,2.7c-0.3,1-0.5,1.8-0.4,2.8
				c0,0.5,0.2,1,0.8,1.3s1,0.7,1.6,1c0.7,0.2,1.3,0.4,2.1,0.5s1.3,0.2,1.8,0.2c0.7,0,1.3,0,2.1-0.1s1.4-0.2,2.1-0.5
				c0.7-0.2,1.1-0.5,1.5-1C933.5,69.1,933.7,68.6,933.7,68.1z"/>
			<path d="M963.2,61.9c0.5,1.5,1,3.2,1.4,4.8c0.4,1.6,0.8,3.3,1.1,4.9s0.4,3.2,0.4,4.6c0,2-0.3,3.9-0.9,5.9s-1.3,3.8-2.3,5.5
				s-2.2,3.5-3.6,5.1c-1.4,1.6-2.8,3.2-4.6,4.7c-1.6,1.4-3.5,2.8-5.3,4s-3.9,2.4-5.9,3.4l-5.9-8.1c1.5-0.8,3-1.6,4.7-2.6
				c1.5-1,3-2.1,4.6-3.2c1.4-1.1,2.8-2.3,4-3.5s2.3-2.5,3.3-3.7c1-1.3,1.6-2.5,2.2-3.8c0.5-1.3,0.8-2.5,0.8-3.8
				c0-0.9-0.1-1.8-0.3-2.9s-0.5-2.2-1-3.4s-0.9-2.5-1.5-3.8c-0.5-1.3-1.2-2.8-1.8-4.4l9.2-4.2C962.2,59,962.6,60.4,963.2,61.9z"/>
			<path d="M972.2,75.7c0.1-1.8,0.2-3.7,0.3-5.5s0.1-3.6,0.1-5.3c0-1.7,0-3.4-0.1-4.8c-0.1-3-0.2-5.7-0.3-7.9
				c-0.1-2.3-0.2-4.4-0.3-6.1c-0.1-1.7-0.2-3.4-0.3-4.7s-0.2-2.5-0.3-3.7c-0.1-1.1-0.2-2.2-0.4-3.2c-0.1-1-0.3-2-0.4-3l9.9-3.3
				c0.4,2.8,0.9,5.8,1.1,8.6c0.3,2.9,0.5,5.7,0.7,8.4c0.1,2.6,0.2,5.1,0.3,7.4c0.1,2.3,0.1,4.2,0.1,5.9c0,1.5,0,3,0,4.8
				s0,3.5-0.1,5.3s-0.1,3.7-0.1,5.5c-0.1,1.8-0.1,3.7-0.3,5.5l-9.9,1.5C972,79.4,972.1,77.6,972.2,75.7z"/>
			<path d="M985.4,93.8c3-0.5,5.8-1.3,8.3-2.3c2.5-0.9,4.7-2,6.5-3s3.4-2.3,4.7-3.6c1.2-1.3,2.1-2.5,2.6-3.8c-0.9,0-1.8,0-2.9,0
				c-1,0-1.8-0.1-2.5-0.1c-2.1-0.2-4-0.5-5.8-1.2c-1.7-0.7-3.3-1.5-4.5-2.6s-2.2-2.4-2.9-4s-1-3.4-1-5.4c0-1.3,0.1-2.6,0.4-4
				s0.7-2.7,1.2-4s1.2-2.5,2-3.7s1.6-2.2,2.6-3c1-0.9,2.1-1.5,3.3-2.1c1.2-0.5,2.5-0.8,3.8-0.8c1.6,0,3.2,0.3,4.5,0.9
				c1.4,0.5,2.6,1.4,3.8,2.4c1.1,1,2.2,2.2,3,3.6c0.9,1.3,1.6,2.8,2.3,4.4c0.7,1.5,1.2,3.2,1.6,4.8c0.4,1.6,0.8,3.3,0.9,4.9h1.4V81
				h-2.1c-0.9,3.2-2.2,6-4,8.5s-4,4.8-6.5,6.6s-5.3,3.5-8.5,4.7s-6.3,2.1-9.7,2.6L985.4,93.8z M1001,60.3c-0.4-0.1-1,0.1-1.5,0.4
				c-0.5,0.4-1.1,1-1.6,1.6c-0.5,0.7-0.9,1.4-1.2,2.2c-0.3,0.8-0.5,1.6-0.4,2.3c0,0.8,0.2,1.3,0.7,1.7c0.4,0.4,1,0.9,1.7,1.2
				c0.7,0.3,1.5,0.5,2.4,0.7c0.9,0.1,1.7,0.2,2.6,0.3c0.9,0.1,1.7,0.1,2.5,0.1h2c-0.3-1.3-0.7-2.6-1.1-3.8c-0.4-1.2-1-2.3-1.5-3.3
				s-1.2-1.7-2-2.4C1002.8,60.7,1001.9,60.5,1001,60.3z"/>
			<path d="M1047.6,70.9V81h-30.4V70.9H1047.6z"/>
			<path d="M1070.1,70.9V81h-0.7c-2.1,0-3.8-0.3-5.2-0.9s-2.7-1.4-3.7-2.4c-1.5,1.1-3.4,2-5.4,2.5c-2.1,0.5-4.6,0.8-7.5,0.8h-1.2
				V70.9h1.2c2.9,0,5.1-0.4,6.6-1.4s2.3-2.4,2.3-4.4c0-0.7-0.1-1.5-0.2-2.7c-0.2-1.2-0.5-2.7-1.1-4.6l9-2.2c0.3,1.2,0.7,2.2,0.9,3.2
				c0.2,1,0.4,1.7,0.5,2.5s0.2,1.4,0.3,2.1c0.1,0.7,0.1,1.2,0.1,1.8c0,0.5,0.1,1.2,0.2,2c0.1,0.7,0.2,1.3,0.5,1.8s0.5,1.1,1,1.4
				c0.4,0.3,1,0.5,1.7,0.5h0.5l0,0H1070.1z M1056.4,50.6l-7.1-7.1l7.1-7.1l7.1,7.1L1056.4,50.6z"/>
			<path d="M1069.5,70.9c1.1,0,2.2-0.2,3.2-0.5s2-1.1,2.8-2.2c0.9-1.1,1.7-2.6,2.5-4.6s1.5-4.5,2.2-7.6l8.5,1.2c0,0.1,0,0.2-0.1,0.4
				c-0.1,0.5-0.3,1.3-0.4,2.3c-0.2,1-0.3,2.1-0.5,3.3c-0.1,1.2-0.2,2.4-0.2,3.5c0,1.1,0.1,2.1,0.4,2.8s0.7,1.3,1.3,1.4
				c0.7,0.2,1.3,0,2-0.4s1.2-1.1,1.7-1.8c0.5-0.9,1.1-1.7,1.5-2.8s0.9-2.2,1.3-3.4s0.8-2.3,1-3.4c0.3-1.1,0.5-2.1,0.7-2.9l8.5,1.2
				c0,0.5-0.1,1.2-0.2,2.2c-0.1,0.9-0.2,1.8-0.2,2.8s-0.1,2-0.1,3s0.1,2,0.3,2.7c0.2,0.9,0.5,1.5,1,2.1c0.4,0.5,1.1,0.8,1.8,0.8
				c0.7,0,1.3-0.2,1.8-0.7c0.5-0.4,1-1.1,1.3-1.8c0.3-0.8,0.7-1.6,0.9-2.6c0.2-1,0.3-2,0.4-2.9s0.1-2,0.1-2.9s0-1.7-0.1-2.5l8.6-1.2
				l1.1,9c0.1,1,0.4,1.8,0.9,2.6c0.4,0.8,1,1.3,1.5,1.8c0.5,0.4,1.2,0.9,1.8,1.1c0.7,0.2,1.2,0.3,1.8,0.3h1v10.1h-1
				c-2.1,0-4-0.3-5.9-1.1c-1.8-0.8-3.4-2-4.8-3.7c-0.1,0.2-0.2,0.3-0.4,0.4c-0.1,0.1-0.2,0.2-0.3,0.4l0,0c-1.2,1.2-2.5,2.2-4,2.9
				c-1.5,0.8-3.2,1.1-4.9,1.1c-2,0-3.7-0.4-5.3-1.2c-1.6-0.8-3-2-4.1-3.4c-1.3,1.4-2.7,2.5-4.4,3.4c-1.6,0.9-3.4,1.3-5.3,1.3
				c-1.8,0-3.5-0.4-5.1-1.2c-1.6-0.8-2.8-2-3.9-3.4c-1.2,1.6-2.6,2.7-4.2,3.4c-1.7,0.7-3.8,1-6.3,1h-0.7V70.9H1069.5z M1088.6,57.3
				L1088.6,57.3C1088.6,57.1,1088.6,57.1,1088.6,57.3z M1101.5,43.7l-6,6l-6.2-6.2l6.2-6.2l6.1,6.1l6-6l6.2,6.2l-6.2,6.2
				L1101.5,43.7z M1107.2,34.4l-5.7,5.7l-5.8-5.8l5.7-5.7L1107.2,34.4z"/>
			<path d="M1128.1,70.9h6.7c3.5,0,6.6-0.2,9.6-0.7c2.9-0.4,5.5-1,8.2-1.6c2.5-0.7,4.9-1.5,7.2-2.5c2.3-1,4.5-1.8,6.6-2.9
				c-1.4-0.4-2.9-0.9-4.4-1.5c-1.4-0.5-2.9-1.2-4.4-1.7c-1.4-0.5-2.9-1-4.4-1.4c-1.4-0.4-2.9-0.5-4.4-0.5c-1,0-2,0.2-2.9,0.8
				c-1,0.5-1.8,1.1-2.6,1.8c-0.8,0.7-1.4,1.3-2,2c-0.5,0.7-0.9,1.1-1,1.3l-7.4-4.8c0.8-1.4,1.7-2.8,2.8-4.2c1.1-1.4,2.3-2.6,3.7-3.6
				c1.3-1.1,2.7-2,4.4-2.5c1.6-0.5,3.2-1,4.9-1c1.3,0,2.5,0.1,3.8,0.4c1.3,0.2,2.5,0.7,3.8,1.1c1.2,0.4,2.5,0.9,3.7,1.4
				s2.4,1.1,3.6,1.6c1.1,0.5,2.3,1.1,3.4,1.6c1.2,0.5,2.3,1,3.6,1.4c1.2,0.4,2.5,0.8,3.8,1.1s2.7,0.4,4.1,0.4l-0.8,9.8l-4.6,2.2
				c-1.8,0.9-3.7,1.8-5.5,2.7c-1.8,0.9-3.7,1.8-5.7,2.7c-1.8,0.9-3.9,1.7-5.9,2.5c-2.1,0.8-4.1,1.5-6.4,2.1
				c-2.2,0.5-4.6,1.1-7.1,1.4s-5.1,0.5-7.9,0.5h-6.7L1128.1,70.9L1128.1,70.9z M1154.6,98.6l-7.1-7.1l7.1-7.1l7.1,7.1L1154.6,98.6z"
				/>
		</g>
	</g>
	<g>
		<g>
			<path class="st2" d="M278.2,45.5c0.3,0.7,0.8,1.5,1.1,2.4s0.9,2,1.3,3.2s0.9,2.4,1.3,3.7s0.7,2.6,1,3.9c0.3,1.3,0.3,2.6,0.3,3.9
				c0,2.1-0.3,4.1-1,5.9s-1.5,3.5-2.7,4.8s-2.6,2.4-4.4,3.3c-1.7,0.8-3.7,1.2-6,1.2c-2,0-3.6-0.3-4.8-1c-1.2-0.7-2.3-1.5-3-2.7
				c-0.4,0.5-1,1.1-1.4,1.5c-0.5,0.4-1.1,0.9-1.8,1.2c-0.7,0.3-1.5,0.5-2.4,0.8c-1,0.2-2.1,0.2-3.3,0.2c-0.9,0-1.7-0.1-2.5-0.2
				s-1.4-0.3-2.1-0.4c0,2.5-0.4,4.8-1.1,6.9c-0.8,2.1-1.7,3.9-3,5.5s-2.7,3-4.5,4.2s-3.6,2.2-5.5,2.9c-2,0.8-4,1.4-6.2,1.7
				c-2.2,0.4-4.2,0.5-6.4,0.5c-3.3,0-6.3-0.5-9-1.6c-2.8-1.1-5.2-2.6-7.2-4.6c-2.1-2-3.6-4.4-4.7-7.1s-1.7-5.8-1.7-9
				c0.1-2,0.3-3.9,0.8-5.9c0.4-2,1.1-3.9,1.7-5.9c0.8-2,1.5-3.7,2.4-5.4s1.7-3.3,2.7-4.7l7,5.3c-0.8,1.3-1.5,2.6-2.3,4
				s-1.4,2.8-2,4.2c-0.5,1.4-1,2.9-1.3,4.4c-0.3,1.4-0.5,2.8-0.5,4.2c-0.1,1.6,0.2,3.2,1,4.6s1.7,2.7,2.9,3.8c1.3,1.1,2.7,2,4.5,2.5
				c1.7,0.7,3.6,1,5.4,1c2.2,0,4.2-0.2,6.1-0.7c1.8-0.4,3.5-1,5-1.6c1.4-0.8,2.6-1.6,3.6-2.6s1.6-2.2,2.1-3.4l0,0
				c0.5-1.7,0.8-3.5,0.8-5.4c0-1.4-0.2-2.8-0.7-4.4c-0.4-1.5-1-2.9-1.5-4.5c-0.7-1.5-1.3-3-2.2-4.6c-0.9-1.5-1.5-3-2.3-4.6l8.8-4.9
				c0.5,1.3,1.1,2.5,1.6,3.8s1.1,2.5,1.6,3.7s1.2,2.3,1.7,3.3s1.2,1.8,1.8,2.6c0.7,0.8,1.3,1.3,2,1.6s1.4,0.5,2.2,0.4
				c0.9-0.1,1.6-0.4,2.2-1s1-1.1,1.3-1.8c0.3-0.8,0.4-1.6,0.5-2.5c0.1-1,0.1-1.8,0-2.8c0-1-0.1-2-0.2-2.8c-0.1-1-0.2-1.8-0.2-2.6
				l8.8-1.2c0.1,0.7,0.3,1.4,0.4,2.4s0.2,2,0.3,2.9s0.3,2.1,0.5,3.2c0.2,1.1,0.5,2.1,0.9,2.9s0.8,1.6,1.3,2.3
				c0.5,0.7,1.2,1.1,2.1,1.4c0.7,0,1.3-0.1,1.8-0.3c0.5-0.2,1.1-0.7,1.5-1.1s0.8-1.1,1-1.7s0.3-1.5,0.3-2.4c0-0.8-0.1-1.6-0.4-2.7
				c-0.3-1-0.7-2.1-1.2-3.3s-1.1-2.4-1.7-3.7c-0.7-1.3-1.3-2.6-2.1-3.9l8.2-4.6C277.6,44.3,277.9,44.7,278.2,45.5z"/>
			<path class="st2" d="M303.6,58.6c0.5,1.5,1,3.2,1.4,4.8c0.4,1.6,0.8,3.3,1.1,4.9c0.3,1.6,0.4,3.2,0.4,4.6c0,2-0.3,3.9-0.9,5.9
				c-0.5,2-1.3,3.8-2.3,5.5s-2.2,3.5-3.6,5.1s-2.8,3.2-4.6,4.7c-1.6,1.4-3.5,2.8-5.3,4s-3.9,2.4-5.9,3.4l-5.9-8.1
				c1.5-0.8,3-1.6,4.7-2.6c1.5-1,3-2.1,4.5-3.2s2.8-2.3,4-3.5s2.3-2.5,3.3-3.7c1-1.3,1.6-2.5,2.2-3.8c0.5-1.3,0.8-2.5,0.8-3.8
				c0-0.9-0.1-1.8-0.3-2.9c-0.2-1.1-0.5-2.2-1-3.4c-0.4-1.2-0.9-2.5-1.5-3.8c-0.5-1.3-1.2-2.8-1.8-4.4l9.2-4.2
				C302.6,55.7,303,57.1,303.6,58.6z"/>
			<path class="st2" d="M315.9,64.6c1.2,0.5,2.4,1.1,3.7,1.6c1.3,0.4,2.5,0.9,3.7,1.2s2.3,0.4,3.2,0.4c0.5,0,1.2,0,2.1-0.1
				s1.7-0.2,2.6-0.5c0.9-0.2,1.6-0.5,2.2-1.1c0.7-0.4,1-1.1,1-1.7c0-0.9-0.2-1.7-0.8-2.8c-0.5-1.1-1.2-2.2-2.1-3.3s-2-2.3-3-3.5
				c-1.2-1.2-2.4-2.3-3.6-3.4s-2.5-2.1-3.7-3c-1.2-1-2.4-1.7-3.4-2.4l5.7-8.4c2.1,1.4,4.1,3,6.2,4.9c2.1,1.8,3.9,3.7,5.7,5.8
				c1.7,2,3.3,4.1,4.5,6.2c1.3,2.2,2.2,4.4,2.7,6.5c0.2,0.7,0.3,1.2,0.3,1.8c0.1,0.7,0.1,1.2,0.1,1.8c0,2-0.4,3.8-1.2,5.4
				c-0.8,1.6-1.8,3-3.3,4.2s-3,2.2-4.9,2.8c-2,0.7-4,1-6.3,1c-0.2,0-0.3,0-0.5,0s-0.3,0-0.5,0c-1.5,0-2.9-0.1-4.6-0.4
				c-1.5-0.3-3-0.8-4.6-1.2c-1.5-0.5-2.9-1.1-4.4-1.7s-2.7-1.4-3.9-2.2l4.2-9.7C313.6,63.4,314.7,64.1,315.9,64.6z"/>
			<path class="st2" d="M348.7,72.5c0.1-1.8,0.2-3.7,0.3-5.5c0.1-1.8,0.1-3.6,0.1-5.3s0-3.4-0.1-4.8c-0.1-3-0.2-5.7-0.3-7.9
				c-0.1-2.3-0.2-4.4-0.3-6.1c-0.1-1.7-0.2-3.4-0.3-4.7c-0.1-1.3-0.2-2.5-0.3-3.7c-0.1-1.1-0.2-2.2-0.4-3.2c-0.1-1-0.3-2-0.4-3
				l9.9-3.3c0.4,2.8,0.9,5.8,1.1,8.6c0.3,2.9,0.5,5.7,0.7,8.4s0.2,5.1,0.3,7.4c0,2.3,0.1,4.2,0.1,5.9c0,1.5,0,3,0,4.8
				c0,1.7,0,3.5-0.1,5.3c-0.1,1.8-0.1,3.7-0.1,5.5c-0.1,1.8-0.1,3.7-0.3,5.5l-9.9,1.5C348.5,76.2,348.6,74.3,348.7,72.5z"/>
			<path class="st2" d="M387,77.8c-0.4,0-1.1,0-1.8-0.1c-0.8-0.1-1.6-0.3-2.6-0.7c-0.4,2.6-1.3,5.1-2.6,7.5
				c-1.3,2.4-2.9,4.6-4.8,6.7c-1.8,2.1-4,4-6.5,5.8c-2.4,1.7-5,3.4-7.8,4.7l-5.9-8.1c1.5-0.8,3-1.6,4.6-2.5c1.5-0.9,3-1.8,4.4-2.8
				s2.7-2.1,3.9-3.2s2.3-2.3,3.2-3.4c0.9-1.2,1.6-2.4,2.1-3.6s0.8-2.5,0.8-3.7c0-0.9-0.1-1.8-0.4-3.2c-0.3-1.3-0.8-2.6-1.2-4.1
				c-0.5-1.5-1.1-2.9-1.6-4.5c-0.5-1.5-1.2-2.8-1.7-4.1l9.2-4c0.9,2.6,1.6,4.7,2.5,6.4s1.5,3,2.3,4.1c0.8,1,1.4,1.7,2.1,2.2
				s1.3,0.7,2,0.7h0.8V78h-1V77.8z"/>
			<path class="st2" d="M416.7,67.7v10.1h-30.4V67.7H416.7z"/>
			<path class="st2" d="M416.6,67.7c0.8,0,1.7,0,2.8,0s2.3,0,3.6-0.1c1.3-0.1,2.6-0.1,3.9-0.2s2.6-0.2,3.8-0.4s2.3-0.4,3.3-0.8
				c1-0.3,1.8-0.8,2.5-1.2c-2.8,0.3-5.3,0.3-7.7,0.2c-2.3-0.1-4.4-0.5-6.1-1.3s-3-2-3.9-3.5c-1-1.5-1.4-3.6-1.4-6.1
				c0-1.2,0.1-2.4,0.3-3.6s0.5-2.5,1.1-3.7c0.4-1.2,1.1-2.4,1.7-3.4c0.7-1.1,1.5-2.1,2.5-2.8c1-0.8,2-1.4,3.2-2
				c1.1-0.4,2.4-0.8,3.7-0.8c1.7,0,3.3,0.3,4.7,1s2.6,1.5,3.8,2.6c1.1,1.1,2.1,2.4,2.9,3.8c0.9,1.4,1.5,2.9,2.1,4.6
				c0.5,1.6,1,3.3,1.2,4.9c0.3,1.6,0.4,3.3,0.4,4.8c0,2.6-0.3,4.8-1.1,6.7c-0.8,1.8-1.7,3.5-3,4.9s-2.8,2.5-4.6,3.3
				c-1.7,0.9-3.7,1.5-5.8,2.1s-4.4,0.9-6.6,1c-2.4,0.2-4.8,0.3-7.2,0.3h-1.2V67.7H416.6z M429.6,34.7l-7.1-7.1l7.1-7.1l7.1,7.1
				L429.6,34.7z M429.8,48.2c-0.5,0-1,0.1-1.5,0.4c-0.5,0.3-1,0.8-1.4,1.2c-0.4,0.5-0.8,1.1-1.1,1.7s-0.4,1.3-0.4,2.1
				c0,0.7,0.2,1.2,0.5,1.5c0.4,0.4,0.9,0.8,1.5,1c0.7,0.2,1.3,0.4,2.1,0.5c0.8,0.1,1.5,0.1,2.3,0.1s1.4,0,2.2,0
				c0.8,0,1.2-0.1,1.6-0.1c-0.2-1-0.4-2-0.8-2.9c-0.3-1-0.7-1.8-1.2-2.7c-0.4-0.8-1-1.5-1.6-2.1C431.3,48.5,430.5,48.2,429.8,48.2z"
				/>
			<path class="st2" d="M484.2,77.8c-1.7,0-3.5-0.3-5.2-0.9c-1.7-0.5-3.4-1.4-4.8-2.6c-1.4-1.1-2.6-2.5-3.5-4.1s-1.4-3.5-1.4-5.4
				c0-4.2,1.8-8.7,5.7-13.3c0.3-0.3,0.5-0.7,0.8-0.9c0.2-0.2,0.4-0.4,0.5-0.7c0.2-0.2,0.3-0.3,0.4-0.5l0.5-0.5l-2-1.6l6.4-7.8
				c1.1,0.8,2.4,2,3.9,3.3s3.3,3.2,5.2,5.2c5.5,6.3,8.3,11.9,8.3,16.9c0,2.2-0.4,4-1.3,5.7c-0.9,1.6-2.1,2.9-3.4,4.1
				c-1.4,1.1-3,2-4.8,2.5C487.8,77.6,485.9,77.8,484.2,77.8z M490.4,64.8c0-0.7-0.2-1.4-0.7-2.3c-0.4-0.9-1-1.7-1.6-2.6
				c-0.7-0.9-1.4-1.8-2.3-2.7c-0.9-1-1.7-1.8-2.6-2.7c-0.5,0.7-1.2,1.4-1.8,2.2s-1.2,1.6-1.7,2.5s-1,1.8-1.3,2.7
				c-0.3,1-0.5,1.8-0.4,2.8c0,0.5,0.2,1,0.8,1.3c0.4,0.4,1,0.7,1.6,1c0.7,0.2,1.3,0.4,2.1,0.5c0.8,0.1,1.3,0.2,1.8,0.2
				c0.7,0,1.3,0,2.1-0.1c0.8-0.1,1.4-0.2,2.1-0.5s1.1-0.5,1.5-1C490.2,65.8,490.4,65.4,490.4,64.8z"/>
			<path class="st2" d="M519.9,58.6c0.5,1.5,1,3.2,1.4,4.8c0.4,1.6,0.8,3.3,1.1,4.9s0.4,3.2,0.4,4.6c0,2-0.3,3.9-0.9,5.9
				s-1.3,3.8-2.3,5.5s-2.2,3.5-3.6,5.1c-1.4,1.6-2.8,3.2-4.6,4.7c-1.6,1.4-3.5,2.8-5.3,4s-3.9,2.4-5.9,3.4l-5.9-8.1
				c1.5-0.8,3-1.6,4.7-2.6c1.5-1,3-2.1,4.5-3.2s2.8-2.3,4-3.5s2.3-2.5,3.3-3.7c1-1.3,1.6-2.5,2.2-3.8s0.8-2.5,0.8-3.8
				c0-0.9-0.1-1.8-0.3-2.9s-0.5-2.2-1-3.4c-0.4-1.2-0.9-2.5-1.5-3.8c-0.5-1.3-1.2-2.8-1.8-4.4l9.2-4.2
				C518.9,55.7,519.3,57.1,519.9,58.6z"/>
			<path class="st2" d="M543.7,77.8c-2.7,0-4.9-0.3-6.7-1.1c-1.8-0.8-3.4-1.7-4.6-2.9c-1.2-1.2-2.1-2.7-2.5-4.5
				c-0.5-1.7-0.8-3.6-0.8-5.5c0-1,0-2.3,0.1-3.8c0-1.5,0.1-3.3,0.1-5.3s0-4.2,0-6.6c0-2.4-0.1-4.8-0.2-7.2c-0.1-2.4-0.2-4.7-0.4-7
				c-0.2-2.2-0.4-4.1-0.8-5.8l9.6-2.9c0.3,1.4,0.5,3,0.7,5s0.3,3.9,0.4,6c0.1,2.1,0.2,4.2,0.2,6.3s0.1,4,0.1,5.9c0,1.6,0,3.3-0.1,5
				s-0.1,3.5-0.2,5.1c0,1.6,0,3,0,4.4c0.1,1.3,0.3,2.3,0.5,2.9c0.2,0.5,0.4,0.9,0.8,1.1c0.3,0.2,0.7,0.4,1,0.5s0.8,0.2,1.3,0.2
				c0.4,0,1,0,1.5,0h0.9v10.1h-0.9L543.7,77.8L543.7,77.8z"/>
			<path class="st2" d="M573.6,67.7v10.1h-30.4V67.7H573.6z"/>
			<path class="st2" d="M572.3,67.7h2.3c0.1-1.4,0.3-2.9,0.7-4.6c0.3-1.6,0.9-3.4,1.5-5c0.7-1.6,1.4-3.3,2.3-4.9
				c0.9-1.5,1.8-2.9,2.9-4.2c1.1-1.2,2.2-2.3,3.5-3c1.2-0.8,2.5-1.2,3.9-1.3c1.4,0,2.7,0.4,3.9,1.2s2.3,1.8,3.2,3
				c0.9,1.3,1.5,2.7,2.1,4.2c0.5,1.6,0.8,3.3,0.8,4.9c0,2-0.4,3.8-1.2,5.7c-0.8,1.8-2,3.6-3.3,5.1c-1.3,1.6-2.8,3-4.6,4.2
				c-1.7,1.3-3.5,2.3-5.2,3.2c0.1,0.5,0.4,1.1,1,1.8c0.4,0.8,1,1.4,1.6,2.2c0.7,0.8,1.2,1.4,1.8,2.1s1.1,1.2,1.5,1.5
				c0-1.2,0.1-2.5,0.5-3.8s0.9-2.5,1.6-3.7c0.7-1.2,1.5-2.3,2.5-3.4s2-2,3-2.7c1.1-0.8,2.2-1.4,3.4-1.8s2.3-0.7,3.4-0.7h1.6v10.1
				h-1.7c-1,0-1.8,0.2-2.7,0.8c-0.9,0.5-1.6,1.1-2.3,2c-0.7,0.8-1.2,1.6-1.6,2.6c-0.4,1-0.7,2-0.7,2.9c0,0.4,0,0.9,0.1,1.2
				c0.1,0.3,0.2,0.8,0.3,1.1c0.2,0.4,0.4,0.8,0.7,1.2c0.3,0.4,0.7,0.9,1.1,1.4l-5.9,7.2c-2.6-1.5-4.8-3.2-6.7-4.8
				c-2-1.6-3.6-3.3-5-5S580,85,579,83.1c-1-1.8-1.7-3.5-2.4-5.3h-4.4V67.7H572.3z M591.2,59.5c0-0.5,0-1.2,0-2c0-0.7-0.1-1.3-0.3-2
				c-0.1-0.7-0.3-1.2-0.7-1.7c-0.3-0.5-0.7-0.9-1-1.2c-0.4,0.2-0.9,0.7-1.3,1.2c-0.4,0.7-1,1.3-1.4,2.2c-0.5,0.9-1,1.7-1.4,2.8
				c-0.4,1-0.9,2.1-1.2,3c-0.3,1.1-0.7,2.1-0.9,3c-0.2,1-0.3,1.8-0.3,2.7c0.9-0.2,1.8-0.5,2.8-1.1s2-1.2,2.7-2
				c0.9-0.8,1.5-1.6,2.2-2.5C590.8,61.5,591.1,60.5,591.2,59.5z"/>
			<path class="st2" d="M605.5,67.7h4.4c0.9,0,1.8-0.1,2.9-0.2c1.1-0.1,2.1-0.4,3-0.8c1-0.3,1.7-0.8,2.3-1.3c0.7-0.5,1-1.3,1-2.1
				c0-0.5-0.1-1.3-0.4-2.3c-0.3-1-0.7-2.2-1.2-3.4s-1.1-2.5-1.6-3.9c-0.7-1.4-1.2-2.7-1.8-3.9l9.1-4.6c0.5,1.3,1.2,2.8,1.7,4.2
				c0.5,1.5,1.1,3,1.6,4.6c0.4,1.5,0.9,3.2,1.1,4.7c0.3,1.5,0.4,3,0.4,4.5c0,2.6-0.4,4.8-1.3,6.6c-0.9,1.8-2.1,3.4-3.6,4.6
				s-3.4,2.1-5.5,2.6s-4.5,0.9-7.1,0.9h-5.1L605.5,67.7L605.5,67.7z M615.8,95.4l-7.1-7.1l7.1-7.1l7.1,7.1L615.8,95.4z"/>
			<path class="st2" d="M682.2,77.8c-1.8,0-3.9-0.1-6.2-0.2c-2.2-0.1-4.5-0.4-6.6-1c-2.2-0.4-4.4-1.1-6.4-2
				c-2.1-0.8-3.9-1.8-5.4-3.2c-1.6-1.3-2.9-2.8-3.9-4.8c-1-1.8-1.6-4-1.7-6.6c0-1.3,0.1-2.5,0.4-3.7c0.3-1.2,0.7-2.4,1.1-3.5
				c0.4-1.1,1-2.3,1.5-3.4c0.5-1.1,1.2-2.2,1.8-3.3l7.5,6.3c-0.3,0.4-0.7,1-1.1,1.7c-0.4,0.8-0.9,1.4-1.2,2.3
				c-0.4,0.8-0.8,1.6-1,2.4c-0.2,0.8-0.4,1.5-0.4,2.1c0,0.8,0.3,1.5,0.9,2.2c0.5,0.7,1.3,1.2,2.4,1.6c1,0.4,2.2,0.9,3.6,1.2
				c1.4,0.3,2.8,0.7,4.5,0.9s3.3,0.3,5.1,0.4c1.7,0.1,3.6,0.1,5.4,0.1c0.9,0,1.7,0,2.7,0s1.8,0,2.7,0s1.6,0,2.3-0.1
				c0.7,0,1.1,0,1.3-0.1c-0.8-0.9-1.4-2-2.1-3.2c-0.7-1.3-1-2.7-1.1-4.2c0-1.3,0.1-2.5,0.4-3.8c0.3-1.3,0.8-2.5,1.4-3.8
				c0.5-1.2,1.3-2.4,2.2-3.4c0.9-1.1,1.8-2,2.8-2.7c1.1-0.8,2.2-1.4,3.4-1.7c1.2-0.4,2.5-0.7,3.8-0.5c1.8,0.1,3.6,0.5,5.2,1.4
				c1.6,0.9,2.9,2,4.1,3.4c1.2,1.4,2.1,2.9,2.7,4.7s1,3.6,1,5.4c0,1.5-0.2,2.9-0.8,4.4c-0.5,1.4-1.1,2.7-1.8,4c1,0.1,2.1,0.2,3,0.3
				c1,0.1,1.8,0.1,2.7,0.1h1.1v10.1h-0.9c-1.3,0-2.7,0-4.1-0.1c-1.4,0-2.8-0.1-4.1-0.3c-1.4-0.2-2.7-0.4-4.1-0.8s-2.7-0.8-4-1.4
				c-0.5,0.3-1.2,0.5-2.1,0.9c-0.9,0.2-2,0.4-3,0.7c-1.1,0.2-2.4,0.3-3.7,0.5c-1.3,0.1-2.6,0.2-3.9,0.3c-1.3,0.1-2.6,0.2-3.8,0.2
				C684.4,77.8,683.2,77.8,682.2,77.8z M703.4,38.8l-7.1-7.1l7.1-7.1l7.1,7.1L703.4,38.8z M706.7,59.6c0-0.7-0.2-1.3-0.5-2
				s-0.8-1.2-1.2-1.6c-0.4-0.5-1-0.9-1.5-1.2s-1.1-0.5-1.5-0.7c-0.5,0.1-1.1,0.3-1.6,0.5c-0.7,0.3-1.2,0.7-1.7,1.2s-1.1,1.1-1.4,1.8
				c-0.4,0.8-0.5,1.5-0.5,2.5c0,0.3,0.2,0.8,0.5,1.3s0.8,1.1,1.3,1.7c0.5,0.5,1.1,1.1,1.7,1.6s1.4,0.9,2.1,1.1
				c0.5-0.3,1.1-0.8,1.6-1.2c0.5-0.5,1.1-1.1,1.5-1.6s0.8-1.2,1.1-1.7C706.5,60.7,706.7,60.2,706.7,59.6z"/>
			<path class="st2" d="M748.4,67.7v10.1H718V67.7H748.4z"/>
			<path class="st2" d="M775.7,67.7v10.1H775c-1,0-2.1-0.1-3-0.2c-1-0.2-2-0.4-2.8-0.8c-0.9-0.3-1.6-0.7-2.4-1.1
				c-0.8-0.4-1.4-0.9-2-1.4c-1,0.8-2.2,1.4-3.5,1.8s-2.6,0.8-4.1,1.1c-1.4,0.2-2.9,0.4-4.5,0.4c-1.5,0.1-3,0.1-4.5,0.1H747v-10h1.2
				c1.5,0,2.9,0,4.1-0.1c1.2-0.1,2.3-0.2,3.2-0.4c0.9-0.2,1.6-0.5,2.3-0.9c0.7-0.3,1.1-0.8,1.5-1.3c0.5-0.7,0.8-1.4,0.9-2.3
				s0.1-1.7,0-2.6c-0.1-0.9-0.2-1.7-0.5-2.6c-0.2-0.9-0.4-1.7-0.7-2.5l9.4-2.6c0.2,1,0.4,1.8,0.7,2.6s0.3,1.5,0.4,2.3
				c0.1,0.8,0.2,1.5,0.3,2.3s0.2,1.6,0.3,2.5c0.1,0.5,0.2,1.2,0.3,1.8c0.1,0.7,0.3,1.3,0.7,1.8c0.3,0.5,0.8,1.1,1.3,1.4
				c0.5,0.4,1.3,0.5,2.2,0.5C774.5,67.7,775.7,67.7,775.7,67.7z M759.6,87.2l-6,6l-6.2-6.2l6.2-6.2l6.1,6.1l6-6l6.2,6.2l-6.2,6.2
				L759.6,87.2z"/>
			<path class="st2" d="M774.4,67.7h2.3c0.5,0,1,0,1.5,0s1-0.1,1.4-0.1s0.8-0.1,1-0.2c-0.4-0.4-0.8-0.9-1.1-1.4s-0.7-1.1-1-1.6
				s-0.5-1.2-0.8-2c-0.2-0.8-0.3-1.4-0.3-2.3c0-1.3,0.1-2.5,0.4-3.8c0.3-1.3,0.8-2.5,1.4-3.8c0.5-1.2,1.3-2.4,2.2-3.4
				c0.9-1.1,1.8-2,2.8-2.7c1.1-0.8,2.2-1.4,3.4-1.7c1.2-0.4,2.5-0.7,3.8-0.5c1.8,0.1,3.6,0.5,5.2,1.4s2.9,2,4.1,3.4
				c1.2,1.4,2.1,2.9,2.7,4.7c0.7,1.7,1,3.6,1,5.4c0,1.5-0.2,2.9-0.8,4.4c-0.5,1.4-1.1,2.7-1.8,4c0.5,0.1,1.2,0.2,2.1,0.3
				c0.8,0.1,1.8,0.1,3.2,0.1h0.7V78h-1.2c-1.4,0-2.7,0-3.9-0.1s-2.5-0.2-3.7-0.4c-1.2-0.2-2.4-0.4-3.6-0.8c-1.2-0.3-2.5-0.8-3.8-1.3
				c-0.8,0.4-1.7,0.9-2.9,1.2s-2.5,0.5-3.9,0.8c-1.4,0.2-2.8,0.3-4.5,0.4c-1.5,0.1-3,0.1-4.6,0.1h-1.2V67.7H774.4z M790.9,39.5
				l-7.1-7.1l7.1-7.1l7.1,7.1L790.9,39.5z M796.1,59.6c0-0.7-0.2-1.3-0.5-2s-0.8-1.2-1.2-1.6c-0.4-0.5-1-0.9-1.5-1.2
				s-1.1-0.5-1.5-0.7c-0.5,0.1-1.1,0.3-1.6,0.5c-0.7,0.3-1.2,0.7-1.7,1.2s-1.1,1.1-1.4,1.8c-0.4,0.8-0.5,1.5-0.5,2.5
				c0,0.3,0.2,0.8,0.5,1.3s0.8,1.1,1.3,1.7c0.5,0.5,1.1,1.1,1.7,1.6c0.7,0.5,1.4,0.9,2.1,1.1c0.5-0.3,1.1-0.8,1.6-1.2
				c0.5-0.5,1.1-1.1,1.5-1.6s0.8-1.2,1.1-1.7C796,60.7,796.1,60.2,796.1,59.6z"/>
			<path class="st2" d="M806.5,67.7h6.5c1.5,0,3.2-0.1,4.9-0.3c1.7-0.2,3.5-0.5,5.3-0.9s3.6-0.8,5.4-1.3s3.6-1.1,5.3-1.6
				s3.4-1.2,5-1.8c1.6-0.7,3-1.3,4.4-2c-1.3-0.3-2.8-0.8-4.5-1.3c-1.6-0.5-3.3-1.1-4.9-1.7s-3.3-1-4.9-1.4c-1.5-0.4-2.9-0.5-4.2-0.5
				c-0.8,0-1.5,0.2-2.3,0.5s-1.4,0.7-2.1,1.2c-0.7,0.5-1.2,1-1.7,1.5s-1,1-1.3,1.5c-0.3,0.4-0.7,0.9-0.9,1.2l-0.3,0.4l-7.6-4.4
				c0.9-1.6,1.8-3.2,3-4.6c1.2-1.4,2.5-2.7,3.9-3.9s2.9-2,4.5-2.7c1.5-0.7,3-1,4.7-1c1.2,0,2.3,0.1,3.5,0.4c1.2,0.3,2.3,0.5,3.5,1
				c1.2,0.4,2.3,0.9,3.5,1.4s2.4,1.1,3.6,1.6c1.2,0.5,2.6,1.2,4,1.7c1.5,0.5,3,1.1,4.7,1.5c1.6,0.4,3.3,0.8,4.9,1.1s3.3,0.4,4.9,0.4
				l-1.6,9.5c-0.5,0.2-1.1,0.4-1.6,0.8c-0.7,0.3-1.2,0.5-1.6,0.8l-0.9,0.4c0.5,0.5,1.1,1.1,1.8,1.4c0.8,0.3,1.5,0.5,2.3,0.8
				c0.8,0.1,1.5,0.2,2.3,0.3c0.8,0,1.3,0.1,1.7,0.1h1.1V78h-1.1c-2.1,0-4-0.2-5.8-0.5s-3.5-0.9-4.9-1.6c-1.5-0.7-2.8-1.5-3.9-2.5
				c-1.1-1-2.1-2.1-2.8-3.4c-2.1,1-4.4,2.1-6.6,2.9c-2.3,1-4.7,1.8-7.1,2.6c-2.5,0.8-5,1.4-7.6,1.8s-5.3,0.7-8.2,0.7h-6.5V67.7
				H806.5z M824.6,41.4l-7.1-7.1l7.1-7.1l7.1,7.1L824.6,41.4z"/>
			<path class="st2" d="M859.8,67.7h7.7c0.9,0,2,0,3-0.1c1.1-0.1,2.2-0.3,3.2-0.5c1-0.3,1.7-0.8,2.4-1.3s1-1.4,1-2.3
				c0-0.5-0.1-1.3-0.4-2.3c-0.3-1-0.8-2.2-1.2-3.4s-1.1-2.5-1.7-3.9c-0.7-1.4-1.3-2.7-1.8-3.9l9.1-4.6c0.5,1.3,1.2,2.8,1.7,4.2
				c0.5,1.5,1.1,3,1.6,4.6c0.5,1.5,0.9,3.2,1.1,4.7c0.3,1.5,0.4,3,0.4,4.5c0,2.6-0.4,4.9-1.4,6.7s-2.3,3.4-3.9,4.5
				c-1.6,1.2-3.6,2-5.9,2.5c-2.3,0.5-4.7,0.8-7.2,0.8h-7.6L859.8,67.7L859.8,67.7z M874.7,34.7l-6,6l-6.2-6.2l6.2-6.2l6.1,6.1l6-6
				l6.2,6.2l-6.2,6.2L874.7,34.7z"/>
			<path class="st2" d="M925.3,77.8c-1.7,0-3.5-0.3-5.2-0.9s-3.4-1.4-4.8-2.6c-1.4-1.1-2.6-2.5-3.5-4.1s-1.4-3.5-1.4-5.4
				c0-4.2,1.8-8.7,5.7-13.3c0.3-0.3,0.5-0.7,0.8-0.9c0.2-0.2,0.4-0.4,0.5-0.7s0.3-0.3,0.4-0.5l0.5-0.5l-2-1.6l6.4-7.8
				c1.1,0.8,2.4,2,3.9,3.3c1.5,1.4,3.3,3.2,5.2,5.2c5.5,6.3,8.3,11.9,8.3,16.9c0,2.2-0.4,4-1.3,5.7c-0.9,1.6-2.1,2.9-3.4,4.1
				c-1.4,1.1-3,2-4.8,2.5C928.9,77.6,927.2,77.8,925.3,77.8z M931.5,64.8c0-0.7-0.2-1.4-0.7-2.3c-0.4-0.9-1-1.7-1.6-2.6
				c-0.7-0.9-1.4-1.8-2.3-2.7c-0.9-1-1.7-1.8-2.6-2.7c-0.5,0.7-1.2,1.4-1.8,2.2c-0.7,0.8-1.2,1.6-1.7,2.5s-1,1.8-1.3,2.7
				c-0.3,1-0.5,1.8-0.4,2.8c0,0.5,0.2,1,0.8,1.3s1,0.7,1.6,1c0.7,0.2,1.3,0.4,2.1,0.5s1.3,0.2,1.8,0.2c0.7,0,1.3,0,2.1-0.1
				s1.4-0.2,2.1-0.5c0.7-0.2,1.1-0.5,1.5-1C931.3,65.8,931.5,65.4,931.5,64.8z"/>
			<path class="st2" d="M961,58.6c0.5,1.5,1,3.2,1.4,4.8c0.4,1.6,0.8,3.3,1.1,4.9s0.4,3.2,0.4,4.6c0,2-0.3,3.9-0.9,5.9
				c-0.5,2-1.3,3.8-2.3,5.5s-2.2,3.5-3.6,5.1s-2.8,3.2-4.6,4.7c-1.6,1.4-3.5,2.8-5.3,4s-3.9,2.4-5.9,3.4l-5.9-8.1
				c1.5-0.8,3-1.6,4.7-2.6c1.5-1,3-2.1,4.6-3.2c1.4-1.1,2.8-2.3,4-3.5s2.3-2.5,3.3-3.7c1-1.3,1.6-2.5,2.2-3.8
				c0.5-1.3,0.8-2.5,0.8-3.8c0-0.9-0.1-1.8-0.3-2.9s-0.5-2.2-1-3.4c-0.4-1.2-0.9-2.5-1.5-3.8c-0.5-1.3-1.2-2.8-1.8-4.4l9.2-4.2
				C960,55.7,960.5,57.1,961,58.6z"/>
			<path class="st2" d="M970,72.5c0.1-1.8,0.2-3.7,0.3-5.5s0.1-3.6,0.1-5.3s0-3.4-0.1-4.8c-0.1-3-0.2-5.7-0.3-7.9s-0.2-4.4-0.3-6.1
				c-0.1-1.7-0.2-3.4-0.3-4.7s-0.2-2.5-0.3-3.7c-0.1-1.1-0.2-2.2-0.4-3.2c-0.1-1-0.3-2-0.4-3l9.9-3.3c0.4,2.8,0.9,5.8,1.1,8.6
				c0.3,2.9,0.5,5.7,0.7,8.4c0.1,2.6,0.2,5.1,0.3,7.4c0.1,2.3,0.1,4.2,0.1,5.9c0,1.5,0,3,0,4.8c0,1.7,0,3.5-0.1,5.3
				c-0.1,1.8-0.3,3.6-0.3,5.4c-0.1,1.8-0.1,3.7-0.3,5.5l-9.9,1.5C969.8,76.2,969.9,74.3,970,72.5z"/>
			<path class="st2" d="M983.2,90.5c3-0.5,5.8-1.3,8.3-2.3c2.5-0.9,4.7-2,6.5-3s3.4-2.3,4.7-3.6c1.2-1.3,2.1-2.5,2.6-3.8
				c-0.9,0-1.8,0-2.9,0c-1,0-1.8-0.1-2.5-0.1c-2.1-0.2-4-0.5-5.8-1.2c-1.7-0.7-3.3-1.5-4.5-2.6s-2.2-2.4-2.9-4s-1-3.4-1-5.4
				c0-1.3,0.1-2.6,0.4-4c0.3-1.4,0.7-2.7,1.2-4s1.2-2.5,2-3.7s1.6-2.2,2.6-3c1-0.9,2.1-1.5,3.3-2.1c1.2-0.5,2.5-0.8,3.8-0.8
				c1.6,0,3.2,0.3,4.5,0.9c1.4,0.5,2.6,1.4,3.8,2.4c1.1,1,2.2,2.2,3,3.6c0.9,1.3,1.6,2.8,2.3,4.4c0.7,1.5,1.2,3.2,1.6,4.8
				c0.4,1.6,0.8,3.3,0.9,4.9h1.4V78h-2.1c-0.9,3.2-2.2,6-4,8.5s-4,4.8-6.5,6.6s-5.3,3.5-8.5,4.7s-6.3,2.1-9.7,2.6L983.2,90.5z
				 M998.9,57c-0.4-0.1-1,0.1-1.5,0.4c-0.5,0.4-1.1,1-1.6,1.6s-0.9,1.4-1.2,2.2s-0.5,1.6-0.4,2.3c0,0.8,0.2,1.3,0.7,1.7
				c0.4,0.4,1,0.9,1.7,1.2c0.7,0.3,1.5,0.5,2.4,0.7c0.9,0.1,1.7,0.2,2.6,0.3c0.9,0.1,1.7,0.1,2.5,0.1h2c-0.3-1.3-0.7-2.6-1.1-3.8
				c-0.4-1.2-1-2.3-1.5-3.3s-1.2-1.7-2-2.4C1000.6,57.4,999.7,57.2,998.9,57z"/>
			<path class="st2" d="M1045.4,67.7v10.1H1015V67.7H1045.4z"/>
			<path class="st2" d="M1068,67.7v10.1h-0.7c-2.1,0-3.8-0.3-5.2-0.9s-2.7-1.4-3.7-2.4c-1.5,1.1-3.4,2-5.4,2.5
				c-2.1,0.5-4.6,0.8-7.5,0.8h-1.2V67.7h1.2c2.9,0,5.1-0.4,6.6-1.4s2.3-2.4,2.3-4.4c0-0.7-0.1-1.5-0.2-2.7c-0.2-1.2-0.5-2.7-1.1-4.6
				l9-2.2c0.3,1.2,0.7,2.2,0.9,3.2c0.2,1,0.4,1.7,0.5,2.5s0.2,1.4,0.3,2.1c0.1,0.7,0.1,1.2,0.1,1.8c0,0.5,0.1,1.2,0.2,2
				c0.1,0.7,0.2,1.3,0.5,1.8s0.5,1.1,1,1.4c0.4,0.3,1,0.5,1.7,0.5h0.5l0,0H1068z M1054.2,47.3l-7.1-7.1l7.1-7.1l7.1,7.1L1054.2,47.3
				z"/>
			<path class="st2" d="M1067.3,67.7c1.1,0,2.2-0.2,3.2-0.5s2-1.1,2.8-2.2c0.9-1.1,1.7-2.6,2.5-4.6s1.5-4.5,2.2-7.6l8.5,1.2
				c0,0.1,0,0.2-0.1,0.4c-0.1,0.5-0.3,1.3-0.4,2.3c-0.2,1-0.3,2.1-0.5,3.3c-0.1,1.2-0.2,2.4-0.2,3.5c0,1.1,0.1,2.1,0.4,2.8
				s0.7,1.3,1.3,1.4c0.7,0.2,1.3,0,2-0.4s1.2-1.1,1.7-1.8c0.5-0.9,1.1-1.7,1.5-2.8s0.9-2.2,1.3-3.4s0.8-2.3,1-3.4
				c0.3-1.1,0.5-2.1,0.7-2.9l8.5,1.2c0,0.5-0.1,1.2-0.2,2.2c-0.1,0.9-0.2,1.8-0.2,2.8s-0.1,2-0.1,3s0.1,2,0.3,2.7
				c0.2,0.9,0.5,1.5,1,2.1c0.4,0.5,1.1,0.8,1.8,0.8c0.7,0,1.3-0.2,1.8-0.7c0.5-0.4,1-1.1,1.3-1.8c0.3-0.8,0.7-1.6,0.9-2.6
				c0.2-1,0.3-2,0.4-2.9c0.1-1,0.1-2,0.1-2.9s0-1.7-0.1-2.5l8.6-1.2l1.1,9c0.1,1,0.4,1.8,0.9,2.6c0.4,0.8,1,1.3,1.5,1.8
				c0.5,0.4,1.2,0.9,1.8,1.1c0.7,0.2,1.2,0.3,1.8,0.3h1v10h-1c-2.1,0-4-0.3-5.9-1.1c-1.8-0.8-3.4-2-4.8-3.7
				c-0.1,0.2-0.2,0.3-0.4,0.4c-0.1,0.1-0.2,0.2-0.3,0.4l0,0c-1.2,1.2-2.5,2.2-4,2.9c-1.5,0.8-3.2,1.1-4.9,1.1c-2,0-3.7-0.4-5.3-1.2
				c-1.6-0.8-3-2-4.1-3.4c-1.3,1.4-2.7,2.5-4.4,3.4c-1.6,0.9-3.4,1.3-5.3,1.3c-1.8,0-3.5-0.4-5.1-1.2c-1.6-0.8-2.8-2-3.9-3.4
				c-1.2,1.6-2.6,2.7-4.2,3.4c-1.7,0.7-3.8,1-6.3,1h-0.7V67.7H1067.3z M1086.4,54.1L1086.4,54.1
				C1086.4,53.8,1086.4,53.8,1086.4,54.1z M1099.3,40.5l-6,6l-6.2-6.2l6.2-6.2l6.1,6.1l6-6l6.2,6.2l-6.2,6.2L1099.3,40.5z
				 M1105.1,31.1l-5.7,5.7l-5.8-5.8l5.7-5.7L1105.1,31.1z"/>
			<path class="st2" d="M1125.9,67.7h6.7c3.5,0,6.6-0.2,9.6-0.7s5.5-1,8.2-1.6c2.5-0.7,4.9-1.5,7.2-2.5c2.3-1,4.5-1.8,6.6-2.9
				c-1.4-0.4-2.9-0.9-4.4-1.5c-1.4-0.5-2.9-1.2-4.4-1.7s-2.9-1-4.4-1.4c-1.4-0.4-2.9-0.5-4.4-0.5c-1,0-2,0.2-2.9,0.8
				c-1,0.5-1.8,1.1-2.6,1.8c-0.8,0.7-1.4,1.3-2,2s-0.9,1.1-1,1.3l-7.4-4.8c0.8-1.4,1.7-2.8,2.8-4.2c1.1-1.4,2.3-2.6,3.7-3.6
				c1.3-1.1,2.7-2,4.4-2.5c1.6-0.5,3.2-1,4.9-1c1.3,0,2.5,0.1,3.8,0.4c1.3,0.2,2.5,0.7,3.8,1.1c1.2,0.4,2.5,0.9,3.7,1.4
				s2.4,1.1,3.6,1.6c1.1,0.5,2.3,1.1,3.4,1.6c1.2,0.5,2.3,1,3.6,1.4c1.2,0.4,2.5,0.8,3.8,1.1s2.7,0.4,4.1,0.4l-0.8,9.8l-4.6,2.2
				c-1.8,0.9-3.7,1.8-5.5,2.7c-1.8,0.9-3.7,1.8-5.7,2.7c-1.8,0.9-3.9,1.7-5.9,2.5c-2.1,0.8-4.1,1.5-6.4,2.1
				c-2.2,0.5-4.6,1.1-7.1,1.4s-5.1,0.5-7.9,0.5h-6.7L1125.9,67.7L1125.9,67.7z M1152.4,95.3l-7.1-7.1l7.1-7.1l7.1,7.1L1152.4,95.3z"
				/>
		</g>
	</g>
</g>
<g>
	<path class="st2" d="M963,153.5h23.3c2.1,0,3.6-0.5,4.5-1.4c1-0.9,1.4-2.4,1.4-4.5v-5.2v-1h1.1h4.9h1.1v1v5.1
		c0,4.1-1.1,7.3-3.4,9.5c-2.2,2.2-5.5,3.3-9.9,3.3h-23.1c-4.3,0-7.7-1.1-10-3.2c-2.3-2.2-3.5-5.3-3.5-9.4v-5.3v-1h1.1h4.9h1.1v1v5.2
		c0,2,0.5,3.5,1.5,4.5C959.2,153,960.8,153.5,963,153.5z M964.6,136.9l4.8-4.4l4.7,4.4l-4.7,4.4L964.6,136.9z M974.8,136.9l4.7-4.4
		l4.8,4.4c-0.1,0.1-0.2,0.2-0.3,0.3c-0.2,0.2-0.9,0.8-2,1.8s-1.9,1.7-2.5,2.3L974.8,136.9z"/>
	<path class="st2" d="M1018,160.3h-1.3c-3.4,0-5.9-0.9-7.7-2.8c-1.8-1.9-2.6-4.6-2.6-8.1v-23v-1h1.1h4.7h1.1v1v23
		c0,1.5,0.3,2.5,0.8,3.1c0.6,0.6,1.4,0.9,2.6,0.9h1.2c0.2,0,0.4,0.4,0.5,1.1c0.1,0.7,0.2,1.4,0.2,2.1v0.3c0,0.7-0.1,1.4-0.2,2.2
		C1018.4,159.9,1018.3,160.3,1018,160.3z"/>
	<path class="st2" d="M1025.1,153.5c0.2,0,0.4,0.4,0.5,1.1c0.1,0.7,0.2,1.4,0.2,2.1v0.3c0,0.7-0.1,1.4-0.2,2.2
		c-0.1,0.7-0.3,1.1-0.5,1.1h-7.3c-0.2,0-0.4-0.4-0.5-1.1c-0.1-0.7-0.2-1.5-0.2-2.2v-0.3c0-0.7,0.1-1.4,0.2-2.1s0.3-1.1,0.5-1.1
		H1025.1z"/>
	<path class="st2" d="M1032.1,153.5c0.2,0,0.4,0.4,0.5,1.1c0.1,0.7,0.2,1.4,0.2,2.1v0.3c0,0.7-0.1,1.4-0.2,2.2
		c-0.1,0.7-0.3,1.1-0.5,1.1h-7.3c-0.2,0-0.4-0.4-0.5-1.1c-0.1-0.7-0.2-1.5-0.2-2.2v-0.3c0-0.7,0.1-1.4,0.2-2.1s0.3-1.1,0.5-1.1
		H1032.1z"/>
	<path class="st2" d="M1039.2,153.5c0.2,0,0.4,0.4,0.5,1.1c0.1,0.7,0.2,1.4,0.2,2.1v0.3c0,0.7-0.1,1.4-0.2,2.2
		c-0.1,0.7-0.3,1.1-0.5,1.1h-7.3c-0.2,0-0.4-0.4-0.5-1.1c-0.1-0.7-0.2-1.5-0.2-2.2v-0.3c0-0.7,0.1-1.4,0.2-2.1s0.3-1.1,0.5-1.1
		H1039.2z"/>
	<path class="st2" d="M1046.2,153.5c0.2,0,0.4,0.4,0.5,1.1c0.1,0.7,0.2,1.4,0.2,2.1v0.3c0,0.7-0.1,1.4-0.2,2.2
		c-0.1,0.7-0.3,1.1-0.5,1.1h-7.3c-0.2,0-0.4-0.4-0.5-1.1c-0.1-0.7-0.2-1.5-0.2-2.2v-0.3c0-0.7,0.1-1.4,0.2-2.1s0.3-1.1,0.5-1.1
		H1046.2z"/>
	<path class="st2" d="M1046,153.5h6.1c-1.5-1.8-2.3-3.8-2.3-6c0-3.3,1.2-6,3.5-8.2s5.3-3.2,8.8-3.2c4,0,7.3,1.4,9.8,4.3l0.5,0.5
		l-0.4,0.6l-2.1,3.5l-0.7,1.2l-1.1-0.9c-1.7-1.5-3.7-2.3-6-2.3c-1.5,0-2.7,0.4-3.7,1.2s-1.5,1.9-1.5,3.2s0.8,2.5,2.3,3.7
		c1.4,1.1,2.5,1.6,3.1,1.6s1.7-0.2,3.5-0.6l6-1.3l1.4-0.3v1.3v4.7v0.8l-0.8,0.2c-6.6,1.9-12.5,2.8-17.7,2.8h-8.8
		c-0.2,0-0.4-0.4-0.5-1.1c-0.1-0.7-0.2-1.5-0.2-2.2v-0.3c0-0.7,0.1-1.4,0.2-2.1C1045.6,153.9,1045.8,153.5,1046,153.5z"/>
	<path class="st2" d="M1091.9,160.3h-1.3c-3.4,0-5.9-0.9-7.7-2.8c-1.8-1.9-2.6-4.6-2.6-8.1v-23v-1h1.1h4.7h1.1v1v23
		c0,1.5,0.3,2.5,0.8,3.1c0.6,0.6,1.4,0.9,2.6,0.9h1.2c0.2,0,0.4,0.4,0.5,1.1c0.1,0.7,0.2,1.4,0.2,2.1v0.3c0,0.7-0.1,1.4-0.2,2.2
		C1092.3,159.9,1092.1,160.3,1091.9,160.3z"/>
	<path class="st2" d="M1098.9,153.5c0.2,0,0.4,0.4,0.5,1.1c0.1,0.7,0.2,1.4,0.2,2.1v0.3c0,0.7-0.1,1.4-0.2,2.2
		c-0.1,0.7-0.3,1.1-0.5,1.1h-7.3c-0.2,0-0.4-0.4-0.5-1.1c-0.1-0.7-0.2-1.5-0.2-2.2v-0.3c0-0.7,0.1-1.4,0.2-2.1s0.3-1.1,0.5-1.1
		H1098.9z"/>
	<path class="st2" d="M1105.9,153.5c0.2,0,0.4,0.4,0.5,1.1c0.1,0.7,0.2,1.4,0.2,2.1v0.3c0,0.7-0.1,1.4-0.2,2.2
		c-0.1,0.7-0.3,1.1-0.5,1.1h-7.3c-0.2,0-0.4-0.4-0.5-1.1c-0.1-0.7-0.2-1.5-0.2-2.2v-0.3c0-0.7,0.1-1.4,0.2-2.1s0.3-1.1,0.5-1.1
		H1105.9z"/>
	<path class="st2" d="M1113,153.5c0.2,0,0.4,0.4,0.5,1.1c0.1,0.7,0.2,1.4,0.2,2.1v0.3c0,0.7-0.1,1.4-0.2,2.2
		c-0.1,0.7-0.3,1.1-0.5,1.1h-7.3c-0.2,0-0.4-0.4-0.5-1.1c-0.1-0.7-0.2-1.5-0.2-2.2v-0.3c0-0.7,0.1-1.4,0.2-2.1s0.3-1.1,0.5-1.1H1113
		z"/>
	<path class="st2" d="M1112.7,153.5h2.7c2,0,3.4-0.3,4.3-1s1.3-1.7,1.3-3.1v-6.8v-1h1.1h4.8h1.1v1v6.9c0,1.4,0.3,2.5,1,3.1
		c0.6,0.6,1.7,0.9,3.2,0.9c1.4,0,2.4-0.3,3-0.9c0.6-0.6,0.9-1.6,0.9-3.1v-6.8v-1h1.1h4.8h1.1v1v6.8c0,1.5,0.3,2.5,1,3.1
		c0.6,0.6,1.6,0.9,3,0.9c1.1,0,1.8-0.3,2.3-0.9c0.5-0.6,0.7-1.6,0.7-3.1v-7.7v-1h1.1h4.9h1.1v1v7.9c0,3.3-0.9,5.8-2.7,7.7
		c-1.8,1.9-4.2,2.8-7.4,2.8c-3.3,0-5.8-1-7.5-2.9c-1.8,2-4.4,2.9-7.8,2.9c-3.1,0-5.6-1-7.5-3c-2,2-5.1,3-9.2,3h-2.7
		c-0.2,0-0.4-0.4-0.5-1.1c-0.1-0.7-0.2-1.5-0.2-2.2v-0.3c0-0.7,0.1-1.4,0.2-2.1C1112.3,153.9,1112.5,153.5,1112.7,153.5z"/>
	<path class="st2" d="M987.7,204.8h-0.4v1c0,3.5-1.4,6.2-4.3,8s-7,2.8-12.3,2.8H968c-5.8,0-10.2-1.3-13.2-3.9
		c-3-2.6-4.5-6.5-4.5-11.5v-8.9v-1h1.1h4.9h1.1v1v8.9c0,3,0.8,5.2,2.5,6.6c1.7,1.4,4.3,2.1,8,2.1h2.7c1.4,0,2.7-0.1,3.8-0.2
		c1.1-0.1,2.1-0.3,3-0.7c0.9-0.3,1.6-0.7,2-1.3s0.7-1.2,0.7-2v-0.8h-6c-0.9,0-1.5-0.2-2-0.7s-0.9-1.3-1.2-2.4
		c-0.4-1.4-0.6-2.4-0.4-2.9c0.2-0.5,0.7-0.8,1.7-0.8h15.5c0.2,0,0.4,0.4,0.5,1.1c0.1,0.7,0.2,1.4,0.2,2.1v0.3c0,0.7-0.1,1.4-0.2,2.2
		C988.1,204.4,988,204.8,987.7,204.8z M991.2,198c0.1,0,0.2,0.4,0.3,1.1c0.1,0.7,0.1,1.4,0.1,2.1v0.3c0,0.7,0,1.4-0.1,2.2
		c-0.1,0.7-0.2,1.1-0.3,1.1H987c-0.1,0-0.2-0.4-0.3-1.1c-0.1-0.7-0.1-1.5-0.1-2.2v-0.3c0-0.7,0-1.4,0.1-2.1c0.1-0.7,0.2-1.1,0.3-1.1
		H991.2z"/>
	<path class="st2" d="M998,198c0.2,0,0.4,0.4,0.5,1.1c0.1,0.7,0.2,1.4,0.2,2.1v0.3c0,0.7-0.1,1.4-0.2,2.2c-0.1,0.7-0.3,1.1-0.5,1.1
		h-7.3c-0.2,0-0.4-0.4-0.5-1.1c-0.1-0.7-0.2-1.5-0.2-2.2v-0.3c0-0.7,0.1-1.4,0.2-2.1s0.3-1.1,0.5-1.1H998z"/>
	<path class="st2" d="M1005.1,198c0.2,0,0.4,0.4,0.5,1.1c0.1,0.7,0.2,1.4,0.2,2.1v0.3c0,0.7-0.1,1.4-0.2,2.2
		c-0.1,0.7-0.3,1.1-0.5,1.1h-7.3c-0.2,0-0.4-0.4-0.5-1.1c-0.1-0.7-0.2-1.5-0.2-2.2v-0.3c0-0.7,0.1-1.4,0.2-2.1s0.3-1.1,0.5-1.1
		H1005.1z"/>
	<path class="st2" d="M1012.1,198c0.2,0,0.4,0.4,0.5,1.1c0.1,0.7,0.2,1.4,0.2,2.1v0.3c0,0.7-0.1,1.4-0.2,2.2
		c-0.1,0.7-0.3,1.1-0.5,1.1h-7.3c-0.2,0-0.4-0.4-0.5-1.1c-0.1-0.7-0.2-1.5-0.2-2.2v-0.3c0-0.7,0.1-1.4,0.2-2.1s0.3-1.1,0.5-1.1
		H1012.1z"/>
	<path class="st2" d="M1019.2,198c0.2,0,0.4,0.4,0.5,1.1c0.1,0.7,0.2,1.4,0.2,2.1v0.3c0,0.7-0.1,1.4-0.2,2.2
		c-0.1,0.7-0.3,1.1-0.5,1.1h-7.3c-0.2,0-0.4-0.4-0.5-1.1c-0.1-0.7-0.2-1.5-0.2-2.2v-0.3c0-0.7,0.1-1.4,0.2-2.1s0.3-1.1,0.5-1.1
		H1019.2z"/>
	<path class="st2" d="M1026.2,198c0.2,0,0.4,0.4,0.5,1.1c0.1,0.7,0.2,1.4,0.2,2.1v0.3c0,0.7-0.1,1.4-0.2,2.2
		c-0.1,0.7-0.3,1.1-0.5,1.1h-7.3c-0.2,0-0.4-0.4-0.5-1.1c-0.1-0.7-0.2-1.5-0.2-2.2v-0.3c0-0.7,0.1-1.4,0.2-2.1s0.3-1.1,0.5-1.1
		H1026.2z"/>
	<path class="st2" d="M1033.3,198c0.2,0,0.4,0.4,0.5,1.1c0.1,0.7,0.2,1.4,0.2,2.1v0.3c0,0.7-0.1,1.4-0.2,2.2
		c-0.1,0.7-0.3,1.1-0.5,1.1h-7.3c-0.2,0-0.4-0.4-0.5-1.1c-0.1-0.7-0.2-1.5-0.2-2.2v-0.3c0-0.7,0.1-1.4,0.2-2.1s0.3-1.1,0.5-1.1
		H1033.3z"/>
	<path class="st2" d="M1033,198h5.7c1.8,0,3-0.3,3.6-0.8s1-1.6,1-3.2v-7.7v-1h1.1h4.9h1.1v1v7.7c0,3.5-1,6.2-3,8s-4.9,2.8-8.8,2.8
		h-5.7c-0.2,0-0.4-0.4-0.5-1.1c-0.1-0.7-0.2-1.5-0.2-2.2v-0.3c0-0.7,0.1-1.4,0.2-2.1C1032.6,198.4,1032.8,198,1033,198z
		 M1040.3,176.9l4.9-4.5l4.9,4.5l-4.9,4.5L1040.3,176.9z"/>
	<path class="st2" d="M1070,204.8h-1.3c-3.4,0-5.9-0.9-7.7-2.8c-1.8-1.9-2.6-4.6-2.6-8.1v-23v-1h1.1h4.7h1.1v1v23
		c0,1.5,0.3,2.5,0.8,3.1c0.6,0.6,1.4,0.9,2.6,0.9h1.2c0.2,0,0.4,0.4,0.5,1.1c0.1,0.7,0.2,1.4,0.2,2.1v0.3c0,0.7-0.1,1.4-0.2,2.2
		C1070.4,204.4,1070.2,204.8,1070,204.8z"/>
	<path class="st2" d="M1077.1,198c0.2,0,0.4,0.4,0.5,1.1c0.1,0.7,0.2,1.4,0.2,2.1v0.3c0,0.7-0.1,1.4-0.2,2.2
		c-0.1,0.7-0.3,1.1-0.5,1.1h-7.3c-0.2,0-0.4-0.4-0.5-1.1c-0.1-0.7-0.2-1.5-0.2-2.2v-0.3c0-0.7,0.1-1.4,0.2-2.1s0.3-1.1,0.5-1.1
		H1077.1z"/>
	<path class="st2" d="M1084.1,198c0.2,0,0.4,0.4,0.5,1.1c0.1,0.7,0.2,1.4,0.2,2.1v0.3c0,0.7-0.1,1.4-0.2,2.2
		c-0.1,0.7-0.3,1.1-0.5,1.1h-7.3c-0.2,0-0.4-0.4-0.5-1.1c-0.1-0.7-0.2-1.5-0.2-2.2v-0.3c0-0.7,0.1-1.4,0.2-2.1s0.3-1.1,0.5-1.1
		H1084.1z"/>
	<path class="st2" d="M1081.7,213.5l4.8-4.4l4.7,4.4l-4.7,4.4L1081.7,213.5z M1083.9,198h8c1.8,0,3-0.3,3.6-0.8s1-1.6,1-3.2v-7.7v-1
		h1.1h4.9h1.1v1v7.7c0,3.5-1,6.2-3,8c-2,1.9-4.9,2.8-8.7,2.8h-8c-0.2,0-0.4-0.4-0.5-1.1c-0.1-0.7-0.2-1.5-0.2-2.2v-0.3
		c0-0.7,0.1-1.4,0.2-2.1S1083.6,198,1083.9,198z M1091.9,213.5l4.7-4.4l4.8,4.4c-0.1,0.1-0.2,0.2-0.3,0.3c-0.2,0.2-0.9,0.8-2,1.8
		s-1.9,1.7-2.5,2.3L1091.9,213.5z"/>
	<path class="st2" d="M1123.1,204.8h-1.3c-3.4,0-5.9-0.9-7.7-2.8c-1.8-1.9-2.6-4.6-2.6-8.1v-23v-1h1.1h4.7h1.1v1v23
		c0,1.5,0.3,2.5,0.8,3.1c0.6,0.6,1.4,0.9,2.6,0.9h1.2c0.2,0,0.4,0.4,0.5,1.1c0.1,0.7,0.2,1.4,0.2,2.1v0.3c0,0.7-0.1,1.4-0.2,2.2
		C1123.5,204.4,1123.3,204.8,1123.1,204.8z"/>
	<path class="st2" d="M1130.1,198c0.2,0,0.4,0.4,0.5,1.1c0.1,0.7,0.2,1.4,0.2,2.1v0.3c0,0.7-0.1,1.4-0.2,2.2
		c-0.1,0.7-0.3,1.1-0.5,1.1h-7.3c-0.2,0-0.4-0.4-0.5-1.1c-0.1-0.7-0.2-1.5-0.2-2.2v-0.3c0-0.7,0.1-1.4,0.2-2.1s0.3-1.1,0.5-1.1
		H1130.1z"/>
	<path class="st2" d="M1137.2,198c0.2,0,0.4,0.4,0.5,1.1c0.1,0.7,0.2,1.4,0.2,2.1v0.3c0,0.7-0.1,1.4-0.2,2.2
		c-0.1,0.7-0.3,1.1-0.5,1.1h-7.3c-0.2,0-0.4-0.4-0.5-1.1c-0.1-0.7-0.2-1.5-0.2-2.2v-0.3c0-0.7,0.1-1.4,0.2-2.1s0.3-1.1,0.5-1.1
		H1137.2z"/>
	<path class="st2" d="M1135.1,212.5l4.5-4.2l4.5,4.2l-4.5,4.2L1135.1,212.5z M1136.9,198h8c1.8,0,3-0.3,3.6-0.8s1-1.6,1-3.2v-7.7v-1
		h1.1h4.9h1.1v1v7.7c0,3.5-1,6.2-3,8c-2,1.9-4.9,2.8-8.7,2.8h-8c-0.2,0-0.4-0.4-0.5-1.1c-0.1-0.7-0.2-1.5-0.2-2.2v-0.3
		c0-0.7,0.1-1.4,0.2-2.1S1136.7,198,1136.9,198z M1140.2,219l4.5-4.2l4.5,4.2l-4.5,4.2L1140.2,219z M1145.3,212.5l4.5-4.2l4.5,4.2
		l-4.5,4.2L1145.3,212.5z"/>
</g>
</svg>
