<?xml version="1.0" encoding="UTF-8"?>
<svg width="14px" height="14px" viewBox="0 0 14 14" version="1.1" xmlns="http://www.w3.org/2000/svg" xmlns:xlink="http://www.w3.org/1999/xlink">
    <!-- Generator: Sketch 55.2 (78181) - https://sketchapp.com -->
    <title>clock</title>
    <desc>Created with Sketch.</desc>
    <g id="內文" stroke="none" stroke-width="1" fill="none" fill-rule="evenodd">
        <g id="內文頁＿web(1440)" transform="translate(-1137.000000, -943.000000)" fill-rule="nonzero" stroke="#939393">
            <g id="Group-2" transform="translate(1138.000000, 939.000000)">
                <g id="clock" transform="translate(0.000000, 5.000000)">
                    <path d="M11.1937259,9.00756617 C10.6576456,9.92632324 9.92323271,10.6551957 8.998276,11.1940943 C8.07892089,11.7298259 7.07159157,12 5.98891953,12 C5.17501297,12 4.39837606,11.8433463 3.65900878,11.5223891 C2.91966383,11.2015879 2.28130399,10.7798451 1.74729916,10.2463438 C1.21329433,9.7126863 0.788264153,9.06851927 0.470445581,8.32838401 C0.153564328,7.59094736 5.68434189e-14,6.80605071 5.68434189e-14,5.99251747 C5.68434189e-14,4.91039359 0.266042778,3.90882683 0.79911029,2.99261225 C1.33407476,2.07305228 2.06864384,1.34339926 2.98706163,0.806061856 C3.9053232,0.268746759 4.9061136,5.68434189e-14 5.98876331,5.68434189e-14 C7.07159157,5.68434189e-14 8.07874235,0.270330246 8.99811978,0.806061856 C9.92307649,1.34498274 10.6559048,2.07461347 11.1935697,2.99258995 C11.7312345,3.91041031 12,4.91039359 12,5.99249516 C12,7.07464135 11.7329976,8.08303271 11.1937259,9.00756617 Z" id="Shape"></path>
                    <path d="M6.55165879,6.23387795 L6.55165879,2.41305589 C6.55165879,2.18441806 6.41981682,2 6.26848377,2 C6.12695461,2 6,2.18441806 6,2.41305589 L6,6.29286703 C6,6.30027374 6.00978931,6.32985646 6.00978931,6.35190021 C6,6.48469179 6.02448056,6.5953294 6.08301215,6.68392325 L7.54269842,8.88931279 C7.64037265,9.03689574 7.82095691,9.03689574 7.91855819,8.88931279 C8.03080696,8.7196861 8.02342486,8.47356757 7.91855819,8.31399282 L6.55165879,6.23387795 Z" id="Path" stroke-width="0.5" fill="#939393"></path>
                </g>
            </g>
        </g>
    </g>
</svg>