<?xml version="1.0" encoding="UTF-8"?>
<svg width="16px" height="21px" viewBox="0 0 16 21" version="1.1" xmlns="http://www.w3.org/2000/svg" xmlns:xlink="http://www.w3.org/1999/xlink">
    <!-- Generator: Sketch 55.2 (78181) - https://sketchapp.com -->
    <title>fire</title>
    <desc>Created with Sketch.</desc>
    <g id="首頁" stroke="none" stroke-width="1" fill="none" fill-rule="evenodd">
        <g id="首頁＿web(1440)" transform="translate(-1084.000000, -1540.000000)" fill="#E03F19" fill-rule="nonzero">
            <g id="fire" transform="translate(1084.000000, 1540.000000)">
                <path d="M15.9544167,12.2952051 C15.7100417,9.16329431 14.2287083,7.20065647 12.921875,5.46873142 C11.7117917,3.86534928 10.6666667,2.4807444 10.6666667,0.438249168 C10.6666667,0.274186738 10.5733333,0.124233676 10.4253333,0.0490520671 C10.276875,-0.0265807135 10.0985,-0.014194 9.96354167,0.0823567405 C8.000875,1.46482881 6.36329167,3.79488447 5.79125,6.01809447 C5.394125,7.56590046 5.34158333,9.3059466 5.33420833,10.4551629 C3.52170833,10.0740869 3.111125,7.40528334 3.10679167,7.37620327 C3.086375,7.2377756 3.00045833,7.11731276 2.87545833,7.05152372 C2.74916667,6.98659601 2.60070833,6.98187922 2.47266667,7.04426396 C2.377625,7.08954519 0.13975,8.20886112 0.00954166667,12.6779628 C0.000416666667,12.8266443 0,12.9757771 0,13.1248688 C0,17.466658 3.58895833,20.9993323 8,20.9993323 C8.00608333,20.9997424 8.01258333,21.0006038 8.01779167,20.9993323 C8.01954167,20.9993323 8.02125,20.9993323 8.02341667,20.9993323 C12.423625,20.9869046 16,17.4589881 16,13.1248688 C16,12.9065427 15.9544167,12.2952051 15.9544167,12.2952051 Z M8,20.1243873 C6.5295,20.1243873 5.33332028,18.870089 5.33332028,17.3282713 C5.33332028,17.2757303 5.33291667,17.2227382 5.33679167,17.1578105 C5.35458333,16.50759 5.48004167,16.0637191 5.617625,15.7684888 C5.87545833,16.3136272 6.336375,16.8147559 7.08508333,16.8147559 C7.33075,16.8147559 7.52954167,16.6190705 7.52954167,16.3772835 C7.52954167,15.7544204 7.54258333,15.035827 7.700125,14.3872882 C7.84033333,13.8122494 8.175375,13.2004606 8.599875,12.710037 C8.78866667,13.3465992 9.15675,13.8617962 9.516125,14.3646476 C10.0304583,15.0840613 10.562125,15.8278794 10.6554583,17.0962871 C10.6610833,17.1714687 10.66675,17.2471014 10.66675,17.3282713 C10.6666667,18.870048 9.4705,20.1243873 8,20.1243873 Z" id="Shape"></path>
            </g>
        </g>
    </g>
</svg>