<?xml version="1.0" encoding="UTF-8"?>
<svg width="25px" height="20px" viewBox="0 0 25 20" version="1.1" xmlns="http://www.w3.org/2000/svg" xmlns:xlink="http://www.w3.org/1999/xlink">
    <!-- Generator: Sketch 55.2 (78181) - https://sketchapp.com -->
    <title>Group 6</title>
    <desc>Created with Sketch.</desc>
    <g id="Symbols" stroke="none" stroke-width="1" fill="none" fill-rule="evenodd">
        <g id="footer1440" transform="translate(-1176.000000, -56.000000)" fill="#FFFFFF" stroke="#FFFFFF" stroke-width="0.5">
            <g id="Group-4" transform="translate(159.000000, 51.000000)">
                <g id="Group-3" transform="translate(236.000000, 0.000000)">
                    <g id="Group-2" transform="translate(782.000000, 1.000000)">
                        <g id="Group-6" transform="translate(0.000000, 5.000000)">
                            <path d="M9.90835469,11.0713826 L9.90835469,6.93443561 L13.9593925,9.02088327 L9.90835469,11.0713826 Z M15.3643822,8.20196452 L9.94410238,5.41039696 C9.63243617,5.24991486 9.26408159,5.25586867 8.95859695,5.42627377 C8.65292064,5.59681419 8.47058824,5.89811278 8.47058824,6.23251814 L8.47058824,11.7677071 C8.47058824,12.1004887 8.65177058,12.401246 8.95538637,12.572012 C9.11395087,12.6611386 9.28971834,12.7058824 9.46586917,12.7058824 C9.62721298,12.7058824 9.78894014,12.6683553 9.93772913,12.5929405 L15.3582007,9.84949951 C15.6799778,9.68653666 15.8808549,9.37166159 15.8823467,9.02755875 C15.8836342,8.68350101 15.6852489,8.3672277 15.3643822,8.20196452 L15.3643822,8.20196452 Z" id="Fill-1"></path>
                            <g id="Group-5">
                                <path d="M21.8863038,9.86519719 C21.8863038,11.617469 21.7358683,13.422031 21.7217011,13.5876778 C21.6638972,14.0440149 21.4288673,15.092357 21.0533461,15.5075366 C20.4743988,16.155527 19.8796949,16.2197348 19.4454617,16.2664817 C19.3929705,16.272071 19.3443843,16.2774756 19.3003843,16.2830649 C16.3275917,16.5017871 11.8611604,16.5353229 11.6554184,16.5366163 C11.4246114,16.5331981 5.94200248,16.4478341 4.22150712,16.2852359 C4.13332549,16.2706391 4.03810568,16.2594604 3.93770939,16.2479123 C3.42846275,16.1885547 2.73136471,16.1073481 2.19537296,15.5075366 L2.18274964,15.4938635 C1.81381259,15.1028428 1.5855484,14.1224962 1.52756285,13.5930823 C1.51671042,13.4678541 1.36241527,11.6419973 1.36241527,9.86519719 L1.36241527,8.09541833 C1.36241527,6.34517896 1.51248751,4.54255713 1.52701796,4.37349204 C1.59599216,3.83599441 1.83547203,2.85112099 2.19537296,2.45307896 C2.79202931,1.78545664 3.42119752,1.71145602 3.83731311,1.6625842 C3.87704479,1.65787255 3.91409742,1.65353045 3.94833478,1.64904976 C6.96440083,1.42926515 11.4629354,1.39660695 11.6243595,1.39535975 C11.7857837,1.39642218 16.282729,1.42926515 19.2720045,1.64904976 C19.3086939,1.65371522 19.3487889,1.65842687 19.3918807,1.66346186 C19.8198931,1.71311896 20.4667703,1.78818201 21.0604751,2.43233846 L21.0659695,2.43829731 C21.4349065,2.82931807 21.6631707,3.82675588 21.7211562,4.3668403 C21.7314638,4.48500109 21.8863038,6.31487658 21.8863038,8.09541833 L21.8863038,9.86519719 Z M23.0777094,4.23726993 L23.076665,4.22646085 C23.0569581,4.03610095 22.8609787,2.34281711 22.0518147,1.48160142 C21.1165082,0.468596682 20.056149,0.345539472 19.5462213,0.286551462 C19.5039922,0.281655042 19.4653503,0.277174355 19.4307496,0.272462705 L19.3901098,0.268120596 C16.3166031,0.0407603911 11.6748982,0.00976512544 11.6284462,0.00958035485 L11.6243595,0.00939558427 L11.6202729,0.00958035485 C11.5738208,0.00976512544 6.932116,0.0407603911 3.83091063,0.268120596 L3.78995294,0.272462705 C3.75694159,0.276989585 3.72057007,0.281146923 3.68102002,0.28581238 C3.17694985,0.34498516 2.12794262,0.46822714 1.19000248,1.51786264 C0.419298658,2.36988601 0.196528793,4.02686242 0.173643344,4.21311117 L0.171009701,4.23726993 C0.164062332,4.31649031 4.54076367e-06,6.20225891 4.54076367e-06,8.09541833 L4.54076367e-06,9.86519719 C4.54076367e-06,11.7583566 0.164062332,13.6441714 0.171009701,13.7235304 L0.172235707,13.7354481 C0.191897214,13.9227592 0.387740351,15.5849554 1.19318101,16.4465869 C2.07259071,17.42564 3.18457833,17.5552104 3.78268772,17.6248227 C3.87722642,17.6358627 3.95864231,17.6452398 4.01413044,17.6551713 L4.06789309,17.6627469 C5.84251434,17.8344911 11.4065391,17.919116 11.6424318,17.9225805 L11.6495608,17.9227653 L11.6566444,17.9225805 C11.7030964,17.9223957 16.3446196,17.8913543 19.4181717,17.6639941 L19.4587662,17.6596519 C19.4976351,17.6544322 19.5412264,17.6497205 19.5891315,17.6446855 C20.0903864,17.5905477 21.1337176,17.478161 22.0587166,16.4427991 C22.8294204,15.5905447 23.0523719,13.9335683 23.0750757,13.7475505 L23.0777094,13.7233456 C23.0846568,13.6439866 23.2488962,11.7583566 23.2488962,9.86519719 L23.2488962,8.09541833 C23.2488962,6.20225891 23.0846568,4.31667509 23.0777094,4.23726993 L23.0777094,4.23726993 Z" id="Fill-3"></path>
                            </g>
                        </g>
                    </g>
                </g>
            </g>
        </g>
    </g>
</svg>