<?xml version="1.0" encoding="UTF-8"?>
<svg width="128px" height="23px" viewBox="0 0 128 23" version="1.1" xmlns="http://www.w3.org/2000/svg" xmlns:xlink="http://www.w3.org/1999/xlink">
    <!-- Generator: Sketch 55.2 (78181) - https://sketchapp.com -->
    <title>Group 17</title>
    <desc>Created with Sketch.</desc>
    <defs>
        <polygon id="path-1" points="0.279817487 0.197269231 8.37793818 0.197269231 8.37793818 5.88875192 0.279817487 5.88875192"></polygon>
    </defs>
    <g id="Symbols" stroke="none" stroke-width="1" fill="none" fill-rule="evenodd">
        <g id="footer1440" transform="translate(-108.000000, -104.000000)">
            <g id="Group-4">
                <g id="Group-17" transform="translate(108.000000, 104.000000)">
                    <polygon id="Fill-1" fill="#FEFEFE" points="18.8780488 0 18.8780488 5.74040812 23.9986531 5.74040812 23.9986531 5.74085425 24.6999818 5.74085425 24.6999818 23 30.5223673 23 30.5223673 5.74085425 37.620266 5.74085425 37.620266 5.74040812 39.5690548 5.74040812 39.8536585 0"></polygon>
                    <path d="M119.777347,0 L119.777347,5.74040812 L124.045497,5.74040812 L127.95122,0 L119.777347,0 Z M106.97561,0 L106.97561,5.74040812 L112.798448,5.74040812 L112.798448,23 L118.619928,23 L118.619928,0 L106.97561,0 Z" id="Fill-2" fill="#FEFEFE"></path>
                    <g id="Group-16">
                        <path d="M64.5134861,13.2303077 L64.5134861,0.197269231 L58.7091336,0.197269231 L58.7091336,14.2679615 C57.9443649,12.9476731 57.1916998,11.6158846 56.4515866,10.2730385 C54.4688363,6.83232692 52.5340521,5.11086538 50.6472341,5.11086538 C49.0226609,5.11086538 47.3868807,6.33694231 45.7385486,8.78821154 C44.6635689,10.6264423 43.6002445,12.4527308 42.549472,14.2679615 L42.549472,0.197269231 L36.7451195,0.197269231 L36.7451195,18.5450769 C36.7451195,19.7472692 37.192953,20.7902308 38.08862,21.6739615 C38.984287,22.5576923 40.0417837,23 41.2597653,23 C42.5732309,23 43.8988002,22.2923077 45.2369213,20.87825 C46.1684508,19.91225 47.207568,18.4274231 48.3542728,16.4242115 C49.1185932,15.1048077 49.8824654,13.7849615 50.6472341,12.4642308 C51.3873473,13.8075192 52.1400124,15.1401923 52.9047811,16.4595962 C54.0030715,18.3685962 55.0542923,19.8538654 56.0575469,20.9136346 C56.8200742,21.7212885 57.5821532,22.2865577 58.3446805,22.6249231 L64.5134861,13.2303077 Z" id="Fill-3" fill="#FEFEFE"></path>
                        <path d="M75.9799064,22.9999558 L75.9799064,19.5703019 L68.9925383,19.5703019 L66.7354396,22.9999558 L59.8561074,22.9999558 L73.4359073,2.31853269 C74.3674369,0.904032692 75.6450399,0.197667308 77.2696131,0.197667308 C78.488043,0.197667308 79.5446431,0.639090385 80.4403101,1.52282115 C81.3359771,2.40699423 81.7842589,3.44951346 81.7842589,4.65170577 L81.7842589,12.7472635 L75.9799064,12.7472635 L75.9799064,8.92882115 L72.6832422,13.8791288 L81.7842589,13.8791288 L81.7842589,22.9999558 L75.9799064,22.9999558 Z" id="Fill-5" fill="#FEFEFE"></path>
                        <path d="M100.891508,22.9999558 C99.2664862,22.9999558 97.9888831,22.2922635 97.0573536,20.8782058 L89.2101811,8.92882115 L89.2101811,22.9999558 L83.4416911,22.9999558 L83.4416911,4.65170577 C83.4416911,3.42651346 83.8832487,2.37735962 84.7677086,1.50512885 C85.6508237,0.633340385 86.7145964,0.197667308 87.9567852,0.197667308 C89.5804618,0.197667308 90.8464096,0.904032692 91.7541802,2.31853269 L99.6013527,14.2679173 L99.6013527,0.197667308 L105.405705,0.197667308 L105.405705,18.5450327 C105.405705,19.7706673 104.963699,20.8202635 104.079688,21.6920519 C103.196124,22.5638404 102.133248,22.9999558 100.891508,22.9999558" id="Fill-7" fill="#FEFEFE"></path>
                        <g id="Group-11" transform="translate(119.691235, 0.000000)">
                            <mask id="mask-2" fill="white">
                                <use xlink:href="#path-1"></use>
                            </mask>
                            <g id="Clip-10"></g>
                            <polygon id="Fill-9" fill="#FEFEFE" mask="url(#mask-2)" points="0.279817487 0.197136538 0.279817487 5.88875192 4.50845951 5.88875192 8.37802783 0.197136538"></polygon>
                        </g>
                        <polygon id="Fill-12" fill="#FEFEFE" points="15.495577 17.3078538 15.495577 22.9999115 19.7237707 22.9999115 23.593339 17.3078538"></polygon>
                        <path d="M18.4886647,5.88884038 L18.4788025,0.197667308 L2.90235555,0.197667308 C2.11427619,0.197667308 1.43333616,0.479859615 0.859983766,1.04601346 C0.28663137,1.61128269 0.000179312712,2.27164808 0.000179312712,3.02534038 L0.000179312712,4.57253269 L0.000179312712,20.1360135 C0.000179312712,20.9135904 0.28663137,21.5858981 0.859983766,22.1516096 C1.43333616,22.7164365 2.11427619,22.9999558 2.90235555,22.9999558 L14.3635758,22.9999558 L14.3635758,17.3078981 L5.80453179,17.3078981 L5.80049726,5.88884038 L18.4886647,5.88884038 Z" id="Fill-14" fill="#FEFEFE"></path>
                    </g>
                </g>
            </g>
        </g>
    </g>
</svg>