<?xml version="1.0" encoding="UTF-8"?>
<svg width="23px" height="23px" viewBox="0 0 23 23" version="1.1" xmlns="http://www.w3.org/2000/svg" xmlns:xlink="http://www.w3.org/1999/xlink">
    <!-- Generator: Sketch 63.1 (92452) - https://sketch.com -->
    <title>Group 7</title>
    <desc>Created with Sketch.</desc>
    <g id="Symbols" stroke="none" stroke-width="1" fill="none" fill-rule="evenodd">
        <g id="footer1440" transform="translate(-817.000000, -115.000000)">
            <g id="Group-6" transform="translate(510.000000, 113.000000)">
                <g id="Group-3" transform="translate(308.000000, 0.000000)">
                    <g id="Group-7" transform="translate(0.000000, 3.000000)">
                        <circle id="Oval" stroke="#FFFFFF" stroke-width="2" cx="10.5" cy="10.5" r="10.5"></circle>
                        <path d="M8.70870471,12.5837673 L8.51020781,15.3728216 C8.79420674,15.3728216 8.91720966,15.2509577 9.06470536,15.1046041 L10.3962448,13.8334509 L13.1553025,15.8518248 C13.6613302,16.1335281 14.017823,15.9851843 14.1543263,15.3868224 L15.9653849,6.90973622 L15.9658771,6.90924455 C16.1263809,6.16202383 15.6953551,5.86983161 15.202359,6.05315413 L4.55709826,10.1243657 C3.83058881,10.406069 3.84158126,10.8106428 4.43360314,10.9939419 L7.15515999,11.8395434 L13.4768258,7.88820554 C13.7743016,7.69142064 14.0448237,7.80029033 13.8223262,7.99709865 L8.70870471,12.5837673 Z" id="Fill-1" fill="#FFFFFF"></path>
                    </g>
                </g>
            </g>
        </g>
    </g>
</svg>