<?xml version="1.0" encoding="utf-8"?>
<!-- Generator: Adobe Illustrator 24.1.0, SVG Export Plug-In . SVG Version: 6.00 Build 0)  -->
<svg version="1.1" id="圖層_1" xmlns="http://www.w3.org/2000/svg" xmlns:xlink="http://www.w3.org/1999/xlink" x="0px" y="0px"
	 viewBox="0 0 30 30" style="enable-background:new 0 0 30 30;" xml:space="preserve">
<style type="text/css">
	.st0{fill-rule:evenodd;clip-rule:evenodd;fill:#B5B5B5;}
	.st1{fill:#EEEEEE;}
</style>
<desc>Created with Sketch.</desc>
<g id="Bitmap">
	<g id="Mask">
		<circle id="path-1_1_" class="st0" cx="15" cy="15" r="15"/>
	</g>
</g>
<g id="user" transform="translate(8.000000, 7.000000)">
	<g id="Path">
		<path class="st1" d="M14,16.3c-0.3,0-0.5-0.2-0.5-0.5V14c0-1.7-1.3-3-3-3h-7c-1.7,0-3,1.3-3,3v1.8c0,0.3-0.2,0.5-0.5,0.5
			s-0.5-0.2-0.5-0.5V14c0-2.2,1.8-4,4-4h7c2.2,0,4,1.8,4,4v1.8C14.5,16,14.3,16.3,14,16.3z"/>
	</g>
	<g id="Oval">
		<path class="st1" d="M7,7.5c-2.2,0-4-1.8-4-4s1.8-4,4-4c2.2,0,4,1.8,4,4S9.2,7.5,7,7.5z M7,0.5c-1.7,0-3,1.3-3,3s1.3,3,3,3
			s3-1.3,3-3S8.7,0.5,7,0.5z"/>
	</g>
</g>
</svg>
