<?xml version="1.0" encoding="UTF-8"?>
<svg width="22px" height="22px" viewBox="0 0 22 22" version="1.1" xmlns="http://www.w3.org/2000/svg" xmlns:xlink="http://www.w3.org/1999/xlink">
    <!-- Generator: Sketch 63.1 (92452) - https://sketch.com -->
    <title>Fill 3</title>
    <desc>Created with Sketch.</desc>
    <g id="註冊登入" stroke="none" stroke-width="1" fill="none" fill-rule="evenodd">
        <g id="登入pop-up_web" transform="translate(-1041.000000, -275.000000)" fill="#000000" stroke="#000000" stroke-width="0.5">
            <path d="M1061.63752,276.377594 C1061.1539,275.894655 1060.37012,275.894655 1059.88681,276.377594 L1052.00773,284.25061 L1044.12865,276.377594 C1043.65346,275.886227 1042.86969,275.872618 1042.37794,276.347362 C1041.88612,276.821874 1041.8725,277.605047 1042.34769,278.096414 C1042.35767,278.106698 1042.36765,278.116981 1042.37794,278.126956 L1050.25702,285.999971 L1042.37794,293.872986 C1041.88612,294.347498 1041.8725,295.130671 1042.34769,295.622348 C1042.82256,296.113793 1043.60634,296.127401 1044.09809,295.65258 C1044.10838,295.642606 1044.11867,295.632631 1044.12865,295.622348 L1052.00773,287.749332 L1059.88681,295.622348 C1060.37855,296.09686 1061.16233,296.083251 1061.63721,295.591884 C1062.10055,295.112578 1062.10055,294.352369 1061.63721,293.872986 L1053.75844,285.999971 L1061.63752,278.126956 C1062.12083,277.644016 1062.12083,276.860843 1061.63752,276.377594" id="Fill-3" transform="translate(1052.000000, 286.000000) scale(-1, 1) translate(-1052.000000, -286.000000) "></path>
        </g>
    </g>
</svg>