<?xml version="1.0" encoding="UTF-8"?>
<svg width="17px" height="17px" viewBox="0 0 17 17" version="1.1" xmlns="http://www.w3.org/2000/svg" xmlns:xlink="http://www.w3.org/1999/xlink">
    <!-- Generator: Sketch 56.2 (81672) - https://sketch.com -->
    <title>Fill 3</title>
    <desc>Created with Sketch.</desc>
    <g id="內文頁" stroke="none" stroke-width="1" fill="none" fill-rule="evenodd">
        <g id="7/18-18禁_web" transform="translate(-517.000000, -616.000000)" fill="#FFFFFF" stroke="#FFFFFF" stroke-width="0.5">
            <g id="Group-18" transform="translate(420.000000, 345.000000)">
                <g id="Group-4" transform="translate(50.000000, 258.000000)">
                    <g id="Group-17" transform="translate(48.000000, 6.000000)">
                        <path d="M14.7281372,8.28319572 C14.3654214,7.92099093 13.7775896,7.92099093 13.4151058,8.28319572 L7.50579726,14.1879572 L1.59648868,8.28319572 C1.24009859,7.91467003 0.652266778,7.90446381 0.283457303,8.26052168 C-0.0854102072,8.61640557 -0.0956242856,9.20378506 0.260765799,9.57231075 C0.268252254,9.5800234 0.27573871,9.58773605 0.283457303,9.59521675 L6.19276589,15.4999783 L0.283457303,21.4047398 C-0.0854102072,21.7606237 -0.0956242856,22.3480032 0.260765799,22.7167608 C0.616923746,23.0853445 1.20475556,23.0955507 1.57356504,22.7394349 C1.58128363,22.7319542 1.58900222,22.7244735 1.59648868,22.7167608 L7.50579726,16.8119993 L13.4151058,22.7167608 C13.7839153,23.0726447 14.3717471,23.0624385 14.7279051,22.6939128 C15.0754159,22.3344335 15.0754159,21.764277 14.7279051,21.4047398 L8.81882863,15.4999783 L14.7281372,9.59521675 C15.0906209,9.23301196 15.0906209,8.64563247 14.7281372,8.28319572" id="Fill-3"></path>
                    </g>
                </g>
            </g>
        </g>
    </g>
</svg>