<svg height="125" width="167" xmlns="http://www.w3.org/2000/svg"><path d="M79 87.5c0 10.417-3.585 19.27-10.755 26.563-7.17 7.29-15.97 10.937-26.398 10.937-12.515 0-22.618-4.362-30.31-13.086C3.846 103.19 0 91.667 0 77.344 0 63.28 1.76 51.302 5.28 41.406c3.52-9.896 8.538-17.838 15.057-23.828S34.872 7.161 44.389 4.297C53.905 1.432 64.79 0 77.045 0v23.438c-7.822 0-14.47.91-19.946 2.734s-9.908 4.167-13.297 7.031c-3.65 2.865-6.388 6.055-8.213 9.57s-2.998 7.097-3.52 10.743c.522-.521 1.76-1.107 3.716-1.758a19.064 19.064 0 016.062-.977c11.472 0 20.532 3.58 27.18 10.742S79 77.343 79 87.5zm88 0c0 10.417-3.585 19.27-10.755 26.563-7.17 7.291-15.97 10.937-26.398 10.937-12.515 0-22.618-4.362-30.31-13.086C91.846 103.19 88 91.667 88 77.344c0-14.063 1.695-26.042 5.084-35.938 3.39-9.896 8.409-17.838 15.057-23.828S122.872 7.161 132.39 4.297 152.79 0 165.045 0v23.438c-7.822 0-14.47.91-19.946 2.734s-10.038 4.167-13.688 7.031-6.323 6.055-8.017 9.57-2.803 7.097-3.325 10.743c.522-.521 1.76-1.107 3.716-1.758a19.064 19.064 0 016.062-.977c11.472 0 20.532 3.58 27.18 10.742S167 77.343 167 87.5z" fill="#01181c" fill-rule="evenodd" opacity=".8"/></svg>