<svg height="278" width="597" xmlns="http://www.w3.org/2000/svg"><mask id="a" fill="#fff"><path d="M0 0h1440v278H0z" fill-rule="evenodd"/></mask><g fill="#00343d" fill-rule="evenodd" mask="url(#a)" opacity=".184"><path d="M513.032-374.377c52.574 98.399 82.429 210.7 82.429 329.853 0 104.626-23.051 203.963-64.278 293.248-.542 1.176-.875 2.678-.812 3.374.042.416.063.836.063 1.26 0 4.651-2.208 8.799-5.649 11.494-1.011.798-2.404 2.236-2.982 3.392a702.043 702.043 0 01-36.676 64.644c-.693 1.085-.844 2.573-.47 3.395.375.83 1.152.662 1.849-.423 72.429-112.448 111.29-243.415 111.29-380.384 0-116.865-28.242-229.376-81.491-329.728-.606-1.144-1.365-2.037-1.698-2.019a10.906 10.906 0 01-1.638-.037c-.577-.044-.546.793.063 1.93" opacity=".05"/><path d="M-106.524 593.538c-351.904 0-638.204-286.237-638.204-638.064 0-351.904 286.3-638.204 638.204-638.204 197.813 0 374.871 90.52 491.999 232.302.819.994 1.778 1.242 2.23.605.45-.633.234-1.897-.589-2.887a650.856 650.856 0 00-40.785-44.776C225.39-618.446 64.563-685.065-106.524-685.065c-171.136 0-332 66.62-452.96 187.58-120.96 120.963-187.578 281.826-187.578 452.959 0 171.09 66.619 331.915 187.579 452.85 8.267 8.271 16.74 16.248 25.375 23.997.959.86 2.558 2.068 3.444 2.849.889.787 2.275 2.226 3.248 3.076C-410.78 540.18-262.953 595.87-106.524 595.87c137.022 0 267.439-42.742 376.075-121.884 1.043-.756 2.52-2.216 3.507-3.045.375-.319.763-.61 1.176-.875 1.085-.7 2.92-1.694 3.941-2.464a649.182 649.182 0 0068.156-59.276c43.456-43.456 79.863-92.089 108.72-144.473.62-1.13.977-2.615.886-3.315a10.37 10.37 0 01-.088-1.284c0-.732.077-1.442.214-2.132.227-1.158.126-1.127-.483.01C347.762 457.22 136.257 593.539-106.524 593.539zm616.309-803.385c14.158 52.752 21.753 108.164 21.753 165.323 0 82.211-15.645 160.835-44.086 233.068-.476 1.197-.238 2.163.518 2.247s1.746-.752 2.208-1.953c28.669-73.38 43.694-152.211 43.694-233.362 0-5.597-.098-11.18-.245-16.755-.028-1.288-.644-3.213-1.123-4.41a12.411 12.411 0 01-.896-4.63c0-1.316.206-2.59.584-3.784.396-1.228.861-3.192.798-4.48-2.453-47.106-9.996-93.257-22.33-137.84-.346-1.243-.591-1.915-.57-1.498.014.252.024.504.024.76 0 .965-.105 1.907-.287 2.817-.259 1.263-.381 3.251-.042 4.497" fill-opacity=".1"/><path d="M471.432 3.238c-.102 1.284.34 2.394.976 2.534.644.14 1.246-.732 1.348-2.016 1.309-15.981 2.002-32.074 2.002-48.28a592.62 592.62 0 00-4.176-70.339c-.154-1.28-.378-1.267-.766-.038-.08.252-.172.504-.266.749-.473 1.2-.956 3.104-.816 4.385 2.412 21.42 3.69 43.183 3.69 65.244 0 16.082-.697 32.004-1.992 47.76m-3.261 30.305c-11.683 86.422-42.483 166.848-87.972 236.904-.704 1.082-.89 2.58-.529 3.402.36.83 1.13.662 1.834-.416 47.243-72.209 77.616-153.815 89.072-239.908.168-1.277 0-2.278-.382-2.261a12.658 12.658 0 01-1.207.007c-.284-.017-.644.998-.816 2.272" opacity=".15"/><path d="M421.191-20.483c-.647-.164-1.204.7-1.26 1.988-6.758 138.208-66.969 262.602-160.377 352.877-.927.896-1.312 2.08-.913 2.706.392.623 1.41.44 2.341-.455a544.684 544.684 0 006.899-6.755c38.451-38.451 70.224-81.802 94.808-128.615.598-1.144 1.305-3.097 1.848-4.266.157-.354.336-.693.535-1.026.648-1.113 1.831-2.831 2.408-3.983 32.393-64.785 51.142-135.94 54.779-209.888.06-1.288-.424-2.418-1.068-2.583" opacity=".2"/><path d="M363.14 50.167a475.178 475.178 0 01-36.106 109.06c-.556 1.165-.423 2.233.28 2.464.697.23 1.694-.459 2.24-1.628 16.436-34.979 28.557-71.89 36.113-110.068.249-1.263-.014-2.187-.605-2.128-.35.035-.704.053-1.064.053-.067 0-.137-.01-.203-.018-.112-.014-.403 1.005-.655 2.265m-76.227-372.219c.014.088.02.175.02.266 0 .581-.052 1.148-.153 1.701-.161.931.185 2.513.917 3.574 53.487 77.322 84.875 171.052 84.875 271.985 0 23.632-1.733 46.868-5.05 69.59-.186 1.278.188 2.468.822 2.748.623.283 1.253-.455 1.442-1.736a488.415 488.415 0 005.12-70.602c0-100.139-30.352-195.598-86.677-275.88-.742-1.058-1.337-1.793-1.316-1.646" opacity=".25"/><path d="M179.975 340.646a11.217 11.217 0 01-7.357 5.397c-1.26.266-3.168.854-4.225 1.596-45.374 31.9-96.516 56.133-151.522 70.805-1.242.33-2.17 1.103-2.113 1.733.038.374.059.752.059 1.137 0 .042 0 .08-.007.12-.004.062 1.008-.144 2.25-.477 81.305-21.434 155.838-64.025 216.857-125.04 32.644-32.645 59.997-69.171 81.68-108.515.626-1.13.601-2.327 0-2.74-.599-.42-1.544.112-2.17 1.239-32.554 59.097-77.235 110.617-130.642 151.203-1.025.78-2.166 2.422-2.81 3.542m101.903-188.494c-20.832 40.975-47.95 78.239-80.094 110.495-.906.917-1.267 2.013-.84 2.496.427.486 1.477.175 2.387-.739 31.567-31.661 58.338-68.103 79.093-108.153.592-1.141.798-2.902.637-3.966a13.506 13.506 0 01-.143-1.935c0-.046.003-.095.003-.144.007-.077-.458.795-1.043 1.946"/><path d="M288.684 138.155c-.543 1.17-.277 1.502.707.917.99-.588 2.306-1.865 2.842-3.041 25.039-55.083 39.01-116.214 39.01-180.555 0-4.438-.087-8.851-.223-13.254-.042-1.292-.627-2.436-1.285-2.639-.651-.2-1.12.62-1.078 1.907.154 4.645.256 9.3.256 13.986 0 65.205-14.434 127.089-40.23 182.68" opacity=".3"/><path d="M271.105 73.877c-.385 1.236-.68 3.28-.907 4.55a12.742 12.742 0 01-1.148 3.48c-.577 1.15-1.568 2.97-1.995 4.185-11.413 32.547-26.967 63.15-46.025 91.203-.728 1.068-1.074 1.897-.773 1.859.175-.021.357-.042.542-.042.29 0 .578.024.858.058.472.05 1.442-.748 2.163-1.819 42.749-63.44 67.739-139.79 67.739-221.875 0-29.31-3.203-57.887-9.244-85.407-.28-1.26-.941-1.918-1.515-1.537-.581.382-.854 1.663-.578 2.926a395.639 395.639 0 018.999 84.018c0 41.23-6.363 81-18.116 118.401" opacity=".35"/><path d="M-107.553 351.208c-.567-.01-.672.48-.308 1.127.364.65.76 1.207.962 1.21.13.004.252.008.375.008 128.422 0 242.816-61.142 315.654-155.824.788-1.022 1.124-2.39.85-3.097-.272-.71-1.042-.48-1.82.546-72.372 94.776-186.504 156.037-314.684 156.037-.343 0-.686-.004-1.03-.007"/><path d="M247.917 22.977c.7-.22 1.48-1.38 1.708-2.65a359.635 359.635 0 004.05-28.9c.126-1.284-.298-2.106-.963-1.924-.665.175-1.316 1.305-1.449 2.59a355.676 355.676 0 01-4.165 29.057c-.23 1.267.116 2.054.82 1.827m-7.011 25.603c-41.128 153.332-181.3 266.554-347.43 266.554-28.484 0-56.2-3.35-82.793-9.64-1.253-.297-2.804-.076-3.521.41-.718.494-.33 1.068.924 1.372 27.394 6.65 55.986 10.192 85.39 10.192 166.778 0 307.551-113.368 349.355-267.085.336-1.25.133-2.618-.402-3.115-.536-.5-1.187.067-1.523 1.313" opacity=".4"/><path d="M155.386 150.788c-.77 1.036-.997 1.806-.5 1.766a10.534 10.534 0 011.501-.023c.333.018 1.225-.794 1.992-1.83C198.765 96.045 222.67 28.498 222.67-44.526c0-106.851-51.156-201.981-130.256-262.174-1.022-.78-2.432-1.13-3.174-.868-.746.255-.532 1.004.497 1.778 79.254 59.713 130.602 154.598 130.602 261.264 0 73.171-24.185 140.784-64.953 195.314" opacity=".5"/><path d="M93.548 214.653c.018.27.032.546.032.822 0 .21-.007.417-.021.623-.014.35.784-.003 1.802-.794a332.215 332.215 0 0046.494-44.034c.847-.97 1.306-2.394 1.138-3.195-.172-.795-.896-.662-1.74.315a330.131 330.131 0 01-45.951 44.002c-1.008.794-1.792 1.802-1.754 2.26m-24.483 16.387C37.467 251.244 2.18 266.158-35.539 274.55c-1.26.276-2.755 1.291-3.525 2.117-.763.826-.486 1.152.77.886C1.893 269.049 39.39 253.18 72.73 231.44c1.078-.7 1.795-1.263 1.6-1.242-.116.01-.235.017-.354.017a9.443 9.443 0 01-1.488-.122c-.815-.126-2.334.252-3.423.945"/><path d="M182.125 25.636c-.304 1.253-.486 2.685-.423 3.206a8.3 8.3 0 01.059.942c0 2.05-.532 3.962-1.445 5.652-.61 1.134-1.575 2.944-1.943 4.18C142.005 162.552 28.052 252.51-106.523 252.51c-1.229 0-2.457-.014-3.682-.028-1.288-.021-2.125.462-1.929 1.11.196.643 1.348 1.21 2.639 1.224.987.018 1.981.028 2.972.028 165.074 0 299.372-134.295 299.372-299.369a301.1 301.1 0 00-.819-22.07c-.094-1.289-.63-1.898-1.239-1.425-.609.469-1.053 1.84-.97 3.129.459 6.73.694 13.524.694 20.366 0 24.16-2.916 47.656-8.39 70.161" opacity=".6"/><path d="M162.533-22.91c-7.745 97.286-67.284 180.19-150.969 221.078-1.158.563-2.093 1.645-2.215 2.411-.116.763.661.924 1.82.364 47.005-22.627 86.558-58.348 113.886-102.42.676-1.096 1.302-3.045 1.666-4.28a12.387 12.387 0 012.947-5.09c.9-.93 2.282-2.432 2.895-3.566C150.43 52.89 161.784 16.16 164.87-22.868c.102-1.288-.035-2.306-.301-2.275a3.54 3.54 0 01-.48.042c-.234 0-.465-.024-.692-.05-.378-.044-.763.957-.865 2.241" opacity=".7"/><path d="M108.04 74.212c-.623 1.127-1.386 3.063-1.921 4.239a12.96 12.96 0 01-1.309 2.233c-.76 1.04-2.076 2.646-2.758 3.745-38.7 62.366-104.577 106.19-180.96 114.782-1.282.147-2.769.893-3.43 1.603-.652.704-.218 1.11 1.063.98 124.723-12.687 222.37-118.31 222.37-246.32 0-109.525-71.453-202.663-170.181-235.255-1.222-.403-2.765-.27-3.518.168-.749.437-.409 1.004.82 1.4C67.026-246.528 138.76-153.75 138.76-44.525c0 43.046-11.158 83.534-30.72 118.737" opacity=".8"/><path d="M64.858 99.611c-.483-.434-1.509-.017-2.352.956-36.733 42.735-89.345 71.442-148.6 76.846-1.284.119-1.386.504-.308 1.057 1.078.549 2.909 1.039 4.193.899 58.352-6.29 110.096-34.961 146.45-77.234.84-.98 1.096-2.093.617-2.524"/><path d="M84.296-159.589c20.335 33.61 32.063 72.99 32.063 115.063 0 37.12-9.135 72.149-25.26 102.966-.594 1.145-.454 1.859.358 1.708.812-.154 1.97-1.12 2.558-2.268C109.78 27.14 118.69-7.67 118.69-44.526c0-41.997-11.557-81.347-31.647-115.038-.658-1.11-1.498-1.964-1.855-1.918-.217.024-.43.045-.65.045a6.05 6.05 0 01-.736-.05c-.399-.044-.175.796.494 1.898" opacity=".9"/><path d="M81.284 76.83c-.168-.574-.455-.752-.693-.395-.234.35-.087.79.322 1.008.406.21.54-.046.371-.613M92.738-8.349c-.23 1.267-.37 2.706-.336 3.217.021.308.039.616.039.93a14.44 14.44 0 01-1.148 5.64c-.504 1.19-1.323 3.09-1.642 4.336a200.269 200.269 0 01-7.588 23.474c-.472 1.204-.336 2.233.305 2.37s1.543-.669 2.012-1.87c8.992-23.04 13.94-48.086 13.94-74.273 0-82.73-49.28-154.154-120.014-186.473-1.173-.539-1.593-.259-1.075.686s1.775 2.205 2.94 2.758C48.582-195.007 95.99-125.204 95.99-44.524A203.06 203.06 0 0192.738-8.35M68.85 56.634C33.794 117.17-31.68 157.99-106.521 157.99c-111.692 0-202.559-90.85-202.559-202.513 0-44.71 14.563-86.076 39.19-119.62.762-1.04 1.179-2.572 1.046-3.461-.133-.886-.777-.784-1.554.245-25.739 34.25-41.017 76.79-41.017 122.836 0 112.948 91.914 204.844 204.894 204.844 75.59 0 141.736-41.156 177.23-102.238.647-1.117.71-2.31.202-2.71-.521-.405-1.414.148-2.061 1.26"/><path d="M-6.503 111.188c.28.584 1.34.514 2.415-.196 35.21-23.265 62.1-58.128 75.149-99.134.388-1.225.2-2.412-.392-2.695-.588-.284-1.351.451-1.74 1.68C56.116 51.359 29.624 85.83-5.103 108.867c-1.074.714-1.68 1.73-1.4 2.32"/><path d="M53.968-98.985c-.413-1.221-1.165-1.827-1.711-1.435-.553.396-.686 1.649-.273 2.87a166.504 166.504 0 018.655 53.025c0 92.176-74.99 167.164-167.16 167.164-1.417 0-2.828-.032-4.231-.084-1.292-.039-2.142.427-1.981 1.078.164.654 1.28 1.232 2.569 1.27a104.9 104.9 0 003.643.074c93.46 0 169.495-76.038 169.495-169.502a168.63 168.63 0 00-9.006-54.46"/><path d="M-19.706 80.512a11.993 11.993 0 01-2.289 1.568c-1.141.598-3.038 1.449-4.13 2.135-23.335 14.626-50.883 23.124-80.399 23.124-27.048 0-52.447-7.14-74.466-19.582-1.123-.634-2.093-.623-2.254.028-.16.654.557 1.694 1.68 2.32 22.229 12.44 47.81 19.565 75.04 19.565 79.972 0 145.87-61.211 153.43-139.226.122-1.281-.312-2.086-.977-1.855-.665.234-1.312 1.41-1.445 2.688C39.972 14.694 17.107 52.71-16.213 77.442c-1.04.774-2.517 2.226-3.493 3.07"/><path d="M-18.859 63.39c.448.473 1.575.232 2.559-.598 27.349-23.026 45.776-56.29 49.374-93.828.12-1.284.01-2.467-.23-2.625-.239-.168-.361.035-.309.476.028.266.053.536.053.809 0 1.928-.476 3.734-1.299 5.337-.591 1.148-1.403 3-1.61 4.274-5.323 33.47-22.722 62.954-47.59 83.86-.983.826-1.396 1.827-.948 2.296"/></g></svg>