<svg xmlns="http://www.w3.org/2000/svg" viewBox="0 0 142 23"><defs><style>.cls-1{fill:#3d3d3d;}.cls-2{fill:#d42235;}.cls-3{fill:#fff;opacity:0;}</style></defs><title>logo</title><g id="Livello_2" data-name="Livello 2"><g id="Livello_1-2" data-name="Livello 1"><path class="cls-1" d="M22.05,7.32a7.41,7.41,0,0,1,10.25,0,6.73,6.73,0,0,1,2.13,5,6.72,6.72,0,0,1-2.13,5,7.41,7.41,0,0,1-10.25,0,6.72,6.72,0,0,1-2.13-5,6.73,6.73,0,0,1,2.13-5m2.61,7.51a3.59,3.59,0,0,0,5,0,3.51,3.51,0,0,0,0-5,3.59,3.59,0,0,0-5,0,3.51,3.51,0,0,0,0,5"/><path class="cls-1" d="M36.71,5.53h3.64V7.32a4.57,4.57,0,0,1,3.89-2.06,5.68,5.68,0,0,1,4.54,2,7.47,7.47,0,0,1,1.74,5,7.49,7.49,0,0,1-1.74,5,5.7,5.7,0,0,1-4.54,2,4.59,4.59,0,0,1-3.89-2v5.49H36.71Zm4.54,9.35a3,3,0,0,0,2.31,1,3.06,3.06,0,0,0,2.35-1,3.57,3.57,0,0,0,.91-2.55,3.6,3.6,0,0,0-.91-2.56,3.06,3.06,0,0,0-2.35-1,3,3,0,0,0-2.31,1,3.64,3.64,0,0,0-.9,2.56,3.61,3.61,0,0,0,.9,2.55"/><path class="cls-1" d="M54.59,7.32a6.85,6.85,0,0,1,5.06-2.06A6.16,6.16,0,0,1,64.3,7.31a6.94,6.94,0,0,1,1.93,4.91l-.11,1.36H56.33c.45,1.74,1.7,2.61,3.73,2.61a7.29,7.29,0,0,0,3.72-.93L65.14,18A10.14,10.14,0,0,1,60,19.39a7.84,7.84,0,0,1-5.29-1.86,6.46,6.46,0,0,1-2.16-5.18,6.9,6.9,0,0,1,2-5m8.08,3.62a2.91,2.91,0,0,0-1.12-1.85,3.42,3.42,0,0,0-2.12-.68,3.07,3.07,0,0,0-1.93.68,3.54,3.54,0,0,0-1.22,1.85Z"/><path class="cls-1" d="M69,5.68h3.64V7.45a5,5,0,0,1,4.24-2q2.73,0,3.78,1.65a8.71,8.71,0,0,1,1.06,4.74v7.48H78.06V12.21a5.34,5.34,0,0,0-.43-2.52c-.29-.5-.93-.75-1.91-.75a2.79,2.79,0,0,0-2.22,1,3.77,3.77,0,0,0-.85,2.56v6.8H69Z"/><path class="cls-1" d="M84.87,5.68h3.64v1.8A4.56,4.56,0,0,1,92.4,5.41a5.68,5.68,0,0,1,4.54,2,7.49,7.49,0,0,1,1.74,5,7.49,7.49,0,0,1-1.74,5,5.68,5.68,0,0,1-4.54,2,4.58,4.58,0,0,1-3.89-2V23H84.87ZM89.41,15a3,3,0,0,0,2.31,1,3,3,0,0,0,2.35-1A3.57,3.57,0,0,0,95,12.48a3.61,3.61,0,0,0-.91-2.56,3.08,3.08,0,0,0-2.35-1,3,3,0,0,0-2.31,1,3.65,3.65,0,0,0-.9,2.56,3.61,3.61,0,0,0,.9,2.55"/><path class="cls-1" d="M102.79,7.48a7.38,7.38,0,0,1,10.25,0,6.7,6.7,0,0,1,2.14,5,6.72,6.72,0,0,1-2.14,5,7.38,7.38,0,0,1-10.25,0,6.71,6.71,0,0,1-2.13-5,6.69,6.69,0,0,1,2.13-5M105.4,15a3.59,3.59,0,0,0,5,0,3.5,3.5,0,0,0,0-5,3.56,3.56,0,0,0-5,0,3.37,3.37,0,0,0-1,2.5,3.37,3.37,0,0,0,1,2.5"/><rect class="cls-1" x="117.68" width="3.64" height="19.28"/><path class="cls-1" d="M124.89.64a2.12,2.12,0,0,1,3,0,2.09,2.09,0,0,1,.64,1.54,2,2,0,0,1-.64,1.5,2.12,2.12,0,0,1-3,0,2,2,0,0,1-.64-1.5,2.09,2.09,0,0,1,.64-1.54m-.31,5h3.64v13.6h-3.64Z"/><path class="cls-1" d="M131.72,15a7.71,7.71,0,0,0,4.27,1.5,3.82,3.82,0,0,0,1.58-.33,1.07,1.07,0,0,0,.73-1c0-.52-.81-1-2.42-1.33a9.7,9.7,0,0,1-3.53-1.44,3.17,3.17,0,0,1-1.23-2.75,3.56,3.56,0,0,1,1.62-3.08,6.27,6.27,0,0,1,3.66-1.13,11,11,0,0,1,5,1.31l-1.28,2.66a8.1,8.1,0,0,0-3.72-.9,2.15,2.15,0,0,0-1.13.3.89.89,0,0,0-.51.79c0,.49.64.86,1.91,1.11a14.79,14.79,0,0,1,1.93.52,9.34,9.34,0,0,1,1.66.8,3.56,3.56,0,0,1,1.25,1.28,3.64,3.64,0,0,1,.43,1.81,3.9,3.9,0,0,1-.57,2.11,4,4,0,0,1-1.49,1.4,8.51,8.51,0,0,1-1.91.72,8.78,8.78,0,0,1-2,.23,8.66,8.66,0,0,1-2.64-.4,8.81,8.81,0,0,1-1.9-.77,6.63,6.63,0,0,1-1-.74Z"/><path class="cls-2" d="M3.17,19.38a3.11,3.11,0,0,1,0-6.22,3.11,3.11,0,0,1,0,6.22"/><path class="cls-2" d="M11,11.56a3.11,3.11,0,1,1,3-3.11,3.07,3.07,0,0,1-3,3.11"/><path class="cls-2" d="M.63,10.19h0a3.11,3.11,0,0,1-.51-2.4A3.09,3.09,0,0,1,5,5.94,2.94,2.94,0,0,1,6.21,8.21a5.13,5.13,0,0,0,.64,2.68A4.92,4.92,0,0,0,9,12.8a3.59,3.59,0,0,0,1.33.38c.09,0,.45,0,.71,0a2.8,2.8,0,0,1,1.4.37,3.17,3.17,0,0,1,1.59,2.3,3.11,3.11,0,0,1-2.9,3.48A3.31,3.31,0,0,1,9,18.61a3.41,3.41,0,0,1-1.05-2.27s0-.47-.12-1.11a4.59,4.59,0,0,0-.69-1.62,4.55,4.55,0,0,0-3.12-2,5.17,5.17,0,0,0-.58,0A3.55,3.55,0,0,1,1.53,11a3.15,3.15,0,0,1-.9-.84"/><rect class="cls-3" width="142" height="23"/></g></g></svg>