<svg xmlns="http://www.w3.org/2000/svg" viewBox="0 0 31.51 36"><defs><style>.cls-1{fill:#cc232a;}</style></defs><title>chart_condividi</title><g id="Livello_2" data-name="Livello 2"><g id="Livello_1-2" data-name="Livello 1"><path class="cls-1" d="M25.46,24a5.77,5.77,0,0,0-3.89,1.53l-9.74-6A6,6,0,0,0,12.07,18a5.46,5.46,0,0,0-.24-1.48l9.74-6A6,6,0,0,0,31.51,6,6,6,0,0,0,19.44,6a3.28,3.28,0,0,0,.24,1.41L9.94,13.47A6.25,6.25,0,0,0,6,12a6,6,0,0,0-6,6A6,6,0,0,0,6,24a6.18,6.18,0,0,0,3.93-1.4l9.74,6A3.46,3.46,0,0,0,19.44,30a6,6,0,1,0,6-6"/></g></g></svg>